<svg id="Capa_1" enable-background="new 0 0 512 512" height="512" viewBox="0 0 512 512" width="512" xmlns="http://www.w3.org/2000/svg"><g><path d="m391.111 0c-43.293 0-80.963 24.511-99.88 60.381h-283.185v150.188h15.021v-29.989h277.852c9.164 12.171 20.728 22.437 33.986 30.085h-101.556v90.083h-44.488l-60.67-60.67-60.67 60.67h-44.454v-75.158h-15.021v286.41h322.982v-15.021h-307.961v-75.624c13.585 17.967 35.123 29.603 59.333 29.603h241.869c24.209 0 45.747-11.635 59.333-29.603v75.624h-37.552v15.021h52.573v-286.57c58.733-3.879 105.332-52.89 105.332-112.587-.001-62.222-50.622-112.843-112.844-112.843zm-368.044 75.402h261.595c-3.339 9.467-5.449 19.506-6.137 29.93h-255.458zm0 90.157v-45.206h255.458c1.073 16.24 5.594 31.55 12.841 45.206zm225.303 60.127h105.146v105.146h-105.146zm-120.179 35.634 69.417 69.417-69.417 69.417-69.417-69.417zm255.41 115.284c0 32.716-26.617 59.333-59.333 59.333h-241.869c-32.716 0-59.333-26.617-59.333-59.333v-60.835h29.434l-14.968 14.968 90.659 90.659 90.66-90.659-14.968-14.968h29.467v30.085h135.188v-122.438c4.913 1.002 9.943 1.676 15.063 2.014zm7.51-165.939c-53.939 0-97.822-43.883-97.822-97.822s43.883-97.822 97.822-97.822 97.822 43.883 97.822 97.822-43.883 97.822-97.822 97.822z"/><path d="m391.111 30.042c-45.632 0-82.756 37.124-82.756 82.756s37.124 82.756 82.756 82.756 82.756-37.124 82.756-82.756-37.124-82.756-82.756-82.756zm-62.038 109.902c-3.654-8.317-5.696-17.495-5.696-27.146s2.043-18.829 5.696-27.146l47.018 27.146zm54.528 40.163c-19.234-2.132-36.061-12.344-47.003-27.163l47.003-27.137zm0-80.317-47.003-27.138c10.942-14.819 27.77-25.031 47.003-27.163zm15.021-54.301c19.234 2.132 36.061 12.344 47.003 27.163l-47.003 27.138zm0 134.618v-54.3l47.003 27.137c-10.942 14.818-27.769 25.031-47.003 27.163zm7.51-67.309 47.018-27.146c3.653 8.317 5.696 17.495 5.696 27.146s-2.043 18.829-5.696 27.146z"/><path d="m120.422 287.193h15.537v15.021h-15.537z" transform="matrix(.707 -.707 .707 .707 -170.841 176.962)"/><path d="m263.391 240.094h15.021v15.538h-15.021z"/><path d="m38.429 465.925h15.021v15.021h-15.021z"/><path d="m68.087 465.925h15.021v15.021h-15.021z"/><path d="m38.429 135.465h15.021v15.021h-15.021z"/><path d="m68.087 135.465h15.021v15.021h-15.021z"/></g></svg>