<svg id="Capa_1" enable-background="new 0 0 512 512" height="512" viewBox="0 0 512 512" width="512" xmlns="http://www.w3.org/2000/svg"><g><path d="m383.208 60.962 17.885-17.885c33.625 11.022 43.663-40.736 8.321-43.069-16.601-.442-27.884 18.894-19.57 33.104l-27.851 27.851h-190.942c2.119-5.205 4.893-10.761 7.474-15.819l-15.165-15.165c-9.777 9.452-19.181 19.942-26.565 30.983h-75.832v74.987h15.002v-59.985h51.675c-25.233 46.414-28.263 101.78-9.091 150.346h-42.585v-75.36h-15.001v361.05h322.567v-15.002h-307.566v-75.527c13.568 17.944 35.078 29.564 59.256 29.564h241.558c24.178 0 45.689-11.62 59.256-29.564v75.527h-37.504v15.002h52.506v-451.038zm26.206-45.953c9.645.173 9.644 14.508 0 14.679-9.646-.172-9.644-14.507 0-14.679zm-243.751 60.955h181.328l-150.953 150.953c-34.991-42.267-46.238-98.992-30.375-150.953zm-11.141-13.948c-23.714 64.415-8.273 137.295 41.201 186.769 49.457 49.457 122.301 64.906 186.701 41.226-34.173 26.092-77.752 37.805-120.805 31.964-3.478-7.943-11.41-13.508-20.621-13.508-5.272 0-10.123 1.827-13.963 4.875-21.984-8.131-41.604-20.73-58.372-37.499-58.27-58.27-62.987-150.123-14.141-213.827zm93.977 268.954c0 4.136-3.365 7.501-7.501 7.501s-7.501-3.365-7.501-7.501 3.365-7.501 7.501-7.501c4.137 0 7.501 3.365 7.501 7.501zm187.537 45.808c0 32.674-26.583 59.256-59.256 59.256h-241.559c-32.674 0-59.256-26.583-59.256-59.256v-135.467h49.333c6.051 11.931 13.533 23.315 22.45 33.897l-56.274 56.274 10.608 10.608 55.809-55.809c.056.057.11.115.167.171 17.585 17.585 38.056 30.959 60.927 39.863-5.3 28.294 35.2 38.115 43.628 10.906 56.057 6.875 113.206-14.398 151.918-56.072l-15.165-15.165c-62.054 33.729-138.755 23.867-189.803-24.672h226.475v135.466zm0-150.469h-218.175l150.345-150.345h67.83z"/><path d="m91.307 465.984h15.002v15.001h-15.002z"/><path d="m120.927 465.984h15.002v15.001h-15.002z"/><path d="m150.989 368.474c-12.408 0-22.502 10.094-22.502 22.502s10.094 22.502 22.502 22.502 22.502-10.094 22.502-22.502-10.094-22.502-22.502-22.502zm0 30.003c-4.136 0-7.501-3.365-7.501-7.501s3.365-7.501 7.501-7.501 7.501 3.365 7.501 7.501-3.365 7.501-7.501 7.501z"/><path d="m346.01 353.472c-12.408 0-22.502 10.094-22.502 22.502s10.094 22.502 22.502 22.502 22.502-10.094 22.502-22.502c0-12.407-10.094-22.502-22.502-22.502zm0 30.003c-4.136 0-7.501-3.365-7.501-7.501s3.365-7.501 7.501-7.501 7.501 3.365 7.501 7.501-3.365 7.501-7.501 7.501z"/></g></svg>