<svg id="Capa_1" enable-background="new 0 0 512 512" height="512" viewBox="0 0 512 512" width="512" xmlns="http://www.w3.org/2000/svg"><g><path d="m315.96 0v15.99h29.708c-2.055 24.803-14.21 46.784-32.335 61.806l-42.99-61.806h30.627v-15.99h-180.21v7.495c0 22.533 5.547 44.792 15.335 63.496v230.139h14.99v-112.425h61.982l-46.254 46.254 63.565 63.565-32.585 32.585 74.197 74.197 74.197-74.197-63.565-63.565 32.585-32.585-46.254-46.254h91.994v203.045c0 24.436-19.88 44.316-44.316 44.316h-121.229c-24.436 0-44.316-19.88-44.316-44.316v-75.63h-14.99v195.88h239.84v-441.07c9.769-18.689 15.303-40.927 15.303-63.435v-7.495zm44.986 497.01h-209.86v-65.907c10.871 12.229 26.705 19.953 44.316 19.953h121.228c17.611 0 33.445-7.724 44.316-19.953zm-59.909-410.639c-13.254 7.695-28.639 12.107-45.037 12.107-16.552 0-32.071-4.497-45.409-12.327l45.377-64.575zm-59.464-70.381-43.235 61.527c-17.942-15.014-29.963-36.875-32.005-61.527zm83.415 315.12-52.998 52.998-52.998-52.998 53.03-52.966zm-30.98-96.151-53.03 52.966-52.966-52.966 52.998-52.998zm66.938-61.244h-106.984l-12.952-12.952-12.952 12.952h-76.972v-79.983c24.818 30.49 62.627 50.003 104.914 50.003 42.305 0 80.129-19.53 104.946-50.043zm-104.946-44.971c-63.789 0-116.136-49.927-120.019-112.754h15.317c3.857 54.397 49.341 97.478 104.702 97.478s100.846-43.081 104.702-97.478h15.317c-3.883 62.828-56.23 112.754-120.019 112.754z"/><path d="m233.258 206.264h15.506v14.99h-15.506z" transform="matrix(.707 -.707 .707 .707 -80.561 233.022)"/><path d="m264.238 302.415h15.506v14.99h-15.506z" transform="matrix(.707 -.707 .707 .707 -139.475 283.088)"/><path d="m166.283 466.02h14.99v14.99h-14.99z"/><path d="m196.135 466.02h14.99v14.99h-14.99z"/></g></svg>