<svg id="Capa_1" enable-background="new 0 0 512 512" height="512" viewBox="0 0 512 512" width="512" xmlns="http://www.w3.org/2000/svg"><g><path d="m391.293 60.373v-60.373h-45.127v109.845c-18.38-7.444-39.462-4.452-55.135 8.14-14.58-11.632-34.103-15.037-51.598-9.377 5.052-13.587-3.35-28.941-16.551-33.214h108.224v-15.021h-255.206v451.627h292.605v-15.021h-277.584v-75.625c13.586 17.967 35.124 29.603 59.334 29.603h211.49c24.21 0 45.748-11.635 59.334-29.603v75.625h-37.553v15.021h52.574v-451.627zm-30.106-45.352h15.085v179.034c-4.609-4.978-9.655-9.543-15.085-13.627zm30.119 255.627c0 53.94-43.883 97.824-97.824 97.824s-97.825-43.884-97.825-97.824 43.884-97.824 97.825-97.824 97.824 43.884 97.824 97.824zm-15.035 76.593v43.715h-15.085v-30.087c5.43-4.085 10.477-8.65 15.085-13.628zm-215.223-257.919c4.072-.414 11.651 5.494 15.149 7.146 1.299-8.558.014-20.025 11.89-20.618 11.963.597 10.582 12.193 11.869 20.799 3.472-1.684 11.204-7.771 15.292-7.327 9.466-.288 14.331 12.402 7.07 18.493l-6.222 5.588s6.222 5.588 6.221 5.588c7.262 6.091 2.396 18.781-7.069 18.494-4.13.423-11.763-5.632-15.293-7.328-1.285 8.593.095 20.204-11.868 20.799-11.875-.595-10.589-12.047-11.89-20.618-3.439 1.642-11.117 7.58-15.149 7.146-9.466.288-14.33-12.401-7.071-18.493l6.225-5.588s-6.225-5.588-6.224-5.588c-7.261-6.09-2.395-18.781 7.07-18.493zm-70.127-13.928h62.49c-13.363 4.324-21.795 20-16.354 33.704-15.237-5.409-32.179-3.813-46.135 4.193v-37.897zm0 56.456c12.011-11.29 29.769-14.051 44.528-7.202-1.183 15.508 12.834 30.736 29.889 27.492 4.295 8.279 12.946 13.837 22.749 13.837 9.825 0 18.477-5.563 22.765-13.855 17.286 3.363 31.526-12.284 29.963-28.016 18.589-7.915 37.838-.617 50.228 14.905 13.54-17.217 35.841-24.018 55.124-12.427v44.299c-15.736-8.343-33.666-13.079-52.683-13.079-51.735 0-95.444 34.996-108.712 82.556-9.962-.675-19.339-5.01-26.331-12.318l-5.427-5.672-5.427 5.672c-14.519 15.863-41.367 16.538-56.665 1.499v-97.691zm330.158 244.751c0 32.717-26.617 59.334-59.334 59.334h-211.49c-32.717 0-59.334-26.617-59.334-59.334v-128.46c8.282 4.787 17.707 7.347 27.578 7.347 12.75 0 24.769-4.248 34.521-12.088 8.253 6.602 18.195 10.662 28.683 11.766-.698 5.063-1.067 10.23-1.067 15.482 0 62.223 50.622 112.845 112.846 112.845 19.017 0 36.947-4.736 52.683-13.079v35.563h45.127v-79.098c9.56-16.565 15.035-35.77 15.035-56.231 0-5.495-.403-10.897-1.166-16.185 5.598-1.082 10.955-3.019 15.917-5.733v127.871zm0-146.088c-5.436 4.765-11.984 7.944-19.045 9.26-2.55-8.953-6.181-17.454-10.741-25.355v-93.369c10.881-.921 21.53 2.574 29.786 9.832zm0-117.818c-9.062-4.929-19.409-7.286-29.786-6.692v-30.609h29.786z"/><path d="m106.283 465.924h15.021v15.021h-15.021z"/><path d="m135.942 465.924h15.021v15.021h-15.021z"/><path d="m210.725 270.603c0 45.633 37.125 82.757 82.758 82.757 45.632 0 82.757-37.125 82.757-82.757s-37.125-82.757-82.757-82.757c-45.633 0-82.758 37.125-82.758 82.757zm20.718 27.146c-3.654-8.317-5.696-17.495-5.696-27.146s2.043-18.829 5.696-27.146l47.019 27.146zm54.529 40.164c-19.234-2.132-36.062-12.344-47.004-27.164l47.004-27.138zm0-80.318-47.004-27.138c10.942-14.819 27.77-25.031 47.004-27.164zm69.55-14.138c3.653 8.317 5.696 17.495 5.696 27.146s-2.043 18.829-5.696 27.146l-47.019-27.146zm-54.529-40.164c19.234 2.132 36.062 12.344 47.004 27.164l-47.004 27.137zm0 80.319 47.003 27.137c-10.942 14.819-27.77 25.031-47.003 27.164z"/></g></svg>