<svg id="Capa_1" enable-background="new 0 0 512 512" height="512" viewBox="0 0 512 512" width="512" xmlns="http://www.w3.org/2000/svg"><g><path d="m298.659 388.485c19.636-4.739 37.419-15.628 50.69-31.445 18.194-21.685 25.808-50.109 20.891-77.984l-18.555-105.189c-5.968-32.599-1.769-66.304 9.847-97.206h-38.587c-.911-2.169-2.059-4.214-3.404-6.11 16.596-20.078 17.981-48.894 2.756-70.55l-12.26 8.619c11.219 15.958 10.281 37.158-1.788 52.058-4.417-2.312-9.435-3.629-14.757-3.629-13.241 0-24.623 8.104-29.452 19.612h-16.838c5.596-10.301 9.403-20.087 11.983-28.477l15.601-1.733-1.655-14.895-57.726 6.414 1.655 14.895 25.722-2.858c-4.905 13.629-13.253 30.175-27.415 45.947l-38.61-38.611 25.317-2.812-1.655-14.895-46.771 5.195-13.35 120.154 14.895 1.655 1.808-16.27c12.985-3.993 29.301-10.909 45.685-22.858 1.36 15.468.693 31.022-2.011 46.354l-18.556 105.189c-4.917 27.875 2.697 56.3 20.891 77.985 13.271 15.816 31.054 26.706 50.69 31.444v32.576h14.987v-30.196h14.987v86.872l41.715 19.276h-98.417l41.715-19.276v-41.689h-14.987v32.106l-59.947 27.701v16.146h164.853v-16.146l-59.947-27.701zm-5.166-316.45c9.339 0 16.938 7.599 16.938 16.938s-7.598 16.937-16.938 16.937-16.938-7.598-16.938-16.937 7.598-16.938 16.938-16.938zm-55.579 19.612h23.775c1.364 16.354 15.102 29.249 31.804 29.249s30.439-12.895 31.804-29.249h15.691c-4.033 14.584-6.309 29.611-6.837 44.705h-78.385l-29.788-29.788c4.475-4.931 8.436-9.933 11.936-14.917zm-3.343 44.705h-16.332c-.207-5.936-.692-11.867-1.45-17.782zm-75.749-2.385 7.336-66.027 38.612 38.612c-15.768 14.159-32.311 22.507-45.948 27.415zm117.357 242.208c-23.864 0-46.349-10.485-61.689-28.768-15.34-18.282-21.76-42.247-17.614-65.749l18.555-105.189c1.469-8.33 2.38-16.721 2.744-25.13h116.029c.359 8.416 1.255 16.813 2.722 25.13l18.555 105.189c4.146 23.502-2.274 47.467-17.614 65.748-15.338 18.283-37.823 28.769-61.688 28.769z"/><path d="m231.198 166.293h14.987v14.986h-14.987z"/><path d="m261.234 166.293h14.987v14.986h-14.987z"/></g></svg>