<svg id="Layer_1" enable-background="new 0 0 512 512" height="512" viewBox="0 0 512 512" width="512" xmlns="http://www.w3.org/2000/svg"><path d="m374.302 180c1.118-4.998 1.698-10.026 1.698-15 0-23.92-20.837-53.707-33.257-69.333l-18.746-23.584-7.521 29.173c-1.973 7.652-5.84 12.432-10.89 13.46-3.927.8-8.275-.739-10.577-3.741-2.504-3.268-2.504-3.268.37-10.59 2.371-6.046 5.621-14.325 5.621-25.385 0-41.355-33.645-75-75-75h-44.19l15.253 23.232c15.337 23.36 8.383 31.047-15.913 51.824-20.116 17.202-45.15 38.61-45.15 77.944 0 8.864 1.788 18.077 5.11 27h-21.674l32.98 332h207.168l32.98-332zm-212.599 122h188.594l-8.94 90h-170.713zm-2.98-30-6.159-62h206.872l-6.159 62zm7.277-119c0-25.516 16.83-39.907 34.647-55.144 22.197-18.981 40.7-37.286 32.702-67.257 21.33 3.519 37.651 22.09 37.651 44.401 0 5.383-1.645 9.572-3.548 14.423-3.608 9.194-9.062 23.088 3.745 39.799 9.306 12.143 25.157 17.987 40.372 14.89 8.117-1.652 15.217-5.559 20.934-11.34 9.747 15.312 13.497 26.482 13.497 32.228 0 4.967-1.011 9.988-2.967 15h-168.714c-5.278-8.652-8.319-18.365-8.319-27zm13.584 329-5.96-60h164.753l-5.96 60z"/></svg>