<svg id="Layer_1" enable-background="new 0 0 512 512" height="512" viewBox="0 0 512 512" width="512" xmlns="http://www.w3.org/2000/svg"><path d="m421 105c0-57.897-47.103-105-105-105-52.805 0-96.623 39.183-103.924 90h-29.044l-20-90h-72.032v30h47.967l13.334 60h-31.301v97.721c0 42.537 8.254 84.031 24.532 123.331 15.475 37.359 37.493 70.984 65.468 100.053v70.895h-60v30h150v-30h-60v-70.895c27.975-29.07 49.993-62.694 65.468-100.053 16.278-39.3 24.532-80.794 24.532-123.331v-67.721h90zm-81.253-71.131-23.747 41.131-23.747-41.131c7.468-2.5 15.449-3.869 23.747-3.869s16.279 1.369 23.747 3.869zm-73.457 15.03 23.729 41.101h-47.513c3.304-16.203 11.853-30.517 23.784-41.101zm34.71 71.101v60h-150v-60zm-138.301 150c-5.662-19.408-9.316-39.492-10.852-60h148.307c-1.536 20.508-5.19 40.592-10.852 60zm116.032 30c-12.578 30.245-30.299 58.355-52.731 83.227-22.433-24.872-40.154-52.982-52.731-83.227zm63.25-210 23.729-41.101c11.93 10.584 20.48 24.898 23.783 41.101z"/></svg>