<svg id="Layer_1" enable-background="new 0 0 512 512" height="512" viewBox="0 0 512 512" width="512" xmlns="http://www.w3.org/2000/svg"><path d="m202.157 422h30v30h-30z"/><path d="m262.157 422h30v30h-30z"/><path d="m380.399 92 3.75-30h-31.992v-62h-210v62h-72.314l50.05 78.709 24.031 191.291h28.233v30h-24.271l-35.729 71.459v78.541h270v-78.541l-35.73-71.459h-24.271v-30h28.242l26.25-210h35.508v120h30v-150zm-208.242-62h150v32h-150zm178.008 62-3.75 30h-202.867l-19.077-30zm1.992 348.541v41.459h-210v-41.459l24.27-48.541h161.459zm-60-78.541h-90v-30h90zm-121.767-60-18.843-150h191.118l-18.75 150z"/><path d="m217.157 182h60v30h-60z"/><path d="m217.157 242h60v30h-60z"/></svg>