<svg id="Layer_1" enable-background="new 0 0 512 512" height="512" viewBox="0 0 512 512" width="512" xmlns="http://www.w3.org/2000/svg"><path d="m346 391h90v-120h-90zm30-90h30v60h-30z"/><path d="m421 211h-45v-121h-74.703l12-60h62.703v-30h-87.297l-18 90h-45.779c-7.301-50.817-51.12-90-103.924-90-57.897 0-105 47.103-105 105 0 52.805 39.184 96.623 90 103.924v303.076h270v-61h45c41.355 0 75-33.645 75-75v-90c0-41.355-33.645-75-75-75zm-75-91v30h-56.703l6-30zm-87.297 30h-122.703v-30h128.703zm-113.433-60 21.986-43.971c13.728 10.791 23.622 26.246 27.235 43.971zm-4.826-57.429-23.553 47.107-37.22-37.22c11.859-7.864 26.065-12.458 41.329-12.458 6.724 0 13.239.903 19.444 2.571zm-81.987 31.1 37.22 37.22-47.107 23.553c-1.667-6.205-2.57-12.72-2.57-19.444 0-15.264 4.594-29.47 12.457-41.329zm3.572 87.585 43.971-21.985v49.22c-17.724-3.613-33.18-13.507-43.971-27.235zm403.971 224.744c0 24.813-20.187 45-45 45h-75v61h-210v-302h210v61h75c24.813 0 45 20.187 45 45z"/><path d="m211 192.36-63.639 63.64 63.639 63.64 63.639-63.64zm-21.213 63.64 21.213-21.213 21.213 21.213-21.213 21.213z"/><path d="m226 451h90v-90h-90zm30-60h30v30h-30z"/><path d="m166 361h30v30h-30z"/><path d="m286 301h30v30h-30z"/></svg>