<svg id="Layer_1" enable-background="new 0 0 512 512" height="512" viewBox="0 0 512 512" width="512" xmlns="http://www.w3.org/2000/svg"><path d="m379.989 307.649 9.607-97.649h31.404v-90h-30.838c-7.486-67.405-64.793-120-134.162-120-35.713 0-68.226 13.945-92.396 36.669l-18.333-36.669h-84.271v30h65.729l15.896 31.792c-11.103 17.135-18.424 36.933-20.787 58.208h-30.838v90h31.416l30 302h193.584c57.897 0 105-47.103 105-105 0-46.007-29.744-85.194-71.011-99.351zm31.23 62.388-50.219 16.317v-52.845c21.509 4.384 39.683 18.012 50.219 36.528zm-120.523 87.563c-12.224-13.349-19.696-31.116-19.696-50.6 0-2.854.176-5.667.488-8.439l50.242 16.325zm40.304-71.246-50.219-16.317c10.536-18.517 28.71-32.144 50.219-36.528zm-75-356.354c52.805 0 96.623 39.183 103.924 90h-207.848c7.301-50.817 51.119-90 103.924-90zm-135 120h270v30h-270zm58.584 332-27.02-272h206.888l-9.061 92.099c-1.457-.06-2.919-.099-4.391-.099-57.897 0-105 47.103-105 105 0 29.354 12.113 55.927 31.596 75zm135.374-6.753 31.042-42.727 31.042 42.727c-9.467 4.323-19.973 6.753-31.042 6.753s-21.575-2.43-31.042-6.753zm86.346-17.647-31.034-42.714 50.242-16.325c.312 2.772.488 5.585.488 8.439 0 19.484-7.472 37.251-19.696 50.6z"/></svg>