<svg id="Layer_1" enable-background="new 0 0 512 512" height="512" viewBox="0 0 512 512" width="512" xmlns="http://www.w3.org/2000/svg"><path d="m473.933 30v-30h-117.767l-19.751 122h-91.327l34.71-34.191-83.231-12.555-37.634-75.249-37.634 75.249-83.232 12.555 59.953 59.058-13.792 83.013 59.728-31.01c.951 85.078 66.61 154.892 149.976 162.441v61.963c-.034.006-.067.013-.101.019-25.937 4.436-49.244 20.293-62.752 43.53-5.442 9.362-15.539 15.177-26.35 15.177h-.797v30h210v-30h-.797c-10.811 0-20.907-5.816-26.35-15.177-13.504-23.229-36.807-39.093-62.752-43.53-.034-.006-.067-.013-.101-.019v-61.963c83.977-7.604 150-78.386 150-164.311v-75h-107.126l14.894-92h92.233zm-248.251 152-4.984-30h110.86l-4.857 30zm-123.833-73.473 39.317-5.931 17.767-35.523 17.767 35.523 39.317 5.931-28.318 27.895 6.511 39.184c-13.457-6.987-22.908-11.893-35.276-18.314-12.375 6.425-21.816 11.326-35.276 18.314l6.511-39.184zm259.038 373.473h-103.91c10.936-18.854 31.015-30 51.955-30 20.692 0 40.888 10.919 51.955 30zm-51.954-150c-73.806 0-133.958-59.537-134.976-133.105l59.68 30.985-2.971-17.88h212.428c-7.485 67.405-64.792 120-134.161 120zm135.02-180v30h-86.86l4.856-30z"/></svg>