<svg id="Layer_1" enable-background="new 0 0 512 512" height="512" viewBox="0 0 512 512" width="512" xmlns="http://www.w3.org/2000/svg"><path d="m437 180h-45v-32.58c17.459-6.192 30-22.865 30-42.42 0-22.407-16.463-41.041-37.927-44.445-10.487-18.633-30.261-30.555-52.073-30.555-2.483 0-4.99.181-7.547.548-16.999-19.289-41.536-30.548-67.453-30.548s-50.454 11.259-67.453 30.548c-2.557-.367-5.064-.548-7.547-.548-21.812 0-41.586 11.922-52.073 30.555-21.465 3.404-37.927 22.038-37.927 44.445 0 19.555 12.541 36.228 30 42.42v155.964c-5.535-.905-11.213-1.383-17-1.383-57.897-.001-105 47.102-105 104.999s47.103 105 105 105h257v-15c0-8.271 6.729-15 15-15h15v-60h45c41.355 0 75-33.645 75-75v-92c0-41.355-33.645-75-75-75zm-75 0h-30v-30h30zm-226.3-89.944c2.298.526 3.101.39 14.279 1.459l3.808-11.14c4.165-12.187 15.503-20.375 28.213-20.375 5.917 0 10.709 2.342 19.473 4.899l6.3-9.057c11.257-16.181 29.66-25.842 49.227-25.842 19.568 0 37.971 9.66 49.227 25.841l6.3 9.058c8.866-2.587 13.579-4.899 19.473-4.899 12.71 0 24.048 8.188 28.214 20.375l3.807 11.139c11.14-1.065 11.981-.932 14.279-1.458 7.665.66 13.7 7.111 13.7 14.944 0 8.271-6.729 15-15 15h-75v75c0 8.271-6.729 15-15 15s-15-6.729-15-15v-75h-135c-8.271 0-15-6.729-15-15 0-7.833 6.035-14.284 13.7-14.944zm16.3 89.944v-30h90v30zm28 227c0 19.483-7.472 37.251-19.696 50.6l-31.034-42.714 50.242-16.325c.312 2.772.488 5.585.488 8.439zm-60-20.646v-52.845c21.509 4.384 39.683 18.011 50.219 36.528zm-30-52.845v52.845l-50.219-16.317c10.536-18.516 28.71-32.144 50.219-36.528zm-60 73.491c0-2.854.176-5.667.488-8.439l50.242 16.325-31.034 42.714c-12.224-13.349-19.696-31.117-19.696-50.6zm43.957 68.247 31.043-42.727 31.043 42.727c-9.467 4.323-19.974 6.753-31.043 6.753s-21.576-2.43-31.043-6.753zm260.613 6.753h-156.166c16.103-15.764 27.166-36.652 30.52-60h153.076v32.57c-12.768 4.527-22.903 14.662-27.43 27.43zm147.43-135c0 24.813-20.187 45-45 45-6.629 0-221.369 0-228.076 0-2.378-16.552-8.63-31.869-17.807-45h20.883v-92h-30v80.696c-8.529-9.204-18.682-16.88-30-22.57v-103.126h92.58c6.192 17.458 22.865 30 42.42 30s36.228-12.542 42.42-30h107.58c24.813 0 45 20.187 45 45z"/><path d="m362 362h90v-122h-90zm30-92h30v62h-30z"/><path d="m242 255h30v92h-30z"/><path d="m302 255h30v92h-30z"/></svg>