<svg id="Layer_1" enable-background="new 0 0 512 512" height="512" viewBox="0 0 512 512" width="512" xmlns="http://www.w3.org/2000/svg"><path d="m391 30v-30h-87.416l-17.5 92h-135.084v15c0 8.271-6.729 15-15 15h-15v360h15c8.271 0 15 6.729 15 15v15h210v-15c0-8.271 6.729-15 15-15h15v-360h-15c-8.271 0-15-6.729-15-15v-15h-44.378l11.794-62zm-106.584 280.292c-8.776-17.555-13.416-37.208-13.416-56.833v-41.459h90v180h-60c-.589-6.169 3.666-41.208-16.584-81.708zm-26.832 13.416c16.765 33.533 12.876 62.389 13.416 68.292h-120v-180h90v41.459c0 24.259 5.734 48.55 16.584 70.249zm75.986 158.292h-155.14c-4.526-12.768-14.662-22.903-27.43-27.43v-32.57h210v32.57c-12.768 4.527-22.903 14.662-27.43 27.43zm27.43-332.57v32.57h-210v-32.57c12.768-4.527 22.903-14.662 27.43-27.43h155.14c4.527 12.768 14.662 22.903 27.43 27.43z"/></svg>