<svg id="Layer_1" enable-background="new 0 0 511.998 511.998" height="512" viewBox="0 0 511.998 511.998" width="512" xmlns="http://www.w3.org/2000/svg"><path d="m413.258 66.872c-23.89-30.666-57.685-53.111-95.159-63.2l-13.637-3.672-49.24 146.998h-48.411l-30-90h-115.812v30h94.188l20 60h-84.188v215c0 29.355 10.608 57.249 30 79.218v70.782h180v-70.782c19.392-21.969 30-49.863 30-79.218v-155h118.491l.879-14.065c.332-5.313.63-10.529.63-15.935 0-40.351-13.051-78.432-37.741-110.126zm-112.259 110.126v60h-64.188l-20-60zm-115.811 0 20 60h-84.188v-60zm90.085 247.846-4.274 4.372v52.783h-120v-52.783l-4.274-4.372c-16.59-16.967-25.726-39.286-25.726-62.846v-95h180v95c0 23.56-9.136 45.878-25.726 62.846zm11.588-277.846 17.9-53.439c33.692 13.543 56.238 46.136 56.238 83.439h-30v-30zm104.138 30c0-27.17-9.373-53.809-26.393-75.01-13.268-16.527-30.762-29.257-50.318-36.873l9.437-28.173c57.919 21.62 97.273 77.342 97.273 140.056z"/></svg>