<svg id="Layer_1" enable-background="new 0 0 512 512" height="512" viewBox="0 0 512 512" width="512" xmlns="http://www.w3.org/2000/svg"><path d="m451 60v-30h-115.566l-32.188 90h-63.843c19.484-19.073 31.597-45.646 31.597-75v-15h-45c-30.649 0-59.258 13.201-79.062 35.902-3.843-1.85-7.917-3.286-12.158-4.287-6.333-34.987-36.995-61.615-73.78-61.615v30c20.444 0 37.735 13.708 43.195 32.412-24.927 7.287-43.195 30.338-43.195 57.588 0 22.159 12.084 41.537 30 51.928v23.072c0 85.925 66.023 156.707 150 164.311v63.962c-.034.006-.068.013-.102.019-26.039 4.444-49.298 20.387-62.752 43.53-5.442 9.362-15.539 15.178-26.349 15.178h-.797v30h210v-30h-.797c-10.811 0-20.907-5.815-26.349-15.177-13.436-23.112-36.696-39.084-62.752-43.53-.034-.006-.068-.013-.102-.019v-63.962c83.977-7.604 150-78.386 150-164.311v-75h-85.892l21.458-60h94.434zm-225 0h13.493c-5.983 29.354-29.173 52.512-58.532 58.483-.309-12.362-4.371-23.802-11.094-33.23 14.139-15.977 34.421-25.253 56.133-25.253zm-105 30c16.542 0 30 13.458 30 30s-13.458 30-30 30-30-13.458-30-30 13.458-30 30-30zm51.928 60h119.589l-21.458 60h-149.221c-.547-4.927-.838-9.93-.838-15v-15c22.159 0 41.537-12.084 51.928-30zm135.026 332h-103.908c11.007-18.966 31.139-30 51.954-30 20.924 0 40.998 11.122 51.954 30zm-51.954-152c-58.667 0-108.704-37.62-127.278-90h254.557c-18.575 52.38-68.612 90-127.279 90zm135-180v45c0 5.07-.291 10.073-.838 15h-87.242l21.458-60z"/></svg>