<svg id="Layer_1" enable-background="new 0 0 512 512" height="512" viewBox="0 0 512 512" width="512" xmlns="http://www.w3.org/2000/svg"><path d="m181 135c0 20.271 13.472 37.455 31.934 43.066 4.156 13.673 14.662 24.602 28.066 29.356v32.578h-30v30h90v-30h-30v-32.578c13.404-4.754 23.91-15.683 28.066-29.356 18.462-5.611 31.934-22.795 31.934-43.066v-45h-150zm30-15h90v15c0 8.271-6.729 15-15 15h-15v15c0 8.271-6.729 15-15 15s-15-6.729-15-15v-15h-15c-8.271 0-15-6.729-15-15z"/><path d="m421 165c0-90.981-74.019-165-165-165s-165 74.019-165 165c0 32.764 9.586 64.428 27.681 91.509l75.077 113.551c-44.849 12.392-72.758 37.469-72.758 66.94 0 53.518 80.749 75 135 75 55.148 0 135-21.88 135-75 0-29.471-27.909-54.548-72.758-66.94l75.058-113.522c18.123-27.135 27.7-58.786 27.7-91.538zm-60 272c0 21.242-44.904 45-105 45s-105-23.758-105-45c0-13.771 21.073-31.857 60.322-40.376l44.678 67.573 44.678-67.573c39.249 8.519 60.322 26.605 60.322 40.376zm7.334-197.097-112.334 169.9-112.334-169.9c-14.829-22.192-22.666-48.092-22.666-74.903 0-74.439 60.561-135 135-135s135 60.561 135 135c0 26.811-7.837 52.712-22.666 74.903z"/></svg>