<svg id="Layer_1" enable-background="new 0 0 511.933 511.933" height="512" viewBox="0 0 511.933 511.933" width="512" xmlns="http://www.w3.org/2000/svg"><path d="m455.821 173.169-10.583-21.166h-114.271v-30h112.338l-127.338-122.003-127.338 122.003h112.338v30h-123.288l-30-120h-116.712v30h93.288l22.5 90h-80.058l-10.583 21.168c-28.869 57.735-24.738 110.029-25.147 113.832 0 123.977 100.476 224.929 225.378 224.929 132.039 0 224.622-109.85 224.622-232.243 0-36.784-8.695-73.618-25.146-106.52zm-139.854-131.622 52.662 50.456h-105.324zm-230.729 140.456h341.459l2.292 4.582c4.542 9.085 8.403 18.514 11.567 28.175-16.269-1.289-32.905 4.347-45.195 16.637-10.693 10.693-28.094 10.693-38.787 0-10.846-10.847-25.268-16.82-40.606-16.82s-29.761 5.973-40.606 16.82c-10.693 10.693-28.094 10.693-38.787 0-10.846-10.847-25.268-16.82-40.606-16.82s-29.761 5.973-40.606 16.82c-10.694 10.692-28.093 10.693-38.787 0-12.289-12.29-28.925-17.926-45.194-16.637 3.164-9.66 7.025-19.088 11.567-28.172zm171.155 299.922c-109.221-.005-195.426-88.389-195.426-194.922.139-4.619-.708-18.763 2.537-39.439 10.385-5.313 23.314-3.497 31.856 5.045 22.391 22.391 58.822 22.391 81.213 0 10.693-10.693 28.094-10.693 38.787 0 10.846 10.847 25.268 16.82 40.606 16.82s29.761-5.973 40.606-16.82c10.693-10.693 28.094-10.693 38.787 0 22.391 22.391 58.822 22.391 81.213 0 8.542-8.542 21.471-10.359 31.857-5.045 1.668 10.627 2.537 21.377 2.537 32.125.001 106.802-79.963 202.24-194.573 202.236z"/><path d="m300.967 302.003h30v30h-30z"/><path d="m300.967 392.003h30v30h-30z"/><path d="m360.967 332.003h30v30h-30z"/></svg>