<svg id="Capa_1" enable-background="new 0 0 511.996 511.996" height="512" viewBox="0 0 511.996 511.996" width="512" xmlns="http://www.w3.org/2000/svg"><g><path d="m87.248 443.597c.483 4.517-.383 9.026-2.505 13.042-13.29 25.157 4.971 55.357 33.361 55.357h85.896c28.454 0 46.622-30.256 33.36-55.357-2.122-4.017-2.987-8.526-2.504-13.041 2.053-19.167 20.966-195.694 23.019-214.857 2.61-24.354-8.435-47.917-28.822-61.493l-11.158-7.43c-14.095-9.385-22.509-25.097-22.509-42.03 0-21.176 0-22.666 0-35.974 6.641-3.576 11.166-10.591 11.166-18.647v-42c-.001-11.672-9.496-21.167-21.167-21.167h-48.667c-11.672 0-21.167 9.495-21.167 21.167v42c0 8.056 4.526 15.072 11.167 18.647v35.973c0 16.934-8.415 32.646-22.51 42.03l-11.158 7.43c-20.388 13.576-31.432 37.139-28.821 61.493 1.049 9.788 21.967 205.04 23.019 214.857zm4.331-100.373h138.945l-.554 5.172c-14.35 24.569-40.618 39.769-68.919 39.769-28.3 0-54.568-15.2-68.918-39.769zm86.972-54.62h57.824c-2.418 22.575-1.476 13.777-4.245 39.619h-142.157l-4.245-39.619h57.823c4.143 0 7.5-3.358 7.5-7.5s-3.357-7.5-7.5-7.5h-54.166c13.242-26.963 41.154-44.94 71.666-44.94 30.513 0 58.425 17.977 71.667 44.94h-54.167c-4.143 0-7.5 3.358-7.5 7.5s3.358 7.5 7.5 7.5zm25.449 208.392h-85.896c-17.142 0-28.088-18.228-20.099-33.35 3.521-6.665 4.959-14.149 4.156-21.646l-7.038-65.693c17.472 16.965 41.031 26.858 65.927 26.858 24.897 0 48.457-9.893 65.929-26.858l-7.038 65.692c-.804 7.494.633 14.979 4.155 21.647 8.009 15.158-2.993 33.35-20.096 33.35zm-62.282-412.663h38.667v17.367h-38.667zm-11.167-63.166c0-3.4 2.767-6.167 6.167-6.167h48.667c3.4 0 6.166 2.766 6.166 6.167v42c0 3.434-2.802 6.167-6.166 6.167h-48.667c-3.386 0-6.167-2.754-6.167-6.167zm-29.186 158.566 11.157-7.43c18.282-12.172 29.196-32.552 29.196-54.516v-1.086h38.667v1.086c0 21.963 10.914 42.343 29.194 54.516l11.159 7.43c15.719 10.467 24.233 28.633 22.222 47.409l-3.098 28.917c-17.388-26.036-46.407-42.395-78.811-42.395-32.389 0-61.415 16.347-78.81 42.394l-3.098-28.917c-2.012-18.775 6.503-36.941 22.222-47.408z"/><path d="m433.293 283.045h-57.336c-4.143 0-7.5 3.358-7.5 7.5s3.357 7.5 7.5 7.5l57.062.001-22.695 35.423h-103.735l-22.695-35.424h57.062c4.143 0 7.5-3.358 7.5-7.5s-3.357-7.5-7.5-7.5h-57.336c-5.431 0-10.424 2.96-13.029 7.725-2.606 4.765-2.405 10.565.524 15.138l69.027 107.741c2.508 3.913 6.226 7.005 10.813 8.684v74.664h-20.5c-4.143 0-7.5 3.358-7.5 7.5s3.357 7.5 7.5 7.5h56c4.143 0 7.5-3.358 7.5-7.5s-3.357-7.5-7.5-7.5h-20.5v-74.664c4.305-1.575 8.143-4.518 10.813-8.684l69.027-107.741c2.93-4.572 3.131-10.373.524-15.138-2.603-4.765-7.596-7.725-13.026-7.725zm-32.579 65.424-36.575 57.087c-1.797 2.805-4.572 3.108-5.683 3.108s-3.886-.303-5.683-3.108l-36.575-57.087z"/></g></svg>