<svg id="Capa_1" enable-background="new 0 0 511.986 511.986" height="512" viewBox="0 0 511.986 511.986" width="512" xmlns="http://www.w3.org/2000/svg"><g><path d="m395.002 67.879c-47.322 0-85.821 38.5-85.821 85.821 0 16.635 4.767 32.649 13.629 46.391h-42.678l20.315-102.026c1.751-8.792 6.61-16.669 13.683-22.178l45.762-35.646c9.787-7.624 11.547-21.79 3.923-31.577-7.624-9.786-21.791-11.547-31.576-3.923l-45.762 35.645c-15.59 12.145-26.302 29.507-30.162 48.891l-22.064 110.815h-47.926c5.501-12.106 7.354-25.551 5.223-38.959-3.204-20.147-15.109-37.695-32.665-48.145-8.64-5.143-19.714-3.382-26.331 4.187-7.375 8.434-12.55 18.592-15.115 29.403-10.045-5.158-21.333-7.808-32.979-7.53-10.051.24-18.492 7.622-20.071 17.552-2.459 15.464.428 31.038 7.947 44.388-8.907 2.18-16.647 8.263-20.751 16.733-13.05 26.923-20.364 56.882-20.418 88.917-.188 112.932 91.752 205.173 204.673 205.35h.32c71.449-.001 136.601-36.941 173.785-96.23 2.201-3.509 1.141-8.138-2.368-10.338-3.51-2.201-8.138-1.141-10.339 2.369-35.042 55.872-95.236 89.2-161.07 89.2-.101 0-.204 0-.305 0-104.637-.164-189.872-85.697-189.696-190.325.034-20.045 3.118-39.532 9.18-58.21l14.813 5.898c16.037 6.386 33.943 7.074 50.427 1.939l25.987-8.098c13.149-4.098 27.449-3.568 40.263 1.493l21.571 8.521c2.611 1.032 5.414 1.948 8.33 2.724.646.172 1.295.254 1.934.254 3.316 0 6.35-2.217 7.243-5.573 1.064-4.003-1.316-8.111-5.319-9.176-2.356-.627-4.603-1.36-6.677-2.18l-21.572-8.521c-15.986-6.314-33.828-6.975-50.235-1.863l-25.987 8.098c-13.208 4.116-27.562 3.563-40.415-1.554l-15.154-6.034c1.354-3.284 2.791-6.487 4.284-9.595 3.171-6.596 8.827-9.693 14.756-9.693h313.145c6.201 0 11.769 3.508 14.516 9.177 1.376 2.841 3.178 6.85 4.523 10.111l-15.153 6.034c-12.852 5.118-27.205 5.669-40.416 1.554l-25.986-8.098c-16.407-5.114-34.248-4.452-50.237 1.862l-21.57 8.521c-2.074.819-4.321 1.552-6.678 2.18-4.002 1.065-6.384 5.174-5.318 9.177s5.177 6.382 9.178 5.318c2.914-.776 5.716-1.692 8.329-2.724l21.57-8.521c12.814-5.061 27.116-5.59 40.264-1.493l25.987 8.098c16.48 5.135 34.391 4.446 50.427-1.939l14.812-5.898c6.095 18.78 9.181 38.377 9.181 58.535 0 24.454-4.589 48.273-13.638 70.796-1.545 3.844.319 8.211 4.163 9.756 3.841 1.541 8.21-.319 9.755-4.164 9.768-24.309 14.72-50.01 14.72-76.389 0-25.604-4.611-50.373-13.715-73.856 31.35-12.873 53.375-43.432 53.375-79.43-.005-47.323-38.504-85.822-85.826-85.822zm7.5 15.4c13.912 1.471 26.629 6.992 36.962 15.351l-36.962 36.963zm-15 52.314-36.963-36.963c10.333-8.359 23.05-13.88 36.962-15.351v52.314zm-47.579 62.579c-8.608-10.634-13.9-23.418-15.332-36.972h52.304zm47.579-26.365v28.284h-28.284zm33.247 45.919c-3.715-7.667-10.41-13.374-18.247-16.01v-29.909l36.946 36.946c-5.356 4.357-11.374 7.961-17.915 10.613-.262-.553-.523-1.099-.784-1.64zm29.322-108.489c8.36 10.333 13.88 23.05 15.351 36.963h-52.314zm-110.139 0 36.962 36.963h-52.314c1.472-13.912 6.993-26.629 15.352-36.963zm-260.733 49.717c.441-2.778 2.804-4.844 5.616-4.911 16.486-.416 31.527 6.732 41.618 18.273 6.663 7.622 11.216 17.219 12.696 27.774h-49.464c-8.995-11.651-12.799-26.462-10.466-41.136zm75.05 41.137c-1.526-13.921-7.336-27.141-16.523-37.648-2.077-2.373-4.561-4.805-6.739-6.688 1.309-10.562 5.801-20.639 12.855-28.707 1.851-2.118 4.949-2.61 7.367-1.171 13.718 8.165 23.021 21.874 25.522 37.611 2.037 12.812-.581 25.67-7.385 36.604h-15.097zm95.295 0 21.48-107.886c3.157-15.853 11.918-30.054 24.669-39.986l45.762-35.646c3.262-2.542 7.983-1.954 10.525 1.308 2.541 3.262 1.954 7.984-1.308 10.525l-45.762 35.646c-9.912 7.721-16.722 18.76-19.176 31.083l-20.898 104.956zm200.478-1.977-36.913-36.914h52.301c-1.483 13.683-6.97 26.466-15.388 36.914z"/><path d="m228.663 303.847v122.031c0 4.142 3.357 7.5 7.5 7.5s7.5-3.358 7.5-7.5v-122.031c0-4.142-3.357-7.5-7.5-7.5s-7.5 3.358-7.5 7.5z"/><path d="m335.246 306.986c0 42.342-7.233 82.476-20.919 116.063-2.017 4.948 1.648 10.332 6.942 10.332 2.959 0 5.763-1.763 6.948-4.672 14.411-35.367 22.028-77.458 22.028-121.723 0-4.142-3.357-7.5-7.5-7.5s-7.499 3.357-7.499 7.5z"/><path d="m129.586 299.148h-.007c-4.139 0-7.496 3.354-7.5 7.493-.04 44.298 7.627 86.512 22.17 122.076 1.188 2.905 3.989 4.663 6.945 4.663 5.311 0 8.958-5.403 6.939-10.341-13.812-33.775-21.093-74.02-21.055-116.385.005-4.141-3.351-7.502-7.492-7.506z"/></g></svg>