<svg id="Capa_1" enable-background="new 0 0 512 512" height="512" viewBox="0 0 512 512" width="512" xmlns="http://www.w3.org/2000/svg"><g><path d="m420.46 128.017c1.114-10.605-6.139-20.447-16.87-22.316 3.935-29.14-4.349-59.173-24.013-82.57-10.339-12.302-29.918-10.063-37.229 4.255l-7.022 13.75c-14.362-19.721-35.304-34.154-59.102-40.388-15.544-4.071-30.236 9.06-27.937 24.975l11.514 79.67h-54.395c-4.143 0-7.5 3.358-7.5 7.5s3.357 7.5 7.5 7.5h56.562l7.729 53.483c-.17 3.025.277 6.071 1.332 8.957h-25.276l-12.169-18.368c-6.91-10.429-20.945-13.282-31.375-6.369l-36.396 24.114c-.294.195-.563.416-.847.622h-52.592l-5.919-56.382c-.222-2.114.769-3.566 1.379-4.244s1.951-1.814 4.076-1.814h58.494c4.143 0 7.5-3.358 7.5-7.5s-3.357-7.5-7.5-7.5h-58.494c-5.796 0-11.344 2.47-15.223 6.777-3.878 4.307-5.756 10.083-5.15 15.848 1.798 17.131 34.956 332.98 36.273 345.531 2.301 21.921 20.658 38.452 42.7 38.452h170.974c22.042 0 40.399-16.531 42.7-38.452.321-3.056 12.849-122.391 13.165-125.405.433-4.12-2.557-7.81-6.676-8.242-4.129-.431-7.81 2.557-8.242 6.676l-8.906 84.831h-235.053c-1.097-10.451-23.47-223.56-24.521-233.574h41.99c-.808 5.518.4 11.067 3.505 15.753l24.114 36.396c6.894 10.404 20.968 13.262 31.375 6.368l36.396-24.115c10.405-6.895 13.262-20.969 6.367-31.374l-2.006-3.028h142.356l-11.96 113.934c-.433 4.12 2.557 7.81 6.676 8.242.267.028.53.042.792.042 3.791 0 7.046-2.864 7.45-6.717.709-6.758 17.783-169.403 19.454-185.318zm-48.507 318.391-2.685 25.574c-1.496 14.263-13.441 25.018-27.782 25.018h-170.973c-14.341 0-26.285-10.755-27.782-25.019l-2.685-25.574h231.907zm-161.458-275.807c3.517-2.33 8.253-1.371 10.585 2.149l6.681 10.083h-35.727zm34.699 38.545c2.325 3.511 1.362 8.26-2.148 10.585l-36.396 24.114c-3.511 2.329-8.259 1.363-10.586-2.148l-24.114-36.396c-1.46-2.205-1.698-4.992-.538-7.468h66.288zm110.513-174.938c2.448-4.797 8.964-5.497 12.388-1.425 17.271 20.549 24.316 47.057 20.376 72.61h-69.116zm-92.574-10.63c-.765-5.298 4.099-9.681 9.29-8.319 22.974 6.018 42.849 20.93 55.084 41.188l-24.996 48.946h-27.555zm31.718 96.815-13.817 27.056-3.91-27.056zm-3.262 62.202c-5.375-.39-8.528-6.129-6.108-10.871l26.214-51.332h73.152c-13.282 39.749-51.582 65.223-93.258 62.203zm61.126.238c23.202-13.849 40.34-36.066 47.806-62.412 3.031.232 5.348 2.915 5.021 6.03l-5.919 56.382z"/><path d="m247.267 284.538c-6.895-10.406-20.97-13.26-31.374-6.368l-36.396 24.114c-10.405 6.895-13.263 20.969-6.368 31.375l24.114 36.396c6.896 10.408 20.97 13.261 31.375 6.368l36.396-24.114c10.405-6.894 13.262-20.969 6.367-31.375zm9.462 55.267-36.396 24.114c-3.511 2.327-8.259 1.362-10.586-2.148l-24.114-36.396c-2.325-3.511-1.361-8.26 2.149-10.585l36.396-24.115c3.51-2.325 8.258-1.362 10.585 2.149l24.114 36.396c2.325 3.511 1.362 8.259-2.148 10.585z"/><path d="m321.674 311.552c11.894 3.895 24.666-2.579 28.56-14.467l13.588-41.491c3.896-11.891-2.574-24.665-14.467-28.56l-41.491-13.589c-11.889-3.895-24.664 2.577-28.559 14.467l-13.588 41.491c-3.896 11.891 2.574 24.665 14.467 28.56zm-41.702-37.48 13.589-41.492c1.308-3.993 5.603-6.199 9.635-4.881l41.491 13.589c4.01 1.313 6.195 5.623 4.88 9.635l-13.589 41.491c-1.313 4.01-5.619 6.193-9.635 4.881l-41.491-13.589c-4.011-1.313-6.196-5.622-4.88-9.634z"/></g></svg>