<svg id="Capa_1" enable-background="new 0 0 511.993 511.993" height="512" viewBox="0 0 511.993 511.993" width="512" xmlns="http://www.w3.org/2000/svg"><g><path d="m212.893 81.281c4.143 0 7.5-3.358 7.5-7.5s-3.357-7.5-7.5-7.5h-20.702c-7.021 0-13.204 4.978-14.703 11.835-.72 3.293-29.012 132.696-29.713 135.9-7.893 36.104 5.779 74.192 34.83 97.035l33.291 26.177c5.181 4.074 11.095 6.69 17.219 7.863v118.044h-31.307c-13.47 0-24.428 10.958-24.428 24.429 0 13.47 10.958 24.428 24.428 24.428h21.307c4.143 0 7.5-3.358 7.5-7.5s-3.357-7.5-7.5-7.5h-21.307c-5.198 0-9.428-4.229-9.428-9.428s4.229-9.429 9.428-9.429h77.613c5.199 0 9.429 4.229 9.429 9.429 0 5.199-4.229 9.428-9.429 9.428h-21.307c-4.143 0-7.5 3.358-7.5 7.5s3.357 7.5 7.5 7.5h21.307c13.47 0 24.429-10.958 24.429-24.428s-10.959-24.429-24.429-24.429h-31.307v-118.042c6.124-1.173 12.039-3.789 17.22-7.863l33.291-26.177c29.051-22.842 42.722-60.931 34.829-97.036-2.204-10.083-19.867-90.87-22.107-101.117l10.17 9.711c11.113 10.611 29.331 7.507 36.306-6.272 15.348-30.334 10.281-68.882-16.188-94.158-26.198-25.015-64.878-28.748-94.805-11.826-13.412 7.585-15.738 25.912-4.591 36.556l18.442 17.61c.001.001.002.002.003.004l1.84 1.757h-14.632c-4.143 0-7.5 3.358-7.5 7.5s3.357 7.5 7.5 7.5l41.195.04c4.339 19.848 1.05 4.805 7.233 33.082-1.382.736-2.718 1.564-3.997 2.491 0 0-.001.001-.001.001-2.343 1.699-5.362 1.771-7.515.182-5.907-4.362-12.92-6.668-20.28-6.668-7.362 0-14.376 2.307-20.283 6.672-2.171 1.603-5.087 1.604-7.258 0-5.908-4.365-12.923-6.672-20.285-6.672-7.36 0-14.374 2.306-20.28 6.669-2.153 1.589-5.173 1.515-7.515-.182-1.271-.921-2.597-1.745-3.97-2.478l7.254-33.135h20.703zm76.461 217.98-33.291 26.177c-9.095 7.151-21.801 7.152-30.896 0l-33.291-26.177c-24.562-19.313-36.12-51.516-29.447-82.041l9.341-42.667c2.994.448 5.824 1.584 8.334 3.403 7.659 5.551 17.799 5.591 25.229.102 3.308-2.443 7.238-3.734 11.368-3.734 4.131 0 8.062 1.292 11.371 3.736 3.751 2.772 8.146 4.158 12.542 4.157 4.396 0 8.792-1.386 12.543-4.157 3.309-2.444 7.24-3.736 11.37-3.736s8.062 1.292 11.369 3.734c7.434 5.49 17.571 5.448 25.229-.102 2.514-1.822 5.347-2.958 8.346-3.404l9.328 42.667c6.675 30.527-4.884 62.729-29.445 82.042zm-35.141-275.849c25.165-14.23 56.135-10.366 77.062 9.617 20.927 19.982 26.217 50.74 13.163 76.537-2.41 4.764-8.701 5.882-12.562 2.196l-7.07-6.751c1.281-1.224 2.369-2.672 3.201-4.316 9.285-18.351 5.523-40.229-9.359-54.441-14.886-14.213-36.911-16.961-54.815-6.837-1.604.907-3 2.06-4.164 3.396l-7.07-6.751c-3.853-3.678-3.043-10.017 1.614-12.65zm34.826 42.869h-4.794l-13.205-12.609c-.075-.072-.263-.256-.218-.617.048-.385.308-.532.393-.581 11.917-6.739 27.163-4.836 37.073 4.628 9.911 9.463 12.516 24.604 6.335 36.819-.044.087-.179.354-.562.419-.369.064-.552-.117-.627-.189l-7.818-7.465-1.874-8.571c-1.499-6.856-7.682-11.834-14.703-11.834zm-83.706 62.861c3.308-2.443 7.238-3.734 11.368-3.734 4.131 0 8.062 1.292 11.371 3.736 7.501 5.543 17.582 5.543 25.085 0 3.309-2.444 7.24-3.736 11.37-3.736s8.062 1.292 11.369 3.734c6.989 5.162 16.367 5.432 23.829.835l.576 2.634 5.961 27.266c-5.007.906-9.777 2.918-13.94 5.935-2.343 1.698-5.363 1.771-7.515.182-5.907-4.362-12.92-6.668-20.28-6.668-7.362 0-14.376 2.307-20.283 6.672-2.171 1.603-5.087 1.604-7.258 0-5.908-4.365-12.923-6.672-20.285-6.672-7.36 0-14.374 2.306-20.28 6.669-2.153 1.589-5.173 1.515-7.515-.182-4.158-3.014-8.922-5.024-13.924-5.932l6.544-29.89c7.462 4.583 16.828 4.307 23.807-.849z"/></g></svg>