<svg id="Capa_1" enable-background="new 0 0 511.995 511.995" height="512" viewBox="0 0 511.995 511.995" width="512" xmlns="http://www.w3.org/2000/svg"><g><path d="m382.144 0c-43.55 0-78.98 35.431-78.98 78.98 0 8.6 1.428 17.182 4.176 25.313h-238.358c-9.986 0-18.111 8.125-18.111 18.111v47.089c0 34.744 28.266 63.01 63.01 63.01h7.241c17.238 0 31.291 14.037 31.291 31.291 0 34.874 26.452 63.675 60.345 67.421v131.922h-48.998c-13.47 0-24.429 10.958-24.429 24.429 0 13.47 10.959 24.428 24.429 24.428h112.995c13.47 0 24.429-10.958 24.429-24.428s-10.959-24.429-24.429-24.429h-48.998v-131.921c33.893-3.746 60.345-32.547 60.345-67.421 0-17.253 14.037-31.291 31.291-31.291h7.241.001c34.743 0 63.009-28.266 63.009-63.009v-7.7-4.199c40.044-3.791 71.48-37.595 71.48-78.615.001-43.55-35.43-78.981-78.98-78.981zm-95.96 487.567c0 5.199-4.229 9.428-9.429 9.428h-112.995c-5.199 0-9.429-4.229-9.429-9.428s4.229-9.429 9.429-9.429h112.995c5.2 0 9.429 4.23 9.429 9.429zm33.209-270.063c-25.525 0-46.291 20.766-46.291 46.29 0 29.139-23.706 52.845-52.845 52.845s-52.845-23.706-52.845-52.845c0-25.556-20.826-46.29-46.29-46.29h-.001-7.241c-26.473 0-48.01-21.537-48.01-48.01v-.2h136.887c4.143 0 7.5-3.358 7.5-7.5s-3.357-7.5-7.5-7.5h-136.886v-31.889c0-1.716 1.396-3.111 3.111-3.111h302.551c1.6 0 3.111 1.328 3.111 3.111v31.889h-136.887c-4.143 0-7.5 3.358-7.5 7.5s3.357 7.5 7.5 7.5h136.887v.2c0 26.473-21.537 48.01-48.01 48.01zm70.251-74.98v-18.846c14.692-2.479 27.491-12.122 33.782-25.97 1.714-3.771.045-8.217-3.726-9.931-3.777-1.713-8.218-.044-9.931 3.727-4.659 10.256-14.648 17.072-25.785 17.753-3.378-3.217-7.942-4.963-12.452-4.963h-6.09c-8.454-5.594-13.632-15.126-13.632-25.314 0-16.726 13.607-30.333 30.333-30.333 10.777 0 20.519 5.535 26.058 14.805 2.125 3.556 6.73 4.717 10.285 2.592 3.556-2.125 4.716-6.729 2.592-10.285-8.149-13.639-23.068-22.112-38.935-22.112-24.997 0-45.333 20.336-45.333 45.333 0 9.149 2.795 17.939 7.761 25.314h-21.19c-3.466-7.993-5.219-16.488-5.219-25.313 0-35.279 28.701-63.98 63.98-63.98s63.98 28.702 63.98 63.98c.003 32.742-24.719 59.819-56.478 63.543z"/></g></svg>