<svg id="Capa_1" enable-background="new 0 0 511.995 511.995" height="512" viewBox="0 0 511.995 511.995" width="512" xmlns="http://www.w3.org/2000/svg"><g><path d="m253.085 304.068 32.758-15.306c8.618-4.026 12.354-14.312 8.326-22.931l-15.306-32.759c-4.027-8.616-14.311-12.354-22.931-8.326l-32.759 15.306c-8.617 4.026-12.352 14.312-8.326 22.931l15.307 32.757c3.995 8.554 14.246 12.386 22.931 8.328zm-23.562-50.425 32.759-15.306c1.109-.517 2.476-.018 2.991 1.086l15.306 32.759c.516 1.104.021 2.474-1.086 2.991l-32.758 15.306c-1.1.514-2.472.025-2.991-1.086l-15.307-32.757c-.516-1.107-.018-2.477 1.086-2.993z"/><path d="m229.697 432.989 34.684 10.22c1.621.478 3.257.705 4.867.705 7.452 0 14.344-4.874 16.555-12.376l10.221-34.683c2.688-9.123-2.548-18.733-11.671-21.422l-34.684-10.22c-4.407-1.298-9.069-.799-13.123 1.409-4.053 2.208-7 5.853-8.3 10.262l-10.22 34.682c-1.3 4.41-.8 9.071 1.409 13.124 2.208 4.052 5.852 6.999 10.262 8.299zm2.718-17.183 10.22-34.683c.225-.764.777-1.161 1.087-1.329.222-.121.609-.283 1.091-.283.192 0 .399.025.616.09l34.684 10.22c1.17.345 1.867 1.625 1.522 2.794l-10.221 34.683c-.346 1.169-1.626 1.868-2.794 1.522l-34.683-10.22c-.765-.225-1.162-.778-1.33-1.088-.169-.308-.418-.942-.192-1.706z"/><path d="m399.414 387.921c4.143 0 7.5-3.358 7.5-7.5v-291.169c0-8.714-7.09-15.804-15.804-15.804h-124.492c-3.798-41.13-38.483-73.448-80.589-73.448-44.635 0-80.948 36.313-80.948 80.948 0 42.105 32.318 76.79 73.448 80.588v.689c0 1.078.023 304.44.023 304.44.477 25.087 21.029 45.329 46.201 45.329h135.937c25.577 0 46.224-20.856 46.224-46.224v-50.35c0-4.142-3.357-7.5-7.5-7.5s-7.5 3.358-7.5 7.5v43.52h-198.385v-289.214h103.248l-7.33 33.953c-2.008 9.298 3.924 18.495 13.222 20.502l35.345 7.629c9.298 2.007 18.495-3.926 20.501-13.222l7.629-35.343c1.054-4.879-.095-9.72-2.753-13.52h28.523v72.052c-8.521-6.584-21.307-6.841-30.149 1.352l-19.226 17.809c-6.78 6.28-56.352 52.2-63.403 58.732-11.511 10.664-9.436 29.365 4.111 37.3 30.311 17.75 70.023 14.659 97.343-10.648 4.262-3.948 8.042-8.273 11.324-12.908v47.006c0 4.143 3.357 7.501 7.5 7.501zm-110.632-233.223c-1.49.208-2.888-.828-3.124-2.311-2.372-14.892 1.256-29.764 10.214-41.878 8.957-12.113 22.115-19.938 37.049-22.033.129-.018.256-.026.382-.026 1.338 0 2.527.981 2.742 2.335 0 0 .001.001.001.001 2.372 14.892-1.256 29.764-10.214 41.878-8.958 12.115-22.115 19.94-37.05 22.034zm-4.97-53.108c-11.368 15.373-15.973 34.242-12.969 53.136h-51.569c25.929-11.73 44.614-36.719 47.344-66.277h29.806c-4.69 3.773-8.934 8.167-12.612 13.141zm-32.272-13.141c-3.457 30.38-27.63 54.553-58.01 58.009v-19.75c19.573-3.197 35.062-18.686 38.26-38.26h19.75zm-58.011 22.962v-22.159c0-.443.361-.804.805-.804h22.158c-2.78 11.286-11.678 20.184-22.963 22.963zm-73.448-30.463c0-36.364 29.584-65.948 65.948-65.948 33.827 0 61.774 25.605 65.51 58.449h-19.742c-2.347-14.506-11.426-27.096-24.866-33.895-3.694-1.87-8.208-.39-10.077 3.307-1.87 3.696-.389 8.208 3.308 10.078 8.337 4.218 14.182 11.731 16.325 20.51h-22.154c-8.715 0-15.805 7.089-15.805 15.804v22.159c-13.689-3.371-23.875-15.747-23.875-30.462 0-11.91 6.618-22.648 17.271-28.024 3.697-1.866 5.183-6.376 3.317-10.074s-6.374-5.184-10.075-3.317c-15.737 7.941-25.514 23.811-25.514 41.416 0 23.017 16.859 42.163 38.875 45.76v19.75c-32.841-3.74-58.446-31.686-58.446-65.513zm270.728 392.993c-3.645 13.308-15.91 23.054-30.118 23.054h-135.938c-14.185 0-26.467-9.724-30.118-23.054zm-76.396-304.165 35.343 7.629c1.192.257 1.983 1.482 1.726 2.675l-7.629 35.343c-.258 1.192-1.477 1.981-2.675 1.726l-35.343-7.629c-1.192-.257-1.983-1.482-1.726-2.675l7.63-35.344c.255-1.182 1.468-1.985 2.674-1.725zm10.868-15.05c4.69-3.773 8.934-8.167 12.612-13.142 11.368-15.373 15.973-34.243 12.969-53.135h40.248c.443 0 .804.36.804.804v65.474h-66.633zm21.873 155.502c-10.396 9.629-26.188 11.359-38.406 4.205-.293-.171-.459-.426-.495-.758-.053-.48.215-.728.302-.809l44.178-40.922c.074-.069.279-.259.631-.259.062 0 .128.005.198.019.328.062.57.248.719.552 6.199 12.727 3.27 28.342-7.127 37.972zm23.242 25.091c-21.878 20.267-53.853 23.767-79.569 8.708-4.864-2.849-5.613-9.539-1.498-13.353l7.525-6.971c1.186 1.444 2.635 2.69 4.313 3.673 18.137 10.62 40.718 8.178 56.18-6.145 15.446-14.308 19.633-36.63 10.417-55.547-.852-1.748-1.983-3.287-3.332-4.58l7.525-6.971c4.115-3.81 10.732-2.552 13.199 2.514 13.04 26.767 7.101 58.422-14.76 78.672z"/></g></svg>