<svg id="Capa_1" enable-background="new 0 0 511.996 511.996" height="512" viewBox="0 0 511.996 511.996" width="512" xmlns="http://www.w3.org/2000/svg"><g><path d="m83.062 145.735h.682v196.417c0 23.229 2.649 46.483 7.874 69.118l17.251 74.738c3.531 15.302 16.966 25.989 32.67 25.989h91.02c15.703 0 29.138-10.687 32.67-25.988l17.251-74.738c5.225-22.632 7.873-45.886 7.873-69.118v-30.393c0-4.142-3.357-7.5-7.5-7.5s-7.5 3.358-7.5 7.5v30.393c0 22.098-2.52 44.217-7.488 65.744l-17.251 74.738c-1.952 8.456-9.377 14.362-18.055 14.362h-91.02c-8.679 0-16.103-5.906-18.055-14.362l-17.251-74.738c-4.97-21.529-7.489-43.649-7.489-65.744v-111.974h70.805c4.143 0 7.5-3.358 7.5-7.5s-3.357-7.5-7.5-7.5h-70.805v-31.8h176.608v31.8h-70.804c-4.143 0-7.5 3.358-7.5 7.5s3.357 7.5 7.5 7.5h70.804v46.58c0 4.142 3.357 7.5 7.5 7.5s7.5-3.358 7.5-7.5c0-14.248 0-116.345 0-131.024h.682c4.143 0 7.5-3.358 7.5-7.5s-3.357-7.5-7.5-7.5h-3.318l-19.819-44.378c-5.998-13.431-18.402-22.733-32.653-24.962v-29.986c0-17.319-14.09-31.409-31.408-31.409h-33.574c-17.319 0-31.409 14.09-31.409 31.409v29.985c-14.251 2.229-26.655 11.531-32.652 24.961l-19.82 44.379h-3.318c-4.143 0-7.5 3.358-7.5 7.5s3.357 7.501 7.499 7.501zm15.682 22.643v-22.644h176.608v22.644zm55.109-136.969c0-9.048 7.361-16.409 16.409-16.409h33.574c9.048 0 16.408 7.361 16.408 16.409v29.465h-66.392v-29.465zm-33.957 61.064c4.504-10.083 14.549-16.599 25.593-16.599h.864 81.392.865c11.044 0 21.089 6.516 25.593 16.599l17.087 38.262h-168.482z"/><path d="m313.2 351.529 24.71 98.611-16.193 46.855h-2.195c-4.143 0-7.5 3.358-7.5 7.5s3.357 7.5 7.5 7.5h103.743c4.143 0 7.5-3.358 7.5-7.5s-3.357-7.5-7.5-7.5h-2.195l-16.193-46.855 24.71-98.611c3.835-.333 6.844-3.546 6.844-7.467 0-4.142-3.357-7.5-7.5-7.5-11.683 0-103.027 0-115.077 0-4.143 0-7.5 3.358-7.5 7.5.002 3.921 3.012 7.135 6.846 7.467zm24.389 145.467 13.483-39.015h40.646l13.483 39.015zm76.528-145.434-22.908 91.418h-39.628l-22.908-91.418z"/></g></svg>