<svg id="Capa_1" enable-background="new 0 0 511.995 511.995" height="512" viewBox="0 0 511.995 511.995" width="512" xmlns="http://www.w3.org/2000/svg"><g><path d="m357.89 25.563c-19.333-16.485-44.016-25.563-69.502-25.563s-50.169 9.078-69.502 25.563c-3.172 2.705-5.085 6.637-5.25 10.789-.163 4.123 1.416 8.161 4.333 11.078l18.853 18.853h-56.973c-7.332 0-13.754 5.203-15.27 12.372-11.747 55.58-20.517 130.281-12.842 186.606 5.817 42.689 25.937 63.104 41.79 72.713 10.375 6.289 20.293 8.872 26.768 9.933v115.23h-31.307c-13.47 0-24.429 10.958-24.429 24.429 0 13.47 10.959 24.428 24.429 24.428h77.613c13.47 0 24.428-10.958 24.428-24.428s-10.958-24.429-24.428-24.429h-31.307v-115.23c6.478-1.062 16.394-3.645 26.768-9.933 15.854-9.609 35.973-30.024 41.79-72.718.172-1.263.333-2.533.489-3.807.504-4.111-2.42-7.853-6.531-8.357-4.116-.501-7.853 2.42-8.357 6.531-.148 1.21-.302 2.417-.464 3.612-9.424 69.162-59.111 70.394-61.203 70.413-.56 0-51.697-.777-61.186-70.413-3.369-24.724-3.359-51.919-1.718-77.775h125.792c.839 13.144 1.259 26.633 1.026 39.945-.072 4.141 3.227 7.557 7.368 7.63.045 0 .089.001.134.001 4.081 0 7.425-3.272 7.496-7.369.666-38.106-3.729-79.248-9.97-116.539 1.757-1.196-2.357 2.735 62.076-61.699 6.13-6.127 5.717-16.213-.914-21.866zm-91.288 452.575c5.198 0 9.428 4.229 9.428 9.429 0 5.199-4.229 9.428-9.428 9.428h-77.613c-5.199 0-9.429-4.229-9.429-9.428s4.229-9.429 9.429-9.429zm-100.561-307.677c.646-7.345 1.431-14.872 2.349-22.5h41.905c4.143 0 7.5-3.358 7.5-7.5s-3.357-7.5-7.5-7.5h-39.962c3.247-23.083 6.9-41.635 8.922-51.203.058-.275.308-.475.594-.475h95.892c.286 0 .535.2.594.475 3.411 16.11 6.575 34.683 8.892 51.203h-39.931c-4.143 0-7.5 3.358-7.5 7.5s3.357 7.5 7.5 7.5h41.886c.87 7.223 1.67 14.761 2.351 22.5zm127.536-79.014c-.941-4.923-1.861-9.461-2.566-12.792-1.516-7.169-7.937-12.372-15.269-12.372h-.001-17.705l-4.083-4.084c20.242-15.501 48.625-15.5 68.871 0zm39.924-39.925c-26.204-21.248-64.021-21.248-90.227.001l-14.596-14.596c34.609-29.463 84.808-29.46 119.419 0z"/></g></svg>