<svg id="Capa_1" enable-background="new 0 0 511.996 511.996" height="512" viewBox="0 0 511.996 511.996" width="512" xmlns="http://www.w3.org/2000/svg"><g><path d="m237.65 191.284-8.555-110.114c8.436-2.891 14.526-10.883 14.526-20.287v-39.425c-.001-11.832-9.627-21.458-21.458-21.458h-48.464c-11.831 0-21.457 9.626-21.457 21.458v39.426c0 9.404 6.09 17.395 14.526 20.287l-8.556 110.113c-4.43 47.58-28.471 70.327-44.58 97.233-24.946 41.561-34.334 90.175-26.716 138.081 5.238 32.924 3.908 24.564 9.144 57.474 2.574 16.181 16.334 27.925 32.718 27.925h138.308c16.384 0 30.144-11.744 32.718-27.924l4.822-30.31s4.321-27.161 4.322-27.164c7.612-47.872-1.752-96.491-26.717-138.082-15.929-26.589-40.147-49.605-44.581-97.233zm41.204 122.884h-40.092c2.726-8.448 2.743-17.834 0-26.333h25.269c5.497 8.171 10.45 16.88 14.823 26.333zm-111.612-292.71c0-3.561 2.896-6.458 6.457-6.458h48.464c3.561 0 6.457 2.897 6.457 6.458v39.426c0 3.561-2.896 6.458-6.457 6.458h-1.083-46.298-1.083c-3.561 0-6.457-2.897-6.457-6.458zm50.323 104.957h-39.267l3.424-44.073h32.419zm-44.413 66.199c.004-.037.007-.074.01-.111l3.969-51.088h41.599l3.969 51.088c.003.037.006.074.01.111 3.374 36.386 17.326 60.034 31.028 80.222h-23.504c-7.868-9.012-19.428-14.723-32.303-14.723s-24.434 5.711-32.302 14.723h-23.504c13.704-20.187 27.654-43.836 31.028-80.222zm24.779 136.277c-9.422 0-17.762-4.702-22.813-11.877-13.098-18.608.519-43.901 22.813-43.901 9.421 0 17.76 4.7 22.812 11.874 13.085 18.572-.475 43.904-22.812 43.904zm-66.101-41.056h25.271c-2.812 8.713-2.661 18.089 0 26.333h-40.092c4.285-9.266 9.203-17.981 14.821-26.333zm153.158 193.88c-1.408 8.854-8.938 15.28-17.903 15.28h-138.308c-8.966 0-16.495-6.427-17.903-15.281l-3.441-21.633h180.997zm10.765-104.633h-80.323c-4.143 0-7.5 3.357-7.5 7.5s3.357 7.5 7.5 7.5h81.048c.128 11.116-.736 22.027-2.347 32.158l-3.316 20.842h-185.77l-3.316-20.842c-1.627-10.23-2.473-21.138-2.347-32.158h81.047c4.143 0 7.5-3.357 7.5-7.5s-3.357-7.5-7.5-7.5h-80.322c1.467-16.375 5.052-32.466 10.676-47.913h54.844c7.868 9.012 19.427 14.723 32.302 14.723s24.435-5.711 32.303-14.723h54.844c5.625 15.447 9.21 31.538 10.677 47.913z"/><path d="m420.155 288.299c4.143 0 7.5-3.357 7.5-7.5v-90.649c0-9.779-7.956-17.735-17.735-17.735h-62.171c-9.779 0-17.735 7.956-17.735 17.735v57.661 84.116c0 24.37 17.948 44.625 41.32 48.244v116.824h-27.593c-4.143 0-7.5 3.357-7.5 7.5s3.357 7.5 7.5 7.5h70.187c4.143 0 7.5-3.357 7.5-7.5s-3.357-7.5-7.5-7.5h-27.594v-116.823c23.372-3.619 41.321-23.874 41.321-48.244v-16.128c0-4.143-3.357-7.5-7.5-7.5s-7.5 3.357-7.5 7.5v16.109c0 .007-.001.013-.001.019 0 18.649-15.172 33.821-33.82 33.821s-33.82-15.172-33.82-33.821v-76.616h67.642v25.488c-.001 4.142 3.357 7.499 7.499 7.499zm-75.141-47.988v-50.161c0-1.508 1.228-2.735 2.735-2.735h62.171c1.508 0 2.735 1.227 2.735 2.735v50.161z"/></g></svg>