<svg id="Capa_1" enable-background="new 0 0 511.995 511.995" height="512" viewBox="0 0 511.995 511.995" width="512" xmlns="http://www.w3.org/2000/svg"><g><path d="m353.159 186.704 2.784-44.551c.79-12.645-8.854-23.575-21.498-24.365l-44.552-2.785c-12.665-.789-23.576 8.854-24.365 21.499l-2.785 44.551c-.79 12.645 8.854 23.576 21.499 24.366l44.552 2.784c12.578.776 23.566-8.726 24.365-21.499zm-75.446-4.716 2.785-44.551c.274-4.39 4.062-7.746 8.459-7.463l44.552 2.785c4.39.274 7.737 4.069 7.463 8.459l-2.784 44.551c-.275 4.405-4.068 7.742-8.459 7.463l-44.552-2.784c-4.389-.275-7.738-4.07-7.464-8.46z"/><path d="m204.909 291.164c8.58 9.349 23.108 9.977 32.464 1.39l32.887-30.185c9.355-8.589 9.977-23.11 1.389-32.464l-30.185-32.887c-8.566-9.333-23.13-9.955-32.464-1.39l-32.886 30.186c-9.358 8.588-9.977 23.107-1.391 32.464zm-18.653-54.299 32.886-30.186c3.24-2.975 8.297-2.757 11.271.482l30.185 32.887c2.975 3.239 2.758 8.296-.481 11.27l-32.887 30.185c-3.224 2.961-8.27 2.787-11.27-.481l-30.186-32.886c-2.981-3.248-2.765-8.29.482-11.271z"/><path d="m216.462 136.102c0-14.888-12.112-27-27-27s-27 12.112-27 27 12.112 27 27 27 27-12.113 27-27zm-39 0c0-6.617 5.383-12 12-12s12 5.383 12 12-5.383 12-12 12-12-5.384-12-12z"/><path d="m283.665 384.269c19.391 0 35.166-15.775 35.166-35.167s-15.775-35.167-35.166-35.167c-19.392 0-35.167 15.775-35.167 35.167s15.775 35.167 35.167 35.167zm0-55.334c11.119 0 20.166 9.047 20.166 20.167s-9.047 20.167-20.166 20.167c-11.12 0-20.167-9.047-20.167-20.167s9.046-20.167 20.167-20.167z"/><path d="m126.247 247.806c1.008 12.382 18.099 222.38 18.93 232.593 1.442 17.718 16.497 31.597 34.273 31.597h153.097c17.776 0 32.83-13.879 34.272-31.597.82-10.079 17.901-219.948 18.93-232.593 1.249-15.354 4.24-30.585 8.892-45.27 5.961-18.824 9.351-38.29 10.105-57.98.107-2.813.162-5.63.162-8.451v-13.583c0-4.142-3.357-7.5-7.5-7.5s-7.5 3.358-7.5 7.5v13.583c0 21.028-3.219 41.855-9.567 61.901-4.99 15.76-8.201 32.105-9.542 48.582l-16.745 205.753h-113.368c-4.143 0-7.5 3.357-7.5 7.5s3.357 7.5 7.5 7.5h112.145l-.963 11.84c-.812 9.989-9.3 17.813-19.321 17.813h-153.097c-10.022 0-18.51-7.824-19.322-17.813l-.963-11.84h46.522c4.143 0 7.5-3.357 7.5-7.5s-3.357-7.5-7.5-7.5h-47.743l-16.745-205.753c-1.341-16.477-4.552-32.822-9.542-48.582-6.349-20.046-9.567-40.873-9.567-61.901v-72.988h83.772c-1.072 10.53 5.248 20.696 15.703 24.12l42.421 13.894c12.039 3.943 25.042-2.645 28.986-14.683h.001l7.641-23.33h89.294v24.405c0 4.142 3.357 7.5 7.5 7.5s7.5-3.358 7.5-7.5v-70.279c-.001-9.509-7.737-17.244-17.245-17.244h-263.33c-9.509 0-17.244 7.735-17.244 17.244v118.862c0 22.566 3.454 44.917 10.267 66.431 4.65 14.684 7.642 29.915 8.891 45.269zm261.416-232.806c1.237 0 2.244 1.006 2.244 2.244v30.874h-84.381l1.34-4.092c3.95-12.069-2.615-25.034-14.686-28.986l-.119-.04zm-152.636 5.499c1.37-4.181 5.886-6.468 10.064-5.099l42.421 13.894c4.19 1.372 6.47 5.874 5.098 10.063l-2.869 8.76h-63.759zm49.801 42.618-6.112 18.661c-1.37 4.179-5.886 6.466-10.063 5.098l-42.421-13.894c-4.1-1.343-6.401-5.697-5.152-9.865zm-162.74-45.873c0-1.237 1.007-2.244 2.244-2.244h96.734c-.102.274-.203.549-.295.829l-10.575 32.288h-88.109v-30.873z"/></g></svg>