<svg id="Capa_1" enable-background="new 0 0 512.003 512.003" height="512" viewBox="0 0 512.003 512.003" width="512" xmlns="http://www.w3.org/2000/svg"><g><path d="m248.501 280.463v182.684h-36.306c-13.47 0-24.429 10.958-24.429 24.428s10.959 24.429 24.429 24.429h26.306c4.143 0 7.5-3.357 7.5-7.5s-3.357-7.5-7.5-7.5h-26.306c-5.199 0-9.429-4.229-9.429-9.429 0-5.198 4.229-9.428 9.429-9.428h87.612c5.199 0 9.429 4.229 9.429 9.428s-4.229 9.429-9.429 9.429h-26.307c-4.143 0-7.5 3.357-7.5 7.5s3.357 7.5 7.5 7.5h26.307c13.47 0 24.429-10.959 24.429-24.429s-10.959-24.428-24.429-24.428h-36.307v-182.684c96.91-3.734 175.304-80.384 181.503-176.953.305-4.745-1.392-9.461-4.654-12.939-3.282-3.5-7.916-5.507-12.714-5.507h-60.055l17.861-25.509c13.073 4.989 28.052.539 36.2-11.096 9.737-13.907 6.346-33.143-7.562-42.88-13.94-9.762-33.119-6.38-42.88 7.561-8.254 11.787-7.072 27.403 1.95 37.819l-23.881 34.106h-264.902c-4.797 0-9.431 2.007-12.713 5.507-3.263 3.478-4.959 8.194-4.654 12.939 6.127 95.452 83.645 173.181 181.502 176.952zm134.985-258.721c5.016-7.164 14.855-8.872 21.989-3.877 7.132 4.994 8.871 14.858 3.878 21.989-4.995 7.132-14.86 8.871-21.99 3.878-7.131-4.994-8.87-14.858-3.877-21.99zm-127.485 243.867c-4.58 0-9.546-.201-14.414-.611l15.466-22.088c16.207 6.167 36.878-1.575 46.495-15.312 5.814-8.303 6.847-17.699 2.265-27.08 11.461-1.731 22.446-8.21 28.544-16.918 5.575-7.962 6.627-16.734 3.044-25.369-.238-.574-.503-1.143-.78-1.711 5.986-.904 11.832-3.105 16.929-6.245h66.559c-24.843 68.837-91.164 115.334-164.108 115.334zm-.462-71.627c6.225-8.889 16.679-4.87 25.637 1.401 8.881 6.22 16.308 14.724 10.085 23.611-6.543 9.345-22.792 14.749-32.289 8.101-9.47-6.629-9.997-23.739-3.433-33.113zm172.097-93.919c.916 0 1.504.482 1.773.769.314.335.678.905.626 1.717-.722 11.241-2.515 22.181-5.268 32.727h-57.062c6.201-12.869.678-25.565-10.041-35.213zm-110.481 5.923c6.225-8.889 16.679-4.871 25.637 1.401 8.882 6.219 16.307 14.724 10.085 23.611-1.081 1.543-2.433 2.98-3.975 4.277h-32.133c-5.732-8.038-5.1-21.455.386-29.289zm-5.172 45.4c5.843 4.091 9.842 8.446 11.562 12.595 1.584 3.815 1.114 7.316-1.477 11.017-6.495 9.274-22.67 14.834-32.29 8.1-9.521-6.667-9.915-23.484-3.625-32.821h24.165c.553.357 1.106.717 1.665 1.109zm-229.389-50.554c.27-.287.857-.769 1.772-.769h218.818c-4.826 8.487-6.528 19.682-4.461 29.926-.625-.066-1.248-.119-1.865-.147-6.504-.288-12.318 1.576-17.134 5.433h-76.768c-4.143 0-7.5 3.358-7.5 7.5s3.357 7.5 7.5 7.5h66.606c-2.592 7.354-3.241 15.814-1.647 23.712-10.474-1.1-18.899 3.159-24.663 11.391-9.699 13.851-9.736 35.914 1.513 48.93l-19.92 28.449c-59.354-10.929-111.438-52.871-132.951-112.482h76.062c4.143 0 7.5-3.358 7.5-7.5s-3.357-7.5-7.5-7.5h-80.721c-2.752-10.546-4.546-21.486-5.268-32.727-.051-.811.312-1.381.627-1.716z"/></g></svg>