<svg id="Capa_1" enable-background="new 0 0 511.996 511.996" height="512" viewBox="0 0 511.996 511.996" width="512" xmlns="http://www.w3.org/2000/svg"><g><path d="m233.881 188.936c5.066 19.018 17.279 34.832 34.389 44.529 11.087 6.285 23.321 9.486 35.709 9.486 9.069 0 17.9-1.936 21.599-3.344 42.522 10.155 60.443-38.208 42.478-67.209-14.682-23.7-44.041-15.984-64.371 1.973-17.822-10.64-38.241-12.953-57.302-7.494-9.416 2.699-15.025 12.595-12.502 22.059zm121.423-8.639c9.274 14.971 5.12 45.068-18.325 45.612 2.261-12.649-11.046-33.084-20.954-42.298 12.71-9.911 30.635-17.269 39.279-3.314zm-104.789 1.001c31.597-9.048 63.462 9.942 71.633 40.605.424 1.587-.538 3.317-2.14 3.776h-.001c-15.021 4.3-30.766 2.43-44.341-5.264-13.577-7.696-23.27-20.247-27.291-35.343-.432-1.619.528-3.312 2.14-3.774z"/><path d="m312.283 21.635c-8.525-5.769-20.281-3.611-26.209 4.807-12.037 17.105-16.677 37.796-13.14 58.356h-8.96c-.662-46.869-38.972-84.798-85.995-84.798-47.435 0-86.025 38.591-86.025 86.026 0 44.907 34.592 81.864 78.525 85.679v27.255c0 18.836 2.882 37.509 8.575 55.481 3.652 11.536 6.278 24.467 7.319 37.264.706 8.679 15.021 184.581 15.699 192.908 1.25 15.354 14.297 27.382 29.701 27.382h126.975c15.406 0 28.452-12.027 29.701-27.382.58-7.13 15.004-184.349 15.7-192.908 1.036-12.745 3.669-25.741 7.318-37.263 5.699-18.006 8.575-36.656 8.575-55.482 0-10.133 0-85.03 0-98.581 0-8.592-6.99-15.582-15.582-15.582h-3.882c3.438-11.244 4.303-23.215 2.394-35.197-1.617-10.166-11.221-17.271-21.424-15.844-15.978 2.241-30.502 9.156-42.089 19.831-5.95-12.839-15.312-23.93-27.176-31.952zm-49.394 78.163h14.165c3.552 9.248 8.806 17.667 15.525 24.908h-37.796c3.9-7.714 6.68-16.085 8.106-24.908zm-92.41.582v18.867c-15.184-3.427-26.562-17.015-26.562-33.22 0-13.197 7.742-25.325 19.725-30.897 3.756-1.747 5.385-6.207 3.639-9.963-1.746-3.757-6.211-5.385-9.963-3.639-17.253 8.022-28.4 25.489-28.4 44.499 0 24.503 18.057 44.868 41.562 48.489v22.138c-35.65-3.759-63.525-33.997-63.525-70.627 0-39.164 31.862-71.026 71.025-71.026 38.752 0 70.334 31.2 70.995 69.798h-21.955c-.469-18.53-11.498-35.421-28.378-43.271-3.757-1.746-8.218-.117-9.963 3.639-1.746 3.756-.117 8.217 3.639 9.963 11.608 5.397 19.215 16.952 19.68 29.669h-25.936c-8.593-.001-15.583 6.989-15.583 15.581zm53.931 39.326c-10.682 9.252-24.13 15.387-38.931 16.948v-16.948zm-38.931-20.459v-18.867c0-.321.261-.582.582-.582h23.062c-4.317 9.722-13.051 17.058-23.644 19.449zm22.628 5.459c8.006-6.25 14.026-14.921 16.953-24.908h22.594c-1.782 9.033-5.288 17.45-10.151 24.908zm181.091 165.783-13.793 169.472h-25.399c-4.143 0-7.5 3.357-7.5 7.5s3.357 7.5 7.5 7.5h24.179l-.687 8.437c-.62 7.626-7.099 13.599-14.75 13.599h-126.975c-7.65 0-14.13-5.974-14.75-13.599l-.687-8.437h98.669c4.143 0 7.5-3.357 7.5-7.5s-3.357-7.5-7.5-7.5h-99.89l-13.792-169.472c-.265-3.256-.625-6.505-1.063-9.744 2.72-.66 1.479-.317 24.282-7.423 10.109-3.15 21.106-2.744 30.961 1.148 18.469 7.295 22.194 9.169 30.913 10.443-10.572 18.292-8.804 47.471 10.128 60.726 19.787 13.853 49.738 4.443 62.639-13.984 6.467-9.235 7.693-19.4 3.545-29.396-3.365-8.112-10.079-15.73-19.953-22.645-2.739-1.918-5.45-3.583-8.121-5.001l.362-.143c9.853-3.892 20.85-4.3 30.963-1.148 22.683 7.069 21.516 6.753 24.282 7.424-.439 3.239-.798 6.487-1.063 9.743zm-88.65.11c8.215-11.73 21.855-6.936 33.624 1.304 7.395 5.178 12.479 10.747 14.702 16.105 2.172 5.235 1.544 10.015-1.978 15.044-8.442 12.057-29.291 19.024-41.748 10.301-12.48-8.74-12.96-30.813-4.6-42.754zm104.495-91.638c0 17.309-2.649 34.452-7.876 50.954-2.646 8.363-4.278 16.039-4.278 16.039-1.264-.335-.036.032-22.446-6.952-13.372-4.167-27.909-3.628-40.937 1.518-17.726 7.003-31.466 14.626-51.353 6.77l-17.139-6.77c-13.139-5.189-27.682-5.648-40.935-1.518-22.404 6.982-21.183 6.617-22.447 6.952-1.121-5.102-2.67-10.959-4.279-16.04-5.227-16.501-7.876-33.645-7.876-50.953v-27.255c24.081-2.091 45.344-14.137 59.652-32h159.913v59.255zm-89.88-74.653c-1.077-.517-13.886-8.688-21.739-24.51h21.473c-1.371 9.305-.815 18.841.266 24.51zm89.298-24.51c.321 0 .582.261.582.582v24.326h-32.502c8.714-6.535 16.083-14.88 21.648-24.908zm-20.828-51.186c.186-.026.37-.039.553-.039 1.938 0 3.661 1.423 3.975 3.387 1.793 11.263.553 22.51-3.462 32.838h-49.815c8.507-18.335 25.991-32.994 48.749-36.186zm-53.527 51.186h46.281c-10.186 13.665-25.088 22.496-41.996 24.868-2.177.294-4.179-1.225-4.525-3.347 0-.001 0-.001-.001-.002-1.106-6.948-1.116-14.148.241-21.519zm-11.431-15h-30.466c-3.782-17.732.041-35.382 10.132-49.723 1.25-1.778 3.734-2.235 5.539-1.016 11.489 7.77 20.091 19.086 24.505 32.137-3.894 5.519-7.293 11.93-9.71 18.602z"/><path d="m305.882 373.17c-10.955-17.682-31.252-19.713-54.295-5.44-23.044 14.274-30.263 33.354-19.31 51.036 11.544 18.632 41.035 30.32 61.754 17.483 20.727-12.839 23.39-44.451 11.851-63.079 0 .001 0 .001 0 0zm-19.749 50.327c-12.955 8.022-33.428-.239-41.104-12.631-7.929-12.801 3.485-23.589 14.456-30.385 12.157-7.53 26.087-11.614 33.645.589v-.001c7.677 12.393 5.955 34.405-6.997 42.428z"/></g></svg>