<svg id="Capa_1" enable-background="new 0 0 511.996 511.996" height="512" viewBox="0 0 511.996 511.996" width="512" xmlns="http://www.w3.org/2000/svg"><g><path d="m418.684 105.389h-109.86l27.11-27.11c4.202-4.203 6.478-10.02 6.241-15.958-.237-5.995-3.002-11.674-7.585-15.582-35.347-30.14-80.479-46.739-127.082-46.739s-91.734 16.599-127.083 46.738c-4.582 3.908-7.347 9.587-7.585 15.58-.235 5.939 2.04 11.757 6.243 15.961l35.158 35.158c-3.161 4.138-4.652 9.36-4.104 14.576.419 3.992 34.464 328.297 36.273 345.53 2.301 21.921 20.658 38.452 42.7 38.452h170.974c22.042 0 40.399-16.531 42.7-38.452l10.528-100.289c.433-4.12-2.557-7.81-6.676-8.242-4.115-.438-7.81 2.557-8.242 6.676l-6.269 59.715h-133.57c-4.143 0-7.5 3.357-7.5 7.5s3.357 7.5 7.5 7.5h131.996l-2.685 25.574c-1.497 14.263-13.441 25.019-27.782 25.019h-170.973c-14.341 0-26.285-10.756-27.782-25.019l-2.685-25.574h64.911c4.143 0 7.5-3.357 7.5-7.5s-3.357-7.5-7.5-7.5h-66.486l-14.601-139.081c10.373-.811 15.865-2.96 31.013-7.681l.552 12.549c.512 11.61 10.37 20.649 21.993 20.141l39.149-1.721c11.541-.507 20.535-10.184 20.141-21.78 9.259 2.454 18.303 3.064 27.362 2.083-3.848 6.472-4.072 14.545-.169 21.319l19.555 33.96c5.815 10.101 18.695 13.569 28.796 7.751l33.96-19.555c10.1-5.815 13.567-18.693 7.752-28.796h-.001l-18.269-31.726c14.832 1.996 34.319 12.039 52.423 13.454l-4.678 44.559c-.433 4.12 2.557 7.81 6.676 8.242 4.142.445 7.811-2.556 8.242-6.676 1.053-10.029 21.035-200.364 22.092-210.433 1.271-12.083-8.224-22.623-20.373-22.623zm-25.523 15.023c.105-.016.21-.022.314-.022 1.104 0 2.084.811 2.262 1.928.001.001.001.001.001.001 2.245 14.094-1.188 28.17-9.667 39.636-8.479 11.465-20.931 18.87-35.065 20.852-1.221.184-2.382-.682-2.577-1.906-2.244-14.095 1.188-28.17 9.667-39.635 8.477-11.465 20.93-18.871 35.065-20.854zm-35.823-.023c-4.185 3.471-7.984 7.468-11.303 11.957-1.116 1.509-2.146 3.062-3.125 4.638-3.548-6.853-8.931-12.609-15.507-16.595zm-136.533 51.804-8.756 8.754c-1.213 1.214-2.826 1.882-4.542 1.882-1.715 0-3.328-.668-4.541-1.882l-60.559-60.559h95.335c-12.075 7.32-20.162 20.588-20.162 35.711.001 5.574 1.164 11.157 3.225 16.094zm50.743-39.855c-4.752 6.885-7.442 15.154-7.442 23.762 0 8.749 2.802 17.079 7.444 23.765-3.751 1.937-7.934 2.965-12.239 2.965-14.761 0-26.729-12.036-26.729-26.729-.001-19.882 21.124-32.947 38.966-23.763zm-3.003 78.429 12.644-12.938h38.894l12.486 12.202c2.399 2.346 2.443 6.207.098 8.607l-27.39 28.026c-2.345 2.401-6.207 2.445-8.607.099l-28.026-27.389c-2.402-2.346-2.446-6.207-.099-8.607zm64.019-54.667c0 14.738-11.991 26.729-26.729 26.729-14.74 0-26.729-11.994-26.729-26.729 0-14.745 12.003-26.729 26.729-26.729 14.738-.001 26.729 11.99 26.729 26.729zm-242.873-88.428c-1.272-1.271-1.934-2.962-1.862-4.759.073-1.852.9-3.543 2.329-4.761 34.003-28.992 75.67-43.483 117.351-43.483 41.671 0 83.355 14.498 117.35 43.483 1.429 1.219 2.256 2.909 2.33 4.762.071 1.797-.59 3.486-1.861 4.757l-37.718 37.718h-49.391l9.936-29.123c1.337-3.921-.757-8.183-4.677-9.521-3.92-1.335-8.182.756-9.521 4.677l-11.588 33.967h-29.722l-11.588-33.967c-1.339-3.922-5.604-6.012-9.521-4.677-3.92 1.338-6.014 5.6-4.677 9.521l9.936 29.123h-46.287c-.973 0-1.938.076-2.891.212zm35.364 58.775c-.081-.767.001-1.444.165-2.032l58.414 58.414h-52.659zm62.244 130.935c-.148-3.361 2.451-6.2 5.813-6.348l39.15-1.722c.09-.004.181-.006.27-.006 3.234 0 5.935 2.558 6.078 5.819l.741 16.853c-9.946-3.929-27.074-12.176-51.721-7.069zm47.219 43.242-39.149 1.721c-3.36.139-6.201-2.461-6.349-5.813l-.721-16.392c21.829-5.456 36.439 2.195 51.773 8.253l.259 5.885c.148 3.347-2.438 6.198-5.813 6.346zm125.055 17.453c1.679 2.916.679 6.632-2.236 8.312l-33.961 19.556c-2.908 1.676-6.629.683-8.312-2.237l-19.556-33.961c-1.678-2.912-.679-6.632 2.237-8.312l33.961-19.556c2.899-1.671 6.626-.688 8.312 2.237zm48.719-40.667c-8.781-.63-11.631-1.952-39.638-10.68-16.409-5.113-34.252-4.452-50.236 1.862l-21.571 8.521c-13.593 5.37-28.488 5.643-42.217.839l-1.032-23.486c-.512-11.615-10.41-20.656-21.992-20.141l-39.15 1.722c-11.641.511-20.653 10.346-20.142 21.992l.488 11.102c-19.805 6.171-23.353 7.655-31.897 8.268l-8.354-79.581h127.665l-2.397 2.453c-8.126 8.315-7.973 21.692.342 29.82l28.026 27.39c8.316 8.126 21.69 7.974 29.82-.343l27.39-28.026c8.126-8.315 7.973-21.692-.342-29.819l-1.509-1.475h75.103c-1.746 16.609-6.628 63.114-8.357 79.582zm15.848-150.963-5.919 56.382h-31.393c4.184-3.471 7.983-7.468 11.303-11.957 10.807-14.613 15.224-32.526 12.478-50.483h8.075c3.254 0 5.796 2.816 5.456 6.058z"/></g></svg>