<svg id="Capa_1" enable-background="new 0 0 511.948 511.948" height="512" viewBox="0 0 511.948 511.948" width="512" xmlns="http://www.w3.org/2000/svg"><g><path d="m448.552 335.324c-5.121-20.713-56.067-226.772-58.073-234.887-2.312-9.352-10.655-15.883-20.289-15.883h-16.328c2.716-8.28 7.836-15.617 14.771-21.019l24.835-19.345c10.934-8.517 12.742-24.32 4.011-35.085-8.421-10.388-23.854-12.149-34.402-3.934l-24.836 19.345c-17.696 13.786-29.855 33.494-34.237 55.495l-.904 4.542h-96.673c-11.327-30.093-34.975-40.399-36.285-40.948-3.806-1.596-8.161.189-9.779 3.983-1.617 3.795.153 8.192 3.938 9.832.932.404 16.334 7.344 25.787 27.134h-48.336c-9.634 0-17.977 6.531-20.289 15.883l-25.7 103.95c-.001.004-.003.008-.004.013-34.98 141.487-36.235 141.538-36.573 163.108-.002.101 0 .202-.002.304-1.064 77.012 60.908 144.136 142.48 144.136h108.611c92.851 0 160.407-87.098 138.277-176.624zm-78.363-235.77c2.72 0 5.074 1.844 5.727 4.482l22.67 91.693c-3.913-.498-5.491-.415-8.932-.217-7.907.459-19.854 1.146-30.463-8.938-6.642-6.315-14.749-10.624-23.456-12.669l14.804-74.351zm-22.732-63.203 24.836-19.345c4.148-3.233 10.219-2.54 13.534 1.548 3.437 4.235 2.724 10.452-1.577 13.803l-24.836 19.345c-10.583 8.245-18.022 19.847-21.13 32.853h-19.892c4.159-20.873 14.407-36.786 29.065-48.204zm-32.052 63.203h19.84l-14.554 73.097c-2.769.177-9.954 1.601-19.359-2.418zm-15.294 0-12.23 61.425c-10.852-8.704-24.766-12.539-38.41-10.795-2.991-19.208-18.139-34.439-37.302-37.566-.273-4.632-.813-8.984-1.579-13.064zm-65.1 57.601c0 16.546-13.447 30.134-30.135 30.134-16.622 0-30.134-13.518-30.134-30.134s13.518-30.135 30.134-30.135 30.135 13.519 30.135 30.135zm-98.985-53.118c.652-2.639 3.007-4.482 5.727-4.482h53.495c.912 4.021 1.553 8.407 1.878 13.146-21.205 3.687-37.383 22.211-37.383 44.455 0 7.532 1.865 14.634 5.142 20.883-4.419 2.239-8.526 5.107-12.134 8.537-10.485 9.967-22.399 9.343-30.29 8.922-3.423-.178-5.132-.273-9.104.233zm-26.661 107.834c6.185-1.9 10.375-1.497 12.306-1.395 9.172.484 26.25 1.384 41.413-13.03 3.229-3.069 7.013-5.518 11.105-7.206 8.201 7.612 19.207 12.049 30.687 12.049 21.705 0 40.416-15.559 44.378-36.897 11.072-2.093 22.636 1.116 31.059 8.849 19.457 17.86 38.569 12.906 46.053 13.382 8.363.537 16.323 3.961 22.492 9.824 15.32 14.562 33.116 13.538 41.662 13.041 1.681-.097 5.814-.533 12.058 1.385l9.043 36.578h-311.3c3.456-13.979 5.703-23.069 9.044-36.58zm92.923 52.354 34.215 19.103c2.931 1.637 3.983 5.353 2.348 8.282l-19.104 34.216v.001c-1.636 2.931-5.339 3.99-8.281 2.346l-34.216-19.104c-2.931-1.636-3.983-5.351-2.347-8.281l19.104-34.216c1.635-2.934 5.356-3.982 8.281-2.347zm234.778 118.796h-39.275c-4.143 0-7.5 3.357-7.5 7.5s3.357 7.5 7.5 7.5h36.771c-4.651 20.259-14.241 39.137-28.201 55.199h-176.138c-4.143 0-7.5 3.357-7.5 7.5s3.357 7.5 7.5 7.5h160.717c-22.908 18.793-51.221 28.728-80.663 28.728h-108.612c-28.525 0-57.032-9.357-80.662-28.728h74.22c4.143 0 7.5-3.357 7.5-7.5s-3.357-7.5-7.5-7.5h-89.641c-13.93-16.029-23.54-34.897-28.201-55.199h169.809l14.074 24.442c5.808 10.086 18.734 13.547 28.796 7.751l33.961-19.556c4.986-2.871 8.349-7.488 9.778-12.638h28.992c4.143 0 7.5-3.357 7.5-7.5s-3.357-7.5-7.5-7.5h-30.429c-.192-.387-.372-.778-.591-1.158h-.001l-19.556-33.961c-5.802-10.076-18.722-13.553-28.797-7.75l-33.959 19.556c-8.42 4.848-12.132 14.505-9.95 23.313h-164.632c-3.01-28.406 2.232-40.682 21.736-119.571h81.956l-16.764 30.025c-5.681 10.178-2.045 23.009 8.132 28.691l34.216 19.104c10.178 5.68 23.014 2.04 28.691-8.133v.001l19.104-34.217c5.667-10.151 2.019-23.021-8.132-28.69l-12.146-6.781h183.658c18.889 76.394 24.892 89.874 21.739 119.572zm-181.206 0-1.153-2.003c-1.682-2.921-.672-6.637 2.238-8.312l33.958-19.555c2.92-1.681 6.644-.662 8.313 2.236l15.913 27.634zm60.049 15-33.334 19.194c-2.907 1.675-6.637.671-8.313-2.237l-9.764-16.957z"/></g></svg>