<svg id="Capa_1" enable-background="new 0 0 511.991 511.991" height="512" viewBox="0 0 511.991 511.991" width="512" xmlns="http://www.w3.org/2000/svg"><g><path d="m402.182 191.532c-12.728-20.966-11.086-41.899-9.4-51.279 14.062-.674 25.295-12.324 25.295-26.549 0-9.314-4.819-17.519-12.091-22.268l7.897-3.322c8.602-3.617 12.259-13.83 7.961-22.135-27.535-53.205-89.934-78.589-146.735-59.837-8.899 2.939-13.4 12.808-9.788 21.39l10.259 24.388c-.592-.025-1.184-.05-1.781-.05-10.719 0-20.469 4.205-27.708 11.043-3.416-6.552-10.263-11.043-18.149-11.043h-35.119c-9.542-14.239-23.517-24.915-39.789-30.271-15.563-5.123-31.549 6.449-31.549 22.834v33.66c0 3.193.631 6.24 1.767 9.029h-2.741c-14.657 0-26.582 11.925-26.582 26.582 0 14.235 11.249 25.891 25.324 26.55 1.72 9.338 3.396 30.15-9.43 51.278-18.884 31.109-29.154 66.115-30.723 100.112-1.078 23.272 2.541 45.332 3.701 49.295 9.441 47.977 45.294 108.006 75.45 146.685 12.073 15.485 30.246 24.367 49.857 24.367h95.789c19.611 0 37.784-8.882 49.857-24.367 30.045-38.537 66.277-98.998 75.618-147.369 9.719-50.015.279-103.476-27.19-148.723zm-122.371-171.146c50.259-16.59 104.388 5.485 128.71 52.488.276.533.099 1.18-.454 1.414l-22.998 9.675c-18.371-34.457-59.02-51.034-96.247-39.249l-9.675-23c-.229-.537.084-1.136.664-1.328zm89.789 66.736h-62.94c-3.647-8.669-2.194-5.215-11.999-28.524 28.56-8.39 59.309 3.477 74.939 28.524zm-87.086-18.716c6.76 16.07 5.231 12.435 7.873 18.716h-41.455c3.119-15.118 19.054-24.05 33.582-18.716zm-104.609 3.931c0-3.015 2.452-5.467 5.466-5.467h44.572c3.015 0 5.467 2.452 5.467 5.467v14.785h-55.505zm-41.419-27.904c0-6.153 6.007-10.515 11.859-8.586 10.415 3.429 19.67 9.567 26.889 17.711-7.43 3.232-12.329 10.66-12.329 18.779v14.785h-17.408c-4.97-.011-9.011-4.056-9.011-9.029zm-27.556 69.271c0-6.387 5.195-11.582 11.582-11.582h270.982c6.387 0 11.582 5.195 11.582 11.582s-5.195 11.582-11.582 11.582c-8.69 0-254.665 0-270.982 0-6.386 0-11.582-5.195-11.582-11.582zm269.036 311.287h-104.462c-4.143 0-7.5 3.357-7.5 7.5s3.357 7.5 7.5 7.5h95.386c-8.351 13.243-17.344 26.071-26.964 38.41-9.211 11.814-23.071 18.59-38.027 18.59h-95.789c-14.956 0-28.816-6.775-38.027-18.59-9.62-12.339-18.613-25.167-26.965-38.41h95.386c4.143 0 7.5-3.357 7.5-7.5s-3.357-7.5-7.5-7.5h-104.463c-.055-.094-.11-.188-.165-.282-5.898-10.187-11.51-20.759-16.716-31.552h277.688c-5.098 10.577-10.764 21.282-16.882 31.834zm23.807-46.834h-291.539c-4.429-10.049-7.976-19.964-10.874-31.833h313.287c-2.864 11.73-6.365 21.59-10.874 31.833zm13.902-46.833h-319.343c-1.68-10.528-2.47-21.176-2.372-31.833h144.544c4.143 0 7.5-3.357 7.5-7.5s-3.357-7.5-7.5-7.5h-143.813c2.577-29.58 11.942-58.797 27.957-85.176 14.214-23.415 13.7-46.411 11.816-59.029h243.079c-1.884 12.618-2.397 35.614 11.817 59.029 16.014 26.379 25.38 55.595 27.957 85.176h-143.813c-4.143 0-7.5 3.357-7.5 7.5s3.357 7.5 7.5 7.5h144.544c.097 10.657-.693 21.305-2.373 31.833z"/></g></svg>