<svg id="Capa_1" enable-background="new 0 0 511.996 511.996" height="512" viewBox="0 0 511.996 511.996" width="512" xmlns="http://www.w3.org/2000/svg"><g><path d="m400.563 399.894c-1.213-11.689-32.625-314.269-33.946-326.994-.428-4.121-4.121-7.107-8.234-6.686-4.12.428-7.113 4.114-6.686 8.234l2.182 21.021c-5.766 2.296-14.574 6.7-26.766 2.904-16.477-5.135-17.061-5.424-20.758-6.097 7.758-14.898 9.257-31.904 4.194-47.963-2.688-8.522-11.845-13.395-20.417-10.868-14.095 4.159-25.996 12.873-34.135 24.832-8.139-11.959-20.04-20.673-34.135-24.832-8.571-2.526-17.73 2.346-20.416 10.868-5.064 16.057-3.565 33.063 4.192 47.963-3.649.664-4.158.923-20.758 6.097-12.144 3.78-20.933-.582-26.766-2.904l7.878-75.891c.271-2.609 2.454-4.578 5.078-4.578h169.853c2.623 0 4.807 1.969 5.077 4.578l2.082 20.051c.428 4.12 4.118 7.118 8.234 6.686 4.12-.428 7.113-4.114 6.686-8.234l-2.082-20.051c-1.067-10.279-9.664-18.03-19.997-18.03h-169.852c-10.333 0-18.931 7.751-19.998 18.029-1.911 18.408-38.218 368.144-39.643 381.864-3.176 30.644 4.76 61.557 22.366 86.892 10.97 15.786 28.995 25.211 48.218 25.211h147.965c19.223 0 37.248-9.425 48.219-25.21 16.919-24.347 25.664-55.069 22.365-86.892zm-106.185-352.062c.141-.041.282-.062.422-.062.642 0 1.242.415 1.443 1.055 4.806 15.239 1.737 31.328-7.693 43.601-9.897 1.981-19.475 8.057-27.863 9.273-3.985-23.471 10.026-46.883 33.691-53.867zm-78.626.992c.245-.777 1.084-1.222 1.864-.992 14.216 4.195 24.951 14.29 30.376 26.841-2.594 8.098-3.57 16.695-2.65 25.558-7.414-2.597-14.277-6.277-21.899-7.805-9.39-12.23-12.519-28.296-7.691-43.602zm-59.247 62.149c32.673 13.006 45.294-11.784 69.503-2.218 13.992 5.527 27.427 12.86 47.364 4.982 25.116-9.921 22.867-9.275 49.278-1.044h.001c10.688 3.33 21.461 2.806 32.837-1.721l2.598 25.023h-204.18zm220.987 346.023h-103.995c-4.143 0-7.5 3.357-7.5 7.5s3.357 7.5 7.5 7.5h96.415c-1.273 2.114-2.616 4.192-4.032 6.229-8.168 11.754-21.589 18.771-35.9 18.771h-147.966c-14.312 0-27.732-7.017-35.9-18.771-1.416-2.037-2.758-4.115-4.032-6.229h96.415c4.143 0 7.5-3.357 7.5-7.5s-3.357-7.5-7.5-7.5h-103.995c-6.978-16.558-10.184-35.988-8.151-55.554l26-250.446h207.294l26 250.446c2.035 19.611-1.202 39.06-8.153 55.554z"/></g></svg>