<svg id="Capa_1" enable-background="new 0 0 511.997 511.997" height="512" viewBox="0 0 511.997 511.997" width="512" xmlns="http://www.w3.org/2000/svg"><g><path d="m403.18 68.079h-43.43c-2.068-3.947-5.011-7.491-8.777-10.287-2.325-1.726-4.828-3.086-7.477-4.081l29.345-41.909c2.376-3.393 1.552-8.069-1.842-10.445-3.393-2.376-8.069-1.551-10.445 1.842l-29.345 41.908c-1.842-2.15-3.977-4.037-6.395-5.632-13.221-8.718-31.223-5.788-40.979 6.671-4.939 6.308-7.183 14.045-6.393 21.933h-69.41c-4.143 0-7.5 3.357-7.5 7.5s3.357 7.5 7.5 7.5h50.068c-.28.328-.558.66-.826 1.003-5.255 6.709-7.46 15.033-6.209 23.438.15 1.01.353 2.008.603 2.991-8.022.839-15.691 4.782-20.958 11.507-4.56 5.824-6.819 12.864-6.519 20.117h-72.522l-41.806-59.057h63.171c4.143 0 7.5-3.357 7.5-7.5s-3.357-7.5-7.5-7.5h-64.218c-5.428 0-10.348 2.994-12.842 7.814-2.493 4.82-2.095 10.567 1.042 14.998 3.437 4.855 111.839 157.987 116.873 165.098 2.653 3.749 5.725 7.048 9.114 9.89v18.488c0 15.613 10.905 28.718 25.495 32.124v143.968h-53.471c-14.209 0-25.769 11.56-25.769 25.769s11.56 25.77 25.769 25.77h43.471c4.143 0 7.5-3.357 7.5-7.5s-3.357-7.5-7.5-7.5h-43.471c-5.938 0-10.769-4.831-10.769-10.77 0-5.938 4.831-10.769 10.769-10.769h121.941c5.938 0 10.769 4.831 10.769 10.769s-4.831 10.77-10.769 10.77h-43.471c-4.143 0-7.5 3.357-7.5 7.5s3.357 7.5 7.5 7.5h43.471c14.209 0 25.769-11.561 25.769-25.77s-11.56-25.769-25.769-25.769h-53.471v-143.967c14.59-3.406 25.494-16.511 25.494-32.124v-18.488c3.389-2.842 6.461-6.141 9.114-9.89l116.877-165.098c3.136-4.43 3.534-10.177 1.04-14.997-2.493-4.821-7.414-7.815-12.842-7.815zm-54.881 15c-.104 2.614-.845 5.224-2.304 7.566-4.787 7.681-14.934 9.723-22.288 4.575-1.921-1.345-3.475-3.054-4.618-5.078-1.665-2.948-4.023-5.357-6.828-7.063zm-52.653-27.685c3.045-3.888 7.666-5.955 12.341-5.955 2.965 0 5.951.832 8.571 2.559 2.043 1.348 3.694 3.092 4.907 5.186 3.006 5.187 8.115 8.764 14.02 9.815 1.227.218 2.404.583 3.528 1.08h-46.407c-.046-.234-.105-.463-.141-.701-.639-4.293.491-8.548 3.181-11.984zm-26.562 37.937c6.688-8.54 20.242-7.832 25.816 1.785 3.006 5.189 8.116 8.769 14.021 9.818 2.381.424 4.583 1.378 6.546 2.836 6.491 4.82 8.232 13.962 3.965 20.812-2.308 3.703-5.921 6.222-10.173 7.089-4.256.867-8.559-.024-12.115-2.515-1.92-1.344-3.474-3.053-4.618-5.077-2.91-5.153-7.928-8.667-13.766-9.64-2.293-.382-4.431-1.258-6.352-2.603-3.556-2.49-5.866-6.228-6.506-10.524-.638-4.291.492-8.546 3.182-11.981zm23.784 73.186c-2.308 3.704-5.921 6.222-10.173 7.09-4.258.868-8.56-.023-12.113-2.514-1.921-1.345-3.475-3.054-4.619-5.079-2.391-4.234-6.208-7.358-10.733-8.879h39.915c.241 3.205-.479 6.496-2.277 9.382zm-50.348-35.251c3.046-3.888 7.666-5.955 12.34-5.955 2.965 0 5.952.832 8.572 2.56 2.043 1.347 3.694 3.091 4.907 5.185 2.506 4.325 6.479 7.524 11.151 9.08h-40.26c-.304-3.909.834-7.732 3.29-10.87zm31.472 153.101c0 9.922-8.072 17.994-17.994 17.994-9.923 0-17.995-8.072-17.995-17.994v-9.769c10.95 4.032 23.965 4.427 35.989 0zm11.873-37.044c-7.196 10.165-18.428 15.449-29.866 15.449-11.708.001-22.805-5.477-29.867-15.449l-63.844-90.188h66.521c2.167 3.484 5.026 6.538 8.435 8.925 2.126 1.489 4.395 2.674 6.776 3.569l-19.659 28.075c-2.376 3.393-1.552 8.069 1.842 10.445 3.396 2.378 8.071 1.549 10.445-1.842l19.659-28.075c1.656 1.932 3.546 3.659 5.672 5.148 6.693 4.687 15.308 6.639 23.719 4.924 8.327-1.7 15.396-6.621 19.902-13.855 3.324-5.334 4.784-11.376 4.547-17.313h39.562zm74.462-105.188h-32.647c1.682-1.672 3.19-3.548 4.482-5.622 4.516-7.247 5.596-15.799 3.642-23.623 9.146-.923 17.672-5.887 22.922-14.314h.001c2.985-4.791 4.463-10.153 4.563-15.498h38.844z"/></g></svg>