<svg id="Capa_1" enable-background="new 0 0 511.965 511.965" height="512" viewBox="0 0 511.965 511.965" width="512" xmlns="http://www.w3.org/2000/svg"><g><path d="m369.168 37.952c-1.779-11.176-12.349-18.977-23.548-17.415-18.707 2.624-35.672 10.838-49.103 23.512-7.077-16.734-19.068-30.957-34.656-40.834-9.559-6.057-22.403-3.304-28.635 6.142-12.65 19.166-17.433 41.863-13.66 64.339-6.602 0-55.398 0-62.114 0-8.711 0-15.798 7.087-15.798 15.799v337.721c0 46.983 38.344 84.75 84.75 84.75h58.744c46.495 0 84.75-37.883 84.75-84.75v-116.886c0-4.143-3.357-7.5-7.5-7.5s-7.5 3.357-7.5 7.5v116.885c0 11.42-2.776 22.197-7.662 31.721h-54.079c-4.143 0-7.5 3.357-7.5 7.5s3.357 7.5 7.5 7.5h43.732c-.033.036-.063.074-.096.11-13.122 14.41-31.915 22.919-51.646 22.919h-58.744c-19.73 0-38.523-8.509-51.646-22.919-.033-.036-.063-.074-.096-.11h83.494c4.143 0 7.5-3.357 7.5-7.5s-3.357-7.5-7.5-7.5h-93.841c-4.886-9.524-7.662-20.301-7.662-31.721v-256.805h33.46c17.939 24.972 48.537 38.44 80.201 33.193-1.696 2.35-2.784 5.095-3.13 8.045v.001l-4.206 35.911c-.535 4.566.747 9.075 3.608 12.696 2.862 3.62 6.952 5.909 11.519 6.444l35.911 4.205c.68.079 1.356.119 2.03.119 3.856 0 7.583-1.292 10.666-3.728 3.62-2.862 5.909-6.952 6.444-11.519l4.206-35.913c1.105-9.446-5.681-18.032-15.127-19.139l-30.785-3.605c2.459-1.134 4.862-2.389 7.194-3.765 8.204-4.844 12.424-13.824 11.349-22.947h44.903v104.92c0 4.143 3.357 7.5 7.5 7.5s7.5-3.357 7.5-7.5v-185.834c0-3.89-1.42-7.451-3.76-10.207 4.191-13.176 5.276-27.25 3.033-41.335zm-123.422-20.334c1.128-1.709 3.021-2.642 4.946-2.642 1.08 0 2.17.294 3.14.908 15.096 9.565 26.151 24.016 31.424 40.96-3.783 5.226-7.091 10.983-9.659 16.851h-40.77c-3.937-19.525-.086-39.403 10.919-56.077zm40.352 71.077h59.648c-11.657 20.729-31.72 34.36-55 37.626-3.198.453-6.158-1.822-6.649-4.919-1.711-10.753-1.17-21.805 2.001-32.707zm-16.977 34.005c-1.615-.652-19.89-11.364-29.633-34.005h31.082c-2.67 11.182-3.118 22.715-1.449 34.005zm-41.752-13.759c.286-.592 1.046-.769 1.537-.316l44.291 40.744c.49.451.387 1.219-.187 1.557-12.183 7.193-27.972 5.518-38.39-4.067-10.42-9.588-13.402-25.179-7.251-37.918zm-45.757 46.469h-24.958v-65.916c0-.44.358-.799.798-.799h24.69c-9.144 20.183-10.151 44.542-.53 66.715zm16.688 0c-10.562-18.725-11.625-41.698-1.841-61.959 2.442-5.058 9.04-6.357 13.174-2.557l7.541 6.937c-8.212 7.933-14.834 36.713 4.785 57.579zm122.192 60.216c1.212.142 2.115 1.286 1.974 2.497l-4.206 35.911c-.142 1.212-1.269 2.122-2.497 1.974l-35.911-4.205c-1.212-.142-2.115-1.285-1.974-2.497l4.206-35.912v.001c.142-1.212 1.271-2.114 2.497-1.974zm-29.471-35.187c-26.134 15.424-59.129 11.704-81.215-10.029h84.864c1.301 3.628-.032 7.896-3.649 10.029zm63.877-25.029h-52.978l-15.612-14.361c2.103.378 4.266.442 6.522.127 24.827-3.482 47.287-16.91 62.067-38.748v52.982zm-2.741-81.715h-59.833c11.178-20.371 31.153-34.905 55.381-38.304 3.17-.443 6.147 1.766 6.648 4.918.001.001.001.001.001.001 1.81 11.361 1.019 22.712-2.197 33.385z"/><path d="m176.341 284.94 15.307 32.757c1.945 4.165 5.406 7.327 9.745 8.902 1.93.7 3.926 1.049 5.916 1.049 2.484 0 4.957-.544 7.27-1.624l32.757-15.307c4.165-1.945 7.327-5.406 8.902-9.745 1.575-4.338 1.371-9.021-.575-13.186l-15.306-32.759c-1.946-4.164-5.407-7.325-9.745-8.9-4.34-1.576-9.021-1.37-13.187.575h.001l-32.758 15.306c-8.617 4.027-12.353 14.313-8.327 22.932zm14.677-9.341 32.758-15.306h.001c.328-.153.645-.206.923-.206.333 0 .612.075.792.141.332.12.938.43 1.275 1.151l15.306 32.759c.337.721.186 1.385.065 1.716s-.43.938-1.151 1.274l-32.757 15.307c-.723.336-1.386.186-1.718.065-.331-.12-.938-.43-1.274-1.151l-15.307-32.757c-.516-1.106-.019-2.477 1.087-2.993z"/><path d="m195.124 435.259c4.062 8.691 14.385 12.316 22.931 8.325l32.759-15.306c8.618-4.028 12.353-14.314 8.325-22.931l-15.306-32.758c-4.026-8.615-14.309-12.356-22.932-8.326h.001l-32.759 15.306c-8.618 4.028-12.353 14.314-8.325 22.931zm-.63-42.1 32.758-15.306h.001c1.101-.518 2.473-.022 2.99 1.086l15.306 32.759c.516 1.103.021 2.474-1.086 2.99l-32.759 15.306c-1.103.517-2.474.021-2.99-1.086l-15.306-32.759c-.516-1.103-.021-2.473 1.086-2.99z"/><path d="m265.443 371.381 31.896 17.029c8.43 4.5 18.88 1.264 23.341-7.094l17.029-31.896c4.479-8.391 1.297-18.861-7.093-23.341l-31.896-17.029c-4.056-2.165-8.721-2.618-13.136-1.276-4.417 1.342-8.041 4.314-10.206 8.369l-17.028 31.897c-4.48 8.392-1.3 18.861 7.093 23.341zm6.139-16.278 17.029-31.896c.375-.702.997-.979 1.334-1.081.161-.05.398-.102.68-.102.307 0 .665.062 1.031.258l31.896 17.029c1.076.574 1.499 1.969.925 3.045l-17.029 31.896c-.574 1.075-1.969 1.5-3.045.925l-31.896-17.029c-1.075-.574-1.499-1.968-.925-3.045z"/></g></svg>