<svg id="Capa_1" enable-background="new 0 0 511.993 511.993" height="512" viewBox="0 0 511.993 511.993" width="512" xmlns="http://www.w3.org/2000/svg"><g><path d="m250.463 3.344c-4.251 1.039-7.902 3.824-10.017 7.64-2.099 3.788-2.523 8.319-1.166 12.432l25.091 75.968h-30.827c-3.355-15.661-15.938-27.931-31.76-30.833-2.934-28.882-26.991-41.758-28.08-42.326-3.658-1.905-8.153-.489-10.08 3.159-1.927 3.649-.525 8.18 3.113 10.125.761.407 17.178 9.427 19.939 29.167-15.562 3.143-27.866 15.38-31.109 30.907-3.439.544-6.579 2.299-8.832 5.034-2.738 3.324-3.836 7.655-3.012 11.882 3.218 16.495 3.672 33.547 1.804 50.391-5.289 48.556-21.383 58.875-20.948 101.552.662 65.019 46.229 111.908 79.424 123.408v71.288h-26.606c-13.47 0-24.429 10.959-24.429 24.429s10.959 24.429 24.429 24.429h32.037c4.143 0 7.5-3.357 7.5-7.5s-3.357-7.5-7.5-7.5h-32.037c-5.199 0-9.429-4.229-9.429-9.429s4.229-9.429 9.429-9.429h102.071c5.198 0 9.428 4.229 9.428 9.429s-4.229 9.429-9.428 9.429h-35.034c-4.143 0-7.5 3.357-7.5 7.5s3.357 7.5 7.5 7.5h35.034c13.47 0 24.428-10.959 24.428-24.429s-10.958-24.429-24.428-24.429h-26.608v-71.29c31.084-10.766 78.743-56.516 79.424-123.407.426-41.772-13.96-48.17-20.975-101.718-1.887-17.477-1.284-34.26 1.83-50.224.193-.988.271-1.981.257-2.966l63.336-20.92c4.112-1.358 7.498-4.398 9.29-8.341 1.806-3.972 1.868-8.562.171-12.596-22.286-52.954-80.012-81.948-135.73-68.332zm24.273 111.039c.004 0 .008.001.012.001h23.523c-2.74 14.401-3.617 29.362-2.654 44.803-1.501-.402 1.658.566-15.19-4.685l-19.526-33.82c-1.475-2.554-3.481-4.678-5.851-6.3h19.686zm-32.972 12.152c2.116-1.224 4.909-.496 6.147 1.647l14.199 24.594c-7.076.818-11.097 2.773-22.889 7.431-6.955 2.75-14.62 2.751-21.581 0l-11.128-4.396-1.614-2.797c-1.232-2.131-.483-4.916 1.646-6.146zm-47.185-43.65c10.773 0 19.964 6.892 23.404 16.498h-46.81c3.441-9.606 12.632-16.498 23.406-16.498zm23.945 31.498c-2.914 10.488-12.542 18.211-23.945 18.211-11.404 0-21.032-7.723-23.946-18.211zm-28.894 32.892c-.313 1.713-.389 3.468-.236 5.222-4.367.024-8.734.688-12.941 2-16.88 5.261-13.694 4.285-15.207 4.69.649-10.403.459-20.587-.572-30.529 6.207 10.022 16.731 17.095 28.956 18.617zm48.23 315.861h-18.857v-67.781c6.291.803 12.378.827 18.857-.001zm35.108-100.791c-17.66 14.969-36.876 22.465-59.594 16.614-11.443-2.942-19.919-8.511-29.479-16.614-15.235-12.913-26.854-28.969-34.368-46.637h157.809c-7.514 17.668-19.133 33.724-34.368 46.637zm39.609-61.637h-168.291c-12.09-42.928 2.658-75.021 5.857-85h59.29c4.143 0 7.5-3.357 7.5-7.5s-3.357-7.5-7.5-7.5h-54.935c2.26-8.762 3.989-17.403 5.174-25.911 4.594-.625 6.031-1.239 21.243-5.98 11.762-3.664 19.44.69 31.214 5.341 10.512 4.152 22.091 4.154 32.603 0 11.618-4.589 19.341-9.041 31.215-5.341 15.19 4.735 16.633 5.351 21.243 5.98 1.185 8.507 2.914 17.149 5.174 25.911h-57.931c-4.143 0-7.5 3.357-7.5 7.5s3.357 7.5 7.5 7.5h62.287c.666 2.092 1.998 6.055 3.217 9.425v.001c8.33 22.643 9.925 49.71 2.64 75.574zm-7.791-200.13c-3.484-1.519-4.232-1.195-24.617-1.195l-14.53-43.991c28.45-5.78 57.413 8.796 69.707 35.092zm67.581-22.516c-.104.229-.27.283-.34.306l-22.366 7.388c-15.01-34.118-52.406-52.944-88.75-44.679l-7.387-22.367c-.023-.071-.078-.237.043-.456.097-.175.251-.289.458-.339 49.004-11.974 98.774 13.082 118.343 59.578.082.196.082.388-.001.569z"/></g></svg>