<svg id="Capa_1" enable-background="new 0 0 511.996 511.996" height="512" viewBox="0 0 511.996 511.996" width="512" xmlns="http://www.w3.org/2000/svg"><g><path d="m391.125 71.591h-57.114c6.483-18.403 16.22-26.246 16.903-26.776 3.28-2.492 3.938-7.169 1.463-10.47-2.483-3.314-7.186-3.989-10.499-1.503-.85.637-15.609 12.047-23.587 38.749h-47.323c-6.011-40.453-40.967-71.591-83.066-71.591-46.312 0-83.988 37.677-83.988 83.988s37.677 83.988 83.988 83.988c5.335 0 10.548-.522 15.61-1.477 29.522 100.451 39.63 212.216 11.12 314.315-4.374 15.662 7.312 31.182 23.571 31.182h108.642c16.288 0 27.938-15.546 23.571-31.182-33.991-121.73-12.803-269.414 36.315-385.699 4.716-11.162-3.492-23.524-15.606-23.524zm-70.359 45.164c9.986 0 18.11 8.124 18.11 18.11s-8.124 18.111-18.11 18.111-18.111-8.125-18.111-18.111 8.125-18.11 18.111-18.11zm-48.942-30.164h43.088c-.782 4.948-1.319 10.274-1.533 16.005-14.712 3.367-25.724 16.552-25.724 32.269 0 6.682 1.996 12.903 5.413 18.111h-57.345c21.167-14.718 35.258-38.907 36.101-66.385zm-83.922 66.386c-38.04 0-68.988-30.948-68.988-68.988s30.948-68.989 68.988-68.989c33.806 0 61.991 24.45 67.851 56.591h-17.773c-3.81-15.406-14.593-28.465-29.599-34.962-3.8-1.644-8.217.103-9.862 3.903s.102 8.217 3.903 9.862c9.452 4.092 16.528 11.859 19.892 21.196h-28.391c-12.118 0-20.32 12.365-15.606 23.524 2.709 6.413 6.174 15.01 10.028 25.456-.148.002-.294.011-.443.011-20.178 0-36.594-16.416-36.594-36.594 0-14.602 8.664-27.788 22.073-33.594 3.802-1.646 5.549-6.062 3.903-9.862-1.646-3.802-6.061-5.549-9.862-3.903-18.901 8.184-31.114 26.773-31.114 47.359 0 28.449 23.145 51.594 51.594 51.594 1.918 0 3.81-.114 5.674-.319 1.811 5.273 3.666 10.87 5.539 16.788-3.652.601-7.395.927-11.213.927zm15.204-35.716c-4.229-11.577-8.032-21.025-10.971-27.981-.543-1.287.388-2.688 1.788-2.688h30.469c-.963 13.636-9.427 25.228-21.286 30.669zm10.447 30.75c-1.836-5.823-3.656-11.34-5.438-16.558 17.675-7.556 30.307-24.702 31.314-44.862h17.395c-1.04 27.854-18.664 51.525-43.271 61.42zm132.471 292.917h-36c-4.143 0-7.5 3.357-7.5 7.5s3.357 7.5 7.5 7.5h38.896c2.03 9.675 4.521 19.871 7.049 28.923 1.699 6.083-2.783 12.146-9.124 12.146h-108.642c-6.329 0-10.826-6.051-9.124-12.146 2.497-8.942 4.95-18.916 7.049-28.923h38.895c4.143 0 7.5-3.357 7.5-7.5s-3.357-7.5-7.5-7.5h-35.999c18.005-102.353.874-201.688-19.468-272.951h145.935c-20.341 71.263-37.473 170.598-19.467 272.951zm46.889-351.649c-5.553 13.147-14.193 35.186-22.965 63.697h-21.486c3.417-5.209 5.413-11.43 5.413-18.111 0-15.632-10.893-28.76-25.485-32.214.239-5.852.842-11.198 1.713-16.06h61.021c1.403 0 2.332 1.404 1.789 2.688z"/></g></svg>