<svg id="Capa_1" enable-background="new 0 0 511.994 511.994" height="512" viewBox="0 0 511.994 511.994" width="512" xmlns="http://www.w3.org/2000/svg"><g><path d="m430.324 62.535c-18.526-45.584-67.657-71.03-115.526-59.956-3.921.907-7.311 3.428-9.299 6.914-1.976 3.462-2.418 7.628-1.215 11.428 23.897 75.467-6.147-19.408 17.745 56.038h-11.294c-8.002 0-14.513-6.511-14.513-14.514v-7.021c0-13.552-11.025-24.576-24.577-24.576h-8.964c-4.143 0-7.5 3.357-7.5 7.5s3.357 7.5 7.5 7.5h8.964c5.281 0 9.577 4.296 9.577 9.576v7.021c0 16.273 13.239 29.514 29.513 29.514h24.425c5.282 0 9.576 4.383 9.576 9.576v3.852h-142.607c.78-3.24 1.084-6.603.875-9.974-.245-3.94-1.193-7.924-2.905-11.712 5.698-5.491 9.039-13.129 9.039-21.256v-7.021c0-5.28 4.296-9.576 9.577-9.576h8.965c4.143 0 7.5-3.357 7.5-7.5s-3.357-7.5-7.5-7.5h-8.965c-13.552 0-24.577 11.024-24.577 24.576v7.021c0 3.402-1.196 6.626-3.28 9.178-5.34-4.405-12.065-7.192-19.429-7.61-7.215-.406-14.196 1.441-20.211 5.347-.656.425-1.575.426-2.231 0-6.014-3.906-12.997-5.753-20.21-5.347-16.95.961-30.524 14.459-31.575 31.399-.214 3.448.108 6.886.928 10.195-4.693.688-9.049 2.99-12.26 6.555-3.878 4.308-5.756 10.083-5.15 15.848.475 4.522 26.417 251.643 36.273 345.531 2.301 21.921 20.658 38.452 42.7 38.452h170.974c22.042 0 40.399-16.531 42.7-38.452 1.277-12.163 34.437-328.035 36.273-345.531.605-5.765-1.272-11.54-5.15-15.847-3.879-4.308-9.428-6.777-15.224-6.777h-29.531v-3.852c0-.108-.007-.213-.008-.321 10.13-3.208 53.645-16.988 61.649-19.522 3.8-1.203 6.952-3.962 8.646-7.57 1.707-3.633 1.817-7.855.302-11.585 0 0 0 0 0-.001zm-85.589 57.851v20.877c0 4.094.853 8.069 2.431 11.711h-203.971c1.577-3.642 2.43-7.617 2.43-11.711v-20.877zm-232.563-24.044c.571-9.209 8.237-16.831 17.453-17.353 4.013-.232 7.871.794 11.191 2.95 5.641 3.662 12.931 3.662 18.571 0 3.32-2.156 7.187-3.186 11.192-2.95 9.363.53 16.889 8.313 17.453 17.353.197 3.179-.385 6.25-1.695 9.044-7.192 0-65.267 0-72.471 0-1.309-2.794-1.891-5.865-1.694-9.044zm-16.535 30.102c-.222-2.113.769-3.565 1.379-4.243s1.951-1.814 4.076-1.814h29.532v20.877c0 4.652-2.246 8.994-5.955 11.711h-26.247zm262.812 345.531c-1.497 14.263-13.441 25.019-27.782 25.019h-170.974c-14.341 0-26.285-10.756-27.782-25.019l-2.685-25.574h231.908zm1.286-351.589h29.531c2.125 0 3.467 1.137 4.077 1.814s1.601 2.131 1.379 4.243l-2.785 26.53h-26.247c-3.709-2.717-5.955-7.059-5.955-11.711zm30.627 47.588c-1.047 9.977-19.315 183.985-20.338 193.734h-107.344c-4.143 0-7.5 3.357-7.5 7.5s3.357 7.5 7.5 7.5h105.769l-5.742 54.692h-235.056l-5.741-54.692h105.77c4.143 0 7.5-3.357 7.5-7.5s-3.357-7.5-7.5-7.5h-107.345l-20.338-193.734zm-35.408-80.983c-4.079-5.538-10.28-9.142-17.146-9.889l-8.954-28.276c22.777-3.761 45.521 8.051 55.561 28.836zm43.865-13.891c-12.704-28.627-43.801-44.77-74.526-38.678l-5.5-17.369c40.647-9.095 81.435 12.069 97.395 50.548z"/></g></svg>