<svg id="Capa_1" enable-background="new 0 0 511.986 511.986" height="512" viewBox="0 0 511.986 511.986" width="512" xmlns="http://www.w3.org/2000/svg"><g><path d="m358.046 127.564-7.603-34.777c-1.494-6.83-7.652-11.787-14.645-11.787h-28.678c1.604-1.865 3.391-3.584 5.356-5.114l45.762-35.645c9.787-7.624 11.547-21.79 3.923-31.578-7.625-9.788-21.793-11.546-31.576-3.923l-45.762 35.645c-13.333 10.387-23.081 24.596-28.044 40.615h-20.396c-4.143 0-7.5 3.357-7.5 7.5s3.357 7.5 7.5 7.5l16.939-.001-5.11 25.667c-17.568 0-59.993 0-77.635 0l5.609-25.666h25.197c4.143 0 7.5-3.357 7.5-7.5s-3.357-7.5-7.5-7.5h-25.197c-6.992 0-13.15 4.957-14.645 11.788l-19.79 90.521c-9.775 44.701 6.838 91.111 42.873 119.444l41.623 32.729c6.665 5.241 14.334 8.481 22.245 9.733v117.913h-31.307c-13.47 0-24.428 10.959-24.428 24.429s10.958 24.429 24.428 24.429h21.307c4.143 0 7.5-3.357 7.5-7.5s-3.357-7.5-7.5-7.5h-21.307c-5.198 0-9.428-4.229-9.428-9.429s4.229-9.429 9.428-9.429h77.613c5.199 0 9.429 4.229 9.429 9.429s-4.229 9.429-9.429 9.429h-21.307c-4.143 0-7.5 3.357-7.5 7.5s3.357 7.5 7.5 7.5h21.307c13.47 0 24.429-10.959 24.429-24.429s-10.959-24.429-24.429-24.429h-31.307v-117.913c7.911-1.252 15.582-4.492 22.246-9.732l41.623-32.729c35.881-28.214 52.688-74.557 42.873-119.444.001-.003-12.186-55.746-12.187-55.746zm-108.967 100.623c-22.871-21.852-29.874-56.427-14.82-86.174 2.949-5.831 10.632-7.151 15.32-2.676l8.541 8.156c-1.648 1.412-3.042 3.138-4.063 5.156-10.164 20.089-6.047 44.037 10.245 59.594 24.254 23.16 57.38 12.915 64.966 3.188l8.541 8.155c2.229 2.128 3.29 5.103 2.909 8.16-.384 3.084-2.16 5.732-4.874 7.268-26.335 14.891-60.385 13.355-86.765-10.827zm-58.484 36.761 7.248-9.322c1.572 1.496 3.431 2.708 5.542 3.52 17.39 6.683 36.6 3.378 50.644-8.375 6.844 4.143 14.209 7.332 21.863 9.46-20.274 22.836-52.242 30.778-81.084 19.688-6.08-2.336-8.204-9.836-4.213-14.971zm17.421-22.406 16.428-21.13c4.09 6.634 9.106 12.703 14.275 17.624v-.001c.203.203 1.691 1.586 2.681 2.459-9.497 6.285-21.773 7.826-32.633 3.65-.669-.257-.935-.76-1.039-1.138-.102-.366-.135-.919.288-1.464zm108.906-35.872c-13.586 7.682-30.965 5.512-42.261-5.275v-.001c-11.298-10.787-14.267-28.047-7.22-41.973.523-1.034 1.856-1.253 2.664-.484l47.18 45.051c.812.783.638 2.117-.363 2.682zm-48.421-70.003h76.18l10.898 49.846c3.155 14.432 3.103 29.157.197 43.228-.19-6.418-2.855-12.464-7.609-17.003-.534-.51-78.742-75.19-79.666-76.071zm67.288-40.675 5.613 25.675h-47.309l4.699-23.602c.139-.697.304-1.385.481-2.07zm-41.749-43.773 45.762-35.645c3.26-2.543 7.984-1.956 10.525 1.307s1.954 7.985-1.308 10.526l-45.762 35.645c-5.917 4.609-10.717 10.407-14.157 16.948h-16.46c4.38-11.283 11.742-21.258 21.4-28.781zm-25.424 43.779 15.294-.001-5.112 25.67h-15.293zm-101.314 40.669h52.885c-10.148 21.011-11.926 46.377-3.106 69.775l-20.828 26.79-17.5 22.509c-3.18 4.09-4.934 8.916-5.168 13.899-16.884-23.712-23.545-54.019-17.18-83.127zm109.164 187.025c-12.055 9.478-28.894 9.478-40.948 0l-32.942-25.904c33.676 7.149 69.084-5.466 90.124-34.587 17.678 1.388 35.444-2.602 50.526-11.13 3.487-1.972 6.362-4.673 8.481-7.875-6.532 18.139-18.013 34.497-33.618 46.767z"/></g></svg>