<svg id="Capa_1" enable-background="new 0 0 511.999 511.999" height="512" viewBox="0 0 511.999 511.999" width="512" xmlns="http://www.w3.org/2000/svg"><g><path d="m376.861 76.867-2.974-.776-18.761-48.536c-1.729-4.473-4.709-8.153-8.538-10.704l1.945-7.455c1.046-4.009-1.355-8.105-5.363-9.15-4.005-1.049-8.105 1.355-9.15 5.363l-1.945 7.455c-4.587.356-8.985 2.113-12.678 5.172l-40.08 33.188-2.974-.776c-4.008-1.051-8.104 1.354-9.149 5.364-1.046 4.008 1.355 8.104 5.364 9.149l42.624 11.118-7.696 29.112h-51.672c-4.355-14.955-16.938-26.429-32.502-29.179-2.935-30.228-28.091-43.7-29.226-44.291-3.663-1.909-8.156-.489-10.083 3.159-1.926 3.65-.523 8.181 3.117 10.125.807.431 18.324 10.047 21.098 31.126-15.257 2.956-27.542 14.318-31.835 29.059h-31.676c-8.369 0-15.178 6.809-15.178 15.178v93.657c0 17.943 2.747 35.716 8.164 52.824 3.629 11.457 5.963 23.34 6.938 35.318.785 9.651 14.262 175.245 14.915 183.271 1.202 14.78 13.761 26.358 28.591 26.358h120.633c14.828 0 27.387-11.578 28.591-26.358.591-7.268 14.195-174.428 14.915-183.271.976-11.982 3.31-23.865 6.938-35.318 4.655-14.698 7.331-29.89 7.994-45.26.108-2.517.169-5.038.169-7.564v-6.395c0-4.143-3.357-7.5-7.5-7.5s-7.5 3.357-7.5 7.5v6.395c0 16.407-2.511 32.656-7.464 48.295-3.968 12.527-6.521 25.524-7.588 38.631l-5.347 65.704h-66.024c-4.143 0-7.5 3.357-7.5 7.5s3.357 7.5 7.5 7.5h64.803l-6.507 79.957h-151.594l-6.507-79.957h64.803c4.143 0 7.5-3.357 7.5-7.5s-3.357-7.5-7.5-7.5h-66.024l-5.347-65.704c-1.067-13.102-3.62-26.099-7.588-38.631-4.953-15.641-7.465-31.89-7.465-48.295v-55.921h207.847v14.526c0 4.143 3.357 7.5 7.5 7.5s7.5-3.357 7.5-7.5v-52.263c0-8.369-6.809-15.178-15.178-15.178h-29.197l6.695-25.326c19.408 5.062 17.161 4.477 43.38 11.315 3.998 1.046 8.102-1.349 9.149-5.364 1.047-4.005-1.354-8.102-5.363-9.147zm-53.833 399.947-.619 7.609c-.574 7.052-6.565 12.575-13.64 12.575h-120.633c-7.075 0-13.066-5.523-13.64-12.575l-.619-7.609zm-178.499-333.509v-22.736c0-.098.08-.178.178-.178h30.179c.72 8.665 4.112 16.583 9.363 22.914zm71.569-52.735c10.4 0 19.41 6.054 23.699 14.821h-47.398c4.289-8.767 13.299-14.821 23.699-14.821zm0 52.735c-13.368 0-24.437-10.002-26.135-22.914h52.269c-1.698 12.912-12.766 22.914-26.134 22.914zm81.365 0h-49.515c5.25-6.331 8.643-14.249 9.363-22.914h46.21zm54.735-22.914c.098 0 .178.08.178.178v22.736h-39.397l6.058-22.914zm-54.996-64.302 31.761-26.3c4.084-3.384 10.262-1.764 12.173 3.175l14.867 38.463c-7.627-1.99-51.844-13.524-58.801-15.338z"/><path d="m304.091 309.194c14.458-8.176 16.915-27.902 4.941-39.334-78.93-75.37 1.454 1.388-88.229-84.249-11.99-11.446-31.574-8.049-39.064 6.751-8.386 16.572-11.341 35.84-8.322 54.253 3.123 19.047 12.171 36.178 26.167 49.542v.001c28.896 27.59 71.54 31.678 104.507 13.036zm-75.785-92.649c.516-1.02 1.846-1.265 2.666-.481 47.681 45.528 34.552 32.992 47.173 45.044.817.781.644 2.118-.359 2.686-13.585 7.681-30.964 5.512-42.261-5.275v-.001c-11.297-10.789-14.266-28.049-7.219-41.973zm-33.182-17.41c2.951-5.832 10.634-7.15 15.32-2.676l8.541 8.156c-1.648 1.412-3.042 3.138-4.063 5.156-10.164 20.089-6.047 44.037 10.245 59.594 16.312 15.578 40.431 18.554 60.003 7.484 1.969-1.113 3.628-2.585 4.963-4.296l8.541 8.155c4.7 4.486 3.712 12.217-1.965 15.429-28.337 16.02-63.206 11.667-86.766-10.829v.001c-23.562-22.499-29.517-57.129-14.819-86.174z"/></g></svg>