<svg id="Capa_1" enable-background="new 0 0 511.996 511.996" height="512" viewBox="0 0 511.996 511.996" width="512" xmlns="http://www.w3.org/2000/svg"><g><path d="m249.359 408.408c4.42 9.46 15.75 13.668 25.325 9.195l27.973-13.071c1.195.301 2.439.478 3.727.478h89.883c8.931 0 15.974-7.65 15.262-16.601v.001c-4.402-55.355-48.591-99.462-103.859-103.858-8.928-.707-16.598 6.311-16.598 15.263v24.943c-3.986-.82-8.103-.366-11.842 1.381l-38.81 18.134c-9.517 4.446-13.641 15.809-9.195 25.325zm56.713-108.593c0-.206.201-.328.409-.31 48.359 3.846 86.25 41.736 90.095 90.095v.001c.004.048.016.191-.102.318-.084.091-.155.091-.207.091h-22.465c-3.534-35.711-32.018-64.196-67.73-67.729zm0 37.554c27.434 3.401 49.241 25.209 52.643 52.642h-52.33c-.144 0-.312-.156-.312-.312-.001-11.419-.001-42.484-.001-52.33zm-59.302 20.494 38.81-18.134c.599-.279 1.172-.374 1.676-.374.597 0 1.095.133 1.417.25.594.216 1.682.772 2.293 2.079l.106.229v47.785c0 1.13.151 2.399.412 3.499l-23.149 10.816c-1.999.933-4.447.054-5.386-1.955l-18.134-38.81c-.936-2-.051-4.448 1.955-5.385z"/><path d="m477.413 123.02c4.143 0 7.5-3.357 7.5-7.5v-16.469c0-10.926-8.889-19.814-19.814-19.814h-253.236c-6.625-44.77-45.304-79.237-91.887-79.237-51.221 0-92.893 41.672-92.893 92.894 0 48.697 37.666 88.758 85.394 92.59v26.164c0 28.235 4.357 56.354 12.952 83.576 5.884 18.633 9.67 37.956 11.255 57.434 2.604 32.001 8.351 102.614 8.795 108.066 1.141 14.009 7.459 26.971 17.794 36.498 10.334 9.527 23.765 14.774 37.821 14.774h195.203.001c28.977 0 53.25-22.222 55.615-51.272l8.795-108.066c1.579-19.401 5.347-38.721 11.255-57.437 8.594-27.218 12.951-55.337 12.951-83.573 0-5.53 0-54.353 0-61.128 0-4.143-3.357-7.5-7.5-7.5s-7.5 3.357-7.5 7.5v20.268h-54.529l-10.45-25.006c-3.256-7.788-12.245-11.478-20.032-8.224l-75.712 31.642-12.825-27.448c-4.446-9.516-15.808-13.643-25.324-9.195l-38.81 18.133c-7.833 3.66-11.994 11.994-10.772 20.099h-50.927c25.114-16.356 41.864-44.517 42.32-76.551h252.247c2.654 0 4.814 2.16 4.814 4.814v16.469c-.001 4.141 3.357 7.499 7.499 7.499zm-364.937 47.399c-39.444-3.787-70.394-37.105-70.394-77.525.001-42.951 34.944-77.894 77.894-77.894 38.29 0 70.192 27.779 76.67 64.236h-19.818c-6.169-25.676-29.309-44.82-56.851-44.82-32.244 0-58.478 26.233-58.478 58.478 0 29.702 22.265 54.285 50.978 57.98v19.545zm50.945-76.183c-.636 20.813-15.963 37.983-35.944 41.474v-36.66c0-2.654 2.16-4.814 4.815-4.814zm-50.945 4.815v36.659c-20.41-3.566-35.978-21.401-35.978-42.817 0-23.974 19.504-43.478 43.478-43.478 19.204 0 35.528 12.519 41.269 29.82h-28.953c-10.926.001-19.816 8.89-19.816 19.816zm292.92 86.736 5.878 14.065c-21.154 5.943-42.871-.294-57.638-14.065zm-14.712-34.389c.067-.027.138-.018.203 0 .018.005.036.008.053.016.065.032.124.08.154.151l8.033 19.222h-54.837zm-82.286 34.389h25.343c18.564 25.762 52.05 37.615 83.352 27.988l8.66 20.722c.02.048.048.114-.004.228-.072.156-.21.201-.255.216-46.381 15.193-95.811-5.537-117.868-48.387-.232-.455.307-.572.772-.767zm-13.666 8.482-22.492 10.509c-2.739-1.172-5.94-1.526-8.88-.963l-9.893 1.896-9.309-19.924h48.433c-.12 3.333.725 5.789 2.141 8.482zm-50.603 28.506c.443-.085 6.183-1.184 22.055-4.228.018-.004.048-.005.08-.002.014.001.034.014.05.019.037.013.075.028.123.074.097.097.124.212.128.253 5.327 48.219-24.753 92.564-71.522 105.445-.048.012-.188.05-.332-.04-.105-.065-.118-.135-.128-.187l-4.228-22.055c34.455-10.166 57.071-43.48 53.774-79.279zm-56.616 64.457-9.853-51.398c-.008-.038-.024-.127.049-.234.072-.106.16-.124.199-.131l51.398-9.853c1.862 27.581-15.423 53.128-41.793 61.616zm51.067-122.954 38.81-18.133c2.011-.938 4.452-.043 5.385 1.955l10.6 22.687h-56.225l-.525-1.123c-.935-2.001-.05-4.449 1.955-5.386zm-10.978 21.509 10.67 22.837-63.187 12.113c-8.292 1.588-13.745 9.627-12.157 17.921l11.35 59.214.002.007 5.569 29.054c1.693 8.836 10.588 14.229 19.175 11.864 53.538-14.744 88.537-66.447 82.45-121.554-.008-.07-.025-.138-.034-.208l21.21-9.91c28.947 40.716 80.858 57.35 127.511 42.071 8.523-2.792 12.878-12.232 9.431-20.482l-17.94-42.927h48.26v25.86c0 26.703-4.123 53.302-12.256 79.058-6.221 19.705-10.226 40.14-11.901 60.735l-7.073 86.903h-171.586c-4.143 0-7.5 3.357-7.5 7.5s3.357 7.5 7.5 7.5h170.367l-.501 6.163c-1.712 21.024-19.575 37.489-40.665 37.489h-195.204c-21.092 0-38.954-16.467-40.664-37.489l-.501-6.163h72.168c4.143 0 7.5-3.357 7.5-7.5s-3.357-7.5-7.5-7.5h-73.389l-7.073-86.903c-1.676-20.596-5.681-41.029-11.901-60.732-8.133-25.759-12.257-52.358-12.257-79.061v-25.86zm-100.126-15.368v-19.545c28.278-3.639 50.283-27.542 50.944-56.637h19.415c-.679 39.81-31.354 72.437-70.359 76.182z"/></g></svg>