<svg id="Capa_1" enable-background="new 0 0 511.996 511.996" height="512" viewBox="0 0 511.996 511.996" width="512" xmlns="http://www.w3.org/2000/svg"><g><path d="m197.575 342.812v-21.833c0-8.133-6.617-14.75-14.75-14.75h-57.75c-8.133 0-14.75 6.617-14.75 14.75v21.833c0 8.133 6.617 14.75 14.75 14.75h57.75c8.133 0 14.75-6.617 14.75-14.75zm-15-.25h-57.25v-21.333h57.25z"/><path d="m486.538 306.042c-3.209-3.737-7.874-5.88-12.8-5.88h-151.06c-4.926 0-9.591 2.143-12.8 5.88-3.209 3.736-4.623 8.672-3.879 13.541 1.863 12.194 21.144 138.392 21.79 142.624 0 .004.001.008.002.012.814 5.35 1.457 12.522 1.457 19.202v10.309c0 11.175 9.092 20.267 20.268 20.267h97.384c11.176 0 20.268-9.091 20.268-20.267v-10.31c0-6.683.652-13.935 1.459-19.214l21.79-142.623c.744-4.869-.67-9.804-3.879-13.541zm-165.28 9.773c.256-.297.71-.652 1.421-.652h151.06c.711 0 1.165.355 1.421.652.255.298.537.8.43 1.502l-6.9 45.162h-52.981c-4.143 0-7.5 3.358-7.5 7.5s3.357 7.5 7.5 7.5h50.689c-.302 1.978-12.637 82.692-12.752 83.5h-110.875c-.118-.831-12.406-81.237-12.752-83.5h50.688c4.143 0 7.5-3.358 7.5-7.5s-3.357-7.5-7.5-7.5h-52.98l-6.9-45.162c-.106-.702.176-1.204.431-1.502zm130.91 175.914c0 2.904-2.363 5.267-5.268 5.267h-97.384c-2.904 0-5.268-2.363-5.268-5.267v-10.309c0-1.811-.036-3.625-.106-5.441h108.131c-.07 1.815-.106 3.63-.106 5.441v10.309z"/><path d="m286.516 475.488c0-11.815 0-212.089 0-223.428 0-20.645-12.949-39.488-32.222-46.889l-25.616-9.836c-6.559-2.519-11.629-7.49-14.275-13.998s-2.485-13.606.453-19.987c6.416-13.927 3.973-29.491-4.078-40.516-5.83-7.984-11.347-16.771-15.665-25.643 8.447-4.142 14.277-12.828 14.277-22.853v-46.9c0-14.026-11.412-25.438-25.439-25.438h-60.002c-14.026 0-25.438 11.412-25.438 25.438v46.901c0 10.025 5.83 18.711 14.276 22.853-3.778 7.763-8.225 14.936-12.193 20.733-2.338 3.416-18.62 21.396-7.551 45.425 2.939 6.381 3.101 13.48.454 19.988s-7.717 11.479-14.275 13.998l-25.616 9.836c-19.272 7.401-32.222 26.244-32.222 46.889v223.428c0 20.127 16.374 36.508 36.508 36.508h192.115c20.135-.001 36.509-16.382 36.509-36.509zm-250.106.491h100.04c4.143 0 7.5-3.358 7.5-7.5s-3.357-7.5-7.5-7.5h-100.065v-72.645l104.862 53.485c3.978 2.029 8.341 3.043 12.703 3.043 4.363 0 8.727-1.014 12.703-3.043l104.862-53.485v72.645h-100.065c-4.143 0-7.5 3.358-7.5 7.5s3.357 7.5 7.5 7.5h100.041c-.271 11.61-9.743 21.016-21.483 21.016h-192.115c-11.584.001-21.219-9.272-21.483-21.016zm-.025-147.351 111.677-56.96c3.689-1.881 8.09-1.881 11.777 0l111.677 56.96v42.868l-111.678 56.96c-3.684 1.881-8.087 1.882-11.776 0l-111.677-56.96zm158.598-204.149h-82.066c5.683-8.285 11.148-17.613 15.223-26.701h51.621c4.097 9.139 9.557 18.441 15.222 26.701zm-81.471-99.041c0-5.756 4.683-10.438 10.438-10.438h60.002c5.756 0 10.438 4.683 10.438 10.438v46.901c0 4.936-3.456 9.966-10.481 10.435-64.613.004-59.398.015-60.398-.028-5.711-.258-9.998-4.926-9.998-10.407v-46.901zm-54.529 193.737 25.616-9.836c10.32-3.963 18.629-12.109 22.793-22.35 4.165-10.241 3.901-21.873-.724-31.914-2.28-4.949-2.831-10.417-1.761-15.596h98.084c1.07 5.179.52 10.647-1.761 15.596-4.625 10.041-4.889 21.673-.724 31.914 4.164 10.241 12.473 18.387 22.793 22.35l25.616 9.836c13.517 5.191 22.599 18.407 22.599 32.886v59.729l-104.861-53.485c-7.954-4.057-17.453-4.058-25.407 0l-104.861 53.485v-59.729c0-14.479 9.082-27.695 22.598-32.886z"/></g></svg>