<svg id="Capa_1" enable-background="new 0 0 511.996 511.996" height="512" viewBox="0 0 511.996 511.996" width="512" xmlns="http://www.w3.org/2000/svg"><g><path d="m226.435 511.996c20.479 0 37.14-16.661 37.14-37.14 0-11.886 0-218.098 0-231.913 0-34.276-24.507-63.435-58.27-69.334-.427-.074-.859-.112-1.292-.112-7.431 0-13.476-6.045-13.476-13.476v-65.963c6.458-1.808 11.213-7.732 11.213-14.759v-20.964c0-8.458-6.881-15.339-15.339-15.339h-1.404v-21.668c-.001-11.761-9.568-21.328-21.328-21.328h-37.006c-11.761 0-21.328 9.567-21.328 21.328v21.668h-1.404c-8.457 0-15.338 6.881-15.338 15.339v20.964c0 7.027 4.755 12.95 11.212 14.759v65.964c0 7.431-6.045 13.476-13.476 13.476-.433 0-.864.038-1.291.112-33.765 5.899-58.271 35.058-58.271 69.334v231.913c0 20.479 16.661 37.14 37.14 37.14h162.518zm-106.09-490.668c0-3.489 2.839-6.328 6.328-6.328h37.006c3.489 0 6.327 2.838 6.327 6.328v21.668h-49.661zm106.09 475.668h-162.518c-10.812 0-19.801-7.85-21.72-17.857h205.959c-1.913 9.969-10.859 17.857-21.721 17.857zm-122.832-438.661c0-.187.151-.339.338-.339h82.47c.187 0 .339.152.339.339v20.964c0 .187-.152.339-.339.339-2.642 0 1.681 0-82.47 0-.187 0-.338-.152-.338-.339zm-16.545 130.153c15.37-.383 27.757-13.006 27.757-28.467v-65.383h60.722v65.384c0 15.461 12.387 28.083 27.758 28.467 26.272 4.869 45.28 27.678 45.28 54.455v221.195h-206.798v-221.196c0-26.777 19.009-49.586 45.281-54.455z"/><path d="m166.509 288.317h-42.667c-4.143 0-7.5 3.358-7.5 7.5s3.357 7.5 7.5 7.5h42.667c4.143 0 7.5-3.358 7.5-7.5s-3.357-7.5-7.5-7.5z"/><path d="m480.775 392.232c0-.001 0-.001 0 0l-19.498-61.158c-2.681-8.411-10.412-14.062-19.24-14.062h-113.428c-8.827 0-16.56 5.65-19.241 14.061l-19.497 61.159c-15.053 47.221 12.933 80.195 12.933 81.196.51.709 13.475 18.676 14.344 19.882 8.442 11.701 22.097 18.687 36.525 18.687h63.299c14.429 0 28.083-6.986 36.525-18.687.87-1.205 13.834-19.173 14.344-19.882.001-1.001 27.979-34.001 12.934-81.196zm-157.116-56.602c.69-2.164 2.68-3.618 4.95-3.618h113.428c2.271 0 4.26 1.453 4.949 3.617l18.113 56.815h-62.276c-4.143 0-7.5 3.358-7.5 7.5s3.357 7.5 7.5 7.5h66.22c2.999 18.107-.574 37.564-11.249 54.097h-144.943c-10.677-16.536-14.25-35.976-11.249-54.097h66.22c4.143 0 7.5-3.358 7.5-7.5s-3.357-7.5-7.5-7.5h-62.276zm93.313 161.366h-63.299c-9.624 0-18.73-4.659-24.361-12.463l-5.766-7.991h123.553l-5.766 7.991c-5.63 7.804-14.737 12.463-24.361 12.463z"/><path d="m95.751 428.035h98.852c12.827 0 23.264-10.436 23.264-23.264v-52.114c0-4.142-3.357-7.5-7.5-7.5s-7.5 3.358-7.5 7.5v52.114c0 4.557-3.707 8.264-8.264 8.264h-98.852c-4.557 0-8.264-3.707-8.264-8.264v-122c0-16.422 13.359-29.782 29.781-29.782h55.815c16.422 0 29.782 13.36 29.782 29.782v34.886c0 4.142 3.357 7.5 7.5 7.5s7.5-3.358 7.5-7.5v-34.886c0-24.693-20.089-44.782-44.782-44.782h-55.815c-24.692 0-44.781 20.089-44.781 44.782v122c0 12.828 10.436 23.264 23.264 23.264z"/></g></svg>