<svg id="Capa_1" enable-background="new 0 0 511.996 511.996" height="512" viewBox="0 0 511.996 511.996" width="512" xmlns="http://www.w3.org/2000/svg"><g><path d="m206.164 19.912v25c0 8.27 5.069 15.374 12.262 18.379v.246c0 6.8-2.426 13.294-6.829 18.286l-37.701 42.739c-20.939 23.736-32.387 54.494-32.387 86.445v98.593c0 14.958 4.667 30.28 14.464 43.814 7.951 10.986 7.556 23.022-1.178 35.775-11.902 17.38-16.287 39.728-11.542 61.207 9.369 42.416 50.088 61.599 87.342 61.599h50.805c40.899 0 78.419-21.2 87.342-61.599 4.849-21.952.081-44.23-11.543-61.208-4.366-6.376-6.648-12.573-6.845-18.549-.147-4.482.878-8.84 3.077-13.056.733-1.405 1.596-2.795 2.59-4.168 9.795-13.532 14.465-28.855 14.465-43.815v-98.594c0-31.667-11.264-62.5-32.387-86.445l-37.701-42.739c-4.404-4.992-6.829-11.486-6.829-18.286v-.246c7.192-3.005 12.261-10.109 12.261-18.378v-25c0-10.979-8.933-19.912-19.913-19.912h-59.842c-10.979 0-19.911 8.933-19.911 19.912zm45.986 190.246c16.471 9.297 30.294 22.749 40.038 39.024 2.128 3.554 6.733 4.708 10.287 2.583 3.554-2.127 4.71-6.733 2.582-10.288-7.121-11.896-16.157-22.473-26.679-31.319h77.098c.002.283.01.565.01.849v98.151h-32.978c.047-1.392.07-2.782.07-4.167 0-9.77-1.154-19.53-3.43-29.009-.967-4.027-5.02-6.509-9.044-5.542-4.027.967-6.509 5.016-5.542 9.044 2.001 8.333 3.016 16.916 3.016 25.507 0 1.384-.035 2.775-.088 4.167h-150.982v-98.151c0-.283.007-.566.01-.849zm-93.759 114h195.212c-1.882 7.214-5.151 14.132-9.733 20.462-11.414 15.772-11.699 34.569.952 53.045 12.773 18.651 14.686 45.335 2.929 66.16h-183.508c-.008-.011-.199-.369-.206-.381-11.195-20.109-9.926-46.706 3.135-65.779 12.335-18.013 12.673-36.851.951-53.045-4.581-6.33-7.85-13.248-9.732-20.462zm169.471 160.02h-.002c-14.606 8.683-31.121 12.817-46.46 12.817h-50.806c-21.152 0-41.981-8.022-53.955-18.171h158.716c-2.33 1.975-4.827 3.771-7.493 5.354zm-28.646-381.02h-25.72c-4.143 0-7.5 3.358-7.5 7.5s3.357 7.5 7.5 7.5h38.952c16.002 18.14 36.662 37.722 41.973 77h-100.302-96.546c5.288-39.109 25.722-58.579 41.973-77h38.951c4.143 0 7.5-3.358 7.5-7.5s-3.357-7.5-7.5-7.5h-25.719l10.067-11.412c6.543-7.416 10.267-16.933 10.562-26.922h45.181c.296 9.989 4.02 19.505 10.562 26.921zm-8.386-83.246v25c0 2.689-2.173 4.875-4.856 4.906-.083.001-.168.002-.253.006h-59.46c-.087-.003-.164-.004-.24-.006-2.683-.031-4.857-2.217-4.857-4.906v-25c0-2.708 2.203-4.912 4.912-4.912h59.842c2.708 0 4.912 2.204 4.912 4.912z"/></g></svg>