<svg id="Capa_1" enable-background="new 0 0 490.69 490.69" height="512" viewBox="0 0 490.69 490.69" width="512" xmlns="http://www.w3.org/2000/svg"><g><g><path d="m185.135 288.659h15.5v15h-15.5z"/></g><g><path d="m135.026 441.19c0 9.649 7.851 17.5 17.5 17.5h156c9.649 0 17.5-7.851 17.5-17.5v-205.437h-29.825c-3.419-7.726-9.247-14.081-16.794-18.182-9.038-4.909-19.445-6.005-29.304-3.085-9.861 2.918-17.995 9.503-22.903 18.539-2.503 4.608-4.009 9.574-4.502 14.641-4.497-3.086-7.856-4.924-8.101-5.057l-7.167 13.178c8.541 4.662 31.503 20.579 25.203 32.18l-13.962 25.704 13.181 7.16 13.963-25.704c.091-.163 8.675-13.781 40.708 3.622l7.16-13.182c-2.951-1.603-5.77-2.986-8.468-4.184 3.902-3.147 7.182-7.066 9.647-11.604 3.222-5.933 4.79-12.456 4.669-19.027h11.496v190.438c0 1.379-1.121 2.5-2.5 2.5h-156c-1.378 0-2.5-1.121-2.5-2.5v-190.437h41.625v-15h-56.625v205.437zm105.354-201.004c2.997-5.516 7.961-9.535 13.98-11.316 2.209-.653 4.461-.978 6.702-.978 3.865 0 7.693.964 11.185 2.861 5.517 2.996 9.535 7.961 11.316 13.979 1.782 6.02 1.113 12.372-1.884 17.888-2.996 5.516-7.961 9.534-13.979 11.316-3.535 1.046-7.184 1.24-10.713.621l7.009-12.902-13.181-7.16-7 12.886c-2.438-2.622-4.272-5.776-5.318-9.309-1.782-6.018-1.113-12.371 1.883-17.886z"/><path d="m200.193 175.834h15v15h-15z"/><path d="m410.526 235.753h-52.5v-22.581c0-9.542-4.831-18.26-12.923-23.318l-11.204-7.005c-3.678-2.298-5.873-6.261-5.873-10.599v-56.416h-51.219l53.809-109.203-13.455-6.631-57.076 115.834h-28.755c-4.033-48.291-44.723-86.359-94.166-86.359-52.107 0-94.5 42.28-94.5 94.25v7.5h90.362v41.025c0 4.338-2.196 8.301-5.874 10.6l-11.204 7.004c-8.091 5.059-12.922 13.776-12.922 23.318v165.081h15v-165.081c0-4.338 2.196-8.3 5.874-10.6l11.203-7.003c2.14-1.338 4.045-2.938 5.7-4.735h44.39v-15h-37.398c.152-1.178.231-44.609.231-44.609l165-.391v14.938h-127.833v15h127.833s.079 13.885.231 15.062h-82.731v15h89.724c1.655 1.797 3.559 3.397 5.699 4.734l11.203 7.004c3.678 2.3 5.874 6.262 5.874 10.6v22.581 165 62.438c0 6.893-5.607 12.5-12.5 12.5h-200c-6.893 0-12.5-5.607-12.5-12.5v-70h-15v70c0 15.164 12.336 27.5 27.5 27.5h200c15.163 0 27.5-12.336 27.5-27.5v-62.438h52.5c20.678 0 37.5-16.822 37.5-37.5v-90c0-20.678-16.822-37.5-37.5-37.5zm-264.871-134.484-.868-56.432c13.258 1.263 25.564 5.801 36.124 12.767zm-14.964 2.499-37.273-46.164c10.624-7.008 23.017-11.554 36.366-12.784zm85.574 12.066h-63.091l39.43-48.835c13.051 12.678 21.761 29.768 23.661 48.835zm-134.541-48.835 39.745 49.225h-63.452c1.819-19.224 10.567-36.46 23.707-49.225zm351.302 296.254c0 12.406-10.094 22.5-22.5 22.5h-52.5v-135h52.5c12.406 0 22.5 10.094 22.5 22.5z"/><path d="m264.844 358.105-10.533-10.68c-2.391 2.359-4.534 4.654-6.464 6.888-1.879-4.648-4.676-8.925-8.303-12.602-7.222-7.321-16.862-11.393-27.146-11.463-10.278-.025-19.979 3.868-27.3 11.09-7.322 7.222-11.393 16.862-11.463 27.146-.071 10.284 3.868 19.979 11.089 27.3 3.683 3.734 7.998 6.617 12.703 8.561-4.258 3.407-6.994 6.087-7.192 6.283l10.534 10.68c.073-.072 7.422-7.278 16.566-12.521 10.069-5.772 17.318-6.527 21.542-2.245l20.541 20.825 10.68-10.533-20.543-20.827c-.152-.162-10.633-12.332 15.289-37.902zm-69.439 27.146c-4.408-4.469-6.812-10.387-6.769-16.664.043-6.276 2.528-12.161 6.997-16.568 4.43-4.37 10.282-6.771 16.499-6.771.055 0 .11.001.165.001 6.277.043 12.162 2.527 16.569 6.996 4.408 4.469 6.812 10.388 6.769 16.664-.025 3.687-.899 7.236-2.516 10.432l-10.311-10.454-10.679 10.533 10.291 10.433c-3.219 1.564-6.771 2.4-10.445 2.394-6.278-.042-12.162-2.527-16.57-6.996z"/><path d="m169.635 303.659h15.5v15h-15.5z"/></g></g></svg>