<svg id="Capa_1" enable-background="new 0 0 495.812 495.812" height="512" viewBox="0 0 495.812 495.812" width="512" xmlns="http://www.w3.org/2000/svg"><g><g><path d="m221.611 59.938h15v15h-15z"/></g><g><path d="m371.6 29.938h-108.889c-2.853-4.258-6.183-8.181-9.937-11.702l-10.262 10.94c3.761 3.527 6.975 7.572 9.553 12.021l2.167 3.74h65.368v45h-65.367s-2.166 3.739-2.167 3.74c-16.022 27.65-54.395 34.416-78.925 14.032-4.736-3.936-8.771-8.703-11.858-14.032l-2.167-3.74h-65.516v-45h65.516l2.167-3.74c9.363-16.158 26.757-26.197 45.391-26.197 8.773 0 17.451 2.209 25.093 6.388l7.197-13.16c-9.843-5.383-21.008-8.228-32.29-8.228-22.493 0-43.577 11.367-56.035 29.938h-108.914v75h108.914c6.609 9.852 15.647 17.677 26.035 22.852v82.21h23.531v12.802c0 5.671-4.21 8.746-11.651 13.691-8.175 5.433-18.349 12.195-18.349 26.185s10.174 20.751 18.349 26.184c7.441 4.946 11.651 8.02 11.651 13.692s-4.21 8.747-11.651 13.693c-8.175 5.433-18.349 12.195-18.349 26.185s10.174 20.751 18.349 26.185c7.441 4.946 11.651 8.02 11.651 13.692 0 5.674-4.21 8.749-11.651 13.695-8.175 5.434-18.349 12.196-18.349 26.188 0 13.991 10.174 20.753 18.349 26.187 7.441 4.946 11.651 8.021 11.651 13.695v33.74h15v-33.74c0-13.991-10.174-20.753-18.349-26.187-7.441-4.946-11.651-8.021-11.651-13.695s4.21-8.749 11.652-13.695c8.174-5.434 18.348-12.196 18.348-26.187 0-13.99-10.174-20.751-18.349-26.185-7.441-4.946-11.651-8.02-11.651-13.692s4.21-8.747 11.651-13.693c8.175-5.433 18.349-12.195 18.349-26.185s-10.174-20.751-18.349-26.184c-7.441-4.946-11.651-8.02-11.651-13.692s4.21-8.746 11.651-13.692c8.175-5.433 18.349-12.194 18.349-26.184v-12.803h21.469v-82.21c10.388-5.176 19.426-13 26.035-22.852h108.891zm-314.875 15h21.875v45h-21.875zm164.949 88.258v61.804h-30s0-61.802 0-61.804c0 1.022 13.803 1.682 15.152 1.679 4.95-.014 10.018-.577 14.848-1.679zm134.926-43.258h-22v-45h22z"/><path d="m186.236 67.438c0-11.269 9.168-20.438 20.438-20.438v-15c-19.54 0-35.438 15.897-35.438 35.438z"/><path d="m454.088 245.902c0-14.214-11.563-25.777-25.777-25.777h-114.235c-14.214 0-25.777 11.563-25.777 25.777v94.355l27.111 27.416v127.848h111.566v-127.848l27.111-27.416v-94.355zm-140.012-10.777h114.234c5.942 0 10.777 4.834 10.777 10.777v83.773h-33.472v15h23.007l-12.278 12.416h-90.305l-12.278-12.416h50.728v-15h-61.192v-83.773c.002-5.943 4.837-10.777 10.779-10.777zm97.901 245.396h-81.567v-108.43h81.566v108.43z"/><path d="m378.199 329.675h13.709v15h-13.709z"/></g></g></svg>