<svg id="Capa_1" enable-background="new 0 0 495.734 495.734" height="512" viewBox="0 0 495.734 495.734" width="512" xmlns="http://www.w3.org/2000/svg"><g><g><path d="m412.104 157.604h15.5v15h-15.5z"/></g><g><path d="m263.703 104.894c-2.404-14.923-7.455-29.122-15.057-42.293l-12.991 7.498c6.278 10.876 10.575 22.551 12.827 34.8l-81.535.026 49.664-59.187c4.014 3.883 7.774 8.095 11.234 12.633l11.929-9.095c-23.877-31.315-60.129-49.276-99.462-49.276-68.925 0-125 56.075-125 125 0 62.742 46.863 116.044 109.079 123.995l2.52.297 8.531 246.442h332.98l4.852-158.066-14.993-.46-4.406 143.526h-303.943l-12.489-360.799 327.511-.105-5.291 172.378 14.993.46 5.766-187.843zm-130.891-.5-57.266-68.247c16.287-11.904 35.953-19.444 57.266-20.886zm15 0v-89.135c20.99 1.398 40.736 8.639 57.339 20.802zm-83.751-58.599 58.207 69.368.062 1.78-91.783.969c1.806-28.247 14.316-53.628 33.514-72.117zm-33.463 87.118 92.251-.974.073 2.118-58.872 70.161c-19.076-18.41-31.459-43.576-33.452-71.305zm95.624 101.194c-18.886-2.413-36.166-9.591-50.698-20.227l48.175-57.412 2.688 77.659z"/><path d="m458.932 307.408h15.074v15h-15.074z" transform="matrix(.031 -1 1 .031 137.376 771.481)"/><path d="m204.188 164.938v60h-46.1l7.789 225h271.937l6.907-225h-105.533v-60zm177 114v105h-105v-105zm48.064-39-5.986 195h-242.9l-6.75-195h30.572v60h41.5v-15h-26.5v-105h105v84h-63v135h135v-135h-57v-24z"/><path d="m396.604 172.604h15.5v15h-15.5z"/><path d="m315.188 314.875h22.5v-15h-37.5v37.563h15z"/></g></g></svg>