<svg id="Capa_1" enable-background="new 0 0 486.487 486.487" height="512" viewBox="0 0 486.487 486.487" width="512" xmlns="http://www.w3.org/2000/svg"><g><g><path d="m68.44 369.476c-3.363-4.011-6.56-8.236-9.5-12.557l12.401-8.438c2.659 3.908 5.55 7.729 8.592 11.357zm-17.692-26.008c-2.496-4.605-4.782-9.388-6.795-14.212l13.844-5.776c1.819 4.359 3.885 8.68 6.14 12.842zm-12.115-29.043c-1.514-5.01-2.788-10.157-3.784-15.297l14.726-2.855c.9 4.642 2.05 9.289 3.417 13.813z"/></g><g><path d="m485.645 235.573c-1.499-3.985-6.306-10.665-21.677-10.665-.016 0-.034 0-.05 0-8.946.008-19.832 2.254-30.653 6.324-2.233.84-4.412 1.742-6.531 2.693l6.567-12.347c4.12-.283 9.449-2.246 15.857-7.946 6.684-5.946 13.334-14.853 18.724-25.081 10.667-20.238 15.918-45.303 2.242-52.512-13.675-7.208-31.385 11.292-42.051 31.531-5.391 10.228-8.979 20.748-10.106 29.623-1.041 8.197.219 13.595 2.186 17.162l-5.297 9.96c-.194-1.278-.406-2.552-.643-3.815-4.211-22.486-15.662-45.39-30.86-42.545-12.445 2.331-16.295 19.857-14.968 38.478-4.335-14.799-10.466-29.062-18.343-42.42l-2.176-3.69h-78.162l20.403-86.848 70.267-18.396-3.799-14.511-79.005 20.684-23.274 99.072h-109.719l-26.768-70.294 77.584-28.238-2.565-7.047c-7.658-21.039-29.95-34.356-59.633-35.625l-.641 14.986c19.724.843 35.083 7.814 42.726 19.043l-139.516 50.78c-2.369-23.117 20.639-50.033 55.391-62.904l-5.21-14.066c-21.937 8.125-40.532 21.542-52.359 37.776-12.49 17.145-16.124 35.503-10.232 51.692l2.565 7.048 77.793-28.314 24.815 65.163h-100.392l-2.176 3.69c-16.982 28.798-25.959 61.771-25.959 95.354 0 56.891 25.356 110.11 69.566 146.013l9.456-11.645c-40.687-33.04-64.022-82.016-64.022-134.368 0-.703.025-1.405.034-2.108h103.091v-15h-102.271c.735-7.419 1.951-14.766 3.626-22h203.854v-15h-67.708v-14.969h-15v14.969h-30.126v-14.969h-15v14.969h-30.5v-14.969h-15v14.969h-26.338c3.402-10.349 7.782-20.378 13.104-29.938h302.47c5.321 9.559 9.701 19.589 13.104 29.938h-76.84v-14.969h-15v14.969h-22.5v15h118.52c1.874 8.093 3.16 16.331 3.856 24.649-4.944-5.547-10.671-8.534-16.874-7.138-4.158.935-11.448 4.784-13.56 20.047-1.226 8.861-.503 19.954 2.035 31.233 3.81 16.933 11.793 33.954 22.011 39.703l-.76 1.429c-4.05-1.467-8.367-2.236-12.802-2.236-7.688 0-15.022 2.297-21.219 6.568-14.597-10.018-34.764-8.544-47.724 4.416-12.962 12.962-14.432 33.132-4.412 47.73-5.984 8.717-7.867 19.422-5.655 29.392-23.004 10.821-47.668 16.315-73.417 16.315-34.873 0-68.483-10.327-97.197-29.864l-8.438 12.401c31.212 21.237 67.74 32.462 105.635 32.462 27.467 0 54.808-6.088 79.54-17.63 1.171 1.629 2.48 3.189 3.944 4.653 12.961 12.96 33.128 14.433 47.724 4.416 6.197 4.271 13.531 6.568 21.219 6.568 10.017 0 19.434-3.901 26.517-10.984s10.983-16.5 10.983-26.517c0-7.688-2.297-15.022-6.568-21.219 10.017-14.597 8.545-34.764-4.416-47.724-.299-.299-.607-.583-.914-.871l1.289-2.424c3.569 1.745 8.052 2.529 13.061 2.528 9.812 0 21.601-2.973 32.28-7.436 21.108-8.821 41.111-24.812 35.15-39.076-1.643-3.932-6.7-10.441-22.098-9.872-8.939.332-19.738 2.97-30.405 7.428-1.462.611-2.899 1.25-4.311 1.91l12.955-24.358c3.275 1.7 7.902 2.915 14.451 2.915h.049c8.946-.008 19.832-2.254 30.653-6.323 10.822-4.069 20.49-9.554 27.225-15.442 11.603-10.141 10.818-18.347 9.318-22.336zm-129.309 198.211c-4.25 4.25-9.9 6.59-15.91 6.59s-11.66-2.341-15.91-6.59l-5.303-5.304-5.303 5.304c-8.774 8.771-23.047 8.772-31.82 0-8.772-8.773-8.772-23.047 0-31.82l5.303-5.303-5.303-5.303c-8.772-8.773-8.772-23.047 0-31.82 8.773-8.772 23.047-8.772 31.82 0l5.303 5.304 5.303-5.304c4.25-4.25 9.9-6.59 15.91-6.59s11.66 2.34 15.91 6.59c8.773 8.773 8.773 23.047 0 31.82l-5.304 5.303 5.304 5.303c4.25 4.25 6.59 9.9 6.59 15.91s-2.34 11.66-6.59 15.91zm85.006-259.22c8.769-16.636 18.184-24.008 21.639-24.971 1.159 3.395.399 15.329-8.369 31.965-8.769 16.637-18.184 24.009-21.639 24.971-1.158-3.394-.398-15.328 8.369-31.965zm-55.169 18.449c3.017 1.941 9.834 11.765 13.296 30.249 2.792 14.906 1.511 25.344-.196 30.351l-1.368 2.573c-3.07-2.104-9.759-11.899-13.18-30.161-3.462-18.485-.662-30.111 1.448-33.012zm-11.729 52.291c3.932 10.882 9.56 20.134 16.409 24.141l-13.77 25.89c-.344-2.068-.746-4.128-1.204-6.161-.204-.907-.424-1.813-.652-2.719.509-5.646.773-11.389.773-17.087 0-8.074-.532-16.11-1.556-24.064zm-27.833 50.455c-4.128-18.346-1.751-30.065.253-33.041 3.085 1.831 10.253 11.402 14.381 29.749 3.779 16.798 2.105 28.017.257 32.079-.133.246-.258.489-.378.731-.044.074-.089.166-.133.231-3.084-1.831-10.252-11.403-14.38-29.749zm54.48 17.29c17.351-7.251 29.305-6.946 32.583-5.488-1.267 3.356-9.448 12.077-26.799 19.329-17.251 7.209-29.158 6.947-32.517 5.512l1.014-1.907c2.896-4.095 10.996-11.293 25.719-17.446zm42.733-53.736c-17.601 6.619-29.537 5.881-32.76 4.307.016-.038.046-.086.063-.125.17-.292.339-.584.499-.889 2.431-3.793 10.885-11.303 26.918-17.333 17.601-6.619 29.538-5.88 32.76-4.307-1.386 3.307-9.878 11.727-27.48 18.347z"/><path d="m312.82 388.01h15.062v15h-15.062z"/><path d="m118.747 44.532-1.515-14.923c-5.331.541-10.751 1.463-16.11 2.74l3.478 14.592c4.714-1.124 9.475-1.934 14.147-2.409z"/></g></g></svg>