<svg id="Capa_1" enable-background="new 0 0 488.891 488.891" height="512" viewBox="0 0 488.891 488.891" width="512" xmlns="http://www.w3.org/2000/svg"><g><g><path d="m86.548 347.391h15v15h-15z"/><path d="m131.831 327.61c-11.019 19.084-13.945 41.317-8.242 62.603 5.704 21.285 19.355 39.076 38.439 50.094 12.96 7.482 27.123 11.037 41.111 11.037 28.532 0 56.323-14.798 71.586-41.233l3.75-6.495-142.895-82.5zm6.247 58.72c-.131-.487-.24-.976-.36-1.464l50.38-6.577-25.603 44.345c-11.928-9.009-20.487-21.634-24.417-36.304zm37.298 43.993 25.854-44.78 20.837 48.099c-15.068 4.367-31.622 3.535-46.691-3.319zm60.551-2.422-18.216-42.048 39.915 23.045c-5.904 8.028-13.36 14.411-21.699 19.003zm-94.501-86.09 38.769 22.383-44.424 5.8c-.179-9.661 1.723-19.241 5.655-28.183z"/><path d="m220.37 288.812c5.447-2.541 11.556-2.807 17.205-.751 2.693.98 5.133 2.432 7.251 4.313l9.965-11.211c-3.539-3.146-7.605-5.567-12.086-7.198-2.024-.737-4.085-1.283-6.163-1.663-.997-11.144-4.758-33.155-18.94-47.397-8.724-8.76-19.852-13.201-33.074-13.201v15c9.198 0 16.528 2.862 22.41 8.751 10.467 10.479 13.61 27.805 14.556 37.195-2.542.588-5.043 1.439-7.463 2.568-9.078 4.232-15.965 11.748-19.391 21.16-3.426 9.413-2.981 19.596 1.252 28.674 4.233 9.079 11.748 15.965 21.16 19.391 4.22 1.536 8.539 2.264 12.789 2.264 15.322 0 29.739-9.465 35.276-24.677 2.972-8.167 3.011-17.169.109-25.348l-14.137 5.016c1.739 4.902 1.715 10.302-.068 15.202-4.244 11.658-17.182 17.688-28.84 13.447-5.646-2.055-10.155-6.187-12.695-11.634-2.54-5.446-2.807-11.557-.751-17.204s6.189-10.158 11.635-12.697z"/><path d="m402.343 121.953c0-8.33-1.048-16.605-3.113-24.597l-14.523 3.754c1.128 4.363 1.892 8.828 2.296 13.343h-64.798l45.855-45.676c4.666 5.573 8.646 11.798 11.76 18.584l13.633-6.256c-15.943-34.746-50.938-57.197-89.154-57.197-51.539 0-93.917 39.973-97.76 90.545h-46.272l-20.68-114.453-14.762 2.666 20.197 111.787h-58.474v217.969h15v-142.969h195v284.438h-195v-96.531h-15v111.531h225v-269.162c50.69-3.722 90.795-46.152 90.795-97.776zm-79.938 7.5h64.591c-1.554 17.275-8.416 33.041-18.941 45.649zm-10.607-90.19c16.954 1.548 32.836 8.286 45.635 18.926l-45.635 45.458zm-15 64.583-45.65-45.65c12.608-10.528 28.375-17.387 45.65-18.941zm-56.257-35.042 45.649 45.649h-64.602c1.554-17.276 8.424-33.04 18.953-45.649zm-138.993 60.649h46.184l8.13 45h-54.315v-45zm69.558 45-8.13-45h133.572v45zm140.442-34.642 45.9 45.9c-12.673 10.586-28.53 17.476-45.9 18.978z"/></g><g><path d="m139.706 287.498h-15v-15h15zm0-30h-15v-15h15zm0-30h-15v-15h15z"/></g></g></svg>