<svg id="Capa_1" enable-background="new 0 0 499.064 499.064" height="512" viewBox="0 0 499.064 499.064" width="512" xmlns="http://www.w3.org/2000/svg"><g><path d="m293.41 350.213c31.62-19.728 48.334-46.162 48.334-76.444v-177.21l47.686 21.286-51.77-101.646 4.501-10.085-13.698-6.114-4.711 10.555-110.159 28.801 80.814 36.073-1.486 3.307h-107.886c-4.223-5.682-10.087-10.239-17.223-12.836-2.037-.741-4.098-1.283-6.162-1.657-.996-11.143-4.756-33.159-18.94-47.403-8.724-8.76-19.852-13.201-33.074-13.201v15c9.198 0 16.528 2.862 22.41 8.75 10.476 10.488 13.616 27.836 14.559 37.22-11.966 2.766-22.352 11.328-26.856 23.703-3.426 9.413-2.981 19.596 1.252 28.674 4.232 9.078 11.748 15.964 21.16 19.391 1.776.646 3.569 1.141 5.367 1.507v23.347h15v-15.36h164.217v83.06h-37.108v15h37.108v29.837c0 25.093-13.782 46.465-40.964 63.523-17.601 11.045-35.514 16.696-41.144 18.31-12.217-3.507-82.109-26.035-82.109-81.833v-29.837h112.358v-15h-112.359v-22.637h-15v67.474c0 30.282 16.714 56.716 48.334 76.444 16.529 10.312 32.907 16.198 41.274 18.808v63.871l-57.734 30.17c-10.649 5.565-17.266 16.487-17.266 28.502v7.5h157.5l7.5-.003v-7.5c0-12.014-6.613-22.935-17.259-28.5l-8.19-4.282-6.951 13.292 8.191 4.283c3.33 1.741 5.92 4.463 7.494 7.71h-131.568c1.574-3.246 4.166-5.968 7.496-7.708l58.307-30.469 36.56 19.115 6.949-13.293-36.028-18.838v-63.851c8.367-2.609 24.745-8.494 41.274-18.806zm32.192-324.637 31.212 61.284-98.109-43.794zm-135.377 88.389c2.445-6.718 2.84-13.689 1.511-20.229h94.445l-16.686 37.136h-91.714c5.496-4.199 9.908-9.941 12.444-16.907zm-55.631-3.317c-2.54-5.447-2.807-11.557-.751-17.204 3.322-9.127 11.972-14.806 21.165-14.806 2.55 0 5.142.437 7.673 1.358 11.658 4.243 17.691 17.18 13.448 28.838-4.244 11.659-17.18 17.692-28.839 13.448-5.647-2.055-10.156-6.187-12.696-11.634zm151.346 20.224 16.686-37.136h24.118v37.136z"/><path d="m204.244 317.262 9.008-11.995c-3.819-2.868-7.111-5.913-9.785-9.049l-11.416 9.729c3.388 3.977 7.491 7.784 12.193 11.315z"/><path d="m231.829 332.938 5.928-13.779c-4.476-1.925-8.758-4.037-12.727-6.275l-7.369 13.064c4.434 2.501 9.201 4.853 14.168 6.99z"/><path d="m179.527 273.769c0 5.988 1.149 11.855 3.418 17.438l13.896-5.645c-1.535-3.782-2.314-7.75-2.314-11.793z"/><path d="m147.527 176.107h15v15h-15z"/><path d="m274.635 176.264h15v15h-15z"/><path d="m289.635 161.236h15v15h-15z"/></g></svg>