<svg id="Capa_1" enable-background="new 0 0 499.111 499.111" height="512" viewBox="0 0 499.111 499.111" width="512" xmlns="http://www.w3.org/2000/svg"><g><g><path d="m212.845 370.001c-5.011-2.357-9.776-5.275-14.166-8.675l9.184-11.859c3.523 2.728 7.348 5.069 11.367 6.96zm-26.109-20.2c-3.553-4.267-6.639-8.924-9.171-13.84l13.334-6.869c2.032 3.945 4.51 7.684 7.364 11.111zm-15.111-29.362c-1.394-5.351-2.199-10.883-2.393-16.44l14.99-.523c.156 4.46.801 8.896 1.918 13.183z"/></g><g><path d="m194.291 94.111-42.911-94.111-13.648 6.223 40.073 87.889h-56.902l7.365 51.159c5.917 41.098 8.917 82.991 8.917 124.519v229.322h224.875v-52.438h-15v37.438h-194.874v-127.98c18.797 31.723 53.377 53.042 92.849 53.042h9.179c39.471 0 74.051-21.318 92.848-53.042v76.042h15v-162.902c0-41.182 2.951-82.736 8.772-123.509l7.374-51.652zm59.922 300.063h-9.179c-51.197 0-92.849-41.651-92.849-92.849v-27.151h126.87v-15h-126.941c-.362-30.004-2.256-60.143-5.652-90h88.094v-15h-89.93c-.483-3.685-.98-7.367-1.509-11.04l-4.898-34.022h222.696l-4.931 34.532c-.5 3.504-.972 7.016-1.43 10.53h-75.497v15h73.669c-3.378 29.86-5.255 60.002-5.599 90h-53.07v15h53.005v27.151c-.001 51.197-41.652 92.849-92.849 92.849z"/><path d="m249.306 154.174h15v15h-15z"/></g></g></svg>