<svg id="Capa_1" enable-background="new 0 0 495.265 495.265" height="512" viewBox="0 0 495.265 495.265" width="512" xmlns="http://www.w3.org/2000/svg"><g><g><path d="m239.632 74.937v15h90.108v37.135h-101.985l-12.195-69.871c12.002-5.518 19.343-18.587 17.041-32.221-2.753-16.293-18.246-27.31-34.542-24.558-16.294 2.752-27.312 18.248-24.56 34.542 2.339 13.846 13.882 23.875 27.296 24.889l2.633 15.085h-52.904v195.032c0 30.283 16.714 56.717 48.334 76.444 16.529 10.312 32.907 16.198 41.274 18.808v63.851l-36.028 18.837 6.949 13.293 36.56-19.115 58.307 30.469c3.33 1.741 5.922 4.463 7.496 7.708h-131.569c1.573-3.247 4.164-5.97 7.494-7.71l8.19-4.282-6.949-13.293-8.19 4.282c-10.646 5.566-17.26 16.486-17.26 28.503v7.5h165v-7.5c0-12.016-6.616-22.938-17.266-28.502l-57.734-30.17v-63.871c8.368-2.611 24.746-8.496 41.274-18.808 31.62-19.728 48.334-46.162 48.334-76.444v-8.47h-15v8.47c0 25.093-13.782 46.466-40.964 63.524-17.601 11.045-35.514 16.696-41.144 18.31-12.217-3.507-82.109-26.035-82.109-81.833v-127.899h164.217v74.365h15v-141.5zm-51.342-42.473c-1.375-8.138 4.128-15.878 12.267-17.253.841-.142 1.676-.21 2.501-.21 7.167 0 13.52 5.179 14.752 12.477 1.375 8.139-4.128 15.878-12.267 17.253-8.134 1.375-15.879-4.127-17.253-12.267zm-22.766 57.473h40.522l6.482 37.135h-47.004z"/><path d="m329.741 231.312h15v15h-15z"/><path d="m212.408 257.138c-3.426 9.413-2.981 19.596 1.252 28.674s11.749 15.964 21.161 19.39c4.186 1.523 8.522 2.281 12.849 2.281 5.401 0 10.784-1.183 15.825-3.533 9.078-4.233 15.965-11.749 19.391-21.161 3.426-9.413 2.981-19.596-1.252-28.674s-11.749-15.964-21.161-19.39c-2.024-.737-4.085-1.284-6.163-1.663-.997-11.145-4.758-33.155-18.94-47.397-8.724-8.76-19.852-13.201-33.074-13.201v15c9.198 0 16.528 2.862 22.41 8.75 10.467 10.479 13.61 27.805 14.556 37.195-2.542.589-5.043 1.439-7.463 2.568-9.079 4.233-15.965 11.749-19.391 21.161zm35.224-9.686c2.596 0 5.198.455 7.709 1.369 5.648 2.055 10.157 6.187 12.697 11.634s2.807 11.557.751 17.204c-2.056 5.648-6.188 10.157-11.634 12.697-5.447 2.54-11.558 2.807-17.204.751-5.648-2.055-10.157-6.187-12.697-11.634s-2.807-11.557-.751-17.204c2.056-5.648 6.188-10.157 11.634-12.697 3.026-1.411 6.254-2.12 9.495-2.12z"/><path d="m277.632 172.464h15v15h-15z"/></g><g><path d="m292.632 157.437h15v15h-15z"/></g></g></svg>