<svg id="Capa_1" enable-background="new 0 0 449.938 449.938" height="512" viewBox="0 0 449.938 449.938" width="512" xmlns="http://www.w3.org/2000/svg"><g><g><path d="" stroke="rgb(0,0,0)" stroke-miterlimit="10" stroke-width="15"/></g><g><path d="m73.202 278.167h-15v-15h15zm0-30h-15v-15h15zm0-30h-15v-15h15z"/></g><g><path d="m88.035 67.667h15v15h-15z"/><path d="m103.09 240.023c0 33.097 26.926 60.023 60.023 60.023s60.023-26.927 60.023-60.023-26.925-60.023-60.022-60.023-60.024 26.927-60.024 60.023zm105.047 0c0 24.826-20.197 45.023-45.023 45.023s-45.023-20.197-45.023-45.023 20.196-45.023 45.023-45.023 45.023 20.197 45.023 45.023z"/><path d="m420.506 332.982c-5.666-5.667-13.2-8.787-21.213-8.787-6.905 0-13.454 2.316-18.758 6.582v-15.296l39.971-39.971c2.964-2.964 5.232-6.436 6.744-10.316l-13.979-5.441c-.752 1.933-1.887 3.666-3.372 5.151l-44.364 44.364v57.469l23.151-23.149c2.833-2.833 6.6-4.393 10.607-4.393 4.006 0 7.773 1.56 10.606 4.394 2.833 2.832 4.393 6.6 4.393 10.606s-1.56 7.772-4.393 10.605l-44.364 44.364v25.71h-15v-21.042h-15v21.042h-30v-25.71l-11.464-11.464.093-.231h-.324l-32.668-32.668c-2.833-2.833-4.394-6.6-4.394-10.605 0-4.007 1.56-7.773 4.394-10.607 2.833-2.833 6.6-4.393 10.606-4.393 4.007 0 7.773 1.56 10.607 4.394l23.15 23.149v-57.47l-44.364-44.364c-2.833-2.833-4.394-6.6-4.394-10.606s1.561-7.773 4.394-10.606c5.849-5.85 15.366-5.847 21.213-.001l23.15 23.152v-41.905h15v23.561h15v-23.562h30v41.904l23.151-23.15c5.848-5.85 15.364-5.85 21.213 0 1.727 1.727 2.971 3.771 3.697 6.075l14.306-4.51c-1.438-4.562-3.996-8.771-7.396-12.173-10.911-10.909-28.202-11.644-39.971-2.201v-20.945h-90v20.945c-11.769-9.442-29.061-8.708-39.97 2.201-11.697 11.697-11.697 30.73 0 42.428l39.97 39.97v15.296c-5.305-4.266-11.853-6.582-18.757-6.582-8.013 0-15.547 3.12-21.213 8.786-5.667 5.666-8.787 13.2-8.787 21.214 0 8.013 3.121 15.547 8.787 21.213l22.061 22.061h-236.98v-67.531h202.453v-15h-202.453v-149.939h254.902l-.011 27.497 15 .006.047-118.923-25.972-58.58h11.471v-15h-255.937v15h11.576l-26.076 58.573v338.896h17.408l14.875 37.469h220.23l14.848-37.089 2.529 2.529v34.497h90v-34.497l39.971-39.97c5.666-5.666 8.787-13.2 8.787-21.213s-3.121-15.548-8.787-21.213zm-157.303-317.982 23.35 52.667h-168.393v15h172.419l-.027 67.333h-254.907v-67.333h37.391v-15h-33.343l23.447-52.667zm-.197 419.938h-199.894l-8.92-22.469h217.81z"/><path d="m335.535 307.167h15v62h-15z"/></g></g></svg>