<svg id="Capa_1" enable-background="new 0 0 496.317 496.317" height="512" viewBox="0 0 496.317 496.317" width="512" xmlns="http://www.w3.org/2000/svg"><g><g><path d="m202.992 263.661h15v15h-15z"/></g><g><path d="m278.998 142.896c2.077-23.366-14.062-44.922-37.585-49.109-3.406-.607-6.791-.806-10.112-.655l-6.269-35.917c4.724-2.161 8.823-5.525 11.913-9.872 4.639-6.523 6.459-14.464 5.126-22.356-1.333-7.894-5.66-14.795-12.185-19.434-6.524-4.638-14.465-6.461-22.357-5.126-7.893 1.333-14.795 5.66-19.433 12.185-4.639 6.524-6.459 14.464-5.126 22.357s5.661 14.795 12.185 19.433c4.521 3.215 9.72 5.071 15.113 5.467l6.354 36.405c-14.295 5.654-25.437 18.363-28.323 34.577-.724 4.071-.875 8.111-.527 12.046h-97.113v60.983c0 20.678 16.822 37.5 37.5 37.5h36.5v17.438c0 31.706 25.794 57.5 57.5 57.5h18.425v113.324l-58.666 30.673c-10.646 5.565-17.259 16.486-17.259 28.499v7.504h165v-7.5c0-12.017-6.616-22.938-17.266-28.503l-56.809-29.686v-114.312h16.574c31.706 0 57.5-25.794 57.5-57.5v-17.437h38.5c6.265 0 12.469-1.578 17.94-4.563l-7.184-13.168c-3.275 1.787-6.995 2.731-10.757 2.731h-53.5v32.438c0 23.435-19.065 42.5-42.5 42.5h-50c-23.435 0-42.5-19.065-42.5-42.5v-32.438h-51.5c-12.407 0-22.5-10.094-22.5-22.5v-7.431l82.494.06.011-15-82.504-.06v-23.552h86.096c4.684 10.214 13.052 18.58 23.709 23.114-7.453 7.021-12.314 16.271-13.838 26.556-3.7 24.979 13.612 48.313 38.592 52.014 1.666.247 3.33.4 4.989.466l3.377 19.343 14.777-2.58-3.256-18.653c5.014-1.509 9.784-3.886 14.114-7.099 9.824-7.289 16.222-17.968 18.014-30.069 1.243-8.391.164-16.769-3.042-24.393l101.469.063v7.223c0 4.325-1.229 8.523-3.552 12.141l12.619 8.107c3.881-6.04 5.933-13.042 5.933-20.248v-60.983h-126.661zm-81.237-110.426c-.666-3.942.244-7.909 2.56-11.168 2.317-3.258 5.764-5.419 9.707-6.085.843-.143 1.687-.213 2.525-.213 3.081 0 6.08.951 8.642 2.772 3.259 2.317 5.42 5.765 6.085 9.707.666 3.942-.244 7.908-2.56 11.167-2.317 3.258-5.764 5.419-9.707 6.085-3.943.664-7.908-.243-11.167-2.56-3.258-2.315-5.419-5.762-6.085-9.705zm115.181 448.847h-131.569c1.574-3.247 4.164-5.969 7.494-7.71l58.272-30.467 58.306 30.469c3.332 1.74 5.923 4.462 7.497 7.708zm-109.875-347.838c2.653-14.902 15.669-25.404 30.307-25.404 1.784 0 3.594.156 5.411.479 16.719 2.977 27.9 18.999 24.924 35.718s-19 27.896-35.717 24.925c-16.719-2.977-27.9-18.999-24.925-35.718zm74.327 85.311c-1.205 8.138-5.507 15.318-12.113 20.22-6.607 4.902-14.727 6.941-22.864 5.732-16.798-2.488-28.44-18.18-25.952-34.979 1.206-8.137 5.508-15.318 12.114-20.22 5.364-3.979 11.726-6.07 18.286-6.07 1.519 0 3.048.112 4.579.339 8.138 1.205 15.318 5.507 20.22 12.113s6.935 14.727 5.73 22.865zm1.614-37.202c-4.102-4.042-8.893-7.241-14.16-9.469 4.224-3.987 7.712-8.791 10.193-14.222h115.616v23.761z"/><path d="m218.284 127.682h14.875v15h-14.875z" transform="matrix(1 -.003 .003 1 -.381 .638)"/><path d="m233.127 202.654h14.997v15h-14.997z"/></g></g></svg>