<svg id="Capa_1" enable-background="new 0 0 479.938 479.938" height="512" viewBox="0 0 479.938 479.938" width="512" xmlns="http://www.w3.org/2000/svg"><g><g><path d="m171.521 345.061-2.121-14.849 14.85-2.121 2.121 14.849zm-4.243-29.699-2.121-14.849 14.85-2.121 2.121 14.849zm-4.243-29.698-2.121-14.849 14.85-2.121 2.121 14.849z"/></g><g><path d="m352.469 150.062h22.5v-15h-24.009c-3.075-11.88-11.923-38.38-33.441-59.694l-10.556 10.657c16.808 16.648 24.93 37.475 28.395 49.037h-190.821c1.875-6.351 5.145-15.494 10.494-25.171 12.675-22.933 30.614-38.154 53.328-45.256h63.215c8.946 2.812 17.267 6.967 24.749 12.361l8.772-12.167c-7.611-5.487-15.96-9.863-24.865-13.08v-34.249c0-9.649-7.851-17.5-17.5-17.5h-42.636c-9.649 0-17.5 7.851-17.5 17.5v33.232c-25.745 8.431-46.782 26.494-60.953 52.38-7.123 13.012-10.885 24.987-12.676 31.951h-23.996v15h22.5v112.908l30.995 216.967h210.475l-9.673-53.766-14.763 2.656 6.496 36.109h-42.061l12.301-68.375h17.458l2.918 16.216 14.763-2.656-3.689-20.505 17.681-53.117h-28.406l10.504-73.529v-112.909zm-134.875-132.562c0-1.378 1.122-2.5 2.5-2.5h42.636c1.378 0 2.5 1.122 2.5 2.5v32.135h-17.699v-17.318h-15v17.317h-14.937zm131.973 334-10.007 30.062h-19.184l-10.006-30.062h29.452zm-59.999-15 17.681 53.117-13.551 75.321h-122.224l-29.005-203.033v-51.842h112.5v-15h-112.5v-45h195v45h-38v15h38v51.842l-10.657 74.595z"/><path d="m177.841 105.92 11.804 9.256c7.011-8.941 15.556-15.339 25.397-19.015l-5.249-14.052c-12.464 4.656-23.214 12.667-31.952 23.811z"/><path d="m269.969 195.062h15v15h-15z"/></g></g></svg>