<svg id="Capa_1" enable-background="new 0 0 501.568 501.568" height="512" viewBox="0 0 501.568 501.568" width="512" xmlns="http://www.w3.org/2000/svg"><g><g><path d="m257.116 277.222c-5.051-2.193-9.894-4.925-14.395-8.121l8.684-12.23c3.655 2.595 7.586 4.812 11.685 6.592zm-26.804-19.01c-3.74-4.029-7.083-8.46-9.936-13.167l12.828-7.775c2.327 3.84 5.053 7.453 8.102 10.737zm-17.009-28.073c-1.846-5.202-3.156-10.602-3.895-16.05l14.864-2.014c.6 4.427 1.665 8.816 3.166 13.046z"/></g><g><path d="m289.096 276.401h-.002"/></g><g><path d="m207.648 344.35c13.441 27.42 41.809 45.137 72.271 45.137v-15c-25.162 0-47.693-14.077-58.802-36.738z"/><path d="m84.167 110.214h15.001v14.929h-15.001z" transform="matrix(.398 -.917 .917 .398 -52.782 154.9)"/><path d="m486.578 319.508c-.568 15.795-13.406 28.168-29.225 28.168-16.125 0-29.244-13.119-29.244-29.244s13.119-29.244 29.244-29.244c11.781 0 22.359 7.012 26.949 17.864l13.815-5.844c-6.943-16.414-22.944-27.021-40.765-27.021-9.259 0-17.858 2.864-24.971 7.745l-46.965-20.387c2.557-4.257 4.858-8.705 6.868-13.337l2.986-6.88-168-72.928.012-.028-112.029-48.631-5.973 13.76 98.304 42.674-.012.028 167.706 72.8c-10.848 20.582-28.499 36.439-50.368 45.069-24.209 9.553-50.69 9.107-74.565-1.257-34.331-14.902-57.334-48.717-58.604-86.146l-.161-4.738-171.85-74.599 11.946-27.519 35.961 15.61 5.973-13.76-49.719-21.581-23.891 55.038 177.016 76.841c1.474 19.258 7.876 37.824 18.648 53.971 9.886 14.818 23.089 26.968 38.575 35.617h-231.696v89.938h43.658l5.943-29.938h128.328c9.023 17.07 22.288 31.545 38.596 42.061 18.136 11.695 39.178 17.877 60.85 17.877 25.384 0 49.34-8.255 69.28-23.873l-9.249-11.809c-17.274 13.53-38.033 20.682-60.031 20.682-37.412 0-71.973-21.847-88.047-55.658l-2.035-4.279h-150.007l-5.943 29.938h-16.343v-59.938h359.528c-1.701 22.322-10.969 43.266-26.528 59.629l10.871 10.336c12.26-12.895 21.129-28.256 26.151-44.902h32.122c7.8 12.628 21.764 21.064 37.666 21.064 23.933 0 43.355-18.725 44.215-42.629zm-95.594 7.103c.904-5.765 1.372-11.632 1.372-17.562v-7.5h-48.267c12.603-7.023 23.621-16.322 32.577-27.45l44.286 19.224c-4.94 7.139-7.843 15.789-7.843 25.109 0 2.795.272 5.527.771 8.18h-22.896z"/><path d="m449.853 310.932h15v15h-15z"/></g></g></svg>