<svg id="Capa_1" enable-background="new 0 0 449.172 449.172" height="512" viewBox="0 0 449.172 449.172" width="512" xmlns="http://www.w3.org/2000/svg"><g><g><path d="m163.539 300.75-14.834-2.23 2.23-14.833 14.834 2.23zm4.462-29.666-14.834-2.23 2.23-14.833 14.834 2.23zm4.462-29.666-14.834-2.23 2.23-14.833 14.834 2.23z"/></g><g><path d="m334.383 186.572h14.999v15.185h-14.999z" transform="matrix(.989 -.149 .149 .989 -25.1 53.071)"/><path d="m368.107 317.942-15.405-102.293-14.832 2.233 15.405 102.293c5.574 37.014-18.355 72.521-54.572 81.257h-69.17v15h62.5v17.739h-135v-17.739h57.625v-15h-64.191c-36.2-8.734-60.135-44.255-54.572-81.243l30.125-200.319h31.096v59.363h-22.831l-21.579 143.485c-4.288 28.514 14.3 55.895 42.316 62.336l.829.191 137.399.016.825-.188c28.069-6.413 46.688-33.808 42.388-62.366l-21.606-143.474h-49.506l22.558-59.363h35.2l7.983 53.011 14.832-2.233-9.905-65.778h-42.41l30.556-80.41-14.021-5.328-32.581 85.738h-65.447v-24.901c0-13.768 11.201-24.969 24.969-24.969h7.5v-55h-7.5c-19.545 0-37.913 6.937-52.469 19.676-14.556-12.739-32.924-19.676-52.469-19.676h-7.5v55h7.5c13.768 0 24.969 11.201 24.969 24.969v24.902h-44.008l-32.047 213.089c-3.324 22.105 1.831 44.38 14.516 62.722 11.329 16.381 27.667 28.297 46.456 34.009v34.481h165v-34.448c18.817-5.694 35.183-17.607 46.534-34.002 12.709-18.355 17.873-40.651 14.54-62.78zm-46.475 6.999c3.098 20.575-10.085 40.318-30.109 45.321l-133.931-.016c-19.982-5.025-33.142-24.756-30.052-45.297l19.657-130.715h9.919 55 89.831zm-72.327-145.707h-37.189v-42.5h-15v42.5h-25v-59.363h99.747zm-109.658-138.528v-25.281c12.677 1.448 24.483 6.576 34.268 14.855-3.862 4.669-8.718 12.104-12.219 22.802-5.712-6.273-13.389-10.726-22.049-12.376zm32.469 43.028c0-22.955 7.398-36.364 12.449-42.848l.051.053 5.433-5.709c10.664-11.206 24.493-18.087 39.536-19.806v25.281c-18.467 3.52-32.469 19.787-32.469 39.263v24.902h-25z"/><path d="m290.687 352.67c9.767-4.129 15.71-14.726 14.133-25.196l-2.178-14.46-14.832 2.233 2.178 14.461c.499 3.313-1.182 6.779-4.005 8.553l-12.443-.011-.014 15 15.757.014z"/></g></g></svg>