<svg id="Capa_1" enable-background="new 0 0 435.29 435.29" height="512" viewBox="0 0 435.29 435.29" width="512" xmlns="http://www.w3.org/2000/svg"><g><g><path d="m141.708 144.415h15v15h-15z"/><path d="m412.163 152.058c-11.043-16.166-27.102-28.562-45.587-35.038-5.389-1.888-10.946-3.272-16.586-4.155 2.83-12.548 3.022-25.647.548-38.27-2.232-11.389-6.645-22.321-12.944-32.069-3.589-5.555-7.776-10.72-12.453-15.397l-10.607 10.606c14.321 14.321 22.568 33.886 22.734 54.145.055 6.686-.756 13.373-2.414 19.85-8.413.059-16.726 1.265-24.748 3.581 3.841-7.08 7.218-15.014 7.163-23.206-.043-6.342-1.14-12.671-3.249-18.653-4.041-11.464-11.768-21.494-21.783-28.375-10.402-7.146-23.034-10.676-35.634-9.995-12.558.678-24.693 5.567-34.241 13.747-9.499 8.136-16.221 19.316-18.862 31.548-.332 1.535-.599 3.085-.803 4.642l-20.127-.002c.954-9.872 3.829-19.533 8.428-28.32 4.487-8.573 10.586-16.284 17.882-22.638 7.299-6.357 15.779-11.339 24.898-14.59 9.787-3.489 20.257-4.95 30.626-4.333 12.417.739 24.576 4.508 35.229 10.933 1.33.802 2.636 1.644 3.916 2.524l8.498-12.36c-12.976-8.921-28.159-14.426-43.844-15.852-13.099-1.191-26.422.409-38.844 4.74-11.402 3.974-21.984 10.213-31.009 18.231-9.017 8.011-16.455 17.772-21.763 28.605-5.063 10.333-8.14 21.596-9.071 33.059l-148.619-.013 152.442 172.897v112.02l-86.394 65.37h187.975l-86.581-65.375v-111.845l99.787-113.177 19.445 28.467c3.101-2.118 6.15-4.399 9.43-6.237 5.568-3.119 11.828-4.946 18.199-5.319 12.639-.74 25.259 4.3 33.838 13.626 3.083 3.351 5.505 7.273 8.066 11.023l41.288-28.202zm-181.828-90.231c8.326-7.977 19.711-12.277 31.231-11.79 11.429.483 22.343 5.706 29.944 14.246 3.752 4.216 6.658 9.172 8.485 14.513.695 2.032 1.234 4.118 1.612 6.233l-83.706-.008c1.597-8.778 5.937-16.969 12.434-23.194zm-100.706 358.463 49.215-37.239 49.318 37.239zm136.921-275.875h-94.905v15h81.68l-74.41 84.395-74.41-84.395h22.266v-15h-35.492l-39.155-44.409 248.594.023c-1.285 3.62-3.159 7.086-5.054 10.333-.665 1.138-29.114 34.053-29.114 34.053zm112.078 21.466c-12.814-14.338-32.522-21.363-51.524-18.504-6.026.907-11.897 2.783-17.332 5.539l-11.346-16.611c12.659-6.979 27.138-10.227 41.567-9.418l.039-.026c16.696.967 32.929 7.3 45.718 18.099 3.438 2.903 6.62 6.11 9.5 9.567z"/><path d="m171.839 191.043h15v15h-15z"/></g><g><path d="m186.839 176.016h15v15h-15z"/></g></g></svg>