<svg id="Capa_1" enable-background="new 0 0 512 512" height="512" viewBox="0 0 512 512" width="512" xmlns="http://www.w3.org/2000/svg"><g><path d="m284.286 119.87 6.848-30.063c22.862-2.114 40.823-21.402 40.823-44.807 0-24.813-20.187-45-45-45s-45 20.187-45 45c0 15.605 7.985 29.38 20.083 37.455l-8.522 37.415h-253.518v108.479c0 48.259 39.262 87.521 87.521 87.521h19.729c6.34 37.632 36.118 67.409 73.75 73.75v92.38h-90v30h210v-30h-90v-92.381c37.632-6.34 67.41-36.118 73.75-73.75h19.728c48.26 0 87.522-39.262 87.522-87.521v-108.478zm2.671-89.87c8.271 0 15 6.729 15 15s-6.729 15-15 15-15-6.729-15-15 6.729-15 15-15zm75.043 119.87v30.146c-15.851 1.34-25.906 4.709-35.014 7.761-10.895 3.651-20.304 6.804-40.482 6.804-7.643 0-13.741-.452-18.96-1.213l9.908-43.499h84.548zm-115.316 0-8.084 35.492c-10.156-3.126-22.627-5.943-42.594-5.943-25.072 0-38.325 4.44-50.017 8.358-10.896 3.651-20.306 6.804-40.486 6.804s-29.59-3.153-40.486-6.804c-9.109-3.052-19.164-6.421-35.017-7.761v-30.146zm57.794 136h-48.478v15c0 33.084-26.916 60-60 60s-60-26.916-60-60v-15h-48.479c-31.717 0-57.521-25.805-57.521-57.522v-18.213c10.702 1.135 17.716 3.485 25.485 6.088 11.692 3.918 24.945 8.358 50.017 8.358s38.325-4.44 50.017-8.358c10.896-3.651 20.306-6.804 40.486-6.804 17.321 0 26.707 2.323 35.909 5.291l-6.602 28.983 29.251 6.663 6.305-27.68c7.024 1.156 15.331 1.906 25.635 1.906 25.07 0 38.322-4.441 50.014-8.358 7.768-2.604 14.782-4.954 25.482-6.088v18.213c.001 31.716-25.803 57.521-57.521 57.521z"/></g></svg>