<svg id="Capa_1" enable-background="new 0 0 512 512" height="512" viewBox="0 0 512 512" width="512" xmlns="http://www.w3.org/2000/svg"><g><path d="m430.261 249.087c0-38.3-12.658-75.55-35.806-105.826l27.221-82.335h-70.389l6.808-30.926h49.749v-30h-73.863l-13.412 60.926h-230.761l27.377 82.808c-22.915 30.186-35.446 67.271-35.446 105.353 0 91.035 70.168 165.99 159.261 173.621v59.292h-90v30h210v-30h-90v-59.292c89.093-7.631 159.261-82.585 159.261-173.621zm-50.101-158.161-19.388 58.642 5.427 6.416c8.553 10.113 15.609 21.301 21.038 33.206-7.966 1.891-14.048 4.509-19.722 6.95-8.979 3.864-16.734 7.202-33.217 7.202-5.584 0-10.166-.383-14.134-1.04l24.518-111.375h35.478zm-66.196 0-22.316 101.374c-8.645-3.163-19.372-5.804-35.644-5.804-22.665 0-34.572 5.124-45.078 9.645-8.98 3.864-16.736 7.202-33.22 7.202s-24.24-3.337-33.22-7.202c-5.674-2.441-11.757-5.059-19.722-6.95 5.358-11.75 12.3-22.802 20.7-32.806l5.381-6.409-19.522-59.049h182.641zm-202.225 158.161c0-10.575 1.167-21.057 3.434-31.261 6.892 1.325 11.943 3.499 17.456 5.871 10.506 4.521 22.413 9.645 45.078 9.645s34.572-5.124 45.078-9.645c8.98-3.864 16.736-7.202 33.22-7.202 13.942 0 21.639 2.387 29.115 5.462l-9.854 44.763 29.299 6.45 9.142-41.529c5.776 1.046 12.498 1.7 20.593 1.7 22.664 0 34.57-5.124 45.075-9.645 5.512-2.372 10.563-4.545 17.455-5.87 2.266 10.202 3.432 20.683 3.432 31.261 0 79.546-64.715 144.261-144.261 144.261s-144.262-64.715-144.262-144.261z"/><path d="m151.003 262.435h30v30h-30z"/><path d="m202.003 309.435h30v30h-30z"/></g></svg>