<svg id="Capa_1" enable-background="new 0 0 512 512" height="512" viewBox="0 0 512 512" width="512" xmlns="http://www.w3.org/2000/svg"><g><path d="m310.954 241h-39.954v-28.88c23.034-6.544 39.953-27.77 39.953-52.873v-57.812h-109.907v57.812c0 25.103 16.92 46.329 39.954 52.873v28.88h-39.954v30h109.907v-30zm-79.908-81.753v-27.812h49.907v27.812c0 13.759-11.194 24.954-24.953 24.954s-24.954-11.195-24.954-24.954z"/><path d="m380.464 306.85c7.645-12.235 14.37-24.33 20.129-36.22 17.104-35.311 25.776-69.043 25.776-100.26.001-93.942-76.427-170.37-170.369-170.37s-170.37 76.428-170.37 170.37c0 31.217 8.673 64.95 25.777 100.26 5.76 11.89 12.483 23.985 20.129 36.22-51.151 21.161-81.098 54.448-81.098 91.237 0 63.876 90.294 113.913 205.562 113.913s205.562-50.037 205.562-113.913c0-36.788-29.947-70.076-81.098-91.237zm-124.464-276.85c77.4 0 140.37 62.97 140.37 140.37 0 100.521-107.22 206.793-140.375 237.246-33.174-30.435-140.365-136.587-140.365-237.246 0-77.4 62.97-140.37 140.37-140.37zm127.837 424.716c-33.896 17.594-79.296 27.284-127.837 27.284s-93.94-9.69-127.838-27.284c-30.33-15.743-47.725-36.383-47.725-56.629 0-24.951 25.852-49.621 68.209-65.756 5.633 7.85 11.623 15.738 17.962 23.649 39.316 49.067 78.112 81.832 79.744 83.203l9.646 8.101 9.646-8.101c1.633-1.371 40.428-34.136 79.744-83.203 6.339-7.911 12.329-15.8 17.962-23.649 42.358 16.135 68.209 40.805 68.209 65.756.003 20.246-17.392 40.886-47.722 56.629z"/></g></svg>