<svg id="Capa_1" enable-background="new 0 0 512 512" height="512" viewBox="0 0 512 512" width="512" xmlns="http://www.w3.org/2000/svg"><g><path d="m271 384.348h33.482l175.22-291.304h-125.25l18.033-63.044h55.993v-30h-78.614l-26.615 93.043h-290.951l175.22 291.304h33.482v97.653h-90v30h210v-30h-90zm155.647-261.305-25.541 42.462c-.472.22-.942.439-1.408.656-11.8 5.507-21.991 10.263-43.672 10.263-10.35 0-18.081-1.084-24.62-2.816l14.464-50.565zm-111.98 0-11.188 39.111c-11.32-4.799-25.27-9.07-47.486-9.07-28.335 0-43.222 6.948-56.357 13.078-11.8 5.507-21.991 10.263-43.67 10.263s-31.869-4.756-43.669-10.263c-.464-.217-.931-.435-1.402-.653l-25.543-42.465h229.315zm-180.086 81.843c6.202.964 13.238 1.539 21.385 1.539 28.335 0 43.222-6.948 56.357-13.078 11.8-5.507 21.991-10.263 43.67-10.263 18.884 0 29.052 3.608 39.159 8.178l-13.496 47.181 28.844 8.251 12.652-44.232c8.712 2.353 19.235 3.963 32.873 3.963 8.151 0 15.19-.575 21.394-1.54l-89.902 149.463h-63.036z"/></g></svg>