<svg id="Capa_1" enable-background="new 0 0 512 512" height="512" viewBox="0 0 512 512" width="512" xmlns="http://www.w3.org/2000/svg"><g><path d="m332.44 164.217v-110.294c0-13.191 10.732-23.923 23.924-23.923v-30c-29.734 0-53.924 24.189-53.924 53.923v110.294h-302.44v159.043c0 76.162 58.097 139.009 132.304 146.546v42.194h247.391v-42.193c74.207-7.537 132.305-70.384 132.305-146.546v-159.044zm149.56 30v33.43c-23.027 1.389-36.691 5.924-49.977 10.334-14.309 4.75-27.825 9.236-55.526 9.236-20.372 0-33.071-2.427-44.057-5.6v-47.4zm-179.56 0v38.146c-11.668-2.952-25.837-5.146-46.446-5.146-32.549 0-49.033 5.472-64.974 10.764-14.309 4.75-27.823 9.236-55.522 9.236-27.7 0-41.215-4.486-55.523-9.236-13.286-4.41-26.949-8.945-49.975-10.334v-33.43zm62.255 246.348h-15v41.435h-187.391v-41.435h-15c-64.681 0-117.304-52.623-117.304-117.304v-65.541c18.122 1.298 29.069 4.932 40.523 8.734 15.941 5.292 32.425 10.764 64.975 10.764 32.549 0 49.033-5.472 64.974-10.764 14.309-4.75 27.823-9.236 55.523-9.236 21.864 0 34.891 2.795 46.446 6.308v66.145h-122.892v30.847c0 42.152 34.293 76.445 76.446 76.445s76.445-34.293 76.445-76.445v-87.862c11.214 2.653 24.834 4.561 44.057 4.561 32.55 0 49.035-5.472 64.977-10.764 11.455-3.803 22.402-7.436 40.526-8.734v65.542c0 64.681-52.623 117.304-117.305 117.304zm-62.255-80.894v.847c0 25.61-20.835 46.445-46.445 46.445-25.61 0-46.445-20.835-46.445-46.445v-.847z"/><path d="m68.5 304.282h30v30h-30z"/><path d="m406.587 312.043h30v30h-30z"/><path d="m110.761 368.317h30v30h-30z"/></g></svg>