<svg id="Capa_1" enable-background="new 0 0 512 512" height="512" viewBox="0 0 512 512" width="512" xmlns="http://www.w3.org/2000/svg"><g><path d="m256 421.174c-34.213 0-66.379-13.323-90.571-37.516l-21.213 21.213c29.858 29.859 69.558 46.303 111.784 46.303s81.926-16.444 111.784-46.303l-21.213-21.213c-24.192 24.193-56.358 37.516-90.571 37.516z"/><path d="m256 90.826c34.213 0 66.379 13.323 90.571 37.516l21.213-21.213c-29.858-29.859-69.557-46.303-111.784-46.303s-81.926 16.444-111.784 46.303l21.213 21.213c24.192-24.193 56.358-37.516 90.571-37.516z"/><path d="m427.551 82.913c-19.291-24.278-43.795-44.461-71.279-58.646-30.759-15.875-65.433-24.267-100.272-24.267s-69.512 8.392-100.272 24.267c-27.484 14.185-51.988 34.368-71.278 58.646h-84.45v346.174h84.45c19.29 24.278 43.794 44.461 71.278 58.646 30.76 15.875 65.433 24.267 100.272 24.267s69.513-8.392 100.272-24.267c27.484-14.185 51.988-34.368 71.279-58.646h84.449v-346.174zm54.449 316.174h-69.421l-4.497 6.09c-35.519 48.104-92.372 76.823-152.082 76.823s-116.563-28.719-152.082-76.823l-4.497-6.09h-69.421v-286.174h69.421l4.497-6.09c35.519-48.104 92.372-76.823 152.082-76.823s116.563 28.719 152.083 76.823l4.497 6.09h69.42z"/><path d="m59.979 338.957h30v30h-30z"/><path d="m59.979 142.826h30v30h-30z"/><path d="m421.979 338.957h30v30h-30z"/><path d="m421.979 241h30v30h-30z"/><path d="m59.979 241h30v30h-30z"/><path d="m421.979 142.826h30v30h-30z"/><path d="m321 196v-35h-130v190h130v-35c33.084 0 60-26.916 60-60s-26.916-60-60-60zm-30-5v29.608h-70v-29.608zm-70 130v-70.392h70v70.392zm100-35v-60c16.542 0 30 13.458 30 30s-13.458 30-30 30z"/></g></svg>