<svg id="Capa_1" enable-background="new 0 0 512 512" height="512" viewBox="0 0 512 512" width="512" xmlns="http://www.w3.org/2000/svg"><g><path d="m361.943 359.986c26.51-31.039 38.052-71.963 31.667-112.279l-39.234-247.707h-196.752l-39.234 247.707c-6.385 40.316 5.157 81.241 31.667 112.279 23.237 27.206 55.774 44.242 90.943 48.034v73.98h-90v30h210v-30h-90v-73.98c35.169-3.792 67.706-20.828 90.943-48.034zm-33.19-329.986 24.075 151.999c-6.393 2.743-12.978 4.674-24.607 4.674-14.729 0-21.367-3.098-29.771-7.019-9.877-4.609-21.071-9.833-42.455-9.833-21.383 0-32.577 5.224-42.454 9.833-8.403 3.922-15.04 7.019-29.768 7.019-11.627 0-18.211-1.93-24.602-4.673l24.074-152zm-155.884 310.502c-20.802-24.355-29.858-56.468-24.848-88.103l6.352-40.108c7.41 2.5 16.571 4.381 29.4 4.381 21.384 0 32.578-5.224 42.455-9.833 8.402-3.921 15.039-7.019 29.767-7.019 14.729 0 21.366 3.097 29.77 7.019 9.877 4.609 21.071 9.833 42.456 9.833 12.831 0 21.994-1.881 29.405-4.382l6.353 40.109c5.011 31.635-4.046 63.747-24.848 88.103s-51.101 38.324-83.131 38.324-62.329-13.968-83.131-38.324z"/><path d="m196.5 253.087h30v30h-30z"/><path d="m281.24 285.435h30v30h-30z"/></g></svg>