<svg id="Capa_1" enable-background="new 0 0 512 512" height="512" viewBox="0 0 512 512" width="512" xmlns="http://www.w3.org/2000/svg"><g><path d="m512 255.683v-75.708h-180.75v-30.48c34.331-6.975 60.25-37.409 60.25-73.785v-75.71h-271v75.709c0 36.377 25.919 66.81 60.25 73.785v30.48h-180.75v75.708c0 36.377 25.919 66.81 60.25 73.785v30.48h-60.25v30h32.501c6.973 34.361 37.415 60.305 73.804 60.305h134.695v31.748h-90v30h210v-30h-90v-31.747h134.696c36.388 0 66.83-25.943 73.803-60.305h32.501v-30h-60.25v-30.48c34.331-6.975 60.25-37.408 60.25-73.785zm-106.304 164.57h-299.391c-19.727 0-36.549-12.672-42.753-30.304h384.896c-6.204 17.632-23.025 30.304-42.752 30.304zm-14.196-210.278h90.5v45.708c0 24.972-20.299 45.288-45.25 45.288s-45.25-20.316-45.25-45.288zm-30 45.708c0 24.972-20.299 45.288-45.25 45.288s-45.25-20.316-45.25-45.288v-45.708h90.5zm-150.75 104.265v-30.48c18.397-3.738 34.378-14.212 45.25-28.727 10.872 14.515 26.853 24.989 45.25 28.727v30.48zm60.25-329.948h90.5v45.709c0 24.972-20.299 45.288-45.25 45.288s-45.25-20.316-45.25-45.288zm-120.5 45.709v-45.709h90.5v45.709c0 24.972-20.299 45.288-45.25 45.288s-45.25-20.316-45.25-45.288zm60.25 73.785c18.397-3.738 34.378-14.212 45.25-28.727 10.872 14.515 26.853 24.989 45.25 28.727v30.48h-90.5zm-60.25 60.481h90.5v45.708c0 24.972-20.299 45.288-45.25 45.288s-45.25-20.316-45.25-45.288zm-120.5 45.708v-45.708h90.5v45.708c0 24.972-20.299 45.288-45.25 45.288s-45.25-20.316-45.25-45.288zm60.25 73.786c18.397-3.738 34.378-14.212 45.25-28.727 10.872 14.515 26.853 24.989 45.25 28.727v30.48h-90.5zm241 30.479v-30.48c18.397-3.738 34.378-14.212 45.25-28.727 10.872 14.515 26.853 24.989 45.25 28.727v30.48z"/></g></svg>