<svg id="Capa_1" enable-background="new 0 0 512 512" height="512" viewBox="0 0 512 512" width="512" xmlns="http://www.w3.org/2000/svg"><g><path d="m332.522 129.997v-29.997h20c27.57 0 50-22.43 50-50s-22.43-50-50-50-50 22.43-50 50v20h-147v30h147v29.997h-209.594v306.967c0 41.375 33.66 75.036 75.035 75.036h176.072c41.375 0 75.036-33.661 75.036-75.036v-306.967zm0-79.997c0-11.028 8.972-20 20-20s20 8.972 20 20-8.972 20-20 20h-20zm56.55 109.997v65.523c-10.361 4.815-19.884 8.835-39.098 8.835-6.907 0-12.561-.52-17.452-1.408v-72.95zm-86.55 0v61.695c-10.997-4.81-24.445-9.265-46.527-9.265-26.822 0-40.906 6.572-53.332 12.371-10.988 5.128-20.478 9.557-40.644 9.557-19.211 0-28.732-4.019-39.091-8.833v-65.525zm41.514 322.003h-176.073c-24.832 0-45.035-20.203-45.035-45.036v-178.883c9.694 3.518 21.721 6.274 39.091 6.274 26.821 0 40.905-6.572 53.33-12.371 10.989-5.128 20.479-9.557 40.646-9.557s29.657 4.429 40.646 9.557c1.908.89 3.855 1.799 5.881 2.699v41.274h30v-32.66c5.172.67 10.936 1.058 17.452 1.058 17.373 0 29.402-2.757 39.098-6.276v178.885c0 24.833-20.203 45.036-45.036 45.036z"/><path d="m205.669 300.909c-33.474 33.474-33.474 87.939 0 121.413 16.736 16.736 38.722 25.104 60.706 25.104 21.985 0 43.971-8.368 60.707-25.104l10.606-10.607-121.412-121.413zm88.148 109.36c-21.288 11.995-48.831 8.942-66.935-9.16-18.104-18.104-21.158-45.646-9.16-66.934z"/></g></svg>