<svg id="Capa_1" enable-background="new 0 0 512 512" height="512" viewBox="0 0 512 512" width="512" xmlns="http://www.w3.org/2000/svg"><g><path d="m301 167.671v-167.671h-90v167.671c-36.966 7.042-65 39.604-65 78.59v265.739h220v-265.739c0-38.986-28.034-71.548-65-78.59zm-30-47.671h-30v-30h30zm0-90v30h-30v-30zm-45 166.261h15v-46.261h30v46.261h15c24.86 0 45.54 18.238 49.365 42.037-5.02 2.11-10.091 3.491-19.074 3.491-11.747 0-16.804-2.36-23.805-5.627-8.06-3.761-18.089-8.441-36.491-8.441-18.401 0-28.431 4.681-36.49 8.441-7 3.267-12.058 5.627-23.803 5.627-8.98 0-14.051-1.38-19.07-3.49 3.827-23.799 24.507-42.038 49.368-42.038zm-50 135.348h160v90h-28.889c-6.494-22.087-26.95-38.261-51.111-38.261s-44.617 16.173-51.111 38.261h-28.889zm160 150.391h-160v-30.391h56.739v-15c0-12.826 10.435-23.261 23.261-23.261s23.261 10.435 23.261 23.261v15h56.739zm-160-180.391v-31.996c5.346 1.299 11.741 2.176 19.704 2.176 18.401 0 28.43-4.681 36.489-8.441 7-3.267 12.058-5.627 23.803-5.627 11.746 0 16.804 2.36 23.804 5.627 8.06 3.761 18.089 8.441 36.491 8.441 7.965 0 14.361-.877 19.708-2.177v31.996h-159.999z"/></g></svg>