<svg id="Capa_1" enable-background="new 0 0 512 512" height="512" viewBox="0 0 512 512" width="512" xmlns="http://www.w3.org/2000/svg"><g><path d="m252.144 308.115h30v30.015h-30z"/><path d="m285.144 387.546h30v30.015h-30z"/><path d="m386.711 44.77c-14.735 0-28.075 6.089-37.639 15.884-9.564-9.795-22.904-15.884-37.639-15.884h-57.361v62.385c0 8.104 1.839 15.786 5.121 22.651h-90.717l-12.502-129.806-29.861 2.879 12.225 126.925h-70.41v307.121c0 41.396 33.661 75.074 75.036 75.074h176.072c41.375 0 75.037-33.678 75.037-75.074v-277.171c27.804-1.381 50-24.446 50-52.6v-62.384zm-102.639 62.384v-32.37h27.361c12.483 0 22.639 10.161 22.639 22.651v32.369h-27.36c-12.484.001-22.64-10.16-22.64-22.65zm80 52.666v65.556c-10.361 4.818-19.884 8.84-39.099 8.84-20.167 0-29.658-4.431-40.646-9.562-12.426-5.802-26.51-12.377-53.333-12.377-26.822 0-40.905 6.576-53.331 12.378-.016.008-.033.015-.049.023l-6.247-64.858zm-222.844 0 7.113 73.853c-3.384.351-7.122.543-11.322.543-19.211 0-28.733-4.022-39.091-8.838v-65.558zm177.808 322.165h-176.072c-24.833 0-45.036-20.213-45.036-45.059v-178.972c9.694 3.519 21.722 6.277 39.091 6.277 5.182 0 9.889-.246 14.2-.684l13.372 138.836 29.861-2.879-13.803-143.312c3.447-1.42 6.625-2.903 9.7-4.339 10.989-5.131 20.479-9.561 40.645-9.561 20.167 0 29.658 4.431 40.646 9.561 12.426 5.802 26.51 12.378 53.333 12.378 17.373 0 29.402-2.759 39.099-6.279v178.974c0 24.846-20.203 45.059-45.036 45.059zm95.036-374.831c0 12.49-10.156 22.651-22.64 22.651h-27.361v-32.369c0-12.49 10.156-22.651 22.64-22.651h27.361z"/></g></svg>