<svg id="Capa_1" enable-background="new 0 0 512 512" height="512" viewBox="0 0 512 512" width="512" xmlns="http://www.w3.org/2000/svg"><g><path d="m271 384.338h32.386l170.253-221.321h-85.515c-1.084-3.464-2.218-6.838-3.334-10.158-5.376-15.99-10.936-32.526-10.708-59.163l.197-23.031-21.143 9.13c-.476.205-8.032 3.497-17.128 9.094-29.49-50.315-69.127-80.657-70.959-82.043l-9.049-6.846-9.05 6.847c-1.832 1.386-41.469 31.727-70.958 82.043-9.096-5.597-16.652-8.889-17.128-9.094l-21.143-9.131.197 23.031c.228 26.637-5.332 43.172-10.708 59.163-1.116 3.32-2.25 6.694-3.334 10.158h-85.515l170.253 221.321h32.386v97.66h-90v30.002h210v-30.002h-90zm-115.354-221.917c4.146-12.332 8.682-25.822 10.9-43.816 1.645 1.186 3.271 2.444 4.827 3.766l14.581 12.388 8.55-17.116c19.108-38.254 47.211-66.41 61.495-79.212 14.291 12.808 42.39 40.961 61.496 79.212l8.55 17.117 14.581-12.389c1.557-1.322 3.183-2.58 4.827-3.766 2.219 17.995 6.754 31.485 10.9 43.817.067.199.134.398.2.596h-201.107c.067-.199.134-.398.2-.597zm257.063 30.598-31.641 41.132c-.924.426-1.832.849-2.726 1.266-9.891 4.616-18.433 8.603-36.554 8.603-18.12 0-26.662-3.987-36.554-8.603-11.467-5.351-24.463-11.417-49.239-11.417-24.775 0-37.771 6.065-49.238 11.417-9.89 4.616-18.432 8.602-36.551 8.602s-26.66-3.987-36.551-8.602c-.893-.417-1.798-.839-2.721-1.264l-31.643-41.134zm-251.317 80.729c2.765.178 5.696.275 8.814.275 24.775 0 37.771-6.065 49.238-11.417 9.89-4.616 18.432-8.602 36.551-8.602 18.12 0 26.662 3.987 36.554 8.602 11.467 5.352 24.463 11.417 49.239 11.417 3.12 0 6.053-.096 8.82-.275l-61.994 80.588h-65.229z"/></g></svg>