<svg id="Capa_1" enable-background="new 0 0 512 512" height="512" viewBox="0 0 512 512" width="512" xmlns="http://www.w3.org/2000/svg"><g><path d="m415.484 146.945v-61.945h-70.927l5.657-55h55.27v-30h-82.342l-8.743 85h-76.845c3.283-6.862 5.126-14.539 5.126-22.64v-62.36h-57.36c-14.739 0-28.075 6.097-37.64 15.891-9.565-9.794-22.901-15.891-37.64-15.891h-57.361v62.36c0 29.025 23.614 52.64 52.64 52.64h27.36v31.945c-25.2 6.65-43.837 29.632-43.837 56.892v308.163h370.479v-308.163c0-27.26-18.637-50.243-43.837-56.892zm-74.013-31.945h44.013v30h-47.099zm-178.792-62.361c0-12.483 10.156-22.639 22.64-22.639h27.36v32.36c0 12.483-10.156 22.64-22.639 22.64h-27.361zm0 62.361h148.634l-3.086 30h-145.548zm-57.36-30c-12.483 0-22.64-10.156-22.64-22.64v-32.36h27.361c12.483 0 22.639 10.156 22.639 22.639v32.361zm13.523 118.837c0-15.901 12.936-28.837 28.837-28.837h157.462l-5.159 50.156c-7.011-1.462-15.372-2.429-25.906-2.429-24.165 0-36.894 5.085-48.124 9.571-9.981 3.987-18.601 7.43-36.995 7.43s-27.013-3.443-36.993-7.43c-8.642-3.452-18.178-7.257-33.123-8.828v-19.633zm310.479 278.163h-310.479v-228.311c9.039 1.296 15.203 3.756 21.994 6.469 11.229 4.486 23.958 9.571 48.122 9.571 24.165 0 36.894-5.085 48.124-9.571 9.981-3.987 18.6-7.43 36.995-7.43 9.829 0 16.866.984 22.813 2.507l-11.132 108.23 29.843 3.069 10.393-101.046c8.397 2.421 18.756 4.24 33.206 4.24 24.166 0 36.895-5.085 48.126-9.571 6.792-2.713 12.956-5.173 21.997-6.469v228.312zm0-258.529c-14.946 1.571-24.483 5.376-33.125 8.828-9.981 3.987-18.602 7.431-36.997 7.431-14.089 0-22.443-2.021-30.067-4.758l6.168-59.972h65.184c15.901 0 28.837 12.936 28.837 28.837z"/><path d="m171.942 327.669c-28.326 28.327-28.326 74.418 0 102.746 14.164 14.164 32.768 21.246 51.373 21.246s37.209-7.082 51.373-21.246l10.607-10.606-102.746-102.747zm69.001 90.214c-15.714 7.111-34.889 4.217-47.788-8.682s-15.792-32.073-8.682-47.788z"/><path d="m347.515 409h30v30h-30z"/><path d="m362.515 316.114h30v30h-30z"/></g></svg>