<svg id="Capa_1" enable-background="new 0 0 512 512" height="512" viewBox="0 0 512 512" width="512" xmlns="http://www.w3.org/2000/svg"><g><path d="m368.901 259.53v-48.116c35.815-7.017 62.923-38.668 62.923-76.535v-134.879h-155.845v134.879c0 37.868 27.108 69.518 62.922 76.535v48.116h-166v-48.116c35.814-7.017 62.922-38.668 62.922-76.535v-134.879h-155.844v134.879c0 37.868 27.108 69.518 62.922 76.535v48.116h-142.901v15.012c0 39.285 30.312 71.618 68.757 74.803-15.58 16.744-25.123 39.185-25.123 63.814v7.23l114.804 91.611 9.478-9.486c20.635-20.651 55.061-33.939 87.764-33.939.179 0 .361 0 .54.001l59.259.597 119.439-119.569h2.082c41.355 0 75-33.672 75-75.061v-15.013zm-62.922-229.506h95.845v40.929c-3.605-1.059-6.654-2.483-10.043-4.066-8.369-3.909-18.785-8.774-37.884-8.774-19.098 0-29.514 4.865-37.883 8.774-3.386 1.582-6.434 3.005-10.036 4.064v-40.927zm0 104.855v-33.189c10.064-1.683 16.89-4.871 22.722-7.594 7.126-3.328 12.754-5.957 25.196-5.957s18.071 2.629 25.198 5.957c5.833 2.724 12.66 5.913 22.728 7.595v33.188c0 26.446-21.498 47.961-47.923 47.961-26.423 0-47.921-21.515-47.921-47.961zm-196-104.855h95.845v40.929c-3.604-1.059-6.654-2.483-10.041-4.065-8.37-3.909-18.786-8.774-37.885-8.774-19.098 0-29.514 4.865-37.883 8.774-3.386 1.582-6.434 3.005-10.036 4.064zm0 104.855v-33.189c10.064-1.683 16.89-4.871 22.722-7.594 7.126-3.328 12.754-5.957 25.196-5.957 12.443 0 18.072 2.629 25.198 5.957 5.833 2.724 12.661 5.913 22.728 7.595v33.188c0 26.446-21.498 47.961-47.922 47.961s-47.922-21.515-47.922-47.961zm193.195 304.145-46.737-.471c-35.666-.17-73.318 12.813-99.637 33.741l-82.792-66.066c3.316-30.515 28.26-54.631 59.124-56.624h90.206c9.875 1.159 17.563 9.581 17.562 19.762v9.37l-78.405.004.001 30.024 97.562-.004h23.046l59.216-59.157h50.176zm-36.352-89.42h33.034l-28.956 28.926v-9.163c0-7.016-1.455-13.699-4.078-19.763zm170.178-30.025h-362c-19.556 0-36.239-12.549-42.43-30.024h446.86c-6.191 17.475-22.873 30.024-42.43 30.024z"/></g></svg>