<svg id="Capa_1" enable-background="new 0 0 512 512" height="512" viewBox="0 0 512 512" width="512" xmlns="http://www.w3.org/2000/svg"><g><path d="m152.609 197.839v30h36.334l4.394-4.394c34.48-34.48 90.586-34.48 125.066 0l4.394 4.393h36.595v-30h-24.409c-44.867-40.322-113.359-40.321-158.225 0h-24.149z"/><path d="m318.403 348.511c-34.482 34.482-90.586 34.479-125.066 0l-4.394-4.394h-36.334v30h24.148c22.436 20.164 50.768 30.242 79.112 30.24 28.337-.003 56.682-10.082 79.112-30.24h24.409v-30h-36.595z"/><path d="m310.87 285.979c0-30.327-24.673-55-55-55s-55 24.673-55 55 24.673 55 55 55 55-24.673 55-55zm-80 0c0-13.785 11.215-25 25-25s25 11.215 25 25-11.215 25-25 25-25-11.215-25-25z"/><path d="m420.5 59.957h-114.094l6.595-29.957h59.749v-30h-83.862l-13.2 59.957h-184.188v30h40.113l-38.787 38.787v314.47l38.787 38.786h-40.113v30h329v-30h-40.374l38.787-38.787v-314.47l-38.787-38.787h40.374zm-31.587 81.213v289.617l-51.213 51.213h-163.661l-51.213-51.213v-289.617l51.213-51.213h163.661z"/></g></svg>