<svg id="Capa_1" enable-background="new 0 0 512 512" height="512" viewBox="0 0 512 512" width="512" xmlns="http://www.w3.org/2000/svg"><g><path d="m358.604 429.383 36.068-303.34h-93.672v-126.043h-90v126.043h-93.672l36.068 303.34c-17.308 14.292-27.396 35.454-27.396 58.291v24.326h260v-24.326c0-22.836-10.088-43.999-27.396-58.291zm-23.362-57.6h-158.484l-5.945-50h68.176v-15c0-9.38 7.631-17.011 17.011-17.011s17.011 7.631 17.011 17.011v15h68.176zm-34.684-80c-6.275-18.588-23.879-32.011-44.558-32.011s-38.282 13.423-44.558 32.011h-44.196l-7.041-59.214c6.371 1.64 14.033 2.745 23.848 2.745 21.313 0 32.47-5.207 42.314-9.8 8.364-3.903 14.97-6.986 29.628-6.986 14.659 0 21.265 3.083 29.629 6.986 9.844 4.594 21.002 9.8 42.315 9.8 9.819 0 17.482-1.105 23.854-2.746l-7.041 59.215zm-29.558-261.783v30h-30v-30zm-30 126.043v-66.043h30v66.043h89.894l-5.127 43.123c-7.566 3.497-14.235 6.147-27.826 6.147-14.658 0-21.265-3.083-29.629-6.986-9.844-4.594-21.002-9.801-42.316-9.801-21.313 0-32.471 5.207-42.314 9.801-8.364 3.903-14.97 6.986-29.627 6.986-13.587 0-20.256-2.65-27.82-6.146l-5.128-43.125h89.893zm-84.652 325.957c1.667-13.516 9.249-25.573 20.988-32.984l8.005-5.054-5.015-42.179h151.35l-5.015 42.179 8.005 5.054c11.738 7.411 19.321 19.468 20.988 32.984z"/></g></svg>