<svg id="Capa_1" enable-background="new 0 0 512 512" height="512" viewBox="0 0 512 512" width="512" xmlns="http://www.w3.org/2000/svg"><g><path d="m216.109 201.854h30v30h-30z"/><path d="m195.282 266.376h30v30h-30z"/><path d="m336.495 59.565 3.041-29.565h55.27v-30h-82.342l-6.127 59.565h-205.337v144.087c0 23.625 11.302 45.773 30 59.719v34.542c0 63.85 48.12 116.671 110 124.105v59.982h-90v30h210v-30h-90v-59.982c61.88-7.433 110-60.255 110-124.105v-34.542c18.696-13.945 30-36.096 30-59.719v-144.087zm44.505 30v45.801c-9.116 4.154-18.129 7.473-35.129 7.473-7.134 0-12.861-.584-17.78-1.57l5.318-51.704zm-77.749 0-4.166 40.5c-10.274-4.343-22.944-8.197-43.091-8.197-25.796 0-39.335 6.318-51.28 11.893-10.438 4.871-19.453 9.078-38.593 9.078-16.996 0-26.008-3.317-35.122-7.471v-45.803zm55.31 152.708-7.561 4.318v51.322c0 52.383-42.617 95-95 95s-95-42.617-95-95v-51.322l-7.561-4.318c-13.841-7.906-22.439-22.705-22.439-38.621v-35.985c8.889 2.961 19.86 5.172 35.122 5.172 25.796 0 39.335-6.318 51.28-11.893 10.438-4.871 19.453-9.078 38.593-9.078 19.142 0 28.157 4.207 38.595 9.078.418.195.837.391 1.259.587l-16.431 159.743 29.843 3.069 15.75-153.132c5.979 1.013 12.825 1.626 20.86 1.626 15.265 0 26.238-2.213 35.129-5.174v35.987c0 15.916-8.598 30.715-22.439 38.621z"/></g></svg>