<svg id="Capa_1" enable-background="new 0 0 512 512" height="512" viewBox="0 0 512 512" width="512" xmlns="http://www.w3.org/2000/svg"><g><path d="m412.057 333.305 11.397-109.479h27.546v-30h-85v-7.565c0-38.986-28.034-71.548-65-78.589v-107.672h-90v107.671c-36.966 7.042-65 39.604-65 78.589v7.565h-85v30h27.546l11.397 109.479h-53.943v15c0 41.085 27.239 75.928 64.605 87.419l7.941 76.277h274.908l7.941-76.276c37.366-11.492 64.605-46.334 64.605-87.419v-15zm-287.103-49.479h262.092l-13.108 125.913h-235.876zm146.046-253.826v30h-30v-30zm-95 156.261c0-27.57 22.43-50 50-50h15v-46.261h30v46.261h15c27.57 0 50 22.43 50 50v7.565h-160zm217.292 37.565-3.123 30h-268.338l-3.123-30zm-315.44 139.479h25.215l3.996 38.387c-14.34-8.19-25.081-21.989-29.211-38.387zm67.733 118.695-4.4-42.261h229.629l-4.4 42.261zm259.353-80.308 3.996-38.387h25.215c-4.131 16.398-14.872 30.197-29.211 38.387z"/></g></svg>