<svg id="Capa_1" enable-background="new 0 0 512 512" height="512" viewBox="0 0 512 512" width="512" xmlns="http://www.w3.org/2000/svg"><g><path d="m512 59.899v-30h-35v-29.899h-30v29.899h-107.334v-29.899h-30v29.899h-107.333v-29.899h-30v29.899h-107.333v-29.899h-30v29.899h-35v30h35v28.356c-20.264 6.386-35 25.355-35 47.702v49h100v-49c0-22.346-14.736-41.315-35-47.701v-28.357h107.333v28.356c-20.264 6.386-35 25.355-35 47.701v49h100v-49c0-22.346-14.736-41.315-35-47.701v-28.356h107.333v28.356c-20.264 6.386-35 25.355-35 47.701v49h100v-49c0-22.346-14.736-41.315-35-47.701v-28.356h107.334v28.356c-20.264 6.386-35 25.355-35 47.701v49h100v-49c0-22.346-14.736-41.315-35-47.701v-28.356zm-442 95.058h-40v-19c0-11.028 8.972-20 20-20s20 8.972 20 20zm137.333 0h-40v-19c0-11.028 8.972-20 20-20s20 8.972 20 20zm137.333 0h-40v-19c0-11.028 8.972-20 20-20s20 8.972 20 20zm137.334 0h-40v-19c0-11.028 8.972-20 20-20s20 8.972 20 20z"/><path d="m306 290.043v-44.043h-30v44.043h-40v-44.043h-30v44.043h-206v30h31v191.957h30v-30h59.5v30h30v-30h30v30h30v-30h91v30h30v-30h30v30h30v-30h59.5v30h30v-191.957h31v-30zm-155.5 161.957v-56.217h30v56.217zm181 0v-56.217h30v56.217zm119.5 0h-59.5v-56.217h20.869v-30h-131.739v30h20.87v56.217h-91v-56.217h20.869v-30h-131.739v30h20.87v56.217h-59.5v-131.957h390z"/></g></svg>