<svg id="Capa_1" enable-background="new 0 0 512 512" height="512" viewBox="0 0 512 512" width="512" xmlns="http://www.w3.org/2000/svg"><g><path d="m490.791 262.274-14.139 14.139-28.956-28.955-7.07-35.347-140.745-140.74-35.348-7.069-28.956-28.955 14.139-14.139-21.209-21.208-105.861 105.856 21.209 21.208 16.522-16.521 28.524 28.523 4.687 37.729 21.317 21.317-42.418 42.415 38.884 38.882-53.607 53.604 39.891 39.889c5.703 5.704 5.703 14.983.054 20.632l-.085.085c-5.703 5.703-14.983 5.703-20.687 0l-63.736-63.733c-17.397-17.398-45.706-17.396-63.104 0l-.338.338c-8.428 8.427-13.07 19.632-13.07 31.551 0 11.918 4.642 23.123 13.069 31.55l63.736 63.734c5.703 5.703 5.703 14.983 0 20.685-5.704 5.702-14.983 5.702-20.687 0l-39.891-39.889-52.916 52.917 21.209 21.208 31.709-31.708 18.682 18.68c8.699 8.699 20.126 13.048 31.553 13.048s22.853-4.349 31.552-13.048c17.398-17.397 17.398-45.704 0-63.101l-63.735-63.734c-2.763-2.763-4.284-6.436-4.284-10.342 0-3.907 1.522-7.58 4.284-10.343l.338-.338c5.703-5.704 14.983-5.702 20.687 0l63.736 63.733c17.397 17.396 45.705 17.397 63.05.055l.085-.085c17.398-17.397 17.398-45.705 0-63.102l-18.682-18.681 32.398-32.396 38.883 38.881 42.418-42.416 21.318 21.317 37.73 4.687 28.524 28.523-16.522 16.521 21.209 21.208 105.858-105.857zm-219.328 34.809-56.557-56.556 21.209-21.207 56.557 56.555zm151.198 33.318-35.81-35.808-37.73-4.687-127.038-127.033-4.687-37.729-35.81-35.809 32.782-32.78 35.378 35.377 35.348 7.069 127.902 127.897 7.07 35.347 35.377 35.376z"/><path d="m300.099 139.181h29.993v105.107h-29.993z" transform="matrix(.707 -.707 .707 .707 -43.285 278.972)"/></g></svg>