<svg id="Capa_1" enable-background="new 0 0 512 512" height="512" viewBox="0 0 512 512" width="512" xmlns="http://www.w3.org/2000/svg"><g><path d="m67 0v512h378v-512zm348 482h-318v-452h318z"/><path d="m227 182.174h-35v-25.559c20.264-6.386 35-25.355 35-47.701v-49h-100v49c0 22.346 14.736 41.315 35 47.701v25.559h-35v30h100zm-70-92.261h40v19c0 11.028-8.972 20-20 20s-20-8.972-20-20z"/><path d="m126.239 242h199.521v30h-199.521z"/><path d="m355.761 242h30v30h-30z"/><path d="m126.239 362h199.521v30h-199.521z"/><path d="m355.761 362h30v30h-30z"/><path d="m126.239 302h169.521v30h-169.521z"/><path d="m355.761 302h30v30h-30z"/><path d="m126.239 422h169.521v30h-169.521z"/><path d="m355.761 422h30v30h-30z"/></g></svg>