<svg id="Capa_1" enable-background="new 0 0 512 512" height="512" viewBox="0 0 512 512" width="512" xmlns="http://www.w3.org/2000/svg"><g><path d="m387.064 209.092c-53.89-40.877-86.064-105.662-86.064-173.302v-35.79h-90v35.79c0 67.64-32.174 132.426-86.064 173.302l-5.936 4.502v298.406h274v-298.406zm-146.064-179.092h30v5.79c0 8.08.404 16.163 1.203 24.21h-32.406c.799-8.047 1.203-16.13 1.203-24.21zm-25.831 115.882c8.802-17.725 15.442-36.546 19.785-55.882h42.092c4.343 19.336 10.984 38.157 19.786 55.882 6.119 12.322 13.292 24.131 21.39 35.274-2.084.275-4.445.425-7.228.425-10.422 0-14.924-2.102-21.155-5.009-7.47-3.486-16.765-7.824-33.842-7.824-17.076 0-26.372 4.338-33.841 7.824-6.23 2.907-10.732 5.009-21.153 5.009-2.781 0-5.141-.15-7.225-.425 8.098-11.143 15.271-22.952 21.391-35.274zm-42.316 60.425c6.616 2.747 15.116 5.274 28.149 5.274 17.076 0 26.372-4.338 33.841-7.824 6.23-2.908 10.732-5.009 21.153-5.009s14.923 2.102 21.154 5.009c7.47 3.486 16.766 7.824 33.843 7.824 13.035 0 21.536-2.527 28.152-5.274 7.462 7.86 15.434 15.232 23.854 22.039v25.654h-213.999v-25.654c8.42-6.808 16.391-14.179 23.853-22.039zm190.147 77.693v138h-214v-138zm-214 198v-30h214v30z"/><path d="m217.177 370.958 21.212 21.213 17.611-17.611 17.611 17.611 21.213-21.213-17.611-17.61 17.611-17.611-21.213-21.213-17.611 17.611-17.611-17.611-21.212 21.213 17.61 17.611z"/></g></svg>