<svg id="Capa_1" enable-background="new 0 0 512 512" height="512" viewBox="0 0 512 512" width="512" xmlns="http://www.w3.org/2000/svg"><g><path d="m388.479 45v-45h-30v45h-30v-45h-30v45h-85.392v-45h-30v45h-30v-45h-30v45h-59.869v467h385.564v-467zm-265.392 30v45h30v-45h30v45h30v-45h85.392v45h30v-45h30v45h30v-45h30.304v75.13h-325.565v-75.13zm-29.869 407v-301.87h325.564v301.87z"/><path d="m201.046 303.853c0 25.103 16.92 46.33 39.954 52.873v28.879h-39.954v30h109.908v-30h-39.954v-28.879c23.034-6.544 39.954-27.77 39.954-52.873v-57.811h-109.908zm30-27.812h49.908v27.812c0 13.76-11.194 24.954-24.954 24.954s-24.954-11.194-24.954-24.954z"/></g></svg>