<svg id="Capa_1" enable-background="new 0 0 512 512" height="512" viewBox="0 0 512 512" width="512" xmlns="http://www.w3.org/2000/svg"><g><path d="m486.609 333.454c0-45.386-33.184-83.167-76.562-90.346v-128.642h-52.339l28.168-106.815-29.008-7.651-30.186 114.466h-63.055c2.496-44.452-25.325-86.468-69.209-100.459l-39.7-12.658-12.655 39.706c-2.084 6.539-3.463 13.196-4.162 19.872-10.602-5.496-22.633-8.603-35.376-8.603-42.532 0-77.134 34.607-77.134 77.145 0 37.406 26.757 68.68 62.134 75.681v233.886c0 40.232 32.728 72.964 72.955 72.964h176.612c40.227 0 72.955-32.732 72.955-72.964v-15.236c43.377-7.18 76.562-44.96 76.562-90.346zm-106.562-128.841h-262.521v-60.143h262.521zm-209.401-154.446 3.544-11.118 11.117 3.543c31.222 9.955 50.81 40.202 48.251 71.873h-51.218c-2.857-3.622-5.323-7.486-7.381-11.529-1.003-2.731-2.157-5.39-3.45-7.967-5.129-14.203-5.6-29.941-.863-44.802zm-115.255 79.301c0-25.993 21.145-47.14 47.134-47.14 17.926 0 33.547 10.061 41.514 24.834.952 2.472 2.004 4.909 3.154 7.304h-59.667v59.696c-18.659-6.28-32.135-23.942-32.135-44.694zm281.702 352.528h-176.613c-23.685 0-42.955-19.272-42.955-42.96v-204.418h262.521v204.418c.001 23.688-19.268 42.96-42.953 42.96zm72.954-88.821v-119.443c26.72 6.715 46.562 30.945 46.562 59.722s-19.842 53.006-46.562 59.721z"/></g></svg>