<svg id="Capa_1" enable-background="new 0 0 512 512" height="512" viewBox="0 0 512 512" width="512" xmlns="http://www.w3.org/2000/svg"><g><path d="m405.361 482-64.608-244.957h-26.557v-31.717h26.804v-30h-26.804v-31.718h25.225l44.608-113.608h27.579v-30h-311.217v30h27.579l44.609 113.608h25.225v31.718h-26.804v30h26.804v31.717h-26.557l-64.608 244.957h-26.248v30h351.218v-30zm-245.16-452h191.599l-32.829 83.608h-125.942zm67.603 113.608h56.392v31.718h-56.392zm0 61.718h56.392v31.717h-56.392zm-33.443 61.717h123.278l56.696 214.957h-236.67z"/><path d="m205.565 421.869h100.869v30h-100.869z"/></g></svg>