<svg id="Capa_1" enable-background="new 0 0 512 512" height="512" viewBox="0 0 512 512" width="512" xmlns="http://www.w3.org/2000/svg"><g><path d="m418.74 208.15v-104.905c28.472-6.782 49.706-32.434 49.706-62.951v-40.294h-425.142v123.349c0 42.896 30.882 78.715 71.581 86.392-31.414 37.847-48.624 85.415-48.624 134.825 0 63.94 28.504 123.745 78.205 164.081l4.132 3.354h237.762l4.131-3.353c49.7-40.336 78.205-100.142 78.205-164.082 0-50.106-17.698-98.316-49.956-136.416zm19.706-178.15v10.294c0 19.137-15.57 34.706-34.706 34.706h-15v48.461c-9.145 4.227-17.792 7.698-34.783 7.698-18.293 0-26.915-4.023-36.898-8.682-11.548-5.39-24.636-11.497-49.585-11.497-24.947 0-38.035 6.107-49.583 11.497-9.982 4.658-18.604 8.682-36.896 8.682-16.987 0-25.635-3.47-34.777-7.697v-93.462zm-365.142 93.349v-93.349h42.913v149.292c-24.685-6.625-42.913-29.195-42.913-55.943zm302.296 358.651h-216.243c-40.167-34.528-63.096-84.32-63.096-137.435 0-44.656 16.384-87.557 46.134-120.8l3.823-4.271v-63.611c8.738 2.999 19.548 5.276 34.777 5.276 24.947 0 38.035-6.107 49.583-11.497 9.982-4.658 18.604-8.682 36.896-8.682 18.294 0 26.916 4.023 36.899 8.683 11.548 5.389 24.636 11.496 49.584 11.496 15.233 0 26.044-2.277 34.783-5.277v63.613l3.822 4.271c29.75 33.242 46.134 76.143 46.134 120.8 0 53.115-22.929 102.907-63.096 137.434z"/><path d="m158.571 326.532c-28.328 28.327-28.328 74.419 0 102.746 14.163 14.164 32.768 21.245 51.373 21.245 18.604 0 37.209-7.081 51.372-21.245l10.606-10.606-102.745-102.746zm69 90.215c-15.711 7.11-34.887 4.218-47.787-8.682-12.898-12.899-15.792-32.074-8.682-47.788z"/><path d="m381.038 272.593c-28.325-28.327-74.418-28.329-102.745 0l-10.606 10.606 102.745 102.745 10.606-10.606c28.327-28.327 28.327-74.418 0-102.745zm-12.531 69-56.469-56.469c15.714-7.108 34.887-4.216 47.787 8.682 12.899 12.899 15.792 32.073 8.682 47.787z"/><path d="m176.369 244.392h30v30h-30z"/><path d="m309.413 191.236h30v30h-30z"/><path d="m320.369 412.218h30v30h-30z"/></g></svg>