<svg id="Capa_1" enable-background="new 0 0 512 512" height="512" viewBox="0 0 512 512" width="512" xmlns="http://www.w3.org/2000/svg"><g><path d="m429.813 154.486-4.503-5.593h-41.697v-103.309l43.075-17.741-11.424-27.742-61.651 25.392v41.967c-9.901-6.254-21.622-9.877-34.174-9.877h-33.429v50.829c0 15.334 5.406 29.43 14.411 40.481h-95.911l-21.835-58.629 62.255-23.188-5.235-14.057c-15.673-42.08-62.654-63.567-104.733-47.891-20.384 7.592-36.591 22.668-45.636 42.451-9.046 19.783-9.846 41.905-2.254 62.289l5.235 14.057 62.255-23.188 17.936 48.157h-80.334l-4.503 5.593c-31.28 38.854-48.508 87.781-48.508 137.77 0 23.578 3.687 46.659 10.973 68.778-4.809 4.394-8.819 9.757-11.687 15.907-5.967 12.797-6.29 27.266-1.162 40.122-5.128 12.856-4.805 27.326 1.162 40.121 7.813 16.758 24.09 27.662 41.951 29.083 8.838 15.585 25.599 25.732 44.086 25.732 16.459 0 31.55-8.043 40.899-20.806 29.055 13.648 61.027 20.806 93.362 20.806 58.655 0 113.799-22.859 155.273-64.365 41.471-41.504 64.311-96.685 64.311-155.379 0-49.988-17.227-98.916-48.508-137.77zm-313.204-94.432c5.713-12.495 15.949-22.017 28.823-26.812 5.847-2.178 11.919-3.262 17.977-3.262 7.281 0 14.543 1.566 21.362 4.686 7.804 3.568 14.447 8.9 19.504 15.538l-92.254 34.362c-.518-8.33 1.019-16.708 4.588-24.512zm199.401 27.531h3.429c18.844 0 34.174 15.332 34.174 34.177v20.826h-3.429c-18.844 0-34.174-15.331-34.174-34.176zm-209.32 91.309h304.095c10.178 13.623 18.363 28.299 24.461 43.76-15.47 2.273-25.709 6.957-35.048 11.229-11.614 5.314-21.646 9.903-42.995 9.903s-31.381-4.589-42.995-9.903c-12.933-5.916-27.59-12.622-55.476-12.622-27.885 0-42.542 6.705-55.474 12.622-11.614 5.314-21.645 9.903-42.992 9.903s-31.378-4.589-42.992-9.903c-9.338-4.272-19.576-8.956-35.044-11.229 6.096-15.461 14.281-30.137 24.46-43.76zm37.662 288.029c-2.472 8.875-10.646 15.075-19.876 15.075s-17.404-6.2-19.876-15.075l-3.616-12.983-13.294 2.21c-9.094 1.515-18.16-3.277-22.061-11.644-2.943-6.312-2.515-13.629 1.148-19.572l4.85-7.87-4.851-7.871c-3.662-5.943-4.091-13.26-1.147-19.572 3.9-8.366 12.973-13.158 22.061-11.643l13.294 2.21 3.616-12.983c2.472-8.875 10.646-15.075 19.876-15.075s17.404 6.2 19.876 15.075l3.616 12.983 13.294-2.21c9.093-1.513 18.16 3.278 22.062 11.644 2.943 6.313 2.514 13.629-1.148 19.571l-4.851 7.871 4.85 7.87c3.663 5.944 4.093 13.26 1.149 19.572-3.901 8.367-12.979 13.157-22.062 11.644l-13.294-2.21zm114.385 15.075c-20.21 0-40.249-3.235-59.284-9.487 4.531-4.283 8.318-9.444 11.061-15.326 5.966-12.796 6.289-27.265 1.161-40.121 5.128-12.855 4.805-27.325-1.161-40.121v-.001c-7.814-16.757-24.092-27.661-41.952-29.082-8.837-15.585-25.599-25.732-44.085-25.732s-35.248 10.147-44.085 25.732c-.964.077-1.923.181-2.877.313-5.552-18.028-8.36-36.779-8.36-55.917 0-13.799 1.438-27.334 4.265-40.466 13.831 1.35 22.097 5.132 31.374 9.377 12.932 5.916 27.588 12.622 55.473 12.622s42.541-6.705 55.473-12.622c11.614-5.314 21.645-9.903 42.993-9.903 21.35 0 31.381 4.589 42.995 9.903 12.933 5.916 27.59 12.622 55.476 12.622s42.543-6.705 55.476-12.622c9.277-4.245 17.545-8.027 31.379-9.377 2.827 13.132 4.265 26.667 4.265 40.467-.003 104.623-85.05 189.741-189.587 189.741z"/><path d="m342.707 324.677h30v30.002h-30z"/><path d="m304.02 389.037h30v30.002h-30z"/></g></svg>