<svg id="Capa_1" enable-background="new 0 0 512 512" height="512" viewBox="0 0 512 512" width="512" xmlns="http://www.w3.org/2000/svg"><g><path d="m372.12 0c-77.13.001-139.88 62.75-139.88 139.88 0 21.416 4.838 41.724 13.478 59.887l-224.202 199.9c-13.345 11.899-20.977 28.297-21.489 46.17-.511 17.874 6.17 34.679 18.813 47.322 12.644 12.644 29.449 19.325 47.323 18.814 17.873-.512 34.27-8.143 46.17-21.489l199.901-224.202c18.163 8.64 38.47 13.478 59.886 13.478 77.13 0 139.879-62.749 139.88-139.88 0-77.13-62.75-139.88-139.88-139.88zm-282.179 470.518c-6.349 7.122-15.099 11.194-24.637 11.467-9.537.273-18.505-3.292-25.251-10.039-6.746-6.746-10.311-15.714-10.038-25.251s4.345-18.287 11.466-24.636l27.417-24.446 45.488 45.488zm44.443-49.845-43.057-43.057 170.396-151.927c3.574 4.588 7.426 8.947 11.533 13.054s8.467 7.959 13.055 11.533zm237.736-170.913c-60.585-.001-109.878-49.291-109.88-109.88 0-60.588 49.292-109.88 109.88-109.88 30.297.001 57.762 12.322 77.66 32.22 19.894 19.894 32.22 47.37 32.22 77.66 0 60.588-49.292 109.88-109.88 109.88z"/><path d="m314.689 82.458h30v30h-30z" transform="matrix(.707 -.707 .707 .707 27.65 261.671)"/><path d="m399.542 167.311h30v30h-30z" transform="matrix(.707 -.707 .707 .707 -7.497 346.523)"/><path d="m399.193 82.807h30v30h-30z" transform="matrix(.707 -.707 .707 .707 52.155 321.526)"/><path d="m315.047 166.952h30v30h-30z" transform="matrix(.707 -.707 .707 .707 -31.991 286.671)"/><path d="m357.116 124.885h30v30h-30z" transform="matrix(.707 -.707 .707 .707 10.077 304.096)"/></g></svg>