<svg id="Capa_1" enable-background="new 0 0 512 512" height="512" viewBox="0 0 512 512" width="512" xmlns="http://www.w3.org/2000/svg"><g><g><path d="m363.177 119.695 6.808-29.888c22.862-2.114 40.823-21.402 40.823-44.807 0-24.813-20.187-45-45-45s-45 20.187-45 45c0 15.605 7.985 29.38 20.083 37.455l-8.483 37.24h-246.308l43.312 392.305h253.176l43.312-392.305zm2.631-89.695c8.271 0 15 6.729 15 15s-6.729 15-15 15-15-6.729-15-15 6.729-15 15-15zm-246.214 119.695h205.981l-10.531 46.235c-2.215-.951-4.386-1.964-6.62-3.007-12.214-5.7-26.059-12.16-52.429-12.16s-40.213 6.46-52.427 12.16c-10.746 5.015-20.026 9.346-39.74 9.346-19.533 0-28.823-4.252-39.445-9.208zm236.124 332.305h-199.436l-3.979-36.044c8.258 3.923 17.484 6.106 27.185 6.106h153.024c9.701 0 18.927-2.183 27.186-6.106zm9.89-89.581c-1.866 16.899-16.094 29.643-33.096 29.643h-153.024c-16.997 0-31.222-12.737-33.094-29.628l-18.259-165.381c9.051 2.991 20.214 5.218 35.692 5.218 26.37 0 40.213-6.46 52.427-12.16 10.746-5.015 20.026-9.346 39.741-9.346s28.996 4.331 39.742 9.346c3.901 1.82 7.968 3.718 12.556 5.458l-17.413 76.446 29.251 6.662 17.489-76.779c3.282.242 6.787.373 10.546.373 15.483 0 26.648-2.227 35.7-5.219zm-17.442-190.149c-1.307 0-2.567-.019-3.785-.056l11.963-52.518h36.063l-4.788 43.365c-10.625 4.956-19.915 9.209-39.453 9.209z"/></g><path d="m173.826 274.479h30v30h-30z"/><path d="m195.869 348.043h30v30h-30z"/></g></svg>