<svg id="Capa_1" enable-background="new 0 0 512 512" height="512" viewBox="0 0 512 512" width="512" xmlns="http://www.w3.org/2000/svg"><g><path d="m417.018 262.33c0-38.026-13.505-74.936-38.028-103.929l-4.504-5.326-40.71.074c-.527-33.952-28.309-61.41-62.384-61.41h-49.5c-8.091 0-14.674-6.583-14.674-14.674s6.583-14.674 14.674-14.674h49.5c34.403 0 62.392-27.988 62.392-62.392h-30c0 17.86-14.531 32.392-32.392 32.392h-49.5c-24.633 0-44.674 20.041-44.674 44.674s20.041 44.674 44.674 44.674h49.5c17.551 0 31.885 14.031 32.378 31.464l-166.648.302-4.485 5.342c-24.282 28.918-37.654 65.669-37.654 103.483 0 83.728 64.238 152.734 146.018 160.324v59.346h-90.258v30h210v-30h-89.743v-59.346c81.78-7.589 146.018-76.596 146.018-160.324zm-39.207-48.241c-9.161 1.736-15.697 4.548-21.728 7.144-6.803 2.927-12.433 5.35-22.3 6.122v-44.207l26.571-.048c7.236 9.526 13.094 19.964 17.457 30.989zm-226.451-30.61 152.422-.276v40.709c-2.172-.812-4.279-1.719-6.513-2.68-9.612-4.136-20.507-8.824-41.266-8.824s-31.654 4.688-41.267 8.824c-8.286 3.565-14.831 6.382-29.41 6.382s-21.123-2.816-29.409-6.382c-6.031-2.595-12.568-5.407-21.728-7.143 4.308-10.879 10.069-21.188 17.171-30.61zm-26.378 78.851c0-6.435.476-12.832 1.409-19.141 7.157 1.077 12.007 3.164 17.67 5.601 9.612 4.136 20.507 8.824 41.267 8.824s31.655-4.688 41.267-8.824c8.286-3.565 14.831-6.382 29.409-6.382s21.122 2.816 29.407 6.382c5.268 2.266 10.921 4.699 18.371 6.435v34.775h30v-32.582c16.265-.929 25.708-4.992 34.159-8.628 5.662-2.437 10.512-4.524 17.668-5.601.932 6.307 1.408 12.704 1.408 19.141 0 72.243-58.774 131.018-131.018 131.018s-131.017-58.775-131.017-131.018z"/><path d="m172.739 290.345h30v30h-30z"/><path d="m270.742 323.783h30v30h-30z"/></g></svg>