<svg id="Capa_1" enable-background="new 0 0 512 512" height="512" viewBox="0 0 512 512" width="512" xmlns="http://www.w3.org/2000/svg"><g><path d="m417.754 60h-101.754v-60h-120v60h-101.754l39.717 302.087h-27.963v149.913h300v-149.913h-27.964zm-191.754-30h60v30h-60zm157.551 60-4.786 36.4c-1.813.804-3.541 1.61-5.224 2.396-9.852 4.598-17.634 8.229-34.954 8.229s-25.102-3.631-34.953-8.229c-11.092-5.176-23.663-11.042-47.639-11.042-23.975 0-36.546 5.866-47.637 11.042-9.852 4.598-17.632 8.229-34.952 8.229-17.319 0-25.1-3.631-34.95-8.229-1.683-.785-3.411-1.591-5.222-2.395l-4.786-36.401zm-245.744 71.176c8.772 3.257 19.668 5.848 35.6 5.848 23.975 0 36.546-5.866 47.637-11.043 9.852-4.597 17.632-8.228 34.951-8.228 17.32 0 25.102 3.631 34.953 8.229 11.092 5.176 23.663 11.042 47.639 11.042 15.935 0 26.832-2.591 35.606-5.849l-26.415 200.911h-28.658c-6.786-28.562-32.511-49.869-63.119-49.869s-56.333 21.308-63.119 49.869h-28.659zm72.41 320.824c6.32-19.242 24.454-33.174 45.783-33.174s39.463 13.932 45.783 33.174zm165.783 0h-43.27c-7.015-35.954-38.753-63.174-76.73-63.174s-69.714 27.22-76.73 63.174h-43.27v-89.913h85.131v-15c0-19.227 15.643-34.869 34.869-34.869s34.869 15.643 34.869 34.869v15h85.131z"/><path d="m226 192.131h60v30h-60z"/><path d="m226 252.131h60v30h-60z"/></g></svg>