<svg id="Capa_1" enable-background="new 0 0 512 512" height="512" viewBox="0 0 512 512" width="512" xmlns="http://www.w3.org/2000/svg"><g><path d="m388.123 163.015c-1.084-3.464-2.218-6.838-3.334-10.158-5.376-15.99-10.936-32.526-10.708-59.163l.197-23.031-21.144 9.131c-.476.205-8.031 3.497-17.126 9.093-29.49-50.313-69.126-80.654-70.958-82.04l-9.05-6.847-9.05 6.847c-1.832 1.386-41.468 31.727-70.959 82.041-9.095-5.596-16.65-8.888-17.126-9.093l-21.143-9.131.196 23.031c.227 26.638-5.333 43.174-10.709 59.165-1.116 3.319-2.25 6.693-3.333 10.156h-39.454l38.526 348.984h266.104l38.526-348.985zm-232.477-.593c4.146-12.332 8.683-25.824 10.901-43.818 1.644 1.186 3.271 2.443 4.826 3.766l14.58 12.389 8.551-17.117c19.108-38.253 47.212-66.41 61.496-79.21 14.292 12.808 42.391 40.964 61.496 79.21l8.551 17.117 14.58-12.389c1.556-1.322 3.183-2.58 4.826-3.766 2.219 17.994 6.754 31.484 10.9 43.816.067.199.134.397.2.596h-201.107c.066-.198.133-.396.2-.594zm206.535 319.576h-212.362l-3.758-34.038c6.739 2.756 14.104 4.269 21.799 4.269h176.377c7.657 0 14.989-1.512 21.701-4.27zm9.329-84.503c-1.595 14.105-13.306 24.732-27.272 24.732h-176.378c-13.992 0-25.711-10.45-27.327-24.337l-6.777-61.383h244.486zm10.045-90.99h-251.11l-3.937-35.657c9.161 3.034 20.461 5.293 36.142 5.293 26.664 0 40.663-6.534 53.016-12.299 10.903-5.088 20.32-9.483 40.328-9.483 20.009 0 29.427 4.395 40.331 9.484 12.353 5.764 26.353 12.298 53.018 12.298 15.684 0 26.986-2.26 36.149-5.295zm-32.212-60.365c-20.01 0-29.428-4.395-40.332-9.484-12.352-5.764-26.353-12.298-53.017-12.298s-40.663 6.534-53.016 12.299c-10.903 5.088-20.32 9.483-40.328 9.483-19.743 0-29.172-4.279-39.894-9.281l-4.84-43.842h276.168l-4.84 43.839c-10.724 5.004-20.155 9.284-39.901 9.284z"/></g></svg>