<svg id="Capa_1" enable-background="new 0 0 512 512" height="512" viewBox="0 0 512 512" width="512" xmlns="http://www.w3.org/2000/svg"><g><path d="m418.5 103.565v-15c0-48.835-39.73-88.565-88.565-88.565s-88.565 39.73-88.565 88.565v15h73.565v30.739h-119.929l-6.135-59.649h-82.343v30h55.271l3.05 29.649h-71.349v209.261c0 23.623 11.304 45.773 30 59.719v108.716h250v-108.716c18.696-13.945 30-36.096 30-59.719v-209.26h-58.565v-30.739h73.565zm-250.566 60.74 4.685 45.551c-10.306-.703-15.978-3.296-22.885-6.453-6.969-3.186-14.614-6.681-26.234-8.355v-30.742h44.434zm-14.434 317.695v-30h190v30zm197.561-99.814-7.561 4.318v35.496h-190v-35.496l-7.561-4.318c-13.841-7.905-22.439-22.703-22.439-38.62v-118.016c5.176 1.211 9.2 3.05 13.762 5.136 9.158 4.187 19.482 8.907 38.46 9.328l11.284 109.708 29.842-3.07-11.343-110.282c5.49-1.688 9.984-3.743 14.228-5.682 8.118-3.712 14.529-6.643 28.764-6.643s20.646 2.931 28.765 6.643c9.596 4.386 20.471 9.357 41.237 9.357s31.642-4.972 41.237-9.357c4.563-2.086 8.587-3.926 13.765-5.137v118.016c-.001 15.915-8.6 30.713-22.44 38.619zm22.439-187.139c-11.622 1.674-19.267 5.169-26.237 8.355-8.118 3.712-14.53 6.643-28.765 6.643s-20.646-2.931-28.765-6.643c-9.596-4.386-20.471-9.357-41.237-9.357s-31.642 4.972-41.236 9.358c-1.685.771-3.297 1.507-4.921 2.191l-4.247-41.289h175.408zm-43.565-165.047c27.109 0 49.977 18.517 56.619 43.565h-113.239c6.643-25.048 29.51-43.565 56.62-43.565z"/><path d="m299.626 280.609h30v30h-30z"/><path d="m271.438 351.175h30v30h-30z"/></g></svg>