<svg id="Capa_1" enable-background="new 0 0 512 512" height="512" viewBox="0 0 512 512" width="512" xmlns="http://www.w3.org/2000/svg"><g><path d="m375.926 63.502-4.253-3.754h-35.914l3.645-29.748h55.816v-30h-82.364l-7.322 59.748h-165.207l-4.253 3.754c-39.007 34.427-61.378 83.987-61.378 135.976 0 49.69 20.437 97.163 56.304 131.324v81.502h110v69.696h-90v30h210v-30h-90v-69.696h110v-81.502c35.868-34.161 56.305-81.634 56.305-131.324-.001-51.989-22.372-101.55-61.379-135.976zm-15.753 26.246c16.832 15.991 29.605 35.488 37.579 56.852-10.298 4.653-20.673 8.323-39.92 8.323-15.043 0-24.667-2.242-33.07-5.444l7.32-59.732h28.091zm-208.347 0h150.032l-5.818 47.475c-10.077-3.449-22.534-6.061-40.047-6.061-28.786 0-43.914 7.06-57.26 13.288-12.042 5.62-22.443 10.474-44.574 10.474-19.243 0-29.616-3.67-39.913-8.322 7.975-21.365 20.748-40.863 37.58-56.854zm204.248 223.214-5.074 4.478v64.863h-190v-64.863l-5.074-4.479c-32.557-28.735-51.23-70.099-51.23-113.484 0-7.925.624-15.783 1.841-23.508 11.391 4.769 25.458 8.955 47.623 8.955 28.786 0 43.914-7.06 57.26-13.288 12.042-5.62 22.443-10.474 44.574-10.474 16.995 0 27.072 2.862 36.288 6.735l-15.634 127.578 29.777 3.648 14.608-119.208c9.494 2.913 21.121 5.008 36.8 5.008 22.17 0 36.238-4.187 47.631-8.957 1.217 7.726 1.841 15.584 1.841 23.51-.001 43.387-18.673 84.751-51.231 113.486z"/><path d="m154.13 221.026h30v30h-30z"/><path d="m203.043 289.695h30v30h-30z"/></g></svg>