<svg id="Capa_1" enable-background="new 0 0 512 512" height="512" viewBox="0 0 512 512" width="512" xmlns="http://www.w3.org/2000/svg"><g><path d="m409.215 271.776c-21.575-42.538-32.979-90.563-32.979-138.883v-19.698h-52.713c2.496-44.482-25.325-86.527-69.209-100.528l-39.699-12.667-12.655 39.733c-2.084 6.543-3.464 13.205-4.162 19.885-10.602-5.499-22.633-8.608-35.376-8.608-42.532 0-77.134 34.631-77.134 77.197 0 36.293 25.153 66.817 58.929 75.026-5.662 23.884-14.145 47.405-25.287 69.885-10.924 22.042-16.582 45.768-16.817 70.52-.431 45.406 18.188 88.698 51.308 119.85v48.512h221.739v-48.043c32.849-30.696 51.554-73.581 51.554-118.746-.001-25.838-5.888-50.545-17.499-73.435zm-53.323-58.5h-183.244c5.717-23.168 9.015-46.693 9.768-70.057h163.978c.724 23.655 3.931 47.177 9.498 70.057zm-125.351-164.424 3.544-11.125 11.117 3.546c31.222 9.962 50.811 40.229 48.251 71.922h-51.218c-14.246-18.075-18.752-42.183-11.694-64.343zm-115.254 79.355c0-26.011 21.145-47.172 47.134-47.172 20.747 0 38.407 13.487 44.687 32.16h-54.525v19.691c0 13.533-.952 27.162-2.827 40.765-19.858-5.552-34.469-23.822-34.469-45.444zm235.117 317.635-5.244 4.494v31.639h-161.74v-32.038l-5.199-4.492c-29.673-25.633-46.479-62.636-46.11-101.523.191-20.182 4.799-39.516 13.694-57.464 6.964-14.051 12.977-28.483 18.007-43.157h200.872c4.964 14.434 10.901 28.502 17.781 42.066 9.454 18.639 14.248 38.774 14.248 59.844 0 38.734-16.879 75.413-46.309 100.631z"/></g></svg>