<svg id="Capa_1" enable-background="new 0 0 512 512" height="512" viewBox="0 0 512 512" width="512" xmlns="http://www.w3.org/2000/svg"><g><path d="m423.283 118.662-4.5-5.467h-50.781l5.514-45.037h55.815v-30.025h-82.364l-9.19 75.062h-65.625c2.496-44.483-25.325-86.528-69.209-100.529l-39.699-12.666-12.657 39.732c-2.119 6.652-3.508 13.427-4.195 20.219-10.756-5.707-23.014-8.942-36.012-8.942-42.532 0-77.135 34.631-77.135 77.197 0 35.368 23.888 65.256 56.364 74.355-7.338 24.419-11.162 50.344-11.162 76.874 0 61.675 20.531 119.764 57.812 163.568 37.866 44.493 88.417 68.997 142.341 68.997s104.476-24.504 142.344-68.998c37.28-43.804 57.812-101.893 57.812-163.568-.001-60.216-19.701-117.313-55.473-160.772zm-312.656 193.213c10.331 1.456 17.189 4.409 24.776 7.676 12.054 5.192 25.717 11.076 51.686 11.076s39.632-5.884 51.686-11.076c10.753-4.631 20.04-8.63 39.828-8.63 19.786 0 29.072 3.999 39.824 8.63 12.055 5.192 25.717 11.076 51.685 11.076s39.63-5.884 51.684-11.076c7.588-3.268 14.446-6.222 24.78-7.677-2.977 21.917-8.918 42.668-17.318 61.648-19.072.761-29.831 5.395-39.419 9.525-8.955 3.857-16.688 7.188-33.125 7.188-16.438 0-24.171-3.331-33.126-7.188-10.484-4.516-22.367-9.634-44.985-9.634-22.619 0-34.503 5.117-44.987 9.633-8.955 3.858-16.689 7.189-33.128 7.189s-24.173-3.331-33.128-7.189c-9.588-4.129-20.346-8.762-39.413-9.524-8.402-18.979-14.344-39.73-17.32-61.647zm299.308-19.903c-10.752 4.631-20.038 8.63-39.824 8.63-19.787 0-29.073-3.999-39.826-8.63-12.054-5.192-25.715-11.076-51.683-11.076-25.969 0-39.632 5.884-51.686 11.076-10.753 4.631-20.04 8.63-39.828 8.63s-29.075-3.999-39.828-8.63c-9.886-4.258-20.854-8.982-38.806-10.543-.005-.664-.008-1.329-.008-1.995 0-15.048 1.378-29.859 4.063-44.227h332.185c2.684 14.367 4.063 29.179 4.063 44.227 0 .666-.003 1.33-.008 1.994-17.957 1.561-28.927 6.285-38.814 10.544zm27.034-86.789h-316.737c7.488-22.607 18.431-43.579 32.502-61.964h251.733c14.071 18.385 25.014 39.357 32.502 61.964zm-257.8-156.331 3.545-11.127 11.117 3.547c31.222 9.962 50.81 40.23 48.251 71.923h-51.216c-14.248-18.074-18.754-42.182-11.697-64.343zm-115.924 79.354c0-26.011 21.145-47.172 47.135-47.172 20.748 0 38.408 13.487 44.687 32.161h-16.648l-4.5 5.467c-13.75 16.705-25.126 35.426-33.921 55.564-21.013-4.746-36.753-23.578-36.753-46.02zm215.355 353.769c-53.226 0-100.822-29.241-132.047-74.937 3.093 1.067 5.951 2.298 8.945 3.588 10.484 4.515 22.368 9.633 44.987 9.633s34.503-5.117 44.987-9.633c8.955-3.858 16.689-7.189 33.128-7.189 16.438 0 24.171 3.331 33.126 7.188 10.484 4.515 22.367 9.634 44.985 9.634s34.501-5.118 44.984-9.634c2.997-1.291 5.857-2.523 8.953-3.59-31.223 45.698-78.82 74.94-132.048 74.94z"/></g></svg>