<svg id="Capa_1" enable-background="new 0 0 512 512" height="512" viewBox="0 0 512 512" width="512" xmlns="http://www.w3.org/2000/svg"><g><path d="m247.033 289.347h30v132.702h-30z"/><path d="m307.033 289.347h30v132.702h-30z"/><path d="m127.033 289.347h30v132.702h-30z"/><path d="m187.033 289.347h30v132.702h-30z"/><path d="m395.105 248.456v-26.461c14.667-12.341 23.21-30.478 23.21-49.988 0-14.37-4.809-28.373-13.434-39.697 2.284-7.325 3.437-14.948 3.437-22.766 0-42.186-34.274-76.507-76.402-76.507-6.576 0-13.026.823-19.282 2.457-20.592-22.399-49.978-35.494-80.601-35.494s-60.01 13.095-80.601 35.493c-6.256-1.633-12.707-2.457-19.282-2.457-42.128 0-76.402 34.321-76.402 76.507 0 7.818 1.153 15.441 3.437 22.766-8.625 11.324-13.434 25.326-13.434 39.697 0 19.404 8.565 37.624 23.21 49.979v232.136l57.801 57.879h210.542l57.801-57.879v-35.758c40.375-7.128 71.145-42.51 71.145-84.953 0-42.444-30.77-77.826-71.145-84.954zm-30 193.222-40.228 40.281h-185.689l-40.228-40.281v-212.243h266.145zm10.213-242.284h-286.565c-8.195-6.684-13.003-16.705-13.003-27.388 0-9.793 3.913-18.9 11.019-25.638l7.842-7.439-4.559-9.805c-2.856-6.146-4.305-12.733-4.305-19.58 0-25.622 20.816-46.467 46.402-46.467 6.359 0 12.514 1.26 18.294 3.748l10.862 4.672 7.076-9.484c15.161-20.32 38.36-31.973 63.651-31.973s48.49 11.654 63.651 31.973l7.076 9.484 10.862-4.672c5.78-2.488 11.936-3.748 18.294-3.748 25.586 0 46.402 20.845 46.402 46.467 0 6.847-1.449 13.434-4.306 19.58l-4.558 9.805 7.842 7.439c7.105 6.739 11.018 15.844 11.018 25.638.002 10.74-4.791 20.71-12.995 27.388zm19.787 188.2v-108.37c23.7 6.586 41.145 28.384 41.145 54.185 0 25.802-17.445 47.599-41.145 54.185z"/></g></svg>