<svg id="Capa_1" enable-background="new 0 0 512 512" height="512" viewBox="0 0 512 512" width="512" xmlns="http://www.w3.org/2000/svg"><g><path d="m512 322.044v-30h-61v-96.025c0-29.229-10.606-56.827-30-78.4v-117.619h-90v117.618c-5.803 6.455-10.819 13.45-15 20.867-4.181-7.417-9.197-14.411-15-20.867v-117.618h-90v117.618c-5.803 6.455-10.819 13.45-15 20.867-4.181-7.417-9.197-14.411-15-20.867v-117.618h-90v117.618c-19.394 21.572-30 49.171-30 78.4v96.025h-61v30h30v159.957h-30v30h512v-30h-30v-159.956zm-91-30h-30v-61.025h30zm-30-262.044v30h-30v-30zm-34.394 104.198 4.394-4.394v-39.804h30v39.805l4.393 4.394c16.513 16.513 25.607 38.467 25.607 61.82v5h-60v91.025h-30v-96.025c0-23.353 9.094-45.308 25.606-61.821zm-55.606 157.846h-30v-61.025h30zm-30-262.044v30h-30v-30zm-34.394 104.198 4.394-4.394v-39.804h30v39.805l4.393 4.394c16.513 16.513 25.607 38.467 25.607 61.82v5h-60v91.025h-30v-96.025c0-23.353 9.094-45.308 25.606-61.821zm-55.606 157.846h-30v-61.025h30zm-30-262.044v30h-30v-30zm-60 166.019c0-23.353 9.094-45.308 25.606-61.82l4.394-4.394v-39.805h30v39.805l4.393 4.394c16.513 16.513 25.607 38.467 25.607 61.82v5h-60v91.025h-30zm361 285.981h-392v-159.956h392z"/><path d="m89.391 421.957h30v30h-30z"/><path d="m89.391 351.957h30v30h-30z"/><path d="m392.391 421.957h30v30h-30z"/><path d="m392.391 351.957h30v30h-30z"/></g></svg>