<svg id="Capa_1" enable-background="new 0 0 512 512" height="512" viewBox="0 0 512 512" width="512" xmlns="http://www.w3.org/2000/svg"><g><path d="m376.098 99.96v-99.96h-90v99.96c-49.698 7.284-87.978 50.2-87.978 101.888v310.152h265.957v-310.152c-.001-51.688-38.282-94.604-87.979-101.888zm-30-69.96v30h-30v-30zm-45 98.87h15v-38.87h30v38.87h15c37.59 0 68.633 28.567 72.559 65.131-7.346 3.319-14.33 5.753-27.684 5.753-15.392 0-22.322-3.234-31.097-7.328-10.188-4.755-21.734-10.144-43.782-10.144-22.047 0-33.594 5.389-43.782 10.144-8.773 4.094-15.703 7.328-31.094 7.328-13.351 0-20.335-2.433-27.679-5.751 3.925-36.565 34.968-65.133 72.559-65.133zm132.978 233.738h-87.979v-73.608h87.979zm-87.978 30h87.979v30h-87.979zm-30-133.608v193.608h117.979v29.392h-205.957v-256.051c7.245 2.215 16.122 3.805 28.098 3.805 22.047 0 33.594-5.389 43.781-10.143 8.773-4.095 15.703-7.329 31.095-7.329s22.322 3.234 31.096 7.329c10.188 4.754 21.735 10.143 43.783 10.143 11.979 0 20.858-1.591 28.104-3.806v33.052z"/><path d="m47.924 388.392c0 27.906 19.151 51.424 45 58.102v35.506h-45v30h120v-30h-45v-35.507c25.849-6.677 45-30.195 45-58.102v-125.043h-120zm60 30c-16.542 0-30-13.458-30-30v-26.807c5.842-1.347 10.112-3.34 13.845-5.081 4.958-2.314 8.234-3.843 16.156-3.843s11.198 1.528 16.157 3.843c3.733 1.741 8.002 3.733 13.842 5.081v26.808c0 16.541-13.458 29.999-30 29.999zm30-125.044v36.507c-.377-.174-.762-.354-1.157-.538-6.355-2.966-14.265-6.656-28.842-6.656s-22.487 3.691-28.842 6.656c-.396.185-.781.365-1.159.539v-36.508z"/></g></svg>