<svg id="Capa_1" enable-background="new 0 0 512 512" height="512" viewBox="0 0 512 512" width="512" xmlns="http://www.w3.org/2000/svg"><g><path d="m391.391 129.2v-129.2h-90v129.201c-33.104 6.938-58.043 36.358-58.043 71.495v311.304h206.087v-311.304c0-35.136-24.938-64.558-58.044-71.496zm-118.043 173.8h146.087v119h-146.087zm0-30v-30.367c20.863-.289 32.05-5.509 41.952-10.131 8.773-4.094 15.704-7.328 31.096-7.328 15.391 0 22.32 3.234 31.094 7.328 9.901 4.621 21.087 9.84 41.945 10.131v30.367zm88.043-243v30h-30v-30zm-45 127.652h15v-67.652h30v67.652h15c23.734 0 43.044 19.31 43.044 43.044v11.933c-14.121-.249-20.841-3.385-29.258-7.312-10.188-4.755-21.734-10.144-43.781-10.144s-33.595 5.389-43.782 10.143c-8.418 3.929-15.14 7.065-29.266 7.313v-11.933c0-23.734 19.309-43.044 43.043-43.044zm-43.043 324.348v-30h146.087v30z"/><path d="m316.391 347.5h60v30h-60z"/><path d="m62.565 394.305c0 16.875 7.869 32.252 21.044 42.03v75.665h110v-75.665c13.175-9.778 21.043-25.155 21.043-42.03v-157.74h-152.087zm109.467 20.182-8.423 4.109v63.404h-50v-63.403l-8.424-4.109c-7.784-3.798-12.62-11.531-12.62-20.183v-56.42c12.664-.849 20.211-4.371 26.432-7.273 5.784-2.699 9.964-4.649 19.615-4.649 9.65 0 13.83 1.95 19.613 4.649 6.219 2.902 13.766 6.424 26.427 7.273v56.42c0 8.651-4.836 16.385-12.62 20.182zm12.62-147.922v41.215c-5.782-.642-9.286-2.276-13.739-4.354-7.126-3.325-15.994-7.464-32.301-7.464s-25.175 4.139-32.301 7.464c-4.456 2.079-7.96 3.714-13.746 4.355v-41.215h92.087z"/></g></svg>