<svg id="Capa_1" enable-background="new 0 0 512 512" height="512" viewBox="0 0 512 512" width="512" xmlns="http://www.w3.org/2000/svg"><g><path d="m57.723 512h121.673l36.854-192.336h-195.382zm24.797-30-12.381-64.619c1.941.166 4.028.258 6.282.258 13.967 0 21.537-3.533 27.621-6.372 4.59-2.143 7.623-3.558 14.934-3.558 7.312 0 10.345 1.415 14.936 3.558 6.083 2.839 13.654 6.372 27.621 6.372 1.93 0 3.737-.068 5.436-.191l-12.37 64.552zm97.435-132.336-6.887 35.942c-3.079 1.264-6.144 2.034-11.537 2.034-7.312 0-10.345-1.415-14.936-3.558-6.083-2.839-13.654-6.372-27.621-6.372s-21.537 3.533-27.621 6.372c-4.59 2.143-7.623 3.558-14.934 3.558-5.921 0-9.036-.928-12.444-2.419l-6.813-35.557z"/><path d="m409.062 241v-241h-90v241h-82.07l33.734 271h186.672l33.734-271zm-128.709 105.47c5.346 1.187 11.66 1.965 19.362 1.965 19.413 0 30.004-4.942 38.515-8.914 7.302-3.408 13.07-6.1 25.828-6.1 12.759 0 18.527 2.691 25.83 6.1 8.51 3.972 19.102 8.914 38.516 8.914 7.705 0 14.02-.778 19.367-1.966l-9.418 75.661h-148.582zm98.709-226.47h-30v-30h30zm0-90v30h-30v-30zm-30 241v-121h30v121h78.104l-5.281 42.425c-6.297 2.875-12.116 5.011-23.481 5.011-12.759 0-18.527-2.691-25.83-6.1-8.51-3.972-19.102-8.914-38.516-8.914s-30.005 4.942-38.516 8.914c-7.302 3.408-13.069 6.1-25.827 6.1-11.363 0-17.181-2.135-23.476-5.009l-5.281-42.427zm-51.838 211-3.718-29.869h141.112l-3.719 29.869z"/></g></svg>