<svg id="Capa_1" enable-background="new 0 0 512 512" height="512" viewBox="0 0 512 512" width="512" xmlns="http://www.w3.org/2000/svg"><g><path d="m333.417 119.098-28.797-35.98v-16.417c4.35.016 8.811-2.542 8.811-7.5v-35.589c-.001-13.02-10.593-23.612-23.613-23.612h-67.636c-13.02 0-23.612 10.592-23.612 23.612v35.588c0 4.761 4.432 7.69 8.811 7.5v16.418l-28.797 35.98c-9.945 12.425-15.421 28.033-15.421 43.947v133.699c0 11.566 2.153 22.884 6.399 33.642 4.319 10.941 4.44 23.039.34 34.064-4.377 10.987-6.739 22.774-6.739 34.608v85.878c0 14.922 12.141 27.063 27.063 27.063h131.55c14.922 0 27.063-12.141 27.063-27.063v-85.878c0-10.938-1.933-21.683-5.746-31.936-4.66-11.875-5.409-24.691-.653-36.737 1.344-3.407 2.495-6.927 3.419-10.464 1.047-4.007-1.353-8.105-5.36-9.153-4.006-1.047-8.105 1.352-9.153 5.36-.773 2.957-1.735 5.901-2.859 8.75-6.115 15.491-5.24 32.079.547 47.473 3.188 8.574 4.805 17.56 4.805 26.708v63.415h-101.172c-4.142 0-7.5 3.358-7.5 7.5s3.358 7.5 7.5 7.5h101.171v7.463c0 6.651-5.412 12.063-12.063 12.063h-131.55c-6.651 0-12.063-5.412-12.063-12.063v-7.463h19.002c4.142 0 7.5-3.358 7.5-7.5s-3.358-7.5-7.5-7.5h-19.002v-63.415c0-10.157 2.271-19.911 5.799-29.38 5.392-14.5 5.233-30.41-.447-44.801-4.223-10.697-5.472-21.9-5.352-33.314h163.176c4.142 0 7.5-3.358 7.5-7.5v-121.019c0-15.914-5.477-31.522-15.421-43.947zm-119.847-95.486c0-4.749 3.863-8.612 8.612-8.612h67.636c4.749 0 8.612 3.863 8.612 8.612v28.088c-28.287 0-56.574 0-84.86 0zm-23.276 104.859 28.183-35.212h10.523c4.142 0 7.5-3.358 7.5-7.5s-3.358-7.5-7.5-7.5h-6.619v-11.558h67.238v11.559h-25.619c-4.142 0-7.5 3.358-7.5 7.5s3.358 7.5 7.5 7.5h29.523l28.183 35.212c7.824 9.775 12.132 22.054 12.132 34.574v7.992h-155.676v-7.992c0-12.521 4.309-24.799 12.132-34.575zm143.544 148.093h-155.676v-90.527h155.676z"/><path d="m256.13 264.533c6.232 0 12.463-2.372 17.207-7.115 16.313-16.313.376-43.411-11.611-56.851-2.774-3.11-8.069-3.359-11.086-.119-.316.339-7.8 8.429-13.22 18.811-10.939 20.957-3.76 32.899 1.494 38.153 4.747 4.747 10.982 7.121 17.216 7.121zm-.142-46.855c6.111 8.917 13.237 22.638 6.743 29.133-3.64 3.64-9.566 3.638-13.21-.006-6.823-6.822.072-20.172 6.467-29.127z"/></g></svg>