<svg id="Capa_1" enable-background="new 0 0 512 512" height="512" viewBox="0 0 512 512" width="512" xmlns="http://www.w3.org/2000/svg"><g><path d="m157.788 195.902c-.001-15.51-3.952-30.849-11.427-44.359l-15.333-27.712c-10.321-18.654-15.776-39.839-15.776-61.265v-19.546c3.99-.172 7.175-3.451 7.175-7.484v-15.28c0-10.125-8.237-18.362-18.363-18.362h-50.339c-10.125 0-18.362 8.237-18.362 18.362v15.28c0 4.032 3.184 7.312 7.174 7.483v19.546c0 21.426-5.456 42.611-15.776 61.265l-15.333 27.712c-7.476 13.512-11.428 28.852-11.428 44.362 0 .007.001.013.001.019l-.001 156.167c0 7.316.585 14.697 1.741 21.938l7.89 49.466c1.114 6.986.024 14.111-3.153 20.603-4.299 8.782-6.478 18.105-6.478 27.71v14.141c0 13.321 11.733 24.159 26.155 24.159h105.479c14.422 0 26.156-10.837 26.156-24.159v-14.141c0-9.605-2.179-18.928-6.477-27.708-3.177-6.492-4.268-13.617-3.153-20.604l7.89-49.466c1.155-7.241 1.741-14.623 1.741-21.938zm-15 7.502v85.936h-127.787v-85.936zm-85.251-148.339v-12.028h42.715v12.028zm-7.174-34.809c0-1.854 1.508-3.362 3.362-3.362h50.339c1.854 0 3.363 1.508 3.363 3.362v7.78h-57.064zm-10.478 110.836c10.341-18.689 16.3-39.646 17.437-61.027h43.145c1.136 21.381 7.096 42.338 17.436 61.027l15.333 27.712c5.041 9.11 8.164 19.219 9.184 29.598h-127.052c1.02-10.379 4.144-20.487 9.184-29.598zm97.955 319.6c3.284 6.711 4.95 13.815 4.95 21.115v14.141c0 5.05-5.004 9.159-11.156 9.159h-105.479c-6.151 0-11.155-4.108-11.155-9.159v-14.141c0-7.3 1.666-14.404 4.95-21.115 4.543-9.283 6.097-19.504 4.493-29.56l-7.89-49.466c-1.031-6.462-1.553-13.048-1.553-19.576v-20.257h76c4.142 0 7.5-3.358 7.5-7.5s-3.358-7.5-7.5-7.5h-76v-12.488h127.79v12.488h-17.456c-4.142 0-7.5 3.358-7.5 7.5s3.358 7.5 7.5 7.5h17.456v20.257c0 6.527-.522 13.114-1.553 19.576l-7.89 49.465c-1.604 10.057-.051 20.278 4.493 29.561z"/><path d="m343.009 415.44c-4.517-11.274-4.895-24.119-4.895-36.309v-154.205c0-15.165-3.289-30.335-9.511-43.873l-18.14-39.451c0-.001-.001-.002-.001-.003-6.619-14.392-10.117-30.545-10.117-46.714v-27.81c3.992-.169 7.18-3.45 7.18-7.484v-15.279c0-10.125-8.237-18.363-18.363-18.363h-50.339c-10.125 0-18.363 8.237-18.363 18.363v15.279c0 4.034 3.187 7.315 7.18 7.484v27.81c0 16.169-3.499 32.323-10.117 46.714 0 .001-.001.002-.001.003l-16.606 36.113c-1.73 3.763-.083 8.217 3.681 9.947s8.217.083 9.947-3.681l14.599-31.749h69.699l16.133 35.086c5.325 11.585 8.14 24.59 8.14 37.607v52.857h-118.245v-52.857c0-3.548.208-7.129.619-10.645.48-4.114-2.465-7.839-6.579-8.319-4.11-.482-7.839 2.465-8.319 6.579-.478 4.09-.72 8.257-.72 12.385v154.205c0 12.189-.378 25.034-4.895 36.31-1.557 3.888-9.455 34.307-9.455 46.362v20.987c0 15.062 11.411 27.315 25.437 27.315h126.07c14.026 0 25.437-12.253 25.437-27.315v-20.987c-.001-12.053-9.318-46.017-9.456-46.362zm-100.369-348.347h42.705v12.028h-42.705zm-7.18-22.781c0-1.854 1.508-3.363 3.363-3.363h50.339c1.854 0 3.363 1.509 3.363 3.363v7.779h-57.065zm-.014 92.921c4.84-13.798 7.27-28.492 7.194-43.112h42.705c-.076 14.62 2.354 29.314 7.194 43.112zm87.669 155.551v86.348c0 13.479.449 27.765 5.761 41.36 3.418 14.206 8.613 28.717 8.588 43.47-48.981 0-97.963 0-146.944 0-.086-14.727 5.175-29.287 8.588-43.47 5.312-13.596 5.761-27.881 5.761-41.36v-86.348zm3.912 202.322h-126.07c-5.755 0-10.437-5.525-10.437-12.315v-3.829h146.944v3.829c0 6.79-4.682 12.315-10.437 12.315z"/><path d="m246.215 210.754h35.553c4.142 0 7.5-3.358 7.5-7.5s-3.358-7.5-7.5-7.5h-35.553c-4.142 0-7.5 3.358-7.5 7.5s3.358 7.5 7.5 7.5z"/><path d="m246.215 241.541h35.553c4.142 0 7.5-3.358 7.5-7.5s-3.358-7.5-7.5-7.5h-35.553c-4.142 0-7.5 3.358-7.5 7.5s3.358 7.5 7.5 7.5z"/><path d="m63.825 272.24h30.138c14.265 0 25.87-11.605 25.87-25.87s-11.605-25.87-25.87-25.87h-30.138c-14.265 0-25.87 11.605-25.87 25.87s11.606 25.87 25.87 25.87zm0-36.74h30.138c5.994 0 10.87 4.876 10.87 10.87s-4.876 10.87-10.87 10.87h-30.138c-5.994 0-10.87-4.876-10.87-10.87s4.877-10.87 10.87-10.87z"/></g><g><path d="m444.375 273.86c-20.173 0-36.585 16.412-36.585 36.585v63.47c0 20.173 16.412 36.585 36.585 36.585s36.585-16.412 36.585-36.585v-63.47c0-20.173-16.412-36.585-36.585-36.585zm21.585 100.055c0 11.902-9.683 21.585-21.585 21.585s-21.585-9.683-21.585-21.585v-63.47c0-11.902 9.683-21.585 21.585-21.585s21.585 9.683 21.585 21.585z"/><path d="m458.625 421.5h-28.5c-4.142 0-7.5 3.358-7.5 7.5s3.358 7.5 7.5 7.5h28.5c4.142 0 7.5-3.358 7.5-7.5s-3.358-7.5-7.5-7.5z"/><path d="m512 476.46v-242.42c0-.549-6.04-26.996-6.04-26.996v-25.288c0-4.142-3.358-7.5-7.5-7.5h-46.085c-4.142 0-7.5 3.358-7.5 7.5s3.358 7.5 7.5 7.5h38.585v11.142h-93.174v-11.142h19.714c4.142 0 7.5-3.358 7.5-7.5s-3.358-7.5-7.5-7.5h-27.214c-4.142 0-7.5 3.358-7.5 7.5v25.305s-6.036 26.421-6.036 26.979v242.42c0 .554 6.232 27.834 6.232 27.834.786 3.402 3.816 5.812 7.308 5.812h108.17c3.492 0 6.521-2.41 7.308-5.812 0 0 6.232-27.582 6.232-27.834zm-120.25-234.92h105.25v227.42h-105.25zm1.931-15 2.574-11.14h96.24l2.574 11.14zm98.814 268.566h-96.24l-2.574-11.142h101.389z"/></g></svg>