<svg id="Capa_1" enable-background="new 0 0 512 512" height="512" viewBox="0 0 512 512" width="512" xmlns="http://www.w3.org/2000/svg"><g><path d="m452.611 246.166c4.143 0 7.5-3.358 7.5-7.5v-18.375c0-23.171-18.851-42.022-42.021-42.022h-71.087v-12.573c0-12.227-9.947-22.175-22.175-22.175h-172.495c-4.142 0-7.5 3.358-7.5 7.5s3.358 7.5 7.5 7.5h80.988v59.635l-34.624 27.802c-6.214 4.98-9.779 12.411-9.779 20.386v48.711c0 12.374 10.066 22.44 22.44 22.44h58.926c12.374 0 22.44-10.067 22.44-22.44v-48.711c0-7.975-3.564-15.405-9.774-20.381l-34.629-27.806v-59.635h76.507c3.956 0 7.175 3.219 7.175 7.175v283.446c0 12.007-9.769 21.775-21.775 21.775h-33.893c-4.143 0-7.5 3.358-7.5 7.5s3.357 7.5 7.5 7.5h26.393v11.082h-206.563v-11.083h144.835c4.142 0 7.5-3.358 7.5-7.5s-3.358-7.5-7.5-7.5h-152.335c-12.007 0-21.775-9.769-21.775-21.775v-283.446c0-3.956 3.219-7.175 7.175-7.175h43.604c4.142 0 7.5-3.358 7.5-7.5s-3.358-7.5-7.5-7.5h-43.605c-12.227 0-22.175 9.948-22.175 22.175v283.446c0 17.708 12.582 32.531 29.275 36.004v19.354c0 4.142 3.358 7.5 7.5 7.5h221.562c4.143 0 7.5-3.358 7.5-7.5v-19.354c16.693-3.473 29.275-18.296 29.275-36.004v-50.994h71.087c23.171 0 42.021-18.851 42.021-42.022v-82.792c0-4.142-3.357-7.5-7.5-7.5s-7.5 3.358-7.5 7.5v82.792c0 14.9-12.122 27.022-27.021 27.022h-71.082v-23.674h55.681c11.521 0 20.896-9.374 20.896-20.896v-100.74c0-11.521-9.374-20.895-20.896-20.895h-55.681v-23.674h71.082c14.899 0 27.021 12.122 27.021 27.022v18.375c.002 4.143 3.359 7.5 7.502 7.5zm-174.887 68.889c0 4.103-3.338 7.44-7.44 7.44h-58.926c-4.103 0-7.44-3.338-7.44-7.44v-8.859h73.806zm0-48.712v24.853h-73.806v-24.853c0-3.398 1.516-6.563 4.165-8.685l32.738-26.287 32.743 26.292c2.643 2.118 4.16 5.282 4.16 8.68zm124.964-34.4c3.251 0 5.896 2.645 5.896 5.895v100.741c0 3.251-2.645 5.896-5.896 5.896h-55.686v-112.532z"/><path d="m128.971 113.593c2.484 3.073 7.408 3.692 10.565 1.14 3.221-2.604 3.739-7.304 1.135-10.525-.577-.737-13.955-18.324.554-42.377 20.105-33.332.216-58.071-.64-59.108-2.637-3.192-7.364-3.644-10.559-1.005-3.193 2.638-3.644 7.365-1.005 10.559.142.172 14.036 17.477-.64 41.807-20.075 33.282-.264 58.454.59 59.509z"/><path d="m190.586 113.593c2.484 3.073 7.408 3.692 10.565 1.14 3.221-2.604 3.739-7.304 1.135-10.525-.577-.737-13.955-18.324.554-42.377 20.105-33.332.216-58.071-.64-59.108-2.637-3.192-7.364-3.644-10.559-1.005-3.193 2.638-3.644 7.365-1.005 10.559.142.172 14.036 17.477-.64 41.807-20.075 33.282-.264 58.454.59 59.509z"/><path d="m252.2 113.593c2.484 3.073 7.408 3.692 10.565 1.14 3.222-2.604 3.739-7.304 1.135-10.525-.576-.737-13.954-18.324.554-42.377 20.105-33.332.217-58.071-.64-59.108-2.639-3.193-7.365-3.643-10.559-1.005-3.193 2.638-3.644 7.365-1.005 10.559.142.172 14.035 17.477-.64 41.807-20.075 33.282-.263 58.454.59 59.509z"/></g></svg>