<svg id="Capa_1" enable-background="new 0 0 512 512" height="512" viewBox="0 0 512 512" width="512" xmlns="http://www.w3.org/2000/svg"><path d="m504.5 390.655h-122.12c2.365-4.536 3.382-9.691 3.137-14.781 22.835-7.983 39.545-28.683 42.492-52.428 38.26.466 72.686-24.355 77.499-63.873l6.134-50.371c3.44-28.253-19.31-53.971-47.798-53.971h-88.908l-14.998-10.431c-2.202-21.558-21.529-36.62-42.719-35.638-2.513-16.455-16.761-29.101-33.907-29.101s-31.393 12.646-33.906 29.101c-21.234-.752-40.499 13.895-42.719 35.638l-20.714 14.406c-3.4 2.365-4.24 7.039-1.875 10.439 2.364 3.4 7.037 4.241 10.439 1.875l21.795-15.157h14.36v57.884c-3.325-.507-7.314.3-9.345 3.211l-9.987 14.329c-.877 1.258-1.347 2.755-1.347 4.289v37.152c0 4.142 3.357 7.5 7.5 7.5h41.358c4.143 0 7.5-3.358 7.5-7.5v-37.152c0-1.534-.47-3.03-1.347-4.289l-9.987-14.329c-2.031-2.912-6.02-3.718-9.346-3.211v-57.884h104.602l34.489 23.986c17.967 12.494 28.692 33.021 28.692 54.909v80.687c0 21.69-15.278 41.249-36.441 46.84h-25.365c-4.143 0-7.5 3.358-7.5 7.5s3.357 7.5 7.5 7.5h18.85v.066c0 7.06-5.748 12.803-12.814 12.803h-148.773c-7.065 0-12.814-5.744-12.814-12.803v-.066h119.551c4.143 0 7.5-3.358 7.5-7.5s-3.357-7.5-7.5-7.5h-126.069c-21.169-5.591-36.451-25.149-36.451-46.84v-80.687c0-15.907 5.687-31.33 16.013-43.428 2.688-3.151 2.314-7.885-.836-10.574-3.152-2.689-7.885-2.314-10.574.835-12.117 14.197-18.998 32.137-19.549 50.751-11.673-1.92-21.479-10.487-24.724-22.145-2.112-7.588-6.173-14.544-11.742-20.113l-23.264-23.264c-2.929-2.929-7.677-2.93-10.607 0l-23.161 23.161c-4.521 4.521-1.141 10.339 2.838 13.444 9.765 9.764 15.142 22.746 15.142 36.555 0 8.688 1.311 17.14 3.905 25.247h-48.927c-4.143 0-7.5 3.358-7.5 7.5v89.632c0 10.468 4.253 19.171 9.711 27.794h-12.373c-4.143 0-7.5 3.358-7.5 7.5 0 18.628 15.154 33.783 33.782 33.783h74.291c4.143 0 7.5-3.358 7.5-7.5s-3.357-7.5-7.5-7.5h-74.291c-7.692 0-14.319-4.647-17.22-11.283h478.875c-2.9 6.635-9.527 11.283-17.22 11.283h-333.884c-4.143 0-7.5 3.358-7.5 7.5s3.357 7.5 7.5 7.5h333.885c18.628 0 33.782-15.155 33.782-33.783 0-4.14-3.357-7.498-7.5-7.498zm-253.13-152.222v27.296h-26.358v-27.296l6.401-9.185h13.556zm170.581-35.172h34.572c4.446.506 6.646 2.996 6.602 7.471l-5.294 42.624c-1.869 15.067-15.388 22.464-29.356 22.062v-40.158c-.001-11.153-2.283-22.013-6.524-31.999zm66.71-21.858c6.288 7.1 9.236 16.571 8.09 25.986l-6.134 50.371c-3.867 31.75-31.566 51.108-62.144 50.686v-18.029c21.605.384 41.429-12.547 44.242-35.214l5.294-42.624c1.564-12.611-8.74-24.319-21.487-24.319h-42.891c-4.758-6.79-10.567-12.886-17.291-18.029h67.504c9.484 0 18.529 4.072 24.817 11.172zm-205.35-86.341c8.841 0 16.313 5.976 18.589 14.101h-37.177c2.275-8.125 9.747-14.101 18.588-14.101zm-60.668 46.302c3.183-9.965 12.53-17.201 23.537-17.201h74.263c11.007 0 20.354 7.236 23.537 17.201zm-41.527 234.511c-.245 5.09.772 10.245 3.137 14.781h-78.388c5.532-8.668 9.709-17.192 9.709-27.794v-45.054c7.355 2.856 15.107 4.654 23.006 5.328 2.84 23.874 19.596 44.722 42.536 52.739zm-103.432-135.393c0-16.649-6.058-32.365-17.132-44.633l12.617-12.617 17.961 17.961c3.746 3.746 6.478 8.424 7.897 13.528 5.042 18.115 20.737 31.217 39.121 33.256l-.001 60.056c-7.858-.87-15.505-3.114-22.573-6.603v-28.201c0-4.142-3.357-7.5-7.5-7.5h-25.532c-3.215-8.006-4.858-16.475-4.858-25.247zm-47.192 138.875c-3.24-5.157-5.33-10.303-5.33-16.496v-82.132h75.412v82.132c0 10.477-7.087 19.298-12.418 27.794h-50.576z"/></svg>