<svg id="Capa_1" enable-background="new 0 0 512 512" height="512" viewBox="0 0 512 512" width="512" xmlns="http://www.w3.org/2000/svg"><g><path d="m285.323 319.157c27.801-5.713 53.151-19.384 73.313-39.536 35.053-35.042 47.565-88.498 31.877-136.186l-45.478-138.278c-1.013-3.077-3.886-5.157-7.125-5.157h-100.41c-4.143 0-7.5 3.358-7.5 7.5s3.357 7.5 7.5 7.5h94.981l43.783 133.122c13.936 42.361 2.854 89.813-28.232 120.89-18.081 18.072-40.81 30.332-65.729 35.452-11.498 2.363-19.843 12.634-19.843 24.421v130.941c0 13.373 10.88 24.253 24.253 24.253h43.144c3.657 0 6.869 3.014 6.874 6.459-.367 3.94-2.521 6.094-6.461 6.462h-148.128c-3.657 0-6.869-3.014-6.874-6.459.367-3.94 2.521-6.094 6.461-6.462h43.557c13.373 0 24.253-10.88 24.253-24.253v-130.941c0-11.788-8.345-22.058-19.843-24.421-24.919-5.12-47.647-17.379-65.728-35.451-31.087-31.077-42.169-78.529-28.232-120.891l43.782-133.122h21.148c4.143 0 7.5-3.358 7.5-7.5s-3.357-7.5-7.5-7.5h-26.576c-3.239 0-6.112 2.08-7.125 5.157l-45.478 138.277c-15.689 47.688-3.177 101.145 31.877 136.187 20.161 20.152 45.512 33.823 73.313 39.536 4.556.936 7.862 5.027 7.862 9.728v130.941c0 5.102-4.15 9.253-9.253 9.253h-43.557c-11.607 0-21.493 9.85-21.461 21.493.017 11.615 10.034 21.428 21.874 21.428h148.128c11.607 0 21.493-9.85 21.461-21.494-.017-11.615-10.033-21.428-21.874-21.428h-43.144c-5.103 0-9.253-4.151-9.253-9.253v-130.94c.001-4.701 3.307-8.792 7.863-9.728z"/><circle cx="188" cy="209.687" r="7.5"/><circle cx="203" cy="229.872" r="7.5"/><path d="m330.221 256.055c3.084 2.769 7.823 2.514 10.592-.567 18.809-20.936 29.167-47.979 29.167-76.148 0-4.142-3.357-7.5-7.5-7.5h-212.961c-4.143 0-7.5 3.358-7.5 7.5 0 62.849 51.132 113.98 113.98 113.98 19.715 0 39.146-5.115 56.191-14.791 3.603-2.045 4.865-6.623 2.82-10.225s-6.623-4.864-10.225-2.82c-14.794 8.397-31.664 12.836-48.787 12.836-52.057 0-94.855-40.391-98.699-91.48h197.396c-1.641 21.729-10.388 42.312-25.042 58.624-2.766 3.081-2.513 7.823.568 10.591z"/></g></svg>