<svg id="Capa_1" enable-background="new 0 0 512 512" height="512" viewBox="0 0 512 512" width="512" xmlns="http://www.w3.org/2000/svg"><g><path d="m300.582 202.097-6.335-107.856c-.243-4.134-3.786-7.295-7.927-7.048-4.135.243-7.29 3.792-7.048 7.927l.396 6.74h-47.334l3.137-59.76h41.061l.708 18.354c.243 4.135 3.785 7.292 7.926 7.048 4.135-.243 7.291-3.792 7.048-7.926l-.683-18.015c2.764-1.105 4.72-3.803 4.72-6.961v-13.46c-.001-11.657-9.484-21.14-21.141-21.14h-38.22c-11.657 0-21.14 9.483-21.14 21.14v13.46c0 3.159 1.955 5.856 4.72 6.961l-9.051 160.536c-21.44 16.992-32.968 50.092-32.968 73.792v208.76c0 15.081 12.269 27.35 27.35 27.35h54.199c4.142 0 7.5-3.358 7.5-7.5s-3.358-7.5-7.5-7.5h-54.2c-6.81 0-12.35-5.54-12.35-12.35v-46.475h125.1v46.475c0 6.81-5.54 12.35-12.35 12.35h-11.532c-4.142 0-7.5 3.358-7.5 7.5s3.358 7.5 7.5 7.5h11.532c15.081 0 27.35-12.269 27.35-27.35v-208.759c0-23.706-11.528-56.807-32.968-73.793zm-69.832-180.957c0-3.386 2.754-6.14 6.14-6.14h38.22c3.386 0 6.14 2.754 6.14 6.14v5.96h-50.5zm-7.783 191.058c1.897-1.313 3.084-3.425 3.22-5.728l5.265-89.61h49.096l5.265 89.61c.136 2.303 1.324 4.417 3.222 5.729 16.388 11.332 26.918 35.93 29.091 56.192h-74.626c-4.142 0-7.5 3.358-7.5 7.5s3.358 7.5 7.5 7.5h75.045v80.166h-125.091v-80.166h15.046c4.142 0 7.5-3.358 7.5-7.5s-3.358-7.5-7.5-7.5h-14.625c2.173-20.259 12.704-44.855 29.092-56.193zm95.579 180.904h-125.092v-14.546h125.092zm-125.092 30.073v-15.073h125.092v15.073z"/><path d="m243 352.5h26c14.796 0 26.833-12.038 26.833-26.833s-12.037-26.834-26.833-26.834h-26c-14.796 0-26.833 12.037-26.833 26.833s12.037 26.834 26.833 26.834zm0-38.667h26c6.525 0 11.833 5.308 11.833 11.833s-5.308 11.834-11.833 11.834h-26c-6.525 0-11.833-5.309-11.833-11.833s5.308-11.834 11.833-11.834z"/><circle cx="263.992" cy="171.88" r="7.5"/><circle cx="248.992" cy="200.333" r="7.5"/></g></svg>