<svg id="Capa_1" enable-background="new 0 0 512 512" height="512" viewBox="0 0 512 512" width="512" xmlns="http://www.w3.org/2000/svg"><g><path d="m417.13 64.833h-.878l-15.884-42.771c-1.031-2.775-3.597-4.684-6.552-4.874l-202.07-12.934c-4.125-.256-7.699 2.872-7.964 7.006s2.872 7.699 7.006 7.964l197.213 12.624 12.25 32.985h-288.502l18.38-49.493 25.61 1.64c4.132.261 7.699-2.872 7.964-7.006s-2.872-7.699-7.006-7.964l-31.177-1.995c-3.314-.209-6.357 1.77-7.51 4.874l-22.262 59.944h-.878c-11.126 0-20.178 9.052-20.178 20.178v48.494c0 4.142 3.358 7.5 7.5 7.5h18.019l3.586 49.558c-4.857-.408-10.361 2.086-9.943 8.026l13.089 186.261c.276 3.928 3.543 6.974 7.481 6.974h264.202l-5.555 76.777c-1.152 15.925-13.941 28.399-29.115 28.399h-175.912c-15.174 0-27.963-12.474-29.115-28.399l-3.505-48.448c-.299-4.131-3.884-7.234-8.021-6.939-4.131.299-7.238 3.891-6.939 8.021l3.505 48.448c1.716 23.729 21.076 42.317 44.075 42.317h175.911c23 0 42.36-18.588 44.076-42.316l5.634-77.86c4.842.723 10.991-1.241 11.393-6.974l7.931-112.858c.291-4.132-2.824-7.717-6.956-8.007-4.129-.291-7.717 2.824-8.007 6.956l-7.441 105.884h-269.17l-12.035-171.261h293.241l-2.039 29.018c-.291 4.132 2.824 7.717 6.956 8.007 4.137.293 7.717-2.824 8.007-6.956l2.603-37.043c.418-5.94-5.086-8.434-9.943-8.026l3.586-49.558h18.019c4.142 0 7.5-3.358 7.5-7.5v-48.494c-.001-11.127-9.053-20.179-20.18-20.179zm-23.965 125.73h-274.33l-3.586-49.558h281.501zm29.144-64.558h-332.618v-40.993c0-2.855 2.323-5.178 5.178-5.178h322.261c2.855 0 5.178 2.323 5.178 5.178v40.993z"/><path d="m256.064 233.48c-.022 0-.043-.002-.064-.002-25.651 0-46.52 20.869-46.52 46.52v22.39c0 25.648 20.863 46.515 46.51 46.52h.006.001.003c25.651 0 46.52-20.869 46.52-46.52v-22.39c0-25.597-20.781-46.427-46.358-46.515-.033-.001-.065-.003-.098-.003zm-31.584 68.908v-22.39c0-12.208 6.982-22.81 17.158-28.043-4.084 12.311-4.266 28.553 8.594 44.031 13.149 15.826 6.005 31.416 2.07 37.698-15.644-1.838-27.822-15.167-27.822-31.296zm63.04-22.39v22.39c0 12.209-6.982 22.81-17.158 28.043 4.084-12.311 4.266-28.553-8.594-44.031-13.139-15.815-6.016-31.393-2.066-37.697 15.641 1.839 27.818 15.168 27.818 31.295z"/></g></svg>