<svg id="Capa_1" enable-background="new 0 0 512 512" height="512" viewBox="0 0 512 512" width="512" xmlns="http://www.w3.org/2000/svg"><g><path d="m407.569 354.386h54.036c27.788 0 50.396-22.607 50.396-50.395v-49.568c0-12.101-4.354-23.802-12.26-32.947-2.709-3.133-7.445-3.476-10.579-.769-3.133 2.709-3.478 7.445-.769 10.579 5.551 6.42 8.607 14.637 8.607 23.136v49.568c0 19.517-15.878 35.395-35.396 35.395h-49.721c1.068-4.84 1.858-9.784 2.346-14.814h45.387c12.444 0 22.568-10.124 22.568-22.568v-45.593c0-12.444-10.124-22.568-22.568-22.568h-44.793v-14.814s48.002.015 48.606.046c.13.007.259.01.387.01 3.968 0 7.281-3.112 7.484-7.12.21-4.137-2.973-7.661-7.109-7.871-.856-.043-49.368-.065-49.368-.065v-13.687c0-4.142-3.357-7.5-7.5-7.5h-201.656c-4.143 0-7.5 3.358-7.5 7.5s3.357 7.5 7.5 7.5h194.157v114.554c0 60.734-49.411 110.145-110.145 110.145h-81.979c-60.734 0-110.145-49.411-110.145-110.145v-114.554h70.777c4.143 0 7.5-3.358 7.5-7.5s-3.357-7.5-7.5-7.5h-78.276c-4.143 0-7.5 3.358-7.5 7.5v122.054c0 47.537 26.644 88.966 65.782 110.145h-121.786c-14.641-.001-26.552 9.931-26.552 22.138 0 7.497 4.438 14.409 11.87 18.488 25.008 13.723 54.417 20.977 85.049 20.977h303.541c30.634 0 60.043-7.254 85.049-20.978 7.433-4.079 11.87-10.99 11.87-18.488 0-12.208-11.91-22.139-26.551-22.139h-48.462c-4.143 0-7.5 3.358-7.5 7.5s3.357 7.5 7.5 7.5h48.462c6.807 0 11.551 3.763 11.551 7.139 0 1.938-1.528 3.934-4.087 5.338-22.801 12.513-49.715 19.127-77.832 19.127h-303.541c-28.116 0-55.03-6.614-77.832-19.128-2.56-1.404-4.087-3.399-4.087-5.337 0-3.376 4.744-7.139 11.552-7.139h359.781c4.143 0 7.5-3.358 7.5-7.5s-3.357-7.5-7.5-7.5h-37.291c27.015-14.617 48.071-38.887 58.527-68.152zm52.048-105.544c4.173 0 7.568 3.395 7.568 7.568v45.593c0 4.173-3.396 7.568-7.568 7.568h-44.793v-60.729z"/><path d="m181.243 141.45c2.484 3.072 7.408 3.693 10.565 1.14 3.222-2.604 3.739-7.304 1.135-10.525-.576-.737-13.954-18.324.554-42.377 20.105-33.332.217-58.071-.64-59.108-2.64-3.193-7.367-3.643-10.559-1.005-3.193 2.638-3.644 7.365-1.006 10.559.143.172 14.035 17.477-.64 41.807-20.074 33.282-.262 58.454.591 59.509z"/><path d="m242.857 141.45c2.484 3.072 7.408 3.693 10.565 1.14 3.222-2.604 3.739-7.304 1.135-10.525-.576-.737-13.954-18.324.554-42.377 20.105-33.332.217-58.071-.64-59.108-2.639-3.193-7.367-3.643-10.559-1.005-3.193 2.638-3.644 7.365-1.006 10.559.143.172 14.035 17.477-.64 41.807-20.074 33.282-.262 58.454.591 59.509z"/><path d="m304.473 141.45c2.484 3.072 7.408 3.693 10.565 1.14 3.222-2.604 3.739-7.304 1.135-10.525-.576-.737-13.954-18.324.554-42.377 20.105-33.332.217-58.071-.64-59.108-2.639-3.193-7.367-3.643-10.559-1.005-3.193 2.638-3.644 7.365-1.006 10.559.143.172 14.035 17.477-.64 41.807-20.074 33.282-.263 58.454.591 59.509z"/></g></svg>