<svg id="Capa_1" enable-background="new 0 0 512 512" height="512" viewBox="0 0 512 512" width="512" xmlns="http://www.w3.org/2000/svg"><g><path d="m321.374 139.264c-.919-14.258-20.483-81.623-25.289-100.646v-31.118c0-4.142-3.357-7.5-7.5-7.5h-205.247c-4.143 0-7.5 3.358-7.5 7.5v31.118c-8.342 33.016-19.302 66.305-25.191 99.832-.027.155-.12 341.97-.12 341.97 0 17.413 14.162 31.58 31.569 31.58h207.73c17.408 0 31.57-14.167 31.57-31.58.002 0-.013-341.008-.022-341.156zm-14.976 333.656h-240.87v-12.079h240.87zm-158.61-84.526c-3.658-1.952-8.198-.567-10.147 3.087-1.95 3.654-.567 8.198 3.087 10.147 27.942 14.905 48.732 32.643 60.705 44.213h-135.905v-69.588c14.119 2.162 28.193 5.709 41.947 10.62.833.297 1.685.438 2.521.438 3.08 0 5.968-1.913 7.063-4.98 1.393-3.901-.641-8.192-4.542-9.585-15.389-5.494-31.165-9.411-46.99-11.675v-213.821h240.87v213.829c-52.125 7.449-93.425 31.336-120.42 51.788-10.695-8.098-23.467-16.62-38.189-24.473zm74.561 57.447c-3.788-4.242-12.013-12.945-24.267-23.296 25.136-18.506 62.211-39.249 108.316-46.301v69.597zm-133.17-398.79h129.485c4.143 0 7.5-3.358 7.5-7.5s-3.357-7.5-7.5-7.5h-127.826v-17.051h190.246v17.051h-25.754c-4.143 0-7.5 3.358-7.5 7.5s3.357 7.5 7.5 7.5h27.413l21.526 85.198h-236.615zm200.649 449.949h-207.731c-6.438 0-12.016-3.701-14.758-9.08h237.247c-2.742 5.379-8.321 9.08-14.758 9.08z"/><path d="m185.961 54.971c-19.122 0-34.679 15.557-34.679 34.679s15.557 34.679 34.679 34.679 34.679-15.557 34.679-34.679-15.557-34.679-34.679-34.679zm0 54.358c-10.851 0-19.679-8.828-19.679-19.679s8.828-19.679 19.679-19.679 19.679 8.828 19.679 19.679-8.828 19.679-19.679 19.679z"/><path d="m257.199 173.844h-142.474c-15.015 0-27.23 12.215-27.23 27.23v77.157c0 15.015 12.216 27.23 27.23 27.23h142.474c15.015 0 27.23-12.215 27.23-27.23v-77.157c0-15.015-12.216-27.23-27.23-27.23zm12.23 104.387c0 6.744-5.486 12.23-12.23 12.23h-142.474c-6.744 0-12.23-5.487-12.23-12.23v-77.157c0-6.744 5.486-12.23 12.23-12.23h142.474c6.744 0 12.23 5.486 12.23 12.23z"/><path d="m453.972 273.254h-21.642c-4.143 0-7.5 3.358-7.5 7.5s3.357 7.5 7.5 7.5h14.142v25.38h-93.878v-25.38h43.939c4.143 0 7.5-3.358 7.5-7.5s-3.357-7.5-7.5-7.5h-51.439c-4.143 0-7.5 3.358-7.5 7.5v199.75c0 17.367 14.13 31.497 31.497 31.497h60.884c17.367 0 31.497-14.129 31.497-31.497v-199.75c0-4.142-3.357-7.5-7.5-7.5zm-23.997 223.746h-60.884c-9.097 0-16.497-7.4-16.497-16.497v-151.87h93.878v151.87c0 9.097-7.4 16.497-16.497 16.497z"/><path d="m223.961 218.881h-76c-4.143 0-7.5 3.358-7.5 7.5s3.357 7.5 7.5 7.5h76c4.143 0 7.5-3.358 7.5-7.5s-3.357-7.5-7.5-7.5z"/><path d="m223.961 248.5h-76c-4.143 0-7.5 3.358-7.5 7.5s3.357 7.5 7.5 7.5h76c4.143 0 7.5-3.358 7.5-7.5s-3.357-7.5-7.5-7.5z"/></g></svg>