<svg id="Capa_1" enable-background="new 0 0 512 512" height="512" viewBox="0 0 512 512" width="512" xmlns="http://www.w3.org/2000/svg"><g><path d="m489.302 192.17c-1.263-2.562-3.871-4.184-6.727-4.184h-33.575c-4.142 0-7.5 3.358-7.5 7.5s3.358 7.5 7.5 7.5h28.854c10.772 23.131 17.041 47.661 18.699 73.133-37.811-17.288-100.64-18.115-134.735 4.333-14.542-9.57-41.428-15.546-71.345-15.546s-56.803 5.977-71.345 15.546c-34.135-22.475-96.904-21.631-134.735-4.333 1.659-25.472 7.927-50.002 18.699-73.133h310.908c4.142 0 7.5-3.358 7.5-7.5s-3.358-7.5-7.5-7.5h-17.873v-85.255c0-2.354 1.916-4.27 4.27-4.27h76.926c4.142 0 7.5-3.358 7.5-7.5v-35.196c0-4.142-3.358-7.5-7.5-7.5h-92.413c-21.494 0-38.98 17.486-38.98 38.98v100.742h-149.502l-66.502-66.502c28.039-28.763 52.096-59.36 69.824-88.854 3.372-5.611-1.877-12.716-8.23-11.144l-53.626 13.273c-4.021.995-6.473 5.062-5.478 9.083.996 4.021 5.063 6.474 9.083 5.478l35.452-8.775c-9.77 14.587-21.024 29.332-33.455 43.868l-58.149-21.195 22.663-5.61c4.021-.995 6.473-5.062 5.478-9.083s-5.062-6.473-9.083-5.478l-46.524 11.517c-2.661.654-4.83 2.822-5.482 5.484l-33.079 133.635c-1.575 6.361 5.557 11.588 11.144 8.23 32.332-19.433 61.876-43.526 88.854-69.824l55.896 55.896h-76.844c-2.856 0-5.464 1.622-6.727 4.184-13.443 27.273-20.953 56.412-22.416 86.758-20.671-7.657-36.208-10.384-37.496-10.602-2.395-.405-4.837.374-6.555 2.092-1.717 1.717-2.497 4.16-2.092 6.555.384 2.268 9.157 52.259 41.152 94.237-34.565 9.017-59.903 26.811-61.081 27.648-1.979 1.407-3.155 3.685-3.155 6.114s1.176 4.707 3.156 6.114c1.607 1.142 37.771 26.506 82.831 31.802-1.109 14.889 5.259 30.034 18.106 39.368 7.813 5.677 16.926 8.411 25.979 8.411 10.734-.001 21.382-3.848 29.658-11.195 15.255 13.544 38.561 15.192 55.637 2.785 17.077-12.406 22.711-35.081 14.544-53.774 17.595-10.322 26.364-31.979 19.841-52.054-6.523-20.076-26.352-32.443-46.648-30.449-4.38-19.923-22.267-34.956-43.375-34.956-8.631 0-16.722 2.516-23.573 6.849-13.816-12.333-29.119-21.785-43.661-28.955 19.044-7.987 41.215-9.519 61.601-8.92 30.908.908 52.509 8.391 59.866 15.374 2.894 2.747 7.429 2.748 10.324.003 7.858-7.451 31.923-15.47 66.187-15.47s58.328 8.019 66.187 15.47c2.894 2.744 7.43 2.743 10.324-.003 23.876-22.663 99.759-23.303 129.987-1.91-1.339 77.291-46.605 148.379-116.23 182.274h-136.306c-4.142 0-7.5 3.358-7.5 7.5s3.358 7.5 7.5 7.5h138.018c1.117 0 2.219-.25 3.227-.73 37.248-17.755 68.772-45.517 91.166-80.284 22.998-35.708 35.154-77.131 35.154-119.789 0-34.315-7.637-67.207-22.698-97.763zm-375.25-75.953c-6.482 6.482-13.069 12.75-19.721 18.79l-22.09-60.6 60.601 22.089c-6.04 6.652-12.308 13.239-18.79 19.721zm-52.999-28.704 21.195 58.147c-14.536 12.431-29.281 23.685-43.869 33.455zm299.877-.268c0-13.223 10.757-23.98 23.98-23.98h84.912v20.197h-69.426c-10.625 0-19.27 8.644-19.27 19.27v85.255h-20.196zm-287.57 209.522c.04.018.08.038.121.055l.002.001c.002.001.004.001.006.002.03.013.061.022.091.035 16.474 6.92 35.093 16.94 51.352 31.118-4.117 5.198-7.109 11.322-8.577 18.001-15.261-1.498-30.24 5.114-39.513 17.008-21.501-27.884-32.079-60.567-36.43-77.34 8.068 2.087 19.819 5.621 32.948 11.12zm-5.604 89.043c-1.624 16.897 6.702 33.497 21.217 42.317-28.56-3.105-53.957-15.528-67.277-23.158 9.904-5.678 26.491-13.995 46.06-19.159zm121.369-30.803c.035 2.361 1.18 4.568 3.091 5.957 1.911 1.388 4.364 1.796 6.62 1.099 15.274-4.713 31.713 3.81 36.649 19.001s-3.354 31.75-18.481 36.913c-2.235.763-3.98 2.534-4.71 4.78s-.359 4.705 1.001 6.636c9.203 13.068 6.177 31.338-6.746 40.728-12.924 9.388-31.234 6.621-40.818-6.17-1.417-1.89-3.64-3.002-6.002-3.002s-4.586 1.113-6.002 3.002c-9.584 12.792-27.896 15.558-40.818 6.17-12.922-9.389-15.949-27.659-6.746-40.728 1.36-1.931 1.731-4.39 1.001-6.636-.729-2.247-2.475-4.018-4.71-4.781-15.126-5.163-23.417-21.722-18.481-36.913 4.855-14.942 21.667-23.626 36.649-19.001 2.255.696 4.709.29 6.621-1.099 1.911-1.388 3.056-3.595 3.09-5.957.236-15.981 13.423-28.983 29.396-28.983s29.16 13.002 29.396 28.984z"/><path d="m123.942 404.972c0 19.733 16.054 35.787 35.787 35.787s35.788-16.054 35.788-35.787-16.054-35.788-35.788-35.788c-19.733 0-35.787 16.054-35.787 35.788zm35.787-20.788c11.462 0 20.788 9.325 20.788 20.788 0 11.462-9.325 20.787-20.788 20.787-11.462 0-20.787-9.325-20.787-20.787 0-11.463 9.325-20.788 20.787-20.788z"/></g></svg>