<svg id="Capa_1" enable-background="new 0 0 512 512" height="512" viewBox="0 0 512 512" width="512" xmlns="http://www.w3.org/2000/svg"><g><path d="m273.003 174.797-46.438-20.005c-3.028-1.305-4.985-4.278-4.985-7.575v-70.697c2.651-1.157 4.505-3.797 4.505-6.874v-49.104c0-11.327-9.215-20.542-20.542-20.542h-51.671c-11.327 0-20.542 9.215-20.542 20.542v49.104c0 3.077 1.855 5.718 4.505 6.874v70.696c0 3.297-1.957 6.271-4.984 7.575l-46.439 20.006c-8.535 3.677-14.049 12.058-14.049 21.351v274.573c0 3.708.823 7.445 2.38 10.808l7.201 15.554c4.195 9.062 13.358 14.917 23.344 14.917h148.839c9.986 0 19.149-5.855 23.344-14.917l7.201-15.554c1.557-3.364 2.38-7.101 2.38-10.807v-167.222c0-4.142-3.358-7.5-7.5-7.5s-7.5 3.358-7.5 7.5v131h-184.69v-205.062h184.69v38.562c0 4.142 3.358 7.5 7.5 7.5s7.5-3.358 7.5-7.5v-71.852c.001-9.293-5.514-17.673-14.049-21.351zm-119.131-159.797h51.671c3.056 0 5.542 2.486 5.542 5.542v6.373h-22.585c-4.142 0-7.5 3.358-7.5 7.5s3.358 7.5 7.5 7.5h22.585v20.229h-62.756v-20.228h5.17c4.142 0 7.5-3.358 7.5-7.5s-3.358-7.5-7.5-7.5h-5.17v-6.373c0-3.057 2.487-5.543 5.543-5.543zm118.181 434.5v21.222c0 1.545-.343 3.103-.992 4.506l-7.202 15.554c-1.749 3.778-5.569 6.219-9.732 6.219h-148.839c-4.163 0-7.983-2.441-9.731-6.219l-7.202-15.554c-.649-1.402-.992-2.96-.992-4.505v-21.223zm-184.691-235.062v-18.29c0-3.297 1.957-6.271 4.984-7.575l46.439-20.006c8.535-3.677 14.049-12.058 14.049-21.351v-70.07h53.745v70.071c0 9.293 5.515 17.674 14.05 21.351l46.438 20.005c3.028 1.305 4.985 4.278 4.985 7.575v18.29z"/><path d="m249.207 257.737c0-4.142-3.358-7.5-7.5-7.5h-124c-4.142 0-7.5 3.358-7.5 7.5v29.335c0 4.142 3.358 7.5 7.5 7.5h124c4.142 0 7.5-3.358 7.5-7.5zm-15 21.835h-109v-14.335h109z"/><path d="m247.892 340c0-9.916-7.961-18.657-22.417-24.612-12.347-5.086-28.601-7.888-45.767-7.888s-33.42 2.801-45.767 7.888c-14.456 5.956-22.417 14.696-22.417 24.612s7.961 18.657 22.417 24.612c12.347 5.086 28.601 7.888 45.767 7.888s33.42-2.801 45.767-7.888c14.455-5.955 22.417-14.696 22.417-24.612zm-121.369 0c0-5.939 18.772-17.5 53.184-17.5s53.184 11.561 53.184 17.5-18.772 17.5-53.184 17.5-53.184-11.561-53.184-17.5z"/><path d="m147.374 386.167c-4.142 0-7.5 3.358-7.5 7.5s3.358 7.5 7.5 7.5h64.667c4.142 0 7.5-3.358 7.5-7.5s-3.358-7.5-7.5-7.5z"/><path d="m439.6 365.747c.211-2.109-.48-4.208-1.902-5.779s-3.442-2.468-5.561-2.468h-121.742c-2.119 0-4.139.896-5.561 2.468s-2.113 3.67-1.902 5.779l5.878 58.739c.413 4.122 4.092 7.127 8.21 6.716 4.121-.413 7.128-4.088 6.716-8.21l-1.443-14.422h97.946l-7.722 77.161c-.643 6.424-5.996 11.269-12.452 11.269h-57.599c-6.456 0-11.809-4.844-12.452-11.269l-2.55-25.479c-.413-4.121-4.084-7.129-8.21-6.716-4.122.413-7.128 4.088-6.716 8.21l2.55 25.478c1.415 14.125 13.184 24.776 27.379 24.776h57.599c14.194 0 25.964-10.651 27.377-24.774zm-118.808 27.823-2.109-21.07h105.167l-2.109 21.07z"/></g></svg>