<svg id="Capa_1" enable-background="new 0 0 512.001 512.001" height="512" viewBox="0 0 512.001 512.001" width="512" xmlns="http://www.w3.org/2000/svg"><g><path d="m356.897 335.356c-3.263-2.548-7.978-1.97-10.526 1.296-7.173 9.187-15.609 17.258-25.075 23.992-14.817 10.535-31.373 17.526-49.207 20.778-3.564.65-6.154 3.755-6.154 7.378v63.094c0 12.161 9.898 22.055 22.065 22.055h25.433c13.491 0 25.382 9.857 27.931 23.053h-39.695c-4.143 0-7.5 3.358-7.5 7.5s3.357 7.5 7.5 7.5h47.712c5.13 0 7.916-5.005 7.5-9.605 0-23.654-19.782-43.448-43.447-43.448h-25.434c-3.896 0-7.065-3.165-7.065-7.055v-56.98c17.674-4.047 34.148-11.448 49.055-22.046 10.649-7.575 20.139-16.654 28.204-26.984 2.549-3.266 1.969-7.979-1.297-10.528z"/><path d="m399.825 18.091c-.515-1.921-1.771-3.56-3.494-4.554l-21.704-12.531c-3.589-2.072-8.175-.842-10.245 2.745l-36.779 63.704h-188.977c-3.83 0-7.045 2.886-7.457 6.694l-18.425 170.525c-5.437 50.301 16.312 99.422 56.761 128.194 14.906 10.598 31.38 17.999 49.053 22.045v56.98c0 3.89-3.169 7.055-7.065 7.055h-25.432c-23.677 0-43.448 19.84-43.448 43.448-.38 4.578 2.292 9.605 7.5 9.605h115.555c4.143 0 7.5-3.358 7.5-7.5s-3.357-7.5-7.5-7.5h-107.536c2.562-13.231 14.49-23.053 27.93-23.053h25.432c12.167 0 22.065-9.894 22.065-22.055v-63.093c0-3.623-2.59-6.729-6.155-7.378-63.324-11.546-106.614-71.594-99.746-135.135l17.702-163.832h173.583l-15.4 26.674h-66.186c-4.142 0-7.5 3.358-7.5 7.5s3.358 7.5 7.5 7.5h57.525l-28.579 49.5h-105.921l5.295-49.5h34.825c4.142 0 7.5-3.358 7.5-7.5s-3.358-7.5-7.5-7.5h-41.566c-3.833 0-7.05 2.891-7.458 6.702l-14.068 131.523c-7.089 66.279 45.478 125.914 112.337 125.914 66.862 0 119.427-59.647 112.337-125.914 0 0-14.403-133.194-14.757-133.939l8.552-14.812 15.957 147.684c2.263 20.935-.758 42.228-8.734 61.575-1.579 3.83.245 8.214 4.075 9.792 3.827 1.58 8.213-.246 9.792-4.075 8.93-21.658 12.312-45.484 9.781-68.904l-18.162-168.086 30.488-52.807c.994-1.722 1.264-3.77.749-5.691zm-63.562 64.364h11.618l-15.4 26.674h-11.618zm-12.443 41.674-89.731 155.418-8.713-5.03 86.826-150.388zm22.843 120.08h-74.85l32.089-55.58h36.816zm-89.02-55.58-32.089 55.58h-72.722l5.945-55.58zm51.1 150.052c-17.135 12.814-37.535 19.587-58.996 19.587-28.405 0-56.101-12.509-74.516-34.207h29.772c4.142 0 7.5-3.358 7.5-7.5s-3.358-7.5-7.5-7.5h-40.24c-8.486-14.966-13.078-32.175-13.001-49.852h65.132l-8.258 14.303c-.995 1.723-1.264 3.77-.75 5.691.515 1.921 1.772 3.559 3.495 4.554l21.704 12.53c1.181.682 2.471 1.006 3.743 1.006 2.592 0 5.113-1.346 6.502-3.751l19.823-34.333h84.581c.076 17.677-4.516 34.886-13.002 49.852h-93.229c-4.142 0-7.5 3.358-7.5 7.5s3.358 7.5 7.5 7.5h82.761c-4.583 5.399-9.769 10.317-15.521 14.62zm30.369-165.052h-26.551l22.401-38.799zm17.429-106.174h-11.618l28.699-49.708 8.714 5.031z"/><circle cx="193.002" cy="148.647" r="7.5"/><circle cx="276.335" cy="282.228" r="7.5"/></g></svg>