<svg id="Capa_1" enable-background="new 0 0 512 512" height="512" viewBox="0 0 512 512" width="512" xmlns="http://www.w3.org/2000/svg"><g><path d="m404.752 39.785c2.071-3.587.842-8.174-2.745-10.245l-21.65-12.5c-1.724-.995-3.771-1.263-5.691-.75-1.921.515-3.56 1.772-4.554 3.495l-39.086 67.698c-3.506-1.725-7.228-3.07-11.113-3.996-4.19-21.876-19.517-31.377-45.377-40.531-.078-.027-.157-.054-.236-.079-24.232-7.685-32.33-16.988-29.879-34.327.392-2.767-.787-5.521-3.059-7.148s-5.26-1.856-7.752-.595c-12.573 6.359-32.444 22.676-28.947 43.223-10.479 2.661-19.607 7.307-25.362 13.061-7.349 7.349-12.465 16.346-14.996 26.258-23.137 5.235-40.618 25.522-41.563 49.992h-8.998c-2.063 0-4.034.85-5.451 2.349-1.417 1.5-2.153 3.516-2.037 5.576l4.314 76.175c.235 4.135 3.769 7.299 7.912 7.063 4.136-.234 7.299-3.776 7.064-7.912l-3.866-68.25h15.28l14.746 306.316c.544 11.298 9.83 20.147 21.141 20.147h84.653c4.143 0 7.5-3.358 7.5-7.5s-3.357-7.5-7.5-7.5h-84.653c-3.295 0-6-2.578-6.158-5.869l-10.207-212.028h170.656l-10.208 212.028c-.158 3.291-2.863 5.868-6.158 5.868h-17.772c-4.143 0-7.5 3.358-7.5 7.5s3.357 7.5 7.5 7.5h17.772c11.311 0 20.597-8.85 21.141-20.147l14.746-306.316h15.28l-18.59 328.162c-.651 11.494-10.179 20.497-21.69 20.497h-159.699c-11.513 0-21.04-9.003-21.69-20.498l-12.742-224.938c-.235-4.136-3.803-7.31-7.912-7.063-4.136.234-7.299 3.776-7.064 7.912l12.742 224.938c1.099 19.429 17.205 34.649 36.666 34.649h159.699c19.46 0 35.565-15.22 36.667-34.649l19.038-336.086c.116-2.06-.62-4.076-2.037-5.576-1.417-1.499-3.389-2.349-5.451-2.349h-8.998c-.182-4.708-.968-9.263-2.297-13.585zm-25.401-6.005 8.66 5-37.515 64.978c-2.089-2.827-4.445-5.445-7.039-7.808zm-51.492 193.127h-172.1l-3.782-78.566h179.664zm-190.115-93.566c1.086-20.21 17.871-36.319 38.347-36.319h76.159c4.143 0 7.5-3.358 7.5-7.5s-3.357-7.5-7.5-7.5h-71.779c2.107-5.32 5.289-10.176 9.436-14.324 4.921-4.921 14.941-9.046 25.527-10.509 2.395-.331 4.482-1.796 5.608-3.935 1.127-2.139 1.153-4.689.071-6.851-2.265-4.525-4.192-11.686 5.169-21.585 1.087-1.15 2.225-2.223 3.363-3.21 4.228 24.109 28.498 31.882 40 35.53 21.658 7.677 30.881 13.875 34.472 24.884h-15.617c-4.143 0-7.5 3.358-7.5 7.5s3.357 7.5 7.5 7.5h19.028c20.037 0 37.269 16.257 38.347 36.319z"/><circle cx="299.166" cy="285.167" r="7.5"/><circle cx="277.666" cy="311.573" r="7.5"/></g></svg>