<svg id="Capa_1" enable-background="new 0 0 512 512" height="512" viewBox="0 0 512 512" width="512" xmlns="http://www.w3.org/2000/svg"><g><path d="m196.751 356.438c.326 3.916 3.605 6.877 7.466 6.877.208 0 .419-.009.631-.026 4.127-.344 7.195-3.969 6.851-8.097-7.42-89.042-21.621-178.205-42.232-265.19h100.032c4.142 0 7.5-3.358 7.5-7.5s-3.358-7.5-7.5-7.5h-87.521c5.875-6.619 9.201-14.006 9.928-22.104 2.417-26.937-26.024-50.252-27.236-51.231-2.75-2.222-6.678-2.222-9.428 0-.702.567-15.538 12.701-23.053 29.31-9.32-1.215-16.861-.472-17.496-.404-3.516.373-6.293 3.151-6.667 6.667-.141 1.325-3.24 32.635 14.655 47.584 8.829 7.374 20.724 8.647 31.705 6.69 20.69 86.874 34.951 175.959 42.365 264.924zm-36.773-338.766c7.568 7.601 18.143 21.246 16.986 33.917-.468 5.125-2.863 9.956-7.15 14.451-.486-14.64-9.255-26.021-22.758-31.363 3.708-7.075 9.083-13.164 12.922-17.005zm-27.656 55.657c-7.501-6.243-9.426-19.233-9.596-28.021 19.329.338 35.898 9.114 31.075 31.038-9.374 2.062-16.589 1.053-21.479-3.017z"/><path d="m404.007 26.345c-.515-1.921-1.772-3.559-3.495-4.554l-22.312-12.881c-3.587-2.072-8.174-.842-10.245 2.745l-36.573 63.346h-26.383c-4.142 0-7.5 3.358-7.5 7.5s3.358 7.5 7.5 7.5h17.723l-24.306 42.1h-36.052c-.353-18.86-15.794-34.096-34.737-34.096-19.163 0-34.753 15.59-34.753 34.753 0 3.354.487 6.596 1.378 9.667 14.453 60.006 25.357 142.697 29.199 221.578.324 28.521 3.192 57.202 4.782 85.684.222 3.974 3.508 7.082 7.488 7.082h62.343c3.98 0 7.267-3.108 7.488-7.082l4.783-85.695c1.442-29.627 3.865-59.219 7.124-88.701.455-4.117-2.514-7.824-6.63-8.279-4.119-.449-7.823 2.514-8.279 6.63-.777 7.034-1.505 14.124-2.188 21.224-6.007-4.953-13.7-7.932-22.076-7.932-19.163 0-34.753 15.59-34.753 34.753 0 3.834.614 7.561 1.801 11.091-3.034 1.065-5.864 2.565-8.417 4.426-1.61-23.958-3.82-48.014-6.544-71.456 0 0 24.439 13.69 25.712 13.69 2.592 0 5.113-1.346 6.502-3.751l52.875-91.583c-3.016 16.476-5.799 33.995-8.328 52.445-.563 4.104 2.309 7.887 6.412 8.449 4.037.553 7.892-2.346 8.449-6.412 4.933-35.996 10.836-68.344 17.543-96.185l21.111-36.565c-23.219 102.127-37.559 206.701-42.646 311.234l-2.404 49.385h-97.414s-3.287-66.302-3.814-74.693c-.26-4.135-3.822-7.27-7.956-7.015-4.134.26-7.275 3.821-7.015 7.956.523 8.321 4.045 79.465 4.045 79.465l-16.073 28.666c-1.302 2.322-1.275 5.161.07 7.458 1.346 2.298 3.809 3.709 6.472 3.709h145.957c2.663 0 5.126-1.412 6.472-3.709s1.373-5.136.07-7.458l-16.073-28.665 2.646-54.368c5.459-112.174 21.653-224.39 48.131-333.53.542-2.235.029-4.596-1.393-6.404-.544-.692-1.199-1.271-1.928-1.726l25.463-44.103c.993-1.724 1.263-3.771.748-5.693zm-197.289 470.655 8.716-15.545h102.916l8.716 15.545zm133.324-406.999h12.43l-24.306 42.1h-12.429zm-112.416 23.004c10.892 0 19.753 8.861 19.753 19.753s-8.861 19.753-19.753 19.753c-10.758 0-19.753-9.081-19.753-19.753 0-10.892 8.861-19.753 19.753-19.753zm63.344 328.765h-48.156l-2.774-49.703c4.754 2.701 10.243 4.252 16.091 4.252 18.025 0 32.689-14.665 32.689-32.689 0-2.937-.396-5.782-1.125-8.492 2.935-.827 5.715-2.027 8.282-3.552-.226 3.91-5.007 90.184-5.007 90.184zm-12.685-139.835c10.846 0 19.673 8.79 19.746 19.62-.789 10.034-7.304 18.859-18.006 19.799-4.916-5.269-11.544-8.921-18.993-10.046-1.638-2.921-2.5-6.193-2.5-9.619 0-10.892 8.861-19.754 19.753-19.754zm-22.218 44.007c9.564.971 17.753 7.227 17.753 17.686 0 9.754-7.936 17.689-17.689 17.689-9.07 0-16.558-6.864-17.565-15.669-1.101-10.302 7.044-19.668 17.501-19.706zm-41.458-180.969c4.023 1.632 8.415 2.539 13.017 2.539 14.05 0 26.171-8.386 31.643-20.411h30.486l-60.964 105.594c-3.915-31.179-8.719-60.994-14.182-87.722zm38.736 96.721-9.322-5.382 63.053-109.211h12.43zm107.787-186.693h-12.429l28.493-49.351 9.322 5.382z"/><circle cx="258.39" cy="420.5" r="7.5"/></g></svg>