<svg id="Capa_1" enable-background="new 0 0 512 512" height="512" viewBox="0 0 512 512" width="512" xmlns="http://www.w3.org/2000/svg"><path d="m447.073 293.867c0-77.679-61.214-141.329-137.937-145.247v-30.382h8.14c4.143 0 7.5-3.358 7.5-7.5v-25.24c0-4.142-3.357-7.5-7.5-7.5h-102.551v-37.757h37.975c4.142 0 7.5-3.358 7.5-7.5v-25.241c0-4.142-3.358-7.5-7.5-7.5h-90.95c-4.142 0-7.5 3.358-7.5 7.5v25.241c0 4.142 3.358 7.5 7.5 7.5h37.975v37.756h-44.725c-4.142 0-7.5 3.358-7.5 7.5s3.358 7.5 7.5 7.5h154.776v10.241h-205.103v-10.24h15.327c4.142 0 7.5-3.358 7.5-7.5s-3.358-7.5-7.5-7.5h-22.827c-4.142 0-7.5 3.358-7.5 7.5v25.241c0 3.393 2.255 6.257 5.347 7.183l-27.897 27.897c-1.407 1.406-2.197 3.314-2.197 5.303s.79 3.897 2.197 5.303l38.189 38.189v270.816l-32.251 33.901c-2.068 2.173-2.642 5.369-1.459 8.125 1.182 2.757 3.893 4.544 6.893 4.544h257.46c2.999 0 5.711-1.787 6.893-4.544 1.183-2.756.608-5.953-1.459-8.125l-32.252-33.901v-26.316c76.722-3.918 137.936-67.568 137.936-145.247zm-277.823-278.867h75.95v10.241h-75.95zm262.823 278.867c0 69.408-54.487 126.328-122.937 130.225v-12.788c8.733-.55 17.349-2.063 25.704-4.516 3.974-1.167 6.25-5.335 5.083-9.309-1.167-3.975-5.33-6.253-9.31-5.083-6.983 2.05-14.179 3.345-21.478 3.872v-204.798c53.125 3.855 95.171 48.306 95.171 102.397 0 33.494-16.407 64.968-43.888 84.193-3.395 2.375-4.221 7.051-1.847 10.445s7.05 4.221 10.444 1.846c31.49-22.03 50.29-58.099 50.29-96.484 0-62.366-48.768-113.555-110.171-117.436v-12.789c68.452 3.898 122.939 60.818 122.939 130.225zm-137.938 130.438h-173.822v-21.347h173.824zm0 36.619h-173.82v-21.619h173.82zm0-72.966h-173.82v-30.434h173.82zm-173.82-45.434v-82.936h79.41v82.936zm173.822-97.936h-24.387c-4.143 0-7.5 3.358-7.5 7.5s3.357 7.5 7.5 7.5h24.385v82.936h-79.41v-82.936h20.025c4.142 0 7.5-3.358 7.5-7.5s-3.358-7.5-7.5-7.5h-20.025v-81.32h53.443c9.063 0 16.435-7.373 16.435-16.435v-28.594h9.534zm-149.29-126.349h124.755v28.594c0 .792-.644 1.435-1.435 1.435h-121.884c-.792 0-1.436-.644-1.436-1.435zm-61.814 32.883 32.883-32.883h13.931v28.594c0 9.063 7.373 16.435 16.436 16.435h53.442v81.32h-79.412v-53.08c0-1.989-.79-3.897-2.197-5.303zm12.949 345.878 20.05-21.075h182.386l20.05 21.075z"/></svg>