<svg id="Capa_1" enable-background="new 0 0 512 512" height="512" viewBox="0 0 512 512" width="512" xmlns="http://www.w3.org/2000/svg"><g><path d="m365.628 426.652c4.731-8.384 6.378-19.935 6.378-29.364v-28.568h67.603c21.964 0 39.833-17.869 39.833-39.833v-105.204c0-21.964-17.869-39.833-39.833-39.833h-67.603v-9.833c8.811-3.257 15.11-11.742 15.11-21.671 0-12.734-10.36-23.095-23.095-23.095h-61.786c-4.143 0-7.5 3.358-7.5 7.5s3.357 7.5 7.5 7.5h61.786c4.464 0 8.095 3.631 8.095 8.095s-3.631 8.095-8.095 8.095h-242.446c-4.463 0-8.094-3.631-8.094-8.095s3.631-8.095 8.094-8.095h144.356c4.143 0 7.5-3.358 7.5-7.5s-3.357-7.5-7.5-7.5h-144.356c-12.734 0-23.094 10.36-23.094 23.095 0 9.929 6.298 18.414 15.109 21.671v154.483c0 4.142 3.357 7.5 7.5 7.5s7.5-3.358 7.5-7.5v-153.058h228.415v221.846c0 6.365-1.082 12.479-3.045 18.186h-222.324c-1.964-5.707-3.045-11.821-3.045-18.186v-32.788c0-4.142-3.357-7.5-7.5-7.5s-7.5 3.358-7.5 7.5v32.788c0 21.743 10.322 42.687 27.463 56.047h-91.032c-12.624 0-20.289 13.983-16.484 25.279 6.724 19.969 24.163 33.386 43.392 33.386h279.165c4.143 0 7.5-3.358 7.5-7.5s-3.357-7.5-7.5-7.5h-279.165c-12.784 0-24.51-9.313-29.178-23.173-.468-1.389-.19-5.492 2.27-5.492h406.266c2.46 0 2.738 4.102 2.27 5.491-4.669 13.862-16.394 23.174-29.178 23.174h-37.558c-4.143 0-7.5 3.358-7.5 7.5s3.357 7.5 7.5 7.5h37.558c19.229 0 36.668-13.417 43.393-33.386 3.797-11.272-3.797-25.279-16.484-25.279h-111.746c9.015-7.026 16.292-16.17 21.085-26.683zm6.378-196.612h58.558c1.482 0 2.688 1.206 2.688 2.688v87.114c0 1.482-1.206 2.688-2.688 2.688h-58.558zm67.602-31.19c13.693 0 24.833 11.14 24.833 24.833v105.204c0 13.693-11.14 24.833-24.833 24.833h-67.603v-16.189h58.558c9.754 0 17.688-7.935 17.688-17.688v-87.114c0-9.753-7.935-17.688-17.688-17.688h-58.558v-16.191zm-254.97 254.485c-18.494 0-34.917-9.008-45.131-22.861h206.582c-10.214 13.853-26.637 22.861-45.13 22.861z"/><path d="m337.397 246.046c0-24.028-19.549-43.577-43.577-43.577-15.82 0-30.4 8.749-38.024 22.298-8.61-1.305-17.385-1.306-25.995-.001-7.624-13.55-22.204-22.298-38.024-22.298-24.028 0-43.576 19.548-43.576 43.577 0 13.161 6.077 25.646 16.165 33.854-1.915 6.5-2.96 13.335-2.96 20.4 0 22.939 10.806 44.472 29.65 59.082 29.827 23.087 73.684 23.054 103.493-.013 18.841-14.598 29.646-36.128 29.646-59.069 0-7.065-1.045-13.902-2.961-20.402 10.087-8.207 16.163-20.691 16.163-33.851zm-174.197 0c0-15.757 12.819-28.577 28.576-28.577 8.942 0 17.274 4.266 22.609 11.13-18.978 6.669-34.607 19.818-43.857 36.567-4.674-5.163-7.328-11.892-7.328-19.12zm79.595 115.784c-13.58 0-27.122-3.877-38.464-11.385-.282-.186-.564-.368-.845-.56 1.542-10.241 7.918-18.997 17.027-24.462.724 10.16 9.2 18.21 19.54 18.21h5.489c10.34 0 18.815-8.048 19.541-18.206 9.104 5.463 15.481 14.213 17.028 24.445-11.499 7.885-25.403 11.958-39.316 11.958zm0-42.42c1.324 0 2.632.06 3.922.17 1.973.523 3.439 2.307 3.439 4.442 0 2.543-2.069 4.612-4.612 4.612h-5.489c-2.543 0-4.611-2.069-4.611-4.612 0-2.136 1.467-3.921 3.441-4.443 1.285-.109 2.589-.169 3.91-.169zm51.88 19.255c-6.593-18.296-24.179-31.718-45.629-33.924-3.779-.685-8.684-.686-12.475-.003-21.463 2.197-39.057 15.623-45.65 33.928-9.325-10.812-14.517-24.269-14.517-38.367 0-33.922 29.782-61.52 66.39-61.52 36.613 0 66.4 27.598 66.4 61.52.001 14.102-5.194 27.559-14.519 38.366zm20.395-73.5c-9.251-16.748-24.881-29.896-43.86-36.565 5.335-6.865 13.667-11.131 22.61-11.131 15.758 0 28.577 12.819 28.577 28.577 0 7.227-2.654 13.955-7.327 19.119z"/><path d="m178.53 108.364c2.486 3.076 7.393 3.667 10.548 1.117 3.221-2.604 3.721-7.327 1.116-10.547-.134-.166-13.219-16.812.59-39.705 19.208-31.845.18-55.513-.64-56.505-2.639-3.195-7.367-3.643-10.559-1.006-3.193 2.638-3.644 7.365-1.006 10.559.133.161 13.138 16.362-.64 39.205-19.178 31.795-.225 55.873.591 56.882z"/><path d="m236.966 108.364c2.486 3.076 7.393 3.667 10.548 1.117 3.221-2.604 3.721-7.327 1.116-10.547-.134-.166-13.219-16.812.59-39.705 19.209-31.845.18-55.513-.64-56.505-2.639-3.192-7.367-3.643-10.559-1.005-3.193 2.638-3.644 7.365-1.006 10.559.133.161 13.139 16.361-.64 39.205-19.177 31.794-.225 55.872.591 56.881z"/><path d="m295.403 108.364c2.486 3.076 7.393 3.667 10.548 1.117 3.221-2.604 3.721-7.327 1.116-10.547-.134-.166-13.219-16.812.59-39.705 19.209-31.845.18-55.513-.64-56.505-2.639-3.192-7.366-3.643-10.559-1.005s-3.644 7.365-1.006 10.559c.133.161 13.139 16.361-.64 39.205-19.178 31.794-.225 55.872.591 56.881z"/><path d="m207.655 274.623c-10.758 0-19.51 8.752-19.51 19.51 0 4.142 3.357 7.5 7.5 7.5s7.5-3.358 7.5-7.5c0-2.487 2.023-4.51 4.51-4.51s4.51 2.023 4.51 4.51c0 4.142 3.357 7.5 7.5 7.5s7.5-3.358 7.5-7.5c0-10.758-8.752-19.51-19.51-19.51z"/><path d="m277.942 274.623c-10.758 0-19.511 8.752-19.511 19.51 0 4.142 3.357 7.5 7.5 7.5s7.5-3.358 7.5-7.5c0-2.487 2.023-4.51 4.511-4.51 2.486 0 4.51 2.023 4.51 4.51 0 4.142 3.357 7.5 7.5 7.5s7.5-3.358 7.5-7.5c0-10.758-8.752-19.51-19.51-19.51z"/></g></svg>