<svg id="Capa_1" enable-background="new 0 0 512.002 512.002" height="512" viewBox="0 0 512.002 512.002" width="512" xmlns="http://www.w3.org/2000/svg"><g><path d="m437.986 18.243c-.515-1.921-1.771-3.559-3.494-4.554l-21.968-12.682c-3.59-2.072-8.175-.842-10.245 2.745l-30.242 52.381h-290.777c-2.128 0-4.155.904-5.578 2.486-1.422 1.583-2.105 3.695-1.88 5.81l17.175 160.885c.146 1.371.668 2.675 1.508 3.769l29.539 38.5 10.959 216.854c.781 15.457 13.518 27.565 28.994 27.565h165.54c15.477 0 28.213-12.108 28.994-27.566l6.759-133.733c.209-4.137-2.975-7.66-7.111-7.869-4.163-.212-7.66 2.976-7.869 7.112l-6.759 133.733c-.378 7.471-6.533 13.323-14.014 13.323h-165.54c-7.48 0-13.636-5.852-14.014-13.323l-11.077-219.188c-.076-1.52-.613-2.98-1.54-4.187l-29.678-38.68-16.064-150.491h273.773l-24.149 41.827h-148.727c-4.143 0-7.5 3.358-7.5 7.5s3.357 7.5 7.5 7.5h140.066l-12.058 20.884c-8.936-7.458-22.283-7.006-30.671 1.38l-22.227 22.227c-8.876 8.877-8.876 23.321 0 32.198l13.109 13.109-22.472 38.923-12.873-12.873c-1.905-1.905-4.1-3.407-6.47-4.515l6.786-6.786c4.301-4.3 6.67-10.018 6.67-16.1s-2.369-11.799-6.669-16.099l-22.227-22.226c-4.3-4.3-10.018-6.668-16.099-6.668-6.082 0-11.8 2.368-16.1 6.668l-22.226 22.226c-4.301 4.3-6.669 10.018-6.669 16.1s2.368 11.799 6.668 16.099l22.227 22.226c1.905 1.905 4.1 3.407 6.47 4.516l-6.786 6.787c-4.301 4.3-6.669 10.018-6.669 16.1 0 6.081 2.368 11.799 6.668 16.099l22.226 22.227h.001c1.73 1.73 3.698 3.131 5.819 4.207l-9.03 15.642c-2.071 3.587-.842 8.174 2.745 10.245l21.968 12.683c3.464 2 8.148.889 10.245-2.745l77.185-133.69 22.154-22.154c6.687-6.687 8.331-16.532 4.943-24.778l15.079-26.117-4.871 53.499-29.675 39.606c-.888 1.184-1.405 2.605-1.486 4.083l-11.989 216.567c-.04.928-.799 1.654-1.727 1.654h-135.579c-.928 0-1.687-.727-1.731-1.743l-11.985-216.48c-.081-1.478-.599-2.898-1.486-4.083l-29.676-39.606-7.219-79.292h29.142c4.143 0 7.5-3.358 7.5-7.5s-3.357-7.5-7.5-7.5h-37.355c-2.107 0-4.117.887-5.538 2.443-1.422 1.556-2.122 3.639-1.931 5.737l8.156 89.589c.126 1.384.634 2.705 1.467 3.817l29.589 39.49 11.855 214.126c.391 8.973 7.731 16.002 16.713 16.002h135.579c8.981 0 16.322-7.029 16.708-15.914l11.861-214.214 29.588-39.49c.833-1.112 1.341-2.433 1.467-3.817l8.008-87.947 17.431-30.194-13.775 129.036-29.677 38.68c-.927 1.207-1.464 2.667-1.54 4.187l-2.533 50.11c-.209 4.137 2.975 7.66 7.111 7.869 4.165.225 7.66-2.975 7.869-7.111l2.415-47.777 29.538-38.5c.84-1.094 1.361-2.398 1.508-3.769 0 0 17.186-162.763 16.942-163.656l21.779-37.722c.996-1.723 1.264-3.77.749-5.692zm-57.289 52.89h11.971l-24.149 41.827h-11.97zm-20.839 56.827-22.725 39.36-7.589-7.589 18.343-31.771zm-92.689 139.809 22.616-39.173c2.82 2.243 6.051 3.715 9.415 4.426l-27.053 46.858c-.427-4.329-2.085-8.558-4.978-12.111zm-56.308-23.643c-3.661 3.033-7.322 3.033-10.983 0l-22.228-22.227c-1.467-1.467-2.274-3.417-2.274-5.492s.808-4.025 2.275-5.493l22.227-22.226c3.661-3.033 7.322-3.033 10.983 0l22.228 22.227c1.467 1.467 2.275 3.417 2.275 5.492s-.809 4.025-2.276 5.493l-21.909 21.909c-.107.105-.213.211-.318.317zm-11.302 43.5c-3.033-3.662-3.033-7.323.001-10.984l21.903-21.905c3.135-3.135 7.986-3.643 11.307-.322l22.227 22.227c3.028 3.028 3.028 7.957 0 10.985l-22.227 22.227c-3.182 3.183-7.693 2.497-10.984 0zm34.127 58.871-8.978-5.183 8.677-15.031c3.74-1.036 7.173-3.005 9.991-5.824l12.637-12.637zm97.971-152.455-22.226 22.226c-3.029 3.029-7.957 3.029-10.986 0h.001l-22.227-22.227c-3.028-3.028-3.028-7.957 0-10.985l22.226-22.226c3.029-3.029 7.958-3.028 10.985 0l22.227 22.227c3.029 3.029 3.029 7.957 0 10.985zm69.671-137.909h-11.971l22.162-38.386 8.979 5.183z"/><circle cx="296.439" cy="335.265" r="7.5"/><circle cx="205.369" cy="406.335" r="7.5"/><circle cx="220.369" cy="433.002" r="7.5"/></g></svg>