<svg id="Capa_1" enable-background="new 0 0 512 512" height="512" viewBox="0 0 512 512" width="512" xmlns="http://www.w3.org/2000/svg"><g><path d="m403.744 164.095-3.617-18.118c-2.804-14.05-13.743-24.558-26.698-26.193-3.652-48.283-43.361-86.652-92.197-88.188v-24.096c0-4.143-3.358-7.5-7.5-7.5h-35.464c-4.142 0-7.5 3.357-7.5 7.5v24.095c-48.836 1.536-88.545 39.905-92.197 88.188-12.955 1.635-23.894 12.143-26.698 26.193l-3.617 18.118c-2.112 10.583 4.916 22.226 16.075 23.376l15.876 276.262c.66 11.48 9.513 20.655 20.671 21.984v18.784c0 4.143 3.358 7.5 7.5 7.5h175.243c4.142 0 7.5-3.357 7.5-7.5v-18.783c11.159-1.329 20.011-10.504 20.671-21.984l1.759-30.612c.237-4.136-2.922-7.681-7.058-7.918-4.133-.238-7.68 2.922-7.918 7.057l-1.759 30.612c-.258 4.496-3.988 8.018-8.49 8.018h-184.653c-4.502 0-8.232-3.521-8.49-8.018l-11.005-191.507h21.822c4.142 0 7.5-3.357 7.5-7.5s-3.358-7.5-7.5-7.5h-22.684l-2.05-35.67h89.503v35.67h-29.519c-4.142 0-7.5 3.357-7.5 7.5s3.358 7.5 7.5 7.5h29.518v58.76c0 5.912 6.809 9.545 11.725 6.197l35.464-24.175c2.049-1.397 3.275-3.717 3.275-6.197v-34.585h86.591l-7.156 124.528c-.237 4.136 2.922 7.681 7.058 7.918 4.125.25 7.68-2.922 7.918-7.057l12.027-209.283c11.12-1.146 18.188-12.784 16.074-23.376zm-67.622 321.794v11.111h-160.243v-11.111zm35.475-280.195h-90.365v-18.123h91.406zm-105.365 0h-20.464v-18.123h20.464zm-20.463-33.123v-38.017h20.464v38.017zm0-53.016v-73.013h20.464v73.013zm20.463-104.555v16.542h-20.464v-16.542zm-35.463 31.619v72.935h-77.11c3.704-39.893 36.628-71.421 77.11-72.935zm-107.802 120.411 3.617-18.118c1.66-8.319 8.185-14.357 15.515-14.357h88.67v38.017h-104.676c-2.567-.687-3.609-2.534-3.126-5.542zm17.437 38.664-1.042-18.123h91.406v18.123zm105.365 15h20.464v35.67h-20.464zm20.463 81.291-20.464 13.949v-44.57h20.464zm15-45.621v-35.67h89.503l-2.05 35.67zm106.808-84.937c-.428.522-1.146 1.145-2.132 1.145h-104.676v-38.017h17.101c4.142 0 7.5-3.357 7.5-7.5s-3.358-7.5-7.5-7.5h-17.101v-72.936c40.482 1.513 73.406 33.042 77.11 72.935h-24.674c-4.142 0-7.5 3.357-7.5 7.5s3.358 7.5 7.5 7.5h36.234c7.33 0 13.854 6.038 15.515 14.357l3.617 18.118c.32 1.605-.052 3.248-.994 4.398z"/><path d="m200.172 389.545c0-11.119-9.046-20.165-20.166-20.165s-20.166 9.046-20.166 20.165 9.046 20.166 20.166 20.166 20.166-9.047 20.166-20.166zm-20.165 5.166c-2.849 0-5.166-2.317-5.166-5.166 0-2.848 2.317-5.165 5.166-5.165 2.848 0 5.166 2.317 5.166 5.165-.001 2.849-2.318 5.166-5.166 5.166z"/><path d="m250.835 389.545c0-11.119-9.046-20.165-20.166-20.165s-20.166 9.046-20.166 20.165 9.046 20.166 20.166 20.166 20.166-9.047 20.166-20.166zm-25.332 0c0-2.848 2.317-5.165 5.166-5.165 2.848 0 5.166 2.317 5.166 5.165 0 2.849-2.317 5.166-5.166 5.166-2.848 0-5.166-2.317-5.166-5.166z"/><path d="m301.497 389.545c0-11.119-9.046-20.165-20.166-20.165-11.119 0-20.166 9.046-20.166 20.165s9.046 20.166 20.166 20.166 20.166-9.047 20.166-20.166zm-25.331 0c0-2.848 2.317-5.165 5.166-5.165s5.166 2.317 5.166 5.165c0 2.849-2.317 5.166-5.166 5.166s-5.166-2.317-5.166-5.166z"/><path d="m352.16 389.545c0-11.119-9.046-20.165-20.166-20.165-11.119 0-20.166 9.046-20.166 20.165s9.046 20.166 20.166 20.166 20.166-9.047 20.166-20.166zm-25.331 0c0-2.848 2.317-5.165 5.166-5.165s5.166 2.317 5.166 5.165c0 2.849-2.317 5.166-5.166 5.166s-5.166-2.317-5.166-5.166z"/><path d="m205.338 460.465c11.119 0 20.166-9.046 20.166-20.165s-9.046-20.166-20.166-20.166-20.166 9.047-20.166 20.166 9.047 20.165 20.166 20.165zm0-25.331c2.848 0 5.166 2.317 5.166 5.166 0 2.848-2.317 5.165-5.166 5.165s-5.166-2.317-5.166-5.165c0-2.849 2.318-5.166 5.166-5.166z"/><path d="m256 460.465c11.119 0 20.166-9.046 20.166-20.165s-9.046-20.166-20.166-20.166c-11.119 0-20.166 9.047-20.166 20.166s9.047 20.165 20.166 20.165zm0-25.331c2.848 0 5.166 2.317 5.166 5.166 0 2.848-2.317 5.165-5.166 5.165-2.848 0-5.166-2.317-5.166-5.165.001-2.849 2.318-5.166 5.166-5.166z"/><path d="m306.663 460.465c11.119 0 20.166-9.046 20.166-20.165s-9.046-20.166-20.166-20.166-20.166 9.047-20.166 20.166 9.047 20.165 20.166 20.165zm0-25.331c2.848 0 5.166 2.317 5.166 5.166 0 2.848-2.317 5.165-5.166 5.165s-5.166-2.317-5.166-5.165c0-2.849 2.318-5.166 5.166-5.166z"/></g></svg>