<svg id="Capa_1" enable-background="new 0 0 512 512" height="512" viewBox="0 0 512 512" width="512" xmlns="http://www.w3.org/2000/svg"><g><path d="m433.1 346.89-6.911-88.025c-3.012-38.437-18.366-75.123-43.302-103.638-1.055-18.207-14.48-33.143-31.977-36.517v-65.06c0-3.047 2.479-5.525 5.525-5.525h55.905c4.143 0 7.5-3.357 7.5-7.5v-33.125c0-4.143-3.357-7.5-7.5-7.5h-66.946c-23.494 0-42.608 19.113-42.608 42.607v75.38h-57.863c-3.152-17.959-17.405-32.136-35.404-35.169-.502-5.544-1.688-11.258-3.578-17.074-1.28-3.938-5.515-6.094-9.451-4.814-3.939 1.28-6.095 5.512-4.815 9.451 1.4 4.307 2.328 8.505 2.788 12.549-7.509 1.38-14.346 4.699-19.968 9.425-4.98-11.335-13.569-20.766-25.5-28.016 5.682-13.716 14.584-25.48 20.226-32.137 1.946 2.293 4.277 5.188 6.722 8.555 2.434 3.351 7.124 4.095 10.476 1.661 3.351-2.435 4.095-7.125 1.661-10.476-7.129-9.814-13.331-15.978-13.592-16.235-2.922-2.889-7.624-2.889-10.544 0-.82.81-18.367 18.33-28.409 41.939-2.544-1.025-5.192-1.977-7.942-2.855-21.172-6.754-40.968-6.713-41.802-6.712-4.108.024-7.432 3.349-7.456 7.456-.005.89-.042 22.035 7.436 44 9.092 26.709 25.344 43.173 47.328 48.165-.625 2.433-1.019 4.956-1.168 7.544-16.816 19.231-29.477 42.375-36.666 67.132-1.155 3.979 1.133 8.14 5.111 9.294.698.203 1.402.3 2.095.3 3.251 0 6.247-2.131 7.199-5.41 6.514-22.435 17.918-43.426 33.066-60.91h138.104c4.143 0 7.5-3.357 7.5-7.5s-3.357-7.5-7.5-7.5h-132.991c2.985-10.194 12.413-17.662 23.559-17.662h172.001c11.146 0 20.574 7.468 23.559 17.662h-51.468c-4.143 0-7.5 3.357-7.5 7.5s3.357 7.5 7.5 7.5h56.582c22.539 26.018 36.41 59.402 39.153 94.388l6.91 88.025c4.698 59.999-22.663 116.855-71.521 148.938h-178.43c-48.858-32.082-76.22-88.939-71.522-148.937l6.912-88.026c.324-4.129-2.761-7.739-6.89-8.063-4.122-.323-7.74 2.761-8.064 6.89l-6.912 88.027c-5.189 66.276 25.554 129.092 80.232 163.935 1.204.768 2.603 1.175 4.03 1.175h182.858c1.428 0 2.826-.407 4.03-1.175 54.679-34.845 85.422-97.66 80.232-163.937zm-230.796-249.685c12.998 0 23.969 8.817 27.265 20.782h-54.53c3.324-12.069 14.716-20.782 27.265-20.782zm-62.435 36.503c-36.9-5.748-44.545-51.556-46.125-70.22 18.176 1.528 62.067 8.777 69.655 43.049-2.014 4.118-3.384 8.601-4 13.32-7.858 2.51-14.654 7.413-19.53 13.851zm177.916-15.721v-75.38c0-15.222 12.385-27.607 27.609-27.607h59.446v18.124h-48.405c-11.317 0-20.525 9.208-20.525 20.525v64.338z"/><path d="m252.106 301.045-29.505 29.504c-2.929 2.93-2.929 7.678 0 10.606 1.464 1.465 3.384 2.197 5.303 2.197s3.839-.732 5.303-2.196l24.202-24.201 24.2 24.201c2.93 2.928 7.678 2.928 10.607 0 2.929-2.93 2.929-7.678 0-10.607l-29.504-29.504c-2.929-2.927-7.676-2.929-10.606 0z"/><path d="m387.482 341.156c2.93 2.928 7.678 2.928 10.607 0 2.929-2.93 2.929-7.678 0-10.607l-29.504-29.504c-2.929-2.927-7.678-2.929-10.606 0l-29.505 29.504c-2.93 2.93-2.93 7.678-.001 10.606 1.465 1.465 3.384 2.197 5.304 2.197 1.919 0 3.839-.732 5.304-2.196l24.201-24.201z"/><path d="m209.776 224.437c-1.406-1.406-3.314-2.196-5.303-2.196s-3.897.79-5.303 2.196l-29.504 29.505c-2.929 2.93-2.929 7.678 0 10.607 2.929 2.928 7.678 2.928 10.606 0l24.201-24.202 24.201 24.202c1.464 1.464 3.384 2.196 5.303 2.196s3.839-.732 5.303-2.196c2.929-2.93 2.929-7.678 0-10.607z"/><path d="m315.649 224.437c-1.407-1.406-3.314-2.196-5.304-2.196s-3.896.79-5.304 2.197l-29.504 29.505c-2.929 2.929-2.929 7.678.001 10.606 1.464 1.464 3.384 2.196 5.303 2.196s3.839-.732 5.304-2.197l24.2-24.201 24.201 24.202c2.93 2.928 7.678 2.928 10.607 0 2.929-2.93 2.929-7.678 0-10.607z"/><path d="m204.473 375.456c-1.989 0-3.897.79-5.303 2.196l-29.504 29.505c-2.929 2.93-2.929 7.678 0 10.607 2.929 2.928 7.678 2.928 10.606 0l24.201-24.202 24.201 24.202c1.464 1.464 3.384 2.196 5.303 2.196s3.839-.732 5.303-2.196c2.929-2.93 2.929-7.678 0-10.607l-29.504-29.505c-1.406-1.406-3.314-2.196-5.303-2.196z"/><path d="m310.345 375.456c-1.989 0-3.896.79-5.304 2.197l-29.504 29.505c-2.929 2.929-2.929 7.677.001 10.606 1.464 1.464 3.384 2.196 5.303 2.196s3.839-.732 5.304-2.197l24.2-24.201 24.201 24.202c2.93 2.928 7.678 2.928 10.607 0 2.929-2.93 2.929-7.678 0-10.607l-29.505-29.505c-1.407-1.406-3.314-2.196-5.303-2.196z"/><path d="m146.234 301.045-29.504 29.504c-2.929 2.93-2.929 7.678 0 10.607 2.928 2.928 7.677 2.928 10.606 0l24.201-24.201 24.201 24.201c1.464 1.464 3.384 2.196 5.303 2.196s3.839-.732 5.303-2.196c2.929-2.93 2.929-7.678 0-10.607l-29.504-29.504c-2.929-2.928-7.678-2.928-10.606 0z"/></g></svg>