<svg id="Capa_1" enable-background="new 0 0 512 512" height="512" viewBox="0 0 512 512" width="512" xmlns="http://www.w3.org/2000/svg"><g><path d="m454.063 417.302c.11-36.613-30.471-67.301-67.098-67.301h-43.362c-24.266 0-44.008-19.742-44.008-44.008 0-99.959 12.633-199.758 37.547-296.625.577-2.245.084-4.632-1.337-6.464-1.42-1.832-3.608-2.904-5.927-2.904h-85.456c-4.143 0-7.5 3.357-7.5 7.5s3.357 7.5 7.5 7.5h75.823c-23.66 95.147-35.65 192.993-35.65 290.993 0 32.537 26.471 59.008 59.008 59.008h43.362c25.675 0 48.182 19.562 51.622 45.028h-75.165c-4.143 0-7.5 3.357-7.5 7.5s3.357 7.5 7.5 7.5h75.013c-4.011 25.14-27.206 44.191-52.523 44.191h-188.316c-4.143 0-7.5 3.357-7.5 7.5s3.357 7.5 7.5 7.5h180.411c-2.991 7.478-10.295 12.78-18.827 12.78h-206.516c-8.532 0-15.836-5.302-18.827-12.779h28.584c4.143 0 7.5-3.357 7.5-7.5s-3.357-7.5-7.5-7.5h-37.481c-25.42-.158-47.735-18.882-51.574-44.191h254.556c4.143 0 7.5-3.357 7.5-7.5s-3.357-7.5-7.5-7.5h-254.648c3.629-25.524 27.04-45.028 52.658-45.028h42.31c32.537 0 59.008-26.471 59.008-59.008 0-98-11.99-195.846-35.65-290.993h16.324c4.143 0 7.5-3.357 7.5-7.5s-3.357-7.5-7.5-7.5h-25.957c-2.318 0-4.507 1.072-5.927 2.904-1.421 1.832-1.914 4.219-1.337 6.464 24.914 96.867 37.547 196.666 37.547 296.625 0 24.266-19.742 44.008-44.008 44.008h-42.31c-36.56 0-68.367 30.672-68.16 67.499 0 33.781 26.817 63.046 60.343 66.383 3.32 16.031 17.549 28.116 34.549 28.116h206.516c17.052 0 31.316-12.16 34.579-28.264 31.068-3.689 63.054-32.961 60.304-66.434z"/><circle cx="117.382" cy="447.125" r="7.5"/></g></svg>