<svg id="Capa_1" enable-background="new 0 0 512 512" height="512" viewBox="0 0 512 512" width="512" xmlns="http://www.w3.org/2000/svg"><g><path d="m403.174 85.427c-.02-1.297-.385-2.599-1.049-3.714l-27.384-46.005v-14.838c0-11.508-9.362-20.87-20.87-20.87h-138.371c-4.142 0-7.5 3.357-7.5 7.5s3.358 7.5 7.5 7.5h138.371c3.237 0 5.87 2.634 5.87 5.87v9.401h-207.482v-9.401c0-3.236 2.633-5.87 5.87-5.87h21.621c4.142 0 7.5-3.357 7.5-7.5s-3.358-7.5-7.5-7.5h-21.621c-11.508 0-20.87 9.362-20.87 20.87v14.838l-27.384 46.005c-.683 1.147-1.055 2.501-1.055 3.836v371.174c0 1.335.373 2.689 1.055 3.836l20.147 33.847c6.46 10.853 18.319 17.595 30.949 17.595h190.058c12.63 0 24.488-6.742 30.949-17.595l20.147-33.847c.683-1.147 1.055-2.501 1.055-3.836v-371.174c0-.041-.006-.081-.006-.122zm-14.994 24.573h-264.36v-16.951h264.36zm0 25h-264.36v-10h264.36zm-264.36 15h264.36v242.271h-264.36zm0 257.271h264.36v10h-264.36zm239.157-362 19.51 32.777h-252.974l19.51-32.777zm6.111 441.462c-3.77 6.333-10.689 10.267-18.059 10.267h-190.058c-7.37 0-14.29-3.934-18.059-10.267l-13.399-22.511h35.321c4.142 0 7.5-3.357 7.5-7.5s-3.358-7.5-7.5-7.5h-41.014v-16.951h264.36v16.951h-188.68c-4.142 0-7.5 3.357-7.5 7.5s3.358 7.5 7.5 7.5h182.987z"/><path d="m256.06 213.422c-.02 0-.04-.001-.06-.001-25.651 0-46.52 20.868-46.52 46.52v22.39c0 25.648 20.863 46.515 46.51 46.52h.006.001.003c25.651 0 46.52-20.869 46.52-46.521v-22.39c0-25.594-20.777-46.423-46.35-46.515-.037-.001-.073-.002-.11-.003zm-31.58 68.908v-22.39c0-12.208 6.982-22.81 17.158-28.043-4.084 12.311-4.267 28.553 8.594 44.031 13.149 15.826 6.005 31.416 2.07 37.698-15.643-1.838-27.822-15.167-27.822-31.296zm63.04-22.39v22.39c0 12.209-6.982 22.811-17.158 28.044 4.084-12.311 4.267-28.553-8.594-44.031-13.139-15.814-6.016-31.392-2.067-37.697 15.642 1.839 27.819 15.167 27.819 31.294z"/><path d="m340.698 214.882c-2.294-3.449-6.95-4.384-10.399-2.09-3.448 2.295-4.384 6.95-2.089 10.398 9.458 14.215 14.457 30.794 14.457 47.945 0 47.788-38.878 86.666-86.667 86.666s-86.667-38.878-86.667-86.666 38.878-86.667 86.667-86.667c18.146 0 35.519 5.546 50.241 16.039 3.374 2.405 8.056 1.619 10.46-1.755 2.404-3.373 1.619-8.056-1.754-10.46-17.278-12.315-37.662-18.824-58.947-18.824-56.059 0-101.667 45.607-101.667 101.667 0 56.059 45.607 101.666 101.667 101.666s101.667-45.607 101.667-101.666c0-20.116-5.868-39.57-16.969-56.253z"/></g></svg>