<svg id="Capa_1" enable-background="new 0 0 512 512" height="512" viewBox="0 0 512 512" width="512" xmlns="http://www.w3.org/2000/svg"><g><path d="m369.955 410.332-5.095-37.03c-.564-4.104-4.353-6.972-8.452-6.407-4.104.564-6.972 4.349-6.407 8.452l5.024 36.521v9.627h-116.358c-4.143 0-7.5 3.357-7.5 7.5s3.357 7.5 7.5 7.5h116.358v35.45c0 13.815-11.239 25.055-25.055 25.055h-147.941c-13.815 0-25.055-11.239-25.055-25.055v-35.45h47.358c4.143 0 7.5-3.357 7.5-7.5s-3.357-7.5-7.5-7.5h-47.358v-9.627s17.52-128.044 17.419-128.739c-1.933-13.369-3.963-26.941-5.926-40.066-2.934-19.604-5.966-39.873-8.724-59.822-1.793-13.017-1.133-26.134 1.961-38.986l4.736-19.647h179.119l4.735 19.646c3.095 12.854 3.755 25.971 1.962 38.983-2.758 19.953-5.79 40.223-8.723 59.826-1.964 13.125-3.994 26.697-5.927 40.066-.101.695 7.491 56.585 7.491 56.585.517 3.757 3.731 6.479 7.42 6.479.341 0 .686-.023 1.032-.071 4.104-.564 6.973-4.349 6.407-8.452l-7.354-53.44c1.882-12.994 3.854-26.183 5.764-38.947 2.939-19.644 5.978-39.955 8.748-59.994 3.186-23.125-1.374-48.245-8.524-70.473-3.789-13.813-14.085-24.839-27.62-29.535-4.035-1.403-6.747-5.096-6.747-9.188v-7.353c4.083-.068 7.373-3.394 7.373-7.494v-53.746c0-4.143-3.357-7.5-7.5-7.5h-136.194c-4.143 0-7.5 3.357-7.5 7.5v53.746c0 4.1 3.29 7.425 7.373 7.494v7.413c0 4.071-2.694 7.756-6.707 9.169-13.663 4.817-24.022 15.93-27.734 29.741-6.337 22.813-11.72 46.48-8.449 70.229 2.77 20.035 5.809 40.347 8.748 59.99 1.909 12.765 3.882 25.952 5.764 38.947l-17.352 126.104c-.047.339-.07.681-.07 1.022v60.591c0 22.086 17.969 40.055 40.055 40.055h147.941c22.086 0 40.055-17.969 40.055-40.055v-60.591c-.001-.342-.024-.684-.071-1.023zm-183.901-310.863c10.002-3.522 16.722-12.893 16.722-23.316v-7.406h11.226c4.143 0 7.5-3.357 7.5-7.5s-3.357-7.5-7.5-7.5h-18.599v-38.747h121.195v38.746h-67.931c-4.143 0-7.5 3.357-7.5 7.5s3.357 7.5 7.5 7.5h60.558v7.345c0 10.474 6.761 19.859 16.827 23.358 5.579 1.936 10.319 5.515 13.683 10.157h-167.355c3.404-4.587 8.175-8.199 13.674-10.137z"/><path d="m256 143.292c-35.916 0-65.137 29.221-65.137 65.138 0 35.916 29.221 65.137 65.137 65.137s65.137-29.221 65.137-65.137c0-35.917-29.221-65.138-65.137-65.138zm0 115.274c-27.646 0-50.137-22.491-50.137-50.137s22.491-50.138 50.137-50.138 50.137 22.491 50.137 50.138c0 27.646-22.491 50.137-50.137 50.137z"/><path d="m229.24 348.833c-4.143 0-7.5 3.357-7.5 7.5s3.357 7.5 7.5 7.5h53.52c4.143 0 7.5-3.357 7.5-7.5s-3.357-7.5-7.5-7.5z"/><path d="m312.5 311.5c0-11.028-8.972-20-20-20h-73c-11.028 0-20 8.972-20 20s8.972 20 20 20h73c11.028 0 20-8.972 20-20zm-98 0c0-2.757 2.243-5 5-5h73c2.757 0 5 2.243 5 5s-2.243 5-5 5h-73c-2.757 0-5-2.243-5-5z"/></g></svg>