<svg id="Capa_1" enable-background="new 0 0 512 512" height="512" viewBox="0 0 512 512" width="512" xmlns="http://www.w3.org/2000/svg"><g><path d="m210.38 179.689c-5.381-6.719-8.345-15.158-8.345-23.765l-.002-148.424c0-4.143-3.357-7.5-7.5-7.5h-63.756c-4.143 0-7.5 3.357-7.5 7.5l-.002 148.425c0 11.415-5.471 20.791-12.652 29.14-2.59 3.233-2.068 7.953 1.164 10.543 3.233 2.59 7.954 2.068 10.543-1.164 9.309-11.157 15.945-23.622 15.945-38.519v-94.384h48.76v94.384c0 12.003 4.133 23.773 11.638 33.143l30.344 37.875c6.738 8.411 10.449 18.979 10.449 29.755v25.743h-153.621v-25.743c0-13.32 5.87-24.555 14.241-34.488 2.59-3.233 2.068-7.953-1.164-10.543-3.233-2.591-7.953-2.068-10.543 1.164-10.478 12.644-17.534 27.104-17.534 43.867v226.941c0 15.639 12.723 28.361 28.361 28.361h126.898c15.639 0 28.361-12.723 28.361-28.361v-226.942c0-14.173-4.881-28.07-13.742-39.134zm-72.103-133.15v-8.269h48.756v8.269zm48.756-31.539v8.271h-48.756v-8.271zm52.433 282.44v169.429h-153.621v-169.429zm-13.361 199.56h-126.899c-8.215 0-13.698-7.397-13.361-15.131h153.621c.713 7.765-5.335 15.131-13.361 15.131z"/><path d="m439.183 356.931c-1.421-1.549-3.426-2.431-5.527-2.431h-138c-2.102 0-4.106.882-5.527 2.431-1.42 1.548-2.126 3.621-1.944 5.715l10.984 127.09c1.097 12.692 11.531 22.264 24.271 22.264h82.432c12.739 0 23.174-9.572 24.271-22.266l10.984-127.089c.182-2.093-.524-4.166-1.944-5.714zm-23.984 131.511c-.422 4.879-4.433 8.558-9.328 8.558h-82.431c-4.896 0-8.906-3.679-9.328-8.557l-7.602-87.943h64.823c4.143 0 7.5-3.357 7.5-7.5s-3.357-7.5-7.5-7.5h-66.119l-1.383-16h121.649l-1.383 16h-16.429c-4.143 0-7.5 3.357-7.5 7.5s3.357 7.5 7.5 7.5h15.132z"/><path d="m110.155 449.405h43c4.143 0 7.5-3.357 7.5-7.5v-15.905c0-4.143-3.357-7.5-7.5-7.5s-7.5 3.357-7.5 7.5v8.405h-28v-104.5h28v59.845c0 4.143 3.357 7.5 7.5 7.5s7.5-3.357 7.5-7.5v-67.345c0-4.143-3.357-7.5-7.5-7.5h-43c-4.143 0-7.5 3.357-7.5 7.5v119.5c0 4.143 3.358 7.5 7.5 7.5z"/><circle cx="334.834" cy="429" r="7.5"/></g></svg>