<svg id="Capa_1" enable-background="new 0 0 512 512" height="512" viewBox="0 0 512 512" width="512" xmlns="http://www.w3.org/2000/svg"><g><path d="m322.213 325.396c-4.398-12.303-10.291-24.105-17.428-35.044-14.689-22.412-34.722-38.364-55.404-54.726-18.341-14.496-28.86-36.222-28.86-59.606v-168.52c0-4.143-3.358-7.5-7.5-7.5h-57.8c-4.142 0-7.5 3.357-7.5 7.5v74.5c0 4.143 3.358 7.5 7.5 7.5s7.5-3.357 7.5-7.5v-3.5h42.8v97.52c0 28.002 12.596 54.017 34.557 71.372 15.51 12.271 31.275 23.996 43.731 39.571h-199.375c12.457-15.574 28.218-27.299 43.727-39.569 21.963-17.357 34.56-43.372 34.56-71.374v-58.52c0-4.143-3.358-7.5-7.5-7.5s-7.5 3.357-7.5 7.5v58.52c0 23.385-10.52 45.11-28.864 59.608-20.686 16.365-40.719 32.302-55.409 54.736-17.592 26.981-27.167 58.907-27.167 91.136 0 70.72 59.182 130.5 130.51 130.5h34.66c41.256 0 79.21-18.89 104.13-51.823 29.25-38.648 32.809-89.654 16.632-134.781zm-116.692-310.396v22.754h-42.8v-22.754zm-42.8 48.5v-10.746h42.8v10.746zm67.391 358.759c-21.228-.021-38.491-17.296-38.491-38.528v-43.24c0-21.207 17.222-38.465 38.414-38.527h.236c10.249.031 19.878 4.032 27.127 11.28 7.276 7.275 11.283 16.952 11.283 27.247v43.24c0 21.232-17.264 38.507-38.492 38.528zm-92.06 0c-21.228-.021-38.491-17.296-38.491-38.528v-43.24c0-21.207 17.222-38.465 38.414-38.527h.236c10.249.031 19.878 4.032 27.126 11.279 7.276 7.277 11.284 16.954 11.284 27.248v43.24c0 21.232-17.264 38.507-38.492 38.528zm-86.771-40.759c0-13.301 1.739-26.438 5.169-39.207.179.781.281 1.586.281 2.407v34.819c0 3.897-2.1 7.303-5.222 9.175-.148-2.393-.228-4.796-.228-7.194zm18.058-71.7c9.473 7.216 15.222 18.773 15.222 30.691v43.24c0 17.002-10.866 31.584-26.558 36.648-1.899-5.298-3.414-10.743-4.507-16.265 10.542-3.206 18.235-13.019 18.235-24.595v-34.819c0-7.573-3.569-15.087-9.422-19.887.102-.254 6.964-14.889 7.03-15.013zm22.775 101.306c2.454 4.106 5.446 7.852 8.872 11.153h-17.685c3.418-3.304 6.386-7.051 8.813-11.153zm92.007-.092c2.464 4.142 5.474 7.92 8.925 11.245h-17.85c3.451-3.325 6.46-7.103 8.925-11.245zm92.007.092c2.427 4.102 5.395 7.85 8.813 11.153h-17.685c3.426-3.301 6.417-7.047 8.872-11.153zm7.553-70.616c0-12.259 5.693-23.498 15.221-30.706 2.614 4.872 4.96 9.891 7.028 15.018-5.875 4.8-9.42 12.042-9.42 19.897v34.819c0 11.576 7.693 21.389 18.235 24.595-1.107 5.522-2.608 10.962-4.507 16.265-15.693-5.065-26.558-19.647-26.558-36.648v-43.24zm27.829 39.03v-34.82c0-.828.096-1.64.277-2.423 3.433 12.772 5.173 25.916 5.173 39.223 0 2.399-.081 4.801-.228 7.194-3.121-1.871-5.222-5.278-5.222-9.174zm-26.506-77.557c-3.448 3.317-6.413 7.064-8.835 11.139-2.404-4.024-5.487-7.873-8.872-11.139zm-91.96 0c-3.439 3.314-6.44 7.077-8.9 11.202-2.456-4.123-5.457-7.874-8.907-11.202zm-100.959 11.202c-2.453-4.119-5.454-7.876-8.901-11.202h17.801c-3.44 3.314-6.441 7.077-8.9 11.202zm109.366 183.835h-34.66c-31.151 0-60.17-12.177-81.722-33.854h116.432c4.142 0 7.5-3.357 7.5-7.5s-3.358-7.5-7.5-7.5h-129.058c-2.477-3.497-4.753-7.137-6.826-10.888h237.006c-2.074 3.75-4.348 7.39-6.825 10.888h-60.297c-4.142 0-7.5 3.357-7.5 7.5s3.358 7.5 7.5 7.5h47.672c-21.552 21.677-50.571 33.854-81.722 33.854z"/><path d="m468.219 358.111h-52.219c-4.142 0-7.5 3.357-7.5 7.5s3.358 7.5 7.5 7.5h44.719v59.954c0 21.264-17.744 38.935-38.935 38.935h-10.631c-21.198 0-38.935-17.654-38.935-38.935v-59.954h8.782c4.142 0 7.5-3.357 7.5-7.5s-3.358-7.5-7.5-7.5h-16.282c-4.142 0-7.5 3.357-7.5 7.5v67.454c0 16.621 7.925 32.738 21.11 42.863v28.572c0 4.143 3.358 7.5 7.5 7.5h61.28c4.142 0 7.5-3.357 7.5-7.5v-28.572c13.185-10.125 21.11-26.242 21.11-42.863v-67.454c.001-4.142-3.356-7.5-7.499-7.5zm-28.609 138.889h-46.28v-12.992c5.619 1.949 11.623 2.992 17.825 2.992h10.631c6.201 0 12.206-1.042 17.825-2.992v12.992z"/><path d="m138.091 324.46c-12.632 0-22.91 10.277-22.91 22.91v29.479c0 12.633 10.277 22.91 22.91 22.91s22.91-10.277 22.91-22.91v-29.479c0-6.124-2.382-11.879-6.707-16.204-4.325-4.324-10.079-6.706-16.203-6.706zm7.91 52.39c0 4.361-3.548 7.91-7.91 7.91-4.361 0-7.91-3.549-7.91-7.91v-29.48c0-4.361 3.548-7.91 7.91-7.91 2.118 0 4.105.821 5.597 2.313 1.492 1.491 2.313 3.479 2.313 5.597z"/><path d="m230.151 319c-14.171 0-25.7 11.529-25.7 25.7v34.819c0 14.171 11.529 25.7 25.7 25.7s25.7-11.529 25.7-25.7v-34.819c0-6.865-2.673-13.319-7.535-18.182-4.864-4.848-11.315-7.518-18.165-7.518zm10.7 60.52c0 5.9-4.8 10.7-10.7 10.7s-10.7-4.8-10.7-10.7v-34.82c0-5.9 4.8-10.7 10.7-10.7 2.853 0 5.543 1.116 7.567 3.134 2.021 2.021 3.133 4.707 3.133 7.566z"/></g></svg>