<svg id="Capa_1" enable-background="new 0 0 512.001 512.001" height="512" viewBox="0 0 512.001 512.001" width="512" xmlns="http://www.w3.org/2000/svg"><g><path d="m394.844 404.063-30.383-301.956c-.385-3.832-3.61-6.749-7.462-6.749h-171.735l-9.66-16.732 24.802-14.32c1.723-.994 2.979-2.633 3.495-4.554.515-1.922.245-3.969-.75-5.691-8.572-14.847-24.61-22.745-40.662-21.714.778-14.694-12.913-26.517-27.313-23.744l-2.801-4.852c-2.071-3.588-6.658-4.815-10.245-2.745-3.587 2.071-4.816 6.658-2.745 10.245l2.806 4.86c-9.629 11.08-6.194 28.849 6.903 35.514-8.922 13.386-10.102 31.227-1.529 46.076 1.389 2.406 3.91 3.751 6.502 3.751 1.272 0 2.562-.324 3.743-1.006l24.804-14.321 10.616 18.387-19.273 191.537c-.415 4.121 2.59 7.799 6.711 8.213 4.123.423 7.799-2.589 8.213-6.711l17.186-170.802 20.525 35.55h-6.377c-3.847 0-7.07 2.911-7.461 6.738l-23.728 232.458c-4.858 47.595 37.494 85.006 83.117 85.006h33.648c45.62 0 87.976-37.403 83.116-85.006l-23.729-232.458c-.391-3.827-3.613-6.738-7.461-6.738h-25.781c-4.143 0-7.5 3.357-7.5 7.5s3.357 7.5 7.5 7.5h19.008l23.041 225.72c3.963 38.838-31.39 68.482-68.194 68.482h-33.648c-36.8 0-72.16-29.634-68.194-68.482l23.04-225.72h8.264l91.537 158.547c1.389 2.406 3.91 3.751 6.502 3.751 1.272 0 2.563-.324 3.743-1.006 3.587-2.071 4.816-6.658 2.745-10.245l-87.207-151.047h42.03c4.143 0 7.5-3.357 7.5-7.5s-3.357-7.5-7.5-7.5h-50.69l-29.988-51.941h156.291l29.704 295.207c5.146 51.149-40.33 91.437-89.41 91.437h-43.086c-49.077 0-94.558-40.279-89.41-91.437l7.317-72.718c.415-4.121-2.59-7.799-6.711-8.213-4.126-.419-7.798 2.59-8.213 6.711l-7.317 72.718c-6.027 59.896 46.456 107.939 104.335 107.939h43.086c57.87-.001 110.362-48.027 104.333-107.939zm-248.381-376.889c5.223 9.046-8.659 16.936-13.837 7.988-5.25-9.071 8.702-16.88 13.837-7.988zm-8.803 56.039c-3.195-11.999 2.16-26.231 13.382-32.138 11.018-6.359 25.463-4.495 34.507 4.488z"/><circle cx="305.785" cy="242.001" r="7.5"/><circle cx="230.647" cy="374.521" r="7.5"/><circle cx="255.936" cy="415.056" r="7.5"/></g></svg>