<svg id="Capa_1" enable-background="new 0 0 512 512" height="512" viewBox="0 0 512 512" width="512" xmlns="http://www.w3.org/2000/svg"><g><path d="m225.082 123.143h-27.138c-4.143 0-7.5 3.357-7.5 7.5v297.722c0 13.105 10.662 23.768 23.767 23.768h127.112c13.105 0 23.768-10.662 23.768-23.768v-297.722c0-4.143-3.357-7.5-7.5-7.5h-96.407c-4.143 0-7.5 3.357-7.5 7.5s3.357 7.5 7.5 7.5h88.907v290.222c0 4.834-3.934 8.768-8.768 8.768h-127.112c-4.834 0-8.767-3.934-8.767-8.768v-290.222h19.638c4.143 0 7.5-3.357 7.5-7.5s-3.357-7.5-7.5-7.5z"/><path d="m246.837 375.572c-3.246-2.571-7.963-2.024-10.536 1.222-2.572 3.247-2.025 7.964 1.222 10.536 7.856 6.224 17.507 9.34 28.844 9.34 7.128 0 14.924-1.232 23.354-3.7 2.453-.719 4.372-2.638 5.091-5.091 6.539-22.342 4.412-40.187-6.322-53.038-20.17-24.146-63.03-19.898-64.846-19.706-3.516.373-6.293 3.15-6.666 6.666-.067.638-1.615 15.79 1.898 32.184.867 4.05 4.856 6.634 8.904 5.762 4.051-.867 6.63-4.854 5.762-8.904-1.726-8.055-2.014-15.907-1.945-21.138 12.891-.161 34.911 2.22 45.38 14.752 6.75 8.081 8.265 19.908 4.519 35.197-14.957 3.664-26.606 2.297-34.659-4.082z"/><path d="m328.967 156.032c-1.824-.193-44.934-4.465-65.213 19.813-10.792 12.92-12.93 30.861-6.354 53.328.719 2.453 2.638 4.372 5.091 5.091 17.758 5.196 38.313 6.189 53.329-6.354 24.278-20.279 20.006-63.387 19.813-65.212-.373-3.516-3.151-6.293-6.666-6.666zm-22.763 60.366c-8.148 6.806-20.074 8.331-35.488 4.55-3.777-15.397-2.26-27.313 4.528-35.461 11.289-13.55 34.593-14.96 45.821-14.837.187 12.961-2.22 35.19-14.861 45.748z"/><path d="m337.978 318.258c0-10.845-8.823-19.668-19.669-19.668-10.845 0-19.668 8.823-19.668 19.668 0 10.846 8.823 19.669 19.668 19.669s19.669-8.824 19.669-19.669zm-19.669 4.669c-2.574 0-4.668-2.095-4.668-4.669s2.094-4.668 4.668-4.668 4.669 2.094 4.669 4.668-2.095 4.669-4.669 4.669z"/><path d="m225.708 267.464c0 10.845 8.823 19.668 19.668 19.668 10.846 0 19.669-8.823 19.669-19.668 0-10.846-8.823-19.669-19.669-19.669-10.845 0-19.668 8.823-19.668 19.669zm24.337 0c0 2.574-2.095 4.668-4.669 4.668s-4.668-2.094-4.668-4.668 2.094-4.669 4.668-4.669 4.669 2.094 4.669 4.669z"/><circle cx="318.309" cy="262.795" r="7.5"/><circle cx="318.309" cy="410.5" r="7.5"/><path d="m385.001 245.5c4.143 0 7.5-3.357 7.5-7.5v-157.49c0-4.143-3.357-7.5-7.5-7.5h-192.606c5.568-6.39 8.737-13.506 9.436-21.3 2.362-26.327-25.403-49.089-26.587-50.045-2.75-2.221-6.678-2.222-9.428.001-.683.552-15.081 12.327-22.437 28.47-9.032-1.161-16.315-.443-16.932-.376-3.516.373-6.293 3.15-6.666 6.666-.138 1.295-3.165 31.876 14.337 46.495 8.104 6.771 18.701 8.341 28.912 6.895v369.434c0 13.138 9.192 24.221 21.633 27.456v17.794c0 4.143 3.357 7.5 7.5 7.5h171.206c4.143 0 7.5-3.357 7.5-7.5v-17.794c12.44-3.235 21.632-14.318 21.632-27.456v-185.25c0-4.143-3.357-7.5-7.5-7.5s-7.5 3.357-7.5 7.5v185.25c0 7.395-6.34 13.41-14.132 13.41h-171.206c-7.793 0-14.133-6.016-14.133-13.41v-371.24h199.471v149.99c0 4.142 3.357 7.5 7.5 7.5zm-185.338 251.5v-9.34h156.206v9.34zm-29.112-479.316c7.331 7.397 17.45 20.533 16.337 32.718-.438 4.805-2.65 9.343-6.578 13.582-.629-14.006-9.188-24.969-22.065-30.13 3.548-6.698 8.625-12.469 12.306-16.17zm-26.793 53.745c-7.191-5.984-9.077-18.412-9.268-26.924 8.307.166 18.215 1.42 24.755 7.064 6.691 5.774 6.885 14.693 5.126 22.782-9.002 1.96-15.925.98-20.613-2.922z"/></g></svg>