<svg id="Capa_1" enable-background="new 0 0 512 512" height="512" viewBox="0 0 512 512" width="512" xmlns="http://www.w3.org/2000/svg"><g><path d="m451.506 347.318-46.916-245.183c-.676-3.535-3.768-6.091-7.366-6.091h-42.508c-4.143 0-7.5 3.357-7.5 7.5s3.357 7.5 7.5 7.5h36.307l45.734 239.003c13.49 75.494-46.407 146.953-123.022 146.953h-68.348c-37.09 0-72.018-16.312-95.825-44.751-23.809-28.44-33.721-65.691-27.213-102.112l45.751-239.093h150.615c4.143 0 7.5-3.357 7.5-7.5s-3.357-7.5-7.5-7.5h-53.545c-3.855-53.607-48.698-96.044-103.271-96.044-22.334 0-43.604 6.999-61.509 20.241-3.33 2.463-4.033 7.159-1.57 10.49 2.464 3.33 7.158 4.033 10.49 1.57 15.305-11.319 33.489-17.301 52.589-17.301 46.298 0 84.404 35.718 88.224 81.044h-10.213c-3.783-39.648-38.207-70.877-78.011-70.877-42.664 0-78.378 35.712-78.378 78.377 0 35.067 23.289 65.585 56.347 75.23l-1.92 10.034c-37.842-10.58-64.593-45.309-64.593-85.264 0-17.03 4.844-33.565 14.009-47.817 2.24-3.484 1.231-8.125-2.252-10.365-3.485-2.238-8.124-1.232-10.365 2.252-10.724 16.678-16.392 36.018-16.392 55.931 0 47.146 31.868 88.059 76.768 100.025l-27.523 143.838c-7.309 40.894 3.794 82.615 30.46 114.469s65.785 50.123 107.327 50.123h68.348c85.89 0 152.887-80.095 137.771-164.682zm-339.402-204.587c-7.068-8.99-11.726-19.893-13.127-31.688h44.814zm.022-78.351 31.665 31.664h-44.811c1.406-11.865 6.1-22.729 13.146-31.664zm57.273-23.754c11.865 1.406 22.729 6.1 31.665 13.146l-31.665 31.665zm-15 44.812-31.665-31.665c8.936-7.047 19.8-11.74 31.665-13.146zm25.608 10.606 31.665-31.664c7.046 8.936 11.74 19.8 13.146 31.664zm-57.315 57.315 27.255-27.255-7.243 37.85c-7.377-2.335-14.131-5.954-20.012-10.595z"/><path d="m194.282 471.263c17.208 9.325 36.763 14.255 56.55 14.255h57.459c72.967 0 129.858-68.044 117.024-139.886l-33.58-175.491c-.676-3.535-3.768-6.091-7.366-6.091h-209.616c-3.599 0-6.69 2.556-7.366 6.091l-33.596 175.582c-6.631 37.12 4.308 74.262 30.009 101.902 2.82 3.032 7.566 3.207 10.6.385 3.033-2.82 3.206-7.566.385-10.6-22.461-24.156-32.021-56.613-26.244-88.96l32.414-169.4h197.214l32.398 169.31c11.208 62.75-38.584 122.158-102.275 122.158h-57.459c-17.547 0-34.168-4.187-49.403-12.442-3.642-1.975-8.194-.621-10.167 3.021-1.975 3.64-.623 8.192 3.019 10.166z"/><path d="m280.575 357.546c0 2.1.865 3.996 2.255 5.357l67.858 67.857c1.465 1.464 3.385 2.196 5.304 2.196s3.839-.732 5.304-2.196c19.556-19.556 30.325-45.558 30.325-73.214 0-27.657-10.77-53.659-30.325-73.215-2.93-2.928-7.678-2.928-10.607 0l-67.858 67.858c-1.391 1.361-2.256 3.257-2.256 5.357zm25.612 7.5h44.817c-1.358 11.614-5.865 22.518-13.119 31.697zm49.585-64.585c13.496 15.95 20.849 35.951 20.849 57.085 0 21.133-7.353 41.134-20.849 57.084l-7.225-7.225c23.623-28.543 23.623-71.175 0-99.719zm-17.887 17.887c7.254 9.179 11.761 20.083 13.119 31.698h-44.817z"/><path d="m209.854 216.29c-19.556 19.556-30.325 45.558-30.325 73.215 0 27.656 10.77 53.658 30.325 73.214 2.868 2.866 7.733 2.873 10.607 0l67.858-67.857c1.39-1.361 2.255-3.257 2.255-5.357s-.865-3.996-2.255-5.357l-67.858-67.858c-2.929-2.928-7.677-2.928-10.607 0zm5.524 130.299c-13.496-15.95-20.849-35.951-20.849-57.084 0-21.134 7.353-41.135 20.849-57.085l7.225 7.225c-23.623 28.543-23.624 71.175 0 99.719zm49.584-49.584-31.698 31.697c-7.254-9.178-11.761-20.082-13.119-31.697zm-44.817-15c1.358-11.614 5.865-22.518 13.119-31.697l31.698 31.697z"/><path d="m245.569 409.421c0 12.406 10.094 22.5 22.5 22.5s22.5-10.094 22.5-22.5-10.094-22.5-22.5-22.5-22.5 10.094-22.5 22.5zm30 0c0 4.136-3.364 7.5-7.5 7.5s-7.5-3.364-7.5-7.5 3.364-7.5 7.5-7.5 7.5 3.364 7.5 7.5z"/><path d="m339.484 265.53c4.74 0 9.197-1.847 12.55-5.198l9.338-9.338c3.352-3.353 5.198-7.81 5.198-12.55s-1.847-9.197-5.198-12.55l-9.338-9.338c-6.841-6.839-18.254-6.844-25.1 0l-9.338 9.338c-3.352 3.353-5.198 7.81-5.198 12.55s1.847 9.197 5.198 12.55l9.338 9.338c3.353 3.352 7.81 5.198 12.55 5.198zm-11.28-29.028 9.338-9.338c1.295-1.072 2.59-1.072 3.885 0l9.338 9.338c1.071 1.071 1.071 2.813 0 3.885l-9.338 9.338c-1.07 1.072-2.814 1.072-3.885 0l-9.338-9.338c-1.071-1.072-1.071-2.814 0-3.885z"/><path d="m289.184 196.012c-6.921-6.921-18.182-6.919-25.101 0l-9.337 9.337c-3.352 3.353-5.198 7.81-5.198 12.551 0 4.74 1.847 9.197 5.198 12.55l9.337 9.337c3.353 3.352 7.81 5.198 12.55 5.198 4.741 0 9.198-1.847 12.551-5.198l9.337-9.337c6.92-6.921 6.92-18.18 0-25.101zm-1.27 23.83-9.337 9.337c-1.07 1.074-2.815 1.072-3.886 0l-9.337-9.337c-1.072-1.071-1.072-2.814 0-3.886l9.337-9.337c.535-.536 1.239-.804 1.943-.804.703 0 1.407.268 1.942.804l9.337 9.337c1.073 1.071 1.073 2.815.001 3.886z"/><circle cx="194.529" cy="383.399" r="7.5"/><circle cx="219.702" cy="418" r="7.5"/></g></svg>