<svg id="Capa_1" enable-background="new 0 0 511.938 511.938" height="512" viewBox="0 0 511.938 511.938" width="512" xmlns="http://www.w3.org/2000/svg"><g><path d="m302.72 314.969c35.84 0 65.75-29.91 65.75-65.75v-46.98c38.794-2.414 74.011-25.975 87.284-59.187.923-2.311.641-4.929-.754-6.989-1.396-2.06-3.722-3.294-6.21-3.294h-56.026c-4.142 0-7.5 3.357-7.5 7.5s3.358 7.5 7.5 7.5h43.898c-14.727 24.094-44.259 39.952-75.621 39.67-2.045-.024-3.928.764-5.35 2.172s-2.222 3.327-2.222 5.328v54.28c0 27.659-23.091 50.75-50.75 50.75-27.978 0-50.74-22.767-50.74-50.75v-54.28c0-4.795-4.019-7.496-8.399-7.496-31.083 0-60.187-15.807-74.78-39.674h109.328c3.218 10.529 13.023 18.21 24.591 18.21 7.109 0 13.551-2.901 18.21-7.579 4.659 4.679 11.101 7.579 18.21 7.579 14.177 0 25.71-11.533 25.71-25.71s-11.533-25.71-25.71-25.71c-7.109 0-13.551 2.901-18.21 7.579-4.659-4.679-11.101-7.579-18.21-7.579-11.568 0-21.374 7.681-24.591 18.21h-121.457c-2.488 0-4.815 1.234-6.21 3.295-1.396 2.061-1.678 4.679-.754 6.989 13.271 33.197 48.48 56.757 87.274 59.183v46.983c-.001 36.255 29.49 65.75 65.739 65.75zm36.42-185.41c5.905 0 10.71 4.805 10.71 10.71s-4.805 10.71-10.71 10.71-10.71-4.805-10.71-10.71 4.805-10.71 10.71-10.71zm-36.42 0c5.905 0 10.71 4.805 10.71 10.71s-4.805 10.71-10.71 10.71c-13.8 0-13.841-21.42 0-21.42z"/><path d="m483.12 90.648h-289.308l43.098-43.098c1.407-1.407 2.197-3.314 2.197-5.304s-.79-3.896-2.197-5.304c-49.259-49.258-129.409-49.258-178.667 0-49.258 49.26-49.258 129.409 0 178.669 1.406 1.406 3.314 2.196 5.303 2.196s3.897-.79 5.303-2.196l58.896-58.896c16.203 32.856 46.426 57.863 83.685 66.616v27.106c0 13.488 2.876 26.479 8.549 38.613 1.754 3.752 6.22 5.374 9.97 3.617 3.752-1.754 5.372-6.218 3.618-9.971-4.736-10.129-7.137-20.983-7.137-32.26v-33.2c0-3.621-2.587-6.726-6.15-7.377-50.212-9.191-88.335-53.228-90.371-104.213h345.622c-2.054 51.445-39.419 94.887-90.362 104.213-3.562.651-6.149 3.756-6.149 7.377v33.2c0 36.486-26.921 68.732-62.881 75.115-3.581.636-6.189 3.748-6.189 7.385v144.74c0 4.143 3.358 7.5 7.5 7.5h60.7c7.961 0 14.81 4.854 17.74 11.76h-186.329c2.93-6.905 9.778-11.76 17.74-11.76h60.699c4.142 0 7.5-3.357 7.5-7.5v-144.74c0-3.637-2.609-6.75-6.19-7.385-13.588-2.409-26.294-8.507-36.745-17.635-3.12-2.723-7.857-2.402-10.583.716-2.725 3.12-2.404 7.857.715 10.583 10.906 9.524 23.871 16.293 37.803 19.783v131.178h-53.2c-18.891 0-34.26 15.369-34.26 34.26 0 4.143 3.358 7.5 7.5 7.5h204.37c4.142 0 7.5-3.357 7.5-7.5 0-18.891-15.369-34.26-34.26-34.26h-53.2v-131.173c40.161-10.021 69.07-47.225 69.07-88.564v-27.107c56.338-13.236 96.6-63.637 96.6-122.152.224-4.955-1.424-10.532-7.5-10.532zm-360.799 0c-6.063 0-7.683 5.584-7.5 10.53 0 14.125 2.352 27.774 6.704 40.544l-39.361 39.361c-28.108-33.5-26.435-83.67 5.056-115.162 10.328-10.327 23.168-17.864 37.133-21.798 3.987-1.122 6.309-5.265 5.186-9.252s-5.266-6.309-9.252-5.186c-16.431 4.627-31.533 13.489-43.673 25.628-37.345 37.347-39.045 97.044-5.106 136.427l-7.786 7.786c-38.207-43.684-36.5-110.348 5.126-151.975 41.628-41.627 108.292-43.333 151.975-5.127l-7.791 7.791c-15.186-13.126-33.611-21.257-53.733-23.61-4.118-.469-7.839 2.464-8.321 6.578s2.464 7.839 6.578 8.32c16.733 1.957 32.092 8.609 44.842 19.345l-29.801 29.8z"/><circle cx="276.54" cy="240.938" r="7.5"/></g></svg>