<svg id="Capa_1" enable-background="new 0 0 512 512" height="512" viewBox="0 0 512 512" width="512" xmlns="http://www.w3.org/2000/svg"><g><path d="m343.291 178.291-34.744-35.527v-27.36c0-4.143-3.358-7.5-7.5-7.5h-7.13v-100.404c0-4.143-3.358-7.5-7.5-7.5h-60.836c-4.142 0-7.5 3.357-7.5 7.5v48.979c0 4.143 3.358 7.5 7.5 7.5s7.5-3.357 7.5-7.5v-10.687h45.836v62.111h-45.836v-13.609c0-4.143-3.358-7.5-7.5-7.5s-7.5 3.357-7.5 7.5v13.609h-7.13c-4.142 0-7.5 3.357-7.5 7.5v27.36l-34.744 35.527c-1.481 1.516-2.253 3.586-2.124 5.701l14.864 243.563-8.164 18.62c-.708 1.614-.825 3.427-.329 5.119l16.196 55.313c.936 3.196 3.867 5.393 7.198 5.393h16.704c4.142 0 7.5-3.357 7.5-7.5s-3.358-7.5-7.5-7.5h-11.085l-13.85-47.301 5.828-13.292h124.108l5.828 13.292-13.849 47.302h-58.084c-4.142 0-7.5 3.357-7.5 7.5s3.358 7.5 7.5 7.5h63.703c3.331 0 6.262-2.196 7.198-5.393l16.196-55.313c.496-1.691.379-3.504-.329-5.119l-8.163-18.617 10.889-175.772c.256-4.135-2.888-7.693-7.022-7.949-4.138-.256-7.693 2.887-7.95 7.021l-7.41 119.622h-126.066l-11.234-184.081 32.349-33.078h83.783l32.357 33.086-1.478 25.224c-.242 4.135 2.914 7.684 7.049 7.926 4.141.261 7.684-2.912 7.926-7.049l1.672-28.534c.122-2.109-.65-4.172-2.127-5.683zm-110.209-147.499v-15.792h45.836v15.792zm85.048 354.688-2.226 35.927h-119.802l-2.193-35.927zm-24.582-262.577v15.414h-75.096v-15.414z"/><path d="m209.211 228.302v106.311c0 4.143 3.358 7.5 7.5 7.5h19.942c3.016 7.752 10.541 13.271 19.347 13.271s16.331-5.518 19.347-13.271h19.942c4.142 0 7.5-3.357 7.5-7.5v-106.311c0-25.8-20.989-46.789-46.789-46.789s-46.789 20.989-46.789 46.789zm46.789 112.081c-3.182 0-5.77-2.589-5.77-5.771s2.588-5.77 5.77-5.77 5.77 2.588 5.77 5.77-2.589 5.771-5.77 5.771zm31.788-112.081v98.811h-12.442c-3.016-7.752-10.541-13.27-19.347-13.27s-16.33 5.518-19.347 13.27h-12.442v-98.811c0-17.528 14.26-31.789 31.789-31.789s31.789 14.26 31.789 31.789z"/></g></svg>