<svg id="Capa_1" enable-background="new 0 0 512 512" height="512" viewBox="0 0 512 512" width="512" xmlns="http://www.w3.org/2000/svg"><g><path d="m347.985 183.165-25.694-19.056c-9.256-6.866-14.782-17.845-14.782-29.368v-48.334c4.82.217 9.976-1.817 9.976-7.5v-29.34c0-4.143-3.357-7.5-7.5-7.5h-7.756v-34.567c0-4.143-3.357-7.5-7.5-7.5h-77.457c-4.142 0-7.5 3.357-7.5 7.5v34.567h-7.757c-4.142 0-7.5 3.357-7.5 7.5v29.34c0 5.697 5.157 7.69 9.976 7.5v48.334c0 11.524-5.526 22.503-14.782 29.367l-25.694 19.058c-19.915 14.771-31.805 38.392-31.805 63.187v230.752c0 19.241 15.654 34.896 34.895 34.896h177.79c19.241 0 34.896-15.654 34.896-34.896v-139.434c0-4.143-3.357-7.5-7.5-7.5s-7.5 3.357-7.5 7.5v90.688h-158.291c-4.142 0-7.5 3.357-7.5 7.5s3.358 7.5 7.5 7.5h158.29v33.745c0 10.971-8.925 19.896-19.896 19.896h-177.79c-10.97 0-19.895-8.925-19.895-19.896v-33.745h24.291c4.142 0 7.5-3.357 7.5-7.5s-3.358-7.5-7.5-7.5h-24.29v-152.859h47.57c3.461 0 6.474-2.369 7.289-5.733 6.044-24.938 28.222-42.356 53.931-42.356s47.886 17.418 53.931 42.356c.815 3.364 3.827 5.733 7.289 5.733h47.57v26.5c0 4.143 3.357 7.5 7.5 7.5s7.5-3.357 7.5-7.5v-55.647c0-24.794-11.89-48.416-31.805-63.188zm-123.213-168.165h62.457v27.067h-62.457zm2.561 71.407c4.142 0 7.5-3.357 7.5-7.5s-3.358-7.5-7.5-7.5h-17.818v-14.34h92.969v14.34h-40.151c-4.143 0-7.5 3.357-7.5 7.5s3.357 7.5 7.5 7.5h30.176v40.834h-73.018v-40.834zm95.53 174.093c-9.516-28.596-36.215-48.09-66.863-48.09-30.649 0-57.347 19.494-66.863 48.09h-41.927v-14.147c0-20.067 9.623-39.185 25.74-51.139l25.694-19.057c11.024-8.177 18.275-20.495 20.27-33.916h74.172c1.995 13.42 9.245 25.739 20.27 33.916l25.694 19.056c16.117 11.955 25.74 31.073 25.74 51.14v14.147z"/><path d="m295.167 283.179c0-21.597-17.57-39.167-39.167-39.167s-39.167 17.57-39.167 39.167 17.57 39.167 39.167 39.167 39.167-17.571 39.167-39.167zm-63.334 0c0-13.326 10.841-24.167 24.167-24.167s24.167 10.841 24.167 24.167-10.841 24.167-24.167 24.167-24.167-10.841-24.167-24.167z"/><path d="m330.5 377v-34.667c0-4.143-3.357-7.5-7.5-7.5h-134c-4.142 0-7.5 3.357-7.5 7.5v34.667c0 4.143 3.358 7.5 7.5 7.5h134c4.143 0 7.5-3.357 7.5-7.5zm-15-7.5h-119v-19.667h119z"/><path d="m228.167 398.166c-4.142 0-7.5 3.357-7.5 7.5s3.358 7.5 7.5 7.5h55.667c4.143 0 7.5-3.357 7.5-7.5s-3.357-7.5-7.5-7.5z"/></g></svg>