<svg id="Capa_1" enable-background="new 0 0 512 512" height="512" viewBox="0 0 512 512" width="512" xmlns="http://www.w3.org/2000/svg"><g><path d="m302.309 143.998c-10.254-4.678-16.879-14.983-16.879-26.255v-31.993c0-4.143-3.357-7.5-7.5-7.5s-7.5 3.357-7.5 7.5v7.984h-28.86v-47.317h28.859v4.583c0 4.143 3.357 7.5 7.5 7.5s7.5-3.357 7.5-7.5v-43.5c0-4.143-3.357-7.5-7.5-7.5h-43.859c-4.143 0-7.5 3.357-7.5 7.5v110.243c0 8.919-4.225 17.481-11.301 22.904-3.287 2.52-3.91 7.228-1.391 10.516 2.519 3.286 7.225 3.91 10.516 1.391 10.755-8.243 17.176-21.256 17.176-34.811v-9.009h28.859v9.009c0 17.13 10.069 32.792 25.652 39.901 14.777 6.743 24.326 21.597 24.326 37.839v284.884c0 9.171-7.461 16.633-16.633 16.633h-95.551c-9.172 0-16.633-7.462-16.633-16.633v-284.884c0-8.622 2.626-16.907 7.594-23.957 2.386-3.387 1.575-8.065-1.811-10.451-3.389-2.389-8.065-1.574-10.451 1.811-6.76 9.594-10.332 20.865-10.332 32.598v284.884c0 17.442 14.19 31.633 31.633 31.633h95.551c17.442 0 31.633-14.19 31.633-31.633v-284.885c.001-22.1-12.991-42.309-33.098-51.485zm-31.879-128.998v16.417h-28.86v-16.417z"/><path d="m216.843 236.139h78.314c4.143 0 7.5-3.357 7.5-7.5v-25.101c0-4.143-3.357-7.5-7.5-7.5h-78.314c-4.143 0-7.5 3.357-7.5 7.5v25.101c0 4.142 3.357 7.5 7.5 7.5zm7.5-25.101h63.314v10.101h-63.314z"/><path d="m216.843 311.767h27.49c4.143 0 7.5-3.357 7.5-7.5s-3.357-7.5-7.5-7.5h-19.99v-36.852h63.314v36.852h-8.99c-4.143 0-7.5 3.357-7.5 7.5s3.357 7.5 7.5 7.5h16.49c4.143 0 7.5-3.357 7.5-7.5v-51.852c0-4.143-3.357-7.5-7.5-7.5h-78.314c-4.143 0-7.5 3.357-7.5 7.5v51.852c0 4.142 3.357 7.5 7.5 7.5z"/><path d="m284.585 334.567c0-4.143-3.357-7.5-7.5-7.5h-42.17c-4.143 0-7.5 3.357-7.5 7.5s3.357 7.5 7.5 7.5h42.17c4.143 0 7.5-3.357 7.5-7.5z"/><circle cx="287.872" cy="454.667" r="7.5"/><circle cx="266.297" cy="422.833" r="7.5"/></g></svg>