<svg id="Capa_1" enable-background="new 0 0 512 512" height="512" viewBox="0 0 512 512" width="512" xmlns="http://www.w3.org/2000/svg"><g><path d="m342.818 199.88c21.774-30.035 17.685-72.927-9.166-98.447l-39.401-37.474.005-56.459c0-4.143-3.357-7.5-7.5-7.5h-61.512c-4.143 0-7.5 3.357-7.5 7.5l.005 56.459-18.042 17.159c-3.001 2.854-3.12 7.602-.266 10.604 2.856 3.002 7.604 3.119 10.604.266l20.373-19.376c1.488-1.416 2.331-3.38 2.331-5.435v-14.358h46.502v14.357c0 2.055.843 4.019 2.331 5.435l41.734 39.692c24.082 22.888 24.674 62.264 1.332 85.87-2.05 2.073-2.713 5.146-1.7 7.879s3.518 4.633 6.423 4.87c7.096.578 12.653 6.617 12.653 13.746v12.832h-172.048v-12.831c0-7.129 5.558-13.167 12.653-13.746 2.905-.237 5.41-2.137 6.423-4.87s.35-5.806-1.7-7.879c-22.086-22.336-22.976-59.127-1.945-82.504 2.77-3.079 2.52-7.821-.561-10.592-3.076-2.768-7.818-2.52-10.592.561-23.342 25.946-25.574 65.96-5.072 94.241-8.508 5.057-14.206 14.364-14.206 24.789v258.533c0 15.879 12.919 28.798 28.798 28.798h10.726c4.143 0 7.5-3.357 7.5-7.5s-3.357-7.5-7.5-7.5h-10.727c-7.608 0-13.798-6.189-13.798-13.798v-26.702h172.049v26.702c0 7.608-6.189 13.798-13.798 13.798h-98.226c-4.143 0-7.5 3.357-7.5 7.5s3.357 7.5 7.5 7.5h98.227c15.879 0 28.798-12.919 28.798-28.798v-172.202c0-4.143-3.357-7.5-7.5-7.5s-7.5 3.357-7.5 7.5v130.5h-172.049v-189h172.049v22.409c0 4.143 3.357 7.5 7.5 7.5s7.5-3.357 7.5-7.5v-50.24c-.001-10.425-5.699-19.732-14.207-24.789zm-110.074-184.88h46.512v22.815h-46.512z"/><path d="m194.833 347c0 33.728 27.439 61.167 61.167 61.167s61.167-27.439 61.167-61.167-27.439-61.167-61.167-61.167-61.167 27.439-61.167 61.167zm107.334 0c0 25.457-20.71 46.167-46.167 46.167s-46.167-20.71-46.167-46.167 20.71-46.167 46.167-46.167 46.167 20.71 46.167 46.167z"/><circle cx="271.301" cy="328.275" r="7.5"/></g></svg>