<svg id="Capa_1" enable-background="new 0 0 512 512" height="512" viewBox="0 0 512 512" width="512" xmlns="http://www.w3.org/2000/svg"><g><path d="m396.675 345.432h35.219c44.171 0 80.106-35.936 80.106-80.106 0-16.132-4.776-31.687-13.812-44.98-2.328-3.425-6.993-4.314-10.419-1.987-3.426 2.328-4.315 6.993-1.987 10.419 7.339 10.796 11.218 23.434 11.218 36.547 0 35.899-29.207 65.106-65.106 65.106h-30.987c1.328-5.991 2.26-12.124 2.788-18.364h28.199c25.773 0 46.742-20.969 46.742-46.742 0-25.774-20.969-46.743-46.742-46.743h-27.689v-18.363h27.689c10.873 0 21.631 2.73 31.109 7.896 1.14.622 2.369.916 3.582.916 2.657 0 5.231-1.415 6.592-3.912 1.982-3.637.642-8.192-2.996-10.174-11.674-6.363-24.913-9.727-38.287-9.727h-27.689v-13.553c0-4.143-3.357-7.5-7.5-7.5h-301.609c-4.143 0-7.5 3.357-7.5 7.5v128.558c0 12.1 1.547 24.071 4.599 35.659-5.228 4.809-9.483 10.441-12.666 16.614h-35.16c-11.279 0-20.455 9.176-20.455 20.455v3.667h-2.72c-11.687 0-21.194 9.507-21.194 21.194v20.857c0 11.687 9.507 21.193 21.193 21.193h26.366c-.428 1.917-.666 3.976-.666 6.179 0 18.99 16.591 48.278 38.637 48.278h47.271c4.143 0 7.5-3.357 7.5-7.5s-3.357-7.5-7.5-7.5h-47.271c-11.186 0-23.637-19.836-23.637-33.278 0-6.179 2.402-6.179 4.332-6.179h359.349c1.933 0 4.339 0 4.339 6.18 0 13.442-12.454 33.277-23.644 33.277h-237.769c-4.143 0-7.5 3.357-7.5 7.5s3.357 7.5 7.5 7.5h237.77c22.049 0 38.644-29.287 38.644-48.277 0-12.866-7.591-21.18-19.339-21.18h-98.029c32.295-16.382 57.289-44.942 69.129-79.43zm35.219-111.85c17.503 0 31.742 14.24 31.742 31.743s-14.239 31.742-31.742 31.742h-27.689v-63.485zm-299.162 101.433c2.011 0 4.032.146 6.05.419l-13.15 42.699c-1.219 3.958 1.002 8.155 4.961 9.375 3.88 1.196 8.179-1.079 9.375-4.961l13.29-43.154 18.104 5.421-6.848 25.283c-1.083 3.998 1.28 8.117 5.278 9.2 3.945 1.067 8.133-1.338 9.2-5.278l8.758-32.333 7.222-26.666c1.914-7.059 9.215-11.246 16.268-9.343 6.969 1.89 11.211 9.309 9.332 16.271l-7.52 27.74c-1.064 3.924 1.192 7.98 5.087 9.146l14.762 4.42-4.705 14.816c-1.254 3.948.931 8.165 4.878 9.419 3.873 1.226 8.187-1.003 9.419-4.878l4.781-15.054 18.077 5.412v51.893h-132.55c-24.484 0-44.924-20.44-44.924-44.924 0-24.4 20.413-44.923 44.855-44.923zm-93.819 37.936c0-3.008 2.447-5.455 5.455-5.455h29.819c-.629 2.985-1.049 6.03-1.219 9.122h-34.055zm-23.913 45.718v-20.857c0-3.415 2.778-6.193 6.193-6.193h52.817c2.526 12.857 9.365 24.569 19.159 33.244h-71.976c-3.415-.001-6.193-2.779-6.193-6.194zm265.352 5.196v-12.33c25.806-3.965 49.5-16.599 67.308-36.037 19.486-21.272 30.218-48.886 30.218-77.754v-81.847c0-4.143-3.357-7.5-7.5-7.5h-44.628c-4.143 0-7.5 3.357-7.5 7.5s3.357 7.5 7.5 7.5h37.127v74.347c0 49.234-34.938 90.258-82.525 98.598v-28.957c0-3.313-2.175-6.234-5.349-7.185l-45.562-13.642 5.608-20.691c4.025-14.859-5.041-30.642-19.891-34.67-15.038-4.066-30.588 4.862-34.664 19.897l-5.209 19.235-24.795-7.425c-6.408-1.602-12.285-3.024-19.067-2.878-1.652-7.277-2.501-14.745-2.501-22.284v-74.347h162.078c4.143 0 7.5-3.357 7.5-7.5s-3.357-7.5-7.5-7.5h-169.577c-4.143 0-7.5 3.357-7.5 7.5v81.847c0 8.284.881 16.501 2.621 24.522-3.833 1.081-7.56 2.544-11.129 4.384-1.865-8.642-2.819-17.492-2.819-26.427v-121.055h286.608v121.058c0 63.015-47.202 115.848-108.852 123.641z"/><path d="m178.453 131.288c2.565 3.172 7.386 3.709 10.565 1.139 3.222-2.604 3.739-7.304 1.135-10.524-.576-.737-13.954-18.324.554-42.377 20.105-33.332.217-58.071-.64-59.107-2.64-3.194-7.367-3.645-10.559-1.006-3.193 2.638-3.644 7.365-1.006 10.559.143.172 14.035 17.478-.64 41.807-20.074 33.282-.262 58.453.591 59.509z"/><path d="m240.068 131.288c2.565 3.172 7.386 3.709 10.565 1.139 3.222-2.604 3.739-7.304 1.135-10.524-.576-.737-13.954-18.324.554-42.377 20.104-33.332.217-58.07-.64-59.107-2.638-3.194-7.386-3.666-10.578-1.029-3.193 2.638-3.663 7.342-1.025 10.535.573.718 13.871 17.86-.601 41.854-20.075 33.282-.263 58.453.59 59.509z"/><path d="m301.683 131.288c2.565 3.172 7.386 3.709 10.565 1.139 3.222-2.604 3.739-7.304 1.135-10.524-.576-.737-13.954-18.324.554-42.377 20.105-33.332.217-58.071-.64-59.107-2.639-3.194-7.367-3.645-10.559-1.006-3.193 2.638-3.644 7.365-1.006 10.559.143.172 14.035 17.478-.64 41.807-20.074 33.282-.263 58.453.591 59.509z"/></g></svg>