<?xml version="1.0" encoding="iso-8859-1"?>
<!-- Generator: Adobe Illustrator 19.0.0, SVG Export Plug-In . SVG Version: 6.00 Build 0)  -->
<svg version="1.1" id="Capa_1" xmlns="http://www.w3.org/2000/svg" xmlns:xlink="http://www.w3.org/1999/xlink" x="0px" y="0px"
	 viewBox="0 0 512.002 512.002" style="enable-background:new 0 0 512.002 512.002;" xml:space="preserve">
<g>
	<g>
		<path d="M425.809,324.22c-1.875-1.875-4.419-2.929-7.071-2.929c-2.652,0-5.195,1.054-7.071,2.929l-81.64,81.64v-81.43V80.002
			c0-0.263-0.011-0.43-0.028-0.55c-0.287-5.265-4.635-9.45-9.972-9.45H203.804c9.233-19.015,10.326-41.923,2.374-63.463
			c-0.92-2.493-2.794-4.517-5.209-5.625c-2.414-1.108-5.17-1.209-7.661-0.284c-9.774,3.639-18.535,9.566-25.691,17.239
			c-3.179-5.094-7.084-9.859-11.719-14.127c-3.828-3.525-9.723-3.525-13.551,0c-18.903,17.413-25.894,42.973-19.328,66.261h-15.587
			L99.318,8.691c-0.725-5.476-5.765-9.334-11.225-8.602c-5.476,0.725-9.327,5.75-8.602,11.225l7.767,58.688H64.027
			c-5.262,0-9.567,4.068-9.961,9.23c-0.024,0.23-0.039,0.482-0.039,0.77V324.43v157.572c0,16.542,13.458,30,30,30h178
			c5.522,0,10-4.478,10-10c0-5.522-4.478-10-10-10h-178c-5.514,0-10-4.486-10-10v-95.516c19.35,26.895,50.912,44.444,86.5,44.444h63
			c35.588,0,67.15-17.549,86.5-44.444v39c0,0.12,0.014,0.236,0.018,0.355l-39.8,39.8c-1.875,1.876-2.929,4.419-2.929,7.071
			c0,2.652,1.054,5.196,2.929,7.071c21.445,21.444,49.613,32.166,77.782,32.166s56.338-10.723,77.782-32.166
			C468.697,436.895,468.697,367.11,425.809,324.22z M231.094,113.424h0.001l22.294-22.295c0.951-0.951,2.062-1.093,2.639-1.093
			c0.577,0,1.688,0.142,2.639,1.094l22.295,22.294c0.95,0.951,1.092,2.062,1.092,2.639c0,0.577-0.142,1.688-1.094,2.639
			l-22.294,22.294c-1.455,1.455-3.822,1.455-5.277,0l-22.294-22.294c-0.952-0.951-1.094-2.062-1.094-2.639
			C230.001,115.486,230.143,114.375,231.094,113.424z M176.264,39.328c3.749-6.065,8.521-11.087,14.138-14.877
			c2.929,16.374-0.648,33.096-9.946,45.552h-5.229C178.069,59.921,178.372,49.417,176.264,39.328z M149.123,26.081
			c3.14,4.37,5.421,9.117,6.854,14.043c0.057,0.228,0.118,0.454,0.191,0.678c2.614,9.542,2.007,19.729-2.087,29.2h-9.917
			C137.853,55.4,139.779,39.085,149.123,26.081z M74.027,118.002v-28h15.879l3.706,28H74.027z M247.213,381.917l-27.059,27.06
			c-2.601,2.599-6.829,2.601-9.43,0l-27.061-27.06c-1.259-1.26-1.952-2.934-1.952-4.715c0-1.78,0.693-3.454,1.952-4.714h0.001
			l27.06-27.06c1.3-1.3,3.007-1.949,4.714-1.949c1.708,0,3.415,0.649,4.715,1.949l27.06,27.06c1.26,1.259,1.953,2.934,1.953,4.714
			C249.166,378.984,248.472,380.659,247.213,381.917z M310.027,189.502c-0.553-0.59-1.098-1.185-1.674-1.761
			c-1.875-1.875-4.419-2.929-7.071-2.929c-2.652,0-5.195,1.054-7.071,2.929l-90.51,90.51c-3.905,3.905-3.905,10.237,0,14.143
			c13.977,13.977,32.56,21.675,52.326,21.675s38.35-7.698,52.326-21.675c0.576-0.576,1.121-1.171,1.674-1.761v33.798
			c0,38.118-24.786,70.554-59.087,82.045l10.416-10.416c5.036-5.037,7.811-11.733,7.811-18.857c0-7.123-2.774-13.819-7.811-18.856
			l-27.061-27.06c-10.398-10.396-27.316-10.396-37.713,0l-27.06,27.06c-5.037,5.037-7.811,11.733-7.811,18.856
			c0,7.124,2.773,13.821,7.811,18.857l14.87,14.87h-23.865c-47.696,0-86.5-38.804-86.5-86.5V138.002h22.231l32.73,247.312
			c0.665,5.03,4.961,8.689,9.9,8.689c0.438,0,0.88-0.028,1.325-0.088c5.475-0.725,9.325-5.75,8.601-11.225L129.51,236.826
			l9.218,9.218c4.922,4.922,11.467,7.633,18.428,7.633s13.506-2.711,18.428-7.633l26.076-26.076c10.16-10.161,10.16-26.694,0-36.856
			l-26.076-26.075c-4.922-4.922-11.467-7.633-18.428-7.633c-6.962,0-13.506,2.711-18.428,7.633l-17.466,17.466l-4.831-36.5h30.095
			c5.522,0,10-4.478,10-10c0-5.522-4.478-10-10-10h-32.742l-3.706-28h27.953h22.183h66.017l-9.279,9.279
			c-4.482,4.482-6.951,10.442-6.951,16.781s2.469,12.299,6.951,16.781l22.294,22.294c4.627,4.626,10.704,6.939,16.781,6.939
			c6.077,0,12.154-2.313,16.781-6.939l22.294-22.294c4.482-4.482,6.951-10.442,6.951-16.781c0-6.34-2.469-12.3-6.951-16.781
			l-9.28-9.279h24.205V189.502z M274.579,235.657l26.047-26.047c7.232,10.583,10.275,23.188,9.138,35.475L274.579,235.657z
			 M304.271,264.319c-2.522,5.027-5.871,9.743-10.06,13.932c-4.142,4.142-8.845,7.513-13.928,10.075l-8.786-32.789L304.271,264.319z
			 M261.052,293.831c-1.661,0.152-3.337,0.237-5.025,0.237c-11.032,0-21.56-3.287-30.464-9.396l26.054-26.054L261.052,293.831z
			 M187.517,197.253c2.363,2.364,2.363,6.209,0,8.572l-26.076,26.076c-1.145,1.145-2.666,1.775-4.285,1.775
			s-3.141-0.631-4.285-1.775l-26.076-26.076c-2.363-2.363-2.363-6.208,0-8.571l26.076-26.076c1.145-1.145,2.666-1.774,4.285-1.774
			s3.141,0.63,4.285,1.774v0.001L187.517,197.253z M392.614,371.557c7.232,10.582,10.289,23.178,9.152,35.464l-35.188-9.428
			L392.614,371.557z M396.264,426.252c-2.522,5.027-5.864,9.745-10.053,13.934c-4.189,4.189-8.907,7.531-13.934,10.053l-8.78-32.767
			L396.264,426.252z M343.617,420.554l9.428,35.188c-12.286,1.137-24.882-1.92-35.464-9.152L343.617,420.554z M411.667,465.642
			c-32.7,32.7-84.513,34.927-119.818,6.681l11.415-11.415c13.177,10.027,28.965,15.06,44.764,15.06c6.616,0,13.229-0.9,19.652-2.659
			c0.135-0.03,0.27-0.044,0.404-0.081c0.181-0.049,0.354-0.113,0.53-0.171c11.629-3.348,22.594-9.584,31.74-18.729
			c9.145-9.145,15.381-20.11,18.729-31.738c0.058-0.177,0.123-0.349,0.171-0.531c0.046-0.173,0.075-0.346,0.111-0.519
			c5.912-21.732,1.77-45.639-12.432-64.302l11.414-11.414C446.594,381.128,444.367,432.942,411.667,465.642z"/>
	</g>
</g>
<g>
	<g>
		<path d="M190.447,120.932c-1.861-1.86-4.44-2.93-7.07-2.93c-2.64,0-5.21,1.069-7.069,2.93c-1.86,1.86-2.931,4.43-2.931,7.07
			c0,2.63,1.07,5.21,2.931,7.069c1.859,1.86,4.439,2.931,7.069,2.931s5.2-1.07,7.07-2.931c1.86-1.859,2.93-4.439,2.93-7.069
			S192.308,122.792,190.447,120.932z"/>
	</g>
</g>
<g>
	<g>
		<path d="M260.096,187.743c-1.859-1.86-4.439-2.931-7.069-2.931s-5.21,1.07-7.07,2.931c-1.86,1.859-2.93,4.439-2.93,7.069
			s1.069,5.21,2.93,7.07c1.861,1.86,4.44,2.93,7.07,2.93c2.63,0,5.21-1.069,7.069-2.93c1.86-1.86,2.931-4.44,2.931-7.07
			S261.957,189.602,260.096,187.743z"/>
	</g>
</g>
<g>
	<g>
		<path d="M104.096,332.932c-1.859-1.86-4.439-2.93-7.069-2.93c-2.63,0-5.21,1.069-7.07,2.93c-1.86,1.861-2.93,4.44-2.93,7.07
			s1.069,5.21,2.93,7.069c1.86,1.86,4.44,2.931,7.07,2.931c2.63,0,5.21-1.07,7.069-2.931c1.86-1.859,2.931-4.439,2.931-7.069
			S105.957,334.792,104.096,332.932z"/>
	</g>
</g>
<g>
	<g>
		<path d="M174.777,276.713c-1.87-1.861-4.44-2.93-7.07-2.93s-5.21,1.069-7.07,2.93c-1.859,1.859-2.93,4.439-2.93,7.07
			c0,2.63,1.07,5.21,2.93,7.069c1.86,1.86,4.431,2.931,7.07,2.931c2.63,0,5.21-1.07,7.07-2.931c1.859-1.859,2.93-4.439,2.93-7.069
			C177.707,281.152,176.637,278.572,174.777,276.713z"/>
	</g>
</g>
<g>
	<g>
		<path d="M294.546,332.932c-1.859-1.86-4.439-2.93-7.069-2.93c-2.641,0-5.21,1.069-7.07,2.93c-1.87,1.86-2.93,4.44-2.93,7.07
			s1.06,5.21,2.93,7.069c1.86,1.86,4.43,2.931,7.07,2.931c2.63,0,5.199-1.07,7.069-2.931c1.86-1.859,2.931-4.439,2.931-7.069
			S296.407,334.792,294.546,332.932z"/>
	</g>
</g>
<g>
</g>
<g>
</g>
<g>
</g>
<g>
</g>
<g>
</g>
<g>
</g>
<g>
</g>
<g>
</g>
<g>
</g>
<g>
</g>
<g>
</g>
<g>
</g>
<g>
</g>
<g>
</g>
<g>
</g>
</svg>
