<?xml version="1.0" encoding="iso-8859-1"?>
<!-- Generator: Adobe Illustrator 19.0.0, SVG Export Plug-In . SVG Version: 6.00 Build 0)  -->
<svg version="1.1" id="Capa_1" xmlns="http://www.w3.org/2000/svg" xmlns:xlink="http://www.w3.org/1999/xlink" x="0px" y="0px"
	 viewBox="0 0 512 512" style="enable-background:new 0 0 512 512;" xml:space="preserve">
<g>
	<g>
		<path d="M337.828,479.802l-51.854-21.698v-88.437c0-5.522-4.477-10-10-10s-10,4.478-10,10v95.093c0,4.031,2.421,7.669,6.14,9.225
			L315.168,492H196.856l42.973-17.951c3.722-1.555,6.146-5.193,6.146-9.228V307.365c3.289,0.403,6.63,0.635,10.026,0.635
			c45.215,0,82-36.785,82-82V10c0-5.522-4.477-10-10-10H184c-5.523,0-10,4.478-10,10v216c0,34.618,21.574,64.272,51.974,76.281
			v155.88l-51.793,21.636c-7.456,3.114-11.554,10.823-9.966,18.746c1.588,7.924,8.341,13.457,16.422,13.457h150.726
			c8.079,0,14.831-5.531,16.421-13.452C349.374,490.628,345.279,482.919,337.828,479.802z M194,20h124v34H194V20z M194,226V74h124
			v152c0,34.187-27.813,62-62,62S194,260.187,194,226z"/>
	</g>
</g>
<g>
	<g>
		<path d="M283.04,327.89c-1.86-1.859-4.43-2.93-7.07-2.93c-2.63,0-5.21,1.07-7.07,2.93c-1.86,1.86-2.93,4.44-2.93,7.07
			s1.07,5.21,2.93,7.07c1.87,1.859,4.44,2.93,7.07,2.93s5.21-1.07,7.07-2.93c1.87-1.86,2.93-4.44,2.93-7.07
			S284.91,329.75,283.04,327.89z"/>
	</g>
</g>
<g>
	<g>
		<path d="M306.07,100.93C304.21,99.07,301.63,98,299,98s-5.21,1.069-7.07,2.93c-1.86,1.86-2.93,4.44-2.93,7.07
			s1.07,5.21,2.93,7.069c1.86,1.861,4.44,2.931,7.07,2.931s5.21-1.07,7.07-2.931c1.86-1.859,2.93-4.439,2.93-7.069
			S307.93,102.79,306.07,100.93z"/>
	</g>
</g>
<g>
	<g>
		<path d="M260.07,100.93C258.21,99.07,255.63,98,253,98s-5.21,1.069-7.07,2.93c-1.86,1.86-2.93,4.44-2.93,7.07
			s1.07,5.21,2.93,7.069c1.86,1.861,4.44,2.931,7.07,2.931s5.21-1.07,7.07-2.931c1.86-1.859,2.93-4.439,2.93-7.069
			S261.93,102.79,260.07,100.93z"/>
	</g>
</g>
<g>
	<g>
		<path d="M233.07,180.93c-1.86-1.86-4.44-2.93-7.07-2.93s-5.21,1.069-7.07,2.93c-1.86,1.86-2.93,4.44-2.93,7.07
			s1.07,5.21,2.93,7.069c1.86,1.86,4.44,2.931,7.07,2.931s5.21-1.07,7.07-2.931c1.86-1.859,2.93-4.439,2.93-7.069
			S234.93,182.79,233.07,180.93z"/>
	</g>
</g>
<g>
	<g>
		<path d="M260.07,225.93c-1.86-1.86-4.44-2.93-7.07-2.93s-5.21,1.069-7.07,2.93c-1.86,1.86-2.93,4.44-2.93,7.07
			s1.07,5.21,2.93,7.069c1.86,1.86,4.44,2.931,7.07,2.931s5.21-1.07,7.07-2.931c1.86-1.859,2.93-4.439,2.93-7.069
			S261.93,227.79,260.07,225.93z"/>
	</g>
</g>
<g>
	<g>
		<path d="M282.57,160.93c-1.86-1.86-4.44-2.93-7.07-2.93s-5.21,1.069-7.07,2.93c-1.86,1.86-2.93,4.44-2.93,7.07
			s1.07,5.21,2.93,7.069c1.86,1.861,4.44,2.931,7.07,2.931s5.21-1.07,7.07-2.931c1.86-1.859,2.93-4.439,2.93-7.069
			S284.43,162.79,282.57,160.93z"/>
	</g>
</g>
<g>
</g>
<g>
</g>
<g>
</g>
<g>
</g>
<g>
</g>
<g>
</g>
<g>
</g>
<g>
</g>
<g>
</g>
<g>
</g>
<g>
</g>
<g>
</g>
<g>
</g>
<g>
</g>
<g>
</g>
</svg>
