<?xml version="1.0" encoding="iso-8859-1"?>
<!-- Generator: Adobe Illustrator 19.0.0, SVG Export Plug-In . SVG Version: 6.00 Build 0)  -->
<svg version="1.1" id="Capa_1" xmlns="http://www.w3.org/2000/svg" xmlns:xlink="http://www.w3.org/1999/xlink" x="0px" y="0px"
	 viewBox="0 0 512 512" style="enable-background:new 0 0 512 512;" xml:space="preserve">
<g>
	<g>
		<path d="M438.894,276.389l-0.028-0.207c-0.75-5.471-5.793-9.298-11.264-8.553c-5.472,0.749-9.301,5.792-8.553,11.264l0.028,0.207
			c0.687,5.012,4.975,8.646,9.896,8.646c0.451,0,0.908-0.03,1.368-0.093C435.812,286.904,439.642,281.861,438.894,276.389z"/>
	</g>
</g>
<g>
	<g>
		<path d="M491.112,0H417.09c-24.692,0-45.91,18.439-49.354,42.892L352.652,150h-64.334c6.016-8.962,8.471-19.617,7.37-29.965
			c1.597,0.169,3.211,0.262,4.84,0.262c12.061,0,23.397-4.696,31.925-13.224c8.528-8.528,13.224-19.865,13.224-31.925
			c0-8.651-2.429-16.925-6.943-24.062l33.951-33.951c3.905-3.905,3.905-10.237,0-14.143c-3.906-3.905-10.236-3.905-14.143,0
			l-33.951,33.951C317.454,32.429,309.181,30,300.528,30c-12.06,0-23.397,4.696-31.925,13.224
			c-8.528,8.528-13.223,19.865-13.223,31.924c0,1.629,0.093,3.243,0.262,4.841c-13.109-1.395-26.715,2.911-36.742,12.937
			c-8.527,8.528-13.224,19.866-13.224,31.925c0,9.092,2.672,17.772,7.64,25.148h-47.885l-28.859-63.66l100.643-41.236
			c4.111-1.685,6.619-5.88,6.154-10.299c-0.465-4.419-3.789-8.001-8.161-8.794L92.78,0.182c-4.042-0.734-8.115,1.078-10.279,4.564
			L12.393,117.657c-2.288,3.684-1.94,8.421,0.859,11.732c1.942,2.296,4.757,3.543,7.639,3.543c1.272,0,2.559-0.243,3.788-0.747
			l93.375-38.258L143.474,150H77.217c-5.003,0-9.236,3.698-9.909,8.655L44.629,325.781c-6.372,46.961,7.854,94.364,39.029,130.057
			C114.834,491.529,159.894,512,207.284,512h75.655c47.391,0,92.45-20.471,123.626-56.162
			c31.176-35.692,45.401-83.096,39.029-130.057l-2.145-15.806c-0.742-5.473-5.78-9.302-11.254-8.564
			c-5.473,0.742-9.307,5.781-8.564,11.254l2.145,15.806c5.596,41.239-6.896,82.867-34.274,114.21
			C364.125,474.023,324.556,492,282.94,492h-75.655c-41.616,0-81.186-17.977-108.562-49.319
			c-27.378-31.343-39.87-72.971-34.274-114.21L85.951,170h315.786h2.535l10.118,74.569c0.742,5.474,5.787,9.313,11.254,8.564
			c5.473-0.743,9.307-5.781,8.564-11.254l-11.293-83.225c-0.662-4.879-4.774-8.529-9.673-8.644l12.094-85.881
			c0.331-2.354,2.374-4.129,4.752-4.129h61.023c5.522,0,10-4.477,10-10V10C501.112,4.477,496.635,0,491.112,0z M45.675,101.97
			l38.388-61.824l4.985,44.053L45.675,101.97z M197.948,39.58l-35.844,14.686l-34.106-27.371L197.948,39.58z M108.284,76.317
			l-4.929-43.555l37.595,30.171L108.284,76.317z M268.609,142.635c-4.75,4.75-11.065,7.366-17.782,7.366
			c-6.719-0.001-13.034-2.617-17.784-7.367s-7.366-11.065-7.366-17.782s2.616-13.033,7.366-17.783
			c9.772-9.771,25.651-9.803,35.465-0.096c0.033,0.033,0.063,0.068,0.096,0.101c0.033,0.033,0.067,0.063,0.101,0.096
			C278.411,116.984,278.382,132.863,268.609,142.635z M282.75,92.927c-0.031-0.031-0.064-0.06-0.096-0.091
			c-4.69-4.739-7.274-11.014-7.274-17.688c0-6.717,2.616-13.033,7.366-17.782c4.75-4.75,11.065-7.366,17.782-7.366
			c6.718,0,13.032,2.616,17.782,7.366s7.366,11.065,7.366,17.782s-2.616,13.033-7.366,17.783s-11.064,7.366-17.782,7.366
			c-6.673,0-12.947-2.584-17.687-7.275C282.81,92.991,282.781,92.958,282.75,92.927z M481.112,40h-51.023
			c-12.286,0-22.844,9.175-24.557,21.341L393.047,150H372.85l14.69-104.319C389.602,31.041,402.306,20,417.09,20h64.022V40z"/>
	</g>
</g>
<g>
	<g>
		<path d="M149.57,360.892l-20.695-20.695c-3.906-3.904-10.236-3.904-14.143,0l-20.695,20.695c-3.905,3.905-3.905,10.237,0,14.143
			c3.906,3.904,10.236,3.904,14.143,0l13.624-13.624l13.624,13.624c1.953,1.952,4.512,2.929,7.071,2.929
			c2.559,0,5.118-0.977,7.071-2.929C153.475,371.13,153.475,364.798,149.57,360.892z"/>
	</g>
</g>
<g>
	<g>
		<path d="M272.878,360.892l-20.694-20.695c-1.875-1.875-4.419-2.929-7.071-2.929c-2.652,0-5.195,1.054-7.071,2.929l-20.695,20.695
			c-3.905,3.905-3.905,10.237,0,14.143c1.953,1.952,4.512,2.929,7.071,2.929c2.559,0,5.117-0.977,7.07-2.929l13.624-13.624
			l13.623,13.624c3.906,3.904,10.236,3.905,14.143,0C276.783,371.13,276.783,364.798,272.878,360.892z"/>
	</g>
</g>
<g>
	<g>
		<path d="M396.186,360.892l-20.695-20.695c-3.906-3.904-10.236-3.904-14.143,0l-20.695,20.695c-3.905,3.905-3.905,10.237,0,14.143
			c3.906,3.904,10.236,3.904,14.143,0l13.624-13.624l13.624,13.624c1.953,1.952,4.512,2.929,7.071,2.929s5.118-0.977,7.071-2.929
			C400.091,371.13,400.091,364.798,396.186,360.892z"/>
	</g>
</g>
<g>
	<g>
		<path d="M149.57,221.429l-20.695-20.695c-3.906-3.905-10.236-3.905-14.143,0l-20.695,20.695c-3.905,3.905-3.905,10.237,0,14.143
			c3.906,3.905,10.236,3.905,14.143,0l13.624-13.625l13.624,13.625c1.953,1.953,4.512,2.929,7.071,2.929
			c2.559,0,5.118-0.976,7.071-2.929C153.476,231.666,153.476,225.334,149.57,221.429z"/>
	</g>
</g>
<g>
	<g>
		<path d="M272.878,221.428l-20.694-20.695c-1.875-1.875-4.419-2.929-7.071-2.929c-2.652,0-5.195,1.054-7.071,2.929l-20.695,20.695
			c-3.905,3.905-3.905,10.237,0,14.143c1.952,1.953,4.511,2.929,7.07,2.929c2.56,0,5.118-0.976,7.071-2.929l13.624-13.625
			l13.623,13.624c3.906,3.906,10.236,3.906,14.143,0C276.783,231.665,276.783,225.333,272.878,221.428z"/>
	</g>
</g>
<g>
	<g>
		<path d="M396.187,221.429l-20.695-20.695c-3.906-3.905-10.236-3.905-14.143,0l-20.695,20.695c-3.905,3.905-3.905,10.237,0,14.143
			c3.906,3.905,10.236,3.905,14.143,0l13.624-13.625l13.624,13.625c1.953,1.953,4.512,2.929,7.071,2.929s5.118-0.976,7.071-2.929
			C400.092,231.666,400.092,225.334,396.187,221.429z"/>
	</g>
</g>
<g>
	<g>
		<path d="M214.44,430.624l-20.695-20.695c-3.906-3.904-10.236-3.904-14.143,0l-20.695,20.695c-3.905,3.905-3.905,10.237,0,14.143
			c3.906,3.904,10.236,3.904,14.143,0l13.624-13.624l13.624,13.624c1.953,1.952,4.512,2.929,7.071,2.929
			c2.559,0,5.118-0.977,7.071-2.929C218.345,440.862,218.345,434.53,214.44,430.624z"/>
	</g>
</g>
<g>
	<g>
		<path d="M331.316,430.624l-20.695-20.695c-3.906-3.904-10.236-3.904-14.143,0l-20.695,20.695c-3.905,3.905-3.905,10.237,0,14.143
			c3.907,3.904,10.237,3.904,14.143,0l13.624-13.624l13.624,13.624c1.953,1.952,4.512,2.929,7.071,2.929s5.118-0.977,7.071-2.929
			C335.221,440.862,335.221,434.53,331.316,430.624z"/>
	</g>
</g>
<g>
	<g>
		<path d="M214.441,291.16l-20.695-20.695c-3.907-3.904-10.237-3.904-14.143,0l-20.695,20.695c-3.905,3.905-3.905,10.237,0,14.143
			c3.906,3.904,10.236,3.904,14.143,0l13.624-13.624l13.624,13.624c1.953,1.952,4.512,2.929,7.071,2.929s5.118-0.977,7.071-2.929
			C218.346,301.398,218.346,295.066,214.441,291.16z"/>
	</g>
</g>
<g>
	<g>
		<path d="M331.316,291.16l-20.695-20.695c-3.906-3.904-10.236-3.904-14.143,0l-20.695,20.695c-3.905,3.905-3.905,10.237,0,14.143
			c3.906,3.904,10.236,3.904,14.143,0l13.624-13.624l13.624,13.624c1.953,1.952,4.512,2.929,7.071,2.929s5.118-0.977,7.071-2.929
			C335.222,301.397,335.222,295.065,331.316,291.16z"/>
	</g>
</g>
<g>
</g>
<g>
</g>
<g>
</g>
<g>
</g>
<g>
</g>
<g>
</g>
<g>
</g>
<g>
</g>
<g>
</g>
<g>
</g>
<g>
</g>
<g>
</g>
<g>
</g>
<g>
</g>
<g>
</g>
</svg>
