<?xml version="1.0" encoding="iso-8859-1"?>
<!-- Generator: Adobe Illustrator 19.0.0, SVG Export Plug-In . SVG Version: 6.00 Build 0)  -->
<svg version="1.1" id="Capa_1" xmlns="http://www.w3.org/2000/svg" xmlns:xlink="http://www.w3.org/1999/xlink" x="0px" y="0px"
	 viewBox="0 0 512.002 512.002" style="enable-background:new 0 0 512.002 512.002;" xml:space="preserve">
<g>
	<g>
		<path d="M283.1,365.261c-1.87-1.86-4.439-2.93-7.08-2.93c-2.629-0.001-5.209,1.07-7.069,2.93s-2.931,4.44-2.931,7.07
			c0,2.64,1.07,5.21,2.931,7.07c1.859,1.87,4.439,2.93,7.069,2.93c2.641,0,5.21-1.06,7.08-2.93c1.86-1.86,2.92-4.43,2.92-7.07
			C286.02,369.701,284.96,367.121,283.1,365.261z"/>
	</g>
</g>
<g>
	<g>
		<path d="M434.013,61.347c4.881-16.216,7.524-33.392,7.541-51.174c0.003-3.221-1.465-6.334-4.069-8.229
			c-4.11-2.989-9.585-2.431-13.002,0.986l-60.832,60.832c5.358-16.922,8.264-34.925,8.281-53.592
			c0.003-3.222-1.467-6.336-4.074-8.229c-4.111-2.985-9.582-2.425-12.997,0.99L303.79,54.002H88.113
			c-3.378,0-6.527,1.705-8.374,4.534c-1.794,2.749-43.633,67.838-15.896,112.416c13.695,22.011,34.754,28.754,57.049,35.893
			c22.697,7.268,48.423,15.506,72.915,42.131c14.143,15.374,23.42,31.487,27.691,39.723c0.026,0.051,0.053,0.102,0.08,0.153
			c2.814,5.306,4.447,11.156,4.447,17.162v152.092l-51.485,21.543c-7.246,3.032-11.729,10.605-10.426,18.351
			c1.382,8.213,8.258,14.002,16.523,14.002h150.328c7.857,0,14.918-5.259,16.703-12.911c1.892-8.112-2.221-16.106-9.849-19.292
			l-51.793-21.636v-48.818c0-5.326-4.019-9.976-9.333-10.321c-5.824-0.378-10.667,4.235-10.667,9.978v55.821
			c0,4.034,2.423,7.673,6.146,9.227l42.973,17.952H196.832l43.055-18.015c3.719-1.556,6.14-5.193,6.14-9.224V298.845h20v36.531
			c0,5.326,4.019,9.976,9.333,10.321c5.824,0.378,10.667-4.235,10.667-9.978v-29.796c0-6.004,1.657-11.839,4.442-17.158
			c0.011-0.022,0.023-0.044,0.034-0.066c4.271-8.236,13.549-24.349,27.691-39.724c24.492-26.625,50.218-34.863,72.915-42.131
			c22.295-7.139,43.354-13.882,57.049-35.893C473.001,131.025,442.037,74.655,434.013,61.347z M419.366,36.33
			c-11.139,66.315-63.621,118.797-129.938,129.936l28.622-28.622c1.036-1.011,2.059-2.034,3.07-3.07L419.366,36.33z M315.001,71.073
			L315.001,71.073l34.742-34.742c-5.387,32.079-20.452,60.922-42.076,83.413l-4.445,4.445
			c-22.492,21.624-51.334,36.689-83.415,42.078L315.001,71.073z M431.178,160.384c-9.813,15.771-25.856,20.908-46.167,27.412
			c-23.819,7.627-53.463,17.12-81.535,47.639c-15.353,16.689-25.519,34.111-30.391,43.41h-34.168
			c-4.871-9.299-15.038-26.721-30.39-43.41c-28.073-30.519-57.717-40.012-81.536-47.639c-20.311-6.504-36.354-11.641-46.167-27.412
			c-6.816-10.954-7.596-24.314-5.529-37.383h85.706c5.522,0,10-4.477,10-10s-4.478-10-10-10H80.459
			c4.37-12.557,10.019-23.249,13.312-29h190.018l-97.382,97.382c-2.859,2.86-3.715,7.161-2.168,10.898
			c1.548,3.737,5.194,6.173,9.239,6.173c20.907,0,40.98-3.626,59.64-10.262c-0.037,1.374,0.195,2.767,0.742,4.089
			c1.548,3.737,5.194,6.173,9.239,6.173c71.255,0,132.879-41.983,161.462-102.507C434.583,107.144,444.383,139.161,431.178,160.384z
			"/>
	</g>
</g>
<g>
	<g>
		<path d="M203.921,105.931c-1.86-1.86-4.44-2.93-7.07-2.93s-5.21,1.07-7.07,2.93c-1.859,1.86-2.93,4.44-2.93,7.07
			c0,2.64,1.07,5.21,2.93,7.07s4.44,2.93,7.07,2.93s5.21-1.07,7.07-2.93c1.859-1.86,2.93-4.44,2.93-7.07
			S205.781,107.791,203.921,105.931z"/>
	</g>
</g>
<g>
</g>
<g>
</g>
<g>
</g>
<g>
</g>
<g>
</g>
<g>
</g>
<g>
</g>
<g>
</g>
<g>
</g>
<g>
</g>
<g>
</g>
<g>
</g>
<g>
</g>
<g>
</g>
<g>
</g>
</svg>
