<?xml version="1.0" encoding="iso-8859-1"?>
<!-- Generator: Adobe Illustrator 19.0.0, SVG Export Plug-In . SVG Version: 6.00 Build 0)  -->
<svg version="1.1" id="Capa_1" xmlns="http://www.w3.org/2000/svg" xmlns:xlink="http://www.w3.org/1999/xlink" x="0px" y="0px"
	 viewBox="0 0 512 512" style="enable-background:new 0 0 512 512;" xml:space="preserve">
<g>
	<g>
		<path d="M450.105,54H208.463c-10.997-31.406-40.915-54-76.027-54C88.025,0,51.895,36.131,51.895,80.542
			s36.131,80.542,80.542,80.542s80.542-36.131,80.542-80.542c0-2.204-0.114-4.382-0.288-6.542h227.415v19.835
			c0,4.891-0.583,9.646-1.652,14.216c-0.335-0.034-0.674-0.051-1.017-0.051H279.5c-5.522,0-10,4.477-10,10s4.478,10,10,10h150.394
			c-11.168,17.021-30.411,28.293-52.246,28.293c-12.564,0-22.786,10.222-22.786,22.787v25.573c0,37.729-30.695,68.424-68.425,68.424
			c-37.73,0-68.425-30.695-68.425-68.424V179.08c0-5.523-4.478-10-10-10c-5.522,0-10,4.477-10,10v25.573
			c0,38.221,24.377,70.853,58.399,83.172v170.336l-51.793,21.636c-7.456,3.115-11.555,10.824-9.967,18.747
			c1.589,7.923,8.342,13.456,16.422,13.456h150.727c8.078,0,14.83-5.531,16.421-13.451c1.59-7.92-2.504-15.63-9.956-18.748
			l-51.854-21.697V361.25c0-5.523-4.478-10-10-10c-5.522,0-10,4.477-10,10v103.51c0,4.032,2.421,7.669,6.14,9.225L345.605,492
			H227.293l42.973-17.952c3.722-1.555,6.146-5.193,6.146-9.227V292.505c3.292,0.373,6.635,0.572,10.025,0.572
			c48.758,0,88.425-39.667,88.425-88.424V179.08c0-1.537,1.25-2.787,2.786-2.787c45.468,0,82.458-36.99,82.458-82.458V64
			C460.105,58.477,455.628,54,450.105,54z M75.413,100.864c-2.272-6.356-3.519-13.195-3.519-20.322
			c0-7.779,1.491-15.211,4.175-22.049l36.367,20.996L75.413,100.864z M122.437,140.242c-14.995-2.503-28.135-10.532-37.258-21.922
			l37.258-21.511V140.242z M122.437,62.169l-36.08-20.831c9.06-10.632,21.719-18.099,36.08-20.497V62.169z M142.436,20.841
			c14.361,2.398,27.02,9.865,36.08,20.497l-36.08,20.831V20.841z M142.437,140.243V96.809l37.258,21.511
			C170.57,129.71,157.431,137.739,142.437,140.243z M189.46,100.864l-37.023-21.375l36.367-20.996
			c2.684,6.838,4.175,14.27,4.175,22.049C192.979,87.669,191.731,94.508,189.46,100.864z"/>
	</g>
</g>
<g>
	<g>
		<path d="M313.479,317.15c-1.859-1.86-4.439-2.93-7.069-2.93s-5.21,1.07-7.07,2.93s-2.93,4.44-2.93,7.07
			c0,2.64,1.069,5.22,2.93,7.08c1.861,1.86,4.44,2.92,7.07,2.92s5.21-1.06,7.069-2.92c1.86-1.86,2.931-4.44,2.931-7.08
			C316.41,321.59,315.34,319.02,313.479,317.15z"/>
	</g>
</g>
<g>
	<g>
		<path d="M251.51,110.93c-1.86-1.86-4.44-2.93-7.07-2.93c-2.64,0-5.21,1.07-7.069,2.93c-1.87,1.86-2.931,4.44-2.931,7.07
			s1.061,5.21,2.931,7.07c1.859,1.86,4.43,2.93,7.069,2.93c2.629,0,5.209-1.07,7.07-2.93c1.86-1.86,2.93-4.44,2.93-7.07
			S253.37,112.79,251.51,110.93z"/>
	</g>
</g>
<g>
</g>
<g>
</g>
<g>
</g>
<g>
</g>
<g>
</g>
<g>
</g>
<g>
</g>
<g>
</g>
<g>
</g>
<g>
</g>
<g>
</g>
<g>
</g>
<g>
</g>
<g>
</g>
<g>
</g>
</svg>
