<?xml version="1.0" encoding="iso-8859-1"?>
<!-- Generator: Adobe Illustrator 19.0.0, SVG Export Plug-In . SVG Version: 6.00 Build 0)  -->
<svg version="1.1" id="Capa_1" xmlns="http://www.w3.org/2000/svg" xmlns:xlink="http://www.w3.org/1999/xlink" x="0px" y="0px"
	 viewBox="0 0 512 512" style="enable-background:new 0 0 512 512;" xml:space="preserve">
<g>
	<g>
		<path d="M393.571,221.434c-1.859-1.86-4.44-2.93-7.069-2.93c-2.63,0-5.21,1.07-7.07,2.93s-2.93,4.44-2.93,7.07
			c0,2.63,1.069,5.21,2.93,7.07s4.44,2.93,7.07,2.93c2.63,0,5.21-1.07,7.069-2.93c1.86-1.86,2.931-4.44,2.931-7.07
			C396.501,225.873,395.431,223.294,393.571,221.434z"/>
	</g>
</g>
<g>
	<g>
		<path d="M322.239,292.035h-24.984c-11.159,0-20.237,9.079-20.237,20.237v24.984c0,11.159,9.078,20.237,20.237,20.237h24.984
			c11.159,0,20.237-9.078,20.237-20.237v-24.984C342.476,301.113,333.398,292.035,322.239,292.035z M322.476,337.255
			c0,0.13-0.106,0.237-0.237,0.237h-24.984c-0.131,0-0.237-0.106-0.237-0.237v-24.984c0-0.131,0.106-0.237,0.237-0.237h24.984
			c0.131,0,0.237,0.106,0.237,0.237V337.255z"/>
	</g>
</g>
<g>
	<g>
		<path d="M362.618,195.849c-0.507-4.668-4.193-8.355-8.861-8.862c-18.905-2.054-36.022,3.515-48.187,15.682
			c-12.167,12.167-17.736,29.281-15.683,48.187c0.507,4.668,4.193,8.355,8.861,8.862c2.571,0.279,5.107,0.417,7.604,0.417
			c15.864,0,30.072-5.587,40.584-16.1C359.102,231.869,364.672,214.756,362.618,195.849z M332.794,229.894
			c-5.976,5.976-14.021,9.445-23.2,10.117c0.672-9.179,4.142-17.225,10.116-23.2c5.976-5.976,14.021-9.445,23.2-10.117
			C342.238,215.874,338.768,223.92,332.794,229.894z"/>
	</g>
</g>
<g>
	<g>
		<path d="M271.64,354.848c-11.917-14.822-27.956-22.985-45.161-22.985c-0.002,0,0,0-0.001,0c-17.205,0-33.246,8.164-45.163,22.985
			c-2.942,3.659-2.942,8.873,0,12.532c11.918,14.823,27.958,22.985,45.164,22.985c17.206,0,33.245-8.163,45.161-22.985
			C274.582,363.721,274.582,358.507,271.64,354.848z M226.477,370.365c-8.45,0-16.593-3.236-23.559-9.251
			c6.966-6.016,15.108-9.251,23.559-9.251s16.593,3.236,23.558,9.251C243.07,367.129,234.927,370.365,226.477,370.365z"/>
	</g>
</g>
<g>
	<g>
		<path d="M229.071,416.461c-1.859-1.86-4.439-2.93-7.069-2.93c-2.63,0-5.209,1.07-7.07,2.93c-1.86,1.86-2.93,4.44-2.93,7.07
			c0,2.63,1.069,5.21,2.93,7.07c1.86,1.86,4.44,2.93,7.07,2.93c2.63,0,5.21-1.07,7.069-2.93c1.86-1.86,2.931-4.44,2.931-7.07
			C232.002,420.901,230.932,418.321,229.071,416.461z"/>
	</g>
</g>
<g>
	<g>
		<path d="M339.541,371.602c-1.851-1.87-4.431-2.93-7.07-2.93c-2.63,0-5.21,1.06-7.07,2.93c-1.859,1.86-2.92,4.43-2.92,7.07
			c0,2.63,1.061,5.21,2.92,7.07c1.86,1.86,4.44,2.93,7.07,2.93c2.64,0,5.22-1.07,7.07-2.93c1.87-1.87,2.939-4.44,2.939-7.07
			C342.48,376.032,341.411,373.462,339.541,371.602z"/>
	</g>
</g>
<g>
	<g>
		<path d="M191.813,167.574c-1.859-1.86-4.439-2.93-7.069-2.93c-2.631,0-5.2,1.07-7.07,2.93c-1.86,1.86-2.93,4.44-2.93,7.07
			c0,2.63,1.069,5.21,2.93,7.07c1.87,1.86,4.439,2.93,7.07,2.93c2.63,0,5.21-1.07,7.069-2.93c1.87-1.86,2.931-4.44,2.931-7.07
			C194.744,172.014,193.683,169.434,191.813,167.574z"/>
	</g>
</g>
<g>
	<g>
		<path d="M407.501,0.006h-47.332c-5.135,0-9.436,3.89-9.95,8.999l-4.528,45H209.724c9.841-11.897,14.227-27.57,12.365-44.722
			c-0.507-4.668-4.193-8.355-8.861-8.862c-19.042-2.069-36.271,3.539-48.519,15.788c-2.306,2.306-4.376,4.789-6.204,7.427
			c-1.828-2.638-3.898-5.121-6.204-7.427c-12.249-12.25-29.484-17.858-48.519-15.788c-4.668,0.507-8.354,4.194-8.861,8.862
			c-2.067,19.04,3.54,36.271,15.789,48.519c9.902,9.902,23.059,15.461,37.796,16.137v225.471c0,30.617,4.7,60.937,13.969,90.119
			c8.647,27.221,13.031,55.504,13.031,84.064v18.491c0,10.982,8.935,19.916,19.917,19.916h154.164
			c10.982,0,19.917-8.935,19.917-19.916v-18.491c0-28.561,4.384-56.843,13.031-84.064c9.269-29.182,13.969-59.502,13.969-90.119
			v-32.407c0-5.523-4.478-10-10-10s-10,4.477-10,10v32.407c0,28.561-4.384,56.843-13.031,84.064
			c-6.947,21.873-11.327,44.385-13.086,67.183c-0.058,0.42-0.099,0.846-0.103,1.281h-23.828l6.13-6.13
			c4.061-4.06,6.297-9.458,6.297-15.199c0-5.742-2.236-11.139-6.296-15.198l-19.835-19.834c-4.06-4.06-9.457-6.296-15.198-6.296
			c-5.741,0-11.139,2.236-15.198,6.295l-19.835,19.835c-8.38,8.38-8.38,22.016,0,30.397l6.13,6.13h-73.902
			c-0.004-0.554-0.065-1.093-0.156-1.622c-1.776-22.681-6.144-45.078-13.056-66.842c-8.647-27.221-13.031-55.504-13.031-84.064
			v-4.815l14.172,14.172c6.775,6.774,15.674,10.162,24.573,10.162c8.899,0,17.798-3.388,24.573-10.162l23.993-23.993
			c13.55-13.55,13.55-35.597,0-49.146l-23.993-23.993c-13.551-13.549-35.596-13.549-49.145,0l-14.172,14.172V74.005h45.612
			c-6.831,11.5-10.482,24.662-10.482,38.388c0,20.13,7.839,39.055,22.072,53.288c14.692,14.691,33.99,22.038,53.288,22.038
			c19.299,0,38.596-7.346,53.288-22.038c1.322-1.323,2.226-2.98,2.649-4.771l-0.714,7.094c-0.553,5.495,3.454,10.398,8.949,10.951
			c0.34,0.034,0.678,0.051,1.013,0.051c5.072,0,9.419-3.845,9.938-9l3.921-38.97h18.461v61.468c0,5.523,4.478,10,10,10
			s10-4.477,10-10V64.006c0-5.523-4.478-10-10-10h-20.71l3.421-34H407.5c5.522,0,10-4.477,10-10
			C417.5,4.484,413.023,0.006,407.501,0.006z M124.851,43.66c-6.061-6.059-9.57-14.226-10.231-23.54
			c9.313,0.662,17.479,4.171,23.538,10.231c6.061,6.059,9.57,14.226,10.231,23.54C139.075,53.23,130.91,49.72,124.851,43.66z
			 M276.662,429.554l19.835-19.835c0.361-0.361,0.773-0.438,1.056-0.438c0.283,0,0.694,0.076,1.056,0.438l19.836,19.835
			c0.361,0.361,0.438,0.773,0.438,1.055c0,0.282-0.076,0.694-0.438,1.056L298.61,451.5c-0.582,0.583-1.529,0.583-2.111,0
			l-19.835-19.834C276.08,431.084,276.079,430.136,276.662,429.554z M349.517,471.939c-0.003,0.552-0.016,1.103-0.016,1.655V492
			H195.503v-18.407c0-0.552-0.013-1.103-0.016-1.655H349.517z M172.825,249.769l23.993-23.993c2.876-2.876,6.653-4.314,10.431-4.314
			s7.555,1.438,10.431,4.314l23.993,23.993c5.752,5.751,5.752,15.11,0,20.862l-23.993,23.993c-5.752,5.752-15.109,5.752-20.861,0
			l-23.994-23.993c-2.786-2.786-4.32-6.491-4.32-10.431C168.504,256.26,170.038,252.555,172.825,249.769z M192.157,43.661
			c-6.06,6.06-14.224,9.57-23.538,10.231c0.661-9.315,4.171-17.481,10.231-23.54c6.06-6.06,14.224-9.57,23.538-10.231
			C201.727,29.435,198.217,37.601,192.157,43.661z M233.41,80.95l21.443,21.443h-30.317C225.935,94.679,228.945,87.395,233.41,80.95
			z M224.544,122.393h30.309l-21.432,21.432C228.957,137.381,225.943,130.105,224.544,122.393z M268.995,166.815
			c-7.555-1.377-14.878-4.321-21.434-8.847l21.434-21.434V166.815z M288.995,166.815v-30.281l21.436,21.436
			C303.875,162.496,296.551,165.438,288.995,166.815z M335.196,158.29c-0.081-2.536-1.114-4.952-2.913-6.752l-20.502-20.502h26.158
			L335.196,158.29z M339.95,111.036h-48.17l-37.032-37.031h88.929L339.95,111.036z M376.502,74.005v37.031h-16.449l3.726-37.031
			H376.502z"/>
	</g>
</g>
<g>
</g>
<g>
</g>
<g>
</g>
<g>
</g>
<g>
</g>
<g>
</g>
<g>
</g>
<g>
</g>
<g>
</g>
<g>
</g>
<g>
</g>
<g>
</g>
<g>
</g>
<g>
</g>
<g>
</g>
</svg>
