<?xml version="1.0" encoding="iso-8859-1"?>
<!-- Generator: Adobe Illustrator 19.0.0, SVG Export Plug-In . SVG Version: 6.00 Build 0)  -->
<svg version="1.1" id="Capa_1" xmlns="http://www.w3.org/2000/svg" xmlns:xlink="http://www.w3.org/1999/xlink" x="0px" y="0px"
	 viewBox="0 0 512.003 512.003" style="enable-background:new 0 0 512.003 512.003;" xml:space="preserve">
<g>
	<g>
		<path d="M362.913,266.345c0.005-0.006,0.01-0.013,0.016-0.019c0.001-0.002,0.003-0.004,0.004-0.005l119.897-150.104
			c2.398-3.002,2.864-7.114,1.198-10.578c-1.666-3.462-5.168-5.665-9.012-5.665H334.054c-4.991-44.94-43.199-80.005-89.447-80.005
			c-30.633,0-57.737,15.387-74,38.833c-1.281-1.703-2.64-3.352-4.096-4.928c-3.368-3.643-7.172-6.877-11.342-9.735
			c3.905-3.228,9.033-2.716,9.748-2.624c3.679,0.739,7.325-0.67,9.663-3.614c2.35-2.96,2.687-7.021,1.097-10.451
			c-0.481-1.038-4.966-10.363-14.089-17.889C148.622-1.134,132.556-2.923,116.351,4.53c-4.304,1.979-8.019,4.532-11.084,7.577
			c-3.064-3.044-6.779-5.598-11.084-7.577C77.976-2.922,61.911-1.134,48.945,9.562c-9.123,7.526-13.607,16.851-14.089,17.889
			c-1.567,3.382-1.124,7.355,1.15,10.309c2.274,2.953,6.001,4.397,9.674,3.744c0.059-0.011,5.558-0.77,9.686,2.644
			C37.316,56.567,26.987,76.161,26.987,99.328c0,15.486,9.501,40.693,23.64,62.725c10.04,15.642,30.482,41.889,54.619,41.93
			c0.037,0,0.074,0,0.111,0c11.144-0.038,22.916-5.859,34.481-16.944l63.484,79.347c0.002,0.002,0.003,0.005,0.005,0.007
			c0.006,0.008,0.013,0.015,0.019,0.023l49.654,62.062v129.625l-51.857,21.698c-7.452,3.118-11.547,10.829-9.957,18.749
			c1.59,7.92,8.344,13.453,16.422,13.453h150.735c8.081,0,14.834-5.533,16.422-13.457c1.588-7.923-2.509-15.633-9.967-18.748
			l-51.796-21.637V328.828L362.913,266.345z M313.9,99.975h-45.149l31.895-31.894C307.513,77.243,312.199,88.132,313.9,99.975z
			 M254.608,40.689c11.842,1.701,22.73,6.383,31.893,13.251l-31.893,31.892V40.689z M234.607,40.69v45.142L202.715,53.94
			C211.877,47.073,222.765,42.391,234.607,40.69z M188.569,68.081l31.894,31.894h-45.149
			C177.016,88.132,181.7,77.243,188.569,68.081z M124.706,22.703c9.189-4.225,16.733-3.604,23.741,1.955
			c0.045,0.036,0.091,0.072,0.136,0.108c-3.628,1.755-7.173,4.328-10.22,8.004c-0.623,0.751-1.218,1.444-1.801,2.111
			c-5.655-1.954-12.676-3.338-20.246-4.021C117.743,27.293,120.479,24.646,124.706,22.703z M62.085,24.658
			c7.007-5.56,14.552-6.18,23.74-1.955c4.226,1.943,6.962,4.59,8.392,8.158c-7.569,0.683-14.591,2.067-20.247,4.021
			c-0.583-0.667-1.178-1.359-1.801-2.111c-3.045-3.676-6.591-6.249-10.22-8.004C61.995,24.73,62.04,24.694,62.085,24.658z
			 M105.34,183.98c-0.031-0.001-0.061-0.002-0.089,0c-10.371-0.028-24.849-12.568-37.79-32.731
			c-13.297-20.717-20.472-42.213-20.472-51.92c0-26.021,16.199-38.114,28.39-43.532c0.017-0.007,0.033-0.015,0.05-0.022
			c1.509-0.669,2.959-1.241,4.305-1.719c0.04-0.014,0.08-0.028,0.12-0.043c6.172-2.28,15.621-3.638,25.32-3.638
			c0.004,0,0.007,0,0.011,0c0.037,0,0.073-0.003,0.11,0c9.749-0.01,19.191,1.351,25.384,3.638c0.04,0.015,0.08,0.029,0.12,0.044
			c8.531,3.027,15.605,7.535,21.026,13.4c3.217,3.479,5.813,7.426,7.717,11.733c0.086,0.196,0.188,0.379,0.285,0.566
			c-2.301,6.436-3.888,13.208-4.667,20.221H90.991c-3.844,0-7.348,2.204-9.014,5.668c-1.665,3.464-1.197,7.578,1.205,10.58
			l44.101,55.12C119.233,179.417,111.455,183.943,105.34,183.98z M342.124,491.999h-118.32l43.058-18.016
			c3.719-1.556,6.14-5.193,6.14-9.226V325.186c0.001-0.073,0.002-0.145,0.002-0.214c0-2.271-0.773-4.474-2.191-6.247l-13.901-17.374
			c8.437,2.222,17.224,3.381,26.19,3.381c0.013,0,0.029,0,0.042,0c8.98-0.004,17.78-1.17,26.228-3.402l-14.182,17.755
			c-1.416,1.772-2.187,3.973-2.187,6.241V464.82c0,4.034,2.423,7.672,6.146,9.228L342.124,491.999z M283.136,284.728
			c-0.012,0-0.022,0-0.034,0c-25.094,0-48.478-11.238-64.156-30.834c-0.001-0.001-0.001-0.001-0.002-0.002l-64.737-80.914h168.299
			c5.523,0,10.001-4.477,10.001-10.001c0-5.523-4.477-10.001-10.001-10.001H138.204l-26.405-33.002h342.427L347.294,253.851
			C331.625,273.465,308.24,284.718,283.136,284.728z"/>
	</g>
</g>
<g>
	<g>
		<path d="M369.078,155.908c-1.86-1.86-4.44-2.93-7.07-2.93s-5.21,1.07-7.07,2.93s-2.93,4.44-2.93,7.07s1.07,5.21,2.93,7.07
			s4.44,2.93,7.07,2.93s5.21-1.07,7.07-2.93c1.86-1.86,2.93-4.44,2.93-7.07S370.938,157.768,369.078,155.908z"/>
	</g>
</g>
<g>
</g>
<g>
</g>
<g>
</g>
<g>
</g>
<g>
</g>
<g>
</g>
<g>
</g>
<g>
</g>
<g>
</g>
<g>
</g>
<g>
</g>
<g>
</g>
<g>
</g>
<g>
</g>
<g>
</g>
</svg>
