<?xml version="1.0" encoding="iso-8859-1"?>
<!-- Generator: Adobe Illustrator 19.0.0, SVG Export Plug-In . SVG Version: 6.00 Build 0)  -->
<svg version="1.1" id="Capa_1" xmlns="http://www.w3.org/2000/svg" xmlns:xlink="http://www.w3.org/1999/xlink" x="0px" y="0px"
	 viewBox="0 0 512.001 512.001" style="enable-background:new 0 0 512.001 512.001;" xml:space="preserve">
<g>
	<g>
		<path d="M353.55,186.931c-1.86-1.86-4.44-2.93-7.07-2.93c-2.64,0-5.21,1.07-7.07,2.93c-1.87,1.86-2.93,4.44-2.93,7.07
			s1.06,5.21,2.93,7.07c1.86,1.86,4.43,2.93,7.07,2.93c2.63,0,5.21-1.07,7.07-2.93c1.86-1.86,2.93-4.44,2.93-7.07
			S355.41,188.791,353.55,186.931z"/>
	</g>
</g>
<g>
	<g>
		<path d="M434.189,106.411c-18.577-32.245-45.518-59.174-77.91-77.875C323.941,9.866,287.226,0.001,250.078,0.001
			c-0.064,0-0.133,0-0.196,0c-2.72,0.002-5.321,1.113-7.205,3.075c-1.883,1.962-2.886,4.607-2.778,7.324l1.547,38.686
			c-13.99-20.842-33.865-37.863-58.055-48.271c-2.437-1.049-5.189-1.086-7.653-0.104c-2.464,0.981-4.437,2.901-5.485,5.337
			c-8.08,18.778-11.704,38.951-10.739,59.121H86.477c-5.523,0-10,4.477-10,10v203.832c0,66.91,47.185,122.997,110.026,136.759
			v42.345l-51.854,21.697c-7.452,3.118-11.546,10.828-9.956,18.748c1.59,7.92,8.343,13.451,16.421,13.451H291.84
			c8.081,0,14.833-5.533,16.422-13.456c1.589-7.923-2.51-15.632-9.966-18.747l-51.793-21.636v-42.413
			c62.814-13.781,109.974-69.856,109.974-136.748v-46c0-5.523-4.477-10-10-10s-10,4.477-10,10v46c0,66.168-53.832,120-120,120
			c-66.168,0-120-53.832-120-120V150.523h149.026l1.981,49.544c0.137,3.428,2.021,6.546,4.992,8.261c1.545,0.892,3.271,1.34,5,1.34
			c1.595,0,3.192-0.381,4.65-1.147l168.047-88.265c2.408-1.265,4.197-3.456,4.955-6.068
			C435.885,111.575,435.546,108.767,434.189,106.411z M206.503,464.76v-46.119c3.295,0.233,6.62,0.359,9.974,0.359
			c3.371,0,6.713-0.127,10.025-0.363v46.184c0,4.034,2.423,7.672,6.146,9.227l42.973,17.952H157.308l43.055-18.015
			C204.082,472.43,206.503,468.793,206.503,464.76z M96.477,130.523V85.169h65.507c3.259,16.176,9.46,31.528,18.236,45.354H96.477z
			 M244.017,130.523h-27.541h-11.684c-24.213-29.879-31.615-70.386-19.861-106.743C223.509,44.805,246.719,86.618,244.017,130.523z
			 M266.837,183.456l-6.526-163.18c13.245,0.714,26.374,2.81,39.167,6.224v19.473c0,5.523,4.477,10,10,10s10-4.477,10-10V33.037
			c9.215,3.571,18.182,7.843,26.802,12.82c8.519,4.918,16.613,10.472,24.234,16.58L357.9,72.526
			c-4.313,3.45-5.013,9.742-1.563,14.056c1.975,2.469,4.882,3.754,7.816,3.754c2.19,0,4.396-0.716,6.24-2.191l15.262-12.206
			c9.668,9.578,18.322,20.156,25.763,31.579L266.837,183.456z"/>
	</g>
</g>
<g>
	<g>
		<path d="M135.477,269.001c-5.523,0-10,4.477-10,10c0,0.013,0,0.12,0,0.133v0.055c0,5.523,4.477,10,10,10s10-4.477,10-10v-0.188
			C145.477,273.478,141,269.001,135.477,269.001z"/>
	</g>
</g>
<g>
	<g>
		<path d="M216.477,350.001c-26.849,0-51.106-14.874-63.306-38.816c-2.507-4.921-8.529-6.879-13.45-4.37
			c-4.921,2.507-6.877,8.529-4.37,13.45c15.632,30.678,46.717,49.736,81.126,49.736c5.523,0,10-4.477,10-10
			S222,350.001,216.477,350.001z"/>
	</g>
</g>
<g>
</g>
<g>
</g>
<g>
</g>
<g>
</g>
<g>
</g>
<g>
</g>
<g>
</g>
<g>
</g>
<g>
</g>
<g>
</g>
<g>
</g>
<g>
</g>
<g>
</g>
<g>
</g>
<g>
</g>
</svg>
