<?xml version="1.0" encoding="iso-8859-1"?>
<!-- Generator: Adobe Illustrator 19.0.0, SVG Export Plug-In . SVG Version: 6.00 Build 0)  -->
<svg version="1.1" id="Capa_1" xmlns="http://www.w3.org/2000/svg" xmlns:xlink="http://www.w3.org/1999/xlink" x="0px" y="0px"
	 viewBox="0 0 512 512" style="enable-background:new 0 0 512 512;" xml:space="preserve">
<g>
	<g>
		<path d="M323.812,301.704l-23.522-23.522c-12.93-12.928-33.963-12.927-46.893,0l-23.522,23.522
			c-6.263,6.263-9.712,14.589-9.712,23.446c0,8.856,3.449,17.183,9.712,23.445l23.522,23.523c6.465,6.464,14.955,9.695,23.446,9.695
			s16.982-3.232,23.446-9.696l23.522-23.522c6.263-6.263,9.712-14.589,9.712-23.446
			C333.524,316.293,330.075,307.966,323.812,301.704z M309.67,334.454l-23.522,23.522c-5.131,5.129-13.479,5.13-18.607,0
			l-23.522-23.523c-2.485-2.485-3.854-5.789-3.854-9.303c0-3.515,1.369-6.819,3.854-9.304l23.522-23.522
			c2.565-2.565,5.934-3.848,9.304-3.848c3.369,0,6.739,1.283,9.304,3.848l23.522,23.522c2.485,2.485,3.854,5.789,3.854,9.304
			C313.524,328.664,312.155,331.968,309.67,334.454z"/>
	</g>
</g>
<g>
	<g>
		<path d="M194.641,333.39l-4.184-33.001c-1.113-8.787-5.582-16.613-12.582-22.039c-7-5.425-15.688-7.799-24.481-6.687
			l-33.003,4.183c-18.137,2.299-31.023,18.925-28.725,37.064l4.184,33.001c1.113,8.787,5.582,16.614,12.582,22.039
			c5.872,4.551,12.935,6.955,20.244,6.955c1.405,0,2.82-0.089,4.237-0.269l33.001-4.183
			C184.052,368.155,196.938,351.529,194.641,333.39z M163.4,350.612l-33.002,4.183c-3.491,0.441-6.937-0.5-9.714-2.653
			s-4.551-5.258-4.992-8.746l-4.184-33.001c-0.912-7.198,4.201-13.795,11.398-14.708l33.002-4.183
			c0.563-0.071,1.124-0.107,1.682-0.107c2.9,0,5.703,0.955,8.033,2.76c2.777,2.153,4.551,5.258,4.992,8.746l4.184,33.002
			C175.71,343.102,170.597,349.7,163.4,350.612z"/>
	</g>
</g>
<g>
	<g>
		<path d="M457.179,97.843c-17.081-29.648-41.853-54.41-71.638-71.606C355.807,9.07,322.047,0,287.89,0c-0.059,0-0.121,0-0.179,0
			c-2.929,0.003-5.709,1.289-7.606,3.519c-1.897,2.23-2.723,5.18-2.258,8.071l8.625,53.579H63.486c-5.522,0-10,4.477-10,10V466.8
			c0,24.923,20.276,45.2,45.2,45.2h228.627c24.924,0,45.2-20.277,45.2-45.2V209c0-5.523-4.478-10-10-10c-5.522,0-10,4.477-10,10
			v203.8c0,13.896-11.305,25.2-25.2,25.2H98.686c-13.896,0-25.2-11.305-25.2-25.2V138h117.5c5.522,0,10-4.477,10-10s-4.478-10-10-10
			h-117.5V85.168h216.206l2.75,17.088c-20.492,7.277-35.21,26.852-35.21,49.809c0,29.14,23.706,52.847,52.846,52.847
			s52.847-23.707,52.847-52.847c0-2.704-0.206-5.362-0.6-7.958l89.541-31.851c2.795-0.995,5.005-3.179,6.031-5.963
			C458.923,103.509,458.66,100.414,457.179,97.843z M98.686,458h228.627c9.323,0,17.996-2.839,25.2-7.695V466.8
			c0,13.896-11.305,25.2-25.2,25.2H98.686c-13.896,0-25.2-11.305-25.2-25.2v-16.495C80.691,455.161,89.363,458,98.686,458z
			 M310.078,184.912c-18.111,0-32.846-14.735-32.846-32.847c0-18.111,14.734-32.846,32.846-32.846s32.847,14.735,32.847,32.846
			C342.925,170.177,328.189,184.912,310.078,184.912z M355.601,125.271c-3.064-5.187-6.986-9.807-11.573-13.663
			c2.086-9.036,10.18-15.799,19.841-15.799c5.522,0,10-4.477,10-10s-4.478-10-10-10c-17.172,0-31.867,10.78-37.694,25.925
			c-4.428-1.42-9.108-2.266-13.955-2.461L299.521,20.39c9.085,0.611,18.1,1.951,26.965,3.963v20.511c0,5.523,4.478,10,10,10
			c5.522,0,10-4.477,10-10V30.158c10.029,3.567,19.763,8.035,29.055,13.399c5.258,3.036,10.331,6.347,15.222,9.888l-3.307,2.016
			c-4.716,2.875-6.208,9.028-3.333,13.744c1.884,3.09,5.175,4.796,8.548,4.796c1.773,0,3.57-0.472,5.196-1.463l9.175-5.594
			c0.037-0.022,0.069-0.049,0.106-0.072c9.916,9.183,18.758,19.483,26.31,30.704L355.601,125.271z"/>
	</g>
</g>
<g>
	<g>
		<path d="M120.559,213.87c-1.87-1.86-4.439-2.93-7.069-2.93c-2.641,0-5.211,1.07-7.08,2.93c-1.86,1.86-2.92,4.44-2.92,7.07
			s1.06,5.21,2.92,7.07c1.869,1.86,4.439,2.93,7.08,2.93c2.63,0,5.199-1.07,7.069-2.93c1.86-1.86,2.931-4.44,2.931-7.07
			S122.42,215.74,120.559,213.87z"/>
	</g>
</g>
<g>
	<g>
		<path d="M330.59,223.93c-1.86-1.86-4.43-2.93-7.07-2.93c-2.63,0-5.21,1.07-7.069,2.93c-1.86,1.86-2.931,4.44-2.931,7.07
			s1.07,5.21,2.931,7.07c1.859,1.86,4.439,2.93,7.069,2.93s5.209-1.07,7.07-2.93c1.87-1.86,2.93-4.44,2.93-7.07
			S332.46,225.79,330.59,223.93z"/>
	</g>
</g>
<g>
	<g>
		<path d="M330.589,386.62c-1.86-1.87-4.43-2.94-7.07-2.94c-2.629,0-5.21,1.07-7.069,2.94c-1.86,1.86-2.931,4.43-2.931,7.06
			c0,2.64,1.07,5.22,2.931,7.08c1.859,1.86,4.439,2.92,7.069,2.92c2.641,0,5.21-1.06,7.07-2.92c1.87-1.87,2.93-4.44,2.93-7.08
			C333.519,391.05,332.459,388.48,330.589,386.62z"/>
	</g>
</g>
<g>
	<g>
		<path d="M225.593,166.419h-33.267c-18.283,0-33.157,14.875-33.157,33.158v33.266c0,18.283,14.874,33.157,33.157,33.157h33.267
			c18.283,0,33.157-14.875,33.157-33.157v-33.266C258.75,181.294,243.876,166.419,225.593,166.419z M238.75,232.843
			c0,7.255-5.902,13.157-13.157,13.157h-33.267c-7.255,0-13.157-5.902-13.157-13.157v-33.266c0-7.255,5.902-13.158,13.157-13.158
			h33.267c7.255,0,13.157,5.902,13.157,13.158V232.843z"/>
	</g>
</g>
<g>
	<g>
		<path d="M235.309,120.93c-1.87-1.86-4.439-2.93-7.069-2.93c-2.641,0-5.211,1.07-7.08,2.93c-1.86,1.86-2.92,4.44-2.92,7.07
			s1.06,5.21,2.92,7.07c1.869,1.86,4.439,2.93,7.08,2.93c2.63,0,5.199-1.07,7.069-2.93c1.86-1.86,2.931-4.44,2.931-7.07
			S237.17,122.79,235.309,120.93z"/>
	</g>
</g>
<g>
</g>
<g>
</g>
<g>
</g>
<g>
</g>
<g>
</g>
<g>
</g>
<g>
</g>
<g>
</g>
<g>
</g>
<g>
</g>
<g>
</g>
<g>
</g>
<g>
</g>
<g>
</g>
<g>
</g>
</svg>
