<svg id="Layer_1" enable-background="new 0 0 511.475 511.475" height="512" viewBox="0 0 511.475 511.475" width="512" xmlns="http://www.w3.org/2000/svg"><g><path d="m205.568 68.6c-20.45-99.55-164.163-87.478-166.875 15.001 0 46.376 37.731 84.107 84.108 84.107-2.002 84.068 14.032 186.068 25.692 269.791v73.977h298.505v-73.977c11.236-81.43 27.137-181.219 25.691-262.878.001 0 .001-106.021.001-106.021zm237.123 99.11h-289.89v-69.11h289.89zm-319.891-30.002c-29.835 0-54.107-24.272-54.107-54.108 1.362-62.801 87.859-74.311 106.1-15h-51.991zm55.694 343.767v-30.004h238.505v30.004zm240.427-60.004h-242.349c-9.359-68.497-23.136-155.143-23.521-223.761h289.392c-.36 68.36-14.193 155.528-23.522 223.761z"/><path d="m192.559 311.307h86.727v-86.726h-86.727zm30-56.726h26.727v26.726h-26.727z"/><path d="m316.207 364.506h86.727v-86.726h-86.727zm30-56.726h26.727v26.726h-26.727z"/></g></svg>