<svg id="Layer_1" enable-background="new 0 0 512.043 512.043" height="512" viewBox="0 0 512.043 512.043" width="512" xmlns="http://www.w3.org/2000/svg"><g><path d="m444.233 103.49c.149-36.838-11.043-72.641-30.769-103.49h-314.852c-78.435 118.669 1.561 280.783 142.426 291.093v107.739c0 45.883-37.328 83.211-83.211 83.211v30h196.422v-30c-45.883 0-83.211-37.328-83.211-83.211v-107.739c96.786-7.668 173.195-88.88 173.195-187.603zm-48.082-73.49c7.973 15.182 13.401 31.57 16.101 48.49h-312.428c2.7-16.92 8.128-33.308 16.101-48.49zm-298.23 78.49h316.234c-12.836 202.855-303.47 202.704-316.234 0zm179.641 373.553h-43.049c8.469-7.811 15.744-16.891 21.524-26.94 5.781 10.049 13.056 19.129 21.525 26.94z"/><path d="m241.038 192.998h30v30.002h-30z"/><path d="m161.199 136.329h30v30.002h-30z"/><path d="m317.199 154.33h30v30.001h-30z"/></g></svg>