<svg id="Layer_1" enable-background="new 0 0 511.994 511.994" height="512" viewBox="0 0 511.994 511.994" width="512" xmlns="http://www.w3.org/2000/svg"><path d="m409.701 89.324c59.169-2.246 59.153-87.087 0-89.324-38.562-.133-58.931 46.488-33.112 74.601l-20.262 37.713h-130.206c5.963-44.484-45.736-74.054-80.915-46.753-22.71-31.991-53.238-24.168-87.283-25.077v43.997c0 28.855 21.242 52.842 48.909 57.145v37.776c0 40.251 23.73 76.904 60.456 93.378l28.947 12.984c2.576 33.393 27.239 60.693 59.363 67.277v50.794c0 43.097-35.062 78.159-78.159 78.159v30h186.318v-30c-43.097 0-78.159-35.062-78.159-78.159v-50.794c32.124-6.584 56.787-33.884 59.363-67.277l28.947-12.984c36.726-16.474 60.456-53.127 60.456-93.378v-67.088h-43.98l12.622-23.492c2.183.33 4.419.502 6.695.502zm-272.87 80.944v-27.954h203.376l-15.019 27.954zm39.144-85.168c13.84-.247 24.132 14.232 19.483 27.214h-38.966c-4.649-12.983 5.643-27.46 19.483-27.214zm-88.052-.619v-13.997h9.644c15.347 0 27.833 12.485 27.833 27.833v13.997h-9.644c-15.347 0-27.833-12.486-27.833-27.833zm201.142 397.513h-36.937c7.166-6.851 13.392-14.67 18.469-23.252 5.077 8.583 11.302 16.402 18.468 23.252zm72.563-236.587-46.446 20.835v13.73c0 24.584-20.001 44.585-44.585 44.585s-44.585-20.001-44.585-44.585v-13.73l-46.446-20.835c-19.409-8.706-33.682-25.385-39.65-45.139h261.364c-5.97 19.754-20.244 36.433-39.652 45.139zm42.734-103.093v27.954h-45.117l15.019-27.954zm5.339-112.314c8.084 0 14.662 6.577 14.662 14.662-.737 19.423-28.589 19.418-29.324 0 0-8.085 6.578-14.662 14.662-14.662z"/></svg>