<svg xmlns="http://www.w3.org/2000/svg" style="display: none;">
  <symbol id="search" viewBox="0 0 24 24">
    <path d="M784-120 532-372q-30 24-69 38t-83 14q-109 0-184.5-75.5T120-580q0-109 75.5-184.5T380-840q109 0 184.5 75.5T640-580q0 44-14 83t-38 69l252 252-56 56ZM380-400q75 0 127.5-52.5T560-580q0-75-52.5-127.5T380-760q-75 0-127.5 52.5T200-580q0 75 52.5 127.5T380-400Z"/>
  </symbol>
  <symbol id="filter_list" viewBox="0 0 24 24">
    <path d="M400-240v-80h160v80H400ZM240-440v-80h480v80H240ZM120-640v-80h720v80H120Z"/>
  </symbol>
  <symbol id="clear_all" viewBox="0 0 24 24">
    <path d="M120-280v-80h560v80H120Zm80-160v-80h560v80H200Zm80-160v-80h560v80H280Z"/>
  </symbol>
  <symbol id="arrow_drop_down" viewBox="0 0 24 24">
    <path d="M480-360 280-560h400L480-360Z"/>
  </symbol>
  <symbol id="hourglass_empty" viewBox="0 0 24 24">
    <path d="M320-160h320v-120q0-66-47-113t-113-47q-66 0-113 47t-47 113v120Zm160-360q66 0 113-47t47-113v-120H320v120q0 66 47 113t113 47ZM160-80v-80h80v-120q0-61 28.5-114.5T348-480q-51-32-79.5-85.5T240-680v-120h-80v-80h640v80h-80v120q0 61-28.5 114.5T612-480q51 32 79.5 85.5T720-280v120h80v80H160Z"/>
  </symbol>
  <symbol id="error" viewBox="0 0 24 24">
    <path d="M480-280q17 0 28.5-11.5T520-320q0-17-11.5-28.5T480-360q-17 0-28.5 11.5T440-320q0 17 11.5 28.5T480-280Zm-40-160h80v-240h-80v240Zm40 360q-83 0-156-31.5T197-197q-54-54-85.5-127T80-480q0-83 31.5-156T197-763q54-54 127-85.5T480-880q83 0 156 31.5T763-763q54 54 85.5 127T880-480q0 83-31.5 156T763-197q-54 54-127 85.5T480-80Zm0-80q134 0 227-93t93-227q0-134-93-227t-227-93q-134 0-227 93t-93 227q0 134 93 227t227 93Zm0-320Z"/>
  </symbol>
  <symbol id="arrow_back" viewBox="0 0 24 24">
    <path d="m313-440 224 224-57 56-320-320 320-320 57 56-224 224h487v80H313Z"/>
  </symbol>
  <symbol id="chevron_left" viewBox="0 0 24 24">
    <path d="M560-240 320-480l240-240 56 56-184 184 184 184-56 56Z"/>
  </symbol>
  <symbol id="chevron_right" viewBox="0 0 24 24">
    <path d="M504-480 320-664l56-56 240 240-240 240-56-56 184-184Z"/>
  </symbol>
  <symbol id="arrow_forward" viewBox="0 0 24 24">
    <path d="M647-440H160v-80h487L423-744l57-56 320 320-320 320-57-56 224-224Z"/>
  </symbol>
  <symbol id="menu" viewBox="0 0 24 24">
    <path d="M120-240v-80h720v80H120Zm0-200v-80h720v80H120Zm0-200v-80h720v80H120Z"/>
  </symbol>
  <symbol id="dashboard" viewBox="0 0 24 24">
    <path d="M520-600v-240h320v240H520ZM120-440v-400h320v400H120Zm400 320v-400h320v400H520Zm-400 0v-240h320v240H120Zm80-400h160v-240H200v240Zm400 320h160v-240H600v240Zm0-480h160v-80H600v80ZM200-200h160v-80H200v80Zm160-320Zm240-160Zm0 240ZM360-280Z"/>
  </symbol>
  <symbol id="local_bar" viewBox="0 0 24 24">
    <path d="M240-120v-80h200v-200L120-760v-80h720v80L520-400v200h200v80H240Zm58-560h364l72-80H226l72 80Zm182 204 111-124H369l111 124Zm0 0Z"/>
  </symbol>
  <symbol id="eco" viewBox="0 0 24 24">
    <path d="M216-176q-45-45-70.5-104T120-402q0-63 24-124.5T222-642q35-35 86.5-60t122-39.5Q501-756 591.5-759t202.5 7q8 106 5 195t-16.5 160.5q-13.5 71.5-38 125T684-182q-53 53-112.5 77.5T450-80q-65 0-127-25.5T216-176Zm112-16q29 17 59.5 24.5T450-160q46 0 91-18.5t86-59.5q18-18 36.5-50.5t32-85Q709-426 716-500.5t2-177.5q-49-2-110.5-1.5T485-670q-61 9-116 29t-90 55q-45 45-62 89t-17 85q0 59 22.5 103.5T262-246q42-80 111-153.5T534-520q-72 63-125.5 142.5T328-192Zm0 0Zm0 0Z"/>
  </symbol>
  <symbol id="menu_book" viewBox="0 0 24 24">
    <path d="M560-564v-68q33-14 67.5-21t72.5-7q26 0 51 4t49 10v64q-24-9-48.5-13.5T700-600q-38 0-73 9.5T560-564Zm0 220v-68q33-14 67.5-21t72.5-7q26 0 51 4t49 10v64q-24-9-48.5-13.5T700-380q-38 0-73 9t-67 27Zm0-110v-68q33-14 67.5-21t72.5-7q26 0 51 4t49 10v64q-24-9-48.5-13.5T700-490q-38 0-73 9.5T560-454ZM260-320q47 0 91.5 10.5T440-278v-394q-41-24-87-36t-93-12q-36 0-71.5 7T120-692v396q35-12 69.5-18t70.5-6Zm260 42q44-21 88.5-31.5T700-320q36 0 70.5 6t69.5 18v-396q-33-14-68.5-21t-71.5-7q-47 0-93 12t-87 36v394Zm-40 118q-48-38-104-59t-116-21q-42 0-82.5 11T100-198q-21 11-40.5-1T40-234v-482q0-11 5.5-21T62-752q46-24 96-36t102-12q58 0 113.5 15T480-740q51-30 106.5-45T700-800q52 0 102 12t96 36q11 5 16.5 15t5.5 21v482q0 23-19.5 35t-40.5 1q-37-20-77.5-31T700-240q-60 0-116 21t-104 59ZM280-494Z"/>
  </symbol>
  <symbol id="quiz" viewBox="0 0 24 24">
    <path d="M560-360q17 0 29.5-12.5T602-402q0-17-12.5-29.5T560-444q-17 0-29.5 12.5T518-402q0 17 12.5 29.5T560-360Zm-30-128h60q0-29 6-42.5t28-35.5q30-30 40-48.5t10-43.5q0-45-31.5-73.5T560-760q-41 0-71.5 23T446-676l54 22q9-25 24.5-37.5T560-704q24 0 39 13.5t15 36.5q0 14-8 26.5T578-596q-33 29-40.5 45.5T530-488ZM320-240q-33 0-56.5-23.5T240-320v-480q0-33 23.5-56.5T320-880h480q33 0 56.5 23.5T880-800v480q0 33-23.5 56.5T800-240H320Zm0-80h480v-480H320v480ZM160-80q-33 0-56.5-23.5T80-160v-560h80v560h560v80H160Zm160-720v480-480Z"/>
  </symbol>
  <symbol id="article" viewBox="0 0 24 24">
    <path d="M280-280h280v-80H280v80Zm0-160h400v-80H280v80Zm0-160h400v-80H280v80Zm-80 480q-33 0-56.5-23.5T120-200v-560q0-33 23.5-56.5T200-840h560q33 0 56.5 23.5T840-760v560q0 33-23.5 56.5T760-120H200Zm0-80h560v-560H200v560Zm0-560v560-560Z"/>
  </symbol>
  <symbol id="close" viewBox="0 0 24 24">
    <path d="m256-200-56-56 224-224-224-224 56-56 224 224 224-224 56 56-224 224 224 224-56 56-224-224-224 224Z"/>
  </symbol>
</svg>