<?xml version="1.0" encoding="iso-8859-1"?>
<!-- Generator: Adobe Illustrator 19.0.0, SVG Export Plug-In . SVG Version: 6.00 Build 0)  -->
<svg xmlns="http://www.w3.org/2000/svg" xmlns:xlink="http://www.w3.org/1999/xlink" version="1.1" id="Capa_1" x="0px" y="0px" viewBox="0 0 512 512" style="enable-background:new 0 0 512 512;" xml:space="preserve">
<g>
	<g>
		<path d="M407.697,165.343h-0.004c0-28.426-23.126-51.552-51.552-51.552H210.25l-4.99-25.095l64.819-12.887    c7.47-1.485,13.153-7.557,14.139-15.106c0.991-7.552-2.938-14.881-9.774-18.239l-83.259-40.89    c-2.422-1.189-13.23-4.383-21.15,4.205l-60.843,69.129c-3.972,4.181-5.675,10.032-4.545,15.695    c3.573,17.911,19.728,14.175,20.872,13.948l64.82-12.888l4.4,22.128H165.36c-28.426,0-51.552,23.126-51.552,51.552v32.616    c0,15.935,16.181,36.015,20.671,40.91l-0.073,0.067l-0.088-0.097c0.185,0.213,4.5,5.348,4.5,15.445V286.9    c0,15.122,6.665,29.448,18.289,39.305c0.079,0.067,0.159,0.134,0.241,0.197c1.744,2.384,3.289,12.66,3.263,21.844v32.616    c0,24.077,16.593,44.346,38.943,49.987v19.952c0,0.024-0.1,2.691-1.34,5.172c-1.017,2.035-2.869,4.37-8.201,4.37    c-14.241,0-25.828,11.587-25.828,25.828c0,14.241,11.587,25.828,25.828,25.828h141.48c14.241,0,25.828-11.587,25.828-25.828    c0-14.241-11.587-25.828-25.828-25.828c-5.169,0-7.012-2.171-8.041-4.061c-1.41-2.592-1.499-5.481-1.5-5.481v-19.953    c22.619-5.682,38.943-26.081,38.943-49.985v-32.642c-0.025-9.16,1.519-19.436,3.263-21.82c0.082-0.064,0.162-0.13,0.241-0.197    c11.623-9.856,18.289-24.183,18.289-39.305v-32.616c0-10.097,4.315-15.232,4.5-15.445l-0.088,0.097l-0.073-0.067    c4.491-4.895,20.671-24.975,20.671-40.911V165.343z M282.116,129.005c-0.873,0.68-13.717,13.413-13.717,13.413l-8.099-8.099    c-2.226-2.227-4.781-4.012-7.554-5.314H282.116z M229.841,129.005c-2.774,1.303-5.328,3.089-7.555,5.315l-6.635,6.635    l-2.377-11.95H229.841z M233.046,145.078c2.188-2.188,5.117-3.394,8.249-3.394c3.13,0,6.06,1.205,8.249,3.394l22.466,22.465    c2.97,2.97,7.787,2.971,10.758-0.001c2.971-2.971,2.971-7.788-0.001-10.758l-3.608-3.608l11.198-11.198    c4.548-4.55,11.949-4.549,16.496-0.001l32.75,32.749c4.547,4.549,4.547,11.949-0.001,16.497l-32.75,32.752    c-4.547,4.549-11.949,4.549-16.497,0.002l-8.099-8.099l10.795-10.796c7.721-7.722,9.987-19.666,5.638-29.722    c-1.668-3.856-6.144-5.628-10.002-3.962c-3.857,1.669-5.631,6.147-3.962,10.002c1.895,4.38,0.917,9.573-2.431,12.923    l-32.75,32.752c-4.548,4.549-11.95,4.55-16.497,0.001l-32.749-32.749c-4.548-4.547-4.548-11.948-0.001-16.497L233.046,145.078z     M187.183,299.707c-0.968-0.697-5.791-4.595-5.791-12.981v-28.618c0-18.234-8.369-29.04-10.985-31.976    c-1.193-1.378-2.483-2.589-3.732-3.76c-4.037-3.789-7.226-6.782-7.226-14.792v-11.252c0-3.166,2.576-5.742,5.742-5.742h16.865    c0.897,5.314,3.383,10.41,7.476,14.503l32.75,32.749c5.24,5.24,12.122,7.859,19.006,7.859c6.883,0,13.769-2.62,19.009-7.861    l11.197-11.198l8.098,8.099c5.241,5.24,12.123,7.86,19.007,7.86c6.883-0.001,13.768-2.621,19.009-7.862l32.754-32.752    c3.27-3.27,5.52-7.182,6.749-11.333c2.784,0.394,4.936,2.787,4.936,5.679v11.252c0,8.01-3.189,11.004-7.226,14.792    c-1.248,1.172-14.717,9.513-14.717,35.736v28.618c0,8.386-4.823,12.284-5.791,12.981c-0.052,0.038-13.332,9.775-13.332,40.89    v28.574c0,9.704-7.896,17.601-17.601,17.601h-85.265c-9.704,0-17.601-7.896-17.601-17.601v-28.55    C200.514,309.228,187.234,299.744,187.183,299.707z M267.736,56.12c0.977,0.48,1.538,1.526,1.396,2.607    c-0.142,1.078-0.952,1.944-2.02,2.156l-27.281,5.424l-33.277-40.234L267.736,56.12z M122.569,89.623    c-0.005,0.003-2.559,0.506-3-1.987c-0.21-1.188,0.85-2.456,0.934-2.552l44.676-50.759l-9.212,29.942    c-1.237,4.016,1.018,8.272,5.034,9.507c0.745,0.23,7.444,1.519,9.507-5.034l13.988-45.466l38.38,46.404L122.569,89.623z     M392.478,197.959c0,9.03-11.165,24.556-16.599,30.697c-1.059,1.162-8.41,9.813-8.41,25.629v32.616    c0,10.571-4.642,20.602-12.745,27.558c-7.946,6.117-9.084,23.753-9.048,33.789v32.616c0,18.49-13.855,34.011-32.227,36.104    c-4.086,0.466-7.036,4.087-6.715,8.152v25.681c0,9.952,6.593,24.756,24.756,24.756c5.853,0,10.613,4.76,10.613,10.613    s-4.76,10.613-10.613,10.613H190.01c-5.853,0-10.613-4.76-10.613-10.613s4.76-10.613,10.613-10.613    c18.163,0,24.756-14.805,24.756-24.756v-18.386h74.047c4.202,0,7.608-3.405,7.608-7.608s-3.405-7.608-7.608-7.608h-76.652    c-20.036,0-36.337-16.301-36.337-36.337v-32.59c0.037-10.063-1.102-27.699-9.048-33.816c-8.104-6.955-12.745-16.986-12.745-27.558    v-32.616c0-15.817-7.351-24.466-8.41-25.629c-5.434-6.141-16.599-21.666-16.599-30.697v-32.616    c0-20.036,16.3-36.337,36.337-36.337h32.403l4.949,24.892l-13.176,13.177c-2.459,2.459-4.333,5.283-5.638,8.296h-18.702    c-11.556,0-20.957,9.402-20.957,20.957v11.252c0,14.598,7.239,21.391,12.029,25.887c1.01,0.948,9.913,5.772,9.913,24.643v28.618    c0,15.299,9.145,23.172,12.071,25.296c3.454,2.681,7.106,11.57,7.051,28.574v28.574c0,18.095,14.721,32.816,32.816,32.816h85.265    c18.095,0,32.816-14.721,32.816-32.816v-28.598c-0.056-16.975,3.595-25.865,7.048-28.548c2.888-2.092,12.074-9.964,12.074-25.298    v-28.618c0-16.081,8.903-23.694,9.913-24.643c4.791-4.496,12.029-11.289,12.029-25.887v-11.252    c0-11.273-8.955-20.471-20.12-20.915c-1.222-4.193-3.481-8.145-6.781-11.445c0,0-34.394-34.283-35.267-34.962h41.047    c20.036,0,36.337,16.3,36.337,36.337V197.959z"/>
	</g>
</g>
<g>
	<g>
		<path d="M322.923,279.084c-2.82-3.117-7.632-3.357-10.745-0.538c-4.49,4.061-8.339,8.958-11.444,14.552    c-2.038,3.674-0.679,8.246,2.962,10.343c6.08,3.504,8.954-0.456,10.343-2.962c2.29-4.129,5.099-7.713,8.346-10.651    C325.501,287.01,325.742,282.199,322.923,279.084z"/>
	</g>
</g>
<g>
	<g>
		<path d="M301.198,311.551c-4.131-0.739-8.085,2.027-8.818,6.163c-1.241,6.997-1.854,14.737-1.828,22.981v23.253    c0,4.202,3.405,7.608,7.608,7.608c4.201,0,7.608-3.406,7.608-7.608v-23.277c-0.024-7.365,0.512-14.196,1.594-20.302    C308.094,316.231,305.334,312.284,301.198,311.551z"/>
	</g>
</g>
<g>
</g>
<g>
</g>
<g>
</g>
<g>
</g>
<g>
</g>
<g>
</g>
<g>
</g>
<g>
</g>
<g>
</g>
<g>
</g>
<g>
</g>
<g>
</g>
<g>
</g>
<g>
</g>
<g>
</g>
</svg>
