<?xml version="1.0" encoding="iso-8859-1"?>
<!-- Generator: Adobe Illustrator 19.0.0, SVG Export Plug-In . SVG Version: 6.00 Build 0)  -->
<svg xmlns="http://www.w3.org/2000/svg" xmlns:xlink="http://www.w3.org/1999/xlink" version="1.1" id="Capa_1" x="0px" y="0px" viewBox="0 0 512.001 512.001" style="enable-background:new 0 0 512.001 512.001;" xml:space="preserve">
<g>
	<g>
		<path d="M283.312,408.592c-1.417-4.374-3.924-8.421-7.246-11.703c-5.454-5.383-12.579-8.347-20.065-8.347    c-4.199,0-7.604,3.404-7.604,7.604c0,4.2,3.405,7.604,7.604,7.604c3.461,0,6.793,1.407,9.38,3.961    c1.597,1.578,2.795,3.504,3.466,5.572c1.042,3.216,4.389,6.468,9.578,4.887C282.443,416.946,284.608,412.586,283.312,408.592z"/>
	</g>
</g>
<g>
	<g>
		<path d="M277.077,424.651c-4.2,0-7.604,3.404-7.604,7.604v13.269c0,4.2,3.404,7.604,7.604,7.604c4.2,0,7.604-3.404,7.604-7.604    v-13.269C284.681,428.055,281.278,424.651,277.077,424.651z"/>
	</g>
</g>
<g>
	<g>
		<path d="M401.669,98.408H191.311l-3.368-38.099c-0.37-4.183-4.068-7.281-8.244-6.905c-4.183,0.369-7.274,4.06-6.905,8.244    l3.249,36.76h-21.001l-6.349-71.817c-0.244-2.764,0.614-5.471,2.417-7.624c1.803-2.153,4.317-3.472,7.081-3.717    c2.766-0.241,5.471,0.613,7.623,2.417c2.153,1.803,3.472,4.318,3.718,7.081l1.323,14.961c0.37,4.184,4.074,7.275,8.244,6.905    c4.183-0.369,7.274-4.06,6.904-8.244L184.68,23.41c-0.601-6.81-3.833-12.991-9.1-17.401c-5.267-4.412-11.917-6.514-18.727-5.907    c-6.809,0.601-12.99,3.833-17.401,9.1c-4.411,5.267-6.509,11.918-5.907,18.728l6.23,70.478h-29.442    c-28.102,0-50.966,22.864-50.966,50.966V303.85c0,15.73,7.161,30.356,19.646,40.129c0.245,0.193,19.651,15.617,19.651,41.173    v75.883c0,28.102,22.862,50.966,50.966,50.966h212.742c28.103,0,50.967-22.863,50.967-50.966v-75.883    c0-25.556,19.405-40.98,19.651-41.173c12.485-9.774,19.646-24.399,19.646-40.129V149.374    C452.634,121.272,429.771,98.408,401.669,98.408z M177.389,113.616l2.086,23.587c-3.902,1.266-7.573,3.44-10.668,6.535    l-8.964,8.965l-3.455-39.087H177.389z M179.56,154.491c4.544-4.547,11.942-4.547,16.488,0l39.167,39.167    c2.97,2.969,7.784,2.969,10.753,0c2.97-2.971,2.97-7.784,0-10.754l-4.736-4.736l23.677-23.677    c2.187-2.187,5.115-3.391,8.244-3.391c3.13,0,6.059,1.204,8.245,3.391l47.586,47.585c2.187,2.187,3.391,5.115,3.391,8.244    c0,3.13-1.204,6.058-3.391,8.245l-47.586,47.588c-4.544,4.546-11.944,4.546-16.489,0l-23.678-23.678l13.158-13.159    c6.39-6.39,9.119-15.522,7.297-24.426c-0.843-4.114-4.857-6.767-8.974-5.926c-4.114,0.841-6.767,4.858-5.926,8.974    c0.795,3.885-0.383,7.856-3.151,10.624l-47.586,47.589c-2.187,2.187-5.115,3.391-8.244,3.391c-3.129,0-6.057-1.204-8.245-3.392    l-47.585-47.584c-2.187-2.187-3.391-5.115-3.391-8.244c0-3.13,1.204-6.058,3.391-8.246L179.56,154.491z M88.315,331.947    c-8.733-6.871-13.74-17.107-13.74-28.098V149.374c0-19.716,16.041-35.758,35.758-35.758h30.787l4.695,53.114l-24.596,24.597    c-3.219,3.22-5.514,7.124-6.76,11.391c0,0-26.635-1.116-26.635,23.089v78.042c0,6.569,2.917,12.813,8.003,17.13    c0.204,0.173,21.952,16.818,27.371,37.206c-4.493,0.174-8.911,0.854-13.215,2.038C103.416,344.219,88.418,332.018,88.315,331.947z     M169.406,496.792h-0.001H149.63c-19.716,0-35.758-16.04-35.758-35.758v-75.883c0-3.16-0.164-6.547-0.573-10.053    c3.958-1.163,12.818-1.748,13.119-1.742c0.461,3.818,0.703,7.752,0.703,11.796v75.882c0,12.201,10.308,22.509,22.51,22.509h19.774    V496.792z M142.012,376.562c16.047,6.534,27.392,22.293,27.392,40.66v51.114h0H149.63c-3.889,0-7.302-3.412-7.302-7.301v-75.882    C142.328,382.243,142.219,379.38,142.012,376.562z M196.905,496.792h-12.293v-13.248h12.293V496.792z M196.905,468.335h-12.293    v-51.114c0-27.792-19.289-51.149-45.177-57.425c-5.073-21.185-16.713-38.691-34.012-50.628c-1.545-1.419-2.392-3.297-2.392-5.32    v-78.042c0-9.25,11.425-7.881,11.425-7.881c1.246,4.268,3.541,8.176,6.762,11.397l47.585,47.584    c5.059,5.059,11.806,7.845,18.998,7.845c7.191,0,13.938-2.786,18.999-7.846l23.675-23.677l23.678,23.678    c5.239,5.238,12.119,7.856,18.999,7.856c6.88,0,13.76-2.619,18.999-7.857l30.172-30.174c8.486,7.078,19.271,11.057,30.422,11.057    c23.584,0,43.199-17.293,46.85-39.863c0,0,9.374-0.356,9.374,7.881v78.042c0,2.022-0.848,3.899-2.394,5.321    c-17.297,11.937-28.936,29.443-34.01,50.627c-25.889,6.276-45.177,29.634-45.177,57.425v51.114h-12.291v-51.114    c0-32.586-26.509-59.096-59.096-59.096c-32.585,0-59.096,26.509-59.096,59.096V468.335z M339.737,191.322l-6.598-6.598    c5.589-4.276,12.474-6.66,19.608-6.66c17.788,0,32.259,14.471,32.259,32.259c0,17.788-14.471,32.259-32.259,32.259    c-7.117,0-14.017-2.388-19.61-6.663l6.601-6.601c5.059-5.059,7.845-11.807,7.844-18.998    C347.582,203.128,344.796,196.381,339.737,191.322z M369.99,376.563c-0.207,2.817-0.316,5.68-0.316,8.59v75.882    c0,3.889-3.412,7.301-7.302,7.301h-19.774v-51.114C342.598,398.855,353.944,383.096,369.99,376.563z M299.889,496.792h-87.776    v-13.248h87.776V496.792z M299.889,468.335h-87.776v-51.114c0-24.2,19.688-43.888,43.888-43.888s43.888,19.688,43.888,43.888    V468.335z M327.39,496.792h-12.293v-13.248h12.293V496.792z M398.131,385.152v75.883c0,19.716-16.041,35.758-35.759,35.758    h-19.774v-13.248h19.774c12.202,0,22.51-10.308,22.51-22.509v-75.882c0-4.044,0.24-7.978,0.703-11.796    c0.301-0.006,9.161,0.579,13.119,1.742C398.294,378.605,398.131,381.992,398.131,385.152z M437.427,303.849L437.427,303.849    c-0.001,10.991-5.007,21.227-13.741,28.098c-0.102,0.071-14.424,11.184-21.667,28.278c-4.304-1.185-8.721-1.864-13.215-2.038    c6.433-21.403,27.164-37.032,27.369-37.206c5.089-4.318,8.005-10.562,8.005-17.131v-78.042c0-20.91-24.582-23.089-24.582-23.089    c-3.355-20.74-20.193-37.011-41.201-39.515c-2.317-10.95-7.215-24.61-17.481-37.343c-2.637-3.27-7.422-3.781-10.693-1.147    c-3.269,2.637-3.782,7.423-1.147,10.693c7.689,9.536,11.731,19.853,13.85,28.483c-7.563,1.604-14.644,5.045-20.603,10.019    l-30.171-30.171c-10.475-10.475-27.522-10.475-37.995,0.002l-23.676,23.677l-23.678-23.678c-3.47-3.47-7.664-5.784-12.099-6.955    l-2.048-23.166h209.014c19.716,0,35.758,16.04,35.758,35.758V303.849z"/>
	</g>
</g>
<g>
</g>
<g>
</g>
<g>
</g>
<g>
</g>
<g>
</g>
<g>
</g>
<g>
</g>
<g>
</g>
<g>
</g>
<g>
</g>
<g>
</g>
<g>
</g>
<g>
</g>
<g>
</g>
<g>
</g>
</svg>
