<?xml version="1.0" encoding="iso-8859-1"?>
<!-- Generator: Adobe Illustrator 19.0.0, SVG Export Plug-In . SVG Version: 6.00 Build 0)  -->
<svg xmlns="http://www.w3.org/2000/svg" xmlns:xlink="http://www.w3.org/1999/xlink" version="1.1" id="Capa_1" x="0px" y="0px" viewBox="0 0 511.996 511.996" style="enable-background:new 0 0 511.996 511.996;" xml:space="preserve">
<g>
	<g>
		<path d="M284.317,102.346c-2.947-3.607-7.214-5.677-11.707-5.677h-91.97c-4.494,0-8.762,2.069-11.706,5.678    c-2.703,3.309-4.084,7.727-3.789,12.12c9.055,134.9,16.261,239.645,16.416,240.656c0.477,3.066,2.099,11.072,6.88,19.188    c8.119,13.786,21.323,21.073,38.184,21.073c16.861,0,30.065-7.287,38.184-21.071c4.776-8.106,6.399-16.1,6.87-19.128    c0.154-0.97,7.366-105.718,16.425-240.716C288.401,110.074,287.02,105.656,284.317,102.346z M256.614,353.087    c-0.337,2.016-1.536,7.784-4.907,13.507c-5.384,9.14-13.587,13.582-25.081,13.582c-11.493,0-19.697-4.443-25.081-13.583    c-3.379-5.736-4.577-11.519-4.91-13.53c-0.586-3.915-9.892-137.197-14.022-203.881h88.781    C267.584,216.144,256.94,348.624,256.614,353.087z M272.193,133.975h-90.498c-0.779-13.309-1.174-21.616-0.981-22.009    c0.022-0.046,0.06-0.068,0.082-0.088c0,0,91.736,0.039,91.744,0.089C272.909,114.367,272.738,122.325,272.193,133.975z"/>
	</g>
</g>
<g>
	<g>
		<path d="M234.868,249.528c-2.59-9.004-7.333-18.031-15.833-24.315c-3.376-2.496-8.138-1.782-10.634,1.595    s-1.782,8.138,1.595,10.634c4.12,3.046,6.92,7.311,8.816,11.964c-13.188,3.467-22.945,15.49-22.945,29.751    c0,16.961,13.799,30.759,30.759,30.759c16.961,0,30.759-13.799,30.759-30.759C257.385,265.051,247.837,253.141,234.868,249.528z     M226.625,294.71c-8.575,0-15.552-6.976-15.552-15.552c0-8.575,6.976-15.553,15.552-15.553s15.552,6.977,15.552,15.553    S235.201,294.71,226.625,294.71z"/>
	</g>
</g>
<g>
	<g>
		<path d="M354.247,24.06C338.73,8.545,318.131-0.001,296.243,0c-9.109,0-16.522,7.412-16.522,16.522v39.22H151.432    c-4.923,0-9.667,2.071-13.013,5.682c-3.348,3.612-5.052,8.498-4.679,13.407c6.58,86.412,15.423,201.781,15.455,202.201    c0.322,4.187,3.971,7.319,8.166,6.998c4.187-0.321,7.381-3.982,6.998-8.165c-1.254-13.685-8.731-117.098-15.454-202.19    c-0.194-2.455,1.824-2.726,2.528-2.726h150.389c0.703,0,2.58,2.025,2.527,2.726c-20.999,275.784-21.793,283.597-22.054,286.164    c-0.012,0.124-0.021,0.248-0.028,0.373c-0.34,2.353-2.112,12.288-8.88,22.412c-6.982,10.446-20.762,22.896-46.758,22.896    s-39.776-12.45-46.758-22.896c-6.768-10.123-8.551-20.161-8.881-22.429c-0.006-0.119-0.016-0.237-0.027-0.358    c-0.245-2.414-4.912-57.192-4.986-58.119c-0.326-4.183-3.985-7.319-8.167-6.99c-4.187,0.323-7.319,3.98-6.996,8.168    c0.023,0.302,4.829,56.478,4.958,57.855c0.004,0.24,0.021,0.485,0.049,0.729c0.292,2.529,2.215,15.843,11.407,29.594    c6.039,9.032,15.921,19.217,31.555,24.992c0.159,0.106,8.076,3.174,8.076,13.301v7.976c-9.486,6.467-15.208,17.14-15.208,28.861    c0,0.057,0,0.112,0,0.168h-13.012c-12.579,0-22.812,10.234-22.812,22.812s10.233,22.812,22.812,22.812h95.979    c12.578,0,22.812-10.234,22.812-22.812s-10.234-22.812-22.812-22.812h-13.012c0-0.057,0-0.112,0-0.168    c0-11.721-5.723-22.394-15.208-28.861v-8.058c0-10.551,7.564-12.935,7.797-13.117c15.796-5.757,25.761-16.007,31.835-25.094    c9.071-13.569,11.078-26.898,11.395-29.489c0.008-0.067,0.022-0.201,0.028-0.269c0.018-0.189,0.028-0.377,0.031-0.566    c0.603-6.483,3.659-44.797,20.219-262.169l44.083-0.001c9.109,0,16.522-7.412,16.522-16.522    C378.307,60.176,369.763,39.576,354.247,24.06z M246.781,478.532c1.436,1.921,3.695,3.053,6.092,3.053h21.741    c4.193,0,7.604,3.411,7.604,7.604s-3.411,7.604-7.604,7.604h-95.979c-4.193,0-7.604-3.411-7.604-7.604s3.411-7.604,7.604-7.604    h54.022c4.2,0,7.604-3.404,7.604-7.604c0-4.2-3.404-7.604-7.604-7.604h-25.797c0-0.056-0.006-0.113-0.006-0.168    c0-7.556,4.211-14.344,10.989-17.714c2.584-1.286,4.219-3.923,4.219-6.809v-12.314c0-3.08-0.432-6.034-1.25-8.819    c1.883,0.116,3.819,0.177,5.812,0.177c1.985,0,3.913-0.062,5.789-0.176c-0.793,2.735-1.214,5.646-1.227,8.702v12.43    c0,2.886,1.634,5.523,4.219,6.809c6.779,3.369,10.989,10.158,10.989,17.714c0,1.899-0.275,3.788-0.815,5.616    C244.901,474.124,245.346,476.61,246.781,478.532z M297.223,55.742h-2.293V36.809c3.588,0.883,7.063,2.054,10.397,3.489    L297.223,55.742z M314.834,61.424c-0.713-0.77-1.501-1.452-2.329-2.076l6.017-11.468c5.032,3.707,9.522,8.103,13.337,13.054    l-13.711,5.678C317.353,64.72,316.251,62.954,314.834,61.424z M318.861,83.378c0.016-0.207,20.923-9.265,20.923-9.265    c1.349,2.977,2.489,6.069,3.397,9.264L318.861,83.378z M358.877,83.377c-7.187-31.469-32.299-55.866-63.947-62.144    c0,0-0.882-6.01,1.314-6.025c17.826-0.126,34.606,6.962,47.25,19.606s19.143,29.429,19.607,47.25    C363.158,84.335,358.877,83.377,358.877,83.377z"/>
	</g>
</g>
<g>
</g>
<g>
</g>
<g>
</g>
<g>
</g>
<g>
</g>
<g>
</g>
<g>
</g>
<g>
</g>
<g>
</g>
<g>
</g>
<g>
</g>
<g>
</g>
<g>
</g>
<g>
</g>
<g>
</g>
</svg>
