<?xml version="1.0" encoding="iso-8859-1"?>
<!-- Generator: Adobe Illustrator 19.0.0, SVG Export Plug-In . SVG Version: 6.00 Build 0)  -->
<svg xmlns="http://www.w3.org/2000/svg" xmlns:xlink="http://www.w3.org/1999/xlink" version="1.1" id="Capa_1" x="0px" y="0px" viewBox="0 0 512.001 512.001" style="enable-background:new 0 0 512.001 512.001;" xml:space="preserve">
<g>
	<g>
		<path d="M351.817,303.348l-21.25-21.249c-6.408-6.407-15.495-9.077-24.279-7.313l-10.009-10.009    c-5.059-5.059-11.807-7.845-18.997-7.845c-7.191,0-13.938,2.786-18.997,7.845l-21.25,21.25    c-5.059,5.059-7.846,11.806-7.846,18.997c0,7.191,2.787,13.938,7.846,18.998l21.249,21.248c5.06,5.06,11.807,7.846,18.998,7.846    c1.801,0,3.573-0.174,5.297-0.516l9.993,9.993c5.237,5.236,12.117,7.855,18.997,7.855s13.76-2.619,18.997-7.855l21.25-21.251    C362.292,330.868,362.292,313.824,351.817,303.348z M341.064,330.59l-21.25,21.25c-4.546,4.545-11.942,4.547-16.488,0    l-6.808-6.808l3.693-3.694c2.97-2.97,2.969-7.784-0.001-10.753c-2.97-2.969-7.784-2.969-10.753,0.001l-3.932,3.933    c-2.187,2.187-5.115,3.391-8.243,3.391s-6.058-1.204-8.245-3.392L247.79,313.27c-2.188-2.188-3.392-5.116-3.392-8.245    s1.204-6.058,3.391-8.244l21.25-21.251c2.187-2.187,5.115-3.391,8.244-3.391c3.129,0,6.057,1.204,8.244,3.392l21.249,21.248    c2.188,2.188,3.229,5.12,3.392,8.246c0.282,5.407-5.374,10.227-5.374,10.227c-2.97,2.971-2.97,7.784,0,10.754    c2.969,2.969,7.784,2.969,10.753,0c0,0,10.11-8.139,9.829-20.98c-0.058-2.658-0.383-5.256-1.119-7.73l16.808,16.807    C345.61,318.648,345.61,326.045,341.064,330.59z"/>
	</g>
</g>
<g>
	<g>
		<path d="M383.304,160.517c-3.883-4.188-9.385-6.59-15.096-6.59h-3.428c-1.246-4.267-3.541-8.174-6.761-11.394l-21.25-21.248    c-5.059-5.06-11.806-7.846-18.997-7.846c-7.191,0-13.938,2.786-18.997,7.845l-4.348,4.348l-4.347-4.347    c-5.059-5.06-11.806-7.846-18.997-7.846c-7.191,0-13.938,2.786-18.997,7.845l-21.25,21.25c-3.22,3.221-5.515,7.126-6.761,11.393    h-7.204c-5.711,0-11.213,2.402-15.097,6.591c-3.882,4.188-5.861,9.857-5.429,15.55l16.61,219.09    c0.809,10.67,9.825,19.029,20.526,19.029h118.12c10.701,0,19.716-8.358,20.526-19.029l16.61-219.09    C389.166,170.374,387.187,164.706,383.304,160.517z M241.586,153.287l21.25-21.251c2.187-2.187,5.115-3.391,8.244-3.391    c3.13,0,6.058,1.204,8.245,3.392l16.808,16.807c2.969,2.968,7.784,2.968,10.753,0c2.97-2.971,2.97-7.784,0-10.754l-1.707-1.706    l4.347-4.347c2.187-2.187,5.115-3.391,8.244-3.391s6.058,1.204,8.245,3.392l21.249,21.248c2.188,2.188,3.392,5.116,3.392,8.245    s-1.204,6.058-3.391,8.243l-21.25,21.251c-2.187,2.187-5.115,3.391-8.243,3.391c-3.129,0-6.057-1.204-8.245-3.392l-4.347-4.347    l6.148-6.148c5.06-5.059,7.846-11.806,7.846-18.997c0-4.2-3.404-7.604-7.604-7.604s-7.604,3.403-7.604,7.604    c0,3.13-1.204,6.058-3.391,8.243l-21.25,21.251c-2.187,2.187-5.115,3.391-8.244,3.391c-3.129,0-6.058-1.204-8.244-3.392    l-21.249-21.249c-2.187-2.187-3.392-5.115-3.392-8.245S239.399,155.473,241.586,153.287z M373.57,174.917l-16.61,219.089    c-0.211,2.788-2.567,4.971-5.362,4.971H233.476c-2.795,0-5.15-2.183-5.362-4.971l-16.609-219.089    c0.094-4.732,3.87-5.783,5.362-5.783h7.204c1.246,4.267,3.541,8.174,6.762,11.394l21.249,21.248    c5.06,5.06,11.807,7.846,18.998,7.846c7.191,0,13.938-2.786,18.997-7.845l4.347-4.347l4.347,4.347    c5.059,5.059,11.806,7.845,18.997,7.845c7.191,0,13.938-2.786,18.997-7.845l21.25-21.25c3.221-3.221,5.515-7.126,6.761-11.393    h3.428C369.7,169.134,373.983,170.354,373.57,174.917z"/>
	</g>
</g>
<g>
	<g>
		<path d="M360.509,435.668c-3.787-4.086-9.154-6.429-14.725-6.429H238.791c-5.571,0-10.937,2.343-14.725,6.429    c-3.788,4.087-5.719,9.615-5.297,15.17l0.925,12.185c0.789,10.41,9.584,18.563,20.022,18.563H344.86    c10.437,0,19.232-8.153,20.022-18.562l0.924-12.186C366.228,445.283,364.297,439.754,360.509,435.668z M349.719,461.874    c-0.192,2.525-2.326,4.504-4.858,4.504H239.716c-2.534,0-4.667-1.978-4.858-4.504l-0.925-12.186    c-0.102-1.347,0.366-2.689,1.286-3.681c0.919-0.992,2.221-1.559,3.573-1.559h106.993c1.351,0,2.654,0.569,3.573,1.559    c0.92,0.993,1.388,2.334,1.286,3.681L349.719,461.874z"/>
	</g>
</g>
<g>
	<g>
		<path d="M415.349,82.426c-5.336-5.757-12.898-9.058-20.748-9.058H245.263l9.669-7.213c4.309-3.214,7.107-7.913,7.88-13.232    c0.774-5.319-0.571-10.62-3.785-14.928c-15.081-20.214-37.165-33.351-62.184-36.99c-25.018-3.639-49.931,2.661-70.145,17.743    c-12.41,9.259-22.433,21.532-28.983,35.49c-1.784,3.802-0.148,8.33,3.653,10.114c3.801,1.783,8.33,0.149,10.114-3.653    c5.492-11.702,13.898-21.993,24.311-29.762c16.957-12.652,37.862-17.936,58.862-14.883c21,3.055,40.311,13.523,52.185,31.033    c2.463,3.633-1.479,7.234-1.479,7.234c-0.673-1.001-20.073-32.521-61.054-32.521c-15.284,0-30.696,4.749-43.888,14.591    c-32.532,24.27-39.228,70.316-14.958,102.848c0.729,0.977,1.484,1.922,2.252,2.853c0,0-5.39,3.634-8.071-0.107    c-17.212-24.015-16.348-47.57-14.347-60.874c0.625-4.153-2.235-8.026-6.388-8.65c-4.155-0.619-8.026,2.237-8.65,6.389    c-1.469,9.763-5.062,40.135,17.196,72.229c3.76,5.422,10.012,8.081,16.152,8.081c4.184,0,8.404-1.298,12.007-3.986l28.913-21.57    l26.704,352.24c1.112,14.666,13.503,26.155,28.211,26.155h146.199c14.708,0,27.099-11.489,28.211-26.154l28.963-382.046    C423.406,95.974,420.686,88.184,415.349,82.426z M228.598,57.342c1.838,2.26,3.273,4.34,4.398,6.205l-13.167,9.823h-24.625    l-4.116-35.968C205.716,39.067,218.982,46.088,228.598,57.342z M140.011,132.918c-2.687-3.205-16.615-17.311-13.042-47.663    l35.145,14.966c0.037,0.016,0.076,0.026,0.114,0.042c-0.059,1.174,0.934,15.383,0.934,15.383L140.011,132.918z M169.727,82.426    c-0.981,1.058-1.873,2.187-2.672,3.37l-35.305-15.034c16.443-29.841,44.077-32.962,44.088-32.878l4.287,37.461    C176.207,76.888,172.634,79.289,169.727,82.426z M407.648,102.649l-28.963,382.048c-0.514,6.781-6.245,12.096-13.047,12.096    h-146.2c-6.802,0-12.533-5.313-13.047-12.097l-28.963-382.048c-0.275-3.618,0.983-7.221,3.451-9.884    c2.468-2.661,5.965-4.188,9.596-4.188h204.126c3.63,0,7.128,1.527,9.595,4.188C406.665,95.428,407.923,99.03,407.648,102.649z"/>
	</g>
</g>
<g>
</g>
<g>
</g>
<g>
</g>
<g>
</g>
<g>
</g>
<g>
</g>
<g>
</g>
<g>
</g>
<g>
</g>
<g>
</g>
<g>
</g>
<g>
</g>
<g>
</g>
<g>
</g>
<g>
</g>
</svg>
