<?xml version="1.0" encoding="iso-8859-1"?>
<!-- Generator: Adobe Illustrator 19.0.0, SVG Export Plug-In . SVG Version: 6.00 Build 0)  -->
<svg xmlns="http://www.w3.org/2000/svg" xmlns:xlink="http://www.w3.org/1999/xlink" version="1.1" id="Capa_1" x="0px" y="0px" viewBox="0 0 512.002 512.002" style="enable-background:new 0 0 512.002 512.002;" xml:space="preserve">
<g>
	<g>
		<path d="M291.112,123.413c-1.871-6.646-8-11.287-14.905-11.287h-51.223c-6.905,0-13.034,4.641-14.906,11.287    c-15.342,54.459-25.132,124.571-25.132,148.913c0,41.86,29.45,75.916,65.649,75.916c36.199,0,65.649-34.057,65.649-75.916    C316.245,247.986,306.455,177.874,291.112,123.413z M250.596,333.038c-27.816,0-50.445-27.235-50.445-60.712    c0-23.485,9.568-91.566,24.563-144.792c0.033-0.121,51.73-0.121,51.764,0c14.994,53.229,24.562,121.308,24.562,144.792    C301.041,305.803,278.412,333.038,250.596,333.038z"/>
	</g>
</g>
<g>
	<g>
		<path d="M248.376,238.361c-1.419-1.409-3.375-2.22-5.382-2.22c-1.997,0-3.953,0.811-5.372,2.22    c-1.419,1.419-2.23,3.375-2.23,5.382c0,1.997,0.811,3.953,2.23,5.372c1.419,1.419,3.375,2.23,5.372,2.23    c2.008,0,3.963-0.811,5.382-2.23c1.409-1.419,2.22-3.375,2.22-5.372C250.596,241.736,249.785,239.78,248.376,238.361z"/>
	</g>
</g>
<g>
	<g>
		<path d="M277.939,214.302c-1.419-1.409-3.375-2.22-5.382-2.22c-1.997,0-3.953,0.811-5.372,2.22    c-1.419,1.419-2.23,3.375-2.23,5.382c0,1.997,0.811,3.953,2.23,5.372c1.419,1.419,3.375,2.23,5.372,2.23    c2.007,0,3.963-0.811,5.382-2.23c1.409-1.419,2.22-3.375,2.22-5.372C280.159,217.677,279.348,215.721,277.939,214.302z"/>
	</g>
</g>
<g>
	<g>
		<path d="M247.88,201.97c-1.419-1.409-3.375-2.22-5.382-2.22c-1.997,0-3.953,0.811-5.372,2.22c-1.419,1.419-2.23,3.375-2.23,5.382    c0,1.997,0.811,3.953,2.23,5.372c1.419,1.419,3.375,2.23,5.372,2.23c2.007,0,3.963-0.811,5.382-2.23    c1.409-1.419,2.22-3.375,2.22-5.372C250.1,205.345,249.289,203.389,247.88,201.97z"/>
	</g>
</g>
<g>
	<g>
		<path d="M268.901,175.157c-1.419-1.409-3.375-2.22-5.382-2.22c-1.997,0-3.953,0.811-5.372,2.22    c-1.419,1.419-2.23,3.375-2.23,5.382c0,1.997,0.811,3.953,2.23,5.372c1.419,1.419,3.375,2.23,5.372,2.23    c2.007,0,3.963-0.811,5.382-2.23c1.409-1.419,2.22-3.375,2.22-5.372C271.121,178.532,270.31,176.576,268.901,175.157z"/>
	</g>
</g>
<g>
	<g>
		<path d="M285.499,263.365c-0.273-4.19-3.892-7.361-8.079-7.093c-4.19,0.273-7.366,3.889-7.093,8.079    c0.147,2.27,0.243,4.321,0.284,6.092c0.096,4.138,3.479,7.427,7.597,7.427c0.06,0,7.604,0.598,7.604-7.777    C285.81,268.108,285.66,265.846,285.499,263.365z"/>
	</g>
</g>
<g>
	<g>
		<path d="M277.386,284.44c-3.847-1.678-8.329,0.078-10.007,3.928c-3.838,8.797-10.27,14.262-16.783,14.262    c-4.198,0-7.602,3.403-7.602,7.602s3.404,7.602,7.602,7.602c12.654,0,24.423-8.961,30.718-23.387    C282.992,290.6,281.235,286.119,277.386,284.44z"/>
	</g>
</g>
<g>
	<g>
		<path d="M343.311,39.211l-8.29-2.975c0.875-3.408-0.72-7.078-4-8.699c-3.766-1.859-8.324-0.313-10.182,3.449l-2.644,5.355    c-3.492-2.221-7.377-3.873-11.527-4.828l22.282-10.914c3.771-1.847,5.33-6.4,3.484-10.17c-1.846-3.772-6.4-5.328-10.17-3.484    l-5.356,2.623c-0.078-1.915-0.699-3.798-1.84-5.398c-1.868-2.611-4.899-4.17-8.11-4.17h-17.229c-3.207,0-6.236,1.557-8.112,4.176    c-1.139,1.596-1.76,3.478-1.837,5.393l-5.358-2.624c-5.271-2.58-11.596-1.52-15.743,2.637c-4.142,4.16-5.178,10.49-2.581,15.75    l5.413,10.96l-8.136,2.919c-5.295,1.901-8.943,6.956-9.078,12.588c-0.128,5.552,3.187,10.708,8.27,12.906l8.709,4.112    c0.014,0.496,0.023,0.987,0.056,1.498h-52.658c-7.304,0-13.65,4.691-15.793,11.671c-20.002,65.144-33.273,156.734-33.273,188.726    c0,39.947,20.245,74.647,49.744,91.679c0.171,0.174,16.698,8.228,16.698,37.746v13.392c0,4.199,3.404,7.602,7.602,7.602    c4.198,0,7.602-3.403,7.602-7.602v-13.392c0-11.292-2.41-20.546-5.798-27.987c4.926,0.937,9.983,1.432,15.14,1.432    c5.129,0,10.158-0.49,15.058-1.417c-3.389,7.485-5.693,16.658-5.715,27.831v73.362c0,4.199,3.403,7.602,7.602,7.602h41.71    c4.367,0,7.918,3.552,7.918,7.918c0,4.367-3.552,7.919-7.918,7.919h-117.31c-4.367,0-7.918-3.553-7.918-7.919    s3.552-7.918,7.918-7.918h41.71c4.198,0,7.602-3.403,7.602-7.602v-33.813v-5.237c0-4.199-3.404-7.602-7.602-7.602    c-4.198,0-7.602,3.403-7.602,7.602v31.449h-34.108c-12.75,0-23.122,10.372-23.122,23.122s10.372,23.123,23.122,23.123h117.311    c12.749,0,23.122-10.372,23.122-23.123c0-12.749-10.372-23.122-23.122-23.122h-34.108v-65.744    c0-27.702,16.344-37.313,16.55-37.536c29.579-17.001,49.892-51.749,49.892-91.762c0-27.167-9.57-97.306-24.705-157.737    c10.926-11.044,18.156-30.568,18.547-44.166l8.694-4.105c5.084-2.198,8.399-7.355,8.27-12.909    C352.257,46.168,348.609,41.111,343.311,39.211z M290.018,31.513c-4.15,0.956-8.035,2.607-11.527,4.828l-6.822-13.816    L290.018,31.513z M326.381,270.712c0,48.338-33.997,87.665-75.785,87.665c-41.788,0-75.785-39.327-75.785-87.665    c0-31.084,13.003-120.43,32.604-184.265c0.17-0.555,86.193-0.555,86.363,0.001C313.377,150.283,326.381,239.629,326.381,270.712z     M311.95,94.377c-1.186-4.218-2.399-8.355-3.638-12.391c-2.143-6.982-8.489-11.672-15.793-11.672h-15.932    c-0.087-0.936-2.173-24.551,21.754-24.551c12.076,0,21.9,9.824,21.9,21.9C320.242,74.934,316.903,85.883,311.95,94.377z"/>
	</g>
</g>
<g>
</g>
<g>
</g>
<g>
</g>
<g>
</g>
<g>
</g>
<g>
</g>
<g>
</g>
<g>
</g>
<g>
</g>
<g>
</g>
<g>
</g>
<g>
</g>
<g>
</g>
<g>
</g>
<g>
</g>
</svg>
