<?xml version="1.0" encoding="iso-8859-1"?>
<!-- Generator: Adobe Illustrator 19.0.0, SVG Export Plug-In . SVG Version: 6.00 Build 0)  -->
<svg xmlns="http://www.w3.org/2000/svg" xmlns:xlink="http://www.w3.org/1999/xlink" version="1.1" id="Capa_1" x="0px" y="0px" viewBox="0 0 512 512" style="enable-background:new 0 0 512 512;" xml:space="preserve">
<g>
	<g>
		<path d="M480.689,111.235c-5.802-6.413-14.089-10.092-22.737-10.092h-31.391c1.872-2.511,2.105-6.016,0.309-8.805    c-2.311-3.592-7.098-4.63-10.689-2.318c-5.251,3.379-9.698,7.138-13.478,11.123h-151C245.064,44.197,196.667,0,137.94,0    C74.677,0,23.392,51.285,23.392,114.549c0,56.776,41.308,103.893,95.509,112.962l25.833,256.899    c1.581,15.729,14.696,27.59,30.504,27.59h247.566c15.808,0,28.923-11.861,30.503-27.59l35.149-349.544    C489.32,126.26,486.489,117.648,480.689,111.235z M38.861,114.549c0-54.72,44.359-99.08,99.079-99.08    c50.172,0,91.625,37.295,98.17,85.673h-7.833c-13.27-80.882-91.303-77.935-91.792-77.927c-50.362,0.803-90.68,42.428-89.878,92.79    c0.667,41.834,29.695,77.63,69.862,87.32l0.818,8.134C72.481,201.955,38.861,162.185,38.861,114.549z M210.277,91.654    c0.976,3.082,1.775,6.244,2.354,9.489h-24.267L210.277,91.654z M151.904,100.073l20.977-52.841    c13.088,6.815,23.998,17.327,31.25,30.225L151.904,100.073z M65.612,137.44c-2.181-6.883-3.419-14.161-3.539-21.681    c-0.121-7.552,0.888-14.862,2.842-21.785l50.305,19.904c-0.666,0.925-1.275,1.885-1.831,2.873L65.612,137.44z M111.891,157.811    c-0.31,0.459-9.59,23.727-9.59,23.727c-12.887-6.866-23.463-17.304-30.536-29.907l37.856-16.392L111.891,157.811z M70.612,79.592    c12.467-23.912,37.314-40.451,66.118-40.909c7.538-0.121,14.851,0.873,21.779,2.829l-20.882,52.602L121.723,57.54    c-1.704-3.918-6.258-5.712-10.178-4.009c-3.917,1.704-5.711,6.26-4.009,10.178l16.016,36.83L70.612,79.592z M473.063,133.318    l-35.149,349.544c-0.783,7.792-7.28,13.667-15.111,13.667H175.237c-7.832,0-14.329-5.876-15.112-13.668l-35.149-349.543    c-0.428-4.263,0.975-8.531,3.848-11.708c2.874-3.178,6.981-5.001,11.265-5.001h251.533c-4.46,8.449-6.89,17.097-8.142,24.892    c-10.96,0.565-21.287,4.816-29.431,12.012l-20.997-20.996c-10.655-10.656-27.992-10.654-38.649,0l-12.361,12.361l-12.361-12.361    c-5.146-5.146-12.009-7.981-19.324-7.981c-7.315,0-14.178,2.835-19.324,7.981l-43.799,43.8c-3.276,3.275-5.611,7.249-6.879,11.589    h-9.839c-6.089,0-11.918,2.595-15.995,7.12c-4.075,4.525-6.047,10.593-5.412,16.65l11.306,107.773    c0.292,3.487,5.878,64.067,42.688,101.112c24.338,24.494,56.612,36.912,95.929,36.912c69.205,0,103.664-38.273,120.385-70.382    c16.014-30.753,18.509-60.888,18.862-67.108l10.899-108.4c0.607-6.042-1.381-12.09-5.452-16.592    c-2.579-2.851-5.86-4.929-9.46-6.073c-0.362-21.784-15.21-40.096-35.314-45.706c1.473-8.436,4.629-17.987,11.017-26.604h47.982    c4.284,0,8.39,1.822,11.265,5C472.089,124.789,473.492,129.055,473.063,133.318z M272.391,245.117    c-3.022-3.02-7.919-3.021-10.938,0.001l-2.71,2.71c-2.225,2.225-5.204,3.451-8.387,3.451c-3.184,0-6.162-1.225-8.385-3.45    l-43.8-43.799c-2.225-2.224-3.451-5.203-3.451-8.386s1.225-6.162,3.451-8.386l43.8-43.8c2.223-2.224,5.202-3.45,8.385-3.45    c3.183,0,6.162,1.225,8.386,3.45l12.361,12.36l-3.702,3.702c-3.021,3.021-3.021,7.918,0,10.938c3.021,3.02,7.917,3.022,10.939,0    l27.001-27.001c4.623-4.623,12.148-4.623,16.773,0l43.801,43.8c2.224,2.224,3.45,5.203,3.45,8.385s-1.225,6.162-3.451,8.386    l-43.799,43.799c-4.623,4.624-12.148,4.623-16.773,0l-43.8-43.799c-2.225-2.224-3.451-5.203-3.451-8.386s1.225-6.162,3.45-8.386    c3.022-3.021,3.022-7.917,0.001-10.938c-3.021-3.02-7.918-3.021-10.938,0c-5.147,5.146-7.981,12.009-7.981,19.324    c0,7.315,2.834,14.178,7.98,19.324l43.801,43.8c5.328,5.328,12.326,7.991,19.323,7.991c6.998,0,13.996-2.664,19.325-7.991    l27.804-27.805c7.528,4.586,16.229,7.067,25.134,7.067c21.319,0.001,39.443-13.888,45.831-33.088    c0.151,0.136,2.138,3.399,1.968,5.099L422.871,318.61c-0.012,0.119-0.022,0.237-0.028,0.356    c-0.173,3.204-2.128,32.141-17.146,60.982c-14.743,28.31-45.216,62.058-106.665,62.058c-35.046,0-63.629-10.883-84.956-32.347    c-33.162-33.376-38.057-89.178-38.25-91.537c-0.004-0.06-0.012-0.14-0.019-0.199l-11.315-107.859    c-0.178-1.704,0.376-3.41,1.522-4.683c1.147-1.274,2.787-2.004,4.5-2.004h9.839c1.267,4.341,3.602,8.314,6.878,11.59l43.8,43.799    c5.146,5.146,12.009,7.981,19.324,7.981c7.315,0,14.178-2.835,19.325-7.981l2.711-2.711    C275.413,253.034,275.413,248.137,272.391,245.117z M385.99,222.56c-4.768,0-9.45-1.045-13.723-3.009l4.583-4.583    c5.147-5.147,7.981-12.01,7.981-19.325c0-7.315-2.834-14.178-7.98-19.324l-11.834-11.834c5.848-4.867,13.224-7.583,20.972-7.583    c18.102,0,32.828,14.727,32.828,32.828C418.818,207.834,404.092,222.56,385.99,222.56z"/>
	</g>
</g>
<g>
	<g>
		<path d="M405.1,301.87c-4.252-0.421-8.043,2.672-8.47,6.922l-0.748,7.435c-0.427,4.25,2.705,7.795,6.923,8.469    c5.134,0.819,8.069-2.935,8.47-6.922l0.748-7.435C412.45,306.089,409.35,302.297,405.1,301.87z"/>
	</g>
</g>
<g>
	<g>
		<path d="M400.788,336.96c-4.114-1.155-8.383,1.239-9.54,5.351c-2.366,8.411-5.436,16.266-9.125,23.349    c-6.326,12.147-14.464,21.974-24.187,29.21c-3.427,2.549-3.999,7.295-1.589,10.822c3.467,5.075,9.435,2.62,10.822,1.587    c11.614-8.64,21.262-20.24,28.675-34.475c4.177-8.022,7.642-16.873,10.294-26.305C407.297,342.387,404.9,338.117,400.788,336.96z"/>
	</g>
</g>
<g>
</g>
<g>
</g>
<g>
</g>
<g>
</g>
<g>
</g>
<g>
</g>
<g>
</g>
<g>
</g>
<g>
</g>
<g>
</g>
<g>
</g>
<g>
</g>
<g>
</g>
<g>
</g>
<g>
</g>
</svg>
