<?xml version="1.0" encoding="iso-8859-1"?>
<!-- Generator: Adobe Illustrator 19.0.0, SVG Export Plug-In . SVG Version: 6.00 Build 0)  -->
<svg xmlns="http://www.w3.org/2000/svg" xmlns:xlink="http://www.w3.org/1999/xlink" version="1.1" id="Capa_1" x="0px" y="0px" viewBox="0 0 512 512" style="enable-background:new 0 0 512 512;" xml:space="preserve">
<g>
	<g>
		<path d="M371.822,424.112c-4.758-6.26-12.293-9.996-20.155-9.996H160.332c-7.862,0-15.397,3.737-20.155,9.996    c-4.758,6.258-6.344,14.518-4.242,22.095c2.208,7.956,4.102,14.074,5.301,17.806c3.378,10.51,13.066,17.571,24.104,17.571h181.319    c11.04,0,20.726-7.062,24.104-17.571c1.198-3.728,3.091-9.844,5.301-17.807C378.167,438.629,376.58,430.369,371.822,424.112z     M361.411,442.139c-2.142,7.719-3.969,13.624-5.125,17.22c-1.349,4.197-5.217,7.017-9.627,7.017H165.341    c-4.408,0-8.277-2.82-9.627-7.017c-1.157-3.599-2.986-9.508-5.126-17.219c-0.841-3.025-0.207-6.324,1.694-8.825    c1.9-2.499,4.909-3.992,8.049-3.992h191.335c3.14,0,6.149,1.492,8.05,3.993C361.617,435.815,362.251,439.113,361.411,442.139z"/>
	</g>
</g>
<g>
	<g>
		<path d="M401.911,138.772c-4.394-11.254-15.041-18.526-27.122-18.526H215.055l-7.589-97.337    c-0.514-6.595-3.58-12.608-8.632-16.929s-11.465-6.416-18.064-5.904c-13.655,1.065-23.898,13.039-22.833,26.695l7.288,93.475    h-28.015c-12.082,0-22.728,7.272-27.122,18.526C84.449,204.439,78.087,284.035,91.18,375.35    c9.61,67.021,26.471,115.218,27.184,117.239C122.469,504.199,133.501,512,145.815,512h220.368    c12.314,0,23.346-7.801,27.452-19.413c0.714-2.019,17.574-50.216,27.184-117.237C433.913,284.035,427.551,204.439,401.911,138.772    z M222.942,156.354l43.06,43.06c4.545,4.546,4.545,11.943,0,16.489l-43.06,43.059c-2.187,2.187-5.115,3.392-8.244,3.392    c-3.129,0-6.058-1.204-8.245-3.392l-26.389-26.387c-2.97-2.97-7.784-2.97-10.753,0c-2.97,2.97-2.97,7.784,0,10.753l26.389,26.389    c5.06,5.06,11.807,7.846,18.999,7.846c0.179,0,0.358-0.009,0.537-0.013c-4.363,5.373-7.884,11.58-10.287,18.497    c-11.088,31.923,5.803,66.791,37.727,77.879c13.723,4.766,27.985,4.347,40.673-0.199c31.237,9.418,64.619-7.403,75.423-38.51    c10.439-30.056-3.927-62.713-32.284-75.686l32.873-32.873c3.082-3.082,5.25-6.735,6.518-10.621    c2.796,1.211,4.912,3.748,5.481,6.907c7.176,39.885,7.219,85.19,0.125,134.658c-0.852,5.939-1.826,12.039-2.897,18.127    c-0.787,4.472-4.654,7.717-9.194,7.717h-206.79c-4.541,0-8.407-3.245-9.194-7.716c-1.072-6.09-2.046-12.189-2.897-18.129    c-7.093-49.468-7.051-94.774,0.126-134.657c0.569-3.16,2.685-5.698,5.481-6.908c1.268,3.885,3.436,7.538,6.519,10.621    c2.97,2.97,7.784,2.97,10.753,0c2.97-2.97,2.97-7.784,0-10.753c-2.187-2.187-3.391-5.115-3.391-8.245s1.204-6.058,3.391-8.245    l43.06-43.06C210.998,151.809,218.395,151.809,222.942,156.354z M259.357,270.275c-5.923,5.484-10.821,12.212-14.266,19.963    l-11.158-9.925C241.158,274.517,250.036,270.977,259.357,270.275z M246.183,257.229l9.817-9.817l7.527,7.527    C257.606,254.863,251.77,255.652,246.183,257.229z M240.405,306.422c-0.194,1.333-0.349,2.666-0.453,3.998l-22.909,0.773    c0.366-3.393,1.105-6.798,2.271-10.157c1.165-3.354,2.686-6.486,4.498-9.372L240.405,306.422z M240.682,325.611    c0.186,1.06,0.401,2.114,0.642,3.161l-14.378,16.164c-4.351-5.426-7.432-11.781-8.994-18.558L240.682,325.611z M247.442,344.775    c3.618,6.541,8.438,12.431,14.278,17.315c-4.674-0.099-9.408-0.916-14.056-2.531c-3.354-1.165-6.479-2.693-9.365-4.506    L247.442,344.775z M256.136,325.259l27.029-1.545l-18.002,20.239C260.781,338.49,257.688,332.086,256.136,325.259z     M294.449,333.91l1.576,26.936c-3.389-0.367-6.788-1.105-10.143-2.27c-3.354-1.165-6.48-2.693-9.366-4.506L294.449,333.91z     M272.157,279.334c5.43-4.356,11.792-7.437,18.576-8.998l1.575,26.922L272.157,279.334z M282.109,308.542l-26.834,1.534    c0.371-3.349,1.106-6.708,2.257-10.022c1.165-3.354,2.693-6.479,4.506-9.366L282.109,308.542z M319.7,321.624l26.975-1.542    c-0.367,3.389-1.105,6.789-2.27,10.144c-1.165,3.354-2.693,6.48-4.506,9.366L319.7,321.624z M329.781,350.946    c-5.43,4.356-11.791,7.437-18.575,8.998l-1.575-26.922L329.781,350.946z M318.885,306.439l4.43-4.981    c2.791-3.138,2.51-7.945-0.628-10.736c-3.138-2.79-7.943-2.509-10.736,0.628l-4.464,5.019l-1.576-26.935    c3.389,0.367,6.788,1.105,10.143,2.27c15.499,5.384,26.283,18.279,29.718,33.199L318.885,306.439z M200.986,135.455v-0.001    l0.451,5.784c-2.054,1.165-3.99,2.615-5.738,4.364l-12.286,12.286l-1.749-22.432H200.986z M181.954,15.237    c2.542-0.198,5.03,0.617,6.996,2.299c1.965,1.681,3.157,4.009,3.355,6.555l7.496,96.155H180.48l-7.38-94.657    C172.687,20.294,176.659,15.651,181.954,15.237z M405.766,373.191c-9.399,65.55-25.777,112.369-26.47,114.328    c-1.961,5.546-7.23,9.273-13.113,9.273H145.815c-5.882,0-11.152-3.726-13.112-9.27c-0.692-1.962-17.071-48.782-26.47-114.331    c-12.716-88.686-6.653-165.695,18.021-228.887c2.099-5.376,7.184-8.85,12.956-8.85h29.2l2.852,36.584l-16.624,16.624    c-3.377,3.377-5.658,7.438-6.858,11.738c-10.085,1.676-18.247,9.503-20.109,19.851c-7.465,41.489-7.537,88.426-0.212,139.509    c0.874,6.097,1.875,12.357,2.974,18.604c2.068,11.758,12.234,20.29,24.172,20.29h206.79c11.937,0,22.103-8.534,24.172-20.291    c1.098-6.247,2.099-12.506,2.973-18.603c7.325-51.081,7.254-98.019-0.211-139.51c-1.862-10.347-10.025-18.174-20.109-19.85    c-1.199-4.302-3.482-8.362-6.858-11.738l-43.06-43.06c-10.475-10.475-27.521-10.475-37.996,0l-8.816,8.816    c-2.97,2.97-2.97,7.784,0,10.753c2.97,2.971,7.784,2.97,10.753,0l8.816-8.816c4.546-4.545,11.942-4.545,16.489,0l43.06,43.06    c4.545,4.546,4.545,11.943,0,16.489l-38.707,38.707c-8.144-1.211-16.276-0.737-23.973,1.223l-19.174-19.174l10.003-10.002    c10.475-10.476,10.475-27.521,0-37.996l-43.06-43.06c-4.8-4.799-10.978-7.392-17.271-7.794l-0.184-2.353h158.548    c5.771,0,10.856,3.473,12.956,8.85C412.419,207.497,418.483,284.506,405.766,373.191z"/>
	</g>
</g>
<g>
</g>
<g>
</g>
<g>
</g>
<g>
</g>
<g>
</g>
<g>
</g>
<g>
</g>
<g>
</g>
<g>
</g>
<g>
</g>
<g>
</g>
<g>
</g>
<g>
</g>
<g>
</g>
<g>
</g>
</svg>
