<?xml version="1.0" encoding="iso-8859-1"?>
<!-- Generator: Adobe Illustrator 19.0.0, SVG Export Plug-In . SVG Version: 6.00 Build 0)  -->
<svg xmlns="http://www.w3.org/2000/svg" xmlns:xlink="http://www.w3.org/1999/xlink" version="1.1" id="Capa_1" x="0px" y="0px" viewBox="0 0 512.002 512.002" style="enable-background:new 0 0 512.002 512.002;" xml:space="preserve">
<g>
	<g>
		<path d="M314.107,449.832c-3.053-4.918-8.331-7.854-14.12-7.854H210.49c-5.788,0-11.066,2.936-14.12,7.853    c-3.052,4.916-3.342,10.948-0.776,16.138c2.154,4.351,4.398,8.532,6.672,12.426c2.968,5.082,8.467,8.24,14.352,8.24h77.239    c5.888,0,11.387-3.158,14.351-8.24c2.272-3.89,4.517-8.07,6.672-12.425C317.449,460.782,317.16,454.749,314.107,449.832z     M301.253,459.222c-2.001,4.043-6.894,12.204-7.394,12.204h-77.239c-0.5,0-5.395-8.166-7.393-12.203    c-0.219-0.441-0.194-0.954,0.066-1.372c0.255-0.412,0.715-0.667,1.199-0.667h89.497c0.492,0,0.94,0.249,1.199,0.666    C301.447,458.268,301.47,458.781,301.253,459.222z"/>
	</g>
</g>
<g>
	<g>
		<path d="M306.268,324.077c-0.018,0-0.034,0-0.053,0c-4.175,0-7.575,3.371-7.603,7.553c-0.01,1.439-0.028,2.872-0.056,4.299    c-0.08,4.198,3.259,7.667,7.458,7.747c0.05,0.001,7.806,1.184,7.748-7.458c-0.009-1.489,0.048-2.984,0.058-4.486    C313.849,327.532,310.468,324.105,306.268,324.077z"/>
	</g>
</g>
<g>
	<g>
		<path d="M305.629,351.518c-4.183-0.359-7.864,2.753-8.217,6.937c-0.13,1.542-0.273,3.076-0.425,4.602    c-1.003,10.043-2.512,19.863-4.484,29.185c-0.87,4.109,1.77,8.085,5.865,9.013c6.153,1.395,8.256-2.287,9.014-5.867    c2.087-9.861,3.68-20.231,4.738-30.82c0.16-1.602,0.308-3.213,0.446-4.834C312.919,355.551,309.814,351.872,305.629,351.518z"/>
	</g>
</g>
<g>
	<g>
		<path d="M360.723,244.386c-11.448-78.044-33.958-137.376-34.912-139.865c-3.138-8.187-11.135-13.687-19.902-13.687h-45.274    l-6.591-72.394C253.033,7.31,243.15-0.929,232.013,0.084c-5.394,0.491-10.275,3.054-13.741,7.216    c-3.466,4.161-5.105,9.423-4.614,14.817l4.547,49.961c0.38,4.182,4.083,7.262,8.261,6.884c4.182-0.38,7.264-4.08,6.883-8.262    l-4.547-49.961c-0.123-1.348,0.571-5.048,4.584-5.508c2.778-0.318,5.26,1.806,5.513,4.589l6.465,71.015h-39.564    c-8.768,0-16.766,5.501-19.901,13.685c-0.482,1.253-11.901,31.214-22.589,76.041c-0.973,4.085,1.548,8.186,5.634,9.16    c4.09,0.977,8.186-1.549,9.16-5.633c10.456-43.858,21.528-72.906,21.995-74.124c0.898-2.345,3.19-3.922,5.701-3.922h15.497    l3.797,41.717c-3.068-1.786-6.587-2.772-10.212-2.772c-12.09,0-18.263,10.614-20.032,16.963    c-6.311,21.094-15.013,54.32-20.68,92.962c-5.955,40.613-7.245,78.524-3.833,112.68c1.828,18.297,5.08,35.81,9.663,52.05    c2.025,7.18,8.649,12.195,16.112,12.195h119.485c7.459,0,14.086-5.014,16.112-12.193c4.585-16.243,7.836-33.756,9.663-52.051    c3.412-34.156,2.122-72.068-3.832-112.681c-4.731-32.258-16.506-77.703-20.003-90.862l-0.093-0.353    c-1.227-6.703-6.874-18.71-20.162-18.71c-3.659,0-7.212,1.001-10.299,2.821c-3.088-1.819-6.642-2.821-10.3-2.821    s-7.212,1.002-10.299,2.821c-0.193-0.114-0.393-0.214-0.589-0.321l-3.773-41.444h43.89c2.511,0,4.802,1.577,5.701,3.921    c0.928,2.424,22.859,60.231,34.065,136.631c6.599,44.997,8.028,86.999,4.249,124.84c-4.736,47.412-17.706,88.425-38.556,121.917    c-0.122,0.167-2.398,3.195-6.11,3.424h-98.808c-3.712-0.229-5.986-3.254-6.108-3.42c-20.849-33.491-32.861-74.614-38.558-121.92    c-8.838-73.379,10.164-159.045,11.082-163.804c1.202-6.232-1.626-8.915-5.741-9.759c-4.07-0.831-8.05,1.756-8.948,5.799    l-0.086,0.355c-1.748,7.166-18.832,79.834-11.44,168.919c4.154,50.053,18.815,93.356,41.083,128.932    c0.106,0.17,6.123,10.612,18.507,10.105h99.226c13.211,0.018,18.399-9.934,18.507-10.105    c22.269-35.576,36.091-78.955,41.083-128.932C368.96,333.866,367.502,290.613,360.723,244.386z M246.749,106.042l3.622,39.781    c-1.606,0.473-3.149,1.136-4.589,1.984c-1.744-1.028-3.641-1.783-5.617-2.256l-3.596-39.51H246.749z M266.382,165.468    c2.437,0,4.727-1.168,6.157-3.142c0.981-1.355,2.491-2.131,4.142-2.131s3.161,0.778,4.144,2.133    c1.431,1.973,3.72,3.141,6.157,3.141c2.436,0,4.726-1.168,6.156-3.142c0.981-1.355,2.491-2.131,4.142-2.131    c4.02,0,5.182,6.142,5.217,6.335c0,0,15.378,59.128,19.993,90.589c5.775,39.383,7.035,76.043,3.747,108.962    c-1.74,17.412-4.823,34.044-9.167,49.433c-0.187,0.657-0.792,1.116-1.475,1.116H196.112c-0.682,0-1.289-0.458-1.474-1.116    c-4.343-15.388-7.428-32.019-9.167-49.433c-3.287-32.92-2.027-69.579,3.748-108.962c5.542-37.785,14.057-70.279,20.226-90.885    c0.017-0.059,0.033-0.117,0.05-0.175c0.016-0.059,1.885-5.863,5.389-5.863c1.652,0,3.161,0.777,4.143,2.131    c1.431,1.974,3.72,3.142,6.157,3.142c2.437,0,4.727-1.168,6.157-3.142c0.981-1.355,2.491-2.132,4.142-2.132    s3.161,0.778,4.144,2.133c1.431,1.973,3.72,3.141,6.157,3.141c2.436,0,4.726-1.169,6.156-3.142    c0.981-1.355,2.491-2.131,4.142-2.131c1.652,0,3.161,0.777,4.143,2.131C261.655,164.3,263.945,165.468,266.382,165.468z"/>
	</g>
</g>
<g>
</g>
<g>
</g>
<g>
</g>
<g>
</g>
<g>
</g>
<g>
</g>
<g>
</g>
<g>
</g>
<g>
</g>
<g>
</g>
<g>
</g>
<g>
</g>
<g>
</g>
<g>
</g>
<g>
</g>
</svg>
