<?xml version="1.0" encoding="iso-8859-1"?>
<!-- Generator: Adobe Illustrator 19.0.0, SVG Export Plug-In . SVG Version: 6.00 Build 0)  -->
<svg xmlns="http://www.w3.org/2000/svg" xmlns:xlink="http://www.w3.org/1999/xlink" version="1.1" id="Capa_1" x="0px" y="0px" viewBox="0 0 511.998 511.998" style="enable-background:new 0 0 511.998 511.998;" xml:space="preserve">
<g>
	<g>
		<path d="M295.307,269.68c-5.365-12.335-10.913-25.091-13.532-37.776c-7.363-35.646-6.1-70.968,3.754-104.987    c1.485-5.129,0.457-10.74-2.75-15.008c-3.207-4.27-8.312-6.819-13.652-6.819h-82.714c-5.34,0-10.444,2.55-13.652,6.818    c-3.207,4.269-4.236,9.88-2.75,15.009c9.853,34.019,11.117,69.341,3.754,104.986c-2.62,12.686-8.168,25.443-13.533,37.781    c-8.226,18.917-15.997,36.785-15.997,56.595c0,46.062,37.473,83.535,83.535,83.535c46.062,0,83.535-37.473,83.535-83.535    C311.304,306.468,303.533,288.599,295.307,269.68z M184.917,121.043c0.352-0.467,0.91-0.747,1.495-0.747h82.714    c0.585,0,1.143,0.279,1.495,0.748c0.352,0.467,0.464,1.082,0.301,1.644c-1.67,5.763-3.082,11.565-4.29,17.391h-77.726    c-1.209-5.827-2.621-11.628-4.29-17.391C184.453,122.125,184.565,121.51,184.917,121.043z M227.769,394.608    c-37.677,0-68.329-30.652-68.329-68.329c0-16.646,7.158-33.105,14.736-50.53c5.674-13.049,11.541-26.54,14.48-40.768    c5.544-26.843,6.485-53.53,2.879-79.695h72.47c-3.606,26.166-2.665,52.852,2.878,79.695c2.939,14.229,8.806,27.718,14.479,40.764    c7.579,17.427,14.737,33.888,14.737,50.534C296.098,363.956,265.446,394.608,227.769,394.608z"/>
	</g>
</g>
<g>
	<g>
		<path d="M233.111,185.822c-1.946-6.03-5.39-12.283-11.426-17.075c-3.289-2.61-8.071-2.062-10.683,1.227    c-2.61,3.289-2.061,8.071,1.227,10.683c2.277,1.807,3.92,4.09,5.108,6.523c-11.741,4.274-20.149,15.547-20.149,28.746    c0,16.863,13.719,30.582,30.581,30.582s30.581-13.719,30.581-30.581C258.35,200.887,247.433,188.357,233.111,185.822z     M227.769,231.303c-8.478,0-15.375-6.897-15.375-15.375c0-8.479,6.897-15.375,15.375-15.375s15.375,6.897,15.375,15.375    S236.247,231.303,227.769,231.303z"/>
	</g>
</g>
<g>
	<g>
		<path d="M273.917,326.899c-4.132-0.743-8.086,2-8.833,6.132c-0.389,2.159-0.971,4.296-1.731,6.351    c-1.456,3.938,0.509,8.449,4.496,9.767c5.876,1.941,8.633-1.427,9.767-4.496c1.068-2.888,1.886-5.89,2.433-8.922    C280.794,331.599,278.049,327.645,273.917,326.899z"/>
	</g>
</g>
<g>
	<g>
		<path d="M263.344,355.639c-2.756-3.168-7.559-3.501-10.726-0.747c-6.897,6-15.723,9.304-24.848,9.304    c-4.199,0-7.603,3.404-7.603,7.603s3.404,7.603,7.603,7.603c12.793,0,25.163-4.63,34.828-13.037    C265.765,363.61,266.099,358.807,263.344,355.639z"/>
	</g>
</g>
<g>
	<g>
		<path d="M365.708,27.647c-36.863-36.863-96.844-36.863-133.707,0c-3.8,3.8-5.893,8.852-5.893,14.227    c0,5.375,2.092,10.426,5.893,14.226l18.579,18.579h-83.142c-8.564,0-16.617,4.184-21.542,11.191    c-4.923,7.009-6.007,15.959-3.227,24.06c27.459,79.985,2.056,135.473,0.139,140.173c-1.585,3.889,0.397,8.066,4.169,9.91    c4.859,2.376,8.709-1.222,9.91-4.169c1.481-3.633,29.166-62.895,0.086-151.068c-1.133-3.435-0.717-7.203,1.362-10.163    c2.08-2.96,5.482-4.728,9.1-4.728h120.665c3.618,0,7.02,1.768,9.099,4.727c2.08,2.96,2.59,6.76,1.363,10.164    c-14.452,40.106-17.334,81.968-8.566,124.424c2.708,13.109,8.289,25.944,14.199,39.533c8.6,19.777,17.493,40.227,17.493,62.366    c0,51.788-42.133,93.922-93.922,93.922c-51.788,0-93.922-42.133-93.922-93.922c0-18.214,6.013-35.153,12.51-50.746    c1.615-3.875-0.217-8.327-4.093-9.943c-3.873-1.616-8.328,0.217-9.943,4.093c-7.105,17.051-13.681,35.708-13.681,56.594    c0,46.995,29.86,87.147,71.604,102.479c0.297,0.239,14.629,7.48,14.629,26.09v6.544h-20.794c-12.624,0-22.894,10.27-22.894,22.894    c0,12.624,10.27,22.894,22.894,22.894h87.377c12.624,0,22.894-10.27,22.894-22.894s-10.27-22.894-22.894-22.894h-20.794v-6.544    c0-19.37,15.176-26.258,15.347-26.364c41.366-15.528,70.887-55.482,70.887-102.206c0-25.303-9.964-48.216-18.755-68.43    c-5.587-12.846-10.862-24.979-13.251-36.545c-8.193-39.669-5.509-78.762,7.979-116.193c0.524-1.456,0.91-2.943,1.169-4.443    l42.449-11.374c0.389,14.216-4.374,28.55-14.302,39.916c-1.532,2.05-3.497,3.785-5.514,5.238l-11.05-11.05    c-2.969-2.969-7.783-2.969-10.752,0c-2.969,2.969-2.969,7.783,0,10.752l22.386,22.386c3.8,3.8,8.852,5.893,14.227,5.893    c5.375,0,10.426-2.092,14.226-5.893c17.831-17.83,27.651-41.574,27.651-66.854C393.358,69.219,383.539,45.479,365.708,27.647z     M271.458,481.418c4.239,0,7.688,3.449,7.688,7.688c0,4.239-3.449,7.688-7.688,7.688h-87.377c-4.239,0-7.688-3.449-7.688-7.688    c0-4.239,3.449-7.688,7.688-7.688h28.397c4.199,0,7.603-3.404,7.603-7.603v-14.146c0-8.097-1.687-14.706-4.204-20.093    c3.907,0.426,7.874,0.651,11.892,0.651c4.032,0,8.01-0.227,11.931-0.655c-2.534,5.387-4.242,12.007-4.242,20.097v14.146    c0,4.199,3.404,7.603,7.603,7.603H271.458z M289.605,74.724c-0.5-0.028-17.523-0.046-17.523-0.046l-16.986-16.986    c2.431-3.622,4.862-5.891,4.862-5.891c10.615-9.285,24.072-14.355,38.307-14.355c0.537,0,1.069,0.024,1.605,0.04L289.605,74.724z     M353.802,79.089l-41.676,11.167c-0.681-1.525-1.505-2.997-2.484-4.387c-1.602-2.279-3.539-4.254-5.712-5.889l10.964-39.776    c0.03-0.112,0.049-0.223,0.074-0.336c9.161,2.726,17.557,7.698,24.505,14.646c7.076,7.076,11.934,15.536,14.603,24.515    C353.984,79.051,353.893,79.064,353.802,79.089z M354.955,150.603c-3.765,3.317-7.37-0.423-7.37-0.423    c0.893-0.81,1.777-1.637,2.639-2.499c28.697-28.697,28.697-75.222,0-103.919C335.876,29.414,317.07,22.24,298.265,22.24    s-37.611,7.174-51.959,21.522c-0.862,0.862-1.689,1.746-2.499,2.639c0,0-4.843-4.245-1.054-8.002    c31.057-30.811,81.269-30.935,112.204,0c14.959,14.959,23.197,34.883,23.197,56.102    C378.153,115.719,370.829,136.618,354.955,150.603z"/>
	</g>
</g>
<g>
</g>
<g>
</g>
<g>
</g>
<g>
</g>
<g>
</g>
<g>
</g>
<g>
</g>
<g>
</g>
<g>
</g>
<g>
</g>
<g>
</g>
<g>
</g>
<g>
</g>
<g>
</g>
<g>
</g>
</svg>
