<svg id="Layer_1" enable-background="new 0 0 511.996 511.996" height="512" viewBox="0 0 511.996 511.996" width="512" xmlns="http://www.w3.org/2000/svg"><path d="m396.001 132.739h-65.799v-83.018c0-10.874 8.847-19.721 19.721-19.721h36.312v-30h-36.312c-27.416 0-49.721 22.305-49.721 49.721v83.019h-47.168c5.963-44.485-45.736-74.054-80.915-46.753-22.711-31.991-53.238-24.168-87.283-25.077v43.997c0 25.178 16.173 46.65 38.676 54.572l-20.018 48.044v183.713c0 66.587 54.173 120.76 120.76 120.76h82.146c66.588 0 120.761-54.173 120.761-120.76v-183.714zm-262.508 258.497v-17.175l14.367-7.956 29.367 16.264 29.367-16.264 29.367 16.264 29.367-16.264 29.367 16.264 29.367-16.264 29.367 16.264 29.367-16.264 14.367 7.957c-.064 10.293.558 24.974-1.729 34.856l-12.638-6.999-29.367 16.264-29.367-16.264-29.367 16.264-29.367-16.264-29.367 16.264-29.367-16.264-29.367 16.264-29.367-16.264-12.638 6.999c-1.134-5.721-1.729-11.633-1.729-17.682zm249.301-59.425-29.367 16.264-29.367-16.264-29.367 16.264-29.367-16.264-29.367 16.264-29.367-16.264-29.367 16.264-29.367-16.264-14.367 7.957v-35.814l14.367-7.956 29.367 16.264 29.367-16.264 29.367 16.264 29.367-16.264 29.367 16.264 29.367-16.264 29.367 16.264 29.367-16.264 14.367 7.957v35.814zm0-70.108-29.367 16.264-29.367-16.264-29.367 16.264-29.367-16.264-29.367 16.264-29.367-16.264-29.367 16.264-29.367-16.264-14.367 7.957v-44.137h263.667v44.137zm6.867-66.181h-248.668l13.66-32.783h221.348zm-186.773-89.997c13.841-.247 24.131 14.233 19.483 27.214h-38.966c-4.65-12.983 5.642-27.46 19.483-27.214zm-88.053-.619v-13.997h9.644c15.347 0 27.833 12.486 27.833 27.833v13.997h-9.644c-15.347 0-27.833-12.486-27.833-27.833zm191.565 377.09h-82.146c-33.274 0-62.423-17.998-78.223-44.771l1.83-1.013 29.367 16.264 29.367-16.264 29.367 16.264 29.367-16.264 29.367 16.264 29.367-16.264 29.367 16.264 29.367-16.264 1.83 1.013c-15.804 26.773-44.953 44.771-78.227 44.771z"/></svg>