<svg id="Layer_1" enable-background="new 0 0 511.985 511.985" height="512" viewBox="0 0 511.985 511.985" width="512" xmlns="http://www.w3.org/2000/svg"><path d="m403.082 74.96c-2.314-90.42-128.591-102.291-148.411-15h-58.567v-59.96h-30v59.96h-57.004c.316 76.182-3.431 177.655 11.653 251.887-.001 0 12.062 68.187 12.062 68.187v131.951h171.59v-131.951l12.064-68.187c13.6-68.311 11.862-152.048 11.651-221.887h74.961v-15zm-104.961 15v34.774h-102.018v-34.774zm-1.453 135.137h-156.116c-1.565-22.477-1.516-47.731-1.453-70.362h159.021c.063 22.674.113 47.843-1.452 70.362zm-130.565-135.137v34.774h-27.004v-34.774zm-3.288 392.025v-30.969c4.877 1.783 10.14 2.757 15.627 2.757h80.336c5.487 0 10.75-.974 15.627-2.757v30.969zm95.963-58.212h-80.336c-8.617 0-15.627-7.01-15.627-15.627v-30.745c-5.644-33.091-16.762-89.491-19.753-122.304h151.097c-2.947 32.545-14.155 89.494-19.754 122.303v30.745c0 8.618-7.01 15.628-15.627 15.628zm26.958-363.813c14.175-39.708 70.615-39.684 84.772 0z"/></svg>