<svg id="Layer_1" enable-background="new 0 0 511.941 511.941" height="512" viewBox="0 0 511.941 511.941" width="512" xmlns="http://www.w3.org/2000/svg"><path d="m395.789 26.908c-23.244-23.546-55.424-31.076-87.46-24.786l-16.134 65.235h-178.676v79.833c0 30.341-5.356 60.148-15.92 88.592-31.877 88.366 31.398 174.26 123.45 179.123v67.036h-74.63v30h179.261v-30h-74.631v-67.038c92.075-4.885 155.294-90.781 123.428-179.122-12.956-33.771-16.987-70.073-15.92-106.076l62.018-15.337c6.277-32.123-1.209-64.137-24.786-87.46zm-67.233 70.449v45.005h-185.037v-45.005zm-202.834 148.87c8.874-23.892 14.46-48.645 16.69-73.865h187.253c2.229 25.22 7.816 49.972 16.69 73.865 6.126 16.494 7.87 33.777 5.298 50.587h-231.23c-2.571-16.81-.827-34.093 5.299-50.587zm154.826 132.691c-54.075 16.684-124.587 2.978-150.592-52.104h212.163c-12.592 25.379-34.458 43.882-61.571 52.104zm78.008-280.117v-31.444h-35.456l9.248-37.394c31.871.027 60.36 28.515 60.385 60.386z"/></svg>