<svg id="Layer_1" enable-background="new 0 0 511.996 511.996" height="512" viewBox="0 0 511.996 511.996" width="512" xmlns="http://www.w3.org/2000/svg"><path d="m422.35 16.646v-16.646h-30v16.646c-27.776 4.213-49.242 27.908-49.98 56.667h-302.554c.044 48.294-5.817 87.329 35.908 121.838-.001 0 27.249 22.043 27.249 22.043 8.861 7.168 15.78 16.551 20.009 27.135 0 0 6.54 16.368 6.54 16.368 13.421 33.591 43.764 56.382 79.061 60.268v82.872c0 43.097-35.062 78.159-78.159 78.159v30h186.318v-30c-43.097 0-78.159-35.062-78.159-78.159v-82.872c35.297-3.886 65.64-26.677 79.062-60.268l6.54-16.368c4.229-10.584 11.147-19.967 20.009-27.135 20.272-16.748 44.082-32.021 54.551-57.274 23.871 4.158 47.987-9.31 56.832-31.892 0 0 12.543-31.273 12.543-31.273 14.537-34.523-9.351-75.25-45.77-80.109zm-352.534 86.667h307.533c-.079 10.103.719 24.347-2.27 33.954h-302.993c-2.986-9.561-2.194-23.9-2.27-33.954zm172.235 378.683h-36.938c7.166-6.851 13.392-14.67 18.469-23.252 5.077 8.581 11.303 16.401 18.469 23.252zm83.274-288.127c-18.999 15.027-27.381 33.654-35.54 55.697-10.192 25.508-34.526 41.99-61.995 41.99-30.754 2.191-58.736-12.854-70.409-41.991-17.69-49.576-31.561-50.364-67.88-82.298h268.163c-2.796 3.115-28.603 23.43-32.339 26.602zm114.951-108.281-12.543 31.272c-3.419 8.558-11.758 14.033-20.97 13.776 1.11-6.974.399-49.443.587-57.325h-34.96c.798-15.207 13.421-27.333 28.824-27.333h12.272c20.013-.389 34.561 21.215 26.79 39.61z"/></svg>