<svg id="Layer_1" enable-background="new 0 0 512.021 512.021" height="512" viewBox="0 0 512.021 512.021" width="512" xmlns="http://www.w3.org/2000/svg"><g><path d="m420.339 386.044-20.734-317.398h-206.549l-21.599-68.646-28.617 9.004 18.766 59.642h-49.342s-20.733 317.397-20.733 317.397c-2.154 32.98 9.103 64.426 31.698 88.546 22.596 24.12 53.242 37.403 86.292 37.403h92.827c66.456 1.525 123.851-59.726 117.991-125.948zm-48.838-287.398 4.107 62.871h-122.266c-5.997-16.768-21.75-28.937-40.388-29.631l-10.459-33.24zm-160.23 63.208c8.084 0 14.662 6.578 14.662 14.662-.737 19.424-28.589 19.419-29.324 0 .001-8.084 6.578-14.662 14.662-14.662zm-40.226-63.208 13.297 42.263c-6.867 5.206-12.187 12.349-15.141 20.608h-32.94l4.107-62.871zm195.701 355.434c-16.863 18-39.733 27.914-64.398 27.914h-92.827c-49.598 1.138-92.426-44.573-88.053-93.995-.001.001 12.834-196.482 12.834-196.482h34.9c14.131 39.314 70.024 39.289 84.14 0h124.226l12.834 196.483c1.608 24.612-6.793 48.08-23.656 66.08z"/><path d="m273.936 315.91h82.81v-82.81h-82.81zm30-52.81h22.81v22.81h-22.81z"/><path d="m156.082 420.723h82.81v-82.81h-82.81zm30-52.81h22.81v22.81h-22.81z"/></g></svg>