<svg id="Layer_1" enable-background="new 0 0 511.991 511.991" height="512" viewBox="0 0 511.991 511.991" width="512" xmlns="http://www.w3.org/2000/svg"><path d="m414.341 207.621-27.696-58.62h-104.12v-10.001c0-8.272 6.729-15.002 15.002-15.002 59.62-2.263 59.602-87.751-.001-90.004-8.272 0-15.001-6.73-15.001-15.002v-18.992h-30v18.992c0 24.814 20.188 45.002 45.002 45.002 8.272 0 15.002 6.73 15.002 15.002s-6.729 15.002-15.002 15.002c-24.814 0-45.002 20.188-45.002 45.002v10.001h-30.755c-19.851-87.208-145.923-75.24-148.214 15.001-.264 26.68 14.889 52.298 38.147 65.217-25.446 70.028-18.591 148.102 19.61 213.044l41.017 69.728h190.39l41.017-69.728c42.179-71.706 46.143-159.423 10.604-234.642zm-258.941 216.367c-7.283-12.845-13.193-26.249-17.719-40.004h259.686c-4.526 13.756-10.436 27.159-17.719 40.004zm-25.309-70.005c-6.227-34.675-4.112-70.572 6.484-104.65h261.898c10.595 34.078 12.711 69.975 6.484 104.65zm237.548-174.982 19.056 40.333h-104.17v-40.333zm-115.115 40.332h-104.17l19.057-40.333h85.114v40.333zm-104.106-100.194c19.478 0 36.097 12.479 42.282 29.862h-42.296l-24.778 52.441c-36.669-24.204-19.54-82.183 24.792-82.303zm41.069 362.852-16.473-28.003h189.019l-16.473 28.003z"/></svg>