<svg id="Layer_1" enable-background="new 0 0 511.995 511.995" height="512" viewBox="0 0 511.995 511.995" width="512" xmlns="http://www.w3.org/2000/svg"><path d="m391.924 0h-271.853l-21.319 190.395c-.456 81.922 62.263 149.798 142.245 157.373v134.228h-59.35v30h148.7v-30h-59.35v-134.229c79.982-7.574 142.701-75.451 142.245-157.373zm-26.828 30 12.223 109.165h-79.254c-4.15-11.596-12.966-20.992-24.175-25.912 3.107-4.67 8.418-7.754 14.434-7.754v-30c-22.244 0-40.956 15.431-45.992 36.151-13.204 4.253-23.743 14.497-28.401 27.515h-79.254l12.222-109.165zm-94.436 124.173c0 8.084-6.578 14.662-14.662 14.662-19.424-.737-19.419-28.589 0-29.324 8.084 0 14.662 6.577 14.662 14.662zm-14.662 164.304c-69.894 0-126.806-56.638-127.243-126.431l2.562-22.882h82.607c14.127 39.325 70.035 39.301 84.146 0h82.607l2.562 22.882c-.435 69.793-57.348 126.431-127.241 126.431z"/></svg>