<svg id="Layer_1" enable-background="new 0 0 512.283 512.283" height="512" viewBox="0 0 512.283 512.283" width="512" xmlns="http://www.w3.org/2000/svg"><path d="m310.123 310.176v-3.21l122.45-147.029v-30.429h-32.665c4.555-8.262 7.149-17.75 7.149-27.833v-40.818h-36.657c-31.89 0-57.833 25.944-57.833 57.833v10.817h-115.683l-14.944-41.057c21.739-9.129 43.692-25.932 62.623-40.553l-110.779-47.897-54.074 107.898c23.944-.974 51.475-2.202 74.039-9.188l11.209 30.798h-75.236v30.429l122.45 147.029c-1.28 22.734 13.153 43.266 33.975 49.836v125.48h-64.28v30h158.56v-30h-64.28v-125.48c19.691-6.349 33.976-24.85 33.976-46.626zm-162.221-271.388 35.548 15.37c-16.596 9.2-34.274 15.634-52.9 19.254zm194.665 79.902c0-15.347 12.486-27.833 27.833-27.833h6.657v10.817c0 15.347-12.486 27.833-27.834 27.833h-6.656zm51.321 40.818-26.355 31.645h-148.212l-11.518-31.645zm-218.01 0 11.518 31.645h-32.634l-26.355-31.645zm3.868 61.645h162.802l-62.426 74.957v14.067c0 10.463-8.513 18.976-18.976 18.976s-18.975-8.512-18.975-18.976v-14.067z"/></svg>