<svg id="Layer_1" enable-background="new 0 0 512.025 512.025" height="512" viewBox="0 0 512.025 512.025" width="512" xmlns="http://www.w3.org/2000/svg"><g><path d="m190.404 394.343h30v30.002h-30z"/><path d="m190.404 329.677h30v30.001h-30z"/><path d="m140.401 364.341h30v30.002h-30z"/><path d="m484.817 248.583-.32-1.751-43.991-99.243h-68.936l15.842-43.526c24.243 7.62 53.38 9.187 79.161 10.169l-57.248-114.232-117.282 50.708c20.414 15.841 43.675 33.327 67.178 43.094l-19.577 53.787h-120.434v-97.85c0-27.416-22.305-49.721-49.721-49.721h-36.312v30h36.312c10.874 0 19.721 8.847 19.721 19.721v97.85h-35.79l-15.888-64.244c-32.041-6.291-64.218 1.241-87.46 24.785-23.575 23.321-31.064 55.34-24.786 87.459l39.425 9.751-18.392 41.492c-27.858 134.844 81.374 267.224 219.091 265.169 136.961 2.049 246.096-129.084 219.407-263.418zm-89.609-209.795 20.619 41.144c-22.235-4.017-43.247-11.664-62.861-22.88zm51.797 197.495h-363.195l26.017-58.694h311.161zm-393.877-64.712c.027-31.872 28.515-60.361 60.386-60.385l9.002 36.403h-32.207l-13.253 29.9zm212.28 310.431c-114.507.773-205.879-102.151-191.747-215.719h383.493c14.128 113.574-77.239 216.488-191.746 215.719z"/></g></svg>