<svg id="Layer_1" enable-background="new 0 0 511.999 511.999" height="512" viewBox="0 0 511.999 511.999" width="512" xmlns="http://www.w3.org/2000/svg"><g><path d="m359.88 59.968v-59.968h-30v59.968h-99.344c-19.862-87.349-146.12-75.359-148.411 15.001 0-.001 0 14.999 0 14.999h74.96c-3.152 137.967 6.837 216.189 61.873 344.014-19.545 24.612-17.96 48.458-17.659 78.018h183.828c.307-29.569 1.871-53.434-17.659-78.018 62.205-143.407 64.084-221.439 61.873-374.014h-69.461zm39.46 30v46.587h-39.46v-46.587zm-69.46 46.587h-142.795v-46.587h142.795zm-215.183-76.587c14.173-39.709 70.615-39.684 84.773 0zm116.701 422.031c.667-11.036 4.687-21.432 11.569-30.004h100.492c6.882 8.571 10.902 18.968 11.569 30.004zm126.826-105.943-18.274 45.939h-93.473c-35.051-80.71-59.867-166.984-59.369-255.44h212.211c-.624 72.038-14.442 142.495-41.095 209.501z"/><path d="m278.213 211.666h30v30.002h-30z"/><path d="m318.215 271.67h30v30.002h-30z"/><path d="m238.21 301.672h30v30.002h-30z"/></g></svg>