<svg id="Layer_1" enable-background="new 0 0 511.55 511.55" height="512" viewBox="0 0 511.55 511.55" width="512" xmlns="http://www.w3.org/2000/svg"><g><path d="m413.982 74.522c-2.314-90.419-128.586-102.292-148.41-15.004h-127.454c-75.974 92.932-43.914 277.496 85.46 298.357v123.675h-48.333v30h126.665v-30h-48.333v-123.675c115.045-16.582 155.453-174.197 104.51-268.353h55.894v-15zm-260.339 14.996h169.87c13.758 21.183 22.487 46.745 25.354 73.963h-56.958v-26.405h-82.81v26.405h-80.81c2.868-27.218 11.597-52.781 25.354-73.963zm108.266 77.558v22.811h-22.81v-22.811zm-23.331 161.76c-58.784 0-107.072-59.843-111.062-135.355h81.583v26.405h82.81v-26.405h57.731c-3.989 75.513-52.278 135.355-111.062 135.355zm58.06-269.318c14.177-39.705 70.615-39.679 84.772.004z"/><path d="m183.576 241.887h30v30.002h-30z"/><path d="m253.58 261.888h30v30.002h-30z"/></g></svg>