<svg id="Layer_1" enable-background="new 0 0 512.032 512.032" height="512" viewBox="0 0 512.032 512.032" width="512" xmlns="http://www.w3.org/2000/svg"><path d="m347.581 152.341c6.979-46.048-21.718-79.537-46.662-100.194-12.313-11.168-23.945-21.715-31.863-35.637l-9.39-16.51s-13.885 12.959-13.885 12.959c-15.151 14.31-23.751 34.528-23.581 55.434.075 5.525-4.581 10.206-10.115 10.191-1.856 0-3.597-.479-5.173-1.423 0 0-12.206-7.309-12.206-7.309-18.01 26.295-35.639 50.354-30.255 82.488h-34.562v156.161l11.211 81.429v122.102h229.831v-122.101l11.211-81.429v-156.161zm-153.968-12.469c0-7.372.952-14.311 11.801-31.846 2.226.375 4.472.521 6.764.558 22.262.015 40.26-18.206 40.022-40.444-.052-6.386 1.253-12.663 3.734-18.417 28.124 32.714 70.969 51.6 61.234 102.618h-122.303c-.832-4.085-1.252-8.253-1.252-12.469zm158.53 42.469v41.13h-192.254v-41.13zm-181.042 299.691v-30.008c5.987 2.576 12.579 4.004 19.5 4.004h130.832c6.92 0 13.513-1.428 19.5-4.004v30.008zm150.331-56.004h-130.832c-10.752 0-19.5-8.747-19.5-19.499v-18.654l-11.211-81.429v-52.976h192.254v52.976l-11.211 81.429v18.654c0 10.752-8.748 19.499-19.5 19.499z"/></svg>