<svg id="Layer_1" enable-background="new 0 0 512.014 512.014" height="512" viewBox="0 0 512.014 512.014" width="512" xmlns="http://www.w3.org/2000/svg"><g><path d="m419.69 86.988c-2.866-106.342-152.082-118.348-172.682-15h-68.114v-27.104c-.001-24.749-20.135-44.884-44.884-44.884h-26.252v30h26.252c8.207 0 14.884 6.677 14.884 14.884v27.104h-56.57v196.51c0 61.18 45.959 111.827 105.165 119.232 4.301 50.347-31.82 93.964-83.211 94.284v30h196.421v-30c-51.41-.329-87.504-43.934-83.21-94.284 59.206-7.405 105.165-58.052 105.165-119.232v-166.51h87.036zm-117.036 15v27.004h-123.76v-27.004zm-153.761 0v27.004h-26.569v-27.004zm85.12 380.026h-43.048c8.469-7.811 15.744-16.891 21.524-26.939 5.78 10.048 13.055 19.128 21.524 26.939zm-21.524-123.352c-49.717 0-90.165-40.447-90.165-90.164v-109.506h180.33v109.506c0 49.717-40.448 90.164-90.165 90.164zm65.227-286.674c15.683-55.65 94.307-55.612 109.971 0z"/><path d="m233.004 183.996c-22.964 0-41.646 18.682-41.646 41.646 2.094 55.174 81.207 55.159 83.292-.001 0-22.963-18.682-41.645-41.646-41.645zm0 53.292c-6.422 0-11.646-5.225-11.646-11.646.586-15.428 22.709-15.424 23.292 0 0 6.421-5.224 11.646-11.646 11.646z"/><path d="m197.489 297.324h30v30.002h-30z"/><path d="m150.486 267.322h30v30.002h-30z"/></g></svg>