<svg id="Layer_1" enable-background="new 0 0 512 512" height="512" viewBox="0 0 512 512" width="512" xmlns="http://www.w3.org/2000/svg"><g><path d="m397.597 260.245-18.01-31.368c-18.019-31.383-18.508-69.382-1.745-100.995h20.278v-30h-31.513c5.233-15.038 1.944-31.684-8.166-43.596l22.683-39.286-25.98-15-22.681 39.284c-33.206-6.359-61.669 26.745-50.235 58.598h-168.349v30h20.278c16.763 31.613 16.274 69.612-1.745 100.995l-18.01 31.368c-32.225 53.615-5.441 128.307 53.513 149.223 23.643 8.927 48.285 14.137 73.095 15.632v56.9h-61.673v30h153.346v-30h-61.673v-56.901c24.803-1.497 49.438-6.706 73.076-15.63 58.954-20.918 85.736-95.612 53.511-149.224zm-52.714-132.363c-5.494 14.035-8.542 28.767-9.131 43.585h-44.964l25.163-43.585zm-27.798-31.965c-12.904-7.525-7.567-27.293 7.36-27.364 19.189.732 19.484 28.182.303 29.329h-.721c-2.451-.059-4.784-.72-6.942-1.965zm-35.774 31.965-25.163 43.585h-79.9c-.589-14.818-3.637-29.55-9.131-43.585zm95.758 209.209c-23.162 67.958-143.122 67.128-198.56 44.312-41.96-14.894-61.031-68.056-38.088-106.221-.001 0 18.009-31.368 18.009-31.368 7.684-13.384 12.891-27.703 15.633-42.348h163.874c2.742 14.645 7.949 28.964 15.633 42.348 17.901 31.413 36.901 55.025 23.499 93.277z"/><path d="m241.011 243.343h30v30.002h-30z"/><path d="m181.007 313.347h30v30.002h-30z"/><path d="m299.758 273.345h30v30.002h-30z"/></g></svg>