<svg id="Capa_1" enable-background="new 0 0 512 512" height="512" viewBox="0 0 512 512" width="512" xmlns="http://www.w3.org/2000/svg"><g><path d="m461.001 80.001h-80.323l12.121-50h58.202c8.284 0 15-6.716 15-15s-6.716-15-15-15h-70c-6.923 0-12.946 4.738-14.578 11.466l-16.614 68.534h-109.506c11.014-24.506 9.789-50.177 9.71-51.609-.421-7.634-6.517-13.729-14.151-14.151-1.908-.104-47.222-2.266-75.072 25.583-3.506 3.506-6.531 7.285-9.146 11.209-3.977-7.725-9.105-15.206-15.725-21.825-31.711-31.71-83.487-29.24-85.679-29.118-7.634.421-13.73 6.517-14.151 14.151-.12 2.188-2.592 53.967 29.12 85.679.258.258.529.51.792.766v54.316c0 42.284 31.037 77.455 71.524 83.933 2.14 9.69 6.485 18.853 12.743 26.655 9.647 12.076 23.514 20.28 38.669 23.208 21.822 4.849 37.063 23.849 37.063 46.203v102.735l-45.943 49.005c-8.981 9.58-2.189 25.259 10.943 25.259h160c13.132 0 19.924-15.679 10.943-25.259l-45.943-49.005v-102.735c0-22.355 15.241-41.354 37.063-46.203 15.155-2.928 29.022-11.132 38.669-23.208 6.258-7.801 10.604-16.964 12.743-26.655 40.487-6.478 71.524-41.649 71.524-83.933v-60c.002-8.285-6.714-15.001-14.998-15.001zm-278.998-18.962c10.41-10.41 25.797-14.43 37.172-15.96-1.424 10.59-5.01 24.636-13.881 34.923h-34.838c2.493-6.794 6.151-13.568 11.547-18.963zm-94.23 18.962c-.462-.427-.914-.858-1.351-1.294-13.632-13.632-18.209-34.15-19.71-47.993 13.852 1.501 34.365 6.08 47.994 19.709 8.302 8.302 13.246 19.17 16.191 29.579h-43.124zm8.228 30h246.535l-7.273 30h-239.262zm220.376 371.999h-90.752l26.319-28.074c2.606-2.78 4.057-6.448 4.057-10.259v-93.667h30v93.667c0 3.811 1.45 7.479 4.057 10.259zm74.624-271.999c-8.284 0-15 6.716-15 15 .074 17.292-12.479 31.669-29.444 34.511-17.112 3.802-32.577 13.427-43.546 27.101-7.807 9.731-13.117 21.242-15.53 33.388h-32.959c-2.413-12.146-7.724-23.657-15.53-33.388-10.969-13.674-26.434-23.299-43.546-27.101-16.966-2.84-29.518-17.219-29.444-34.51 0-8.284-6.716-15-15-15-25.127 0-46.356-16.943-52.904-40h345.808c-6.549 23.056-27.778 39.999-52.905 39.999zm55-70h-79.868l7.273-30h72.596v30z"/></g></svg>