<svg id="Capa_1" enable-background="new 0 0 512 512" height="512" viewBox="0 0 512 512" width="512" xmlns="http://www.w3.org/2000/svg"><g><path d="m446 30h-70c-6.923 0-12.946 4.738-14.578 11.466l-19.038 78.534h-181.555c-.013-.179-.026-.357-.041-.536 11.867-4.845 21.969-11.386 30.13-19.547 31.712-31.711 29.24-83.49 29.119-85.679-.421-7.634-6.517-13.73-14.151-14.151-2.187-.116-53.968-2.593-85.679 29.12-3.683 3.683-7.022 7.761-10.032 12.195-10.03-13.505-26.096-22.276-44.175-22.276-8.284 0-15 6.716-15 15s6.716 15 15 15c12.819 0 23.41 9.7 24.832 22.144-22.971 6.603-39.832 27.791-39.832 52.856 0 21.327 12.21 39.845 30 48.965v21.909c0 80.942 55.242 149.215 130 169.124v76.663l-45.607 45.606c-9.449 9.45-2.756 25.607 10.607 25.607h160c13.364 0 20.056-16.157 10.606-25.607l-45.606-45.606v-76.663c74.758-19.909 130-88.182 130-169.124v-60c0-8.284-6.716-15-15-15h-42.747l14.545-60h58.202c8.284 0 15-6.716 15-15s-6.716-15-15-15zm-304.579 20.421c13.621-13.62 34.117-18.201 47.959-19.706-1.527 13.873-6.123 34.438-19.675 47.99-5.155 5.155-11.702 9.4-19.535 12.69-5.833-7.851-13.704-14.102-22.826-17.958 3.431-9.37 8.141-17.08 14.077-23.016zm-60.421 73.705c0-13.785 11.215-25 25-25s25 11.215 25 25-11.215 25-25 25-25-11.215-25-25zm30 54.763c18.854-1.708 34.99-12.964 43.517-28.888h180.594l-7.273 30h-216.838zm101.214 303.111 24.393-24.394c2.813-2.812 4.393-6.628 4.393-10.606v-77.65c4.946.422 9.947.65 15 .65s10.054-.228 15-.65v77.65c0 3.978 1.58 7.794 4.393 10.607l24.394 24.393zm43.786-142c-74.889 0-136.698-57.068-144.228-130h288.455c-7.529 72.932-69.338 130-144.227 130zm145-190v30h-42.292l7.273-30z"/></g></svg>