<svg id="Capa_1" enable-background="new 0 0 512 512" height="512" viewBox="0 0 512 512" width="512" xmlns="http://www.w3.org/2000/svg"><g><path d="m295.607 310.393c-5.858-5.858-15.355-5.858-21.213 0l-45 45c-5.858 5.858-5.858 15.355 0 21.213l45 45c5.858 5.858 15.355 5.858 21.213 0l45-45c5.858-5.858 5.858-15.355 0-21.213zm-10.607 79.394-23.787-23.787 23.787-23.787 23.787 23.787z"/><path d="m437 61h-87v-5c0-8.284-6.716-15-15-15h-72.827c-21.704-25.175-53.744-40-87.173-40h-120c-5.371 0-10.332 2.872-13.007 7.529-2.676 4.657-2.656 10.389.05 15.029l58.492 100.272c6.608 11.328 10.78 23.671 12.399 36.686 3.468 27.872-4.694 55.042-22.394 74.545-26.106 28.768-42.747 63.914-48.399 102.04-25.396 17.07-42.141 46.065-42.141 78.899 0 52.383 42.617 95 95 95 8.48 0 16.701-1.123 24.53-3.217 7.582 2.125 15.406 3.217 23.33 3.217h184.278c28.363 0 54.456-13.618 69.799-36.427 21.63-32.156 33.063-69.699 33.063-108.573 0-5.026-.203-10.028-.584-15h7.584c41.355 0 75-33.645 75-75v-140c0-41.355-33.645-75-75-75zm-58.086 173.461c-18.644-20.377-28.912-48.197-28.913-78.334v-5.127h71.999v110h-22.695c-5.985-9.344-12.788-18.229-20.391-26.539zm-297.799-203.461h93.885c26.612 0 52.032 12.71 68 34 2.833 3.777 7.278 6 12 6h65l.001 80h-22.575c-31.365 0-60.854 12.214-83.032 34.393-16.514 16.513-38.468 25.607-61.821 25.607h-14.619c5.357-17.071 7.071-35.538 4.751-54.188-2.123-17.063-7.593-33.246-16.256-48.099zm28.885 448.234v-42.588l40.497 13.158c-8.914 14.58-23.414 25.377-40.497 29.43zm49.768-57.962-40.497-13.158 25.011-34.425c9.784 11.38 15.718 26.161 15.718 42.311 0 1.777-.092 3.531-.232 5.272zm-64.768-30.793-25.035-34.459c7.709-3.229 16.166-5.02 25.035-5.02s17.326 1.791 25.036 5.021zm-49.282-16.79 25.011 34.425-40.497 13.158c-.14-1.741-.232-3.495-.232-5.272 0-16.15 5.934-30.931 15.718-42.311zm-6.215 76.115 40.497-13.159v42.588c-17.083-4.052-31.583-14.849-40.497-29.429zm332.542 8.025c-9.76 14.509-26.547 23.171-44.906 23.171h-162.925c15.98-17.006 25.786-39.878 25.786-65 0-52.383-42.617-95-95-95-6.624 0-13.092.684-19.337 1.98 6.727-25.078 19.313-48.165 37.094-67.759 4.05-4.462 7.716-9.223 11.005-14.222h28.812c31.365 0 60.854-12.214 83.033-34.394 16.512-16.511 38.467-25.605 61.819-25.605h24.527c4.453 28.033 16.434 53.608 34.829 73.712 27.869 30.461 43.218 69.984 43.218 111.288 0 32.887-9.667 64.641-27.955 91.829zm109.955-181.829c0 24.813-20.187 45-45 45h-12.241c-2.429-10.263-5.686-20.293-9.734-30h21.975c8.284 0 15-6.716 15-15v-140c0-8.284-6.716-15-15-15h-87v-30h87c24.813 0 45 20.187 45 45z"/></g></svg>