<svg id="Capa_1" enable-background="new 0 0 512 512" height="512" viewBox="0 0 512 512" width="512" xmlns="http://www.w3.org/2000/svg"><g><path d="m456.001 30h-70c-6.923 0-12.947 4.738-14.578 11.466l-21.462 88.534h-105.887v-115c0-8.278-6.707-14.992-14.985-15-.072 0-.139 0-.211 0-37.733 0-74.835 9.906-107.304 28.651-32.53 18.781-59.7 46.024-78.57 78.785-4.132 7.174-1.671 16.339 5.498 20.478l132.5 76.499v144.019c0 38.365 14.156 74.553 40 102.599v45.969c0 8.284 6.716 15 15 15h160c8.284 0 15-6.716 15-15v-45.97c25.844-28.046 40-64.233 40-102.599v-203.431c0-8.284-6.716-15-15-15h-55.172l16.97-70h58.202c8.284 0 15-6.716 15-15s-6.717-15-15.001-15zm-113.313 130-9.697 40h-121.99v-40zm-239.635-35.231-26.05-15.04c15.545-22.561 35.912-41.438 59.571-55.097 23.658-13.658 50.189-21.858 77.5-24.041v30.081c-22.012 2.114-43.37 8.897-62.5 19.941-19.131 11.045-35.685 26.149-48.521 44.156zm77.948 20.231v24.772l-51.811-29.913c10.094-13.494 22.808-24.85 37.383-33.266 14.575-8.415 30.767-13.747 47.5-15.742v39.149h-18.072c-8.284 0-15 6.716-15 15zm240 203.432c0 32.473-12.646 63.001-35.606 85.962-2.813 2.812-4.394 6.628-4.394 10.606v37h-130v-37c0-3.979-1.581-7.794-4.394-10.606-22.961-22.961-35.606-53.489-35.606-85.962v-118.432h210zm0-188.432v40h-57.141l9.697-40z"/></g></svg>