<svg id="Capa_1" enable-background="new 0 0 512 512" height="512" viewBox="0 0 512 512" width="512" xmlns="http://www.w3.org/2000/svg"><g><path d="m241 350.704v80.083l-55.606 55.606c-9.45 9.45-2.757 25.607 10.606 25.607h120c13.364 0 20.056-16.157 10.606-25.607l-55.606-55.606v-80.083l156.211-175.734c8.599-9.673 1.732-24.966-11.211-24.966h-60.625l17.406-30.148c2.667.494 5.411.766 8.219.766 24.813 0 45-20.187 45-45 0-11.143-4.08-21.345-10.812-29.212l13.803-23.906c4.143-7.174 1.685-16.349-5.49-20.49-7.174-4.144-16.349-1.685-20.49 5.49l-13.79 23.885c-2.667-.495-5.412-.766-8.22-.766-24.813 0-45 20.187-45 45 0 11.143 4.08 21.345 10.813 29.213l-26.079 45.169h-224.735c-12.943 0-19.81 15.292-11.211 24.966zm125-275.082c0-8.271 6.729-15 15-15s15 6.729 15 15-6.729 15-15 15-15-6.729-15-15zm-62.586 104.383-17.317 29.995h-130.03l-26.663-29.995zm52.52 29.995h-35.196l17.318-29.995h44.542zm-99.934 248.213 23.787 23.787h-47.574zm-73.267-218.213h146.533l-73.266 82.423z"/></g></svg>