<svg id="Capa_1" enable-background="new 0 0 512 512" height="512" viewBox="0 0 512 512" width="512" xmlns="http://www.w3.org/2000/svg"><g><path d="m446 80h-105.854l16.667-50h59.188c8.284 0 15-6.716 15-15s-6.716-15-15-15h-70c-6.456 0-12.188 4.132-14.23 10.257l-23.248 69.743h-242.523c-14.415 0-20.532 18.35-9 27l1.882 1.411c74.55 55.912 137.45 128.617 182.119 210.425v111.265l-64.762 55.51c-10.574 9.063-4.165 26.389 9.761 26.389h140c13.926 0 20.335-17.326 9.762-26.389l-64.762-55.51v-111.265c44.668-81.806 107.568-154.511 182.117-210.424l1.882-1.411c11.534-8.649 5.417-27.001-8.999-27.001zm-337.053 30h189.576l-13.334 40h-133.031c-13.831-13.934-28.241-27.302-43.211-40zm176.504 372h-58.902l29.451-25.244zm41.352-296.31c-26.44 30.723-50.184 63.858-70.803 98.787-20.619-34.929-44.363-68.064-70.803-98.787-1.646-1.913-3.328-3.796-4.996-5.69h151.597c-1.667 1.895-3.349 3.778-4.995 5.69zm33.039-35.69h-43.029l13.334-40h72.906c-14.971 12.698-29.381 26.066-43.211 40z"/></g></svg>