<svg id="Capa_1" enable-background="new 0 0 512 512" height="512" viewBox="0 0 512 512" width="512" xmlns="http://www.w3.org/2000/svg"><g><path d="m477 182h-442c-19.299 0-35 15.701-35 35v20c0 14.323 8.651 26.657 21 32.069v227.931c0 8.284 6.716 15 15 15h440c8.284 0 15-6.716 15-15v-227.931c12.348-5.412 21-17.746 21-32.069v-20c0-19.299-15.701-35-35-35zm-363.293 300 5-30h84.586l5 30zm10-60 5-30h64.586l5 30zm87.293-65c0 2.757-2.243 5-5 5h-90c-2.757 0-5-2.243-5-5v-20c0-2.757 2.243-5 5-5h90c2.757 0 5 2.243 5 5zm92.707 125 5-30h84.586l5 30zm10-60 5-30h64.586l5 30zm87.293-65c0 2.757-2.243 5-5 5h-90c-2.757 0-5-2.243-5-5v-20c0-2.757 2.243-5 5-5h90c2.757 0 5 2.243 5 5zm60 125h-32.293l-15.734-94.405c10.741-5.983 18.027-17.452 18.027-30.595v-20c0-19.299-15.701-35-35-35h-90c-19.299 0-35 15.701-35 35v20c0 13.143 7.286 24.612 18.027 30.595l-15.734 94.405h-34.586l-15.734-94.405c10.741-5.983 18.027-17.452 18.027-30.595v-20c0-19.299-15.701-35-35-35h-90c-19.299 0-35 15.701-35 35v20c0 13.143 7.286 24.612 18.027 30.595l-15.734 94.405h-32.293v-210h410zm21-245c0 2.757-2.243 5-5 5h-442c-2.757 0-5-2.243-5-5v-20c0-2.757 2.243-5 5-5h442c2.757 0 5 2.243 5 5z"/><path d="m46 150h60c8.284 0 15-6.716 15-15v-30c0-19.555-12.541-36.228-30-42.42v-32.58h5c8.284 0 15-6.716 15-15s-6.716-15-15-15h-40c-8.284 0-15 6.716-15 15s6.716 15 15 15h5v32.58c-17.459 6.192-30 22.865-30 42.42v30c0 8.284 6.716 15 15 15zm15-45c0-8.271 6.729-15 15-15s15 6.729 15 15v15h-30z"/><path d="m286 150h60c8.284 0 15-6.716 15-15v-30c0-19.555-12.541-36.228-30-42.42v-32.58h5c8.284 0 15-6.716 15-15s-6.716-15-15-15h-40c-8.284 0-15 6.716-15 15s6.716 15 15 15h5v32.58c-17.459 6.192-30 22.865-30 42.42v30c0 8.284 6.716 15 15 15zm15-45c0-8.271 6.729-15 15-15s15 6.729 15 15v15h-30z"/><path d="m406 150h60c8.284 0 15-6.716 15-15v-30c0-19.555-12.541-36.228-30-42.42v-32.58h5c8.284 0 15-6.716 15-15s-6.716-15-15-15h-40c-8.284 0-15 6.716-15 15s6.716 15 15 15h5v32.58c-17.459 6.192-30 22.865-30 42.42v30c0 8.284 6.716 15 15 15zm15-45c0-8.271 6.729-15 15-15s15 6.729 15 15v15h-30z"/><path d="m166 150h60c8.284 0 15-6.716 15-15v-30c0-19.555-12.541-36.228-30-42.42v-32.58h5c8.284 0 15-6.716 15-15s-6.716-15-15-15h-40c-8.284 0-15 6.716-15 15s6.716 15 15 15h5v32.58c-17.459 6.192-30 22.865-30 42.42v30c0 8.284 6.716 15 15 15zm15-45c0-8.271 6.729-15 15-15s15 6.729 15 15v15h-30z"/></g></svg>