<svg id="Capa_1" enable-background="new 0 0 512 512" height="512" viewBox="0 0 512 512" width="512" xmlns="http://www.w3.org/2000/svg"><g><path d="m488.989 107.437c-18.872-32.761-46.041-60.005-78.571-78.786-32.471-18.747-69.566-28.651-107.301-28.651-.069 0-.145 0-.214 0-8.279.008-14.985 6.721-14.985 15v107h-199.7c-7.062 0-13.168 4.926-14.661 11.829l-48.886 226.04c-9.683 44.771.034 91.825 26.658 129.099 10.302 14.422 27.033 23.032 44.756 23.032h219.81c17.723 0 34.454-8.61 44.757-23.033 26.623-37.272 36.34-84.326 26.658-129.096l-33.917-156.845 130.098-75.111c7.169-4.14 9.63-13.305 5.498-20.478zm-177.324 44.563 17.3 80h-56.919c-20.616 0-40.581-6.045-57.735-17.481-22.098-14.732-47.818-22.519-74.376-22.519h-48.265l8.651-40zm4.23 330h-219.81c-8.056 0-15.661-3.914-20.344-10.469-4.432-6.204-8.279-12.745-11.545-19.531h283.587c-3.266 6.785-7.113 13.326-11.545 19.531-4.682 6.555-12.288 10.469-20.343 10.469zm42.141-60h-304.092c-3.884-18.218-3.962-37.243.049-55.789l31.189-144.211h54.753c20.616 0 40.581 6.045 57.735 17.481 22.098 14.732 47.817 22.519 74.376 22.519h63.406l22.535 104.212c4.011 18.546 3.933 37.57.049 55.788zm-19.607-288.17c-1.493-6.903-7.599-11.83-14.661-11.83h-5.85v-31.148c16.733 1.995 32.926 7.327 47.5 15.741s27.289 19.771 37.383 33.265l-56.068 32.371zm90.51-9.062c-12.837-18.007-29.392-33.111-48.521-44.155-19.13-11.045-40.487-17.828-62.5-19.942v-30.081c27.311 2.183 53.842 10.382 77.5 24.042s44.024 32.536 59.57 55.097z"/><path d="m176.597 271.393c-5.858-5.858-15.355-5.858-21.213 0l-45 45c-5.858 5.858-5.858 15.355 0 21.213l45 45c5.858 5.858 15.355 5.858 21.213 0l45-45c5.858-5.858 5.858-15.355 0-21.213zm-10.607 79.394-23.787-23.787 23.787-23.787 23.788 23.787z"/></g></svg>