<svg id="Capa_1" enable-background="new 0 0 512 512" height="512" viewBox="0 0 512 512" width="512" xmlns="http://www.w3.org/2000/svg"><g><path d="m503.003 260.434c-15.724-20.597-45.781-23.144-64.746-5.487l-70.865 65.978c-1.526-16.918-12.461-31.156-27.512-37.453l129.052-169.382c7.522-9.873.481-24.09-11.932-24.09h-37.577c1.666-4.696 2.582-9.745 2.582-15.005 0-11.143-4.08-21.344-10.812-29.212l13.44-23.28c4.143-7.175 1.684-16.349-5.49-20.49-7.175-4.145-16.349-1.684-20.49 5.49l-13.427 23.258c-2.667-.495-5.412-.766-8.22-.766-24.813 0-45 20.187-45 45 0 5.26.916 10.309 2.582 15.005h-197.588c-12.413 0-19.454 14.217-11.931 24.091l126.406 165.909h-24.904c-33.694-18.52-74.363-18.52-108.058 0h-26.513v-15c0-8.284-6.716-15-15-15h-62c-8.284 0-15 6.716-15 15v180c0 8.284 6.716 15 15 15h62c8.284 0 15-6.716 15-15v-15h27.105c27.408 13.094 57.82 20 88.19 20h54.315l-35.389 36.569c-9.211 9.518-2.466 25.431 10.779 25.431h120c13.245 0 19.99-15.913 10.779-25.431l-35.389-36.569h3.302c34.265 0 66.485-15.105 88.4-41.444l77.764-93.457c13.083-15.725 13.56-38.406 1.147-54.665zm-441.003 169.566h-32v-150h32zm315.005-370.005c8.271 0 15 6.729 15 15s-6.729 15-15 15-15-6.729-15-15 6.728-15 15-15zm-209.719 60.005h259.428l-22.857 30h-213.714zm45.714 60h168l-76.191 100h-15.618zm59.39 302 24.61-25.431 24.61 25.431zm206.404-186.089-77.763 93.457c-16.198 19.467-40.013 30.632-65.34 30.632h-128.395c-26.939 0-53.916-6.368-78.014-18.417-2.082-1.041-4.378-1.583-6.707-1.583h-30.575v-90h30.511l.102-.001c2.681-.018 5.308-.754 7.608-2.133l.045-.027c26.041-15.603 58.558-15.594 84.591.022 2.332 1.399 5 2.138 7.719 2.138h99.999c8.522 0 15.406 7.142 14.981 15.754-.397 8.058-7.349 14.246-15.417 14.246h-89.205c-8.077 0-15.027 6.207-15.407 14.275-.406 8.614 6.458 15.725 14.983 15.725h100.622c16.491 0 32.221-6.188 44.292-17.427l81.274-75.669c5.993-5.58 15.49-4.775 20.459 1.734 3.922 5.139 3.772 12.305-.363 17.274z"/></g></svg>