<svg id="Capa_1" enable-background="new 0 0 512 512" height="512" viewBox="0 0 512 512" width="512" xmlns="http://www.w3.org/2000/svg"><g><path d="m436 0h-70c-7.417 0-13.72 5.42-14.831 12.753l-10.189 67.247h-91.169c-7.213-45.281-46.531-80-93.811-80-52.383 0-95 42.617-95 95 0 47.28 34.719 86.598 80 93.812v268.188c0 30.327 24.673 55 55 55h180c30.327 0 55-24.673 55-55v-362c0-8.284-6.716-15-15-15h-44.677l7.576-50h57.101c8.284 0 15-6.716 15-15 0-8.284-6.716-15-15-15zm-99.565 110-10.836 71.517c-13.733 5.394-26.758 12.603-38.599 21.483-23.215 17.411-51.981 27-81 27h-35v-120zm-131.153-57.311c6.656 7.742 11.519 17.058 13.952 27.311h-33.794zm-114.282 42.311c0-16.15 5.934-30.931 15.718-42.311l25.011 34.425-40.497 13.158c-.14-1.741-.232-3.495-.232-5.272zm50 63.234c-17.083-4.052-31.583-14.85-40.497-29.43l40.497-13.159zm15-88.754-25.036-34.459c7.71-3.23 16.167-5.021 25.036-5.021s17.326 1.791 25.036 5.021zm245 387.52c0 13.785-11.215 25-25 25h-180c-13.785 0-25-11.215-25-25v-11.035c7.507 3.849 16 6.035 25 6.035h180c9 0 17.493-2.187 25-6.035zm0-60c0 13.785-11.215 25-25 25h-180c-13.785 0-25-11.215-25-25v-137h35c35.467 0 70.626-11.72 99-33 4.837-3.628 9.926-6.894 15.197-9.827l-19.027 125.58c-1.241 8.191 4.393 15.837 12.583 17.078 8.191 1.241 15.837-4.393 17.078-12.583l21.661-142.96c10.923-2.811 22.194-4.288 33.508-4.288h15zm0-287v60h-15c-9.634 0-19.243.872-28.701 2.558l9.478-62.558z"/></g></svg>