<svg id="Capa_1" enable-background="new 0 0 512 512" height="512" viewBox="0 0 512 512" width="512" xmlns="http://www.w3.org/2000/svg"><g><circle cx="311" cy="165" r="15"/><circle cx="261" cy="210" r="15"/><circle cx="201" cy="180" r="15"/><circle cx="286" cy="405" r="15"/><circle cx="226" cy="435" r="15"/><circle cx="221" cy="280" r="15"/><circle cx="301" cy="270" r="15"/><circle cx="251" cy="350" r="15"/><path d="m351 363.054c0-22.177 6.031-43.95 17.441-62.967 27.842-46.404 42.559-99.536 42.559-153.652 0-35.935-6.397-71.215-19.015-104.861l-11.94-31.84c-2.195-5.855-7.792-9.734-14.045-9.734h-220c-6.253 0-11.85 3.879-14.045 9.733l-11.94 31.84c-12.618 33.647-19.015 68.927-19.015 104.862 0 54.116 14.717 107.248 42.559 153.652 11.41 19.017 17.441 40.79 17.441 62.967 0 19.583-3.14 38.932-9.333 57.51-7.078 21.235-10.667 43.352-10.667 65.735v10.701c0 8.284 6.716 15 15 15h200c8.284 0 15-6.716 15-15v-10.701c0-22.383-3.589-44.5-10.667-65.735-6.193-18.579-9.333-37.927-9.333-57.51zm-202.895-310.948 8.29-22.106h199.21l8.29 22.106c3.439 9.17 6.356 18.478 8.763 27.894h-233.316c2.407-9.416 5.324-18.723 8.763-27.894zm183.767 377.944c5.604 16.811 8.652 34.266 9.077 51.95h-169.897c.425-17.685 3.473-35.14 9.077-51.95 7.213-21.643 10.871-44.183 10.871-66.996 0-27.613-7.509-54.724-21.716-78.402-25.046-41.743-38.284-89.538-38.284-138.217 0-12.245.83-24.406 2.473-36.435h245.054c1.643 12.029 2.473 24.189 2.473 36.435 0 48.68-13.238 96.475-38.284 138.217-14.207 23.678-21.716 50.788-21.716 78.402 0 22.813 3.658 45.353 10.872 66.996z"/></g></svg>