<svg id="Capa_1" enable-background="new 0 0 512 512" height="512" viewBox="0 0 512 512" width="512" xmlns="http://www.w3.org/2000/svg"><g><path d="m255.393 345.607c5.858 5.858 15.355 5.858 21.213 0l45-45c5.858-5.858 5.858-15.355 0-21.213l-45-45c-5.858-5.858-15.355-5.858-21.213 0l-45 45c-5.858 5.858-5.858 15.355 0 21.213zm10.607-79.394 23.787 23.787-23.787 23.787-23.787-23.787z"/><path d="m446 0h-70c-6.938 0-12.971 4.758-14.587 11.505l-16.891 70.495h-104.71c-7.214-45.281-46.532-80-93.812-80-52.383 0-95 42.617-95 95 0 49.708 38.377 90.614 87.057 94.662l20.902 278.704c1.753 23.346 21.464 41.634 44.875 41.634h164.332c23.411 0 43.122-18.288 44.874-41.635l27.918-372.243c.652-8.702-6.232-16.122-14.958-16.122h-50.629l12.459-52h58.17c8.284 0 15-6.716 15-15s-6.716-15-15-15zm-250.721 54.693c6.651 7.74 11.508 17.056 13.939 27.307h-33.778zm-114.279 42.307c0-16.15 5.934-30.931 15.718-42.311l25.011 34.425-40.497 13.158c-.14-1.741-.232-3.495-.232-5.272zm9.503 33.804 41.967-13.636 3.302 44.021c-19.146-3.04-35.535-14.464-45.269-30.385zm55.497-59.324-25.036-34.459c7.71-3.23 16.167-5.021 25.036-5.021 8.87 0 17.328 1.788 25.037 5.019zm16.167 40.52h175.167l-14.376 60h-156.291zm58.833 370h-17.166c-7.804 0-14.374-6.096-14.958-13.878l-4.209-56.122h11.333c13.785 0 25 11.215 25 25zm100 0h-70v-35c0-19.299 15.701-35 35-35s35 15.701 35 35zm62.124-13.879c-.584 7.783-7.154 13.879-14.958 13.879h-17.166v-45c0-13.785 11.215-25 25-25h11.333zm6.459-86.121h-13.583c-17.244 0-32.652 7.983-42.743 20.44-11.86-12.571-28.652-20.44-47.257-20.44s-35.397 7.869-47.257 20.44c-10.091-12.457-25.499-20.44-42.743-20.44h-13.583l-13.5-180h234.166zm20.25-270-4.5 60h-51.527l14.376-60z"/></g></svg>