<svg id="Capa_1" enable-background="new 0 0 512 512" height="512" viewBox="0 0 512 512" width="512" xmlns="http://www.w3.org/2000/svg"><g><path d="m411.015 0h-70c-6.923 0-12.947 4.738-14.578 11.466l-19.038 78.534h-60.362l29.436-16.995c7.174-4.142 9.632-13.316 5.49-20.49-28.948-50.14-93.293-67.381-143.433-38.432-24.289 14.023-41.663 36.666-48.922 63.756-7.259 27.091-3.534 55.387 10.49 79.676 4.142 7.174 13.316 9.632 20.49 5.49l55.427-32.001v72.192c0 36.408 10.117 72.021 29.258 102.991 17.49 28.299 41.832 51.57 70.742 67.8v56.113l-64.762 55.51c-10.573 9.063-4.164 26.389 9.762 26.389h140c13.926 0 20.335-17.326 9.762-26.389l-64.762-55.51v-56.113c28.91-16.23 53.252-39.501 70.742-67.8 19.141-30.97 29.258-66.583 29.258-102.991v-98.196c0-8.284-6.716-15-15-15h-52.747l14.545-60h58.202c8.284 0 15-6.716 15-15s-6.716-15-15-15zm-291.145 128.779c-4.654-13.842-5.15-28.748-1.284-43.176.393-1.466.841-2.907 1.315-4.335l41.129 23.746zm15.006-73.505c5.291-5.961 11.55-11.109 18.654-15.211 7.105-4.102 14.691-6.965 22.5-8.566v47.537zm75.566-22.704c14.428 3.866 27.089 11.748 36.749 22.7l-41.161 23.765v-47.502c1.474.303 2.946.645 4.412 1.037zm-4.427 87.43h94.112l-9.697 40h-84.415zm114.451 362h-58.902l29.451-25.244zm-29.452-133.959c-28.866-16.082-51.62-39.849-66.3-68.041h132.6c-14.679 28.192-37.434 51.959-66.3 68.041zm85.001-144.844c0 16.143-2.311 31.861-6.662 46.803h-156.677c-4.351-14.942-6.662-30.661-6.662-46.803v-13.197h170v13.197zm0-83.197v40h-54.716l9.697-40z"/></g></svg>