<svg width="0" height="0" class="hidden">
  <symbol xmlns="http://www.w3.org/2000/svg" xmlns:xlink="http://www.w3.org/1999/xlink" version="1.1" viewBox="0 0 12 12" id="menu">
    <g id="surface1">
      <path d="M 1.5 9 L 1.5 8 L 10.5 8 L 10.5 9 Z M 1.5 6.5 L 1.5 5.5 L 10.5 5.5 L 10.5 6.5 Z M 1.5 4 L 1.5 3 L 10.5 3 L 10.5 4 Z M 1.5 4 "></path>
    </g>
  </symbol>
  <symbol xmlns="http://www.w3.org/2000/svg" xmlns:xlink="http://www.w3.org/1999/xlink" version="1.1" viewBox="0 0 12 12" id="clear_all">
    <g id="surface1">
      <path d="M 1.5 8.5 L 1.5 7.5 L 8.5 7.5 L 8.5 8.5 Z M 2.5 6.5 L 2.5 5.5 L 9.5 5.5 L 9.5 6.5 Z M 3.5 4.5 L 3.5 3.5 L 10.5 3.5 L 10.5 4.5 Z M 3.5 4.5 "></path>
    </g>
  </symbol>
  <symbol xmlns="http://www.w3.org/2000/svg" xmlns:xlink="http://www.w3.org/1999/xlink" version="1.1" viewBox="0 0 12 12" id="arrow_forward">
    <g id="surface1">
      <path d="M 8.085938 6.5 L 2 6.5 L 2 5.5 L 8.085938 5.5 L 5.289062 2.699219 L 6 2 L 10 6 L 6 10 L 5.289062 9.300781 Z M 8.085938 6.5 "></path>
    </g>
  </symbol>
  <symbol xmlns="http://www.w3.org/2000/svg" xmlns:xlink="http://www.w3.org/1999/xlink" version="1.1" viewBox="0 0 12 12" id="close">
    <g id="surface1">
      <path d="M 3.199219 9.5 L 2.5 8.800781 L 5.300781 6 L 2.5 3.199219 L 3.199219 2.5 L 6 5.300781 L 8.800781 2.5 L 9.5 3.199219 L 6.699219 6 L 9.5 8.800781 L 8.800781 9.5 L 6 6.699219 Z M 3.199219 9.5 "></path>
    </g>
  </symbol>
  <symbol xmlns="http://www.w3.org/2000/svg" xmlns:xlink="http://www.w3.org/1999/xlink" version="1.1" viewBox="0 0 12 12" id="arrow_back">
    <g id="surface1">
      <path d="M 3.914062 6.5 L 6.710938 9.300781 L 6 10 L 2 6 L 6 2 L 6.710938 2.699219 L 3.914062 5.5 L 10 5.5 L 10 6.5 Z M 3.914062 6.5 "></path>
    </g>
  </symbol>
  <symbol xmlns="http://www.w3.org/2000/svg" xmlns:xlink="http://www.w3.org/1999/xlink" version="1.1" viewBox="0 0 12 12" id="chevron_right">
    <g id="surface1">
      <path d="M 6.300781 6 L 4 3.699219 L 4.699219 3 L 7.699219 6 L 4.699219 9 L 4 8.300781 Z M 6.300781 6 "></path>
    </g>
  </symbol>
  <symbol xmlns="http://www.w3.org/2000/svg" xmlns:xlink="http://www.w3.org/1999/xlink" version="1.1" viewBox="0 0 12 12" id="chevron_left">
    <g id="surface1">
      <path d="M 7 9 L 4 6 L 7 3 L 7.699219 3.699219 L 5.398438 6 L 7.699219 8.300781 Z M 7 9 "></path>
    </g>
  </symbol>
  <symbol xmlns="http://www.w3.org/2000/svg" xmlns:xlink="http://www.w3.org/1999/xlink" version="1.1" viewBox="0 0 12 12" id="local_bar">
    <g id="surface1">
      <path d="M 3 10.5 L 3 9.5 L 5.5 9.5 L 5.5 7 L 1.5 2.5 L 1.5 1.5 L 10.5 1.5 L 10.5 2.5 L 6.5 7 L 6.5 9.5 L 9 9.5 L 9 10.5 Z M 3.726562 3.5 L 8.273438 3.5 L 9.175781 2.5 L 2.824219 2.5 Z M 6 6.050781 L 7.386719 4.5 L 4.613281 4.5 Z M 6 6.050781 Z M 6 6.050781 "></path>
    </g>
  </symbol>
  <symbol xmlns="http://www.w3.org/2000/svg" xmlns:xlink="http://www.w3.org/1999/xlink" version="1.1" viewBox="0 0 12 12" id="filter_list">
    <g id="surface1">
      <path d="M 5 9 L 5 8 L 7 8 L 7 9 Z M 3 6.5 L 3 5.5 L 9 5.5 L 9 6.5 Z M 1.5 4 L 1.5 3 L 10.5 3 L 10.5 4 Z M 1.5 4 "></path>
    </g>
  </symbol>
  <symbol xmlns="http://www.w3.org/2000/svg" xmlns:xlink="http://www.w3.org/1999/xlink" version="1.1" viewBox="0 0 12 12" id="menu_book">
    <g id="surface1">
      <path d="M 7 4.949219 L 7 4.101562 C 7.273438 3.984375 7.554688 3.894531 7.84375 3.835938 C 8.132812 3.777344 8.433594 3.75 8.75 3.75 C 8.964844 3.75 9.179688 3.765625 9.386719 3.800781 C 9.597656 3.832031 9.800781 3.875 10 3.925781 L 10 4.726562 C 9.800781 4.648438 9.597656 4.59375 9.394531 4.554688 C 9.191406 4.519531 8.976562 4.5 8.75 4.5 C 8.433594 4.5 8.128906 4.539062 7.835938 4.617188 C 7.546875 4.699219 7.265625 4.808594 7 4.949219 Z M 7 7.699219 L 7 6.851562 C 7.273438 6.734375 7.554688 6.644531 7.84375 6.585938 C 8.132812 6.527344 8.433594 6.5 8.75 6.5 C 8.964844 6.5 9.179688 6.515625 9.386719 6.550781 C 9.597656 6.582031 9.800781 6.625 10 6.675781 L 10 7.476562 C 9.800781 7.398438 9.597656 7.34375 9.394531 7.304688 C 9.191406 7.269531 8.976562 7.25 8.75 7.25 C 8.433594 7.25 8.128906 7.289062 7.835938 7.363281 C 7.546875 7.4375 7.265625 7.550781 7 7.699219 Z M 7 6.324219 L 7 5.476562 C 7.273438 5.359375 7.554688 5.269531 7.84375 5.210938 C 8.132812 5.152344 8.433594 5.125 8.75 5.125 C 8.964844 5.125 9.179688 5.140625 9.386719 5.175781 C 9.597656 5.207031 9.800781 5.25 10 5.300781 L 10 6.101562 C 9.800781 6.023438 9.597656 5.96875 9.394531 5.929688 C 9.191406 5.894531 8.976562 5.875 8.75 5.875 C 8.433594 5.875 8.128906 5.914062 7.835938 5.992188 C 7.546875 6.074219 7.265625 6.183594 7 6.324219 Z M 3.25 8 C 3.640625 8 4.023438 8.042969 4.394531 8.132812 C 4.765625 8.21875 5.132812 8.351562 5.5 8.523438 L 5.5 3.601562 C 5.160156 3.398438 4.796875 3.25 4.414062 3.148438 C 4.027344 3.050781 3.640625 3 3.25 3 C 2.949219 3 2.652344 3.027344 2.355469 3.085938 C 2.058594 3.144531 1.773438 3.234375 1.5 3.351562 L 1.5 8.300781 C 1.792969 8.199219 2.082031 8.125 2.367188 8.074219 C 2.65625 8.023438 2.949219 8 3.25 8 Z M 6.5 8.523438 C 6.867188 8.351562 7.234375 8.21875 7.605469 8.132812 C 7.976562 8.042969 8.359375 8 8.75 8 C 9.050781 8 9.34375 8.023438 9.632812 8.074219 C 9.917969 8.125 10.207031 8.199219 10.5 8.300781 L 10.5 3.351562 C 10.226562 3.234375 9.941406 3.144531 9.644531 3.085938 C 9.347656 3.027344 9.050781 3 8.75 3 C 8.359375 3 7.972656 3.050781 7.585938 3.148438 C 7.203125 3.25 6.839844 3.398438 6.5 3.601562 Z M 6 10 C 5.601562 9.683594 5.167969 9.4375 4.699219 9.261719 C 4.234375 9.085938 3.75 9 3.25 9 C 2.898438 9 2.554688 9.046875 2.21875 9.136719 C 1.882812 9.230469 1.558594 9.359375 1.25 9.523438 C 1.074219 9.617188 0.90625 9.613281 0.742188 9.511719 C 0.582031 9.414062 0.5 9.265625 0.5 9.074219 L 0.5 3.050781 C 0.5 2.957031 0.523438 2.871094 0.570312 2.789062 C 0.613281 2.703125 0.683594 2.640625 0.773438 2.601562 C 1.160156 2.398438 1.558594 2.25 1.976562 2.148438 C 2.390625 2.050781 2.816406 2 3.25 2 C 3.734375 2 4.207031 2.0625 4.667969 2.1875 C 5.132812 2.3125 5.574219 2.5 6 2.75 C 6.425781 2.5 6.867188 2.3125 7.332031 2.1875 C 7.792969 2.0625 8.265625 2 8.75 2 C 9.183594 2 9.609375 2.050781 10.023438 2.148438 C 10.441406 2.25 10.839844 2.398438 11.226562 2.601562 C 11.316406 2.640625 11.386719 2.703125 11.429688 2.789062 C 11.476562 2.871094 11.5 2.957031 11.5 3.050781 L 11.5 9.074219 C 11.5 9.265625 11.417969 9.414062 11.257812 9.511719 C 11.09375 9.613281 10.925781 9.617188 10.75 9.523438 C 10.441406 9.359375 10.117188 9.230469 9.78125 9.136719 C 9.445312 9.046875 9.101562 9 8.75 9 C 8.25 9 7.765625 9.085938 7.300781 9.261719 C 6.832031 9.4375 6.398438 9.683594 6 10 Z M 3.5 5.824219 Z M 3.5 5.824219 "></path>
    </g>
  </symbol>
  <symbol xmlns="http://www.w3.org/2000/svg" xmlns:xlink="http://www.w3.org/1999/xlink" version="1.1" viewBox="0 0 12 12" id="search">
    <g id="surface1">
      <path d="M 9.800781 10.5 L 6.648438 7.351562 C 6.398438 7.550781 6.113281 7.707031 5.789062 7.824219 C 5.460938 7.941406 5.117188 8 4.75 8 C 3.839844 8 3.074219 7.683594 2.445312 7.054688 C 1.816406 6.425781 1.5 5.660156 1.5 4.75 C 1.5 3.839844 1.816406 3.074219 2.445312 2.445312 C 3.074219 1.816406 3.839844 1.5 4.75 1.5 C 5.660156 1.5 6.425781 1.816406 7.054688 2.445312 C 7.683594 3.074219 8 3.839844 8 4.75 C 8 5.117188 7.941406 5.460938 7.824219 5.789062 C 7.707031 6.113281 7.550781 6.398438 7.351562 6.648438 L 10.5 9.800781 Z M 4.75 7 C 5.375 7 5.90625 6.78125 6.34375 6.34375 C 6.78125 5.90625 7 5.375 7 4.75 C 7 4.125 6.78125 3.59375 6.34375 3.15625 C 5.90625 2.71875 5.375 2.5 4.75 2.5 C 4.125 2.5 3.59375 2.71875 3.15625 3.15625 C 2.71875 3.59375 2.5 4.125 2.5 4.75 C 2.5 5.375 2.71875 5.90625 3.15625 6.34375 C 3.59375 6.78125 4.125 7 4.75 7 Z M 4.75 7 "></path>
    </g>
  </symbol>
  <symbol xmlns="http://www.w3.org/2000/svg" xmlns:xlink="http://www.w3.org/1999/xlink" version="1.1" viewBox="0 0 12 12" id="dashboard">
    <g id="surface1">
      <path d="M 6.5 4.5 L 6.5 1.5 L 10.5 1.5 L 10.5 4.5 Z M 1.5 6.5 L 1.5 1.5 L 5.5 1.5 L 5.5 6.5 Z M 6.5 10.5 L 6.5 5.5 L 10.5 5.5 L 10.5 10.5 Z M 1.5 10.5 L 1.5 7.5 L 5.5 7.5 L 5.5 10.5 Z M 2.5 5.5 L 4.5 5.5 L 4.5 2.5 L 2.5 2.5 Z M 7.5 9.5 L 9.5 9.5 L 9.5 6.5 L 7.5 6.5 Z M 7.5 3.5 L 9.5 3.5 L 9.5 2.5 L 7.5 2.5 Z M 2.5 9.5 L 4.5 9.5 L 4.5 8.5 L 2.5 8.5 Z M 4.5 5.5 Z M 7.5 3.5 Z M 7.5 6.5 Z M 4.5 8.5 Z M 4.5 8.5 "></path>
    </g>
  </symbol>
  <symbol xmlns="http://www.w3.org/2000/svg" xmlns:xlink="http://www.w3.org/1999/xlink" version="1.1" viewBox="0 0 12 12" id="arrow_drop_down">
    <g id="surface1">
      <path d="M 6 7.5 L 3.5 5 L 8.5 5 Z M 6 7.5 "></path>
    </g>
  </symbol>
  <symbol xmlns="http://www.w3.org/2000/svg" xmlns:xlink="http://www.w3.org/1999/xlink" version="1.1" viewBox="0 0 12 12" id="article">
    <g id="surface1">
      <path d="M 3.5 8.5 L 7 8.5 L 7 7.5 L 3.5 7.5 Z M 3.5 6.5 L 8.5 6.5 L 8.5 5.5 L 3.5 5.5 Z M 3.5 4.5 L 8.5 4.5 L 8.5 3.5 L 3.5 3.5 Z M 2.5 10.5 C 2.226562 10.5 1.988281 10.402344 1.792969 10.207031 C 1.597656 10.011719 1.5 9.773438 1.5 9.5 L 1.5 2.5 C 1.5 2.226562 1.597656 1.988281 1.792969 1.792969 C 1.988281 1.597656 2.226562 1.5 2.5 1.5 L 9.5 1.5 C 9.773438 1.5 10.011719 1.597656 10.207031 1.792969 C 10.402344 1.988281 10.5 2.226562 10.5 2.5 L 10.5 9.5 C 10.5 9.773438 10.402344 10.011719 10.207031 10.207031 C 10.011719 10.402344 9.773438 10.5 9.5 10.5 Z M 2.5 9.5 L 9.5 9.5 L 9.5 2.5 L 2.5 2.5 Z M 2.5 2.5 L 2.5 9.5 Z M 2.5 2.5 "></path>
    </g>
  </symbol>
  <symbol xmlns="http://www.w3.org/2000/svg" xmlns:xlink="http://www.w3.org/1999/xlink" version="1.1" viewBox="0 0 12 12" id="quiz">
    <g id="surface1">
      <path d="M 7 7.5 C 7.140625 7.5 7.265625 7.449219 7.367188 7.34375 C 7.472656 7.238281 7.523438 7.117188 7.523438 6.976562 C 7.523438 6.832031 7.472656 6.710938 7.367188 6.605469 C 7.265625 6.503906 7.140625 6.449219 7 6.449219 C 6.859375 6.449219 6.734375 6.503906 6.632812 6.605469 C 6.527344 6.710938 6.476562 6.832031 6.476562 6.976562 C 6.476562 7.117188 6.527344 7.238281 6.632812 7.34375 C 6.734375 7.449219 6.859375 7.5 7 7.5 Z M 6.625 5.898438 L 7.375 5.898438 C 7.375 5.660156 7.398438 5.480469 7.449219 5.367188 C 7.5 5.257812 7.617188 5.109375 7.800781 4.925781 C 8.050781 4.675781 8.214844 4.472656 8.300781 4.320312 C 8.382812 4.164062 8.425781 3.984375 8.425781 3.773438 C 8.425781 3.398438 8.292969 3.09375 8.03125 2.855469 C 7.769531 2.617188 7.425781 2.5 7 2.5 C 6.660156 2.5 6.359375 2.597656 6.105469 2.789062 C 5.851562 2.980469 5.675781 3.234375 5.574219 3.550781 L 6.25 3.824219 C 6.324219 3.617188 6.425781 3.460938 6.554688 3.355469 C 6.683594 3.253906 6.832031 3.199219 7 3.199219 C 7.199219 3.199219 7.363281 3.257812 7.488281 3.367188 C 7.613281 3.480469 7.675781 3.632812 7.675781 3.824219 C 7.675781 3.941406 7.640625 4.050781 7.574219 4.15625 C 7.507812 4.261719 7.390625 4.390625 7.226562 4.550781 C 6.949219 4.792969 6.78125 4.980469 6.71875 5.117188 C 6.65625 5.257812 6.625 5.515625 6.625 5.898438 Z M 4 9 C 3.726562 9 3.488281 8.902344 3.292969 8.707031 C 3.097656 8.511719 3 8.273438 3 8 L 3 2 C 3 1.726562 3.097656 1.488281 3.292969 1.292969 C 3.488281 1.097656 3.726562 1 4 1 L 10 1 C 10.273438 1 10.511719 1.097656 10.707031 1.292969 C 10.902344 1.488281 11 1.726562 11 2 L 11 8 C 11 8.273438 10.902344 8.511719 10.707031 8.707031 C 10.511719 8.902344 10.273438 9 10 9 Z M 4 8 L 10 8 L 10 2 L 4 2 Z M 2 11 C 1.726562 11 1.488281 10.902344 1.292969 10.707031 C 1.097656 10.511719 1 10.273438 1 10 L 1 3 L 2 3 L 2 10 L 9 10 L 9 11 Z M 4 2 L 4 8 Z M 4 2 "></path>
    </g>
  </symbol>
  <symbol xmlns="http://www.w3.org/2000/svg" xmlns:xlink="http://www.w3.org/1999/xlink" version="1.1" viewBox="0 0 12 12" id="eco">
    <g id="surface1">
      <path d="M 2.699219 9.800781 C 2.324219 9.425781 2.03125 8.992188 1.820312 8.5 C 1.605469 8.007812 1.5 7.5 1.5 6.976562 C 1.5 6.449219 1.601562 5.929688 1.800781 5.417969 C 2 4.90625 2.324219 4.425781 2.773438 3.976562 C 3.066406 3.683594 3.425781 3.433594 3.855469 3.226562 C 4.285156 3.015625 4.792969 2.851562 5.382812 2.730469 C 5.96875 2.609375 6.640625 2.539062 7.394531 2.511719 C 8.148438 2.488281 8.992188 2.515625 9.925781 2.601562 C 9.992188 3.484375 10.011719 4.296875 9.988281 5.039062 C 9.960938 5.777344 9.894531 6.449219 9.78125 7.042969 C 9.667969 7.640625 9.511719 8.160156 9.304688 8.605469 C 9.101562 9.050781 8.851562 9.425781 8.550781 9.726562 C 8.109375 10.167969 7.640625 10.488281 7.144531 10.695312 C 6.648438 10.898438 6.140625 11 5.625 11 C 5.082031 11 4.554688 10.894531 4.039062 10.679688 C 3.519531 10.46875 3.074219 10.175781 2.699219 9.800781 Z M 4.101562 9.601562 C 4.339844 9.742188 4.589844 9.84375 4.84375 9.90625 C 5.097656 9.96875 5.359375 10 5.625 10 C 6.007812 10 6.386719 9.921875 6.761719 9.769531 C 7.136719 9.613281 7.496094 9.367188 7.835938 9.023438 C 7.988281 8.875 8.140625 8.664062 8.292969 8.394531 C 8.449219 8.121094 8.582031 7.769531 8.695312 7.332031 C 8.804688 6.894531 8.890625 6.363281 8.949219 5.742188 C 9.007812 5.121094 9.015625 4.382812 8.976562 3.523438 C 8.566406 3.507812 8.105469 3.503906 7.59375 3.507812 C 7.082031 3.511719 6.570312 3.550781 6.0625 3.625 C 5.554688 3.699219 5.070312 3.820312 4.613281 3.988281 C 4.152344 4.152344 3.777344 4.382812 3.488281 4.675781 C 3.113281 5.050781 2.855469 5.421875 2.710938 5.789062 C 2.570312 6.152344 2.5 6.507812 2.5 6.851562 C 2.5 7.339844 2.59375 7.773438 2.78125 8.144531 C 2.96875 8.515625 3.132812 8.773438 3.273438 8.925781 C 3.625 8.257812 4.085938 7.617188 4.664062 7.007812 C 5.238281 6.394531 5.910156 5.890625 6.675781 5.5 C 6.074219 6.023438 5.550781 6.617188 5.105469 7.28125 C 4.660156 7.945312 4.324219 8.714844 4.101562 9.601562 Z M 4.101562 9.601562 Z M 4.101562 9.601562 Z M 4.101562 9.601562 "></path>
    </g>
  </symbol>
  <symbol xmlns="http://www.w3.org/2000/svg" xmlns:xlink="http://www.w3.org/1999/xlink" version="1.1" viewBox="0 0 12 12" id="hourglass_empty">
    <g id="surface1">
      <path d="M 4 10 L 8 10 L 8 8.5 C 8 7.949219 7.804688 7.480469 7.414062 7.085938 C 7.019531 6.695312 6.550781 6.5 6 6.5 C 5.449219 6.5 4.980469 6.695312 4.585938 7.085938 C 4.195312 7.480469 4 7.949219 4 8.5 Z M 6 5.5 C 6.550781 5.5 7.019531 5.304688 7.414062 4.914062 C 7.804688 4.519531 8 4.050781 8 3.5 L 8 2 L 4 2 L 4 3.5 C 4 4.050781 4.195312 4.519531 4.585938 4.914062 C 4.980469 5.304688 5.449219 5.5 6 5.5 Z M 2 11 L 2 10 L 3 10 L 3 8.5 C 3 7.992188 3.117188 7.515625 3.355469 7.070312 C 3.59375 6.621094 3.925781 6.265625 4.351562 6 C 3.925781 5.734375 3.59375 5.378906 3.355469 4.929688 C 3.117188 4.484375 3 4.007812 3 3.5 L 3 2 L 2 2 L 2 1 L 10 1 L 10 2 L 9 2 L 9 3.5 C 9 4.007812 8.882812 4.484375 8.644531 4.929688 C 8.40625 5.378906 8.074219 5.734375 7.648438 6 C 8.074219 6.265625 8.40625 6.621094 8.644531 7.070312 C 8.882812 7.515625 9 7.992188 9 8.5 L 9 10 L 10 10 L 10 11 Z M 2 11 "></path>
    </g>
  </symbol>
  <symbol xmlns="http://www.w3.org/2000/svg" xmlns:xlink="http://www.w3.org/1999/xlink" version="1.1" viewBox="0 0 12 12" id="error">
    <g id="surface1">
      <path d="M 6 8.5 C 6.140625 8.5 6.261719 8.453125 6.355469 8.355469 C 6.453125 8.261719 6.5 8.140625 6.5 8 C 6.5 7.859375 6.453125 7.738281 6.355469 7.644531 C 6.261719 7.546875 6.140625 7.5 6 7.5 C 5.859375 7.5 5.738281 7.546875 5.644531 7.644531 C 5.546875 7.738281 5.5 7.859375 5.5 8 C 5.5 8.140625 5.546875 8.261719 5.644531 8.355469 C 5.738281 8.453125 5.859375 8.5 6 8.5 Z M 5.5 6.5 L 6.5 6.5 L 6.5 3.5 L 5.5 3.5 Z M 6 11 C 5.308594 11 4.660156 10.867188 4.050781 10.605469 C 3.441406 10.34375 2.914062 9.988281 2.460938 9.539062 C 2.011719 9.085938 1.65625 8.558594 1.394531 7.949219 C 1.132812 7.339844 1 6.691406 1 6 C 1 5.308594 1.132812 4.660156 1.394531 4.050781 C 1.65625 3.441406 2.011719 2.914062 2.460938 2.460938 C 2.914062 2.011719 3.441406 1.65625 4.050781 1.394531 C 4.660156 1.132812 5.308594 1 6 1 C 6.691406 1 7.339844 1.132812 7.949219 1.394531 C 8.558594 1.65625 9.085938 2.011719 9.539062 2.460938 C 9.988281 2.914062 10.34375 3.441406 10.605469 4.050781 C 10.867188 4.660156 11 5.308594 11 6 C 11 6.691406 10.867188 7.339844 10.605469 7.949219 C 10.34375 8.558594 9.988281 9.085938 9.539062 9.539062 C 9.085938 9.988281 8.558594 10.34375 7.949219 10.605469 C 7.339844 10.867188 6.691406 11 6 11 Z M 6 10 C 7.117188 10 8.0625 9.613281 8.835938 8.835938 C 9.613281 8.0625 10 7.117188 10 6 C 10 4.882812 9.613281 3.9375 8.835938 3.164062 C 8.0625 2.386719 7.117188 2 6 2 C 4.882812 2 3.9375 2.386719 3.164062 3.164062 C 2.386719 3.9375 2 4.882812 2 6 C 2 7.117188 2.386719 8.0625 3.164062 8.835938 C 3.9375 9.613281 4.882812 10 6 10 Z M 6 6 Z M 6 6 "></path>
    </g>
  </symbol>
</svg>