<svg id="Layer_1" enable-background="new 0 0 511.979 511.979" height="512" viewBox="0 0 511.979 511.979" width="512" xmlns="http://www.w3.org/2000/svg"><g><path d="m419.847 174.06-42.989-174.06h-241.739s-42.988 174.055-42.988 174.055c-18.584 70.363 21.512 148.819 89.425 174.974-.001.001 16.917 6.831 16.917 6.831 25.833 10.431 42.527 35.173 42.527 63.034v63.084h-68.265v30h166.53v-30h-68.265v-63.087c0-27.859 16.692-52.601 42.524-63.033l16.905-6.826c67.907-26.153 108.005-104.616 89.418-174.972zm-66.481-144.06 19.84 80.331h-75.148c-14.131-39.313-70.023-39.289-84.139 0h-75.148l19.84-80.331zm-82.716 95.331c0 8.084-6.577 14.662-14.662 14.662-19.423-.737-19.418-28.589 0-29.324 8.085 0 14.662 6.577 14.662 14.662zm110.433 139.253c-13.138 25.708-35.116 45.82-61.887 56.63-27.099 9.921-47.781 20.79-63.198 45.416-15.409-24.629-36.148-35.514-63.212-45.418-54.323-20.921-86.399-83.684-71.53-139.964-.001 0 10.105-40.917 10.105-40.917h82.557c14.131 39.314 70.024 39.289 84.139 0h82.557c11.493 44.859 23.204 79.82.469 124.253z"/><path d="m192.984 179.423c-24.627 0-44.662 20.035-44.662 44.662 2.245 59.169 87.088 59.153 89.324-.001 0-24.626-20.035-44.661-44.662-44.661zm0 59.324c-8.085 0-14.662-6.578-14.662-14.662.737-19.424 28.59-19.419 29.324 0 0 8.084-6.577 14.662-14.662 14.662z"/><path d="m318.761 200.423h30v30.002h-30z"/><path d="m288.759 250.427h30v30.002h-30z"/></g></svg>