<svg id="Layer_1" enable-background="new 0 0 512.282 512.282" height="512" viewBox="0 0 512.282 512.282" width="512" xmlns="http://www.w3.org/2000/svg"><g><path d="m309.401 371.096 101.336-241.665h-66.999l11.181-30.721c22.521 6.981 50.138 8.219 74.039 9.188l-54.075-107.898-110.777 47.896c18.968 14.645 40.846 31.4 62.622 40.553l-14.916 40.982h-228.488l101.336 241.665c8.584 20.472 26.354 35.058 47.371 39.81v71.376h-49.375v30h128.749v-30h-49.374v-71.376c21.016-4.751 38.786-19.338 47.37-39.81zm51.365-332.308 17.353 34.624c-18.627-3.621-36.305-10.055-52.9-19.254zm4.859 120.644-13.382 31.914h-31.04l11.615-31.914zm-64.733 0-11.615 31.914h-147.46l-13.382-31.914zm-88.566 200.064-57.929-138.15h185.267l-57.929 138.15c-12.646 30.584-56.762 30.586-69.409 0z"/><path d="m201.029 248.441h30v30.002h-30z"/><path d="m232.042 301.984h30v30.002h-30z"/></g></svg>