<svg id="Layer_1" enable-background="new 0 0 512.056 512.056" height="512" viewBox="0 0 512.056 512.056" width="512" xmlns="http://www.w3.org/2000/svg"><path d="m487.875 87.009c-2.867-106.341-152.082-118.348-172.682-15h-169.962l-35.533-72.009-26.903 13.275 28.982 58.733h-87.595v64.85c-.211 47.181 40.767 83.778 87.437 80.402 0 0 9.583 46.201 9.583 46.201 7.272 37.114 38.989 67.462 76.332 73.109v68.792c0 42.289-34.404 76.693-76.693 76.693v30h183.387v-30c-42.289 0-76.693-34.404-76.693-76.693v-68.792c37.345-5.648 69.058-35.994 76.331-73.109 0 0 9.584-46.201 9.584-46.201 46.672 3.374 87.647-33.221 87.436-80.403v-34.85h86.99v-14.998zm-116.99 15v30.004h-196.045l-14.805-30.004zm-244.305 0 14.805 30.004h-87.203v-30.004zm103.546 380.047h-35.185c6.794-6.567 12.723-14.028 17.592-22.188 4.87 8.16 10.799 15.621 17.593 22.188zm90.357-294.795h-31.45l-14.543 70.109c-6.061 29.218-32.117 50.424-61.957 50.424s-55.896-21.207-61.957-50.424l-14.542-70.108c-30.902-.362-56.358 5.083-75.116-25.249h303.229c-8.72 15.08-25.026 25.248-43.664 25.248zm25.418-115.252c15.684-55.65 94.308-55.612 109.971 0z"/></svg>