<svg id="Layer_1" enable-background="new 0 0 512.008 512.008" height="512" viewBox="0 0 512.008 512.008" width="512" xmlns="http://www.w3.org/2000/svg"><g><path d="m512.008 45.642v-30h-47.006l-32.02 32.02-37.51-37.51-60.89 60.889 14.428 14.428-48.481 48.482c-24.998-17.341-61.731-13.866-82.96 8.159-.001-.002-217.569 217.566-217.569 217.566l142.181 142.181 217.568-217.568c22.513-22.513 25.23-57.438 8.148-82.949l48.491-48.492 14.428 14.428 60.889-60.89-37.51-37.51 23.233-23.233h34.58zm-317.601 183.406c8.407 8.406 18.812 14.837 30.091 18.597 13.955 4.651 25.062 15.76 29.714 29.716 3.761 11.278 10.191 21.684 18.598 30.09l10.676 10.676-65.056 65.056-99.755-99.754 65.056-65.056zm-151.981 130.628 55.036-55.036 99.755 99.754-55.036 55.036zm283.923-159.216 12.188 12.18c13.905 13.905 13.905 36.53 0 50.436l-33.838 33.838-10.676-10.676c-5.13-5.131-9.055-11.481-11.35-18.365-7.622-22.865-25.823-41.066-48.688-48.688-6.883-2.294-13.233-6.219-18.365-11.35l-10.675-10.675 33.837-33.837c6.736-6.736 15.692-10.446 25.218-10.446 17.801-.089 25.958 11.379 37.404 22.626l68.819-68.82 24.953 24.953zm104.467-75.611-53.808-53.809 18.464-18.463 53.808 53.808z"/><path d="m187.14 265.98h30v67.472h-30z" transform="matrix(.707 -.707 .707 .707 -152.726 230.72)"/></g></svg>