<svg id="Capa_1" enable-background="new 0 0 512 512" height="512" viewBox="0 0 512 512" width="512" xmlns="http://www.w3.org/2000/svg"><g><path d="m413.575 164.376h-66.318v-15.376c0-4.142-3.358-7.5-7.5-7.5s-7.5 3.358-7.5 7.5v308.059c0 9.41 5.982 17.45 14.342 20.516v19.425h-258.612v-19.425c8.361-3.066 14.343-11.106 14.343-20.516v-336.542h11.665v163.983c0 4.142 3.358 7.5 7.5 7.5s7.5-3.358 7.5-7.5v-163.983c9.736-.427 18.693 2.436 23.567 11.641 7.128 13.46 21.01 21.822 36.23 21.822 8.71 0 17.022-2.694 24.038-7.792.597-.434 1.924-.505 1.924.823-.906 22.128 15.604 42.515 38.506 43.003 21.699.468 40.208-17.566 40.208-39.342v-14.354c0-7.444 5.181-13.687 12.122-15.351v312.959h-176.595v-112.926c0-4.142-3.358-7.5-7.5-7.5s-7.5 3.358-7.5 7.5v120.426c0 4.142 3.358 7.5 7.5 7.5h191.597c4.142 0 7.5-3.358 7.5-7.5v-320.909h16.471c20.69 0 36.544-17.987 35.567-38.281 0-19.606-15.95-35.556-35.556-35.556h-18.978c-7.811-18.878-26.49-31.631-47.251-31.631-10.219 0-20.056 3.021-28.41 8.625-12.504-14.953-30.927-23.674-50.708-23.674-8.188 0-16.184 1.48-23.765 4.399-3.865 1.489-5.792 5.829-4.304 9.694 1.489 3.866 5.83 5.793 9.694 4.304 5.855-2.254 12.037-3.397 18.375-3.397 17.43 0 33.499 8.761 42.985 23.437 1.208 1.868 3.182 3.104 5.39 3.373 2.208.271 4.422-.455 6.043-1.978 6.717-6.309 15.488-9.783 24.698-9.783 16.038 0 30.317 10.771 34.724 26.192.92 3.219 3.863 5.439 7.211 5.439h24.294c11.335 0 20.556 9.221 20.556 20.556.637 12.068-7.891 23.281-20.567 23.281h-27.791c-16.983 0-30.801 13.817-30.801 30.801v14.354c0 13.513-11.412 24.582-24.888 24.346-14.84-.317-24.622-13.974-23.826-28.007 0-13.066-15.384-20.485-25.742-12.958-4.436 3.223-9.698 4.926-15.22 4.926-9.65 0-18.453-5.304-22.975-13.842-6.408-12.102-18.657-19.621-31.968-19.621h-39.023c-4.142 0-7.5 3.358-7.5 7.5v85.041c0 7.615-11.291 7.024-11.291-.431v-84.61c0-28.308 23.03-51.337 51.337-51.337h6.929c3.554 0 6.62-2.495 7.343-5.974 1.396-6.719 4.093-12.995 8.015-18.655 2.36-3.404 1.513-8.077-1.892-10.437s-8.078-1.513-10.437 1.892c-3.895 5.62-6.856 11.712-8.84 18.174-36.495-.185-67.456 29.517-67.456 66.337v84.61c0 11.419 9.088 20.876 20.263 21.081 2.03.037 4.04-.225 6.031-.787v239.138c0 3.773-3.07 6.843-6.843 6.843-4.142 0-7.5 3.358-7.5 7.5v33.099c0 4.142 3.358 7.5 7.5 7.5h273.612c4.142 0 7.5-3.358 7.5-7.5v-33.098c0-4.142-3.358-7.5-7.5-7.5-3.773 0-6.842-3.07-6.842-6.843v-62.544h66.318c20.617 0 37.389-16.772 37.389-37.389v-155.36c.001-20.617-16.771-37.39-37.388-37.39zm-66.318 50.305h50.045c1.851 0 3.357 1.506 3.357 3.358v122.813c0 1.852-1.506 3.358-3.357 3.358h-50.045zm88.707 142.445c0 12.345-10.044 22.389-22.389 22.389h-66.318v-20.305h50.045c10.123 0 18.357-8.235 18.357-18.358v-122.813c0-10.123-8.235-18.358-18.357-18.358h-50.045v-20.305h66.318c12.345 0 22.389 10.044 22.389 22.389z"/><path d="m313.091 463.902h-191.596c-4.142 0-7.5 3.358-7.5 7.5s3.358 7.5 7.5 7.5h191.597c4.142 0 7.5-3.358 7.5-7.5s-3.359-7.5-7.501-7.5z"/><path d="m193.815 211.211c0-11.74-9.551-21.291-21.291-21.291s-21.291 9.551-21.291 21.291 9.551 21.291 21.291 21.291 21.291-9.551 21.291-21.291zm-21.291 6.291c-3.469 0-6.291-2.822-6.291-6.291s2.822-6.291 6.291-6.291 6.291 2.822 6.291 6.291-2.822 6.291-6.291 6.291z"/><path d="m241.392 294.968c0 11.74 9.551 21.291 21.291 21.291s21.291-9.551 21.291-21.291-9.551-21.291-21.291-21.291-21.291 9.551-21.291 21.291zm21.291-6.291c3.469 0 6.291 2.822 6.291 6.291s-2.822 6.291-6.291 6.291-6.291-2.822-6.291-6.291 2.822-6.291 6.291-6.291z"/><path d="m203.463 368.056c0 14.592 11.872 26.464 26.464 26.464s26.464-11.872 26.464-26.464-11.872-26.464-26.464-26.464-26.464 11.871-26.464 26.464zm37.929 0c0 6.321-5.143 11.464-11.464 11.464s-11.464-5.143-11.464-11.464 5.143-11.464 11.464-11.464 11.464 5.142 11.464 11.464z"/><circle cx="175.667" cy="284.5" r="7.5"/><circle cx="260.682" cy="231.068" r="7.5"/></g></svg>