<svg id="Capa_1" enable-background="new 0 0 512.162 512.162" height="512" viewBox="0 0 512.162 512.162" width="512" xmlns="http://www.w3.org/2000/svg"><g><path d="m460.883 128.572h-50.562v-55.553c0-4.142-3.357-7.5-7.5-7.5h-42.814c-18.757 0-36.425-8.245-48.474-22.62-9.298-11.093-22.932-17.455-37.404-17.455h-120.337c-12.677 0-20.07 15.308-11.77 25.215 13.554 16.178 21.019 36.71 21.019 57.814v41.123c0 28.412-6.249 56.799-18.214 82.57-6.894 14.862-12.006 30.547-15.194 46.62-.806 4.063 1.834 8.01 5.897 8.816 4.064.804 8.01-1.835 8.816-5.898 2.956-14.902 7.695-29.446 14.087-43.223 12.882-27.747 19.608-58.294 19.608-88.885v-41.123c0-24.621-8.708-48.574-24.521-67.447-.156-.309-.066-.503.271-.582h120.337c10.024 0 19.468 4.407 25.908 12.09 14.906 17.785 36.765 27.984 59.97 27.984h35.314s-.129 78.332.472 82.776c1.712 25.936 8.228 51.679 19.136 75.183 11.65 25.115 17.741 52.745 17.741 80.43v114.833c0 19.801-16.109 35.911-35.911 35.911h-220.154c-10.204 0-19.705-4.26-26.446-11.622 3.574-3.332 6.921-6.972 9.957-10.797 5.426 6.853 13.814 11.208 23.051 11.208h207.039c16.194 0 29.369-13.175 29.369-29.37v-112.411c0-25.854-5.379-50.938-16.436-74.206-13.391-28.179-20.468-59.562-20.468-90.758v-31.555c0-4.142-3.357-7.5-7.5-7.5h-29.341c-4.143 0-7.5 3.358-7.5 7.5s3.357 7.5 7.5 7.5h21.841v24.055c0 33.409 7.579 67.018 21.92 97.196 10.098 21.247 14.983 44.18 14.983 67.768v112.414c0 7.923-6.446 14.37-14.369 14.37h-207.039c-6.408 0-11.972-4.28-13.759-10.252 12.281-22.596 15.076-49.169 6.697-72.966-.539-1.536-.293-3.152.662-4.328 11.732-14.469 7.404-36.892-7.78-47.103.973-20.958 5.827-41.033 14.796-59.914 14.332-30.169 21.908-63.77 21.908-97.17v-24.07h103.603c4.143 0 7.5-3.358 7.5-7.5s-3.357-7.5-7.5-7.5h-111.104c-4.142 0-7.5 3.358-7.5 7.5v31.569c0 31.188-7.074 62.563-20.457 90.734-9.149 19.259-14.404 39.558-15.948 60.92-9.493-1.114-15.567 2.625-23.48 6.581-1.173.953-2.786 1.203-4.308.668-32.326-11.387-69.78-2.178-95.42 23.462s-34.849 63.095-23.465 95.412c.536 1.529.288 3.143-.669 4.321-23.298 28.74 17.156 69.303 45.96 45.952 1.17-.952 2.787-1.198 4.316-.661 26.758 9.421 57.023 4.723 81.197-11.709 9.589 10.916 23.362 17.263 38.187 17.263h220.156c28.072 0 50.911-22.838 50.911-50.911v-55.672l41.882-41.882c14.58-14.58 22.609-33.965 22.609-54.585v-101.752c.003-28.275-23-51.278-51.276-51.278zm-398.691 336.375c-6.492-2.278-13.499-1.093-18.741 3.165-15.118 12.255-37.14-9.704-24.861-24.853 4.263-5.25 5.45-12.255 3.171-18.747-9.48-26.913-1.661-58.249 19.921-79.831 20.525-20.525 52.007-29.722 79.839-19.918 6.482 2.275 13.489 1.089 18.739-3.174 15.118-12.249 37.136 9.711 24.856 24.856-4.261 5.248-5.445 12.256-3.165 18.753 9.477 26.917 1.658 58.253-19.92 79.832s-52.914 29.396-79.839 19.917zm366.344-232.782c-9.085-19.578-14.894-40.829-17.146-62.383h45.649c7.671 0 13.912 6.241 13.912 13.912v94.97c0 11.506-4.48 22.323-12.617 30.46l-10.664 10.664c.115-30.164-6.439-60.257-19.134-87.623zm68.626 49.437c0 16.613-6.47 32.231-18.217 43.979l-31.274 31.274v-15.853l21.271-21.271c10.969-10.97 17.01-25.554 17.01-41.066v-94.97c0-15.942-12.97-28.912-28.912-28.912h-46.646c-.047-1.729-.072-11.21-.072-11.21h50.562c20.004 0 36.278 16.274 36.278 36.278z"/><path d="m347.035 391.342c-4.767 4.768-10.087 8.926-15.811 12.359-3.553 2.13-4.705 6.737-2.574 10.29s6.737 4.704 10.289 2.574c6.776-4.064 13.068-8.981 18.703-14.616 37.73-37.731 37.73-99.125 0-136.855-2.93-2.929-7.678-2.929-10.607 0l-126.249 126.248c-2.929 2.929-2.929 7.678 0 10.606 21.523 21.523 52.151 31.692 82.281 27.354 4.1-.59 6.945-4.392 6.355-8.492-.591-4.1-4.39-6.946-8.492-6.355-23.294 3.351-46.22-3.194-63.998-18.046l9.208-9.208c27.008 21.705 67.267 19.469 91.745-5.009 24.455-24.455 26.722-64.794 5.01-91.746l9.202-9.202c26.719 32.093 25.032 80.004-5.062 110.098zm-14.824-25.431-24.89-24.89h35.201c-1.257 9.068-4.787 17.589-10.311 24.89zm-35.497-14.283 24.892 24.893c-7.453 5.622-16.048 9.039-24.892 10.273zm-15-.001v35.167c-8.844-1.234-17.44-4.651-24.894-10.273zm60.807-25.606h-35.2l24.897-24.897c5.525 7.302 9.046 15.828 10.303 24.897z"/><path d="m200.604 304.412c0 14.542 11.83 26.372 26.371 26.372 14.542 0 26.372-11.83 26.372-26.372 0-14.541-11.83-26.371-26.372-26.371-14.541 0-26.371 11.83-26.371 26.371zm26.371-11.371c6.271 0 11.372 5.101 11.372 11.371 0 6.271-5.101 11.372-11.372 11.372-6.27 0-11.371-5.101-11.371-11.372 0-6.27 5.101-11.371 11.371-11.371z"/><path d="m303.857 171.551-4.833 4.833c-.883-1.554-1.966-3.026-3.29-4.349l-21.664-21.664c-7.955-7.954-20.899-7.955-28.854 0l-21.663 21.663c-7.955 7.955-7.955 20.899 0 28.854l21.663 21.663c7.799 7.799 21.038 7.816 28.855 0l4.833-4.833c.883 1.554 1.966 3.026 3.29 4.35l21.664 21.664c3.978 3.977 9.202 5.966 14.427 5.966s10.449-1.989 14.427-5.966h.001l21.663-21.663c7.955-7.955 7.955-20.899 0-28.854l-21.663-21.663c-7.956-7.956-20.901-7.956-28.856-.001zm-40.394 40.394c-2.547 2.11-5.094 2.11-7.641 0l-21.663-21.663c-2.106-2.107-2.106-5.534 0-7.641l21.663-21.663c2.547-2.106 5.094-2.106 7.641 0l21.663 21.663c2.107 2.106 2.107 5.531.002 7.638zm80.305-8.125c2.107 2.107 2.107 5.534 0 7.641l-21.662 21.663c-2.107 2.107-5.536 2.107-7.642 0l-21.663-21.663c-2.107-2.106-2.107-5.531-.002-7.638l21.665-21.666c2.547-2.107 5.094-2.107 7.641 0z"/><circle cx="340.082" cy="150.996" r="7.5"/><circle cx="289.214" cy="282.653" r="7.5"/><circle cx="226.975" cy="242.589" r="7.5"/></g></svg>