<svg id="Capa_1" enable-background="new 0 0 512 512" height="512" viewBox="0 0 512 512" width="512" xmlns="http://www.w3.org/2000/svg"><g><path d="m362.409 76.233h-7.599c-3.159-20.721-19.169-37.578-39.796-41.666-4.567-19.96-22.944-34.567-43.393-34.567-21.183 0-38.89 14.486-43.403 34.563-.935.184-1.861.403-2.783.64-6.473-9.737-17.537-16.17-30.08-16.17-3.961 0-7.772.651-11.341 1.835-10.935-16.425-27.753-18.176-35.89-16.505-4.058.833-6.713 4.806-5.88 8.863.834 4.058 4.757 6.677 8.813 5.847 1.348-.244 12.107-1.773 19.992 9.392-7.242 6.607-11.794 16.115-11.794 26.667 0 11.621 5.525 21.97 14.08 28.578 0 .008-.001.015-.001.022v64.268c0 4.142 3.357 7.5 7.5 7.5s7.5-3.358 7.5-7.5v-27.527h95.366c4.143 0 7.5-3.358 7.5-7.5s-3.357-7.5-7.5-7.5h-95.365v-14.24h166.574v14.24h-35.555c-4.143 0-7.5 3.358-7.5 7.5s3.357 7.5 7.5 7.5h35.555v89.057c0 47.644-10.895 95.084-31.552 138.006-10.378 21.564-24.39 38.788-38.997 57.531h-25.476c-14.615-18.754-28.579-35.979-38.997-57.531-20.717-42.857-31.552-90.411-31.552-138.006v-26.53c0-4.142-3.357-7.5-7.5-7.5s-7.5 3.358-7.5 7.5v26.53c0 73.317 24.052 141.03 68.706 198.327-7.912 4.126-13.33 12.403-13.33 21.927 0 6.758 2.728 12.889 7.138 17.355l-30.147 14.658c-10.594 5.151-18.863 14.138-23.285 25.304-4.599 11.607 4.298 24.899 16.871 24.899h80.065c4.143 0 7.5-3.358 7.5-7.5s-3.357-7.5-7.5-7.5h-80.065c-2.518-.412-3.494-1.87-2.927-4.375 3.039-7.673 8.686-13.83 15.898-17.337l42.751-20.786h33.221l42.751 20.786c7.215 3.508 12.86 9.665 15.897 17.337.567 2.505-.408 3.963-2.927 4.375h-28.718c-4.143 0-7.5 3.358-7.5 7.5s3.357 7.5 7.5 7.5h28.718c12.503 0 21.494-13.228 16.874-24.896-4.421-11.167-12.69-20.154-23.286-25.306l-30.147-14.658c4.41-4.466 7.138-10.597 7.138-17.355 0-9.524-5.418-17.802-13.33-21.927 44.657-57.303 68.706-125.005 68.706-198.328v-125.797c.002-4.142-3.356-7.5-7.498-7.5zm-72.593 343.834c5.357 0 9.717 4.359 9.717 9.718 0 5.358-4.359 9.717-9.717 9.717h-36.389c-5.357 0-9.717-4.359-9.717-9.717s4.359-9.718 9.717-9.718zm-54.509-371.351c3.668-.271 6.598-3.16 6.92-6.824 1.346-15.33 13.982-26.892 29.394-26.892 11.95 0 23.105 7.594 27.475 18.737h-15.396c-4.143 0-7.5 3.358-7.5 7.5s3.357 7.5 7.5 7.5h24.44c15.547 1.249 28.17 12.737 31.424 27.496h-114.945c4.295-5.94 6.836-13.227 6.836-21.1 0-1.974-.166-3.91-.472-5.799 1.424-.287 2.864-.51 4.324-.618zm-18.853 6.417c0 11.635-9.465 21.1-21.1 21.1s-21.1-9.465-21.1-21.1c0-11.634 9.465-21.1 21.1-21.1s21.1 9.466 21.1 21.1z"/><path d="m224.771 145.111c-4.143 0-7.5 3.358-7.5 7.5v46.578c0 22.023-.001 55.304 6.335 93.717.606 3.674 3.786 6.28 7.392 6.28.405 0 .816-.033 1.229-.101 4.087-.674 6.854-4.534 6.18-8.621-6.137-37.201-6.136-69.742-6.136-91.276v-46.578c0-4.141-3.358-7.499-7.5-7.499z"/><path d="m312.245 299.187c3.605 0 6.785-2.607 7.392-6.28 6.336-38.414 6.335-71.694 6.335-93.717v-46.578c0-4.142-3.357-7.5-7.5-7.5s-7.5 3.358-7.5 7.5v46.578c0 21.534.001 54.075-6.136 91.276-.674 4.087 2.093 7.947 6.18 8.621.413.067.824.1 1.229.1z"/><path d="m279.121 291.686v-139.075c0-4.142-3.357-7.5-7.5-7.5s-7.5 3.358-7.5 7.5v139.074c0 4.142 3.357 7.5 7.5 7.5s7.5-3.357 7.5-7.499z"/></g></svg>