<svg id="Capa_1" enable-background="new 0 0 512 512" height="512" viewBox="0 0 512 512" width="512" xmlns="http://www.w3.org/2000/svg"><g><path d="m273.533 296.793c-3.66-19.604-8.804-38.945-15.336-57.787-17.352-49.982-30.758-98.534-30.758-152.079v-68.894c0-9.943-8.089-18.033-18.033-18.033h-28.732c-9.943 0-18.033 8.09-18.033 18.033v7.3c0 4.142 3.357 7.5 7.5 7.5s7.5-3.358 7.5-7.5v-7.3c0-1.672 1.36-3.033 3.033-3.033h28.732c1.673 0 3.033 1.361 3.033 3.033v55.354h-34.799v-12.72c0-4.142-3.357-7.5-7.5-7.5s-7.5 3.358-7.5 7.5v26.261c0 23.64-2.199 47.417-6.537 70.668-5.291 28.339-14.82 54.334-24.221 81.411-14.473 42.213-22.133 86.565-22.133 131.213v121.56c0 11.149 9.07 20.22 20.22 20.22h130.141c11.149 0 20.22-9.071 20.22-20.22v-121.56c0-24.613-2.292-49.23-6.797-73.427zm-8.203 122.207h-140.58v-31.54h18.96c4.143 0 7.5-3.358 7.5-7.5 0-7.437 17.074-18.24 43.83-18.24s43.83 10.803 43.83 18.24c0 4.142 3.357 7.5 7.5 7.5h18.96zm-140.58 15h140.58v8.73h-140.58zm46.1-273.653c4.417-23.678 6.699-47.881 6.788-71.96h34.805c.14 38.529 5.809 76.644 16.868 113.476h-68.542c4.095-13.648 7.476-27.569 10.081-41.516zm-45.345 185.783c2.078-33.085 8.421-65.744 18.849-97.164h17.687c4.143 0 7.5-3.358 7.5-7.5s-3.357-7.5-7.5-7.5h-12.376c2.151-5.683 4.315-11.353 6.286-17.103h78.18c1.972 5.75 4.137 11.419 6.286 17.103h-43.377c-4.143 0-7.5 3.358-7.5 7.5s3.357 7.5 7.5 7.5h48.681c13.2 39.799 19.734 81.579 19.609 123.494h-12.84c-5.703-15.097-28.505-25.74-57.45-25.74s-51.747 10.643-57.45 25.74h-12.84c-.038-8.781.207-17.566.755-26.33zm134.605 150.87h-130.14c-2.878 0-5.22-2.342-5.22-5.22v-34.05h140.58v34.05c0 2.878-2.342 5.22-5.22 5.22z"/><path d="m195.04 370.421c-18.147 0-31.833 8.83-31.833 20.54s13.686 20.54 31.833 20.54 31.833-8.83 31.833-20.54-13.685-20.54-31.833-20.54zm0 26.079c-10.554 0-16.285-4.115-16.817-5.54.532-1.425 6.265-5.54 16.817-5.54s16.285 4.115 16.817 5.54c-.532 1.426-6.263 5.54-16.817 5.54z"/><path d="m394.75 244.61h-74.84c-4.143 0-7.5 3.358-7.5 7.5v75.67c0 7.417.533 14.902 1.586 22.247.588 4.101 4.397 6.953 8.487 6.361 4.101-.587 6.948-4.388 6.36-8.488-.951-6.642-1.434-13.411-1.434-20.12v-33.28h59.84v33.28c0 31.679-10.567 62.302-29.921 87.159-8.034-10.317-14.584-21.667-19.521-33.841-1.556-3.838-5.929-5.69-9.769-4.133-3.838 1.557-5.688 5.93-4.132 9.769 6.32 15.589 15.037 29.952 25.922 42.738v67.528h-29.917c-4.143 0-7.5 3.358-7.5 7.5s3.357 7.5 7.5 7.5h74.834c4.143 0 7.5-3.358 7.5-7.5s-3.357-7.5-7.5-7.5h-29.915v-67.531c24.149-28.373 37.42-64.365 37.42-101.689v-75.67c0-4.142-3.357-7.5-7.5-7.5zm-67.34 34.89v-19.89h59.84v19.89z"/><circle cx="368.33" cy="316.167" r="7.5"/></g></svg>