<svg id="Capa_1" enable-background="new 0 0 511.535 511.535" height="512" viewBox="0 0 511.535 511.535" width="512" xmlns="http://www.w3.org/2000/svg"><g><path d="m401.105 112.598c2.145-2.145 2.786-5.371 1.625-8.173-1.16-2.803-3.896-4.63-6.929-4.63h-214.91c-3.034 0-5.769 1.828-6.929 4.63s-.519 6.029 1.626 8.173l107.459 107.45c1.465 1.464 3.385 2.197 5.304 2.197s3.839-.732 5.304-2.197zm-112.754 91.541-40.773-40.773h12.391c4.143 0 7.5-3.358 7.5-7.5s-3.357-7.5-7.5-7.5h-27.391l-33.578-33.571h178.694l-33.571 33.57h-47.989c-4.143 0-7.5 3.358-7.5 7.5s3.357 7.5 7.5 7.5h32.989z"/><path d="m302.881 385.036c4.143 0 7.5-3.358 7.5-7.5v-96.337c0-27.54 10.725-53.432 30.197-72.906l130.847-130.854c2.145-2.145 2.786-5.371 1.625-8.173-1.16-2.803-3.896-4.63-6.929-4.63h-248.255l20.165-20.165c2.929-2.929 2.929-7.678 0-10.606-45.152-45.152-120.575-45.152-165.727 0-2.929 2.929-2.929 7.678 0 10.606l64.753 64.757h-83.845c.965-13.085 4.453-26.123 10.615-38.383 1.86-3.701.368-8.209-3.333-10.069s-8.209-.368-10.069 3.333c-22.729 45.221-13.936 99.667 21.879 135.481 1.464 1.464 3.384 2.197 5.303 2.197s3.839-.732 5.303-2.197l72.255-72.255 80.947 80.947c19.474 19.475 30.199 45.367 30.199 72.908v175.267c0 6.07-4.938 11.008-11.008 11.008h-50.102c-12.475 0-22.848 11.068-21.987 23.572.792 11.494 10.621 20.498 22.377 20.498h165.488c12.007 0 21.857-9.205 22.426-20.957.593-12.29-9.646-23.113-22.004-23.113h-50.112c-6.069 0-11.008-4.938-11.008-11.008v-43.922c0-4.142-3.357-7.5-7.5-7.5s-7.5 3.358-7.5 7.5v43.922c0 14.341 11.667 26.008 26.008 26.008h50.112c4.454.452 6.794 2.915 7.021 7.389-.179 3.684-3.518 6.681-7.443 6.681h-165.487c-3.904 0-7.161-2.868-7.413-6.529.191-4.588 2.532-7.101 7.022-7.541h50.102c14.341 0 26.008-11.667 26.008-26.008v-175.266c0-31.548-12.285-61.207-34.593-83.515l-118.04-118.041h319.338l-118.045 118.051c-22.306 22.308-34.59 51.966-34.59 83.512v96.337c0 4.143 3.358 7.501 7.5 7.501zm-225.082-201.548c-14.64-16.935-23.002-37.783-24.587-59.261h83.849zm118.854-118.853h-33.986v-49.751c21.276 1.552 42.158 9.695 59.261 24.475zm-82.971 0-25.255-25.254c17.103-14.777 37.966-22.956 59.24-24.508v49.762z"/></g></svg>