<svg id="Capa_1" enable-background="new 0 0 512 512" height="512" viewBox="0 0 512 512" width="512" xmlns="http://www.w3.org/2000/svg"><g><path d="m139.137 73.874h-32.699c-2.284 0-4.444 1.041-5.867 2.828-2.489 3.126-5.098 6.197-7.62 9.167-12.342 14.528-25.103 29.55-25.103 53.012v321.758c0 14.26 11.602 25.861 25.862 25.861h223.085c14.26 0 25.861-11.602 25.861-25.861v-321.759c0-23.445-12.774-38.491-25.129-53.042-2.514-2.961-5.113-6.022-7.593-9.136-1.423-1.788-3.583-2.829-5.867-2.829h-129.597c-4.143 0-7.5 3.358-7.5 7.5s3.357 7.5 7.5 7.5h126.02c1.88 2.287 3.764 4.506 5.604 6.673 11.571 13.627 21.563 25.397 21.563 43.333v321.758c0 5.989-4.872 10.861-10.861 10.861h-223.086c-5.989 0-10.862-4.873-10.862-10.861v-321.757c0-17.951 9.979-29.698 21.534-43.3 1.85-2.177 3.744-4.407 5.633-6.706h29.122c4.143 0 7.5-3.358 7.5-7.5s-3.358-7.5-7.5-7.5z"/><path d="m413.4 126.865h-44.685c-1.468-15.691-7.494-30.803-17.357-43.199l-19.694-24.734v-51.432c0-4.142-3.357-7.5-7.5-7.5h-237.824c-4.143 0-7.5 3.358-7.5 7.5v51.431l-19.696 24.737c-11.424 14.359-17.716 32.364-17.716 50.697v327.747c0 27.509 22.38 49.889 49.889 49.889h15.486c4.143 0 7.5-3.358 7.5-7.5s-3.357-7.5-7.5-7.5h-15.487c-19.237 0-34.889-15.651-34.889-34.889v-327.747c0-14.954 5.133-29.642 14.452-41.355l21.327-26.785c1.058-1.328 1.633-2.975 1.633-4.672v-14.48h222.824v14.48c0 1.697.575 3.344 1.633 4.672l21.325 26.783c9.321 11.716 14.455 26.404 14.455 41.358v327.747c0 19.238-15.651 34.889-34.889 34.889h-175.384c-4.143 0-7.5 3.358-7.5 7.5s3.357 7.5 7.5 7.5h175.386c27.509 0 49.889-22.38 49.889-49.889v-82.613h44.322c31.524 0 57.172-25.647 57.172-57.172v-138.291c0-31.525-25.647-57.172-57.172-57.172zm-319.56-94.793v-17.072h222.824v17.072zm275.237 145.665h39.563c6.099 0 11.061 4.962 11.061 11.061v128.77c0 6.099-4.962 11.061-11.061 11.061h-39.563zm86.495 144.591c0 23.253-18.918 42.172-42.172 42.172h-44.323v-20.872h39.563c14.37 0 26.061-11.691 26.061-26.061v-128.77c0-14.37-11.69-26.061-26.061-26.061h-39.563v-20.872h44.323c23.254 0 42.172 18.918 42.172 42.172z"/><path d="m237.137 97.294c-45.123 0-81.833 36.71-81.833 81.833s36.71 81.833 81.833 81.833c14.87 0 29.433-4.03 42.113-11.655 3.55-2.135 4.697-6.743 2.563-10.292s-6.742-4.697-10.293-2.563c-10.347 6.222-22.236 9.51-34.383 9.51-36.852 0-66.833-29.981-66.833-66.833s29.981-66.833 66.833-66.833 66.833 29.981 66.833 66.833c0 13.031-3.749 25.655-10.842 36.508-2.266 3.468-1.292 8.115 2.176 10.381 3.466 2.265 8.115 1.292 10.381-2.175 8.691-13.3 13.285-28.762 13.285-44.714 0-45.123-36.71-81.833-81.833-81.833z"/><path d="m277.868 139.55c-9.178-11.403-26.609-17.256-40.732-17.256-30.946 0-56.833 25.88-56.833 56.833 0 30.946 25.879 56.833 56.833 56.833 30.946 0 56.833-25.879 56.833-56.833.001-15.375-6.147-29.335-16.101-39.577zm-6.343 63.359-16.281-16.282h23.04c-1.085 5.961-3.431 11.484-6.759 16.282zm-75.535-16.282h23.04l-16.281 16.282c-3.329-4.798-5.675-10.321-6.759-16.282zm6.758-31.281 16.281 16.281h-23.039c1.084-5.96 3.43-11.483 6.758-16.281zm41.889-17.365c5.96 1.084 11.484 3.43 16.281 6.758l-16.281 16.282zm-15 23.04-16.281-16.282c4.798-3.328 10.321-5.674 16.281-6.758zm0 36.214v23.04c-5.96-1.084-11.483-3.43-16.281-6.758zm15 0 16.281 16.281c-4.798 3.328-10.321 5.674-16.281 6.758zm10.607-25.608 16.281-16.281c3.328 4.798 5.674 10.321 6.758 16.281z"/><path d="m127.416 323.815c-2.93-2.929-7.678-2.929-10.607 0-31.905 31.905-31.905 83.819 0 115.725 15.459 15.458 36.011 23.972 57.869 23.973h.004c21.856 0 42.406-8.512 57.86-23.966 2.929-2.929 2.929-7.678 0-10.606zm29.151 50.364h-23.053c1.056-5.868 3.344-11.409 6.748-16.306zm-23.047 15h23.048l-16.296 16.296c-3.402-4.895-5.695-10.429-6.752-16.296zm33.654 10.607v23.048c-5.866-1.058-11.399-3.351-16.295-6.753zm15 0 16.309 16.308c-4.898 3.404-10.439 5.692-16.309 6.748zm-7.491 48.727c-.002 0-.003 0-.004 0-17.853-.001-34.638-6.955-47.263-19.58-12.622-12.622-19.573-29.404-19.573-47.256 0-15.327 5.124-29.866 14.562-41.66l7.134 7.134c-7.58 9.867-11.698 21.877-11.698 34.526v.001.001c.001 15.136 5.883 29.368 16.559 40.09.03.031.056.065.087.096.032.032.067.059.1.09 10.725 10.674 24.955 16.555 40.088 16.557h.009c12.648 0 24.656-4.117 34.523-11.697l7.134 7.134c-11.795 9.44-26.333 14.564-41.658 14.564z"/><path d="m304.717 279.604c-15.833-15.834-37.933-16.718-52.545-2.104-14.71 14.71-25.057 48.004-9.206 63.855 5.629 5.629 13.454 7.954 21.869 7.954 15.281 0 32.5-7.673 41.987-17.16 14.613-14.613 13.728-36.711-2.105-52.545zm-8.502 41.938c-10.471 10.471-34.729 17.12-42.642 9.206-3.537-3.537-4.473-10.894-2.504-19.681 1.974-8.809 6.57-17.821 11.71-22.961 9.235-9.235 22.768-6.46 31.331 2.104 8.052 8.053 12.145 21.292 2.105 31.332z"/><path d="m272.087 295.314c-2.929 2.929-2.929 7.678 0 10.607s7.678 2.929 10.607 0 2.929-7.678 0-10.607c-2.93-2.929-7.678-2.929-10.607 0z"/><circle cx="129.91" cy="195.667" r="7.5"/><circle cx="118.99" cy="171.628" r="7.5"/><path d="m103.75 251.113c-1.788 1.789-2.555 4.359-2.038 6.835.183.873 4.609 21.623 17.427 42.737 17.493 28.819 42.17 44.312 71.362 44.803 1.531.018 3.017-.443 4.301-1.269 14.049-9.414 21.836-21.167 23.146-34.933 2.542-26.701-21.04-50.376-22.046-51.371-2.922-2.893-7.629-2.893-10.551 0-.587.58-8.847 8.88-15.13 20.988-25.09-22.396-58.089-29.507-59.635-29.829-2.478-.517-5.047.25-6.836 2.039zm86.901 23.61c6.094 7.978 13.53 20.898 12.364 33.142-.748 7.858-4.813 14.708-12.389 20.83-7.56-6.109-11.624-12.943-12.384-20.781-1.254-12.93 6.759-25.847 12.409-33.191zm-26.197 19.408c-2.549 10.87-1.35 22.418 4.341 32.15-14.306-5.562-26.573-16.606-36.627-33.04-5.672-9.272-9.562-18.617-12.059-25.761 12.113 4.242 30.566 12.493 44.345 26.651z"/><path d="m258.183 444.299c5.997 1.755 11.554 2.632 16.656 2.632 8.569 0 15.854-2.473 21.761-7.407 17.455-14.58 14.437-45.076 14.3-46.367-.373-3.516-3.15-6.293-6.666-6.667-1.292-.138-31.788-3.155-46.367 14.3-7.872 9.424-9.479 22.35-4.775 38.418.718 2.455 2.637 4.373 5.091 5.091zm11.176-33.869c5.961-7.165 18.351-9.042 26.83-9.229-.188 8.48-2.064 20.869-9.229 26.831-4.665 3.882-11.553 4.856-20.512 2.911-1.945-8.96-.971-15.848 2.911-20.513z"/><path d="m252.099 375.592c0-11.375-9.255-20.63-20.63-20.63s-20.63 9.254-20.63 20.63 9.255 20.63 20.63 20.63 20.63-9.255 20.63-20.63zm-20.63 5.63c-3.104 0-5.63-2.525-5.63-5.63s2.525-5.63 5.63-5.63 5.63 2.525 5.63 5.63-2.526 5.63-5.63 5.63z"/></g></svg>