<svg id="Capa_1" enable-background="new 0 0 512 512" height="512" viewBox="0 0 512 512" width="512" xmlns="http://www.w3.org/2000/svg"><g><path d="m373.441 236.622c-.057-.43-.144-.861-.274-1.275l-15.143-51.06v-38.537c0-16.807-5.689-32.994-16.453-46.812-6.423-8.246-9.818-17.843-9.818-27.754v-10.133c4.662.462 9.928-2.144 9.928-7.5v-46.051c0-4.142-3.358-7.5-7.5-7.5h-33.514c-4.142 0-7.5 3.358-7.5 7.5s3.358 7.5 7.5 7.5h26.014v31.051h-141.362v-31.051h79.348c4.142 0 7.5-3.358 7.5-7.5s-3.358-7.5-7.5-7.5h-86.848c-4.142 0-7.5 3.358-7.5 7.5v46.051c0 5.284 5.244 7.989 9.928 7.5v10.133c0 9.91-3.396 19.507-9.819 27.753-10.763 13.818-16.452 30.005-16.452 46.812v38.538l-15.143 51.06c-.223.709-.345 1.512-.345 2.25v37.736c0 4.142 3.358 7.5 7.5 7.5s7.5-3.358 7.5-7.5v-30.236h205.023v196.673h-34.011v-17.5c0-4.142-3.358-7.5-7.5-7.5h-122c-4.142 0-7.5 3.358-7.5 7.5v17.5h-34.012v-130.103c0-4.142-3.358-7.5-7.5-7.5s-7.5 3.358-7.5 7.5v163.248c0 20.449 16.636 37.085 37.084 37.085h106.094c4.142 0 7.5-3.358 7.5-7.5s-3.358-7.5-7.5-7.5h-106.093c-12.177 0-22.084-9.907-22.084-22.085v-18.145h205.023v18.145c0 12.178-9.907 22.085-22.084 22.085h-19.428c-4.142 0-7.5 3.358-7.5 7.5s3.358 7.5 7.5 7.5h19.427c20.448 0 37.084-16.636 37.084-37.085.001 0-.028-237.973-.07-238.293zm-170.941 205.148v-10h107v10zm-33.524-256.394v-39.626c0-13.436 4.594-26.436 13.286-37.594 8.495-10.905 12.985-23.69 12.985-36.971v-10.134h121.507v10.132c0 13.282 4.49 26.066 12.985 36.972 8.692 11.158 13.286 24.158 13.286 37.594v39.626c0 .722 12.94 44.721 12.94 44.721h-199.93c0 .001 12.941-43.998 12.941-44.72z"/><path d="m256 264.756c-4.142 0-7.5 3.358-7.5 7.5v10.78c-9.724 2.654-17.601 9.776-20.985 19.449-1.731 4.947-4.5 9.268-8.012 12.5-9.944 9.067-15.759 22.187-15.759 35.649-.003 13.797 5.477 26.876 15.43 36.828 9.951 9.95 23.03 15.43 36.824 15.43h.013c13.804 0 26.881-5.476 36.825-15.42 9.946-9.946 15.422-23.029 15.42-36.836 0-13.437-5.67-26.363-15.558-35.465-3.547-3.265-6.278-7.578-8.117-12.82-3.427-9.769-11.457-16.962-21.082-19.461v-10.633c.001-4.143-3.357-7.501-7.499-7.501zm14.427 42.559c2.661 7.587 6.736 13.944 12.113 18.893 6.716 6.182 10.716 15.301 10.716 24.43.002 9.8-3.914 19.114-11.026 26.228-7.111 7.111-16.421 11.027-26.221 11.026-.002 0-.006 0-.009 0-9.79 0-19.102-3.92-26.22-11.037-7.119-7.118-11.038-16.428-11.036-26.219 0-9.364 4.162-18.24 10.922-24.618 5.313-4.891 9.465-11.315 12.007-18.579 2.159-6.17 7.697-10.19 14.475-10.521 6.291.065 12.148 4.322 14.279 10.397z"/></g></svg>