<svg id="Capa_1" enable-background="new 0 0 512 512" height="512" viewBox="0 0 512 512" width="512" xmlns="http://www.w3.org/2000/svg"><g><path d="m283.212 151.495-16.578-38.626c-1.633-3.806-6.044-5.569-9.85-3.934-3.807 1.633-5.567 6.043-3.934 9.85l13.783 32.115h-179.788l18.257-42.539c3.504-8.165 9.047-15.385 16.029-20.879l20.678-16.271h69.858s23.894 18.96 25.375 20.437c2.931 2.925 7.68 2.921 10.606-.013 2.926-2.932 2.92-7.681-.013-10.606-1.895-1.891-25.871-20.959-25.871-20.959v-40.42c.001-10.836-8.814-19.65-19.649-19.65h-50.752c-10.835 0-19.65 8.814-19.65 19.649v40.42l-19.856 15.624c-8.946 7.04-16.049 16.29-20.538 26.752l-21.051 49.049c-8.915 2.157-15.564 10.182-15.564 19.75 0 8.724 5.531 16.161 13.262 19.045v86.236c0 .265 3.417 32.59 3.417 32.59.437 4.118 4.116 7.102 8.25 6.666 4.118-.438 7.104-4.131 6.666-8.25l-3.333-31.403v-84.543h187.55v84.543l-21.796 205.313c-.942 8.87-8.379 15.559-17.298 15.559h-109.365c-8.919 0-16.355-6.688-17.297-15.559l-14.645-137.94c-.437-4.118-4.121-7.096-8.25-6.666-4.119.438-7.104 4.131-6.666 8.25l14.645 137.94c1.753 16.518 15.602 28.975 32.213 28.975h109.363c16.61 0 30.459-12.456 32.214-28.975 0 0 21.88-206.234 21.88-206.499v-86.236c7.73-2.884 13.261-10.321 13.261-19.044 0-9.569-6.649-17.594-15.563-19.751zm-131.849-136.495h50.752c2.564 0 4.65 2.086 4.65 4.649v36.561h-60.053v-36.561c.001-2.563 2.087-4.649 4.651-4.649zm-75.898 161.586h-.422c-2.944 0-5.34-2.396-5.34-5.341 0-2.944 2.396-5.34 5.34-5.34h203.393c2.944 0 5.34 2.396 5.34 5.34 0 2.945-2.396 5.341-5.34 5.341h-.421z"/><path d="m456.798 488.956-26.536-110.154v-24.087l12.305-64.626c2.14-11.228-6.871-22.162-18.341-22.162h-69.356c-11.43 0-20.488 10.895-18.341 22.163l12.306 64.626v24.086l-26.536 110.154c-2.763 11.459 6.318 23.044 18.15 23.044h11.897c4.143 0 7.5-3.357 7.5-7.5s-3.357-7.5-7.5-7.5h-11.897c-2.655-.356-3.845-1.866-3.568-4.53l25.362-105.278h54.611l25.361 105.277c.277 2.665-.913 4.176-3.568 4.531h-50.634c-4.143 0-7.5 3.357-7.5 7.5s3.357 7.5 7.5 7.5h50.634c11.787 0 20.922-11.539 18.151-23.044zm-104.757-204.698c.411-.496 1.325-1.33 2.828-1.33h69.356c2.569.321 3.771 1.774 3.606 4.357l-11.277 59.226h-54.014l-11.278-59.226c-.28-1.476.368-2.53.779-3.027zm11.793 87.933v-10.681h51.428v10.681z"/></g></svg>