<svg id="Capa_1" enable-background="new 0 0 512 512" height="512" viewBox="0 0 512 512" width="512" xmlns="http://www.w3.org/2000/svg"><path d="m369.294 96.808c-13.777 0-26.885 4.337-37.774 12.357l3.399-12.25c.227-.718.346-1.501.346-2.254 0-11.761-4.581-22.813-12.891-31.11-7.333-7.345-16.812-11.776-27.032-12.713-2.347-7.099-8.015-12.698-15.155-14.952-3.104-20.293-20.677-35.886-41.823-35.886-10.449 0-20.312 3.78-27.976 10.563-9.662-6.723-21.174-10.363-33.089-10.363-10.821 0-21.379 3.004-30.533 8.688-3.519 2.186-4.601 6.81-2.416 10.328s6.808 4.6 10.328 2.416c6.776-4.208 14.599-6.432 22.621-6.432 10.655 0 20.874 3.924 28.772 11.05 1.538 1.387 3.586 2.065 5.645 1.905 2.064-.172 3.965-1.189 5.253-2.813 5.218-6.572 13.015-10.342 21.395-10.342 15.059 0 27.31 12.251 27.31 27.31 0 4.143 3.358 7.5 7.5 7.5 4.6 0 8.342 3.742 8.342 8.342 0 4.143 3.358 7.5 7.5 7.5 13.726-.44 26.668 7.939 30.275 21.51h-224.473c3.947-14.74 17.663-21.834 32.03-21.51 4.142 0 7.5-3.357 7.5-7.5 0-4.84.796-9.584 2.366-14.104 1.359-3.912-.71-8.187-4.623-9.546-3.912-1.359-8.187.71-9.546 4.624-1.313 3.776-2.225 7.667-2.729 11.629-22.861 1.561-40.981 20.657-40.981 43.906 0 .668.097 1.366.275 2.009l25.205 90.846c-9.346 2.933-16.145 11.674-16.145 21.975 0 10.608 7.212 19.558 16.988 22.218l-25.14 149.614c-4.351 25.901 3.713 52.861 21.509 72.154l-15.277 33.249c-5.374 11.694 3.509 25.274 16.202 25.274h209.192c12.693 0 21.575-13.58 16.202-25.274l-15.3-33.299c17.805-19.268 25.881-46.214 21.532-72.104l-3.043-18.112 77.863-77.855c15.649-15.647 24.268-36.453 24.268-58.583v-66.096c-.001-35.217-28.653-63.869-63.872-63.869zm-51.399 5.357-23.389 84.3h-174.916l-23.389-84.3zm-206.699 99.3h191.704c4.426 0 8.027 3.601 8.027 8.026 0 4.427-3.601 8.027-8.027 8.027h-191.704c-4.426 0-8.027-3.601-8.027-8.027s3.601-8.026 8.027-8.026zm138.602 264.481h-79.048c-4.142 0-7.5 3.357-7.5 7.5s3.358 7.5 7.5 7.5h79.048c19.135 0 36.821-6.322 51.08-16.986l13.337 29.027c.606 2.275-.252 3.613-2.572 4.013h-209.191c-2.32-.399-3.178-1.737-2.572-4.012l13.32-28.988c5.526 4.125 15.345 11.633 22.745 11.633 2.999 0 5.831-1.812 6.988-4.773 1.507-3.858-.399-8.208-4.258-9.715-30.755-12.011-49.341-44.753-43.864-77.335l25.421-151.291h173.632l3.381 20.124c.687 4.085 4.555 6.835 8.639 6.153 4.085-.687 6.84-4.555 6.154-8.64l-3.1-18.447c9.777-2.66 16.988-11.611 16.988-22.219 0-8.295-4.41-15.577-11.007-19.631l41.782-41.782c3.365-3.365 7.838-5.218 12.596-5.218 9.822 0 17.813 7.991 17.813 17.813v63.827c0 11.29-4.396 21.905-12.38 29.89l-53.065 53.071-3.679-21.892c-.686-4.084-4.555-6.835-8.639-6.153-4.085.687-6.84 4.555-6.154 8.64l16.09 95.754c.646 3.846.974 7.774.974 11.676.002 38.853-31.607 70.461-70.459 70.461zm168.367-239.173c0 18.123-7.058 35.161-19.874 47.976l-70.308 70.301-3.264-19.426 60.62-60.628c10.816-10.816 16.772-25.198 16.772-40.495v-63.827c0-18.094-14.72-32.813-32.813-32.813-8.764 0-17.004 3.413-23.203 9.61l-31.042 31.042 8.72-31.427 10.964-10.964c9.23-9.23 21.503-14.313 34.557-14.313 26.948 0 48.871 21.923 48.871 48.87z"/></svg>