<svg id="Capa_1" enable-background="new 0 0 512 512" height="512" viewBox="0 0 512 512" width="512" xmlns="http://www.w3.org/2000/svg"><g><path d="m372.503 134.833c-2.977-2.883-7.725-2.806-10.605.168-2.882 2.976-2.807 7.724.168 10.605 11.322 10.968 17.558 25.683 17.558 41.432v289.599c0 11.229-9.135 20.363-20.363 20.363h-44.009c-4.143 0-7.5 3.357-7.5 7.5s3.357 7.5 7.5 7.5h44.009c19.499 0 35.363-15.864 35.363-35.363v-289.599c-.001-19.847-7.856-38.387-22.121-52.205z"/><path d="m280.25 497h-127.51c-11.229 0-20.363-9.135-20.363-20.363v-289.378c0-28.588 20.5-52.546 48.744-56.966l24.017-3.759c15.467-2.422 26.693-15.541 26.693-31.196v-16.999h48.339v16.682c0 15.594 11.175 28.705 26.57 31.177 9.34 1.499 18.903 2.53 28.13 4.643 4.036.924 8.061-1.6 8.984-5.637.925-4.038-1.6-8.061-5.637-8.984-9.553-2.187-19.431-3.28-29.101-4.832-8.081-1.297-13.947-8.181-13.947-16.366v-17.423c5.015-1.766 8.626-6.538 8.626-12.149v-52.561c.001-7.107-5.781-12.889-12.888-12.889h-69.815c-7.106 0-12.888 5.782-12.888 12.889v52.561c0 5.611 3.611 10.384 8.626 12.149v17.739c0 8.218-5.893 15.105-14.012 16.376l-24.017 3.759c-17.102 2.677-32.719 11.395-43.973 24.547s-17.452 29.929-17.452 47.239v289.378c0 19.499 15.864 35.363 35.363 35.363h127.51c4.143 0 7.5-3.357 7.5-7.5s-3.356-7.5-7.499-7.5zm-57.046-433.661v-22.839h65.592v22.839zm65.592-48.339v10.5h-65.592v-10.5z"/><path d="m355.091 443.458v-231.458c0-15.163-12.337-27.5-27.5-27.5h-143.182c-15.164 0-27.5 12.337-27.5 27.5v41.75c0 4.143 3.358 7.5 7.5 7.5s7.5-3.357 7.5-7.5v-41.75c0-6.893 5.607-12.5 12.5-12.5h143.182c6.893 0 12.5 5.607 12.5 12.5v130.833h-168.182v-53.833c0-4.143-3.358-7.5-7.5-7.5s-7.5 3.357-7.5 7.5v154.458c0 15.163 12.336 27.5 27.5 27.5h143.182c15.163 0 27.5-12.337 27.5-27.5zm-15-85.625v19.667h-168.182v-19.667zm-168.182 85.625v-50.958h168.182v50.958c0 6.893-5.607 12.5-12.5 12.5h-22.424v-20.958c0-4.143-3.357-7.5-7.5-7.5h-83.333c-4.142 0-7.5 3.357-7.5 7.5v20.958h-22.425c-6.893 0-12.5-5.607-12.5-12.5zm49.925 12.5v-13.458h68.333v13.458z"/><path d="m268.148 284.52c-6.289 7.53-7.608 17.736-3.92 30.337.719 2.453 2.638 4.372 5.091 5.091 4.647 1.36 8.969 2.039 12.95 2.039 6.814 0 12.634-1.989 17.387-5.959 13.524-11.297 11.577-33.642 11.311-36.152-.373-3.516-3.15-6.293-6.666-6.666-2.513-.267-24.855-2.215-36.153 11.31zm11.496 9.635c3.507-4.221 10.746-5.688 16.441-6.065-.378 5.695-1.845 12.935-6.065 16.441-2.788 2.317-6.94 2.986-12.38 2.004-.983-5.438-.313-9.592 2.004-12.38z"/><path d="m207.701 273.209c-3.516.373-6.293 3.15-6.667 6.666-.267 2.511-2.213 24.855 11.311 36.152 4.753 3.97 10.572 5.959 17.387 5.959 3.981 0 8.304-.679 12.95-2.039 2.454-.719 4.373-2.638 5.091-5.092 3.688-12.6 2.369-22.807-3.92-30.336-11.298-13.523-33.643-11.576-36.152-11.31zm24.64 20.927c2.329 2.789 3.004 6.949 2.02 12.399-5.437.98-9.593.312-12.379-2.004-4.227-3.512-5.693-10.767-6.067-16.465 5.666.363 12.877 1.822 16.426 6.07z"/><path d="m260.714 218.344c-2.75-2.223-6.678-2.224-9.428 0-1.964 1.586-19.14 16.01-17.565 33.561.877 9.772 7.162 17.922 18.679 24.224 1.122.614 2.361.921 3.6.921s2.479-.307 3.6-.921c11.519-6.302 17.803-14.451 18.68-24.224 1.575-17.551-15.602-31.975-17.566-33.561zm2.625 32.22c-.324 3.619-2.789 7.038-7.339 10.196-4.54-3.151-7.003-6.562-7.337-10.171-.505-5.473 3.588-11.639 7.353-15.933 3.751 4.264 7.818 10.395 7.323 15.908z"/></g></svg>