<svg id="Capa_1" enable-background="new 0 0 512 512" height="512" viewBox="0 0 512 512" width="512" xmlns="http://www.w3.org/2000/svg"><g><path d="m79.274 43.78c-1.413 1.458-2.174 3.426-2.11 5.454l12.27 391.707c.398 12.869 10.798 22.949 23.676 22.949h196.08c12.878 0 23.278-10.08 23.677-22.946l12.27-391.71c.064-2.028-.698-3.996-2.11-5.454s-3.356-2.28-5.386-2.28h-252.981c-2.03 0-3.973.822-5.386 2.28zm250.627 12.72-12.028 383.979c-.146 4.717-3.96 8.412-8.684 8.412h-196.079c-4.723 0-8.537-3.695-8.683-8.415l-12.028-383.976z"/><path d="m458.429 135.711c-1.456-3.879-5.781-5.841-9.657-4.388-3.878 1.455-5.842 5.779-4.387 9.657 2.651 7.066 3.996 14.516 3.996 22.142v158.751c0 34.754-28.274 63.028-63.028 63.028-8.526 0-16.729-1.65-24.447-4.911l.83-24.132c6.979 4.494 15.112 6.902 23.618 6.902 24.106 0 43.718-19.611 43.718-43.718v-153.1c0-24.106-19.612-43.719-43.718-43.719-5.416 0-10.734 1.002-15.702 2.911l.799-23.28c4.849-1.177 9.842-1.771 14.903-1.771 15.262 0 29.987 5.526 41.463 15.561 3.118 2.727 7.855 2.41 10.583-.709 2.727-3.118 2.409-7.855-.709-10.582-14.21-12.427-32.442-19.27-51.337-19.27-4.854 0-9.658.458-14.373 1.337l2.699-78.664c.07-2.032-.689-4.006-2.102-5.469-1.414-1.461-3.361-2.287-5.395-2.287h-223.85c-4.142 0-7.5 3.357-7.5 7.5s3.358 7.5 7.5 7.5h216.088l-15.979 465.634c-.315 9.177-7.754 16.366-16.938 16.366h-228.707c-9.183 0-16.623-7.189-16.938-16.366l-15.978-465.634h42.786c4.142 0 7.5-3.357 7.5-7.5s-3.358-7.5-7.5-7.5h-50.547c-2.034 0-3.98.826-5.394 2.288-1.413 1.463-2.172 3.437-2.102 5.469l16.245 473.391c.593 17.3 14.618 30.852 31.928 30.852h228.708c17.311 0 31.335-13.552 31.929-30.853l2.929-85.348c8.019 2.7 16.493 4.102 24.99 4.102 43.025 0 78.028-35.003 78.028-78.028v-158.751c-.001-9.432-1.667-18.654-4.952-27.411zm-73.076 1.513c15.835 0 28.718 12.883 28.718 28.719v153.101c0 15.835-12.883 28.718-28.718 28.718-7.679 0-14.892-2.985-20.313-8.406-.958-.958-1.834-1.984-2.635-3.054l6.657-194.006c4.756-3.285 10.433-5.072 16.291-5.072z"/><path d="m136.442 152.7c4.289 4.29 9.992 6.652 16.058 6.652s11.769-2.362 16.057-6.651l20.211-20.212c4.29-4.289 6.652-9.991 6.652-16.058 0-6.065-2.362-11.768-6.651-16.058l-20.211-20.21c-4.289-4.29-9.992-6.652-16.058-6.652s-11.769 2.362-16.057 6.651l-20.211 20.211c-4.289 4.29-6.651 9.992-6.651 16.058s2.362 11.769 6.651 16.058zm-9.604-41.719 20.212-20.211c1.456-1.455 3.391-2.258 5.45-2.258s3.995.803 5.451 2.259l20.211 20.211c1.456 1.456 2.258 3.392 2.258 5.45 0 2.06-.802 3.995-2.258 5.45l-20.212 20.213c-1.456 1.455-3.391 2.258-5.45 2.258s-3.995-.803-5.45-2.258c0 0 0 0 0-.001l-20.212-20.212c-1.456-1.455-2.257-3.391-2.257-5.45-.001-2.059.801-3.994 2.257-5.451z"/><path d="m194.64 135.795c-8.853 8.854-8.853 23.26 0 32.114l20.211 20.212c4.289 4.289 9.992 6.651 16.057 6.651 6.066 0 11.769-2.362 16.057-6.651l20.212-20.213c8.853-8.854 8.853-23.26 0-32.114l-20.211-20.21c-4.289-4.29-9.992-6.652-16.058-6.652-6.065 0-11.768 2.362-16.057 6.651zm36.269-11.863c2.059 0 3.995.803 5.451 2.259l20.211 20.21c3.005 3.006 3.005 7.896 0 10.901l-20.212 20.213c-1.456 1.455-3.391 2.258-5.45 2.258s-3.995-.803-5.451-2.259l-20.211-20.211c-3.005-3.006-3.005-7.896 0-10.901l20.211-20.211c1.456-1.457 3.392-2.259 5.451-2.259z"/><path d="m145 184.754c-13.369 0-24.246 10.877-24.246 24.246s10.877 24.246 24.246 24.246 24.246-10.877 24.246-24.246-10.877-24.246-24.246-24.246zm0 33.492c-5.098 0-9.246-4.147-9.246-9.246s4.148-9.246 9.246-9.246 9.246 4.147 9.246 9.246-4.148 9.246-9.246 9.246z"/><path d="m257.492 342.861c13.369 0 24.246-10.877 24.246-24.247 0-13.369-10.877-24.246-24.246-24.246s-24.246 10.877-24.246 24.246c0 13.37 10.877 24.247 24.246 24.247zm0-33.493c5.098 0 9.246 4.147 9.246 9.246s-4.148 9.247-9.246 9.247-9.246-4.148-9.246-9.247 4.148-9.246 9.246-9.246z"/><path d="m287.896 123.932c13.369 0 24.246-10.877 24.246-24.246s-10.877-24.246-24.246-24.246c-13.37 0-24.247 10.877-24.247 24.246s10.877 24.246 24.247 24.246zm0-33.493c5.098 0 9.246 4.147 9.246 9.246s-4.148 9.246-9.246 9.246c-5.099 0-9.247-4.147-9.247-9.246s4.148-9.246 9.247-9.246z"/><path d="m260.159 202.419-47.285 43.56c-11.636 10.718-4.109 30.793 11.706 31.217l19.226.518c4.137.115 7.587-3.154 7.699-7.295s-3.155-7.588-7.295-7.699l-19.226-.518c-2.674-.072-3.912-3.379-1.946-5.19l47.285-43.561c1.21-1.116 3.061-1.099 4.215.037 4.781 4.71 8.705 10.099 11.683 15.933l-19.149 7.325c-3.869 1.479-5.805 5.815-4.325 9.685 1.143 2.987 3.988 4.822 7.006 4.822.891 0 1.796-.16 2.678-.497l18.91-7.233c1.325 5.734 1.849 11.677 1.466 17.667-.1 1.563-1.519 2.796-3.163 2.753l-9.966-.242c-.062-.001-.124-.002-.186-.002-4.058 0-7.395 3.239-7.494 7.317-.101 4.142 3.174 7.58 7.315 7.681l9.947.241c.168.005.336.007.504.007 9.539 0 17.404-7.287 18.012-16.798 1.413-22.103-6.865-43.732-22.712-59.344-6.863-6.762-17.802-6.931-24.905-.384z"/><path d="m203.388 345.852-64.495 5.162c-9.737.778-17.039 8.979-16.623 18.669.951 22.127 11.487 42.752 28.908 56.586 3.307 2.626 7.258 3.908 11.19 3.908 5.035 0 10.038-2.104 13.613-6.183l42.374-48.352c10.423-11.894.805-31.061-14.967-29.79zm3.686 19.904-42.374 48.351c-1.084 1.239-2.927 1.42-4.194.414-5.028-3.993-9.329-8.697-12.831-13.897l21.479-10.941c3.691-1.88 5.159-6.396 3.279-10.087-1.881-3.692-6.399-5.16-10.087-3.278l-21.465 10.934c-2.102-5.798-3.354-11.927-3.624-18.213-.067-1.564 1.203-2.942 2.832-3.072h.001l64.497-5.164c2.844-.218 4.148 3.058 2.487 4.953z"/><path d="m124.948 286.935v16.188c0 12.678 10.314 22.991 22.992 22.991h16.189c12.677 0 22.991-10.313 22.991-22.991v-16.188c0-12.678-10.314-22.991-22.991-22.991h-16.189c-12.678-.001-22.992 10.313-22.992 22.991zm47.172 0v16.188c0 4.406-3.585 7.991-7.991 7.991h-16.189c-4.407 0-7.992-3.585-7.992-7.991v-16.188c0-4.406 3.585-7.991 7.992-7.991h16.189c4.406-.001 7.991 3.584 7.991 7.991z"/><path d="m279.244 366.468h-16.189c-12.678 0-22.992 10.313-22.992 22.991v16.188c0 12.678 10.314 22.992 22.992 22.992h16.189c12.677 0 22.991-10.314 22.991-22.992v-16.188c0-12.678-10.314-22.991-22.991-22.991zm7.991 39.179c0 4.407-3.585 7.992-7.991 7.992h-16.189c-4.407 0-7.992-3.585-7.992-7.992v-16.188c0-4.406 3.585-7.991 7.992-7.991h16.189c4.406 0 7.991 3.585 7.991 7.991z"/><circle cx="214.553" cy="82.94" r="7.5"/><circle cx="197.489" cy="212.63" r="7.5"/></g></svg>