<svg id="Capa_1" enable-background="new 0 0 512.007 512.007" height="512" viewBox="0 0 512.007 512.007" width="512" xmlns="http://www.w3.org/2000/svg"><g><path d="m509.811 105.488-36.17-36.171c-1.406-1.406-3.314-2.196-5.303-2.196s-3.897.79-5.303 2.196l-70.193 70.193c-2.929 2.93-2.929 7.678 0 10.607 2.929 2.928 7.678 2.928 10.606 0l18.116-18.117 25.564 25.564-134.498 134.498-.016-.016c-.002-.002-.003-.003-.005-.005l-25.522-25.521c-.002-.002-.003-.003-.005-.005l-.016-.016 90.881-90.881c2.929-2.93 2.929-7.678 0-10.607-2.929-2.928-7.678-2.928-10.606 0l-96.185 96.185c-2.9 2.901-2.861 7.743.021 10.628l-21.637 21.637-16.589-53.624c-2.861-9.247-2.324-19.235 1.512-28.123l19.83-45.945c1-2.317.767-4.983-.62-7.093-1.387-2.109-3.742-3.379-6.267-3.379h-145.399c-4.142 0-7.5 3.357-7.5 7.5s3.358 7.5 7.5 7.5h133.993l-7.48 17.332h-178.929l-7.48-17.332h24.396c4.142 0 7.5-3.357 7.5-7.5s-3.358-7.5-7.5-7.5h-35.801c-2.524 0-4.879 1.27-6.267 3.379-1.387 2.109-1.62 4.775-.62 7.093l19.829 45.945c3.836 8.889 4.374 18.876 1.512 28.123l-40.5 130.917c-10.189 32.938-3.45 68.704 18.027 95.675.02.025.041.049.061.074.012.015.024.03.037.045 19.876 24.888 49.532 39.16 81.391 39.16h69.759c31.861 0 61.519-14.274 81.396-39.166.009-.011.018-.021.027-.032.022-.027.045-.054.066-.081 8.232-10.338 14.352-21.989 18.188-34.63 1.203-3.963-1.035-8.151-4.999-9.354-3.96-1.204-8.152 1.034-9.354 4.999-2.939 9.685-7.456 18.684-13.423 26.813h-213.565c-16.667-22.724-21.65-52.01-13.28-79.069l40.5-130.917c4.388-14.185 2.356-28.245-3.426-41.642h165.981c-5.783 13.399-7.815 27.453-3.426 41.642 0 0 42.947 134.386 44.204 150.209.312 3.928 3.595 6.907 7.468 6.906.199 0 .4-.008.603-.023 4.129-.328 7.21-3.941 6.882-8.07-1.222-15.382-6.638-30.006-11.167-44.646l40.695-40.695c2.884 2.887 7.727 2.921 10.627.021l191.877-191.877c2.931-2.93 2.931-7.678.002-10.608zm-405.635 385.22c-21.604 0-42.022-7.673-58.036-21.451h185.83c-16.013 13.779-36.431 21.451-58.036 21.451zm157.423-158.264-7.048-22.782 27.232-27.232 14.915 14.915zm196.135-185.485-25.564-25.564 36.167-36.167 25.564 25.564z"/><path d="m71.609 119.907c2.566 3.174 7.373 3.683 10.547 1.116 3.221-2.604 3.721-7.326 1.117-10.548-.143-.177-14.115-17.95.59-42.33 20.105-33.333.216-58.072-.64-59.108-2.637-3.193-7.384-3.667-10.578-1.029-3.193 2.638-3.663 7.342-1.025 10.535.573.718 13.871 17.86-.602 41.854-20.074 33.283-.263 58.454.591 59.51z"/><path d="m133.224 119.907c2.566 3.174 7.373 3.683 10.547 1.116 3.221-2.604 3.721-7.326 1.117-10.548-.143-.177-14.115-17.95.59-42.33 20.105-33.333.216-58.072-.64-59.108-2.638-3.193-7.384-3.667-10.578-1.029-3.193 2.638-3.663 7.342-1.025 10.535.573.718 13.871 17.86-.602 41.854-20.074 33.283-.263 58.454.591 59.51z"/><path d="m194.838 119.907c2.564 3.171 7.387 3.71 10.565 1.139 3.221-2.604 3.739-7.304 1.135-10.524-.577-.737-13.954-18.324.554-42.376 20.105-33.333.216-58.072-.64-59.108-2.638-3.193-7.385-3.667-10.578-1.029s-3.663 7.342-1.025 10.535c.573.718 13.871 17.86-.602 41.854-20.073 33.282-.262 58.453.591 59.509z"/></g></svg>