<svg id="Capa_1" enable-background="new 0 0 512 512" height="512" viewBox="0 0 512 512" width="512" xmlns="http://www.w3.org/2000/svg"><g><path d="m337.299 43.931h66.784c4.142 0 7.5-3.357 7.5-7.5v-28.931c0-4.143-3.358-7.5-7.5-7.5h-78.646c-17.829 0-32.334 14.505-32.334 32.334v87.545h-171.841c-11.494 0-20.845 9.351-20.845 20.845v350.432c0 11.494 9.351 20.845 20.845 20.845h269.477c11.494 0 20.845-9.351 20.845-20.845v-297.155c0-4.143-3.358-7.5-7.5-7.5s-7.5 3.357-7.5 7.5v30.499h-281.167v-83.776c0-3.223 2.622-5.845 5.845-5.845h269.477c3.223 0 5.845 2.622 5.845 5.845v16.776c0 4.143 3.358 7.5 7.5 7.5s7.5-3.357 7.5-7.5v-16.776c0-11.494-9.351-20.845-20.845-20.845h-53.704v-75.683c-.001-.146.118-.265.264-.265zm-221.882 335.782h62.432v38.787h-62.432zm281.166-140.213v224.96h-205.916c-4.142 0-7.5 3.357-7.5 7.5s3.358 7.5 7.5 7.5h205.917v11.695c0 3.223-2.622 5.845-5.845 5.845h-269.477c-3.223 0-5.845-2.622-5.845-5.845v-11.695h37.583c4.142 0 7.5-3.357 7.5-7.5s-3.358-7.5-7.5-7.5h-37.583v-30.96h69.932c4.142 0 7.5-3.357 7.5-7.5v-53.787c0-4.143-3.358-7.5-7.5-7.5h-69.932v-125.213zm-88.48-207.166c0-9.558 7.776-17.334 17.334-17.334h71.146v13.931h-59.284c-8.417 0-15.265 6.848-15.265 15.266v75.682h-13.931z"/><path d="m169.138 155.223c-4.142 0-7.5 3.357-7.5 7.5v35.887c0 4.143 3.358 7.5 7.5 7.5h173.724c4.142 0 7.5-3.357 7.5-7.5v-35.887c0-4.143-3.358-7.5-7.5-7.5zm166.224 35.886h-158.724v-20.887h158.724z"/><path d="m269.601 449.367c9.058 0 17.958-2.648 26.026-7.703 8.069 5.056 16.969 7.703 26.026 7.703 32.837 0 59.552-34.611 59.552-77.154 0-31.706-14.99-59.739-36.91-71.396 7.95-11.291 10.671-25.725 7.044-39.315-.692-2.595-2.719-4.62-5.313-5.313-16.204-4.324-33.624.344-45.462 12.183-8.109 8.11-12.851 18.839-13.646 30.001-9.416-3.681-19.847-4.316-29.617-1.68-3.999 1.079-6.366 5.196-5.287 9.195 1.079 3.998 5.195 6.368 9.195 5.287 10.48-2.828 21.351.092 29.825 6.654 3.999 3.142 11.303 2.991 15.976 2.871 9.27-.239 18.392-3.236 25.982-8.574 19.435 7.154 33.212 31.698 33.212 60.086 0 34.272-19.986 62.154-44.552 62.154-7.457 0-14.869-2.688-21.434-7.771-2.704-2.094-6.481-2.094-9.185 0-6.564 5.084-13.976 7.771-21.434 7.771-24.566 0-44.552-27.882-44.552-62.154 0-15.903 4.355-31.058 12.263-42.673 2.331-3.424 1.445-8.089-1.979-10.42s-8.089-1.445-10.42 1.979c-9.584 14.078-14.863 32.231-14.863 51.114.001 42.544 26.716 77.155 59.553 77.155zm32.417-143.857c-1.157-9.692 2.164-19.542 9.152-26.531 6.99-6.99 16.835-10.31 26.532-9.152 1.156 9.692-2.163 19.542-9.152 26.531-6.991 6.989-16.839 10.309-26.532 9.152z"/><path d="m185.349 328.167h-46c-4.142 0-7.5 3.357-7.5 7.5s3.358 7.5 7.5 7.5h46c4.142 0 7.5-3.357 7.5-7.5s-3.358-7.5-7.5-7.5z"/><path d="m139.349 315.167h46c4.142 0 7.5-3.357 7.5-7.5s-3.358-7.5-7.5-7.5h-46c-4.142 0-7.5 3.357-7.5 7.5s3.358 7.5 7.5 7.5z"/></g></svg>