<svg id="Capa_1" enable-background="new 0 0 511.99 511.99" height="512" viewBox="0 0 511.99 511.99" width="512" xmlns="http://www.w3.org/2000/svg"><g><path d="m505.681 272.38c-6.911-6.909-17.639-8.307-26.087-3.401l-40.233 23.361-24.993-24.993 24.465 5.349c4.048.888 8.045-1.679 8.929-5.726.885-4.046-1.679-8.044-5.726-8.929l-19.714-4.31c6.061-3.117 11.152-7.34 13.165-13.034 1.799-5.089 1.909-13.189-7.783-22.883-9.692-9.691-17.793-9.582-22.883-7.783-10.42 3.684-15.913 17.67-18.716 29.052l-10.936-10.937c11.25-13.18 18.605-29.081 21.422-45.972 6.979-34.566-9.646-71.864-37.622-92.312l-94.243-68.879c-2.984-2.182-7.114-1.862-9.729.751l-94.651 94.648-133.855-.002c-3.697 0-6.843 2.694-7.411 6.348l-17.929 115.348c-3.911 25.162 2.219 50.283 17.264 70.755.03.041.06.083.09.124 16.617 22.542 41.446 36.253 68.966 38.362v15.465c-10.03-6.067-23.806-12.075-33.78-7.313-4.871 2.326-10.677 7.977-10.677 21.685s5.806 19.358 10.677 21.685c2.522 1.205 5.289 1.721 8.176 1.721 3.35 0 6.863-.696 10.349-1.814l-10.893 16.989c-2.236 3.486-1.222 8.126 2.265 10.361 1.253.804 2.655 1.188 4.042 1.188 2.47 0 4.888-1.219 6.32-3.453l13.521-21.086v35.352l-44.967 11.93c-9.445 2.506-16.042 11.08-16.042 20.853 0 11.896 9.678 21.574 21.574 21.574h93.87c11.896 0 21.574-9.678 21.574-21.574 0-9.772-6.597-18.347-16.042-20.853l-44.967-11.93v-35.348l13.518 21.083c2.236 3.488 6.874 4.502 10.362 2.266 3.487-2.235 4.501-6.875 2.265-10.361l-10.893-16.989c3.486 1.118 6.999 1.814 10.349 1.814 2.886 0 5.655-.517 8.176-1.721 4.871-2.326 10.677-7.977 10.677-21.685s-5.806-19.358-10.677-21.685c-9.972-4.763-23.748 1.244-33.778 7.311v-15.468c24.961-1.971 48.191-13.712 64.619-32.893 17.904-20.905 25.936-49.151 21.709-76.344l-13.195-84.859 50.679 69.333c15.027 20.559 37.13 33.987 62.246 37.824 27.041 4.415 55.303-3.828 76.039-21.613l10.931 10.931c-11.382 2.802-25.372 8.295-29.056 18.716-1.799 5.089-1.909 13.189 7.783 22.883 6.721 6.72 12.676 8.728 17.393 8.728 2.086 0 3.93-.393 5.49-.944 5.694-2.013 9.916-7.104 13.034-13.165l4.31 19.715c.767 3.508 3.871 5.9 7.32 5.9.53 0 1.069-.057 1.608-.175 4.047-.885 6.61-4.883 5.726-8.929l-5.35-24.47 24.997 24.997-23.361 40.232c-4.906 8.451-3.507 19.179 3.402 26.089 4.075 4.074 9.493 6.318 15.255 6.318 5.763 0 11.181-2.244 15.256-6.318l66.376-66.376c8.412-8.413 8.412-22.1 0-30.514zm-95.862-48.207c.138-.049.303-.075.494-.075 1.235 0 3.562 1.102 6.782 4.323 3.719 3.718 4.613 6.243 4.249 7.275-1.282 3.634-10.909 7.494-21.303 9.77 2.268-10.383 6.128-20.003 9.778-21.293zm-148.759-187.29 89.057 65.088c23.737 17.35 36.192 47.121 31.912 76.216-1.898 3.023-8.625 12.242-21.634 15.24-15.548 3.584-34.61-2.738-56.651-18.788-25.329-18.444-48.764-25.673-69.657-21.476-13.507 2.712-22.957 9.697-28.698 15.382l-32.089-43.901zm-245.087 203.497 16.942-109 124.112.002 16.948 108.997c.637 4.099.945 8.207.946 12.293h-159.909c.01-4.077.322-8.183.961-12.292zm44.181 144.922c-.987-.472-2.141-2.89-2.141-8.148s1.153-7.677 2.141-8.148c.533-.255 1.207-.375 2-.375 4.383 0 12.379 3.665 19.962 8.523-8.955 5.736-18.486 9.809-21.962 8.148zm88.325 85.576c0 3.625-2.949 6.574-6.574 6.574h-93.87c-3.625 0-6.574-2.949-6.574-6.574 0-2.978 2.01-5.591 4.888-6.354l48.621-12.898 48.621 12.898c2.878.763 4.888 3.376 4.888 6.354zm-18.695-101.873c.987.472 2.141 2.89 2.141 8.148s-1.153 7.677-2.141 8.148c-3.478 1.661-13.007-2.411-21.962-8.148 8.955-5.736 18.486-9.811 21.962-8.148zm25.913-64.343c-15.21 17.76-37.345 27.946-60.729 27.949-.008 0-.011 0-.019 0-25.611 0-49.039-11.826-64.292-32.451-.027-.038-.055-.077-.083-.115-7.197-9.764-11.977-20.791-14.175-32.372h157.107c-2.584 13.514-8.64 26.283-17.809 36.989zm135.341-59.078c-.044-.007-.089-.015-.133-.021-21.188-3.206-39.837-14.522-52.513-31.864l-24.017-32.857c3.816-4.193 11.323-10.695 22.663-12.971 16.607-3.334 36.079 3.022 57.874 18.894 20.675 15.056 39.697 22.634 56.74 22.634 7.351 0 14.715-1.464 21.42-4.502-3.609 6.594-8.163 12.716-13.596 18.152-17.284 18.192-43.895 26.209-68.438 22.535zm81.071 39.347c-1.026.36-3.557-.527-7.276-4.248-3.719-3.718-4.613-6.243-4.249-7.275 1.282-3.634 10.909-7.494 21.303-9.77-2.268 10.383-6.128 20.003-9.778 21.293zm122.965 7.354-66.376 66.376c-2.562 2.563-6.732 2.564-9.296 0-2.106-2.105-2.532-5.375-1.037-7.95l25.258-43.501 43.503-25.259c2.574-1.494 5.844-1.067 7.948 1.036 2.564 2.563 2.564 6.735 0 9.298z"/><circle cx="256.005" cy="194.382" r="7.5"/></g></svg>