<svg id="Capa_1" enable-background="new 0 0 512 512" height="512" viewBox="0 0 512 512" width="512" xmlns="http://www.w3.org/2000/svg"><g><path d="m408.095 162.478h-5.998c-3.318-27.201-24.439-49.523-52.518-55.33-1.254-24.506-19.891-45.468-45.248-50.394-6.979-1.353-13.178-3.79-18.372-7.207-9.124-6.067-16.316-14.337-19.486-24.981-1.737-5.83-2.189-12.128-3.049-18.13-.361-2.529-1.986-4.7-4.312-5.761-2.325-1.06-5.03-.863-7.177.521l-20.739 13.374c-13.283 8.568-21.214 22.834-21.214 38.162 0 1.204.05 2.407.147 3.605-26.159 3.946-46.423 25.054-47.714 50.829-12.428 2.604-23.996 8.575-33.095 17.205-10.947 10.382-17.678 23.705-19.422 38.106h-5.995c-12.192 0-22.112 9.92-22.112 22.113 0 0 .073 71.905.218 72.492l31.376 127.377c.99 4.021 5.053 6.479 9.076 5.488 4.021-.99 6.479-5.054 5.488-9.076l-31.156-126.491v-69.788c0-3.922 3.19-7.113 7.112-7.113h5.525s.063 74.642.188 75.188l43.418 190.5c.777 3.412 3.813 5.833 7.313 5.833h191.303c3.5 0 6.535-2.421 7.313-5.833 0 0 43.605-191.606 43.605-192.167v-73.521h5.525c3.922 0 7.112 3.191 7.112 7.113v69.788l-50.423 204.704h-217.568l-10.689-43.397c-.99-4.021-5.052-6.48-9.076-5.488-4.021.99-6.479 5.054-5.488 9.076l10.021 40.683c-11.334 2.989-19.716 13.325-19.716 25.584 0 14.589 11.869 26.458 26.458 26.458h234.551c14.589 0 26.458-11.869 26.458-26.458 0-12.259-8.383-22.595-19.716-25.584 0 0 50.19-204.063 50.19-204.667v-70.698c-.002-12.195-9.922-22.115-22.114-22.115zm-20.526 34.712h-263.138v-19.712h263.139v19.712zm-247.926-61.934c9.943-9.429 23.527-14.588 37.189-14.588h28.5c4.143 0 7.5-3.357 7.5-7.5s-3.357-7.5-7.5-7.5h-27.752c2.197-19.637 19.935-34.993 41.423-34.993 2.367 0 4.596-1.118 6.012-3.016 1.415-1.897 1.852-4.353 1.178-6.621-.804-2.702-1.211-5.497-1.211-8.306 0-10.209 5.362-19.763 14.344-25.557l10.908-7.033c2.377 17.627 12.817 32.188 27.426 41.9 6.893 4.535 14.905 7.71 23.813 9.437 17.78 3.454 31.042 17.494 32.936 34.188h-93.409c-4.143 0-7.5 3.357-7.5 7.5s3.357 7.5 7.5 7.5h94.167c24.492 0 47.771 17.018 51.799 41.811h-261.935c1.656-10.249 6.701-19.72 14.612-27.222zm206.025 298.744h-179.336l-27.524-120.761h148.692c4.143 0 7.5-3.357 7.5-7.5s-3.357-7.5-7.5-7.5h-152.11l-10.959-48.083v-37.966h263.139v37.966l-10.959 48.083h-52.611c-4.143 0-7.5 3.357-7.5 7.5s3.357 7.5 7.5 7.5h49.192zm39.065 51.542c0 6.318-5.14 11.458-11.458 11.458h-234.55c-6.318 0-11.458-5.14-11.458-11.458s5.14-11.458 11.458-11.458h234.551c6.318 0 11.457 5.139 11.457 11.458z"/><circle cx="184.092" cy="351.744" r="7.5"/><circle cx="199.092" cy="371.83" r="7.5"/><circle cx="327.908" cy="246.727" r="7.5"/></g></svg>