<?xml version="1.0" encoding="iso-8859-1"?>
<!-- Generator: Adobe Illustrator 19.0.0, SVG Export Plug-In . SVG Version: 6.00 Build 0)  -->
<svg version="1.1" id="Capa_1" xmlns="http://www.w3.org/2000/svg" xmlns:xlink="http://www.w3.org/1999/xlink" x="0px" y="0px"
	 viewBox="0 0 511.999 511.999" style="enable-background:new 0 0 511.999 511.999;" xml:space="preserve">
<g>
	<g>
		<path d="M399.115,287.857c-1.86-1.861-4.44-2.931-7.071-2.931s-5.212,1.069-7.072,2.931c-1.861,1.862-2.931,4.441-2.931,7.072
			s1.069,5.212,2.931,7.071c1.861,1.862,4.441,2.932,7.072,2.932s5.212-1.07,7.071-2.932c1.861-1.86,2.932-4.44,2.932-7.071
			S400.976,289.718,399.115,287.857z"/>
	</g>
</g>
<g>
	<g>
		<path d="M349.099,189.826c-1.86-1.861-4.44-2.931-7.071-2.931s-5.212,1.069-7.072,2.931c-1.861,1.862-2.931,4.441-2.931,7.072
			s1.069,5.212,2.931,7.071c1.861,1.862,4.441,2.932,7.072,2.932s5.212-1.07,7.071-2.932c1.861-1.86,2.932-4.44,2.932-7.071
			S350.96,191.686,349.099,189.826z"/>
	</g>
</g>
<g>
	<g>
		<path d="M271.073,185.824c-1.86-1.861-4.431-2.931-7.071-2.931c-2.631,0-5.212,1.069-7.072,2.931
			c-1.861,1.862-2.931,4.441-2.931,7.072s1.069,5.212,2.931,7.071c1.861,1.862,4.441,2.932,7.072,2.932s5.212-1.07,7.071-2.932
			c1.861-1.86,2.932-4.44,2.932-7.071S272.935,187.685,271.073,185.824z"/>
	</g>
</g>
<g>
	<g>
		<path d="M127.027,197.828c-1.86-1.861-4.44-2.931-7.071-2.931c-2.631,0-5.212,1.069-7.072,2.931
			c-1.861,1.862-2.931,4.441-2.931,7.072s1.069,5.212,2.931,7.071c1.861,1.862,4.441,2.932,7.072,2.932
			c2.631,0,5.212-1.07,7.071-2.932c1.861-1.86,2.932-4.44,2.932-7.071C129.959,202.259,128.888,199.689,127.027,197.828z"/>
	</g>
</g>
<g>
	<g>
		<path d="M132.028,343.875c-1.86-1.861-4.44-2.931-7.071-2.931s-5.212,1.069-7.072,2.931c-1.861,1.862-2.931,4.441-2.931,7.072
			s1.069,5.212,2.931,7.071c1.861,1.862,4.441,2.932,7.072,2.932s5.212-1.07,7.071-2.932c1.861-1.86,2.932-4.44,2.932-7.071
			S133.89,345.736,132.028,343.875z"/>
	</g>
</g>
<g>
	<g>
		<path d="M171.041,383.888c-1.86-1.861-4.44-2.931-7.071-2.931s-5.212,1.069-7.072,2.931c-1.861,1.862-2.931,4.441-2.931,7.072
			s1.069,5.212,2.931,7.071c1.861,1.862,4.441,2.932,7.072,2.932s5.212-1.07,7.071-2.932c1.861-1.86,2.932-4.44,2.932-7.071
			S172.903,385.749,171.041,383.888z"/>
	</g>
</g>
<g>
	<g>
		<path d="M448.062,53.238h-46.065l-42.544-42.544C352.557,3.798,343.388,0,333.635,0c-9.753,0-18.922,3.798-25.818,10.693
			l-42.543,42.544h-37.109c-6.69-8.518-17.072-14.005-28.717-14.005H138.46c-11.646,0-22.027,5.487-28.717,14.005H63.937
			c-5.524,0-10.003,4.479-10.003,10.003v408.745c0,22.063,17.95,40.013,40.013,40.013h324.105c22.063,0,40.013-17.95,40.013-40.013
			V63.242C458.065,57.717,453.586,53.238,448.062,53.238z M278.84,67.965l43.124-43.124c3.218-3.218,7.443-4.827,11.671-4.827
			s8.453,1.609,11.671,4.827l43.124,43.123c6.435,6.437,6.436,16.907,0,23.343l-43.124,43.125
			c-3.117,3.117-7.262,4.835-11.671,4.835c-4.408,0-8.554-1.718-11.671-4.836L278.84,91.307
			C272.404,84.872,272.405,74.401,278.84,67.965z M121.956,75.746c0-9.101,7.404-16.505,16.505-16.505h60.987
			c9.101,0,16.505,7.404,16.505,16.505v60.988c0,9.101-7.404,16.505-16.505,16.505h-60.987c-9.101,0-16.505-7.404-16.505-16.505
			V75.746z M73.939,73.245h28.105c-0.056,0.827-0.095,1.66-0.095,2.501v60.988c0,20.133,16.379,36.512,36.512,36.512h60.987
			c20.133,0,36.512-16.379,36.512-36.512V75.746c0-0.841-0.039-1.674-0.095-2.501h18.72c-2.002,11.347,1.36,23.463,10.107,32.209
			l43.124,43.123c6.896,6.897,16.065,10.695,25.818,10.695s18.922-3.799,25.818-10.694l43.124-43.124
			c8.747-8.747,12.11-20.863,10.107-32.209h25.373v173.669h-80.359c-5.524,0-10.003,4.479-10.003,10.003
			c0,5.524,4.479,10.003,10.003,10.003h80.359v112.036c0,20.96-17.053,38.012-38.012,38.012h-18.964
			c2.526-4.961,3.959-10.567,3.959-16.505v-60.987c0-20.133-16.379-36.512-36.512-36.512h-60.986c-4.518,0-8.844,0.83-12.841,2.338
			c4.477-6.179,6.899-13.581,6.899-21.361c0-9.753-3.798-18.922-10.693-25.818L227.783,215
			c-6.896-6.896-16.065-10.693-25.818-10.693c-9.753,0-18.922,3.798-25.818,10.693l-31.927,31.926
			c-0.086-0.002-0.17-0.013-0.257-0.013H73.939V73.245z M365.035,339.477v60.987c0,9.101-7.404,16.505-16.505,16.505h-60.987
			c-9.1,0-16.505-7.404-16.505-16.505v-60.987c0-9.101,7.404-16.505,16.505-16.505h60.987
			C357.63,322.972,365.035,330.376,365.035,339.477z M133.023,309.761l43.124,43.124c6.896,6.896,16.065,10.693,25.818,10.693
			c9.753,0,18.922-3.798,25.818-10.693l25.219-25.22c-1.271,3.708-1.972,7.678-1.972,11.812v60.987
			c0,5.938,1.435,11.545,3.959,16.505H111.953c-20.96,0-38.012-17.052-38.012-38.012V266.921h52.584
			c-2.739,5.185-4.195,10.991-4.195,17.023C122.329,293.696,126.127,302.865,133.023,309.761z M213.637,338.738
			c-6.436,6.436-16.905,6.436-23.342,0l-43.124-43.124c-6.436-6.436-6.436-16.905,0-23.342l43.124-43.124
			c3.218-3.218,7.443-4.827,11.671-4.827s8.453,1.609,11.671,4.827l43.124,43.124c6.435,6.435,6.435,16.906,0,23.342
			L213.637,338.738z M438.059,471.987c0,11.032-8.975,20.007-20.007,20.007H93.947c-11.032,0-20.006-8.975-20.006-20.007v-49.254
			c10.19,8.86,23.481,14.243,38.012,14.243h175.59h60.987h51.517c14.532,0,27.822-5.383,38.012-14.243V471.987z"/>
	</g>
</g>
<g>
	<g>
		<path d="M322.09,249.845c-1.86-1.861-4.44-2.931-7.071-2.931s-5.212,1.069-7.072,2.931c-1.861,1.862-2.931,4.441-2.931,7.072
			c0,2.631,1.069,5.212,2.931,7.071c1.861,1.862,4.441,2.932,7.072,2.932s5.212-1.07,7.071-2.932c1.861-1.86,2.932-4.44,2.932-7.071
			C325.022,254.286,323.952,251.706,322.09,249.845z"/>
	</g>
</g>
<g>
</g>
<g>
</g>
<g>
</g>
<g>
</g>
<g>
</g>
<g>
</g>
<g>
</g>
<g>
</g>
<g>
</g>
<g>
</g>
<g>
</g>
<g>
</g>
<g>
</g>
<g>
</g>
<g>
</g>
</svg>
