<?xml version="1.0" encoding="iso-8859-1"?>
<!-- Generator: Adobe Illustrator 19.0.0, SVG Export Plug-In . SVG Version: 6.00 Build 0)  -->
<svg version="1.1" id="Capa_1" xmlns="http://www.w3.org/2000/svg" xmlns:xlink="http://www.w3.org/1999/xlink" x="0px" y="0px"
	 viewBox="0 0 512 512" style="enable-background:new 0 0 512 512;" xml:space="preserve">
<g>
	<g>
		<path d="M478.459,33.54c-44.722-44.72-117.487-44.72-162.208,0c-3.905,3.905-3.905,10.238,0,14.144l60.976,60.976H10.001
			C4.478,108.661,0,113.14,0,118.662v16.919c0,52.388,42.622,95.01,95.01,95.01c2.757,0,5.001,2.243,5.001,5.001v5.939
			c0,45.821,30.368,84.679,72.033,97.513v119.055l-51.858,21.699c-7.453,3.118-11.548,10.828-9.958,18.749
			c1.59,7.922,8.344,13.453,16.423,13.453h150.743c8.082,0,14.835-5.534,16.424-13.458c1.588-7.924-2.511-15.634-9.968-18.748
			l-51.798-21.638V339.028c41.639-12.85,71.983-51.695,71.983-97.498v-5.939c0-2.757,2.243-5,5.001-5
			c52.389,0,95.01-42.622,95.01-95.01v-0.104l60.273,60.273c1.953,1.952,4.512,2.929,7.072,2.929c2.559,0,5.119-0.977,7.072-2.929
			C523.18,151.028,523.18,78.262,478.459,33.54z M261.172,491.998H142.847l43.059-18.018c3.719-1.556,6.141-5.194,6.141-9.226
			V343.052c3.283,0.32,6.61,0.489,9.976,0.489c3.383,0,6.727-0.17,10.026-0.493v121.769c-0.001,4.034,2.423,7.674,6.146,9.229
			L261.172,491.998z M384.041,135.581c0,41.359-33.649,75.008-75.008,75.008c-13.786,0-25.003,11.216-25.003,25.003v5.939
			c0,45.22-36.789,82.009-82.009,82.009c-45.22,0-82.009-36.789-82.009-82.009v-5.939c0-13.786-11.216-25.003-25.003-25.003
			c-26.498,0-49.811-13.822-63.159-34.624h270.18c5.523,0,10.001-4.478,10.001-10.001s-4.478-10.001-10.001-10.001H22.839
			c-1.834-6.486-2.837-13.317-2.837-20.382v-6.918h364.038V135.581z M392.98,96.128l-28.236-28.236
			c9.496-6.654,20.773-10.252,32.61-10.252c1.97,0,3.924,0.104,5.859,0.3L392.98,96.128z M444.109,147.255l-28.236-28.236
			l38.189-10.233c0.196,1.934,0.299,3.888,0.299,5.859C454.361,126.481,450.763,137.759,444.109,147.255z M412.89,99.111
			l9.558-35.67c5.565,2.732,10.705,6.383,15.218,10.894c4.513,4.511,8.162,9.653,10.894,15.218L412.89,99.111z M471.017,174.163
			l-12.604-12.604c10.334-13.393,15.952-29.717,15.952-46.913c0-20.569-8.011-39.907-22.555-54.453
			c-14.546-14.544-33.884-22.555-54.453-22.555c-17.196,0-33.521,5.618-46.914,15.952l-12.604-12.604
			c37.154-30.065,91.946-27.831,126.478,6.701C498.85,82.217,501.082,137.009,471.017,174.163z"/>
	</g>
</g>
<g>
	<g>
		<path d="M346.106,158.893c-1.859-1.86-4.439-2.93-7.07-2.93s-5.211,1.069-7.071,2.93c-1.86,1.861-2.93,4.44-2.93,7.071
			c0,2.63,1.069,5.211,2.93,7.07c1.86,1.86,4.44,2.931,7.071,2.931s5.211-1.07,7.07-2.931c1.86-1.859,2.931-4.439,2.931-7.07
			C349.037,163.334,347.967,160.754,346.106,158.893z"/>
	</g>
</g>
<g>
</g>
<g>
</g>
<g>
</g>
<g>
</g>
<g>
</g>
<g>
</g>
<g>
</g>
<g>
</g>
<g>
</g>
<g>
</g>
<g>
</g>
<g>
</g>
<g>
</g>
<g>
</g>
<g>
</g>
</svg>
