<?xml version="1.0" encoding="iso-8859-1"?>
<!-- Generator: Adobe Illustrator 19.0.0, SVG Export Plug-In . SVG Version: 6.00 Build 0)  -->
<svg version="1.1" id="Capa_1" xmlns="http://www.w3.org/2000/svg" xmlns:xlink="http://www.w3.org/1999/xlink" x="0px" y="0px"
	 viewBox="0 0 512.001 512.001" style="enable-background:new 0 0 512.001 512.001;" xml:space="preserve">
<g>
	<g>
		<path d="M482.464,57.343c-1.897-2.127-4.612-3.344-7.463-3.344h-99.655V10c0-5.522-4.478-10-10-10c-5.522,0-10,4.478-10,10v43.999
			H37.001c-2.851,0-5.565,1.217-7.463,3.344c-1.897,2.128-2.797,4.964-2.472,7.796L59.012,343.63c0,0.004,0,0.009,0.001,0.013
			c0.002,0.019,0.005,0.037,0.007,0.056l15.804,137.774c1.995,17.404,16.712,30.528,34.23,30.528h293.891
			c17.519,0,32.235-13.124,34.23-30.528l15.805-137.774c0.002-0.019,0.005-0.037,0.007-0.056c0-0.004,0-0.009,0.001-0.013
			l31.946-278.491C485.261,62.307,484.362,59.471,482.464,57.343z M356.227,133.967c3.044-0.815,6.101-1.204,9.111-1.204
			c15.557,0,29.831,10.396,34.045,26.119c5.028,18.768-6.15,38.129-24.917,43.157c-9.094,2.437-18.587,1.186-26.738-3.521
			c-8.15-4.706-13.981-12.305-16.417-21.396c-2.436-9.092-1.186-18.587,3.521-26.738
			C339.537,142.234,347.136,136.403,356.227,133.967z M417.308,479.193c-0.838,7.302-7.012,12.808-14.361,12.808H109.056
			c-7.35,0-13.523-5.506-14.361-12.808l-8.724-76.052c19.598,21.585,47.853,34.968,78.967,34.968h126.229h54.275h1.623
			c31.115,0,59.369-13.384,78.967-34.968L417.308,479.193z M345.442,336.652c7.494,0,13.592,6.098,13.592,13.592v54.275
			c0,7.494-6.098,13.591-13.592,13.591h-54.275c-7.495-0.001-13.592-6.097-13.592-13.591v-54.275
			c0-7.494,6.098-13.592,13.592-13.592H345.442z M294.771,289.333c0-0.652,0.16-1.906,1.234-2.979l23.076-23.076
			c1.073-1.074,2.327-1.234,2.979-1.234c0.652,0,1.906,0.16,2.979,1.234l23.076,23.076c1.074,1.073,1.234,2.327,1.234,2.979
			c0,0.651-0.16,1.905-1.234,2.979l-23.076,23.076c-1.073,1.074-2.327,1.234-2.979,1.234c-0.651,0-1.905-0.16-2.979-1.234
			l-23.076-23.076C294.931,291.239,294.771,289.985,294.771,289.333z M433.113,341.399c-3.789,32.904-25.666,59.714-55.018,70.976
			c0.607-2.522,0.937-5.15,0.937-7.856v-54.275c0-16.453-11.893-30.171-27.532-33.034l10.755-10.755
			c4.573-4.573,7.092-10.654,7.092-17.121c0-6.468-2.519-12.549-7.092-17.122l-23.076-23.076
			c-4.573-4.573-10.654-7.092-17.122-7.092c-6.467,0-12.548,2.519-17.121,7.092l-23.076,23.076
			c-4.573,4.573-7.092,10.654-7.092,17.122c0,6.467,2.519,12.548,7.092,17.121l10.197,10.197h-0.893
			c-18.522,0-33.592,15.069-33.592,33.592v54.275c0,4.836,1.035,9.432,2.883,13.591h-95.52c-44.027,0-81.014-32.977-86.05-76.711
			l-23.93-208.643h35.113l-11.291,11.291c-4.684,4.685-7.264,10.912-7.264,17.536c0,6.624,2.58,12.852,7.264,17.536l24.027,24.027
			c4.685,4.685,10.912,7.264,17.536,7.264c6.625,0,12.853-2.58,17.536-7.264l24.028-24.027c4.684-4.685,7.263-10.912,7.263-17.536
			c0-6.624-2.579-12.852-7.263-17.536l-11.292-11.291h39.457c5.522,0,10-4.478,10-10c0-5.522-4.478-10-10-10H52.66l-4.446-38.757
			c0,0,307.132,0,307.132,0v38.757h-64.345c-5.522,0-10,4.478-10,10c0,5.522,4.478,10,10,10h31.819
			c-1.957,2.372-3.742,4.912-5.31,7.629c-7.377,12.777-9.336,27.663-5.518,41.914c3.818,14.252,12.958,26.163,25.735,33.54
			c8.512,4.914,17.957,7.425,27.529,7.425c4.797,0,9.627-0.631,14.385-1.906c29.42-7.883,46.941-38.23,39.059-67.651
			c-2.128-7.943-5.906-15.008-10.85-20.95h49.197L433.113,341.399z M91.514,161.583c0-0.743,0.183-2.171,1.406-3.394l24.026-24.027
			c0.937-0.936,2.165-1.403,3.395-1.403s2.458,0.468,3.394,1.403l24.028,24.027c1.223,1.223,1.405,2.652,1.405,3.394
			s-0.182,2.171-1.405,3.394l-24.028,24.028c-1.224,1.223-2.651,1.405-3.394,1.405s-2.17-0.183-3.394-1.406L92.92,164.977
			C91.696,163.754,91.514,162.326,91.514,161.583z M459.343,112.756h-83.997V73.999h88.443L459.343,112.756z"/>
	</g>
</g>
<g>
	<g>
		<path d="M209.319,326.834c-7.699-28.737-37.343-45.852-66.08-38.152c-13.922,3.73-25.557,12.658-32.763,25.14
			c-7.206,12.48-9.12,27.021-5.39,40.941c6.452,24.079,28.307,39.998,52.129,39.997c4.609,0,9.294-0.597,13.952-1.845
			C199.904,385.215,217.02,355.57,209.319,326.834z M165.992,373.597c-18.082,4.849-36.739-5.925-41.587-24.01
			c-2.348-8.761-1.143-17.911,3.392-25.766c4.535-7.855,11.857-13.474,20.618-15.821c2.926-0.784,5.895-1.172,8.844-1.172
			c5.883,0,11.69,1.544,16.922,4.564c7.855,4.535,13.474,11.857,15.821,20.617C194.847,350.095,184.077,368.751,165.992,373.597z"/>
	</g>
</g>
<g>
	<g>
		<path d="M251.407,183.315h-42.728c-15.775-0.001-28.609,12.833-28.609,28.609v42.728c0,15.775,12.834,28.609,28.609,28.609h42.728
			c15.775,0,28.609-12.834,28.609-28.609v-42.728C280.016,196.149,267.182,183.315,251.407,183.315z M260.016,254.652
			c0,4.747-3.862,8.609-8.609,8.609h-42.728c-4.747,0-8.609-3.862-8.609-8.609v-42.728c0-4.747,3.862-8.609,8.609-8.609h42.728
			c4.747,0,8.609,3.862,8.609,8.609V254.652z"/>
	</g>
</g>
<g>
	<g>
		<path d="M240.811,373.86c-1.859-1.87-4.43-2.93-7.069-2.93c-2.631,0-5.21,1.061-7.07,2.93c-1.86,1.86-2.93,4.44-2.93,7.07
			s1.069,5.21,2.93,7.07c1.86,1.859,4.439,2.93,7.07,2.93c2.64,0,5.21-1.07,7.069-2.93c1.87-1.86,2.931-4.44,2.931-7.07
			C243.742,378.29,242.681,375.72,240.811,373.86z"/>
	</g>
</g>
<g>
	<g>
		<path d="M121.521,245.66c-1.859-1.86-4.439-2.931-7.069-2.931c-2.631,0-5.21,1.07-7.07,2.931c-1.86,1.859-2.93,4.439-2.93,7.069
			s1.069,5.21,2.93,7.07c1.861,1.86,4.439,2.93,7.07,2.93c2.63,0,5.21-1.069,7.069-2.93c1.86-1.86,2.931-4.44,2.931-7.07
			S123.382,247.519,121.521,245.66z"/>
	</g>
</g>
<g>
	<g>
		<path d="M391.271,243.88c-1.87-1.86-4.439-2.93-7.08-2.93c-2.63,0-5.21,1.069-7.069,2.93c-1.86,1.86-2.931,4.439-2.931,7.07
			c0,2.63,1.07,5.21,2.931,7.069c1.859,1.861,4.439,2.931,7.069,2.931c2.641,0,5.21-1.07,7.08-2.931
			c1.86-1.859,2.931-4.439,2.931-7.069C394.202,248.319,393.132,245.74,391.271,243.88z"/>
	</g>
</g>
<g>
	<g>
		<path d="M417.081,326.67c-1.86-1.86-4.431-2.93-7.07-2.93c-2.63,0-5.21,1.069-7.07,2.93c-1.859,1.86-2.93,4.439-2.93,7.07
			c0,2.63,1.07,5.21,2.93,7.069c1.87,1.871,4.44,2.931,7.07,2.931c2.64,0,5.21-1.061,7.07-2.931c1.859-1.859,2.93-4.439,2.93-7.069
			C420.011,331.109,418.941,328.53,417.081,326.67z"/>
	</g>
</g>
<g>
	<g>
		<path d="M248.07,115.68c-1.859-1.86-4.439-2.92-7.069-2.92s-5.21,1.06-7.07,2.92c-1.86,1.87-2.93,4.44-2.93,7.08
			c0,2.63,1.069,5.2,2.93,7.07c1.861,1.859,4.441,2.93,7.07,2.93c2.63,0,5.21-1.07,7.069-2.93c1.86-1.87,2.931-4.44,2.931-7.07
			C251.001,120.12,249.931,117.55,248.07,115.68z"/>
	</g>
</g>
<g>
</g>
<g>
</g>
<g>
</g>
<g>
</g>
<g>
</g>
<g>
</g>
<g>
</g>
<g>
</g>
<g>
</g>
<g>
</g>
<g>
</g>
<g>
</g>
<g>
</g>
<g>
</g>
<g>
</g>
</svg>
