<?xml version="1.0" encoding="iso-8859-1"?>
<!-- Generator: Adobe Illustrator 19.0.0, SVG Export Plug-In . SVG Version: 6.00 Build 0)  -->
<svg version="1.1" id="Capa_1" xmlns="http://www.w3.org/2000/svg" xmlns:xlink="http://www.w3.org/1999/xlink" x="0px" y="0px"
	 viewBox="0 0 512 512" style="enable-background:new 0 0 512 512;" xml:space="preserve">
<g>
	<g>
		<path d="M407.069,57.29c-1.859-1.86-4.439-2.931-7.069-2.931s-5.21,1.07-7.07,2.931c-1.86,1.87-2.93,4.439-2.93,7.069
			c0,2.641,1.069,5.221,2.93,7.08c1.86,1.861,4.44,2.931,7.07,2.931s5.21-1.07,7.069-2.931C408.93,69.569,410,67,410,64.359
			C410,61.729,408.93,59.16,407.069,57.29z"/>
	</g>
</g>
<g>
	<g>
		<path d="M455.584,3.482C453.685,1.271,450.915,0,448,0H64c-2.915,0-5.685,1.271-7.584,3.482c-1.9,2.211-2.741,5.141-2.302,8.022
			l72.466,476.158C128.727,501.765,140.637,512,154.901,512h202.197c14.265,0,26.175-10.235,28.321-24.337l72.466-476.158
			C458.325,8.623,457.484,5.693,455.584,3.482z M365.647,484.653C365,488.91,361.404,492,357.099,492H154.901
			c-4.306,0-7.901-3.09-8.55-7.347l-9.073-59.616c0.745,0.686,1.491,1.371,2.261,2.033c16.457,14.142,37.47,21.93,59.168,21.93
			h114.584c21.698,0,42.711-7.788,59.168-21.93c0.77-0.662,1.516-1.348,2.261-2.033L365.647,484.653z M383.272,368.864
			c0,0.001-0.001,0.003-0.001,0.004C377.967,403.71,348.537,429,313.292,429H198.708c-35.245,0-64.675-25.29-69.978-60.133
			c0-0.001-0.001-0.003-0.001-0.004L83.91,74.365h105.474l-37.991,37.992c-14.23,14.232-14.23,37.389,0,51.619l41.738,41.739
			c-4.333-1.773-9.012-2.706-13.834-2.706c-9.75,0-18.916,3.797-25.81,10.69l-18.796,18.795c0,0,0,0,0,0.001
			c-14.23,14.231-14.23,37.388,0,51.618l18.796,18.796c7.115,7.115,16.462,10.673,25.809,10.673c5.528,0,11.053-1.255,16.119-3.744
			V360.5c0,20.126,16.374,36.5,36.5,36.5h60.967c20.126,0,36.5-16.374,36.5-36.5v-51.636c4.206,1.656,8.725,2.531,13.381,2.531
			c9.75,0,18.916-3.797,25.81-10.69l29.573-29.573L383.272,368.864z M167.629,227.842c3.116-3.116,7.26-4.832,11.667-4.832
			c4.407,0,8.551,1.716,11.667,4.833l18.795,18.794c6.432,6.434,6.433,16.902,0,23.335l-18.794,18.796
			c-6.436,6.434-16.903,6.434-23.335,0l-18.796-18.796c-6.434-6.433-6.433-16.9,0-23.335v0.001L167.629,227.842z M212.924,79.111
			c2.808-2.808,6.385-4.389,10.059-4.746h3.216c3.674,0.357,7.25,1.938,10.059,4.746l47.389,47.389
			c3.117,3.116,4.833,7.26,4.833,11.667s-1.716,8.551-4.833,11.667l-47.389,47.39c-6.433,6.433-16.901,6.435-23.334,0l-47.389-47.39
			c-6.434-6.433-6.433-16.9,0-23.335v0.001L212.924,79.111z M215.414,360.5v-60.967c0-9.098,7.402-16.5,16.5-16.5h60.967
			c3.419,0,6.598,1.047,9.235,2.835l4.43,4.43c1.788,2.637,2.835,5.816,2.835,9.236V360.5c0,9.098-7.402,16.5-16.5,16.5h-60.967
			C222.816,377,215.414,369.598,215.414,360.5z M397.452,243.538l-43.023,43.024c-3.116,3.116-7.26,4.832-11.667,4.832
			s-8.551-1.716-11.667-4.833l-9.422-9.422c-1.861-2.387-4.01-4.537-6.397-6.397l-27.204-27.204c-6.434-6.433-6.434-16.9,0-23.335
			v0.001l43.023-43.023c6.434-6.434,16.9-6.434,23.334,0l43.023,43.022C403.886,226.638,403.886,237.105,397.452,243.538z
			 M408.516,202.982l-39.944-39.944c-6.894-6.894-16.06-10.69-25.81-10.69s-18.916,3.797-25.81,10.69l-43.023,43.023
			c0,0,0,0,0,0.001c-14.23,14.231-14.23,37.388,0,51.618l5.353,5.353H234.26c1.406-10.852-2.042-22.219-10.359-30.538
			l-13.181-13.181c4.433,1.814,9.151,2.725,13.871,2.725c9.347,0,18.693-3.558,25.81-10.673l47.388-47.39
			c6.895-6.894,10.691-16.06,10.691-25.81c0-9.749-3.796-18.915-10.69-25.81l-37.992-37.992H359.5c5.522,0,10-4.478,10-10
			c0-5.522-4.478-10-10-10H226.729c-1.425-0.083-2.853-0.083-4.277,0H80.867L75.637,20h360.727L408.516,202.982z"/>
	</g>
</g>
<g>
	<g>
		<path d="M369.069,341.93C367.21,340.07,364.63,339,362,339s-5.21,1.069-7.07,2.93c-1.86,1.861-2.93,4.44-2.93,7.07
			s1.069,5.21,2.93,7.069c1.86,1.861,4.44,2.931,7.07,2.931s5.21-1.07,7.069-2.931C370.93,354.21,372,351.63,372,349
			S370.93,343.79,369.069,341.93z"/>
	</g>
</g>
<g>
	<g>
		<path d="M122.069,101.93C120.21,100.069,117.63,99,115,99s-5.21,1.069-7.07,2.93S105,106.37,105,109s1.069,5.21,2.93,7.069
			c1.86,1.86,4.44,2.931,7.07,2.931s5.21-1.07,7.069-2.931C123.93,114.21,125,111.63,125,109S123.93,103.79,122.069,101.93z"/>
	</g>
</g>
<g>
	<g>
		<path d="M341.069,102.93C339.21,101.069,336.63,100,334,100s-5.21,1.069-7.07,2.93c-1.86,1.861-2.93,4.44-2.93,7.07
			s1.069,5.21,2.93,7.069c1.86,1.86,4.44,2.931,7.07,2.931s5.21-1.07,7.069-2.931C342.93,115.21,344,112.63,344,110
			S342.93,104.79,341.069,102.93z"/>
	</g>
</g>
<g>
	<g>
		<path d="M167.069,337.93C165.21,336.07,162.63,335,160,335s-5.21,1.069-7.07,2.93c-1.86,1.861-2.93,4.44-2.93,7.07
			s1.069,5.21,2.93,7.069c1.86,1.861,4.44,2.931,7.07,2.931s5.21-1.07,7.069-2.931C168.93,350.21,170,347.63,170,345
			S168.93,339.79,167.069,337.93z"/>
	</g>
</g>
<g>
	<g>
		<path d="M407.069,133.93C405.21,132.07,402.63,131,400,131s-5.21,1.069-7.07,2.93c-1.86,1.861-2.93,4.44-2.93,7.07
			s1.069,5.21,2.93,7.069c1.86,1.861,4.44,2.931,7.07,2.931s5.21-1.07,7.069-2.931C408.93,146.21,410,143.63,410,141
			S408.93,135.79,407.069,133.93z"/>
	</g>
</g>
<g>
	<g>
		<path d="M142.069,167.93C140.21,166.07,137.63,165,135,165s-5.21,1.069-7.07,2.93c-1.86,1.861-2.93,4.44-2.93,7.07
			s1.069,5.21,2.93,7.069c1.86,1.86,4.44,2.931,7.07,2.931s5.21-1.07,7.069-2.931C143.93,180.21,145,177.63,145,175
			S143.93,169.79,142.069,167.93z"/>
	</g>
</g>
<g>
	<g>
		<path d="M181.069,380.93C179.21,379.07,176.63,378,174,378s-5.21,1.069-7.07,2.93c-1.86,1.861-2.93,4.44-2.93,7.07
			s1.069,5.21,2.93,7.069c1.86,1.86,4.44,2.931,7.07,2.931s5.21-1.07,7.069-2.931C182.93,393.21,184,390.63,184,388
			S182.93,382.79,181.069,380.93z"/>
	</g>
</g>
<g>
</g>
<g>
</g>
<g>
</g>
<g>
</g>
<g>
</g>
<g>
</g>
<g>
</g>
<g>
</g>
<g>
</g>
<g>
</g>
<g>
</g>
<g>
</g>
<g>
</g>
<g>
</g>
<g>
</g>
</svg>
