<?xml version="1.0" encoding="iso-8859-1"?>
<!-- Generator: Adobe Illustrator 19.0.0, SVG Export Plug-In . SVG Version: 6.00 Build 0)  -->
<svg version="1.1" id="Capa_1" xmlns="http://www.w3.org/2000/svg" xmlns:xlink="http://www.w3.org/1999/xlink" x="0px" y="0px"
	 viewBox="0 0 512 512" style="enable-background:new 0 0 512 512;" xml:space="preserve">
<g>
	<g>
		<path d="M256.55,174.088l-21.831-21.831c-4.429-4.428-10.316-6.867-16.579-6.867s-12.15,2.439-16.579,6.867l-21.831,21.831
			c-4.428,4.429-6.867,10.316-6.867,16.579s2.439,12.15,6.867,16.579l21.831,21.831c4.429,4.428,10.316,6.867,16.579,6.867
			s12.15-2.439,16.579-6.867l21.831-21.831c4.428-4.429,6.867-10.316,6.867-16.579S260.978,178.517,256.55,174.088z
			 M242.408,193.104l-21.831,21.831c-0.878,0.878-1.903,1.01-2.437,1.01s-1.559-0.132-2.437-1.01l-21.831-21.831
			c-0.878-0.878-1.01-1.903-1.01-2.437s0.132-1.559,1.01-2.437l21.831-21.831c0.878-0.878,1.903-1.01,2.437-1.01
			s1.559,0.132,2.437,1.01l21.831,21.831c0.878,0.878,1.01,1.903,1.01,2.437S243.285,192.226,242.408,193.104z"/>
	</g>
</g>
<g>
	<g>
		<path d="M413.038,127.493c-8.674-7.634-13.648-18.641-13.648-30.196C399.39,84.451,388.939,74,376.092,74h-12.826V10
			c0-5.522-4.478-10-10-10c-5.522,0-10,4.478-10,10v64h-104.65l27.64-27.64c1.875-1.876,2.929-4.419,2.929-7.071
			s-1.054-5.196-2.929-7.071c-42.891-42.889-112.676-42.887-155.564,0c-42.888,42.89-42.888,112.675,0,155.564
			c1.875,1.875,4.419,2.929,7.071,2.929c2.652,0,5.195-1.054,7.071-2.929l12.64-12.64V461.5c0,27.846,22.654,50.5,50.5,50.5h195
			c27.846,0,50.5-22.654,50.5-50.5V172.703C433.473,155.401,426.025,138.923,413.038,127.493z M373.29,281.814
			c0,16.542-13.458,30-30,30s-30-13.458-30-30s13.458-30,30-30S373.29,265.272,373.29,281.814z M118.153,166.179
			c-28.246-35.305-26.02-87.118,6.681-119.818c32.699-32.699,84.514-34.927,119.818-6.681l-11.415,11.414
			c-18.659-14.197-42.558-18.341-64.285-12.436c0.012,0.016-0.729,0.158-1.079,0.291c-11.624,3.349-22.584,9.583-31.726,18.725
			c-9.145,9.145-15.382,20.111-18.729,31.74c-0.058,0.176-0.123,0.348-0.171,0.53c-0.046,0.173-0.075,0.346-0.111,0.519
			c-5.912,21.732-1.77,45.639,12.432,64.302L118.153,166.179z M218.918,65.413l-7.85,7.849c-0.237,0.237-0.459,0.484-0.667,0.738
			h-15.594c-2.206,0-4.338,0.314-6.362,0.889l-4.991-18.628C195.74,55.124,208.336,58.181,218.918,65.413z M172.201,91.54
			c-0.221,0.861-0.388,1.743-0.51,2.639l-31.456-8.429c2.522-5.027,5.864-9.745,10.053-13.934
			c4.189-4.189,8.908-7.531,13.935-10.053L172.201,91.54z M143.885,140.444c-7.231-10.58-10.288-23.177-9.151-35.463l33.18,8.89
			c-0.891,1.976-1.945,3.878-3.146,5.69L143.885,140.444z M413.473,362h-76c-5.522,0-10,4.478-10,10c0,5.522,4.478,10,10,10h76v79.5
			c0,16.817-13.683,30.5-30.5,30.5h-195c-16.817,0-30.5-13.683-30.5-30.5V382h17.608c1.549,3.484,3.742,6.749,6.595,9.602
			l35.753,35.753c6.244,6.243,14.442,9.364,22.644,9.364c8.199-0.001,16.401-3.122,22.644-9.364l35.754-35.754
			c12.484-12.485,12.484-32.8,0-45.286l-35.755-35.754c-12.484-12.484-32.8-12.484-45.286,0l-35.753,35.754
			c-4.465,4.465-7.324,9.934-8.596,15.686h-15.607V172.666c0-11.536,4.962-22.531,13.612-30.164
			c0.031-0.027,0.063-0.056,0.094-0.084c12.898-11.425,20.294-27.851,20.294-45.084c0-1.838,1.496-3.334,3.334-3.334h148.459v24.823
			c-1.851-0.424-3.774-0.656-5.751-0.656h-36.164c-14.199,0-25.751,11.552-25.751,25.751v36.164
			c0,14.199,11.552,25.751,25.751,25.751h36.164c1.977,0,3.9-0.231,5.751-0.656v26.637c-10.167,0.005-19.629,3.067-27.529,8.305
			c-13.724-10.301-30.415-16.046-47.687-16.29c-0.048-0.001-0.096-0.001-0.144-0.001c-5.457,0-9.919,4.385-9.996,9.859
			c-0.078,5.522,4.336,10.062,9.858,10.14c12.083,0.17,23.79,3.911,33.685,10.653c-5.154,7.862-8.164,17.25-8.164,27.333
			c0,27.57,22.43,50,50,50s50-22.43,50-50c0-20.471-12.371-38.098-30.024-45.824V180.08v-36.164V94h12.826
			c1.818,0,3.298,1.479,3.298,3.297c0,17.301,7.448,33.779,20.435,45.21c8.674,7.634,13.648,18.641,13.648,30.196V362z
			 M195.819,360.457l35.752-35.754c2.345-2.344,5.423-3.516,8.502-3.516c3.078,0,6.158,1.172,8.501,3.516l35.754,35.753
			c4.688,4.688,4.688,12.315,0,17.003l-35.754,35.753c-4.688,4.688-12.314,4.688-17.002,0l-35.753-35.753
			C191.131,372.771,191.131,365.145,195.819,360.457z M343.266,143.918v36.164c0,3.171-2.58,5.751-5.751,5.751h-36.164
			c-3.171,0-5.751-2.58-5.751-5.751v-36.164c0-3.171,2.58-5.751,5.751-5.751h36.164
			C340.686,138.167,343.266,140.747,343.266,143.918z"/>
	</g>
</g>
<g>
	<g>
		<path d="M265.542,264.93c-1.859-1.861-4.439-2.93-7.069-2.93s-5.21,1.069-7.07,2.93c-1.86,1.861-2.93,4.44-2.93,7.07
			s1.069,5.21,2.93,7.069c1.86,1.86,4.44,2.931,7.07,2.931s5.21-1.07,7.069-2.931c1.86-1.859,2.931-4.439,2.931-7.069
			S267.403,266.79,265.542,264.93z"/>
	</g>
</g>
<g>
	<g>
		<path d="M197.542,282.93c-1.859-1.861-4.439-2.93-7.069-2.93s-5.21,1.069-7.07,2.93c-1.86,1.861-2.93,4.44-2.93,7.07
			s1.069,5.21,2.93,7.069c1.86,1.86,4.44,2.931,7.07,2.931s5.21-1.07,7.069-2.931c1.86-1.859,2.931-4.439,2.931-7.069
			S199.403,284.79,197.542,282.93z"/>
	</g>
</g>
<g>
	<g>
		<path d="M253.542,114.93c-1.859-1.86-4.439-2.93-7.069-2.93s-5.21,1.069-7.07,2.93s-2.93,4.44-2.93,7.07s1.069,5.21,2.93,7.069
			c1.86,1.861,4.44,2.931,7.07,2.931s5.21-1.07,7.069-2.931c1.86-1.859,2.931-4.439,2.931-7.069S255.403,116.79,253.542,114.93z"/>
	</g>
</g>
<g>
</g>
<g>
</g>
<g>
</g>
<g>
</g>
<g>
</g>
<g>
</g>
<g>
</g>
<g>
</g>
<g>
</g>
<g>
</g>
<g>
</g>
<g>
</g>
<g>
</g>
<g>
</g>
<g>
</g>
</svg>
