<?xml version="1.0" encoding="iso-8859-1"?>
<!-- Generator: Adobe Illustrator 19.0.0, SVG Export Plug-In . SVG Version: 6.00 Build 0)  -->
<svg version="1.1" id="Capa_1" xmlns="http://www.w3.org/2000/svg" xmlns:xlink="http://www.w3.org/1999/xlink" x="0px" y="0px"
	 viewBox="0 0 512 512" style="enable-background:new 0 0 512 512;" xml:space="preserve">
<g>
	<g>
		<path d="M386,250.25c0-35.408-14.523-69.335-40-93.798V10c0-5.522-4.477-10-10-10H176c-5.523,0-10,4.478-10,10v146.452
			c-15.199,14.594-26.497,32.559-33.141,52.195c-0.258,0.587-0.46,1.203-0.602,1.842C128.159,223.221,126,236.624,126,250.25
			c0,61.305,42.657,112.827,99.847,126.462v81.449l-51.793,21.636c-7.456,3.114-11.554,10.823-9.966,18.746
			C165.677,506.467,172.43,512,180.51,512h150.726c8.079,0,14.831-5.531,16.421-13.452c1.59-7.92-2.505-15.629-9.956-18.746
			l-51.854-21.698v-81.316C343.191,363.263,386,311.665,386,250.25z M146,250.25c0-9.387,1.215-18.649,3.536-27.583H305.45
			c5.523,0,10-4.478,10-10c0-5.522-4.477-10-10-10H156.848c6.201-12.917,14.924-24.646,25.821-34.4
			c2.12-1.897,3.331-4.606,3.331-7.451V122h108.873c5.523,0,10-4.478,10-10c0-5.522-4.477-10-10-10H186V20h140v34h-70.803
			c-5.523,0-10,4.478-10,10s4.477,10,10,10H326v77H223.73c-5.523,0-10,4.478-10,10c0,5.522,4.477,10,10,10h108.531
			C353.747,191.693,366,220.346,366,250.25c0,11.035-1.64,21.693-4.678,31.75H150.678C147.64,271.943,146,261.285,146,250.25z
			 M315.041,492H196.729l42.973-17.951c3.722-1.555,6.146-5.194,6.146-9.228v-84.966c3.351,0.26,6.736,0.395,10.153,0.395
			c3.313,0,6.596-0.126,9.847-0.371v84.881c0,4.031,2.421,7.669,6.14,9.225L315.041,492z M275.666,358.487
			c-1.025,0.018-2.011,0.189-2.938,0.494c-5.456,0.836-11.042,1.27-16.728,1.27c-5.926,0-11.742-0.477-17.417-1.384
			c-0.686-0.195-1.402-0.315-2.14-0.359c-33.569-6.049-61.89-27.382-77.485-56.508h194.084
			C337.464,331.094,309.187,352.412,275.666,358.487z"/>
	</g>
</g>
<g>
	<g>
		<path d="M223.28,56.93c-1.86-1.86-4.44-2.93-7.07-2.93c-2.64,0-5.21,1.069-7.07,2.93c-1.87,1.86-2.93,4.44-2.93,7.07
			s1.06,5.21,2.93,7.069C211,72.93,213.57,74,216.21,74c2.63,0,5.21-1.07,7.07-2.931c1.86-1.859,2.93-4.439,2.93-7.069
			S225.14,58.79,223.28,56.93z"/>
	</g>
</g>
<g>
</g>
<g>
</g>
<g>
</g>
<g>
</g>
<g>
</g>
<g>
</g>
<g>
</g>
<g>
</g>
<g>
</g>
<g>
</g>
<g>
</g>
<g>
</g>
<g>
</g>
<g>
</g>
<g>
</g>
</svg>
