<?xml version="1.0" encoding="iso-8859-1"?>
<!-- Generator: Adobe Illustrator 19.0.0, SVG Export Plug-In . SVG Version: 6.00 Build 0)  -->
<svg version="1.1" id="Capa_1" xmlns="http://www.w3.org/2000/svg" xmlns:xlink="http://www.w3.org/1999/xlink" x="0px" y="0px"
	 viewBox="0 0 511.999 511.999" style="enable-background:new 0 0 511.999 511.999;" xml:space="preserve">
<g>
	<g>
		<path d="M373.163,0c-66.494,0-121.185,51.492-126.301,116.694h-99.43c-0.337,0-0.673-0.004-1.011,0H22.142
			c-5.523,0-10,4.478-10,10c0,35.607,8.174,80.181,71.915,109.041c51.609,23.368,83.595,41.821,83.595,61.583v10.335
			c0,0.173,0.017,0.342,0.026,0.512v149.938L115.825,479.8c-7.452,3.118-11.546,10.827-9.957,18.747
			c1.59,7.921,8.342,13.452,16.421,13.452h150.726c8.081,0,14.833-5.533,16.422-13.457c1.588-7.923-2.51-15.631-9.966-18.746
			l-51.793-21.636V307.958c0-0.173-0.017-0.342-0.026-0.512v-10.127c0-19.762,31.986-38.215,83.595-61.583
			c50.729-22.969,66.262-55.891,70.489-86.324l33.324,33.324c-11.69,8.762-26.198,13.958-41.898,13.958c-5.523,0-10,4.478-10,10
			c0,5.522,4.477,10,10,10c49.626,0,90-40.374,90-90c0-49.626-40.374-90-90-90c-46.246,0-84.451,35.063-89.441,80H266.94
			C271.999,62.535,317.704,20,373.163,20c58.832,0,106.694,47.863,106.694,106.694s-47.863,106.694-106.694,106.694
			c-3.958,0-7.953-0.221-11.876-0.656c-5.485-0.605-10.433,3.348-11.042,8.837c-0.609,5.489,3.347,10.433,8.836,11.042
			c4.653,0.516,9.391,0.777,14.082,0.777c69.859,0,126.694-56.835,126.694-126.694S443.022,0,373.163,0z M429.204,168.593
			l-31.899-31.899h45.132C440.736,148.535,436.071,159.432,429.204,168.593z M442.436,116.694h-45.132l31.899-31.899
			C436.071,93.957,440.736,104.854,442.436,116.694z M383.163,57.42c11.841,1.702,22.737,6.366,31.898,13.233l-31.898,31.899V57.42z
			 M198.121,156.382c13.218,13.219,20.063,31.563,19.673,52.298c-20.744,0.399-39.081-6.455-52.298-19.673
			c-13.218-13.218-20.063-31.563-19.673-52.298C166.562,136.318,184.905,143.165,198.121,156.382z M256.796,492H138.484
			l43.054-18.016c3.719-1.556,6.14-5.193,6.14-9.225V317.653h20v147.168c0,4.033,2.423,7.673,6.146,9.228L256.796,492z
			 M363.163,57.42v45.132l-31.898-31.899C340.426,63.786,351.322,59.122,363.163,57.42z M317.121,84.795l31.899,31.899h-45.132
			C305.59,104.854,310.254,93.957,317.121,84.795z M296.97,136.694h65.933c-0.497,8.856-1.806,17.692-4.636,26.306h-65.103
			c-5.523,0-10,4.478-10,10c0,5.522,4.477,10,10,10h55.095c-8.967,12.718-23.111,24.488-45.26,34.517
			c-61.836,27.998-95.346,49.008-95.346,79.802v0.335h-20v-0.335c0-30.794-33.51-51.804-95.346-79.802
			C70.158,207.488,56.013,195.718,47.047,183h55.094c5.523,0,10-4.478,10-10c0-5.522-4.477-10-10-10H37.039
			c-2.83-8.614-4.139-17.45-4.636-26.306h93.42c-0.424,26.072,8.456,49.38,25.531,66.455c16.686,16.686,39.323,25.552,64.676,25.552
			c4.019,0,8.108-0.223,12.251-0.673c4.668-0.507,8.355-4.193,8.862-8.861c3.288-30.275-5.547-57.596-24.879-76.927
			c-1.959-1.959-4.004-3.804-6.121-5.546H296.97z"/>
	</g>
</g>
<g>
	<g>
		<path d="M267.16,165.93c-1.86-1.861-4.43-2.93-7.07-2.93c-2.63,0-5.21,1.069-7.07,2.93c-1.86,1.86-2.93,4.44-2.93,7.07
			s1.07,5.21,2.93,7.069c1.86,1.86,4.44,2.931,7.07,2.931s5.21-1.07,7.07-2.931c1.86-1.859,2.93-4.439,2.93-7.069
			S269.02,167.79,267.16,165.93z"/>
	</g>
</g>
<g>
</g>
<g>
</g>
<g>
</g>
<g>
</g>
<g>
</g>
<g>
</g>
<g>
</g>
<g>
</g>
<g>
</g>
<g>
</g>
<g>
</g>
<g>
</g>
<g>
</g>
<g>
</g>
<g>
</g>
</svg>
