<?xml version="1.0" encoding="iso-8859-1"?>
<!-- Generator: Adobe Illustrator 19.0.0, SVG Export Plug-In . SVG Version: 6.00 Build 0)  -->
<svg version="1.1" id="Capa_1" xmlns="http://www.w3.org/2000/svg" xmlns:xlink="http://www.w3.org/1999/xlink" x="0px" y="0px"
	 viewBox="0 0 512 512" style="enable-background:new 0 0 512 512;" xml:space="preserve">
<g>
	<g>
		<path d="M265.6,494.93c-1.86-1.861-4.44-2.93-7.07-2.93c-2.63,0-5.21,1.069-7.07,2.93c-1.86,1.86-2.93,4.44-2.93,7.07
			s1.07,5.21,2.93,7.069c1.86,1.86,4.44,2.931,7.07,2.931c2.64,0,5.21-1.07,7.07-2.931c1.86-1.859,2.93-4.439,2.93-7.069
			S267.46,496.79,265.6,494.93z"/>
	</g>
</g>
<g>
	<g>
		<path d="M425.684,171.473c-1.9-2.205-4.666-3.473-7.576-3.473h-52.329c7.468-15.783,11.654-33.411,11.654-52
			c0-5.522-4.477-10-10-10h-76.242c3.954-6.403,6.242-13.938,6.242-22c0-19.51-13.373-35.954-31.433-40.652V10
			c0-5.522-4.477-10-10-10c-5.523,0-10,4.478-10,10v33.081C227.37,47.375,213.433,64.085,213.433,84c0,8.062,2.288,15.597,6.242,22
			h-76.242c-5.523,0-10,4.478-10,10c0,18.589,4.186,36.217,11.654,52H93.892c-2.91,0-5.676,1.268-7.576,3.473
			c-1.899,2.205-2.744,5.128-2.314,8.007l44.619,298.338C131.536,497.305,148.592,512,168.297,512h44.136c5.523,0,10-4.478,10-10
			c0-5.522-4.477-10-10-10h-44.136c-9.881,0-18.434-7.369-19.896-17.142l-6.589-44.057c1.32,1.276,2.665,2.529,4.062,3.733
			C163.438,449.666,185.878,458,209.061,458h93.878c23.183,0,45.623-8.334,63.187-23.466c1.397-1.204,2.742-2.457,4.062-3.733
			l-6.589,44.057C362.137,484.631,353.584,492,343.703,492h-42.271c-5.523,0-10,4.478-10,10c0,5.522,4.477,10,10,10h42.271
			c19.705,0,36.761-14.695,39.676-34.183l44.619-298.338C428.428,176.601,427.583,173.678,425.684,171.473z M316.29,126
			c-2.532,15.462-10.834,29-22.615,38.34L271.539,126H316.29z M276.2,174.073c-6.493,2.329-13.483,3.607-20.767,3.607
			c-7.284,0-14.274-1.278-20.767-3.607l20.767-35.97L276.2,174.073z M255.433,62c12.131,0,22,9.869,22,22s-9.869,22-22,22
			c-12.131,0-22-9.869-22-22S243.302,62,255.433,62z M239.326,126l-22.135,38.34C205.41,155,197.108,141.462,194.576,126H239.326z
			 M174.387,126c3.202,26.098,18.752,48.417,40.62,60.929c0.166,0.11,0.327,0.224,0.502,0.324c0.139,0.08,0.284,0.136,0.425,0.209
			c11.715,6.501,25.178,10.217,39.499,10.217c14.265,0,27.682-3.685,39.365-10.139c0.187-0.093,0.376-0.181,0.56-0.287
			c0.175-0.101,0.337-0.216,0.503-0.325c21.868-12.513,37.416-34.831,40.619-60.928h20.468c-5.042,51.566-48.645,92-101.514,92
			s-96.472-40.434-101.514-92H174.387z M220.433,266.24c1.184,1.183,1.835,2.756,1.835,4.43c0,1.673-0.651,3.246-1.834,4.429
			l-26.406,26.404c-1.183,1.184-2.756,1.835-4.429,1.835c-1.673,0-3.246-0.651-4.43-1.835l-26.405-26.404
			c-1.184-1.183-1.835-2.756-1.835-4.429c0-1.674,0.651-3.247,1.835-4.43l26.405-26.405c1.183-1.184,2.756-1.835,4.429-1.835
			c1.673,0,3.246,0.651,4.429,1.835L220.433,266.24z M105.499,188h51.51c8.642,11.781,19.343,21.958,31.571,30h-78.594L105.499,188z
			 M378.899,372.555c-5.58,37.31-38.235,65.445-75.96,65.445h-93.878c-37.725,0-70.38-28.135-75.96-65.444L112.977,238h45.742
			l-14.098,14.098c-10.24,10.24-10.24,26.903,0,37.144l26.405,26.404c4.961,4.96,11.556,7.692,18.572,7.692
			s13.611-2.732,18.571-7.692l26.406-26.404c4.96-4.961,7.692-11.557,7.692-18.571c0-7.016-2.732-13.611-7.692-18.572L220.477,238
			h178.546L378.899,372.555z M402.014,218h-79.729c12.228-8.042,22.929-18.219,31.571-30h52.645L402.014,218z"/>
	</g>
</g>
<g>
	<g>
		<path d="M364.477,299.14l-28.832-28.834c-10.824-10.822-28.435-10.822-39.259,0l-28.834,28.834
			c-10.823,10.824-10.823,28.435,0,39.259l28.834,28.834c5.412,5.411,12.521,8.117,19.629,8.117c7.108,0,14.217-2.706,19.629-8.117
			l28.833-28.834c5.244-5.243,8.131-12.214,8.131-19.63C372.608,311.354,369.72,304.383,364.477,299.14z M350.336,324.256
			l-28.833,28.834c-3.025,3.025-7.948,3.025-10.974,0l-28.834-28.834c-3.026-3.025-3.026-7.948,0-10.974l28.834-28.834
			c1.465-1.466,3.414-2.272,5.487-2.272s4.021,0.807,5.487,2.272l28.834,28.834c1.466,1.466,2.273,3.414,2.273,5.486
			C352.609,320.842,351.802,322.79,350.336,324.256z"/>
	</g>
</g>
<g>
	<g>
		<path d="M227,332.93c-1.86-1.861-4.43-2.93-7.07-2.93c-2.63,0-5.21,1.069-7.07,2.93c-1.86,1.861-2.93,4.43-2.93,7.07
			c0,2.63,1.07,5.21,2.93,7.069c1.86,1.86,4.44,2.931,7.07,2.931s5.21-1.07,7.07-2.931c1.87-1.859,2.93-4.439,2.93-7.069
			S228.87,334.79,227,332.93z"/>
	</g>
</g>
<g>
	<g>
		<path d="M374.5,257.93c-1.86-1.861-4.44-2.93-7.07-2.93s-5.21,1.069-7.07,2.93c-1.86,1.861-2.93,4.44-2.93,7.07
			s1.07,5.21,2.93,7.069c1.86,1.86,4.44,2.931,7.07,2.931c2.64,0,5.21-1.07,7.07-2.931c1.87-1.859,2.93-4.439,2.93-7.069
			S376.37,259.79,374.5,257.93z"/>
	</g>
</g>
<g>
	<g>
		<path d="M162.84,332.93c-1.86-1.86-4.44-2.93-7.07-2.93c-2.64,0-5.21,1.069-7.07,2.93c-1.87,1.86-2.93,4.43-2.93,7.07
			c0,2.63,1.06,5.21,2.93,7.069c1.86,1.86,4.44,2.931,7.07,2.931s5.21-1.07,7.07-2.931c1.86-1.859,2.93-4.439,2.93-7.069
			S164.7,334.79,162.84,332.93z"/>
	</g>
</g>
<g>
</g>
<g>
</g>
<g>
</g>
<g>
</g>
<g>
</g>
<g>
</g>
<g>
</g>
<g>
</g>
<g>
</g>
<g>
</g>
<g>
</g>
<g>
</g>
<g>
</g>
<g>
</g>
<g>
</g>
</svg>
