<?xml version="1.0" encoding="iso-8859-1"?>
<!-- Generator: Adobe Illustrator 19.0.0, SVG Export Plug-In . SVG Version: 6.00 Build 0)  -->
<svg version="1.1" id="Capa_1" xmlns="http://www.w3.org/2000/svg" xmlns:xlink="http://www.w3.org/1999/xlink" x="0px" y="0px"
	 viewBox="0 0 512 512" style="enable-background:new 0 0 512 512;" xml:space="preserve">
<g>
	<g>
		<path d="M316.525,228.414c-3.905-3.904-10.237-3.904-14.142,0l-71.687,71.687c-1.875,1.876-2.929,4.419-2.929,7.071
			c0,2.652,1.054,5.196,2.929,7.071c11.832,11.831,27.373,17.746,42.914,17.746c5.419,0,10.832-0.735,16.092-2.173
			c0.111-0.026,0.222-0.036,0.333-0.066c0.15-0.04,0.292-0.095,0.438-0.142c9.545-2.744,18.546-7.86,26.052-15.365
			c11.463-11.463,17.776-26.704,17.776-42.915S327.988,239.877,316.525,228.414z M252.79,306.293l16.253-16.253l5.877,21.935
			C267.271,312.219,259.566,310.327,252.79,306.293z M302.384,300.102c-2.521,2.519-5.293,4.639-8.236,6.359l-5.343-19.938
			l19.944,5.344C307.007,294.835,304.881,297.604,302.384,300.102z M314.269,272.64l-21.946-5.88l16.261-16.262
			c3.728,6.233,5.717,13.379,5.717,20.83C314.301,271.767,314.283,272.203,314.269,272.64z"/>
	</g>
</g>
<g>
	<g>
		<path d="M294.88,367.731c23.15-10.194,43.331-26.34,58.358-46.689c18.334-24.828,28.432-55.499,28.432-86.363
			c0-49.347-7.522-98.229-22.357-145.292L333.341,6.994C332.029,2.831,328.168,0,323.804,0H188.196
			c-4.365,0-8.225,2.831-9.538,6.994l-25.971,82.392c-14.835,47.063-22.357,95.946-22.357,145.293
			c0,30.864,10.097,61.535,28.432,86.363c15.028,20.35,35.208,36.495,58.358,46.689l8.854,3.899v86.531l-51.793,21.636
			c-7.456,3.114-11.554,10.823-9.966,18.746c1.588,7.924,8.341,13.457,16.422,13.457h150.726c8.079,0,14.831-5.531,16.421-13.452
			c1.59-7.92-2.504-15.629-9.956-18.746l-51.854-21.698v-86.45L294.88,367.731z M150.788,225.401
			c0.002-0.735,0.183-2.148,1.393-3.359l23.948-23.948c1.21-1.21,2.624-1.391,3.358-1.391c0.735,0,2.148,0.181,3.359,1.392
			l23.947,23.947c1.211,1.211,1.392,2.624,1.392,3.359c0,0.734-0.181,2.147-1.392,3.358l-23.947,23.948
			c-1.853,1.852-4.866,1.852-6.718,0l-23.949-23.948C150.969,227.548,150.788,226.135,150.788,225.401z M315.168,492H196.856
			l42.973-17.951c3.722-1.555,6.146-5.194,6.146-9.228V378.22h20v86.54c0,4.031,2.421,7.669,6.14,9.225L315.168,492z
			 M266.851,358.219h-21.704l-19.967-8.793c-19.965-8.79-37.369-22.714-50.329-40.265c-11.3-15.302-18.948-33.183-22.407-51.854
			l9.544,9.543c4.825,4.824,11.163,7.237,17.5,7.237c6.337,0,12.676-2.413,17.501-7.237l23.947-23.948
			c4.675-4.674,7.25-10.89,7.25-17.501s-2.575-12.827-7.25-17.502l-23.947-23.946c-4.675-4.676-10.89-7.25-17.501-7.25
			c-6.611,0-12.826,2.574-17.5,7.249l-9.833,9.833c2.953-33.365,9.5-66.318,19.609-98.387L195.529,20H316.47l23.767,75.399
			c14.221,45.114,21.432,91.976,21.432,139.279c0,26.618-8.708,53.07-24.521,74.482c-12.96,17.551-30.364,31.475-50.33,40.266
			L266.851,358.219z"/>
	</g>
</g>
<g>
	<g>
		<path d="M325.146,167.33c-11.395-5.01-23.707-5.218-34.661-1.515c0.95-1.745,2.088-3.403,3.416-4.942
			c4.884-5.657,11.686-9.074,19.153-9.621c5.508-0.404,9.646-5.197,9.242-10.705c-0.404-5.507-5.181-9.625-10.705-9.242
			c-12.795,0.938-24.454,6.798-32.829,16.498c-0.706,0.818-1.37,1.661-2.015,2.516c-4.978-7.104-11.816-12.741-19.966-16.324
			c-5.057-2.225-10.956,0.073-13.179,5.13c-2.223,5.056,0.074,10.956,5.13,13.179c6.854,3.014,12.122,8.509,14.833,15.473
			c2.71,6.964,2.544,14.574-0.469,21.429c-0.048,0.109-0.082,0.22-0.126,0.33c-4.773-10.07-13.033-18.542-24.011-23.368
			c-5.056-2.226-10.957,0.074-13.179,5.13c-2.223,5.056,0.074,10.956,5.13,13.179c14.132,6.212,20.575,22.766,14.362,36.9
			c-2.223,5.056,0.074,10.956,5.13,13.179c1.309,0.576,2.675,0.849,4.019,0.849c3.846,0,7.513-2.232,9.16-5.979
			c0.572-1.302,1.069-2.617,1.518-3.94c0.351-0.511,0.675-1.048,0.934-1.636c3.013-6.854,8.508-12.122,15.472-14.833
			c6.964-2.711,14.574-2.544,21.429,0.469c5.057,2.226,10.956-0.074,13.179-5.13c2.223-5.056-0.074-10.956-5.13-13.179
			c-6.176-2.716-12.712-4.067-19.257-4.076c7.479-4.35,16.862-5.202,25.371-1.462c5.057,2.226,10.956-0.074,13.179-5.13
			C332.499,175.453,330.202,169.553,325.146,167.33z"/>
	</g>
</g>
<g>
	<g>
		<path d="M257.654,43.016c-36.732,0-66.615,29.884-66.615,66.615c0,5.522,4.477,10,10,10h56.615c5.523,0,10-4.478,10-10V53.016
			C267.654,47.494,263.177,43.016,257.654,43.016z M212.119,99.631c1.196-5.455,3.354-10.553,6.281-15.112l15.112,15.112H212.119z
			 M247.654,85.488l-15.112-15.112c4.559-2.927,9.657-5.084,15.112-6.281V85.488z"/>
	</g>
</g>
<g>
	<g>
		<path d="M201.4,289.16c-1.85-1.86-4.43-2.931-7.07-2.931c-2.63,0-5.21,1.07-7.07,2.931c-1.86,1.859-2.93,4.439-2.93,7.069
			c0,2.641,1.07,5.221,2.93,7.08c1.86,1.86,4.44,2.92,7.07,2.92c2.64,0,5.21-1.06,7.07-2.92c1.87-1.859,2.93-4.439,2.93-7.08
			C204.33,293.599,203.27,291.019,201.4,289.16z"/>
	</g>
</g>
<g>
	<g>
		<path d="M319.39,77.57c-1.86-1.859-4.44-2.93-7.07-2.93s-5.21,1.07-7.07,2.93c-1.86,1.86-2.93,4.44-2.93,7.07s1.07,5.21,2.93,7.07
			c1.86,1.859,4.44,2.93,7.07,2.93s5.21-1.07,7.07-2.93c1.86-1.86,2.93-4.44,2.93-7.07S321.25,79.43,319.39,77.57z"/>
	</g>
</g>
<g>
	<g>
		<path d="M345.19,196.55c-1.86-1.86-4.44-2.93-7.07-2.93s-5.21,1.069-7.07,2.93c-1.86,1.861-2.93,4.44-2.93,7.07
			s1.07,5.21,2.93,7.069c1.86,1.86,4.44,2.931,7.07,2.931s5.21-1.07,7.07-2.931c1.86-1.859,2.93-4.439,2.93-7.069
			S347.05,198.41,345.19,196.55z"/>
	</g>
</g>
<g>
</g>
<g>
</g>
<g>
</g>
<g>
</g>
<g>
</g>
<g>
</g>
<g>
</g>
<g>
</g>
<g>
</g>
<g>
</g>
<g>
</g>
<g>
</g>
<g>
</g>
<g>
</g>
<g>
</g>
</svg>
