<?xml version="1.0" encoding="iso-8859-1"?>
<!-- Generator: Adobe Illustrator 19.0.0, SVG Export Plug-In . SVG Version: 6.00 Build 0)  -->
<svg version="1.1" id="Capa_1" xmlns="http://www.w3.org/2000/svg" xmlns:xlink="http://www.w3.org/1999/xlink" x="0px" y="0px"
	 viewBox="0 0 512.001 512.001" style="enable-background:new 0 0 512.001 512.001;" xml:space="preserve">
<g>
	<g>
		<path d="M256.001,36c-38.598,0-70,31.402-70,70c0,38.598,31.402,70,70,70s70-31.402,70-70C326.001,67.402,294.599,36,256.001,36z
			 M206.001,106c0-5.546,0.921-10.878,2.596-15.868l27.401,15.669l-27.428,15.985C206.912,116.821,206.001,111.516,206.001,106z
			 M246.001,154.994c-10.818-2.205-20.368-7.919-27.427-15.89l27.427-15.984V154.994z M246.001,88.483l-27.37-15.652
			c7.052-7.937,16.581-13.626,27.37-15.825V88.483z M266.001,57.006c10.65,2.171,20.077,7.738,27.102,15.515l-27.102,15.795V57.006z
			 M266.001,154.994v-32.035l27.694,15.837C286.611,146.927,276.957,152.761,266.001,154.994z M303.564,121.4l-27.565-15.763
			l27.274-15.895c1.759,5.101,2.728,10.567,2.728,16.258C306.001,111.373,305.139,116.546,303.564,121.4z"/>
	</g>
</g>
<g>
	<g>
		<path d="M455.576,122.497c-1.899-2.204-4.665-3.472-7.575-3.472h-64c-5.523,0-10,4.478-10,10c0,5.522,4.477,10,10,10h52.396
			L428.488,192H317.894c26.696-19.267,44.107-50.637,44.107-86c0-16.181-3.65-31.523-10.161-45.256l44.172-25.645
			c4.776-2.773,6.4-8.894,3.627-13.669c-2.772-4.776-8.893-6.398-13.669-3.628l-44.367,25.759C322.303,17.174,291.122,0,256.001,0
			c-58.449,0-106,47.552-106,106c0,4.41,0.275,8.756,0.801,13.025h-43.854l-32.641-95.8c-1.782-5.227-7.464-8.024-12.691-6.24
			c-5.228,1.781-8.022,7.463-6.241,12.691l30.443,89.35H64.001c-2.91,0-5.676,1.268-7.575,3.472c-1.9,2.204-2.745,5.127-2.315,8.005
			l34.178,228.915c0,0.002,0,0.004,0.001,0.006c0.001,0.005,0.002,0.009,0.002,0.014l18.318,122.691
			c2.543,17.03,17.444,29.872,34.663,29.872h229.456c17.218,0,32.12-12.842,34.663-29.872l18.318-122.691
			c0.001-0.005,0.002-0.009,0.002-0.014c0-0.002,0-0.004,0.001-0.006l34.178-228.915
			C458.321,127.624,457.476,124.701,455.576,122.497z M256.001,20c47.42,0,86,38.579,86,86s-38.58,86-86,86s-86-38.579-86-86
			S208.581,20,256.001,20z M279.157,232.111l22.146,22.146c0.927,0.928,1.066,2.011,1.066,2.573c0,0.563-0.139,1.646-1.067,2.574
			l-22.146,22.146c-0.928,0.927-2.011,1.065-2.574,1.065s-1.646-0.139-2.574-1.066l-22.146-22.145
			c-0.928-0.929-1.066-2.012-1.066-2.575s0.139-1.646,1.066-2.573l22.146-22.146c0.928-0.928,2.011-1.066,2.574-1.066
			C277.147,231.045,278.23,231.184,279.157,232.111z M155.274,139.025c1.648,5.012,3.658,9.861,6.003,14.514l-10.038,5.923
			c-4.757,2.806-6.337,8.938-3.531,13.693c1.866,3.162,5.199,4.921,8.622,4.921c1.727,0,3.477-0.448,5.072-1.39l10.524-6.209
			c6.307,8.204,13.783,15.462,22.18,21.523h-62.296l-18.05-52.975H155.274z M75.605,139.025h17.028L110.682,192H83.514
			L75.605,139.025z M385.613,479.175c-1.094,7.311-7.492,12.825-14.884,12.825H141.273c-7.392,0-13.79-5.514-14.882-12.825
			l-9.326-62.465c1.864,1.877,3.79,3.7,5.806,5.437c18.662,16.082,42.507,24.939,67.143,24.939H321.99
			c24.636,0,48.48-8.857,67.143-24.939c2.016-1.737,3.942-3.56,5.806-5.437L385.613,479.175z M403.931,356.469c0,0,0,0,0,0.001
			c-0.459,3.074-1.108,6.081-1.897,9.03h-85.033c-5.523,0-10,4.478-10,10c0,5.522,4.477,10,10,10h76.716
			c-14.504,24.955-41.61,41.586-71.728,41.586H190.013c-40.704,0-75.932-30.358-81.943-70.617l-1.719-11.511h35.87
			c1.317,3.467,3.359,6.649,6.06,9.351l26.95,26.95c5.024,5.024,11.704,7.791,18.81,7.791c7.106,0,13.786-2.767,18.809-7.791
			l26.952-26.951c2.741-2.741,4.75-5.94,6.042-9.35H405.65L403.931,356.469z M220.868,344.958l-22.16,22.159
			c-1.246,1.246-2.903,1.933-4.666,1.933s-3.42-0.687-4.667-1.934l-22.158-22.158H220.868z M168.298,324.958l21.076-21.077
			c1.287-1.287,2.977-1.93,4.667-1.93s3.38,0.643,4.667,1.93l21.077,21.077H168.298z M331.109,304.066
			c0-0.336,0.09-0.825,0.52-1.255l19.117-19.117c0.346-0.347,0.8-0.52,1.255-0.52s0.909,0.173,1.255,0.52l19.118,19.117
			c0.429,0.43,0.52,0.919,0.52,1.255c0,0.335-0.09,0.825-0.52,1.255l-19.118,19.116c-0.691,0.693-1.818,0.691-2.51,0l-19.117-19.115
			C331.199,304.892,331.109,304.401,331.109,304.066z M408.588,325.29c-0.805-0.209-1.645-0.332-2.515-0.332h-25.051l5.495-5.495
			c4.112-4.112,6.377-9.581,6.377-15.396c0-5.817-2.265-11.285-6.377-15.397L367.4,269.553c-8.49-8.49-22.305-8.49-30.795,0
			l-19.117,19.117c-4.113,4.112-6.378,9.58-6.378,15.397c0,5.815,2.265,11.284,6.378,15.397l5.494,5.494h-77.574
			c-1.292-3.004-3.156-5.819-5.605-8.269l-26.951-26.951c-10.372-10.37-27.247-10.37-37.619,0l-26.951,26.951
			c-2.418,2.418-4.307,5.221-5.622,8.269h-39.294L86.5,212h38.078c0.025,0,0.05,0.003,0.075,0.003c0.024,0,0.048-0.003,0.072-0.003
			h145.183c-3.755,1.099-7.198,3.125-10.041,5.969l-22.145,22.146c-4.465,4.465-6.924,10.401-6.924,16.716
			s2.459,12.251,6.924,16.717l22.146,22.146c4.465,4.465,10.402,6.924,16.717,6.924s12.251-2.459,16.716-6.924l22.146-22.146
			c4.465-4.466,6.924-10.402,6.924-16.717s-2.459-12.251-6.924-16.716l-22.146-22.145c-2.844-2.844-6.286-4.87-10.041-5.97h142.243
			L408.588,325.29z"/>
	</g>
</g>
<g>
	<g>
		<path d="M286.501,368.43c-1.87-1.86-4.44-2.93-7.08-2.93c-2.63,0-5.21,1.069-7.07,2.93c-1.86,1.86-2.93,4.44-2.93,7.07
			s1.07,5.21,2.93,7.069c1.86,1.861,4.44,2.931,7.07,2.931c2.64,0,5.21-1.07,7.08-2.931c1.86-1.859,2.93-4.439,2.93-7.069
			S288.361,370.29,286.501,368.43z"/>
	</g>
</g>
<g>
</g>
<g>
</g>
<g>
</g>
<g>
</g>
<g>
</g>
<g>
</g>
<g>
</g>
<g>
</g>
<g>
</g>
<g>
</g>
<g>
</g>
<g>
</g>
<g>
</g>
<g>
</g>
<g>
</g>
</svg>
