<?xml version="1.0" encoding="iso-8859-1"?>
<!-- Generator: Adobe Illustrator 19.0.0, SVG Export Plug-In . SVG Version: 6.00 Build 0)  -->
<svg version="1.1" id="Capa_1" xmlns="http://www.w3.org/2000/svg" xmlns:xlink="http://www.w3.org/1999/xlink" x="0px" y="0px"
	 viewBox="0 0 512 512" style="enable-background:new 0 0 512 512;" xml:space="preserve">
<g>
	<g>
		<path d="M297.868,112.93c-1.86-1.86-4.44-2.93-7.07-2.93s-5.21,1.069-7.07,2.93c-1.859,1.86-2.93,4.44-2.93,7.07
			s1.07,5.21,2.93,7.069c1.87,1.86,4.44,2.931,7.07,2.931s5.21-1.07,7.07-2.931c1.859-1.859,2.93-4.439,2.93-7.069
			S299.728,114.79,297.868,112.93z"/>
	</g>
</g>
<g>
	<g>
		<path d="M437.53,112.6l10.963-9.243c11.336-9.558,17.837-23.545,17.837-38.374v-2.997C466.329,27.807,438.524,0,404.345,0
			c-27.687,0-52.233,18.622-59.693,45.285L342.214,54H61.679c-6.505,0-12.312,3.886-14.791,9.899
			c-2.48,6.013-1.103,12.861,3.51,17.447L195.054,225.16c0.004,0.004,0.007,0.008,0.011,0.012c0.008,0.008,0.016,0.015,0.024,0.023
			l14.045,13.964v213.593l-61.959,25.926c-7.712,3.227-11.949,11.205-10.303,19.401c1.646,8.196,8.634,13.921,16.993,13.921h170.479
			c8.363,0,15.352-5.727,16.995-13.927c1.645-8.199-2.598-16.177-10.313-19.4l-61.893-25.854V238.764L427.831,81.36
			c4.621-4.584,6.006-11.435,3.527-17.452C428.88,57.889,423.073,54,416.564,54h-26.43c-5.522,0-10,4.478-10,10s4.478,10,10,10
			h16.717L268.715,211.01c-0.005,0.005-0.011,0.009-0.016,0.014c-7.965,7.9-18.53,12.251-29.749,12.251
			c-11.233,0-21.806-4.36-29.773-12.276l-81.474-81h121.764c5.522,0,10-4.478,10-10c0-5.522-4.478-10-10-10H107.586L71.375,74
			h265.244l-12.115,43.306c-1.488,5.319,1.617,10.837,6.936,12.324c5.316,1.492,10.837-1.617,12.324-6.936l20.147-72.021
			C368.964,32.613,385.591,20,404.345,20c23.15,0,41.984,18.835,41.984,41.985v2.997c0,8.921-3.91,17.334-10.729,23.084
			l-10.964,9.244c-11.335,9.56-17.836,23.546-17.836,38.373c0,13.407,5.222,26.013,14.702,35.494l20.894,20.894
			c1.953,1.952,4.512,2.929,7.071,2.929s5.118-0.977,7.071-2.929c3.905-3.905,3.905-10.237,0-14.143l-20.894-20.894
			c-5.704-5.703-8.845-13.286-8.845-21.352C426.8,126.764,430.711,118.351,437.53,112.6z M222.995,468.633
			c3.719-1.556,6.14-5.193,6.14-9.225v-216.91c3.219,0.507,6.497,0.778,9.816,0.778c3.446-0.001,6.846-0.295,10.183-0.842v217.045
			c0,4.034,2.424,7.673,6.146,9.228L311.042,492H167.15L222.995,468.633z"/>
	</g>
</g>
<g>
</g>
<g>
</g>
<g>
</g>
<g>
</g>
<g>
</g>
<g>
</g>
<g>
</g>
<g>
</g>
<g>
</g>
<g>
</g>
<g>
</g>
<g>
</g>
<g>
</g>
<g>
</g>
<g>
</g>
</svg>
