<?xml version="1.0" encoding="iso-8859-1"?>
<!-- Generator: Adobe Illustrator 19.0.0, SVG Export Plug-In . SVG Version: 6.00 Build 0)  -->
<svg version="1.1" id="Capa_1" xmlns="http://www.w3.org/2000/svg" xmlns:xlink="http://www.w3.org/1999/xlink" x="0px" y="0px"
	 viewBox="0 0 512.001 512.001" style="enable-background:new 0 0 512.001 512.001;" xml:space="preserve">
<g>
	<g>
		<path d="M245.785,432c22.957,0,41.896-17.234,44.053-40.089l5.892-62.4c0.001-0.008,0.002-0.016,0.003-0.024
			c0-0.004,0-0.007,0-0.011l11.824-125.23c56.132-0.212,101.733-45.939,101.733-102.119c0-56.312-45.813-102.124-102.124-102.124
			c-52.895,0-96.522,40.424-101.623,91.999H185.26L169.174,8.119c-1.04-5.424-6.274-8.981-11.705-7.938
			c-5.424,1.04-8.978,6.28-7.938,11.704l15.363,80.117h-52.183c-2.815,0-5.501,1.187-7.396,3.27
			c-1.896,2.082-2.825,4.867-2.561,7.671l27.284,288.968c2.157,22.855,21.096,40.09,44.053,40.09c3.209,0,5.82,2.611,5.82,5.871
			c0,7.286-4.017,13.899-10.481,17.258l-51.586,26.804c-6.639,3.449-9.906,10.65-8.13,17.918
			c1.775,7.267,7.994,12.149,15.476,12.149h169.47c7.479,0,13.699-4.882,15.476-12.146c1.776-7.266-1.487-14.466-8.122-17.917
			l-51.631-26.862c-6.459-3.36-10.472-9.972-10.472-17.254C239.914,434.611,242.525,432,245.785,432z M297.166,82.59l-25.668-15.457
			c6.852-6.982,15.725-11.974,25.668-14V82.59z M274.026,92.001h-15.829c0.576-2.785,1.395-5.481,2.414-8.078L274.026,92.001z
			 M307.166,20.002c45.284,0,82.125,36.841,82.125,82.125c0,44.518-35.611,80.85-79.841,82.067l1.148-12.154
			c37.009-1.796,66.568-32.466,66.568-69.913c0-38.598-31.402-70-70-70c-35.159,0-64.336,26.059-69.258,59.875h-12.22
			C230.695,51.481,265.312,20.002,307.166,20.002z M317.165,84.642V53.133c10.664,2.174,20.103,7.754,27.131,15.549L317.165,84.642z
			 M354.451,85.911c1.75,5.089,2.714,10.541,2.714,16.216c0,5.289-0.832,10.385-2.36,15.173l-26.542-15.983L354.451,85.911z
			 M345.009,134.748c-8.081,9.361-19.558,15.709-32.505,17.09l3.275-34.692L345.009,134.748z M181.005,135.515L203.3,113.22
			c0.951-0.951,2.062-1.093,2.639-1.093c0.577,0,1.688,0.142,2.639,1.094l22.295,22.294c0.951,0.951,1.093,2.062,1.093,2.639
			c0,0.577-0.142,1.688-1.094,2.639l-22.294,22.294c-1.455,1.455-3.822,1.455-5.277,0l-22.294-22.294
			c-0.952-0.951-1.094-2.062-1.094-2.639C179.913,137.577,180.054,136.466,181.005,135.515z M136.067,231.428l21.148-21.147
			c1.181-1.181,3.1-1.179,4.278,0l21.147,21.147c1.18,1.18,1.18,3.1,0,4.279l-21.147,21.147c-1.181,1.181-3.1,1.179-4.278,0
			l-21.148-21.147C134.887,234.527,134.887,232.607,136.067,231.428z M138.258,266.184l4.813,4.813
			c4.489,4.488,10.386,6.733,16.281,6.733c5.896,0,11.793-2.245,16.282-6.733l21.147-21.147c8.978-8.979,8.978-23.586,0-32.564
			l-21.147-21.147c-8.976-8.977-23.584-8.978-32.563,0l-10.441,10.44l-8.93-94.576h51.768v-0.001
			c0.225,0.035,0.449,0.069,0.678,0.089l-9.281,9.281c-4.482,4.482-6.951,10.442-6.951,16.781c0,6.339,2.469,12.299,6.951,16.781
			l22.294,22.294c4.627,4.626,10.704,6.939,16.781,6.939s12.154-2.313,16.781-6.939l22.294-22.294
			c4.482-4.482,6.951-10.442,6.951-16.781c0-6.34-2.469-12.3-6.951-16.781l-9.371-9.37h10.019c0.491,0.074,0.991,0.125,1.503,0.125
			s1.012-0.051,1.503-0.125h47.509l-7.132,75.535c-1.106,1.413-1.854,3.135-2.065,5.05c-0.225,2.033,0.179,3.989,1.052,5.679
			l-0.516,5.458c-0.762-3.462-2.469-6.757-5.157-9.444l-15-15c-7.502-7.502-19.708-7.5-27.21,0l-15,15
			c-7.502,7.502-7.502,19.708,0,27.21l15,15c3.751,3.751,8.678,5.626,13.605,5.626c4.927,0,9.854-1.875,13.604-5.626l15-15
			c1.771-1.771,3.109-3.81,4.044-5.983l-10.586,112.114c-1.535,16.181-14.945,28.38-31.199,28.38h-69.361
			c-16.253,0-29.662-12.198-31.198-28.377L138.258,266.184z M267.68,207.885l-13.926,13.925l-13.925-13.925l13.925-13.926
			L267.68,207.885z M241.155,472.816L278.027,492H141.849l36.805-19.123c13.114-6.813,21.261-20.227,21.261-35.057
			c0-14.237-11.583-25.82-25.821-25.82c-12.58,0-22.958-9.444-24.14-21.97l-2.063-21.855c7.929,4.973,17.316,7.825,27.369,7.825
			h69.361c10.053,0,19.44-2.852,27.369-7.825l-2.063,21.856C268.744,402.555,258.365,412,245.735,412
			c-14.237,0-25.82,11.583-25.82,25.82C219.914,452.591,228.052,466,241.155,472.816z"/>
	</g>
</g>
<g>
	<g>
		<path d="M285.061,140.602c-1.859-1.859-4.43-2.93-7.069-2.93c-2.631,0-5.211,1.07-7.07,2.93c-1.86,1.86-2.93,4.431-2.93,7.07
			c0,2.63,1.069,5.21,2.93,7.07c1.859,1.859,4.439,2.93,7.07,2.93c2.63,0,5.21-1.07,7.069-2.93c1.87-1.87,2.931-4.44,2.931-7.07
			C287.992,145.032,286.931,142.462,285.061,140.602z"/>
	</g>
</g>
<g>
	<g>
		<path d="M152.011,140.602c-1.86-1.87-4.44-2.93-7.07-2.93c-2.64,0-5.21,1.06-7.069,2.93c-1.86,1.86-2.931,4.431-2.931,7.07
			c0,2.63,1.07,5.21,2.931,7.07c1.859,1.859,4.439,2.93,7.069,2.93c2.63,0,5.21-1.07,7.07-2.93s2.93-4.44,2.93-7.07
			S153.872,142.462,152.011,140.602z"/>
	</g>
</g>
<g>
</g>
<g>
</g>
<g>
</g>
<g>
</g>
<g>
</g>
<g>
</g>
<g>
</g>
<g>
</g>
<g>
</g>
<g>
</g>
<g>
</g>
<g>
</g>
<g>
</g>
<g>
</g>
<g>
</g>
</svg>
