<?xml version="1.0" encoding="iso-8859-1"?>
<!-- Generator: Adobe Illustrator 19.0.0, SVG Export Plug-In . SVG Version: 6.00 Build 0)  -->
<svg version="1.1" id="Capa_1" xmlns="http://www.w3.org/2000/svg" xmlns:xlink="http://www.w3.org/1999/xlink" x="0px" y="0px"
	 viewBox="0 0 511.999 511.999" style="enable-background:new 0 0 511.999 511.999;" xml:space="preserve">
<g>
	<g>
		<path d="M320.986,54h-23.153c6.915-25.29,17.689-36.776,17.837-36.929c2.859-2.86,3.715-7.161,2.168-10.898
			C316.29,2.437,312.644,0,308.599,0H36c-4.736,0-8.823,3.322-9.789,7.959c-0.967,4.637,1.451,9.315,5.793,11.208
			c0.707,0.308,70.589,31.661,62.75,105.153c-3.729,34.951-17.833,65.367-32.767,97.569
			c-18.559,40.021-37.749,81.402-35.858,132.445c0,0.003,0,0.006,0,0.01l0.047,1.165c0.022,0.516,0.056,1.03,0.085,1.544
			c2.405,46.63,21.749,85.184,37.736,109.487c17.604,26.763,34.738,42.257,35.459,42.903c1.834,1.646,4.212,2.556,6.677,2.556
			h175.993c2.465,0,4.843-0.91,6.677-2.556c0.721-0.646,17.854-16.141,35.459-42.903c15.962-24.267,35.274-62.742,37.725-109.276
			c0.035-0.588,0.072-1.176,0.097-1.766l0.045-1.156c0-0.003,0-0.005,0-0.008c1.891-51.043-17.3-92.425-35.858-132.445
			c-14.934-32.202-29.038-62.618-32.767-97.569c-0.377-3.536-0.67-6.975-0.886-10.32h28.365
			c57.898,0,105.008,46.374,105.015,103.376c0.004,29.304-12.506,57.352-34.321,76.952c-6.863,6.165-12.844,13.229-17.775,20.998
			c-8.119,12.792-8.608,28.356-1.31,41.634c7.298,13.275,20.698,21.201,35.847,21.201c5.522,0,10-4.478,10-10
			c0-10.942,4.861-21.586,13.338-29.201c34.465-30.966,54.228-75.284,54.222-121.592C485.989,127.286,411.963,54,320.986,54z
			 M46.18,355c-0.021-0.468-0.049-0.934-0.066-1.404c-1.592-43.023,13.319-78.412,30.198-115.038
			c-10.663,35.193-2.116,75.011,25.653,102.781c20.065,20.064,46.422,30.097,72.777,30.097c5.236,0,10.471-0.403,15.658-1.195
			l-43.472,43.472c-3.905,3.905-3.905,10.237,0,14.143c3.729,3.729,7.675,7.109,11.797,10.145h-25.192
			C86.672,438.001,48.371,401.565,46.18,355z M107.771,286.9c0.035,0.161,0.06,0.321,0.103,0.482
			c0.045,0.168,0.106,0.328,0.159,0.492c3.142,10.922,8.997,21.222,17.586,29.811c8.584,8.584,18.878,14.439,29.793,17.582
			c0.169,0.055,0.335,0.118,0.509,0.165c0.13,0.035,0.259,0.048,0.389,0.077c6.025,1.648,12.226,2.491,18.432,2.491
			c14.635,0,29.265-4.594,41.536-13.759l9.604,9.604c-32.511,25.504-79.835,23.291-109.774-6.647
			c-29.938-29.938-32.152-77.262-6.647-109.773l9.604,9.604C106.032,244.474,102.274,266.69,107.771,286.9z M125.451,272.32
			c-0.81-10.716,1.835-21.646,7.958-30.948l22.727,22.726L125.451,272.32z M159.366,283.937l-7.618,28.431
			c-4.315-2.262-8.364-5.203-11.986-8.826c-3.623-3.622-6.564-7.671-8.826-11.987L159.366,283.937z M170.985,317.854l8.222-30.685
			l22.726,22.726C192.63,316.019,181.7,318.663,170.985,317.854z M263.512,378.072c-2.262,4.315-5.203,8.365-8.826,11.987
			c-3.621,3.622-7.671,6.564-11.986,8.826l-7.618-28.431L263.512,378.072z M238.312,350.614l22.727-22.727
			c6.124,9.303,8.768,20.233,7.958,30.949L238.312,350.614z M238.154,422.02c0.125-0.028,0.249-0.041,0.374-0.074
			c0.168-0.045,0.327-0.106,0.491-0.159c10.922-3.142,21.222-8.997,29.812-17.587c8.585-8.586,14.44-18.881,17.582-29.798
			c0.055-0.168,0.116-0.332,0.163-0.504c0.044-0.164,0.071-0.329,0.106-0.494c5.492-20.207,1.733-42.419-11.296-59.863l9.608-9.609
			c11.434,14.535,17.636,32.364,17.636,51.145c0,22.149-8.626,42.973-24.288,58.635c-29.937,29.939-77.263,32.153-109.775,6.648
			l9.604-9.604c12.271,9.166,26.9,13.759,41.536,13.759C225.917,424.515,232.124,423.671,238.154,422.02z M192.516,396.411
			l22.727-22.727l8.222,30.686C212.749,405.179,201.819,402.535,192.516,396.411z M278.099,492H110.152
			c-6.746-6.702-25.049-26.25-40.387-54.913C88.162,450.649,110.356,458,133.535,458h121.192c23.135,0,45.29-7.324,63.666-20.838
			C303.068,465.748,284.82,485.297,278.099,492z M292.713,195.785c4.86,11.75,10.168,23.202,15.416,34.518
			c18.373,39.623,35.729,77.048,34.016,123.292c-0.018,0.491-0.047,0.977-0.069,1.466c-1.646,34.377-22.969,63.202-52.877,75.93
			c1.111-1.018,2.208-2.059,3.284-3.135c19.439-19.44,30.146-45.286,30.146-72.777c0-27.492-10.706-53.338-30.146-72.777
			c-3.906-3.904-10.236-3.904-14.143,0l-37.858,37.858l-16.615-16.615c-0.001-0.001-0.001-0.001-0.002-0.002
			c-0.001-0.001-0.001-0.001-0.002-0.002l-84.094-84.094c-0.003-0.003-0.005-0.006-0.008-0.008s-0.006-0.005-0.008-0.008
			l-23.646-23.646c-3.906-3.904-10.236-3.904-14.143,0c-5.369,5.369-10.012,11.191-13.944,17.34
			c12.168-26.992,23.259-55.18,26.62-86.684c3.888-36.448-7.829-69.77-33.884-96.363c-3.66-3.737-7.36-7.092-10.961-10.078h219.918
			c-5.164,9.594-10.809,23.42-14.275,41.92c-0.013,0.063-0.023,0.126-0.036,0.189c-3.214,17.256-4.531,38.566-1.783,64.332
			c1.855,17.388,6.069,33.764,11.514,49.489H194.13c-5.522,0-10,4.478-10,10c0,5.522,4.478,10,10,10h96.948
			C291.636,195.93,292.18,195.873,292.713,195.785z M418.411,324.083c-9.628,8.649-16.141,19.983-18.725,32.202
			c-3.987-1.82-7.335-4.9-9.566-8.96c-3.731-6.787-3.48-14.743,0.669-21.281c3.953-6.227,8.749-11.893,14.256-16.839
			c26.031-23.388,40.959-56.859,40.955-91.831C445.992,149.345,389.91,94,320.986,94h-28.763c0.192-7.21,0.754-13.872,1.585-20
			h27.179c79.95,0,145.004,64.315,145.013,143.37C466.006,258.01,448.66,296.905,418.411,324.083z"/>
	</g>
</g>
<g>
	<g>
		<path d="M163.04,178.86c-1.86-1.86-4.44-2.93-7.07-2.93c-2.64,0-5.21,1.07-7.07,2.93c-1.859,1.86-2.93,4.44-2.93,7.07
			s1.07,5.21,2.93,7.07c1.86,1.859,4.44,2.93,7.07,2.93s5.21-1.07,7.07-2.93c1.859-1.86,2.93-4.44,2.93-7.07
			S164.9,180.72,163.04,178.86z"/>
	</g>
</g>
<g>
	<g>
		<path d="M235.49,234.93c-1.87-1.861-4.44-2.93-7.07-2.93c-2.64,0-5.21,1.069-7.08,2.93c-1.86,1.86-2.93,4.44-2.93,7.07
			s1.069,5.21,2.93,7.069c1.87,1.86,4.44,2.931,7.08,2.931c2.63,0,5.2-1.07,7.07-2.931c1.859-1.859,2.93-4.439,2.93-7.069
			S237.35,236.79,235.49,234.93z"/>
	</g>
</g>
<g>
	<g>
		<path d="M74.069,339.4c-1.859-1.859-4.439-2.93-7.069-2.93s-5.21,1.07-7.07,2.93S57,343.84,57,346.47s1.069,5.21,2.93,7.07
			c1.86,1.859,4.44,2.93,7.07,2.93s5.21-1.07,7.069-2.93c1.86-1.86,2.931-4.44,2.931-7.07S75.93,341.26,74.069,339.4z"/>
	</g>
</g>
<g>
	<g>
		<path d="M108.24,386.609c-1.86-1.859-4.44-2.92-7.07-2.92s-5.21,1.061-7.07,2.92c-1.859,1.87-2.93,4.44-2.93,7.07
			s1.07,5.21,2.93,7.08c1.86,1.861,4.44,2.93,7.07,2.93s5.2-1.069,7.07-2.93c1.859-1.87,2.93-4.45,2.93-7.08
			C111.17,391.049,110.1,388.479,108.24,386.609z"/>
	</g>
</g>
<g>
</g>
<g>
</g>
<g>
</g>
<g>
</g>
<g>
</g>
<g>
</g>
<g>
</g>
<g>
</g>
<g>
</g>
<g>
</g>
<g>
</g>
<g>
</g>
<g>
</g>
<g>
</g>
<g>
</g>
</svg>
