<?xml version="1.0" encoding="iso-8859-1"?>
<!-- Generator: Adobe Illustrator 19.0.0, SVG Export Plug-In . SVG Version: 6.00 Build 0)  -->
<svg version="1.1" id="Capa_1" xmlns="http://www.w3.org/2000/svg" xmlns:xlink="http://www.w3.org/1999/xlink" x="0px" y="0px"
	 viewBox="0 0 512 512" style="enable-background:new 0 0 512 512;" xml:space="preserve">
<g>
	<g>
		<path d="M337.828,479.802l-51.854-21.698V323.246c0.231-0.422,0.471-0.838,0.687-1.273l40.717-82.172
			c5.254-10.604,9.815-21.676,13.559-32.905c11.965-35.891,15.896-74.717,11.366-112.281L341.956,8.803
			C341.351,3.779,337.088,0,332.028,0H179.972c-5.06,0-9.322,3.779-9.928,8.803l-10.347,85.813
			c-4.529,37.564-0.599,76.391,11.366,112.281c3.743,11.229,8.305,22.301,13.56,32.905l40.716,82.172
			c0.199,0.402,0.423,0.787,0.636,1.178v135.009l-51.793,21.636c-7.456,3.114-11.555,10.823-9.967,18.746
			c1.589,7.924,8.341,13.457,16.422,13.457h150.727c8.078,0,14.831-5.531,16.421-13.452
			C349.374,490.628,345.279,482.919,337.828,479.802z M202.544,230.923c-4.847-9.781-9.055-19.993-12.508-30.351
			c-11.035-33.104-14.66-68.916-10.483-103.563L182.327,74h81.006c5.522,0,10-4.478,10-10c0-5.522-4.478-10-10-10h-78.594l4.1-34
			h134.322l9.286,77.01c4.177,34.646,0.552,70.458-10.484,103.563c-3.452,10.357-7.66,20.569-12.506,30.351l-40.716,82.172
			C266.324,317.971,261.442,321,256,321c-5.442,0-10.324-3.029-12.741-7.905L202.544,230.923z M196.856,492l42.973-17.951
			c3.722-1.555,6.146-5.193,6.146-9.228V339.507C249.167,340.476,252.534,341,256,341c3.448,0,6.797-0.518,9.975-1.476V464.76
			c0,4.031,2.421,7.669,6.14,9.225L315.168,492H196.856z"/>
	</g>
</g>
<g>
	<g>
		<path d="M307.479,56.93C305.62,55.07,303.04,54,300.41,54s-5.21,1.069-7.07,2.93c-1.86,1.861-2.93,4.44-2.93,7.07
			s1.069,5.21,2.93,7.069C295.2,72.93,297.78,74,300.41,74s5.21-1.07,7.069-2.931c1.86-1.859,2.931-4.439,2.931-7.069
			S309.34,58.79,307.479,56.93z"/>
	</g>
</g>
<g>
</g>
<g>
</g>
<g>
</g>
<g>
</g>
<g>
</g>
<g>
</g>
<g>
</g>
<g>
</g>
<g>
</g>
<g>
</g>
<g>
</g>
<g>
</g>
<g>
</g>
<g>
</g>
<g>
</g>
</svg>
