<?xml version="1.0" encoding="iso-8859-1"?>
<!-- Generator: Adobe Illustrator 19.0.0, SVG Export Plug-In . SVG Version: 6.00 Build 0)  -->
<svg version="1.1" id="Capa_1" xmlns="http://www.w3.org/2000/svg" xmlns:xlink="http://www.w3.org/1999/xlink" x="0px" y="0px"
	 viewBox="0 0 512.001 512.001" style="enable-background:new 0 0 512.001 512.001;" xml:space="preserve">
<g>
	<g>
		<path d="M392.093,90.649c-15.825-27.469-38.775-50.408-66.369-66.34C298.177,8.404,266.9,0.002,235.256,0.002
			c-0.054,0-0.113,0-0.167,0c-2.928,0.003-5.708,1.289-7.606,3.519c-1.898,2.23-2.723,5.18-2.258,8.071l11.057,68.68
			c-2.465,3.522-4.348,7.478-5.509,11.73h-29.727L180.345,7.619c-1.316-5.363-6.73-8.645-12.094-7.329
			c-5.364,1.316-8.646,6.73-7.33,12.095l19.532,79.617h-31.796c-3.203,0-6.211,1.534-8.092,4.125
			c-1.881,2.592-2.408,5.928-1.416,8.973l6.43,19.737c3.722,11.425,5.888,23.12,6.549,34.861c0,0.028-0.004,0.055-0.004,0.083
			c0,0.413,0.033,0.817,0.081,1.217c0.766,16.402-1.436,32.88-6.639,48.834l-21.952,67.318c-5.603,17.185-6.555,35.606-2.753,53.274
			c5.273,24.502,19.304,46.163,39.509,60.992l49.032,35.986v30.76l-51.793,21.636c-7.456,3.114-11.554,10.823-9.966,18.746
			c1.588,7.924,8.341,13.457,16.422,13.457h150.726c8.079,0,14.831-5.531,16.421-13.452c1.59-7.92-2.504-15.629-9.956-18.746
			l-51.854-21.698v-30.664l49.083-36.024c20.205-14.829,34.236-36.49,39.509-60.993c3.802-17.669,2.85-36.09-2.753-53.273
			l-21.952-67.318c-9.065-27.8-9.07-57.191-0.013-84.995l0.274-0.841l53.229-18.934c2.795-0.994,5.005-3.179,6.031-5.963
			S393.574,93.22,392.093,90.649z M298.596,492.002H180.284l42.973-17.951c3.722-1.555,6.146-5.194,6.146-9.228v-32.821h20v32.76
			c0,4.031,2.421,7.669,6.14,9.225L298.596,492.002z M336.227,283.352c4.508,13.825,5.274,28.648,2.215,42.866
			c-4.242,19.715-15.532,37.144-31.79,49.076l-50.015,36.708H222.22l-50.015-36.708c-16.258-11.933-27.548-29.362-31.79-49.077
			c-3.06-14.217-2.294-29.039,2.215-42.865l21.952-67.318c4.936-15.136,7.522-30.684,7.77-46.252h34.077c5.523,0,10-4.478,10-10
			c0-5.522-4.477-10-10-10h-35.052c-1.191-10.487-3.447-20.907-6.78-31.14l-2.163-6.64h68.34c4.402,16.116,19.163,28,36.655,28
			s32.253-11.884,36.655-28h12.34l-2.163,6.64c-10.378,31.859-10.373,65.536,0.015,97.392L336.227,283.352z M249.428,102.002
			c0-9.925,8.075-18,18-18c9.925,0,18,8.075,18,18c0,9.925-8.075,18-18,18S249.428,111.927,249.428,102.002z M340.076,100.447
			c-0.242-1.54-0.844-3.023-1.786-4.32c-1.881-2.591-4.89-4.125-8.092-4.125h-26.115c-4.402-16.116-19.163-28-36.655-28
			c-4.613,0-9.036,0.828-13.131,2.341l-7.392-45.914c24.12,1.77,47.699,9.008,68.819,21.2
			c21.036,12.146,39.037,28.864,52.611,48.767L340.076,100.447z"/>
	</g>
</g>
<g>
	<g>
		<path d="M253.779,152.712c-1.86-1.86-4.44-2.93-7.07-2.93s-5.21,1.069-7.07,2.93c-1.86,1.859-2.93,4.439-2.93,7.07
			c0,2.63,1.07,5.21,2.93,7.069c1.86,1.86,4.44,2.931,7.07,2.931s5.21-1.07,7.07-2.931c1.87-1.859,2.93-4.439,2.93-7.069
			C256.709,157.151,255.649,154.571,253.779,152.712z"/>
	</g>
</g>
<g>
</g>
<g>
</g>
<g>
</g>
<g>
</g>
<g>
</g>
<g>
</g>
<g>
</g>
<g>
</g>
<g>
</g>
<g>
</g>
<g>
</g>
<g>
</g>
<g>
</g>
<g>
</g>
<g>
</g>
</svg>
