<?xml version="1.0" encoding="iso-8859-1"?>
<!-- Generator: Adobe Illustrator 19.0.0, SVG Export Plug-In . SVG Version: 6.00 Build 0)  -->
<svg version="1.1" id="Capa_1" xmlns="http://www.w3.org/2000/svg" xmlns:xlink="http://www.w3.org/1999/xlink" x="0px" y="0px"
	 viewBox="0 0 512 512" style="enable-background:new 0 0 512 512;" xml:space="preserve">
<g>
	<g>
		<path d="M175.551,90.962c-1.86-1.86-4.44-2.93-7.079-2.93c-2.63,0-5.21,1.069-7.069,2.93c-1.86,1.86-2.92,4.44-2.92,7.069
			c0,2.63,1.06,5.21,2.92,7.068c1.87,1.861,4.44,2.931,7.069,2.931c2.64,0,5.21-1.07,7.079-2.931c1.86-1.859,2.93-4.439,2.93-7.068
			C178.481,95.402,177.411,92.822,175.551,90.962z"/>
	</g>
</g>
<g>
	<g>
		<path d="M335.928,269.019h-45.051c-16.333,0-29.621,13.288-29.621,29.621v45.051c0,16.333,13.288,29.621,29.621,29.621h45.051
			c16.333,0,29.621-13.288,29.621-29.621v-45.051C365.548,282.307,352.26,269.019,335.928,269.019z M345.55,343.69
			c0,5.307-4.317,9.622-9.622,9.622h-45.051c-5.306,0-9.622-4.317-9.622-9.622v-45.051c0-5.307,4.317-9.622,9.622-9.622h45.051
			c5.306,0,9.622,4.316,9.622,9.622V343.69z"/>
	</g>
</g>
<g>
	<g>
		<path d="M441.633,18.912C409.086,0.12,371.169-4.872,334.867,4.855c-36.302,9.727-66.643,33.008-85.434,65.556
			c-2.762,4.783-1.123,10.897,3.66,13.659l33.102,19.112c0.001,0.001,0.003,0.002,0.004,0.002c0.001,0,0.003,0.001,0.004,0.002
			l39.257,22.665c-4.84,1.634-9.399,3.879-13.578,6.658c-26.704-23.248-59.276-38.256-94.337-43.428
			c-5.469-0.809-10.546,2.969-11.352,8.433c-0.806,5.463,2.97,10.545,8.433,11.351c30.631,4.519,59.12,17.472,82.658,37.489
			c-7.207,9.692-11.479,21.691-11.479,34.671c0,32.108,26.122,58.23,58.23,58.23c32.108,0,58.23-26.122,58.23-58.23
			c0-3.934-0.397-7.775-1.144-11.492l19.235,11.105l-39.727,221.205c-0.725,1.111-1.242,2.382-1.48,3.772
			c-2.22,12.975-13.386,22.392-26.549,22.392H202.587l29.055-29.055c13.282-13.283,13.282-34.894,0-48.178l-39.075-39.075
			c-6.435-6.435-14.99-9.978-24.089-9.978s-17.655,3.544-24.089,9.978l-39.075,39.075c-13.282,13.283-13.282,34.894,0,48.178
			l29.055,29.055h-31.573c-13.164,0-24.329-9.417-26.549-22.392c-0.238-1.39-0.755-2.661-1.48-3.772L36.775,190.31h76.916
			c-1.113,7.132,0.16,14.389,3.727,20.797l25.203,45.286c4.231,7.602,11.169,13.102,19.537,15.485
			c2.962,0.844,5.976,1.262,8.972,1.262c5.471,0,10.88-1.393,15.791-4.126l45.287-25.203c15.693-8.734,21.354-28.607,12.621-44.301
			l-25.203-45.286c-8.734-15.692-28.608-21.352-44.3-12.621l-45.286,25.203c-1.827,1.017-3.528,2.193-5.098,3.505H33.184
			l-11.185-62.28h101.303c5.523,0,9.999-4.478,9.999-9.999c0-5.522-4.477-9.999-9.999-9.999H10.043
			c-2.961,0-5.771,1.313-7.669,3.584c-1.9,2.271-2.696,5.269-2.172,8.183l68.899,383.637C72.074,499.988,86.436,512,103.251,512
			h248.887c16.816,0,31.179-12.013,34.151-28.564l52.472-292.17l7.606,4.392l33.106,19.114c1.534,0.886,3.26,1.34,5,1.34
			c0.866,0,1.736-0.112,2.588-0.341c2.562-0.687,4.746-2.362,6.072-4.659C531.925,143.924,508.821,57.703,441.633,18.912z
			 M133.787,191.822c0.92-3.229,3.043-5.908,5.978-7.54l45.286-25.202c6.057-3.374,13.729-1.187,17.101,4.872l25.203,45.286
			c3.372,6.057,1.186,13.728-4.872,17.101l-45.287,25.203c-2.935,1.632-6.33,2.024-9.559,1.105c-3.23-0.92-5.909-3.044-7.541-5.979
			l-25.203-45.286C133.259,198.446,132.866,195.052,133.787,191.822z M119.453,384.81c-5.485-5.485-5.485-14.409,0.001-19.894
			l39.075-39.075c2.657-2.658,6.19-4.121,9.947-4.121c3.758,0,7.292,1.463,9.948,4.121l39.075,39.075
			c5.486,5.485,5.486,14.41,0,19.894l-39.075,39.075c-5.486,5.485-14.411,5.485-19.896,0L119.453,384.81z M366.606,479.901
			c-1.259,7.011-7.343,12.101-14.467,12.101H103.252c-7.123,0-13.208-5.09-14.468-12.101l-6.578-36.629
			c6.24,3.038,13.233,4.733,20.588,4.733h249.802c7.355,0,14.348-1.695,20.588-4.733L366.606,479.901z M305.401,91.178
			c9.237-12.291,21.454-21.384,35.05-26.851l14.926,55.705L305.401,91.178z M344.033,219.255c-21.08,0-38.231-17.151-38.231-38.231
			c0-21.08,17.151-38.23,38.231-38.23s38.231,17.15,38.231,38.23C382.264,202.105,365.113,219.255,344.033,219.255z
			 M374.694,114.856l-14.926-55.705c14.507-2.063,29.634-0.297,43.78,5.729L374.694,114.856z M420.869,74.873
			c12.047,9.029,21.287,21.071,26.891,35.044l-55.748,14.938L420.869,74.873z M447.17,173.029l-49.981-28.857l55.747-14.938
			C455.069,144.137,453.088,159.186,447.17,173.029z M480.458,192.248l-15.848-9.149c9.832-21.569,11.868-45.667,5.655-68.859
			c-7.084-26.439-24.04-48.537-47.745-62.223c-46.012-26.565-104.276-13.27-134.559,29.093l-15.859-9.156
			c16.244-23.498,40.039-40.306,67.94-47.781c31.144-8.343,63.67-4.062,91.591,12.059
			C486.356,67.825,506.989,136.095,480.458,192.248z"/>
	</g>
</g>
<g>
	<g>
		<path d="M327.089,396.299c-1.86-1.86-4.44-2.92-7.069-2.92c-2.63,0-5.21,1.06-7.07,2.92c-1.86,1.87-2.93,4.439-2.93,7.079
			c0,2.63,1.07,5.21,2.93,7.068c1.86,1.86,4.44,2.931,7.07,2.931c2.63,0,5.21-1.07,7.069-2.931c1.86-1.87,2.93-4.439,2.93-7.068
			C330.019,400.738,328.949,398.169,327.089,396.299z"/>
	</g>
</g>
<g>
	<g>
		<path d="M112.406,264.949c-1.86-1.861-4.44-2.93-7.069-2.93c-2.63,0-5.21,1.069-7.069,2.93c-1.87,1.86-2.93,4.44-2.93,7.069
			c0,2.63,1.06,5.21,2.93,7.068c1.86,1.86,4.44,2.931,7.069,2.931c2.63,0,5.2-1.07,7.069-2.931c1.86-1.859,2.93-4.439,2.93-7.068
			C115.335,269.389,114.265,266.809,112.406,264.949z"/>
	</g>
</g>
<g>
</g>
<g>
</g>
<g>
</g>
<g>
</g>
<g>
</g>
<g>
</g>
<g>
</g>
<g>
</g>
<g>
</g>
<g>
</g>
<g>
</g>
<g>
</g>
<g>
</g>
<g>
</g>
<g>
</g>
</svg>
