<?xml version="1.0" encoding="iso-8859-1"?>
<!-- Generator: Adobe Illustrator 19.0.0, SVG Export Plug-In . SVG Version: 6.00 Build 0)  -->
<svg version="1.1" id="Capa_1" xmlns="http://www.w3.org/2000/svg" xmlns:xlink="http://www.w3.org/1999/xlink" x="0px" y="0px"
	 viewBox="0 0 512.001 512.001" style="enable-background:new 0 0 512.001 512.001;" xml:space="preserve">
<g>
	<g>
		<path d="M295.094,313.471l-37.002-37.002c-18.102-18.102-47.557-18.102-65.658,0l-37.005,37.002
			c-8.769,8.77-13.598,20.429-13.598,32.83s4.829,24.061,13.598,32.829l37.003,37.003c9.051,9.051,20.94,13.576,32.829,13.576
			s23.778-4.525,32.83-13.576l37.002-37.003c8.77-8.769,13.599-20.428,13.599-32.829S303.863,322.24,295.094,313.471z
			 M280.951,364.99l-37.002,37.003c-10.305,10.303-27.071,10.304-37.375,0l-37.003-37.003c-4.991-4.991-7.74-11.628-7.74-18.687
			c0-7.06,2.749-13.696,7.74-18.688l37.002-37.002c5.153-5.153,11.919-7.729,18.688-7.729c6.767,0,13.536,2.577,18.688,7.729
			l37.002,37.002c4.992,4.991,7.741,11.628,7.741,18.688C288.692,353.361,285.943,359.997,280.951,364.99z"/>
	</g>
</g>
<g>
	<g>
		<path d="M232.33,181.93c-1.86-1.86-4.44-2.93-7.07-2.93s-5.21,1.069-7.07,2.93c-1.86,1.861-2.93,4.44-2.93,7.07
			s1.07,5.21,2.93,7.069c1.86,1.86,4.44,2.931,7.07,2.931s5.21-1.07,7.07-2.931c1.86-1.859,2.93-4.439,2.93-7.069
			S234.19,183.79,232.33,181.93z"/>
	</g>
</g>
<g>
	<g>
		<path d="M379,0c-71.325,0-129.709,56.438-132.858,127H105.65L87.017,47.712C85.753,42.336,80.37,39,74.995,40.266
			c-5.376,1.263-8.711,6.646-7.447,12.022L85.105,127H10c-5.523,0-10,4.478-10,10v329.8C0,491.724,20.277,512,45.2,512h281.6
			c24.923,0,45.2-20.276,45.2-45.2V293.576c0-5.522-4.477-10-10-10s-10,4.478-10,10V412.8c0,13.896-11.305,25.2-25.2,25.2H45.2
			C31.305,438,20,426.695,20,412.8V199h53.388l-27.495,27.495c-6.108,6.108-9.472,14.229-9.472,22.867
			c0,8.639,3.364,16.76,9.472,22.868L82.162,308.5c6.305,6.305,14.585,9.457,22.867,9.456c8.28-0.001,16.563-3.152,22.868-9.456
			l36.269-36.269c6.108-6.108,9.472-14.229,9.472-22.868c0-8.638-3.364-16.759-9.472-22.867L136.669,199H181c5.523,0,10-4.478,10-10
			c0-5.522-4.477-10-10-10h-63.129l-7.52-32h136.386c7.018,66.781,63.655,119,132.264,119c73.336,0,133-59.663,133-133
			S452.336,0,379,0z M45.2,458h281.6c9.323,0,17.996-2.839,25.2-7.695V466.8c0,13.896-11.305,25.2-25.2,25.2H45.2
			C31.305,492,20,480.695,20,466.8v-16.495C27.205,455.161,35.877,458,45.2,458z M20,179v-32h69.805l7.521,32H20z M113.754,204.37
			l36.268,36.269c2.331,2.33,3.614,5.429,3.614,8.725c0,3.296-1.284,6.396-3.614,8.726l-36.268,36.269
			c-4.81,4.813-12.639,4.812-17.45,0l-36.269-36.269c-2.331-2.33-3.614-5.43-3.614-8.726c0-3.296,1.283-6.395,3.614-8.725
			l36.269-36.27c2.331-2.33,5.429-3.614,8.725-3.614C108.325,200.755,111.424,202.039,113.754,204.37z M379,246
			c-62.309,0-113-50.691-113-113S316.691,20,379,20s113,50.691,113,113S441.309,246,379,246z"/>
	</g>
</g>
<g>
	<g>
		<path d="M379,46.125c-47.903,0-86.875,38.972-86.875,86.875s38.972,86.875,86.875,86.875s86.875-38.972,86.875-86.875
			S426.903,46.125,379,46.125z M316.735,157.352c-2.964-7.552-4.61-15.761-4.61-24.352c0-8.62,1.657-16.855,4.64-24.428
			l42.231,24.15L316.735,157.352z M369,199.125c-17.027-2.564-31.961-11.579-42.252-24.46L369,150.042V199.125z M369,115.404
			l-42.202-24.133c10.29-12.847,25.203-21.836,42.202-24.396V115.404z M389,66.875c16.81,2.532,31.585,11.346,41.863,23.964
			L389,115.237V66.875z M389,199.125V149.88l42.59,24.355C421.289,187.344,406.216,196.532,389,199.125z M398.998,132.558
			l42.035-24.498c3.112,7.713,4.842,16.126,4.842,24.94c0,8.398-1.571,16.432-4.409,23.843L398.998,132.558z"/>
	</g>
</g>
<g>
	<g>
		<path d="M100.69,376.93c-1.86-1.86-4.44-2.93-7.07-2.93c-2.64,0-5.21,1.069-7.08,2.93c-1.86,1.86-2.92,4.44-2.92,7.07
			c0,2.64,1.06,5.21,2.92,7.069c1.87,1.87,4.45,2.931,7.08,2.931s5.2-1.061,7.07-2.931c1.86-1.859,2.93-4.43,2.93-7.069
			C103.62,381.37,102.55,378.79,100.69,376.93z"/>
	</g>
</g>
<g>
	<g>
		<path d="M59.16,327.891c-1.86-1.859-4.44-2.93-7.07-2.93s-5.21,1.07-7.07,2.93c-1.86,1.86-2.93,4.44-2.93,7.07
			s1.07,5.21,2.93,7.07c1.86,1.859,4.44,2.93,7.07,2.93s5.21-1.07,7.07-2.93c1.86-1.86,2.93-4.44,2.93-7.07
			S61.02,329.75,59.16,327.891z"/>
	</g>
</g>
<g>
	<g>
		<path d="M313.07,286.5c-1.86-1.86-4.44-2.92-7.07-2.92s-5.21,1.06-7.07,2.92c-1.86,1.87-2.93,4.439-2.93,7.08
			c0,2.63,1.07,5.21,2.93,7.069c1.86,1.86,4.44,2.931,7.07,2.931s5.21-1.07,7.07-2.931c1.86-1.859,2.93-4.439,2.93-7.069
			C316,290.939,314.93,288.37,313.07,286.5z"/>
	</g>
</g>
<g>
</g>
<g>
</g>
<g>
</g>
<g>
</g>
<g>
</g>
<g>
</g>
<g>
</g>
<g>
</g>
<g>
</g>
<g>
</g>
<g>
</g>
<g>
</g>
<g>
</g>
<g>
</g>
<g>
</g>
</svg>
