<?xml version="1.0" encoding="iso-8859-1"?>
<!-- Generator: Adobe Illustrator 19.0.0, SVG Export Plug-In . SVG Version: 6.00 Build 0)  -->
<svg version="1.1" id="Capa_1" xmlns="http://www.w3.org/2000/svg" xmlns:xlink="http://www.w3.org/1999/xlink" x="0px" y="0px"
	 viewBox="0 0 512 512" style="enable-background:new 0 0 512 512;" xml:space="preserve">
<g>
	<g>
		<path d="M358.929,383.133c-4.318-3.445-10.61-2.737-14.055,1.581c-20.321,25.47-48.759,44.038-80.076,52.284
			c-5.341,1.406-8.53,6.875-7.124,12.217c1.182,4.488,5.231,7.457,9.664,7.457c0.843,0,1.7-0.108,2.553-0.333
			c35.449-9.333,67.63-30.34,90.617-59.152C363.954,392.871,363.246,386.579,358.929,383.133z"/>
	</g>
</g>
<g>
	<g>
		<path d="M226.484,441.996c-0.02,0-0.04,0-0.06,0l-0.441,0.001c-5.523,0-10,4.478-10,10c0,5.522,4.477,10,10,10l0.559-0.001
			c5.523-0.032,9.974-4.536,9.941-10.059C236.45,446.435,231.979,441.996,226.484,441.996z"/>
	</g>
</g>
<g>
	<g>
		<path d="M505.098,2.939c-3.905-3.904-10.237-3.904-14.143,0L471.87,22.025c-5.456-3.034-11.731-4.769-18.404-4.769
			c-20.689,0-37.558,16.622-37.982,37.211c-54.483-21.785-118.302-0.791-148.482,51.481c-1.326,2.297-1.686,5.026-0.999,7.588
			c0.687,2.563,2.362,4.746,4.659,6.072l63.003,36.375H164.048L133.755,89.16l105.059-43.045c4.111-1.685,6.618-5.88,6.154-10.298
			c-0.464-4.419-3.789-8.002-8.161-8.795L88.673,0.159c-4.039-0.727-8.115,1.077-10.28,4.564L5.477,122.157
			c-2.287,3.684-1.94,8.422,0.86,11.733c1.942,2.297,4.757,3.544,7.639,3.544c1.273,0,2.559-0.244,3.789-0.748l97.47-39.936
			l26.853,59.235H80.976c-3.122,0-6.065,1.458-7.957,3.942L6.016,247.93c-1.326,1.741-2.043,3.869-2.043,6.058v2.123
			c0,0.003,0,0.005,0,0.008v33.871c0,59.301,23.093,115.052,65.025,156.985C110.93,488.908,166.681,512,225.983,512
			s115.052-23.093,156.985-65.025c41.933-41.933,65.025-97.684,65.025-156.985v-36.002c0-2.188-0.718-4.316-2.043-6.058
			l-36.845-48.393l24.318,14.041l27.878,16.096c1.575,0.909,3.294,1.342,4.991,1.342c3.456,0,6.817-1.794,8.669-5.002
			c16.036-27.773,20.295-60.129,11.995-91.107c-4.313-16.096-11.756-30.813-21.8-43.494c15.252-4.943,26.313-19.278,26.313-36.155
			c0-7.031-1.927-13.62-5.27-19.275L505.1,17.082C509.005,13.178,509.003,6.846,505.098,2.939z M38.76,106.469l41.185-66.33
			l5.349,47.264L38.76,106.469z M199.543,40.593l-38.766,15.883L123.89,26.873L199.543,40.593z M104.53,79.521l-5.295-46.79
			l40.387,32.412L104.53,79.521z M317.835,123.75c6.93-8.76,15.855-15.609,26.11-20.036l11.13,41.536L317.835,123.75z
			 M427.992,289.991c-0.001,111.387-90.622,202.008-202.01,202.008S23.973,401.378,23.973,289.99v-12.878
			c39.872,26.352,93.319,23.885,130.627-7.439c19.675,16.553,44.305,25.568,70.319,25.568c26.014,0,50.644-9.016,70.319-25.568
			c37.977,31.885,92.673,33.865,132.754,5.99V289.991z M424.619,252.934c-35.089,30.911-88.797,29.627-122.314-3.89
			c-3.905-3.904-10.237-3.904-14.143,0c-34.873,34.873-91.614,34.873-126.487,0c-3.905-3.903-10.237-3.904-14.143,0
			c-33.112,33.111-85.924,34.76-121.027,4.994l59.426-78.052h71.635c0.014,0,0.027,0.003,0.041,0.003
			c0.019,0,0.037-0.003,0.056-0.003h208.37L424.619,252.934z M374.393,140.074l-11.13-41.536
			c11.094-1.293,22.248,0.175,32.629,4.295L374.393,140.074z M413.214,112.833c8.759,6.93,15.608,15.856,20.035,26.11l-41.535,11.13
			L413.214,112.833z M434.131,190.892l-37.24-21.5l41.536-11.129C439.72,169.357,438.252,180.51,434.131,190.892z M467.636,140.085
			c6.048,22.568,4.095,46.017-5.42,67.023l-10.639-6.143c17.565-40.388,2.375-88.548-36.657-111.083
			c-20.327-11.736-44.009-14.854-66.68-8.778c-19.419,5.203-36.091,16.632-47.854,32.572l-10.63-6.137
			c29.607-41.216,86.399-54.111,131.259-28.213C444.161,92.688,460.718,114.266,467.636,140.085z M453.467,73.259
			c-9.925,0-18.001-8.075-18.001-18.001c0-9.925,8.075-18.001,18.001-18.001c9.925,0,18.001,8.075,18.001,18.001
			C471.468,65.184,463.392,73.259,453.467,73.259z"/>
	</g>
</g>
<g>
</g>
<g>
</g>
<g>
</g>
<g>
</g>
<g>
</g>
<g>
</g>
<g>
</g>
<g>
</g>
<g>
</g>
<g>
</g>
<g>
</g>
<g>
</g>
<g>
</g>
<g>
</g>
<g>
</g>
</svg>
