<?xml version="1.0" encoding="iso-8859-1"?>
<!-- Generator: Adobe Illustrator 19.0.0, SVG Export Plug-In . SVG Version: 6.00 Build 0)  -->
<svg version="1.1" id="Capa_1" xmlns="http://www.w3.org/2000/svg" xmlns:xlink="http://www.w3.org/1999/xlink" x="0px" y="0px"
	 viewBox="0 0 512.002 512.002" style="enable-background:new 0 0 512.002 512.002;" xml:space="preserve">
<g>
	<g>
		<path d="M395.321,327.95l-25.688-25.688c-14.231-14.23-37.389-14.23-51.618,0l-25.688,25.688c-14.23,14.231-14.23,37.387,0,51.619
			l25.686,25.689c7.116,7.116,16.461,10.673,25.81,10.673c9.345,0,18.694-3.559,25.81-10.673l25.688-25.688c0,0,0,0,0-0.001
			C409.551,365.337,409.551,342.182,395.321,327.95z M381.177,365.428v-0.001l-25.687,25.688c-6.436,6.434-16.903,6.432-23.335,0
			l-25.688-25.687c-6.433-6.435-6.433-16.902,0-23.336l25.688-25.688c3.216-3.217,7.441-4.825,11.667-4.825
			c4.225,0,8.45,1.608,11.667,4.825l25.688,25.687C387.61,348.527,387.61,358.993,381.177,365.428z"/>
	</g>
</g>
<g>
	<g>
		<path d="M227.908,236.057h-20.866c-23.562,0-42.73,19.169-42.73,42.731v20.866c0,23.561,19.169,42.73,42.73,42.73h20.866
			c23.562,0,42.73-19.169,42.73-42.73v-20.866C270.638,255.226,251.469,236.057,227.908,236.057z M250.638,299.653
			c0,12.533-10.197,22.73-22.73,22.73h-20.866c-12.533,0-22.73-10.197-22.73-22.73v-20.866c0-12.534,10.197-22.731,22.73-22.731
			h20.866c12.533,0,22.73,10.197,22.73,22.731V299.653z"/>
	</g>
</g>
<g>
	<g>
		<path d="M224.542,370.501c-1.86-1.86-4.43-2.931-7.07-2.931c-2.63,0-5.21,1.07-7.07,2.931c-1.859,1.859-2.93,4.439-2.93,7.069
			c0,2.631,1.07,5.211,2.93,7.07c1.86,1.86,4.44,2.93,7.07,2.93c2.64,0,5.21-1.069,7.07-2.93c1.87-1.859,2.939-4.439,2.939-7.07
			C227.481,374.94,226.412,372.36,224.542,370.501z"/>
	</g>
</g>
<g>
	<g>
		<path d="M254.062,194.952c-1.859-1.86-4.43-2.93-7.069-2.93c-2.631,0-5.211,1.07-7.07,2.93c-1.86,1.86-2.93,4.44-2.93,7.07
			c0,2.63,1.069,5.21,2.93,7.07c1.859,1.87,4.439,2.93,7.07,2.93c2.63,0,5.21-1.07,7.069-2.93c1.86-1.86,2.931-4.44,2.931-7.07
			C256.993,199.392,255.923,196.812,254.062,194.952z"/>
	</g>
</g>
<g>
	<g>
		<path d="M280.812,395.271c-1.859-1.859-4.439-2.93-7.069-2.93c-2.631,0-5.211,1.07-7.07,2.93c-1.871,1.86-2.93,4.44-2.93,7.07
			c0,2.64,1.06,5.21,2.93,7.07c1.859,1.859,4.439,2.93,7.07,2.93c2.63,0,5.21-1.07,7.069-2.93c1.86-1.86,2.931-4.431,2.931-7.07
			C283.743,399.711,282.673,397.131,280.812,395.271z"/>
	</g>
</g>
<g>
	<g>
		<path d="M367.957,196.974c5.522,0,10-4.477,10-10s-4.478-10-10-10c-13.383,0-24.938,7.948-30.214,19.367
			c-3.509-0.933-7.191-1.436-10.989-1.436c-23.61,0-42.819,19.209-42.819,42.82c0,23.611,19.209,42.82,42.819,42.82
			c23.611,0,42.82-19.209,42.82-42.82c0-12.597-5.47-23.939-14.158-31.781C357.208,200.734,362.146,196.974,367.957,196.974z
			 M326.755,260.545c-12.583,0-22.819-10.237-22.819-22.82s10.236-22.82,22.819-22.82s22.82,10.237,22.82,22.82
			S339.338,260.545,326.755,260.545z"/>
	</g>
</g>
<g>
	<g>
		<path d="M442.955,318.819l-38.708-214.591c-0.858-4.761-5.003-8.225-9.841-8.225H381.4l24.211-83.206
			c1.543-5.303-1.505-10.853-6.808-12.396c-5.304-1.545-10.853,1.504-12.396,6.808L360.57,96.003h-11.181
			c5.496-9.812,9.355-20.702,11.365-32.237c3.297-18.919,1.426-38.708-5.411-57.227c-0.92-2.492-2.794-4.516-5.209-5.625
			c-2.413-1.108-5.169-1.21-7.66-0.284c-14.383,5.354-27.097,14.485-37.064,26.386c-4.622-8.369-10.672-16.069-18.054-22.868
			c-3.83-3.526-9.721-3.526-13.551,0c-15.164,13.968-24.758,31.713-27.745,51.319c-2.071,13.59-0.709,27.54,3.794,40.535h-53.759
			l50.676-50.676c3.905-3.905,3.905-10.237,0-14.143c-41.51-41.508-109.048-41.509-150.556,0
			C76.109,51.29,65.035,78.025,65.035,106.461s11.073,55.171,31.181,75.278c1.953,1.953,4.512,2.929,7.071,2.929
			c2.559,0,5.118-0.977,7.071-2.929l41.279-41.279l-32.206,178.188c-10.816,59.843,0.319,121.6,31.356,173.895
			c7.123,12.003,20.219,19.459,34.177,19.459h192.491c13.973,0,27.075-7.468,34.183-19.47l0.064-0.107
			C442.629,440.203,453.73,378.549,442.955,318.819z M375.581,116.003h10.468l6.146,34.072h-26.529L375.581,116.003z
			 M315.103,55.468c-0.311-2.038-0.709-4.051-1.162-6.046c6.498-10.938,15.265-19.611,25.801-25.544
			c6.176,25.74,0.912,52.757-14.327,72.125h-14.106C315.812,83.008,317.174,69.057,315.103,55.468z M280.582,25.981
			c6.011,7.235,10.314,15.32,12.855,23.788c0.117,0.64,0.294,1.266,0.532,1.871c3.887,14.526,2.619,30.073-4.193,44.362h-18.387
			C260.286,72.715,263.886,46.078,280.582,25.981z M175.933,87.883l-8.832-32.958c1.454-0.122,2.918-0.196,4.395-0.196
			c10.423,0,20.374,3.065,28.828,8.763L175.933,87.883z M103.69,160.126c-12.091-15.217-18.653-33.937-18.653-53.663
			c0-23.094,8.993-44.806,25.323-61.136c16.855-16.855,38.995-25.283,61.136-25.283c19,0,37.999,6.206,53.658,18.618l-10.501,10.501
			c-12.373-9.359-27.372-14.434-43.157-14.434c-19.161,0-37.175,7.461-50.724,21.01c-13.549,13.549-21.011,31.562-21.011,50.724
			c0,15.785,5.075,30.785,14.434,43.158L103.69,160.126z M156.072,91.04l-30.615-8.203c2.429-4.721,5.594-9.093,9.457-12.956
			c3.863-3.862,8.234-7.027,12.955-9.456L156.072,91.04z M128.524,135.291c-5.698-8.455-8.763-18.405-8.763-28.828
			c0-1.476,0.074-2.94,0.196-4.394l32.959,8.831L128.524,135.291z M394.505,482.212l-0.064,0.107
			c-3.536,5.972-10.046,9.682-16.986,9.682H184.963c-6.934,0-13.439-3.704-16.978-9.666c-9.956-16.776-17.681-34.61-23.11-53.057
			c14.152,11.527,31.704,17.809,50.167,17.809h172.286c18.475,0,36.038-6.29,50.196-17.83
			C412.116,447.669,404.421,465.47,394.505,482.212z M426.909,368.817c-0.717,32.13-27.444,58.269-59.58,58.269H195.042
			c-32.127,0-58.854-26.144-59.58-58.277c0-0.004-0.001-0.008-0.001-0.012c-0.348-15.515,0.854-31.124,3.651-46.594l37.271-206.201
			h178.369l-9.915,34.072h-97.843c-5.522,0-10,4.477-10,10s4.478,10,10,10h105.318c0.012,0,0.023,0.002,0.035,0.002
			c0.02,0,0.04-0.002,0.06-0.002h43.396l27.471,152.294C426.055,337.79,427.252,353.35,426.909,368.817z"/>
	</g>
</g>
<g>
	<g>
		<path d="M209.901,153.003c-1.859-1.86-4.439-2.93-7.069-2.93c-2.641,0-5.221,1.07-7.08,2.93c-1.86,1.86-2.92,4.44-2.92,7.07
			c0,2.64,1.06,5.21,2.92,7.07s4.44,2.93,7.08,2.93c2.63,0,5.21-1.07,7.069-2.93c1.86-1.86,2.931-4.44,2.931-7.07
			C212.832,157.443,211.762,154.863,209.901,153.003z"/>
	</g>
</g>
<g>
</g>
<g>
</g>
<g>
</g>
<g>
</g>
<g>
</g>
<g>
</g>
<g>
</g>
<g>
</g>
<g>
</g>
<g>
</g>
<g>
</g>
<g>
</g>
<g>
</g>
<g>
</g>
<g>
</g>
</svg>
