<?xml version="1.0" encoding="iso-8859-1"?>
<!-- Generator: Adobe Illustrator 19.0.0, SVG Export Plug-In . SVG Version: 6.00 Build 0)  -->
<svg version="1.1" id="Capa_1" xmlns="http://www.w3.org/2000/svg" xmlns:xlink="http://www.w3.org/1999/xlink" x="0px" y="0px"
	 viewBox="0 0 511.999 511.999" style="enable-background:new 0 0 511.999 511.999;" xml:space="preserve">
<g>
	<g>
		<path d="M388.899,0.008c-23.855,0-45.823,8.224-63.226,21.982c0.008-4.086-0.206-8.24-0.664-12.454
			c-0.507-4.668-4.193-8.355-8.861-8.862c-30.286-3.29-57.595,5.548-76.926,24.879c-6.329,6.328-11.524,13.517-15.546,21.381
			c-4.022-7.864-9.217-15.053-15.546-21.381c-19.33-19.333-46.644-28.167-76.925-24.879c-4.668,0.507-8.354,4.193-8.861,8.862
			c-3.288,30.276,5.548,57.595,24.88,76.926c1.96,1.96,4.009,3.802,6.128,5.545h-25.379c-2.831,0-5.529,1.2-7.426,3.302
			c-1.896,2.102-2.813,4.91-2.521,7.726l17.675,171.031c0.567,5.492,5.455,9.488,10.976,8.919c5.493-0.568,9.486-5.481,8.919-10.976
			l-10.722-103.753h142.08c5.522,0,10-4.477,10-10c0-5.523-4.478-10-10-10H142.807l-3.746-36.249h233.822L343.41,397.209
			c-2.77,26.743-25.131,46.908-52.018,46.908H225.88c4.577-11.835,7.093-24.687,7.093-38.116
			c0-58.447-47.551-105.998-105.998-105.998S20.976,347.554,20.976,406.001S68.527,512,126.974,512
			c9.657,0,19.013-1.305,27.909-3.736c1.833,2.276,4.639,3.736,7.789,3.736h186.601c6.371,0,12.414-3.074,16.165-8.224
			c3.751-5.148,4.825-11.843,2.872-17.905l-10.564-32.816l5.557-53.775c0.001-0.008,0.002-0.017,0.003-0.025
			c0-0.004,0-0.008,0-0.012l20.167-195.135c1.811,0.095,3.624,0.147,5.428,0.147c56.311,0,102.123-45.812,102.123-102.123
			C491.024,45.82,445.21,0.008,388.899,0.008z M161.366,72.319c-13.218-13.219-20.063-31.563-19.673-52.298
			c20.701-0.376,39.08,6.456,52.297,19.673c13.218,13.218,20.063,31.563,19.673,52.298
			C192.935,92.367,174.582,85.536,161.366,72.319z M126.973,492c-47.42,0-85.999-38.579-85.999-85.999
			c0-47.42,38.578-85.999,85.999-85.999c47.42,0,85.999,38.578,85.999,85.999S174.394,492,126.973,492z M188.867,491.999
			c10.828-7.815,20.132-17.618,27.361-28.875c1.31,0.63,2.773,0.994,4.324,0.994h70.839c17.84,0,34.227-6.434,46.881-17.201
			l-0.638,6.172c-0.143,1.38,0.004,2.773,0.429,4.093l11.209,34.817H188.867z M298.343,54.965c-0.265,0.506-0.525,1.015-0.781,1.526
			c-3.042,5.832-6.9,11.156-11.572,15.828c-13.218,13.218-31.57,20.053-52.297,19.673c-0.391-20.736,6.454-39.079,19.672-52.297
			c13.219-13.218,31.601-20.052,52.297-19.673C305.901,32.791,303.388,44.648,298.343,54.965z M378.899,92.006h-38.967
			c4.027-19.503,19.447-34.889,38.967-38.868V92.006z M388.899,184.255c-1.12,0-2.244-0.031-3.368-0.077l1.268-12.273
			c0.678,0.145,1.379,0.225,2.1,0.225c38.597,0,69.999-31.401,69.999-69.999s-31.402-69.999-69.999-69.999
			c-35.158,0-64.335,26.059-69.257,59.874h-12.22c1.104-8.932,3.627-17.43,7.371-25.242c0.64-1.186,1.252-2.388,1.837-3.606
			c13.901-25.674,41.081-43.151,72.27-43.151c45.283,0,82.124,36.84,82.124,82.124C471.024,147.414,434.182,184.255,388.899,184.255
			z M398.899,84.645V53.138c10.665,2.173,20.103,7.754,27.131,15.548L398.899,84.645z M436.184,85.916
			c1.75,5.088,2.714,10.539,2.714,16.215c0,5.387-0.867,10.574-2.451,15.44L408.9,101.967L436.184,85.916z M426.565,134.957
			c-9.173,10.511-22.652,17.172-37.665,17.172c-0.019,0-0.038,0.003-0.057,0.003l3.763-36.409L426.565,134.957z"/>
	</g>
</g>
<g>
	<g>
		<path d="M338.786,293.744c-0.507-4.669-4.193-8.355-8.862-8.862c-22.289-2.424-42.442,4.12-56.74,18.42
			c-14.299,14.298-20.841,34.449-18.42,56.74c0.507,4.669,4.193,8.355,8.862,8.862c3.039,0.33,6.035,0.493,8.985,0.493
			c18.688,0,35.405-6.563,47.755-18.913C334.665,336.185,341.207,316.035,338.786,293.744z M306.225,336.342
			c-8.146,8.146-19.271,12.64-31.922,13.023c0.383-12.651,4.876-23.778,13.022-31.922c8.146-8.146,19.272-12.639,31.923-13.022
			C318.864,317.07,314.371,328.196,306.225,336.342z"/>
	</g>
</g>
<g>
	<g>
		<path d="M240.449,236.039c-14.858-14.858-35.796-21.655-58.985-19.138c-4.668,0.507-8.355,4.193-8.862,8.862
			c-2.518,23.179,4.278,44.126,19.138,58.985c12.832,12.833,30.206,19.652,49.636,19.652c3.068,0,6.188-0.17,9.349-0.514
			c4.669-0.507,8.355-4.193,8.862-8.861C262.105,271.845,255.308,250.898,240.449,236.039z M205.881,270.606
			c-8.711-8.712-13.47-20.645-13.772-34.198c13.554,0.304,25.487,5.061,34.198,13.773c8.711,8.712,13.47,20.645,13.772,34.197
			C226.527,284.074,214.592,279.316,205.881,270.606z"/>
	</g>
</g>
<g>
	<g>
		<path d="M126.973,336.002c-38.597,0-69.999,31.401-69.999,69.999S88.376,476,126.973,476c38.597,0,69.999-31.401,69.999-69.999
			S165.571,336.002,126.973,336.002z M116.973,357.008v31.477l-27.37-15.652C96.657,364.895,106.186,359.206,116.973,357.008z
			 M76.974,406.001c0-5.546,0.921-10.878,2.596-15.868l27.401,15.669l-27.429,15.985C77.886,416.821,76.974,411.517,76.974,406.001z
			 M116.974,454.993c-10.818-2.204-20.369-7.919-27.427-15.89l27.427-15.984V454.993z M136.973,357.008
			c10.65,2.17,20.077,7.737,27.102,15.515l-27.102,15.795V357.008z M136.973,454.993v-32.036l27.694,15.837
			C157.584,446.927,147.929,452.76,136.973,454.993z M174.535,421.401l-27.564-15.763l27.274-15.895
			c1.759,5.101,2.728,10.567,2.728,16.258C176.972,411.374,176.111,416.547,174.535,421.401z"/>
	</g>
</g>
<g>
	<g>
		<path d="M319.377,391.15c-1.86-1.859-4.44-2.92-7.07-2.92c-2.64,0-5.22,1.061-7.08,2.92c-1.859,1.86-2.92,4.44-2.92,7.07
			c0,2.64,1.061,5.22,2.92,7.07c1.87,1.87,4.44,2.939,7.08,2.939c2.63,0,5.2-1.069,7.07-2.939c1.86-1.86,2.93-4.431,2.93-7.07
			C322.307,395.59,321.238,393.02,319.377,391.15z"/>
	</g>
</g>
<g>
	<g>
		<path d="M200.04,187.184c-1.86-1.86-4.44-2.93-7.07-2.93c-2.63,0-5.21,1.07-7.07,2.93c-1.859,1.86-2.93,4.44-2.93,7.07
			c0,2.63,1.07,5.21,2.93,7.07c1.86,1.86,4.44,2.93,7.07,2.93c2.63,0,5.209-1.07,7.07-2.93c1.859-1.86,2.93-4.44,2.93-7.07
			C202.97,191.623,201.9,189.044,200.04,187.184z"/>
	</g>
</g>
<g>
	<g>
		<path d="M336.347,200.733c-1.87-1.86-4.439-2.93-7.069-2.93c-2.631,0-5.211,1.07-7.08,2.93c-1.86,1.87-2.92,4.44-2.92,7.07
			c0,2.64,1.06,5.21,2.92,7.08c1.869,1.86,4.449,2.93,7.08,2.93c2.63,0,5.199-1.07,7.069-2.93c1.86-1.87,2.931-4.44,2.931-7.08
			C339.278,205.173,338.208,202.603,336.347,200.733z"/>
	</g>
</g>
<g>
	<g>
		<path d="M266.038,411.251c-1.86-1.86-4.431-2.92-7.07-2.92c-2.629,0-5.209,1.059-7.07,2.92c-1.859,1.859-2.93,4.439-2.93,7.08
			c0,2.63,1.07,5.21,2.93,7.069c1.86,1.86,4.44,2.931,7.07,2.931c2.64,0,5.21-1.07,7.07-2.931c1.859-1.869,2.93-4.439,2.93-7.069
			C268.968,415.69,267.898,413.121,266.038,411.251z"/>
	</g>
</g>
<g>
	<g>
		<path d="M285.749,230.103c-1.86-1.86-4.44-2.93-7.07-2.93c-2.63,0-5.21,1.07-7.07,2.93c-1.869,1.86-2.93,4.44-2.93,7.07
			c0,2.64,1.061,5.21,2.93,7.07c1.86,1.87,4.44,2.93,7.07,2.93c2.63,0,5.209-1.06,7.07-2.93c1.859-1.86,2.93-4.44,2.93-7.07
			S287.609,231.973,285.749,230.103z"/>
	</g>
</g>
<g>
	<g>
		<path d="M331.537,151.185c-1.86-1.861-4.44-2.93-7.07-2.93c-2.63,0-5.21,1.07-7.07,2.93c-1.859,1.86-2.93,4.44-2.93,7.07
			c0,2.63,1.07,5.21,2.93,7.07c1.86,1.86,4.44,2.93,7.07,2.93c2.63,0,5.21-1.07,7.07-2.93c1.87-1.86,2.93-4.44,2.93-7.07
			C334.467,155.625,333.407,153.045,331.537,151.185z"/>
	</g>
</g>
<g>
</g>
<g>
</g>
<g>
</g>
<g>
</g>
<g>
</g>
<g>
</g>
<g>
</g>
<g>
</g>
<g>
</g>
<g>
</g>
<g>
</g>
<g>
</g>
<g>
</g>
<g>
</g>
<g>
</g>
</svg>
