<?xml version="1.0" encoding="iso-8859-1"?>
<!-- Generator: Adobe Illustrator 19.0.0, SVG Export Plug-In . SVG Version: 6.00 Build 0)  -->
<svg version="1.1" id="Capa_1" xmlns="http://www.w3.org/2000/svg" xmlns:xlink="http://www.w3.org/1999/xlink" x="0px" y="0px"
	 viewBox="0 0 511.999 511.999" style="enable-background:new 0 0 511.999 511.999;" xml:space="preserve">
<g>
	<g>
		<path d="M393.154,92.333c-11.159,0-21.317-6.581-25.879-16.765L356.04,50.484c-1.655-3.696-5.397-6.017-9.424-5.908
			c-4.048,0.121-7.623,2.671-9.056,6.459l-13.685,36.19C321.892,92.474,316.788,96,311.177,96c-7.486,0-13.576-6.09-13.576-13.576
			v-0.47C297.601,36.765,260.836,0,215.646,0c-5.522,0-10,4.477-10,10v66.719c0,8.426-6.855,15.281-15.281,15.281
			c-8.426,0-15.281-6.855-15.281-15.281V34.312c0-3.219-1.55-6.242-4.164-8.121c-2.614-1.879-5.976-2.384-9.024-1.357
			c-54.674,18.395-91.407,69.511-91.407,127.195v1.666c0,35.607,8.174,80.181,71.915,109.041
			c51.609,23.368,83.595,41.821,83.595,61.582l0.025,133.785L174.171,479.8c-7.452,3.118-11.547,10.827-9.957,18.747
			c1.59,7.921,8.343,13.452,16.421,13.452h150.727c8.081,0,14.833-5.533,16.422-13.457c1.588-7.923-2.511-15.632-9.967-18.746
			l-51.793-21.636l-0.025-133.842c0-19.762,31.986-38.215,83.596-61.583c59.816-27.083,70.697-68.003,71.811-102.367
			c0.062-0.449,0.104-0.903,0.104-1.369v-18.312C441.51,114.025,419.817,92.333,393.154,92.333z M315.143,492H196.831l43.054-18.016
			c3.719-1.556,6.14-5.193,6.14-9.225V344.653h20v120.168c0,4.034,2.424,7.673,6.146,9.228L315.143,492z M416.612,190H182.666
			c-5.522,0-10,4.477-10,10s4.478,10,10,10h223.938c-8.966,12.718-23.11,24.487-45.259,34.516
			c-61.836,27.999-95.346,49.008-95.346,79.802v0.335h-20v-0.335c0-30.794-33.51-51.804-95.346-79.802
			c-47.548-21.529-58.233-51.074-59.903-80.822h330.498C420.751,172.55,419.442,181.386,416.612,190z M421.508,143.693H90.791
			c2.968-40.892,27.617-76.885,64.293-94.537v27.563c0,19.454,15.827,35.281,35.281,35.281c19.454,0,35.281-15.827,35.281-35.281
			V20.807c29.425,4.794,51.954,30.389,51.954,61.147v0.47c0,18.514,15.063,33.576,33.576,33.576
			c13.877,0,26.498-8.721,31.406-21.701l5.112-13.52l1.328,2.964c7.778,17.367,25.102,28.589,44.131,28.589
			c15.636,0,28.355,12.72,28.355,28.355V143.693z"/>
	</g>
</g>
<g>
	<g>
		<path d="M149.398,192.93c-1.859-1.86-4.439-2.93-7.069-2.93s-5.21,1.07-7.07,2.93s-2.93,4.44-2.93,7.07s1.069,5.21,2.93,7.07
			c1.861,1.86,4.44,2.93,7.07,2.93s5.21-1.07,7.069-2.93c1.86-1.86,2.931-4.44,2.931-7.07S151.259,194.79,149.398,192.93z"/>
	</g>
</g>
<g>
</g>
<g>
</g>
<g>
</g>
<g>
</g>
<g>
</g>
<g>
</g>
<g>
</g>
<g>
</g>
<g>
</g>
<g>
</g>
<g>
</g>
<g>
</g>
<g>
</g>
<g>
</g>
<g>
</g>
</svg>
