<?xml version="1.0" encoding="iso-8859-1"?>
<!-- Generator: Adobe Illustrator 19.0.0, SVG Export Plug-In . SVG Version: 6.00 Build 0)  -->
<svg version="1.1" id="Capa_1" xmlns="http://www.w3.org/2000/svg" xmlns:xlink="http://www.w3.org/1999/xlink" x="0px" y="0px"
	 viewBox="0 0 512.002 512.002" style="enable-background:new 0 0 512.002 512.002;" xml:space="preserve">
<g>
	<g>
		<path d="M252.522,96.992c-1.86-1.86-4.44-2.93-7.07-2.93s-5.21,1.07-7.07,2.93c-1.859,1.86-2.93,4.44-2.93,7.07
			s1.07,5.21,2.93,7.07c1.86,1.869,4.44,2.93,7.07,2.93s5.21-1.06,7.07-2.93c1.859-1.86,2.93-4.44,2.93-7.07
			S254.382,98.852,252.522,96.992z"/>
	</g>
</g>
<g>
	<g>
		<path d="M298.695,244.455h-44.117c-16.109,0-29.215,13.105-29.215,29.215v44.117c0,16.109,13.105,29.215,29.215,29.215h44.117
			c16.11-0.001,29.215-13.106,29.215-29.215V273.67C327.91,257.561,314.805,244.455,298.695,244.455z M307.91,317.787
			c0,5.081-4.134,9.215-9.215,9.215h-44.117c-5.081-0.001-9.215-4.134-9.215-9.215V273.67c0-5.081,4.134-9.215,9.215-9.215h44.117
			c5.081,0,9.215,4.134,9.215,9.215V317.787z"/>
	</g>
</g>
<g>
	<g>
		<path d="M343.404,394.824l-15.16-15.16c-7.538-7.537-19.805-7.536-27.347,0.001l-15.159,15.159c-7.539,7.54-7.539,19.808,0,27.348
			l15.159,15.159c3.771,3.77,8.722,5.654,13.674,5.654s9.903-1.885,13.674-5.654l15.159-15.159
			C350.943,414.632,350.943,402.364,343.404,394.824z M314.571,422.719l-14.222-14.222l14.222-14.222l14.222,14.222L314.571,422.719
			z"/>
	</g>
</g>
<g>
	<g>
		<path d="M175.404,266.951l-15.16-15.159c-7.538-7.538-19.805-7.539-27.347,0l-15.159,15.159c-7.539,7.54-7.539,19.808,0,27.348
			l15.159,15.159c3.771,3.77,8.722,5.654,13.674,5.654c4.952,0,9.903-1.885,13.674-5.654l15.159-15.159
			C182.943,286.759,182.943,274.491,175.404,266.951z M146.571,294.847l-14.222-14.222l14.222-14.222l14.222,14.222L146.571,294.847
			z"/>
	</g>
</g>
<g>
	<g>
		<path d="M277.772,0.001c-5.522,0-10,4.477-10,10v154c0,5.523,4.478,10,10,10h60.438l1.767,13.021H197.439l-14.961-72.959h25.12
			c5.522,0,10-4.477,10-10s-4.478-10-10-10h-29.222l-17.649-86.07c-1.108-5.41-6.395-8.895-11.805-7.788
			c-5.41,1.11-8.896,6.395-7.787,11.805l16.826,82.054h-40.91c-5.003,0-9.236,3.698-9.909,8.655L71.4,366.114
			c-4.992,36.789,6.151,73.926,30.575,101.888c24.424,27.963,59.726,44,96.853,44h58.207c37.126,0,72.428-16.037,96.852-43.999
			c24.424-27.962,35.568-65.099,30.576-101.889l-26.07-192.112h73.379c5.522,0,10-4.477,10-10
			C441.772,73.572,368.202,0.001,277.772,0.001z M125.786,114.064h36.276l14.961,72.959h-61.138L125.786,114.064z M364.645,368.803
			c4.215,31.069-5.196,62.429-25.822,86.043c-20.625,23.612-50.436,37.155-81.788,37.155h-58.207
			c-31.353,0-61.164-13.543-81.789-37.156c-20.625-23.613-30.036-54.975-25.82-86.042l21.953-161.781h67.953l27.729,135.228
			c-6.122-5.957-14.173-9.238-22.732-9.238c-8.713,0-16.903,3.393-23.063,9.553l-36.717,36.718
			c-12.716,12.717-12.716,33.408,0,46.124l36.717,36.717c6.16,6.16,14.351,9.553,23.063,9.553c8.712,0,16.902-3.393,23.063-9.553
			l36.717-36.717c12.716-12.716,12.716-33.407,0-46.125l-11.37-11.37l-32.992-160.89h141.151L364.645,368.803z M231.759,393.423
			c4.918,4.92,4.919,12.923,0,17.841l-36.717,36.717c-2.383,2.383-5.551,3.695-8.92,3.695c-3.37,0-6.538-1.313-8.921-3.695
			l-36.717-36.717c-4.919-4.918-4.918-12.921,0-17.84l36.717-36.717c2.459-2.46,5.689-3.689,8.92-3.689s6.462,1.229,8.921,3.689
			L231.759,393.423z M287.772,154.001V58.58c50.426,4.746,90.675,44.995,95.421,95.421H287.772z M403.272,154.002v-0.001
			c-4.853-61.462-54.037-110.646-115.5-115.5V20.345c71.445,4.927,128.729,62.211,133.656,133.657H403.272z"/>
	</g>
</g>
<g>
	<g>
		<path d="M319.61,80.981c-4.771-2.783-10.895-1.171-13.677,3.599l-1.39,2.382c-2.783,4.771-1.172,10.894,3.599,13.676
			c1.585,0.924,3.318,1.364,5.029,1.364c3.44,0,6.789-1.777,8.647-4.963l1.39-2.382C325.992,89.887,324.381,83.764,319.61,80.981z"
			/>
	</g>
</g>
<g>
	<g>
		<path d="M356.852,120.591c-2.495-4.927-8.511-6.899-13.438-4.404l-2.75,1.393c-4.928,2.495-6.898,8.512-4.403,13.439
			c1.762,3.479,5.278,5.484,8.929,5.484c1.52,0,3.062-0.347,4.51-1.081l2.75-1.393C357.377,131.535,359.348,125.518,356.852,120.591
			z"/>
	</g>
</g>
<g>
	<g>
		<path d="M319.002,120.93c-3.905-3.905-10.235-3.905-14.142,0l-3,3c-3.905,3.905-3.905,10.237,0,14.143
			c1.953,1.953,4.512,2.929,7.071,2.929s5.118-0.976,7.071-2.929l3-3C322.907,131.168,322.907,124.836,319.002,120.93z"/>
	</g>
</g>
<g>
</g>
<g>
</g>
<g>
</g>
<g>
</g>
<g>
</g>
<g>
</g>
<g>
</g>
<g>
</g>
<g>
</g>
<g>
</g>
<g>
</g>
<g>
</g>
<g>
</g>
<g>
</g>
<g>
</g>
</svg>
