<?xml version="1.0" encoding="iso-8859-1"?>
<!-- Generator: Adobe Illustrator 19.0.0, SVG Export Plug-In . SVG Version: 6.00 Build 0)  -->
<svg version="1.1" id="Capa_1" xmlns="http://www.w3.org/2000/svg" xmlns:xlink="http://www.w3.org/1999/xlink" x="0px" y="0px"
	 viewBox="0 0 512 512" style="enable-background:new 0 0 512 512;" xml:space="preserve">
<g>
	<g>
		<path d="M388.93,0c-64.495,0-117.556,49.868-122.663,113.07H215c-5.523,0-10,4.477-10,10c0,5.523,4.477,10,10,10h97.735h65.013
			l-29.876,266.962v0.001C345.449,421.678,327.199,438,305.419,438h-14.897l19.623-19.622c7.178-7.179,11.131-16.722,11.131-26.873
			s-3.953-19.694-11.131-26.872l-27.146-27.146c-14.817-14.816-38.926-14.816-53.745,0l-27.145,27.146
			c-7.178,7.178-11.131,16.721-11.131,26.872s3.953,19.694,11.131,26.873L221.732,438H93.23c-21.802,0-40.054-16.34-42.458-38.009
			l-0.415-3.738l18.751,18.751c7.178,7.178,16.722,11.131,26.873,11.131s19.695-3.953,26.872-11.131l27.145-27.145
			c7.178-7.178,11.131-16.722,11.131-26.872c0-10.151-3.953-19.695-11.131-26.873l-27.145-27.146
			c-14.817-14.816-38.926-14.815-53.745,0l-25.792,25.793L21.17,133.07H64c5.523,0,10-4.477,10-10c0-5.523-4.477-10-10-10H10
			c-2.844,0-5.554,1.211-7.451,3.33c-1.897,2.119-2.802,4.945-2.488,7.772l30.833,278.021v0.002c0,0.001,0,0.002,0,0.004
			l7.243,65.312C40.95,492.874,62.314,512,87.833,512H310.75c25.493,0,46.854-19.104,49.69-44.439l24.786-221.479
			c1.237,0.037,2.472,0.059,3.704,0.059c67.861,0,123.07-55.209,123.07-123.071S456.791,0,388.93,0z M56.106,348.257l27.145-27.146
			c3.51-3.51,8.12-5.265,12.73-5.265s9.221,1.755,12.73,5.265l27.146,27.146c3.4,3.4,5.273,7.921,5.273,12.73
			c0,4.809-1.873,9.329-5.273,12.729l-27.146,27.146c-3.4,3.4-7.921,5.272-12.73,5.272c-4.809,0-9.33-1.872-12.73-5.273
			l-27.145-27.145C49.086,366.697,49.086,355.276,56.106,348.257z M216.252,404.235c-3.4-3.4-5.273-7.922-5.273-12.73
			c0-4.809,1.873-9.329,5.273-12.729l27.145-27.146c3.51-3.51,8.12-5.265,12.73-5.265s9.221,1.755,12.73,5.265l27.146,27.146
			c3.4,3.4,5.273,7.921,5.273,12.729c0,4.808-1.873,9.33-5.273,12.73l-27.145,27.145c-7.019,7.019-18.441,7.021-25.461,0
			L216.252,404.235z M340.564,465.336C338.862,480.537,326.045,492,310.75,492H87.833c-15.311,0-28.13-11.476-29.817-26.693
			l-2.179-19.647C66.314,453.438,79.276,458,93.23,458h212.189c13.929,0,26.873-4.55,37.343-12.309L340.564,465.336z
			 M319.655,113.071c1.702-11.842,6.366-22.738,13.233-31.899l31.899,31.899H319.655z M378.93,98.928l-31.899-31.899
			c9.162-6.867,20.058-11.531,31.899-13.233V98.928z M388.93,226.141c-0.489,0-0.98-0.013-1.47-0.021l1.461-13.051
			c0.003,0,0.006,0,0.01,0c49.626,0,90-40.374,90-90c0-49.626-40.374-90-90-90c-46.246,0-84.451,35.063-89.441,80h-13.143
			C291.391,60.912,335.47,20,388.93,20C445.763,20,492,66.237,492,123.07C492,179.904,445.763,226.141,388.93,226.141z
			 M413.072,113.07l31.899-31.899c6.867,9.161,11.531,20.058,13.233,31.899H413.072z M458.204,133.07
			c-1.702,11.841-6.366,22.738-13.233,31.899l-31.899-31.899H458.204z M398.93,98.928V53.796
			c11.841,1.702,22.737,6.366,31.899,13.233L398.93,98.928z M430.829,179.112c-11.132,8.344-24.825,13.433-39.664,13.902
			l5.391-48.175L430.829,179.112z"/>
	</g>
</g>
<g>
	<g>
		<path d="M189.07,116c-1.86-1.86-4.44-2.93-7.07-2.93s-5.21,1.07-7.07,2.93s-2.93,4.44-2.93,7.07s1.07,5.21,2.93,7.07
			s4.44,2.93,7.07,2.93s5.21-1.07,7.07-2.93s2.93-4.44,2.93-7.07S190.93,117.86,189.07,116z"/>
	</g>
</g>
<g>
	<g>
		<path d="M183.701,369.629L137.688,42.892C134.245,18.439,113.027,0,88.334,0H10C4.477,0,0,4.477,0,10v40c0,5.523,4.477,10,10,10
			h65.335c2.378,0,4.421,1.775,4.752,4.13l30.416,215.994c0.77,5.469,5.83,9.275,11.297,8.508c5.469-0.771,9.278-5.828,8.508-11.297
			L99.892,61.34C98.178,49.174,87.621,40,75.335,40H20V20h68.334c14.785,0,27.488,11.04,29.55,25.681l46.012,326.738
			c0.704,4.996,4.985,8.607,9.89,8.606c0.464,0,0.935-0.032,1.407-0.099C180.662,380.155,184.471,375.098,183.701,369.629z"/>
	</g>
</g>
<g>
	<g>
		<path d="M249.125,181.719h-35.329c-13.496,0-24.476,10.979-24.476,24.476v35.329c0,13.496,10.979,24.476,24.476,24.476h35.329
			c13.497,0,24.476-10.979,24.476-24.476v-35.329C273.601,192.699,262.622,181.719,249.125,181.719z M253.602,241.524
			c0,2.468-2.008,4.476-4.476,4.476h-35.329c-2.468,0-4.476-2.008-4.476-4.476v-35.329c0-2.468,2.008-4.476,4.476-4.476h35.329
			c2.468,0,4.476,2.008,4.476,4.476V241.524z"/>
	</g>
</g>
<g>
	<g>
		<path d="M354.478,246.199c-0.507-4.668-4.193-8.355-8.862-8.862c-18.908-2.052-36.021,3.516-48.188,15.683
			c-12.166,12.168-17.736,29.281-15.682,48.189c0.507,4.668,4.193,8.354,8.861,8.861c2.571,0.279,5.107,0.418,7.604,0.418
			c15.865,0,30.072-5.588,40.584-16.1C350.962,282.221,356.531,265.107,354.478,246.199z M324.654,280.246
			c-5.976,5.976-14.021,9.445-23.2,10.116c0.671-9.178,4.141-17.224,10.116-23.199c5.976-5.976,14.021-9.445,23.2-10.117
			C334.099,266.225,330.629,274.271,324.654,280.246z"/>
	</g>
</g>
<g>
	<g>
		<path d="M335.41,329.29c-1.87-1.87-4.44-2.931-7.08-2.931c-2.63,0-5.21,1.061-7.07,2.931c-1.86,1.859-2.93,4.43-2.93,7.069
			c0,2.631,1.07,5.2,2.93,7.07c1.86,1.86,4.44,2.92,7.07,2.92c2.64,0,5.21-1.06,7.08-2.92c1.86-1.87,2.92-4.439,2.92-7.07
			C338.33,333.719,337.27,331.149,335.41,329.29z"/>
	</g>
</g>
<g>
	<g>
		<path d="M342.12,184.65c-1.86-1.86-4.43-2.93-7.07-2.93c-2.63,0-5.21,1.07-7.07,2.93c-1.86,1.86-2.93,4.44-2.93,7.07
			s1.07,5.21,2.93,7.07s4.44,2.93,7.07,2.93c2.64,0,5.21-1.07,7.07-2.93s2.93-4.44,2.93-7.07S343.98,186.51,342.12,184.65z"/>
	</g>
</g>
<g>
	<g>
		<path d="M64.74,196c-1.86-1.86-4.44-2.93-7.07-2.93s-5.21,1.07-7.07,2.93c-1.87,1.86-2.93,4.44-2.93,7.07s1.06,5.21,2.93,7.07
			c1.86,1.86,4.43,2.93,7.07,2.93c2.63,0,5.21-1.07,7.07-2.93c1.86-1.86,2.93-4.44,2.93-7.07S66.6,197.86,64.74,196z"/>
	</g>
</g>
<g>
	<g>
		<path d="M216.07,293.41c-1.86-1.86-4.44-2.931-7.07-2.931s-5.21,1.071-7.07,2.931c-1.86,1.859-2.93,4.439-2.93,7.069
			c0,2.641,1.07,5.21,2.93,7.07c1.86,1.87,4.44,2.93,7.07,2.93s5.21-1.06,7.07-2.93c1.86-1.86,2.93-4.43,2.93-7.07
			C219,297.849,217.93,295.269,216.07,293.41z"/>
	</g>
</g>
<g>
</g>
<g>
</g>
<g>
</g>
<g>
</g>
<g>
</g>
<g>
</g>
<g>
</g>
<g>
</g>
<g>
</g>
<g>
</g>
<g>
</g>
<g>
</g>
<g>
</g>
<g>
</g>
<g>
</g>
</svg>
