<?xml version="1.0" encoding="iso-8859-1"?>
<!-- Generator: Adobe Illustrator 19.0.0, SVG Export Plug-In . SVG Version: 6.00 Build 0)  -->
<svg version="1.1" id="Capa_1" xmlns="http://www.w3.org/2000/svg" xmlns:xlink="http://www.w3.org/1999/xlink" x="0px" y="0px"
	 viewBox="0 0 512.002 512.002" style="enable-background:new 0 0 512.002 512.002;" xml:space="preserve">
<g>
	<g>
		<path d="M443.481,288.663c-1.86-1.87-4.44-2.931-7.07-2.931s-5.21,1.061-7.07,2.931c-1.86,1.859-2.93,4.43-2.93,7.069
			c0,2.63,1.07,5.21,2.93,7.07c1.86,1.86,4.44,2.93,7.07,2.93s5.21-1.069,7.07-2.93c1.86-1.86,2.93-4.44,2.93-7.07
			C446.411,293.092,445.341,290.522,443.481,288.663z"/>
	</g>
</g>
<g>
	<g>
		<path d="M481.314,71.555c-1.9-2.253-4.697-3.553-7.644-3.553h-66.241c3.053-6.253,4.772-13.273,4.772-20.688
			c0-5.288-0.885-10.37-2.493-15.122L430,18.242c4.551-3.129,5.704-9.354,2.576-13.906c-3.128-4.552-9.355-5.703-13.906-2.576
			l-19.265,13.244c-8.639-9.222-20.913-15.002-34.517-15.002c-24.221,0-44.237,18.298-46.98,41.794
			c-4.072-2.878-8.292-5.591-12.664-8.116c-4.782-2.761-10.898-1.123-13.66,3.66l-17.703,30.662h-96.455l-2.384-2.384
			c-6.894-6.894-16.06-10.69-25.81-10.69s-18.916,3.797-25.81,10.69l-2.384,2.384H38.333c-2.947,0-5.744,1.3-7.644,3.553
			c-1.9,2.253-2.71,5.229-2.213,8.134l69.331,405.15c2.693,15.74,16.238,27.163,32.205,27.163H381.99
			c15.968,0,29.513-11.424,32.206-27.163l17.219-100.627c0-0.001,0-0.003,0.001-0.004c0-0.001,0-0.001,0-0.002l7.899-46.161
			c0.931-5.443-2.727-10.611-8.17-11.543c-5.444-0.931-10.612,2.727-11.543,8.17l-7.9,46.167
			c-4.679,27.329-28.197,47.163-55.923,47.163h-58.291c2.525-4.959,3.959-10.564,3.959-16.5v-60.844
			c0-11.836-5.667-22.369-14.425-29.042c32.378-13.503,59.318-37.092,77.156-67.989c11.469-19.864,18.443-41.477,20.769-63.625
			h59.412l-11.348,66.313c-0.931,5.443,2.727,10.611,8.17,11.543c0.571,0.098,1.138,0.146,1.698,0.146
			c4.782,0,9.011-3.442,9.845-8.315l30.802-180C484.024,76.784,483.214,73.808,481.314,71.555z M364.888,20.002
			c15.06,0,27.313,12.252,27.313,27.313c0,15.061-12.252,27.313-27.313,27.313c-7.505,0-14.312-3.044-19.254-7.961
			c-0.649-0.735-1.307-1.462-1.969-2.186c-3.804-4.694-6.089-10.667-6.089-17.166C337.575,32.255,349.828,20.002,364.888,20.002z
			 M281.563,94.697c15.313,11.052,26.921,26.181,33.634,43.832l-69.728,18.684L281.563,94.697z M250.645,176.532l69.732-18.685
			c3.013,18.644,0.524,37.553-7.212,54.781L250.645,176.532z M303.161,229.947c-11.052,15.312-26.181,26.92-43.833,33.633
			l-18.683-69.727L303.161,229.947z M137.564,79.76c3.117-3.116,7.26-4.832,11.668-4.832c4.407,0,8.551,1.716,11.667,4.833
			l43.023,43.023c6.434,6.433,6.433,16.901,0,23.334l-43.023,43.023c-6.434,6.434-16.902,6.433-23.334,0l-43.024-43.023
			c-3.117-3.116-4.833-7.26-4.833-11.667c0-4.407,1.716-8.551,4.833-11.667L137.564,79.76z M50.189,88.002h50.849l-20.639,20.64
			c-6.894,6.894-10.691,16.06-10.691,25.81s3.796,18.916,10.69,25.81l9.742,9.742H64.221L50.189,88.002z M100.299,380.835
			c0-0.001,0-0.002,0-0.002l-32.655-190.83h42.497l13.282,13.282c7.117,7.116,16.461,10.673,25.81,10.673
			c9.345,0,18.694-3.559,25.81-10.673l43.023-43.024c14.231-14.231,14.231-37.387,0-51.619l-20.64-20.64h64.908l-46.255,80.115
			c-0.001,0.002-0.003,0.005-0.004,0.007l-53.419,92.524c0,0.001-0.001,0.002-0.002,0.003s-0.001,0.002-0.001,0.003l-22.082,38.247
			c-2.762,4.783-1.123,10.898,3.66,13.66c10.347,5.974,21.172,10.711,32.295,14.225c-5.553,6.405-8.925,14.75-8.925,23.873v60.843
			c0,5.936,1.434,11.541,3.959,16.5h-15.337C128.495,428.002,104.976,408.165,100.299,380.835z M240.012,268.761
			c-18.643,3.014-37.552,0.524-54.781-7.212l36.096-62.521L240.012,268.761z M355.779,448.002c17.693,0,34.115-5.976,47.196-16.167
			l-8.493,49.632c-1.044,6.104-6.298,10.536-12.492,10.536H130.012c-6.194,0-11.448-4.432-12.492-10.536l-8.493-49.632
			c13.081,10.191,29.504,16.167,47.197,16.167h47.878h60.844H355.779z M187.602,411.502v-60.844c0-9.098,7.402-16.5,16.5-16.5
			h17.694c0.893,0.015,1.786,0.044,2.68,0.044c0.89,0,1.781-0.029,2.672-0.044h37.798c9.098,0,16.5,7.402,16.5,16.5v60.844
			c0,9.098-7.402,16.5-16.5,16.5h-60.844C195.004,428.002,187.602,420.6,187.602,411.502z M346.857,243.627
			c-18.833,32.62-49.241,55.953-85.623,65.701c-11.183,2.997-22.518,4.595-33.802,4.831h-5.726
			c-20.211-0.406-40.149-5.191-58.64-14.219l12.127-21.005c15.594,7.334,32.378,11.081,49.355,11.081
			c10.148,0,20.366-1.335,30.431-4.032c30.147-8.077,55.344-27.411,70.949-54.44c15.605-27.029,19.751-58.517,11.673-88.664
			c-7.209-26.903-23.388-49.858-45.994-65.578l12.124-21c9.318,6.28,17.752,13.571,25.197,21.708
			c0.52,0.608,1.054,1.201,1.603,1.782c14.25,16.122,24.683,35.442,30.414,56.833C370.693,173.007,365.69,211.008,346.857,243.627z
			 M447.782,170.002h-62.006v0.001c-0.273-12.871-2.095-25.8-5.513-38.554c-3.487-13.013-8.496-25.356-14.876-36.834
			c8.751-0.091,16.943-2.562,23.948-6.808c0.635,0.127,1.291,0.195,1.964,0.195h70.515L447.782,170.002z"/>
	</g>
</g>
<g>
	<g>
		<path d="M394.503,334.428l-21.431-21.431c-9.046-9.045-23.764-9.045-32.81,0l-21.431,21.431
			c-4.382,4.382-6.795,10.209-6.795,16.405c0,6.198,2.413,12.024,6.795,16.405l21.431,21.43c4.382,4.383,10.208,6.796,16.405,6.796
			c6.198,0,12.024-2.413,16.406-6.795l21.43-21.431c4.382-4.382,6.795-10.208,6.795-16.405
			C401.298,344.637,398.885,338.811,394.503,334.428z M380.361,353.096l-21.431,21.432c-0.815,0.815-1.768,0.937-2.263,0.937
			s-1.447-0.121-2.262-0.937c0-0.001,0-0.001,0-0.001l-21.431-21.431c-0.815-0.815-0.937-1.768-0.937-2.263s0.122-1.447,0.938-2.263
			l21.43-21.431c0.624-0.624,1.443-0.936,2.263-0.936c0.819,0,1.639,0.312,2.262,0.936l21.431,21.43
			c0.815,0.816,0.938,1.769,0.938,2.264S381.177,352.28,380.361,353.096z"/>
	</g>
</g>
<g>
	<g>
		<path d="M399.941,272.913c-1.86-1.86-4.44-2.931-7.07-2.931s-5.21,1.07-7.07,2.931c-1.86,1.859-2.93,4.439-2.93,7.069
			s1.07,5.21,2.93,7.07c1.86,1.86,4.44,2.93,7.07,2.93s5.21-1.069,7.07-2.93c1.86-1.86,2.93-4.44,2.93-7.07
			S401.801,274.772,399.941,272.913z"/>
	</g>
</g>
<g>
	<g>
		<path d="M119.161,250.933c-1.86-1.861-4.44-2.93-7.07-2.93c-2.64,0-5.21,1.07-7.08,2.93c-1.86,1.86-2.92,4.44-2.92,7.07
			s1.06,5.21,2.92,7.069c1.87,1.86,4.44,2.931,7.08,2.931c2.63,0,5.2-1.07,7.07-2.931c1.86-1.859,2.92-4.439,2.92-7.069
			S121.021,252.793,119.161,250.933z"/>
	</g>
</g>
<g>
	<g>
		<path d="M119.161,327.892c-1.87-1.87-4.44-2.93-7.07-2.93c-2.64,0-5.21,1.06-7.08,2.93c-1.86,1.86-2.92,4.43-2.92,7.07
			c0,2.63,1.06,5.21,2.92,7.07c1.86,1.859,4.44,2.93,7.08,2.93c2.63,0,5.21-1.07,7.07-2.93c1.86-1.86,2.92-4.44,2.92-7.07
			C122.081,332.321,121.021,329.752,119.161,327.892z"/>
	</g>
</g>
<g>
</g>
<g>
</g>
<g>
</g>
<g>
</g>
<g>
</g>
<g>
</g>
<g>
</g>
<g>
</g>
<g>
</g>
<g>
</g>
<g>
</g>
<g>
</g>
<g>
</g>
<g>
</g>
<g>
</g>
</svg>
