<?xml version="1.0" encoding="iso-8859-1"?>
<!-- Generator: Adobe Illustrator 19.0.0, SVG Export Plug-In . SVG Version: 6.00 Build 0)  -->
<svg version="1.1" id="Capa_1" xmlns="http://www.w3.org/2000/svg" xmlns:xlink="http://www.w3.org/1999/xlink" x="0px" y="0px"
	 viewBox="0 0 511.999 511.999" style="enable-background:new 0 0 511.999 511.999;" xml:space="preserve">
<g>
	<g>
		<path d="M131.023,80.541c0-5.523-4.477-10-10-10s-10,4.477-10,10l0.003,0.623c0.044,5.495,4.513,9.918,9.998,9.918
			c0.027,0,0.055,0,0.083,0c5.523-0.045,9.963-4.558,9.918-10.081L131.023,80.541z"/>
	</g>
</g>
<g>
	<g>
		<path d="M390.451,487.278l-71.081-35.323c0.869-2.902,1.343-5.973,1.343-9.154c0-4.744-1.047-9.245-2.909-13.297
			c9.665-4.292,62.473-30.484,79.884-96.982c8.586-32.794-1.279-73.793-10.82-113.442c-6.466-26.873-12.574-52.255-12.574-73.089
			c0-49.94,22.24-90.736,22.465-91.142c1.717-3.095,1.669-6.868-0.125-9.919c-1.797-3.055-5.076-4.931-8.62-4.931h-99.288
			c2.748-3.211,3.253-7.948,0.919-11.741c-2.895-4.704-9.055-6.169-13.758-3.275c-6.093,3.75-10.737,9.095-14.292,15.017h-0.438
			c-14.324-24.488-40.975-40-69.592-40c-30.768,0-59.272,17.924-72.617,45.665c-2.394,4.977-0.3,10.952,4.677,13.347
			c4.976,2.395,10.953,0.3,13.347-4.677c10.033-20.859,31.463-34.336,54.593-34.336c17.268,0,33.584,7.514,44.922,20h-47.245
			c-3.544,0-6.823,1.876-8.62,4.931c-1.796,3.055-1.842,6.833-0.119,9.93c0.216,0.388,20.708,37.774,22.351,85.147
			c-3.711,0.702-7.485,1.075-11.29,1.075c-20.687,0-39.733-10.4-50.948-27.821c-2.99-4.644-9.179-5.984-13.821-2.995
			c-4.644,2.99-5.985,9.178-2.995,13.821c14.914,23.165,40.246,36.995,67.765,36.995c3.543,0,7.067-0.245,10.558-0.705
			c-1.879,17.697-6.691,37.741-11.735,58.704c-9.541,39.649-19.406,80.647-10.82,113.441c17.542,66.997,71.016,93.081,80.096,97.076
			c-1.835,4.028-2.867,8.496-2.867,13.203c0,3.158,0.468,6.208,1.325,9.091l-71.337,35.382c-5.454,2.704-8.292,8.732-6.903,14.659
			s6.612,10.066,12.699,10.066h192.065c6.085,0,11.307-4.138,12.697-10.063C398.734,496.013,395.898,489.984,390.451,487.278z
			 M274.408,59.998h97.858c-3.764,8.971-8.348,21.569-11.945,36.614h-68.043c-3.703-10.003-11.505-18.028-21.353-22.043
			C271.588,70.245,272.697,65.047,274.408,59.998z M274.629,109.769c0,9.925-8.075,18-18,18c-9.925,0-18-8.075-18-18
			c0-9.925,8.074-18,18-18C266.554,91.769,274.629,99.844,274.629,109.769z M253.478,59.999c-1.177,4.494-1.945,8.692-2.442,12.184
			c-16.921,2.507-30.236,16.209-32.16,33.31c-3.756-18.984-9.402-34.811-13.885-45.494H253.478z M239.513,392.714
			c-20.179-17.491-33.838-39.447-40.596-65.258c-7.313-27.933,1.955-66.448,10.917-103.696c6.535-27.159,12.701-52.85,13.091-75.515
			c0.005-0.108,0.016-0.214,0.018-0.322l0.003-0.222c0.008-0.572,0.017-1.144,0.017-1.71c0-7.205-0.411-14.209-1.121-20.954
			c5.892,13.37,19.263,22.731,34.786,22.731c18.616,0,34.137-13.46,37.371-31.156h62.469c-1.349,9.266-2.174,19.122-2.174,29.379
			c0,23.206,6.377,49.709,13.129,77.768c8.963,37.248,18.23,75.764,10.917,103.697c-6.758,25.811-20.417,47.767-40.596,65.258
			c-12.18,10.557-23.226,16.244-27.242,18.131h-43.745C262.718,408.948,251.682,403.262,239.513,392.714z M300.713,442.802
			c0,6.593-5.364,11.957-11.957,11.957c-6.593,0-11.957-5.364-11.957-11.957c0-6.593,5.364-11.957,11.957-11.957
			C295.349,430.845,300.713,436.209,300.713,442.802z M222.272,491.999l47.459-23.538c5.319,3.954,11.903,6.297,19.025,6.297
			c7.097,0,13.659-2.328,18.968-6.257l47.285,23.498H222.272z"/>
	</g>
</g>
<g>
	<g>
		<path d="M314.121,186.531h-29.936c-12.277,0-22.266,9.989-22.266,22.266v29.936c0,12.277,9.988,22.266,22.266,22.266h29.936
			c12.277,0,22.266-9.989,22.266-22.266v-29.936C336.387,196.52,326.398,186.531,314.121,186.531z M316.387,238.733
			c0,1.25-1.017,2.266-2.266,2.266h-29.936c-1.25,0-2.266-1.017-2.266-2.266v-29.936c0-1.25,1.017-2.266,2.266-2.266h29.936
			c1.25,0,2.266,1.017,2.266,2.266V238.733z"/>
	</g>
</g>
<g>
	<g>
		<path d="M325.856,313.814l-21.301-21.301c-4.22-4.22-9.831-6.544-15.799-6.544s-11.579,2.324-15.799,6.544l-21.3,21.301
			c-4.22,4.221-6.544,9.831-6.544,15.799c0,5.969,2.324,11.58,6.544,15.799l21.3,21.301c4.219,4.22,9.83,6.544,15.799,6.544
			c5.968,0,11.579-2.324,15.799-6.544l21.3-21.301c4.22-4.22,6.544-9.83,6.544-15.799
			C332.399,323.645,330.075,318.035,325.856,313.814z M311.713,331.269l-21.301,21.301c-0.913,0.915-2.4,0.914-3.313,0
			l-21.301-21.301c-0.567-0.567-0.686-1.213-0.686-1.656c0-0.442,0.119-1.089,0.687-1.656l21.3-21.301
			c0.913-0.913,2.4-0.915,3.313,0l21.301,21.3c0.567,0.567,0.686,1.215,0.686,1.657C312.398,330.056,312.28,330.703,311.713,331.269
			z"/>
	</g>
</g>
<g>
	<g>
		<path d="M352.7,288.899c-1.86-1.859-4.44-2.93-7.07-2.93s-5.21,1.07-7.07,2.93c-1.86,1.86-2.93,4.44-2.93,7.07
			s1.069,5.21,2.93,7.07c1.86,1.859,4.44,2.93,7.07,2.93s5.21-1.07,7.07-2.93s2.93-4.44,2.93-7.07S354.56,290.759,352.7,288.899z"/>
	</g>
</g>
<g>
	<g>
		<path d="M239.7,261.929c-1.86-1.861-4.441-2.93-7.07-2.93c-2.63,0-5.21,1.069-7.07,2.93c-1.86,1.86-2.93,4.44-2.93,7.07
			s1.07,5.21,2.93,7.069c1.86,1.86,4.44,2.931,7.07,2.931s5.21-1.07,7.07-2.931c1.86-1.859,2.93-4.439,2.93-7.069
			S241.56,263.789,239.7,261.929z"/>
	</g>
</g>
<g>
	<g>
		<path d="M247.7,167.929c-1.86-1.86-4.44-2.93-7.07-2.93s-5.21,1.07-7.07,2.93s-2.93,4.44-2.93,7.07s1.07,5.21,2.93,7.07
			s4.44,2.93,7.07,2.93s5.21-1.07,7.07-2.93s2.93-4.44,2.93-7.07S249.56,169.789,247.7,167.929z"/>
	</g>
</g>
<g>
</g>
<g>
</g>
<g>
</g>
<g>
</g>
<g>
</g>
<g>
</g>
<g>
</g>
<g>
</g>
<g>
</g>
<g>
</g>
<g>
</g>
<g>
</g>
<g>
</g>
<g>
</g>
<g>
</g>
</svg>
