<?xml version="1.0" encoding="iso-8859-1"?>
<!-- Generator: Adobe Illustrator 19.0.0, SVG Export Plug-In . SVG Version: 6.00 Build 0)  -->
<svg version="1.1" id="Capa_1" xmlns="http://www.w3.org/2000/svg" xmlns:xlink="http://www.w3.org/1999/xlink" x="0px" y="0px"
	 viewBox="0 0 511.999 511.999" style="enable-background:new 0 0 511.999 511.999;" xml:space="preserve">
<g>
	<g>
		<path d="M428.001,77.723c-26.67-26.669-65.69-33.608-98.813-20.866c-2.491-14.809-8.142-32.933-8.947-35.474
			c-1.084-3.427-3.927-6.007-7.443-6.759c-3.514-0.752-7.166,0.444-9.558,3.127c-0.031,0.035-1.448,1.619-4.374,4.653
			c-1.174-9.088-3.499-15.409-3.68-15.888c-1.107-2.947-3.537-5.201-6.559-6.083c-3.021-0.88-6.283-0.289-8.801,1.601l-20.952,15.72
			C245.801,7.393,214.282-9.661,160.836,6.95c-4.168,1.296-7.015,5.146-7.031,9.512s2.803,8.236,6.962,9.561
			c30.72,9.79,54.732,32.249,71.37,66.753c7.388,15.32,11.625,29.778,13.893,39.297h-17.873c3.414-5.346,5.345-11.455,5.32-17.933
			c-0.071-18.916-16.77-34.561-38.411-37.204l-12.186-27.246c-2.255-5.041-8.168-7.302-13.208-5.045
			c-5.041,2.254-7.3,8.167-5.045,13.208l9.283,20.756c-17.697,5.139-30.426,19.293-30.364,35.87
			c0.024,6.358,1.934,12.343,5.271,17.594h-57.75c-2.895,0-5.65,1.256-7.549,3.442c-1.899,2.187-2.756,5.089-2.352,7.956
			l49.693,351.329c1.387,9.804,9.898,17.196,19.799,17.196h153.67c9.9,0,18.412-7.393,19.799-17.196l49.269-348.339l33.575-33.575
			c0.003-0.003,0.006-0.005,0.008-0.008c0.002-0.003,0.005-0.006,0.008-0.008l21.012-21.012
			C431.905,87.958,431.905,81.627,428.001,77.723z M195.517,20.306c37.569-2.893,54.185,15.869,54.969,16.785
			c3.36,4.267,9.386,4.914,13.729,1.655l15.099-11.329c0.472,5.233,0.341,11.378-1.377,17.392c-1.237,4.329,0.573,8.951,4.42,11.29
			c3.849,2.34,8.784,1.817,12.058-1.275c4.476-4.227,8.272-7.911,11.429-11.036c2.207,8.561,4.123,17.456,4.463,22.984
			c-4.655,3.185-9.092,6.819-13.222,10.949c-14.838,14.837-23.991,33.83-26.431,54.35h-4.108
			c-2.151-10.144-6.841-28.002-16.122-47.408C236.909,56.405,218.223,34.595,195.517,20.306z M188.396,96.536
			c0.006,0,0.012,0.001,0.018,0.001c0.016,0,0.032-0.002,0.048-0.002c0.036,0,0.073,0,0.109,0c13.479,0,24.873,8.077,24.91,17.683
			c0.036,9.5-11.053,17.584-24.337,17.857h-1.396c-13.167-0.277-24.168-8.233-24.204-17.67
			C163.508,104.781,174.883,96.607,188.396,96.536z M304.33,492.004H150.66l-2.846-20.125h159.363L304.33,492.004z M310.005,451.883
			h-73.447c7.908-0.407,15.697-3.62,21.724-9.646l23.517-23.518c6.262-6.262,9.71-14.586,9.71-23.441
			c0-8.854-3.448-17.18-9.71-23.44l-23.517-23.517c-6.262-6.262-14.586-9.71-23.441-9.71c-8.855,0-17.181,3.448-23.441,9.71
			l-23.517,23.517c-6.262,6.262-9.71,14.586-9.71,23.44c0,8.855,3.448,17.181,9.709,23.441l23.518,23.518
			c6.027,6.027,13.815,9.24,21.724,9.646h-88.137l-35.908-253.874h100.754c5.522,0,9.998-4.476,9.998-9.998
			s-4.476-9.998-9.998-9.998H106.249l-3.669-25.943h167.818c2.023,21.37,11.316,41.197,26.689,56.569
			c1.953,1.953,4.511,2.928,7.07,2.928s5.118-0.976,7.07-2.928l38.65-38.651L310.005,451.883z M225.539,428.096l-23.518-23.518
			c-2.485-2.484-3.853-5.788-3.853-9.302c0-3.513,1.369-6.817,3.853-9.301l23.517-23.517c2.484-2.484,5.788-3.853,9.302-3.853
			c3.513,0,6.817,1.369,9.302,3.853l23.518,23.517c2.484,2.484,3.853,5.788,3.853,9.301c0,3.514-1.369,6.818-3.853,9.302
			l-23.518,23.518C239.014,433.225,230.668,433.225,225.539,428.096z M343.863,147.722l-17.846,17.846
			c-4.538-7.405-6.629-15.896-6.256-24.303L343.863,147.722z M325.28,122.043c1.859-3.279,4.173-6.369,6.965-9.16
			c2.765-2.766,5.848-5.096,9.157-6.979l5.906,22.041L325.28,122.043z M367.086,124.499l-6.463-24.12
			c0.638-0.028,1.278-0.047,1.921-0.047c8.033,0,15.725,2.204,22.398,6.312L367.086,124.499z M399.347,92.237
			c-10.643-7.722-23.399-11.902-36.803-11.902c-16.787,0-32.569,6.537-44.438,18.407c-7.768,7.768-13.065,17.085-15.908,26.964
			c-0.049,0.154-0.107,0.304-0.149,0.462c-0.04,0.15-0.064,0.3-0.097,0.451c-4.881,17.977-1.67,37.707,9.653,53.362l-6.969,6.969
			c-9.517-12.538-14.667-27.757-14.667-43.768c0-19.385,7.549-37.611,21.257-51.318c14.148-14.149,32.733-21.224,51.317-21.224
			c15.436,0,30.869,4.878,43.763,14.638L399.347,92.237z"/>
	</g>
</g>
<g>
	<g>
		<path d="M255.209,180.937c-1.86-1.86-4.439-2.929-7.069-2.929c-2.63,0-5.209,1.07-7.069,2.929c-1.86,1.87-2.929,4.439-2.929,7.069
			c0,2.639,1.07,5.209,2.929,7.069c1.861,1.87,4.44,2.929,7.069,2.929c2.639,0,5.209-1.06,7.069-2.929
			c1.86-1.86,2.929-4.429,2.929-7.069C258.138,185.377,257.068,182.807,255.209,180.937z"/>
	</g>
</g>
<g>
	<g>
		<path d="M244.926,221.05h-33.26c-18.279,0-33.151,14.872-33.151,33.151v33.259c0,18.279,14.872,33.151,33.151,33.151h33.26
			c18.279,0,33.151-14.871,33.151-33.151V254.2C278.076,235.922,263.205,221.05,244.926,221.05z M258.08,287.461
			c0,7.254-5.901,13.154-13.154,13.154h-33.26c-7.254,0-13.154-5.901-13.154-13.154V254.2c0-7.254,5.901-13.154,13.154-13.154h33.26
			c7.254,0,13.154,5.901,13.154,13.154V287.461z"/>
	</g>
</g>
<g>
	<g>
		<path d="M322.547,248.414c-1.86-1.86-4.439-2.929-7.069-2.929c-2.629,0-5.209,1.07-7.069,2.929
			c-1.86,1.86-2.929,4.439-2.929,7.069c0,2.63,1.07,5.209,2.929,7.068c1.86,1.86,4.439,2.93,7.069,2.93
			c2.63,0,5.209-1.07,7.069-2.93c1.86-1.859,2.929-4.438,2.929-7.068C325.476,252.853,324.406,250.274,322.547,248.414z"/>
	</g>
</g>
<g>
	<g>
		<path d="M304.55,318.052c-1.86-1.861-4.44-2.93-7.069-2.93c-2.63,0-5.209,1.07-7.069,2.93c-1.86,1.859-2.929,4.438-2.929,7.068
			c0,2.631,1.07,5.209,2.929,7.069c1.86,1.86,4.439,2.929,7.069,2.929c2.629,0,5.209-1.069,7.069-2.929
			c1.86-1.86,2.929-4.438,2.929-7.069C307.48,322.49,306.41,319.91,304.55,318.052z"/>
	</g>
</g>
<g>
	<g>
		<path d="M171.566,336.897c-1.86-1.86-4.439-2.929-7.069-2.929c-2.639,0-5.209,1.069-7.069,2.929
			c-1.86,1.86-2.929,4.439-2.929,7.069c0,2.63,1.07,5.209,2.929,7.068c1.86,1.86,4.429,2.93,7.069,2.93
			c2.63,0,5.209-1.07,7.069-2.93c1.86-1.859,2.929-4.438,2.929-7.068C174.496,341.336,173.426,338.757,171.566,336.897z"/>
	</g>
</g>
<g>
	<g>
		<path d="M171.566,415.882c-1.86-1.86-4.439-2.929-7.069-2.929c-2.639,0-5.209,1.069-7.069,2.929
			c-1.87,1.86-2.929,4.439-2.929,7.069c0,2.629,1.06,5.209,2.929,7.068c1.86,1.86,4.439,2.93,7.069,2.93
			c2.63,0,5.209-1.07,7.069-2.93c1.86-1.859,2.929-4.438,2.929-7.068C174.496,420.321,173.426,417.741,171.566,415.882z"/>
	</g>
</g>
<g>
	<g>
		<path d="M143.372,228.918c-1.86-1.86-4.439-2.929-7.069-2.929c-2.63,0-5.209,1.07-7.069,2.929c-1.86,1.86-2.929,4.439-2.929,7.069
			c0,2.629,1.07,5.209,2.929,7.069c1.86,1.86,4.439,2.929,7.069,2.929c2.629,0,5.209-1.07,7.069-2.929s2.929-4.439,2.929-7.069
			C146.301,233.357,145.231,230.778,143.372,228.918z"/>
	</g>
</g>
<g>
</g>
<g>
</g>
<g>
</g>
<g>
</g>
<g>
</g>
<g>
</g>
<g>
</g>
<g>
</g>
<g>
</g>
<g>
</g>
<g>
</g>
<g>
</g>
<g>
</g>
<g>
</g>
<g>
</g>
</svg>
