<?xml version="1.0" encoding="iso-8859-1"?>
<!-- Generator: Adobe Illustrator 19.0.0, SVG Export Plug-In . SVG Version: 6.00 Build 0)  -->
<svg version="1.1" id="Capa_1" xmlns="http://www.w3.org/2000/svg" xmlns:xlink="http://www.w3.org/1999/xlink" x="0px" y="0px"
	 viewBox="0 0 511.999 511.999" style="enable-background:new 0 0 511.999 511.999;" xml:space="preserve">
<g>
	<g>
		<path d="M283.043,361.911c-1.85-1.86-4.431-2.93-7.071-2.93c-2.63,0.001-5.211,1.07-7.071,2.93s-2.93,4.441-2.93,7.071
			s1.07,5.211,2.93,7.07c1.87,1.86,4.441,2.931,7.071,2.931c2.64,0,5.211-1.07,7.071-2.931c1.87-1.859,2.93-4.44,2.93-7.07
			S284.913,363.771,283.043,361.911z"/>
	</g>
</g>
<g>
	<g>
		<path d="M245.972,464.815V340.041h30.004c1.568,0,3.115-0.369,4.515-1.077c2.97-1.502,73.127-37.762,106.043-121.146
			c32.955-83.488-13.916-206.249-15.927-211.434C369.113,2.536,365.41,0,361.281,0H150.717c-4.128,0-7.832,2.536-9.324,6.384
			c-2.011,5.186-48.882,127.946-15.927,211.434c27.999,70.931,82.901,107.754,100.504,118.098v122.238l-51.799,21.639
			c-7.457,3.114-11.555,10.824-9.967,18.748c1.588,7.925,8.342,13.459,16.424,13.459h150.744c8.08,0,14.833-5.532,16.423-13.454
			c1.59-7.921-2.504-15.631-9.957-18.748l-51.86-21.701v-51.777c0-5.523-4.478-10.001-10.001-10.001s-10.001,4.479-10.001,10.001
			v58.434c0,4.031,2.421,7.67,6.141,9.226l43.059,18.018H196.847l42.978-17.953C243.548,472.489,245.972,468.85,245.972,464.815z
			 M144.072,210.474c-17.422-44.135-9.449-102.806,0.43-144.59h147.296c5.524,0,10.001-4.478,10.001-10.001
			s-4.478-10.001-10.001-10.001H149.676c3.178-11.311,6.133-20.294,8.068-25.879h196.512
			c8.959,25.856,39.738,124.437,13.673,190.471c-27.095,68.639-83.295,103.216-94.502,109.565h-34.901
			C227.289,313.669,171.157,279.091,144.072,210.474z"/>
	</g>
</g>
<g>
	<g>
		<path d="M280.783,80.027c-44.402,0-80.527,36.124-80.527,80.527c0,44.402,36.124,80.528,80.527,80.528
			c44.402,0,80.528-36.124,80.528-80.528C361.31,116.15,325.185,80.027,280.783,80.027z M223.776,180.866
			c-2.271-6.354-3.517-13.19-3.517-20.312c0-7.775,1.49-15.204,4.172-22.04l36.35,20.987L223.776,180.866z M270.781,220.237
			c-14.987-2.503-28.12-10.529-37.241-21.913l37.241-21.501V220.237z M270.781,142.178l-36.062-20.82
			c9.056-10.627,21.709-18.09,36.062-20.487V142.178z M290.784,100.87c14.354,2.397,27.006,9.86,36.062,20.487l-36.062,20.82V100.87
			z M290.784,220.237v-43.414l37.241,21.502C318.905,209.707,305.771,217.733,290.784,220.237z M300.785,159.5l36.35-20.987
			c2.682,6.835,4.173,14.265,4.173,22.04c0,7.124-1.246,13.96-3.517,20.312L300.785,159.5z"/>
	</g>
</g>
<g>
	<g>
		<path d="M340.37,48.813c-1.87-1.86-4.441-2.93-7.071-2.93c-2.64,0-5.221,1.07-7.081,2.93c-1.86,1.86-2.93,4.44-2.93,7.071
			c0,2.63,1.07,5.211,2.93,7.071c1.87,1.86,4.441,2.93,7.081,2.93c2.62,0,5.201-1.07,7.071-2.93c1.86-1.86,2.92-4.441,2.92-7.071
			C343.29,53.253,342.23,50.673,340.37,48.813z"/>
	</g>
</g>
<g>
	<g>
		<path d="M237.777,266.94c-1.86-1.871-4.431-2.93-7.071-2.93c-2.63,0-5.211,1.06-7.071,2.93c-1.86,1.86-2.93,4.431-2.93,7.071
			c0,2.63,1.07,5.211,2.93,7.07c1.86,1.86,4.441,2.931,7.071,2.931c2.64,0,5.211-1.07,7.071-2.931c1.87-1.869,2.93-4.44,2.93-7.07
			C240.708,271.37,239.647,268.801,237.777,266.94z"/>
	</g>
</g>
<g>
	<g>
		<path d="M198.603,220.804c-1.86-1.86-4.441-2.93-7.071-2.93c-2.64,0-5.211,1.07-7.071,2.93c-1.87,1.86-2.93,4.441-2.93,7.071
			c0,2.63,1.06,5.211,2.93,7.071c1.86,1.86,4.431,2.93,7.071,2.93c2.63,0,5.211-1.07,7.071-2.93c1.86-1.86,2.93-4.44,2.93-7.071
			C201.533,225.244,200.463,222.664,198.603,220.804z"/>
	</g>
</g>
<g>
	<g>
		<path d="M295.483,262.17c-1.86-1.861-4.44-2.931-7.071-2.931c-2.63,0-5.211,1.07-7.071,2.931c-1.86,1.859-2.93,4.44-2.93,7.07
			c0,2.63,1.07,5.211,2.93,7.071c1.86,1.86,4.441,2.93,7.071,2.93s5.211-1.069,7.071-2.93c1.86-1.86,2.93-4.441,2.93-7.071
			C298.414,266.609,297.343,264.029,295.483,262.17z"/>
	</g>
</g>
<g>
	<g>
		<path d="M180.08,90.489c-1.86-1.86-4.441-2.93-7.071-2.93c-2.64,0-5.211,1.07-7.071,2.93s-2.93,4.441-2.93,7.071
			s1.07,5.211,2.93,7.071s4.431,2.93,7.071,2.93c2.63,0,5.211-1.07,7.071-2.93s2.93-4.441,2.93-7.071S181.939,92.348,180.08,90.489z
			"/>
	</g>
</g>
<g>
	<g>
		<path d="M164.408,159.586c-1.86-1.86-4.441-2.93-7.071-2.93c-2.63,0-5.211,1.07-7.071,2.93c-1.87,1.86-2.93,4.441-2.93,7.071
			s1.06,5.211,2.93,7.071c1.86,1.86,4.44,2.93,7.071,2.93c2.63,0,5.211-1.07,7.071-2.93s2.93-4.441,2.93-7.071
			S166.269,161.447,164.408,159.586z"/>
	</g>
</g>
<g>
</g>
<g>
</g>
<g>
</g>
<g>
</g>
<g>
</g>
<g>
</g>
<g>
</g>
<g>
</g>
<g>
</g>
<g>
</g>
<g>
</g>
<g>
</g>
<g>
</g>
<g>
</g>
<g>
</g>
</svg>
