<?xml version="1.0" encoding="iso-8859-1"?>
<!-- Generator: Adobe Illustrator 19.0.0, SVG Export Plug-In . SVG Version: 6.00 Build 0)  -->
<svg version="1.1" id="Capa_1" xmlns="http://www.w3.org/2000/svg" xmlns:xlink="http://www.w3.org/1999/xlink" x="0px" y="0px"
	 viewBox="0 0 512.001 512.001" style="enable-background:new 0 0 512.001 512.001;" xml:space="preserve">
<g>
	<g>
		<path d="M296.911,326.029c0.582-0.736,1.153-1.484,1.702-2.257c0.239-0.337,0.446-0.686,0.638-1.041L478.688,69.787
			c2.164-3.051,2.444-7.054,0.728-10.376c-1.716-3.322-5.144-5.41-8.885-5.41H425c-5.522,0-10,4.477-10,10s4.478,10,10,10h26.177
			L280.934,313.984c-6.096,7.479-15.002,11.731-24.772,11.735h-0.014c-10.518,0-20.042-4.918-26.132-13.494
			c-0.539-0.759-1.169-1.411-1.858-1.97L102.755,133.22h104.912c5.522,0,10-4.477,10-10s-4.478-10-10-10H88.588L60.807,74.001
			h306.707l-35.695,46.012c-6.778-2.484-14.167-3.799-21.78-3.799c-0.084,0-0.168,0-0.251,0
			c-13.97,0.052-27.181,4.498-37.198,12.517c-10.693,8.559-16.557,20.114-16.51,32.536c0.021,5.446,1.216,10.663,3.379,15.488
			c-26.828,2.637-47.682,21.724-47.595,44.732c0.046,12.262,5.854,23.63,16.35,32.076l-10.876,14.02
			c-3.385,4.363-2.592,10.646,1.771,14.031c1.823,1.414,3.981,2.099,6.123,2.099c2.984,0,5.938-1.33,7.908-3.871l12.98-16.732
			c6.152,1.982,12.755,3.025,19.536,3.025c0.084,0,0.168,0,0.251,0c13.97-0.052,27.181-4.498,37.198-12.517
			c10.693-8.559,16.557-20.114,16.51-32.536c-0.021-5.445-1.215-10.662-3.378-15.488c26.828-2.638,47.68-21.724,47.594-44.732
			c-0.044-11.575-5.218-22.356-14.626-30.632l88.516-114.1c3.385-4.364,2.592-10.646-1.771-14.031
			c-4.364-3.385-10.646-2.591-14.031,1.772l-38.915,50.162c-0.215-0.014-0.429-0.033-0.647-0.033H41.469
			c-3.739,0-7.165,2.085-8.883,5.407c-1.717,3.321-1.438,7.323,0.723,10.374L226,341.809v110.944l-70.331,29.429
			c-6.901,2.888-10.693,10.027-9.221,17.362c1.472,7.335,7.726,12.457,15.207,12.457h188.647c7.483,0,13.737-5.125,15.208-12.462
			c1.471-7.337-2.324-14.477-9.229-17.361L286,452.82V341.41L296.911,326.029z M290.609,238.004
			c-6.507,5.208-15.306,8.095-24.776,8.131c-0.06,0-0.117,0-0.177,0c-9.403,0-18.154-2.818-24.658-7.945
			c-5.867-4.624-9.11-10.582-9.134-16.778c-0.051-13.47,15.42-24.908,33.781-24.977c0.057,0,0.111,0,0.167,0
			c18.29,0,33.753,11.294,33.804,24.723C299.639,227.353,296.44,233.336,290.609,238.004z M310.049,185.915
			c-0.057,0-0.111,0-0.167,0c-18.289,0-33.752-11.294-33.803-24.723c-0.023-6.195,3.176-12.178,9.007-16.846
			c6.507-5.208,15.306-8.095,24.776-8.131c0.06,0,0.118,0,0.177,0c7.249,0,14.105,1.681,19.849,4.797
			c0.153,0.089,0.306,0.175,0.462,0.255c1.535,0.863,2.993,1.824,4.347,2.892c5.867,4.624,9.11,10.583,9.134,16.778
			C343.882,174.407,328.411,185.845,310.049,185.915z M327.909,492.001H184.015l55.846-23.367c3.719-1.556,6.14-5.193,6.14-9.225
			V344.736c3.296,0.639,6.687,0.983,10.148,0.983c0,0,0.015,0,0.021,0c3.35-0.001,6.634-0.32,9.83-0.92V459.48
			c0,4.034,2.424,7.672,6.146,9.227L327.909,492.001z"/>
	</g>
</g>
<g>
	<g>
		<path d="M248.74,116.151c-1.86-1.86-4.44-2.93-7.07-2.93s-5.21,1.07-7.07,2.93c-1.859,1.86-2.93,4.44-2.93,7.07
			s1.07,5.21,2.93,7.07c1.86,1.86,4.44,2.93,7.07,2.93s5.21-1.07,7.07-2.93c1.859-1.86,2.93-4.44,2.93-7.07
			S250.6,118.011,248.74,116.151z"/>
	</g>
</g>
<g>
</g>
<g>
</g>
<g>
</g>
<g>
</g>
<g>
</g>
<g>
</g>
<g>
</g>
<g>
</g>
<g>
</g>
<g>
</g>
<g>
</g>
<g>
</g>
<g>
</g>
<g>
</g>
<g>
</g>
</svg>
