<?xml version="1.0" encoding="iso-8859-1"?>
<!-- Generator: Adobe Illustrator 19.0.0, SVG Export Plug-In . SVG Version: 6.00 Build 0)  -->
<svg version="1.1" id="Capa_1" xmlns="http://www.w3.org/2000/svg" xmlns:xlink="http://www.w3.org/1999/xlink" x="0px" y="0px"
	 viewBox="0 0 512.001 512.001" style="enable-background:new 0 0 512.001 512.001;" xml:space="preserve">
<g>
	<g>
		<path d="M509.618,67.522c-1.901-2.234-4.685-3.521-7.618-3.521h-89.983c-5.614-22.393-17.152-43.593-34.63-61.071
			c-1.876-1.875-4.419-2.929-7.071-2.929s-5.195,1.054-7.071,2.929l-61.086,61.086c-0.096-0.003-0.19-0.014-0.287-0.014h-79.844
			C216.85,38.919,194.593,20.004,168,20.004s-48.85,18.915-54.027,43.997H10c-2.933,0-5.717,1.287-7.617,3.521
			c-1.899,2.234-2.724,5.188-2.254,8.083l64.075,394.414c3.952,24.326,24.708,41.982,49.353,41.982h284.887
			c24.645,0,45.401-17.656,49.353-41.982l64.075-394.414C512.341,72.71,511.517,69.756,509.618,67.522z M370.003,24.456
			c36.813,43.988,34.559,109.801-6.759,151.119c-41.317,41.318-107.131,43.573-151.119,6.759l17.031-17.031
			c15.538,12.401,34.664,19.151,54.837,19.151c23.541,0,45.673-9.167,62.318-25.813c10.887-10.888,18.313-23.941,22.301-37.784
			c0.07-0.205,0.143-0.408,0.2-0.62c0.054-0.202,0.089-0.404,0.13-0.606c7.219-26.486,1.899-55.692-15.973-78.142L370.003,24.456z
			 M409.208,344.272v64.656c0,10.014-8.146,18.16-18.16,18.16h-64.655c-10.014,0-18.16-8.146-18.16-18.16v-64.657
			c0-10.013,8.146-18.16,18.16-18.16h64.655v0.001C401.062,326.112,409.208,334.258,409.208,344.272z M396.607,302.345
			c-2.429,2.429-5.659,3.767-9.094,3.767c-3.436,0-6.666-1.338-9.095-3.768l-37.116-37.116c-5.015-5.014-5.015-13.174,0-18.189
			l37.116-37.116c2.429-2.429,5.659-3.767,9.095-3.767c3.436,0,6.665,1.338,9.094,3.767l37.116,37.116
			c5.015,5.015,5.015,13.175,0,18.189L396.607,302.345z M338.726,55.733c8.695,11.673,13.398,25.77,13.398,40.59
			c0,3.013-0.213,5.991-0.595,8.93l-49.153-13.17L338.726,55.733z M346.049,124.49c-3.342,7.352-7.999,14.127-13.881,20.008
			c-5.881,5.882-12.655,10.54-20.008,13.881l-12.404-46.293L346.049,124.49z M283.992,164.454c-14.821,0-28.917-4.702-40.59-13.398
			l22.309-22.309c0.553-0.447,1.057-0.951,1.504-1.504l12.537-12.536l13.17,49.152C289.983,164.242,287.005,164.454,283.992,164.454
			z M222.449,84.001h59.723l-26.965,26.966h-45.285C216.352,103.447,220.802,94.19,222.449,84.001z M168,40.004
			c19.39,0,35.165,15.775,35.165,35.166S187.39,110.335,168,110.335s-35.165-15.775-35.165-35.166
			C132.835,55.778,148.611,40.004,168,40.004z M21.756,84.001h91.795c1.647,10.189,6.097,19.446,12.527,26.966H26.137L21.756,84.001
			z M77.64,427.999L29.386,130.967h205.821l-44.608,44.607c-1.875,1.875-2.929,4.419-2.929,7.071s1.054,5.196,2.929,7.071
			c25.749,25.749,59.571,38.623,93.394,38.623c22.241,0,44.48-5.568,64.425-16.702l-21.258,21.258
			c-12.813,12.813-12.813,33.661,0,46.473l26.742,26.741h-27.508c-21.042,0-38.16,17.118-38.16,38.16v64.656
			c0,6.946,1.875,13.458,5.13,19.074H77.64z M428.056,466.812c-2.372,14.596-14.825,25.189-29.612,25.189H113.557
			c-14.787,0-27.24-10.594-29.612-25.189l-3.056-18.811h350.223L428.056,466.812z M434.361,428.001h-10.283
			c3.256-5.616,5.13-12.129,5.13-19.074v-64.656c0-12.579-6.121-23.751-15.537-30.707l34.194-34.194
			c12.813-12.813,12.813-33.66,0-46.474l-37.116-37.116c-6.207-6.207-14.459-9.625-23.236-9.625c-2.562,0-5.077,0.3-7.512,0.866
			c15.434-16.325,25.908-35.653,31.418-56.055h71.195L434.361,428.001z M485.863,110.967h-70.67
			c0.991-8.957,1.075-17.996,0.241-26.966h74.81L485.863,110.967z"/>
	</g>
</g>
<g>
	<g>
		<path d="M285.911,328.317l-31.073-31.073c-0.001-0.001-0.002-0.002-0.003-0.003c-0.001-0.001-0.002-0.002-0.003-0.003
			L144.345,186.749c-0.001-0.001-0.001-0.001-0.002-0.002c-0.001-0.001-0.001-0.001-0.002-0.002l-31.074-31.075
			c-1.876-1.875-4.419-2.929-7.071-2.929c-2.652,0-5.195,1.054-7.071,2.929c-20.622,20.623-33.585,46.762-37.486,75.592
			c-3.774,27.894,1.568,56.776,15.045,81.325c2.657,4.842,8.734,6.612,13.578,3.954c4.841-2.658,6.611-8.737,3.953-13.578
			c-22.193-40.43-16.893-90.748,12.301-125.76l17.024,17.024c-12.401,15.538-19.151,34.664-19.151,54.836
			c0,23.541,9.167,45.672,25.813,62.318c10.884,10.883,23.932,18.308,37.77,22.297c0.21,0.071,0.417,0.147,0.635,0.205
			c0.161,0.043,0.321,0.061,0.482,0.096c7.659,2.099,15.542,3.173,23.431,3.173c19.426,0,38.843-6.383,54.833-19.112l17.028,17.028
			c-35.193,29.358-85.725,34.552-126.271,12.018c-4.824-2.682-10.915-0.944-13.599,3.883c-2.683,4.828-0.944,10.916,3.884,13.599
			c19.559,10.871,41.892,16.559,64.319,16.559c5.767,0,11.543-0.376,17.275-1.138c28.962-3.844,55.216-16.822,75.924-37.53
			C289.817,338.554,289.817,332.222,285.911,328.317z M124.983,257.995c-0.383-2.939-0.595-5.917-0.595-8.93
			c0-14.82,4.702-28.917,13.397-40.59l36.35,36.35L124.983,257.995z M164.351,311.121c-7.353-3.341-14.127-7.999-20.008-13.881
			c-5.881-5.881-10.539-12.656-13.881-20.008l46.293-12.404L164.351,311.121z M192.518,317.195c-3.012,0-5.991-0.213-8.929-0.595
			l13.17-49.152l36.35,36.35C221.435,312.493,207.338,317.195,192.518,317.195z"/>
	</g>
</g>
<g>
	<g>
		<path d="M113.537,328.586l-0.252-0.25c-3.894-3.917-10.227-3.932-14.142-0.039c-3.916,3.895-3.933,10.227-0.038,14.142l0.289,0.29
			c1.953,1.953,4.512,2.929,7.071,2.929c2.559,0,5.119-0.976,7.072-2.929C117.442,338.824,117.442,332.492,113.537,328.586z"/>
	</g>
</g>
<g>
	<g>
		<path d="M121.46,396.291c-1.87-1.86-4.44-2.92-7.07-2.92s-5.21,1.06-7.07,2.92c-1.869,1.87-2.93,4.44-2.93,7.08
			c0,2.63,1.061,5.2,2.93,7.07c1.86,1.86,4.44,2.93,7.07,2.93s5.21-1.07,7.07-2.93c1.859-1.87,2.93-4.44,2.93-7.07
			C124.39,400.731,123.32,398.161,121.46,396.291z"/>
	</g>
</g>
<g>
	<g>
		<path d="M285.91,243.611c-1.86-1.86-4.44-2.93-7.07-2.93s-5.21,1.07-7.07,2.93c-1.859,1.87-2.93,4.44-2.93,7.08
			c0,2.63,1.07,5.2,2.93,7.07c1.86,1.86,4.44,2.92,7.07,2.92s5.21-1.06,7.07-2.92c1.859-1.87,2.93-4.44,2.93-7.07
			C288.84,248.051,287.77,245.481,285.91,243.611z"/>
	</g>
</g>
<g>
	<g>
		<path d="M454.56,148.511c-1.859-1.86-4.439-2.93-7.069-2.93c-2.631,0-5.211,1.07-7.07,2.93c-1.86,1.86-2.93,4.44-2.93,7.07
			c0,2.64,1.069,5.21,2.93,7.07c1.859,1.87,4.439,2.93,7.07,2.93c2.63,0,5.21-1.06,7.069-2.93c1.86-1.86,2.931-4.44,2.931-7.07
			S456.42,150.371,454.56,148.511z"/>
	</g>
</g>
<g>
	<g>
		<path d="M170.74,152.601c-1.86-1.87-4.44-2.93-7.07-2.93c-2.64,0-5.21,1.06-7.07,2.93c-1.87,1.86-2.93,4.43-2.93,7.07
			c0,2.63,1.06,5.21,2.93,7.07c1.86,1.86,4.431,2.93,7.07,2.93c2.63,0,5.21-1.07,7.07-2.93c1.859-1.87,2.93-4.44,2.93-7.07
			S172.6,154.461,170.74,152.601z"/>
	</g>
</g>
<g>
</g>
<g>
</g>
<g>
</g>
<g>
</g>
<g>
</g>
<g>
</g>
<g>
</g>
<g>
</g>
<g>
</g>
<g>
</g>
<g>
</g>
<g>
</g>
<g>
</g>
<g>
</g>
<g>
</g>
</svg>
