<?xml version="1.0" encoding="iso-8859-1"?>
<!-- Generator: Adobe Illustrator 19.0.0, SVG Export Plug-In . SVG Version: 6.00 Build 0)  -->
<svg version="1.1" id="Capa_1" xmlns="http://www.w3.org/2000/svg" xmlns:xlink="http://www.w3.org/1999/xlink" x="0px" y="0px"
	 viewBox="0 0 512 512" style="enable-background:new 0 0 512 512;" xml:space="preserve">
<g>
	<g>
		<path d="M448,54h-55.602c-2.615-18.697-11.088-36.724-25.436-51.071C365.087,1.054,362.543,0,359.891,0
			c-2.652,0-5.196,1.054-7.071,2.929l-56.564,56.564c-0.002,0.002-0.003,0.003-0.005,0.005s-0.003,0.003-0.005,0.005L253.749,102
			H74.076c-0.04-0.997-0.076-1.994-0.076-3V74h135c5.523,0,10-4.477,10-10s-4.477-10-10-10H64c-5.523,0-10,4.477-10,10v35
			c0,4.212,0.279,8.359,0.813,12.428c-0.011,0.19-0.029,0.379-0.029,0.572c0,1.254,0.241,2.45,0.663,3.556
			C63.303,160.074,102.263,194,149,194c2.757,0,5,2.243,5,5v5.938c0,45.816,30.365,84.67,72.026,97.503v155.662L174.172,479.8
			c-7.452,3.118-11.546,10.828-9.956,18.748c1.59,7.92,8.343,13.452,16.421,13.452h150.726c8.081,0,14.833-5.533,16.422-13.456
			c1.589-7.923-2.509-15.632-9.966-18.747l-51.793-21.636v-77.798c0-5.523-4.477-10-10-10s-10,4.477-10,10v84.458
			c0,4.034,2.423,7.672,6.146,9.227L315.144,492H196.831l43.055-18.015c3.719-1.556,6.14-5.193,6.14-9.225V306.45
			c3.282,0.32,6.609,0.488,9.974,0.488c56.243,0,102-45.757,102-102V199c0-2.757,2.243-5,5-5c52.383,0,95-42.617,95-95V64
			C458,58.477,453.523,54,448,54z M359.388,24.646c7.17,9.577,11.557,20.588,13.18,31.922h-45.102L359.388,24.646z M372.564,76.568
			c-1.622,11.334-6.011,22.343-13.18,31.919l-31.919-31.919H372.564z M313.322,90.711l31.919,31.919
			c-9.576,7.17-20.585,11.558-31.919,13.181V90.711z M293.322,90.711v45.102c-11.335-1.623-22.346-6.009-31.922-13.18
			L293.322,90.711z M438,99c0,1.006-0.037,2.003-0.076,3H413.5c-5.523,0-10,4.477-10,10s4.477,10,10,10h20.878
			c-9.734,30.136-38.045,52-71.378,52c-13.785,0-25,11.215-25,25v5.938c0,45.215-36.785,82-82,82c-45.215,0-82-36.785-82-82V199
			c0-13.785-11.215-25-25-25c-33.333,0-61.644-21.864-71.378-52h159.203c-0.333,2.924,0.615,5.966,2.857,8.208
			c17.545,17.545,40.593,26.318,63.64,26.318c23.047,0,46.094-8.773,63.64-26.318C382.62,114.55,391.27,94.51,392.955,74H438V99z"/>
	</g>
</g>
<g>
	<g>
		<path d="M253.82,56.93c-1.86-1.86-4.43-2.93-7.07-2.93c-2.63,0-5.21,1.07-7.07,2.93s-2.93,4.44-2.93,7.07s1.07,5.21,2.93,7.07
			s4.44,2.93,7.07,2.93c2.64,0,5.21-1.07,7.07-2.93c1.87-1.86,2.93-4.44,2.93-7.07S255.69,58.79,253.82,56.93z"/>
	</g>
</g>
<g>
	<g>
		<path d="M283.1,334.79c-1.86-1.86-4.44-2.93-7.07-2.93c-2.64,0-5.21,1.07-7.08,2.93c-1.86,1.86-2.92,4.44-2.92,7.07
			s1.06,5.21,2.92,7.07c1.87,1.86,4.45,2.93,7.08,2.93c2.63,0,5.2-1.07,7.07-2.93c1.86-1.86,2.93-4.44,2.93-7.07
			S284.96,336.65,283.1,334.79z"/>
	</g>
</g>
<g>
</g>
<g>
</g>
<g>
</g>
<g>
</g>
<g>
</g>
<g>
</g>
<g>
</g>
<g>
</g>
<g>
</g>
<g>
</g>
<g>
</g>
<g>
</g>
<g>
</g>
<g>
</g>
<g>
</g>
</svg>
