<?xml version="1.0" encoding="iso-8859-1"?>
<!-- Generator: Adobe Illustrator 19.0.0, SVG Export Plug-In . SVG Version: 6.00 Build 0)  -->
<svg version="1.1" id="Capa_1" xmlns="http://www.w3.org/2000/svg" xmlns:xlink="http://www.w3.org/1999/xlink" x="0px" y="0px"
	 viewBox="0 0 512 512" style="enable-background:new 0 0 512 512;" xml:space="preserve">
<g>
	<g>
		<path d="M410,222.508c-5.523,0-10,4.477-10,10v157.513c0,16.542-13.458,30-30,30h-85.307c2.525-4.959,3.959-10.564,3.959-16.5
			v-60.967c0-20.126-16.374-36.5-36.5-36.5h-51.655c5.145-13.109,2.436-28.613-8.141-39.19l-43.024-43.023
			c-14.231-14.23-37.387-14.229-51.619,0L54.69,266.863c-6.894,6.894-10.69,16.06-10.69,25.81s3.797,18.916,10.69,25.81
			l43.023,43.023c6.894,6.894,16.06,10.691,25.81,10.691s18.916-3.796,25.81-10.69l5.352-5.352v47.367
			c0,5.936,1.434,11.541,3.959,16.5H50c-16.542,0-30-13.458-30-30V181h113c5.523,0,10-4.477,10-10s-4.477-10-10-10H20v-49h258.652
			c5.523,0,10-4.477,10-10s-4.477-10-10-10H10c-5.523,0-10,4.477-10,10v360c0,27.57,22.43,50,50,50h320c27.57,0,50-22.43,50-50
			V232.508C420,226.985,415.523,222.508,410,222.508z M252.152,326.054c9.098,0,16.5,7.402,16.5,16.5v60.967
			c0,9.098-7.402,16.5-16.5,16.5h-60.967c-9.099,0-16.5-7.402-16.5-16.5v-60.967c0-3.416,1.044-6.592,2.828-9.228l4.444-4.444
			c2.636-1.785,5.812-2.828,9.228-2.828H252.152z M135.19,347.363c-3.116,3.117-7.26,4.833-11.667,4.833s-8.551-1.716-11.667-4.833
			L68.833,304.34C65.716,301.224,64,297.08,64,292.673s1.716-8.551,4.833-11.667l43.023-43.023
			c3.216-3.217,7.441-4.825,11.667-4.825c4.225,0,8.451,1.608,11.667,4.825l43.023,43.023c6.433,6.434,6.434,16.901,0,23.334
			l-9.419,9.419c-2.39,1.863-4.542,4.015-6.405,6.405L135.19,347.363z M400,462c0,16.542-13.458,30-30,30H50
			c-16.542,0-30-13.458-30-30v-32.006c8.363,6.292,18.753,10.027,30,10.027h320c11.247,0,21.637-3.735,30-10.027V462z"/>
	</g>
</g>
<g>
	<g>
		<path d="M360.65,345c-1.87-1.86-4.44-2.93-7.08-2.93c-2.63,0-5.2,1.07-7.07,2.93c-1.86,1.86-2.93,4.44-2.93,7.07
			c0,2.64,1.07,5.22,2.93,7.07c1.87,1.87,4.44,2.93,7.07,2.93c2.64,0,5.21-1.06,7.08-2.93c1.86-1.86,2.92-4.43,2.92-7.07
			C363.57,349.44,362.51,346.86,360.65,345z"/>
	</g>
</g>
<g>
	<g>
		<path d="M71.07,376.93C69.21,375.07,66.63,374,64,374s-5.21,1.07-7.07,2.93S54,381.37,54,384s1.07,5.21,2.93,7.07
			c1.86,1.86,4.44,2.93,7.07,2.93s5.21-1.07,7.07-2.93S74,386.63,74,384S72.93,378.79,71.07,376.93z"/>
	</g>
</g>
<g>
	<g>
		<path d="M184.07,163.93c-1.86-1.86-4.44-2.93-7.07-2.93s-5.21,1.07-7.07,2.93S167,168.37,167,171s1.07,5.21,2.93,7.07
			S174.37,181,177,181s5.21-1.07,7.07-2.93S187,173.63,187,171S185.93,165.79,184.07,163.93z"/>
	</g>
</g>
<g>
	<g>
		<path d="M371.4,277.26c-1.86-1.86-4.44-2.93-7.07-2.93s-5.21,1.07-7.07,2.93c-1.86,1.86-2.93,4.44-2.93,7.07
			c0,2.64,1.07,5.21,2.93,7.08c1.86,1.86,4.44,2.92,7.07,2.92c2.63,0,5.21-1.06,7.07-2.92c1.87-1.87,2.93-4.44,2.93-7.08
			C374.33,281.7,373.27,279.12,371.4,277.26z"/>
	</g>
</g>
<g>
	<g>
		<path d="M410,0c-56.243,0-102,45.757-102,102s45.757,102,102,102c56.243,0,102-45.757,102-102S466.243,0,410,0z M345.419,51.561
			L385.857,92h-57.226C330.481,76.868,336.462,63.003,345.419,51.561z M328.632,112h57.226l-40.439,40.439
			C336.462,140.997,330.481,127.132,328.632,112z M400,183.368c-15.132-1.849-28.997-7.831-40.439-16.787L400,126.143V183.368z
			 M400,77.857l-40.439-40.439C371.003,28.462,384.868,22.48,400,20.631V77.857z M491.368,92h-57.226l40.439-40.439
			C483.538,63.003,489.519,76.868,491.368,92z M420,20.632c15.132,1.849,28.997,7.831,40.439,16.787L420,77.857V20.632z
			 M420,183.369v-57.226l40.439,40.439C448.997,175.538,435.132,181.52,420,183.369z M474.581,152.439L434.143,112h57.226
			C489.519,127.132,483.538,140.997,474.581,152.439z"/>
	</g>
</g>
<g>
	<g>
		<path d="M300.606,204.699l-18.795-18.795c-6.895-6.894-16.061-10.691-25.811-10.691s-18.916,3.797-25.81,10.69l-18.795,18.795
			c-6.894,6.894-10.69,16.06-10.69,25.81s3.797,18.916,10.69,25.81l18.795,18.795c6.894,6.894,16.06,10.691,25.81,10.691
			s18.916-3.797,25.81-10.69l18.795-18.795c6.894-6.894,10.691-16.06,10.691-25.81S307.5,211.593,300.606,204.699z M286.462,242.175
			l-18.795,18.796c-3.116,3.116-7.26,4.833-11.667,4.833s-8.551-1.716-11.667-4.833l-18.796-18.795
			c-3.116-3.116-4.833-7.26-4.833-11.667c0-4.407,1.716-8.551,4.833-11.667l18.795-18.796c3.116-3.116,7.26-4.833,11.667-4.833
			c4.407,0,8.551,1.716,11.667,4.833l18.795,18.795c3.118,3.117,4.834,7.26,4.834,11.667S289.579,239.059,286.462,242.175z"/>
	</g>
</g>
<g>
</g>
<g>
</g>
<g>
</g>
<g>
</g>
<g>
</g>
<g>
</g>
<g>
</g>
<g>
</g>
<g>
</g>
<g>
</g>
<g>
</g>
<g>
</g>
<g>
</g>
<g>
</g>
<g>
</g>
</svg>
