<?xml version="1.0" encoding="iso-8859-1"?>
<!-- Generator: Adobe Illustrator 19.0.0, SVG Export Plug-In . SVG Version: 6.00 Build 0)  -->
<svg version="1.1" id="Capa_1" xmlns="http://www.w3.org/2000/svg" xmlns:xlink="http://www.w3.org/1999/xlink" x="0px" y="0px"
	 viewBox="0 0 512.001 512.001" style="enable-background:new 0 0 512.001 512.001;" xml:space="preserve">
<g>
	<g>
		<path d="M444.182,176.403c-19.278-39.068-29.5-82.782-29.559-126.416c-0.008-5.518-4.482-9.986-10-9.986h-46.178l6.911-27.568
			c1.343-5.357-1.911-10.789-7.269-12.131c-5.355-1.341-10.789,1.91-12.132,7.268l-8.13,32.432H232.829
			c-5.46-13.721-13.707-26.315-24.463-37.071c-3.906-3.905-10.236-3.905-14.143,0L52.802,144.352
			c-1.875,1.875-2.929,4.419-2.929,7.071c0,2.652,1.054,5.196,2.929,7.071c20.776,20.776,48.4,32.218,77.782,32.218
			c1.592,0,3.179-0.04,4.76-0.107c-11.623,30.147-14.75,63.417-8.74,95.226c13.111,69.401,66.247,123.625,135.369,138.143
			c0.307,0.064,0.614,0.128,0.924,0.191v33.94l-51.855,21.697c-7.451,3.118-11.546,10.827-9.955,18.747
			c1.59,7.92,8.343,13.452,16.421,13.452h150.726c8.08,0,14.833-5.534,16.422-13.457c1.588-7.923-2.51-15.632-9.966-18.746
			l-51.793-21.636v-34.008c0.292-0.06,0.583-0.12,0.872-0.181c69.121-14.517,122.257-68.742,135.369-138.144
			C466.109,248.935,460.797,210.073,444.182,176.403z M353.432,60.002h41.37c0.723,20.955,3.641,41.851,8.607,62.24h-38.391
			c-2.851-11.4-10.456-20.934-20.58-26.365L353.432,60.002z M346.25,132.242c0,11.712-9.528,21.24-21.239,21.24
			s-21.239-9.528-21.239-21.24c0-11.712,9.528-21.24,21.239-21.24S346.25,120.53,346.25,132.242z M240.584,80.713
			c0-7.028-0.662-13.954-1.942-20.711h94.17l-7.771,31.001c-0.01,0-0.02-0.001-0.029-0.001c-19.291,0-35.525,13.317-40.007,31.24
			h-52.503C237.802,109.23,240.584,95.186,240.584,80.713z M130.585,170.712c-20.674,0-40.286-6.925-56.183-19.675L200.909,24.529
			c12.75,15.897,19.675,35.509,19.675,56.183c0,24.04-9.361,46.641-26.36,63.64C177.226,161.351,154.625,170.712,130.585,170.712z
			 M352.015,492.002H233.702l43.056-18.015c3.719-1.556,6.14-5.193,6.14-9.225v-38.958h20v39.02c0,4.034,2.424,7.672,6.146,9.227
			L352.015,492.002z M439.486,282.118c-11.607,61.434-58.643,109.433-119.828,122.283c-2.403,0.505-4.952,0.974-7.578,1.402h-38.418
			c-2.619-0.426-5.167-0.896-7.578-1.402c-61.187-12.851-108.222-60.85-119.828-122.283c-6.042-31.977-1.654-65.622,12.338-94.992
			c18.661-4.878,35.771-14.632,49.771-28.631c5.038-5.038,9.522-10.482,13.433-16.253h63.206
			c4.481,17.923,20.716,31.24,40.007,31.24c19.291,0,35.525-13.317,40.007-31.24h43.981c4.664,14.758,10.413,29.162,17.248,43.013
			C440.955,215.058,445.656,249.458,439.486,282.118z"/>
	</g>
</g>
<g>
	<g>
		<path d="M396.669,193.262c-1.859-1.86-4.439-2.93-7.069-2.93s-5.21,1.07-7.07,2.93c-1.86,1.86-2.93,4.44-2.93,7.07
			c0,2.64,1.069,5.21,2.93,7.07c1.86,1.87,4.44,2.93,7.07,2.93s5.21-1.06,7.069-2.93c1.86-1.86,2.931-4.43,2.931-7.07
			C399.6,197.702,398.53,195.122,396.669,193.262z"/>
	</g>
</g>
<g>
	<g>
		<path d="M238.68,189.262c-1.86-1.861-4.44-2.93-7.07-2.93c-2.64,0-5.22,1.07-7.07,2.93c-1.859,1.86-2.93,4.44-2.93,7.07
			c0,2.64,1.07,5.21,2.93,7.07c1.851,1.87,4.431,2.93,7.07,2.93c2.63,0,5.21-1.06,7.07-2.93c1.859-1.86,2.93-4.43,2.93-7.07
			C241.61,193.702,240.54,191.122,238.68,189.262z"/>
	</g>
</g>
<g>
	<g>
		<path d="M319.97,196.601c-1.86-1.87-4.44-2.93-7.07-2.93c-2.64,0-5.21,1.06-7.07,2.93c-1.859,1.86-2.93,4.43-2.93,7.07
			c0,2.63,1.07,5.21,2.93,7.07c1.86,1.86,4.431,2.93,7.07,2.93c2.63,0.001,5.21-1.07,7.07-2.93c1.859-1.86,2.93-4.44,2.93-7.07
			C322.9,201.031,321.83,198.461,319.97,196.601z"/>
	</g>
</g>
<g>
	<g>
		<path d="M200.239,248.932c-1.86-1.861-4.429-2.93-7.07-2.93c-2.63,0-5.21,1.07-7.069,2.93c-1.86,1.86-2.931,4.44-2.931,7.07
			c0,2.63,1.07,5.21,2.931,7.07c1.859,1.86,4.439,2.93,7.069,2.93c2.641,0,5.21-1.07,7.07-2.93c1.87-1.86,2.94-4.44,2.94-7.07
			S202.109,250.792,200.239,248.932z"/>
	</g>
</g>
<g>
	<g>
		<path d="M289.44,353.872c-1.86-1.861-4.44-2.93-7.07-2.93s-5.21,1.07-7.07,2.93c-1.859,1.86-2.93,4.44-2.93,7.07
			c0,2.64,1.07,5.21,2.93,7.07c1.86,1.87,4.44,2.93,7.07,2.93s5.21-1.06,7.07-2.93c1.859-1.86,2.93-4.44,2.93-7.07
			S291.3,355.732,289.44,353.872z"/>
	</g>
</g>
<g>
	<g>
		<path d="M349.61,262.602c-1.86-1.87-4.44-2.93-7.07-2.93c-2.64,0-5.21,1.06-7.069,2.93c-1.87,1.86-2.931,4.43-2.931,7.07
			c0,2.63,1.061,5.2,2.931,7.07c1.859,1.859,4.429,2.93,7.069,2.93c2.63,0,5.21-1.07,7.07-2.93c1.86-1.87,2.93-4.44,2.93-7.07
			C352.54,267.032,351.471,264.462,349.61,262.602z"/>
	</g>
</g>
<g>
	<g>
		<path d="M225.61,320.602c-1.861-1.87-4.441-2.93-7.07-2.93c-2.63,0-5.21,1.06-7.069,2.93c-1.87,1.86-2.931,4.43-2.931,7.07
			c0,2.63,1.061,5.21,2.931,7.07c1.859,1.86,4.439,2.93,7.069,2.93s5.21-1.07,7.07-2.93c1.86-1.86,2.93-4.44,2.93-7.07
			C228.54,325.032,227.471,322.462,225.61,320.602z"/>
	</g>
</g>
<g>
	<g>
		<path d="M279.97,268.931c-1.86-1.86-4.44-2.93-7.07-2.93c-2.64,0-5.22,1.07-7.07,2.93c-1.87,1.86-2.93,4.44-2.93,7.07
			s1.06,5.21,2.93,7.07c1.86,1.86,4.431,2.93,7.07,2.93c2.63,0.001,5.21-1.07,7.07-2.93c1.859-1.86,2.93-4.44,2.93-7.07
			S281.83,270.791,279.97,268.931z"/>
	</g>
</g>
<g>
	<g>
		<path d="M391.457,274.148c-5.426-1.028-10.657,2.543-11.683,7.97c-5.823,30.82-29.42,54.9-60.116,61.347
			c-5.404,1.135-8.866,6.437-7.73,11.842c0.989,4.712,5.146,7.946,9.776,7.946c0.681,0,1.372-0.07,2.065-0.215
			c38.632-8.114,68.329-38.419,75.657-77.208C400.452,280.404,396.883,275.173,391.457,274.148z"/>
	</g>
</g>
<g>
</g>
<g>
</g>
<g>
</g>
<g>
</g>
<g>
</g>
<g>
</g>
<g>
</g>
<g>
</g>
<g>
</g>
<g>
</g>
<g>
</g>
<g>
</g>
<g>
</g>
<g>
</g>
<g>
</g>
</svg>
