<?xml version="1.0" encoding="iso-8859-1"?>
<!-- Generator: Adobe Illustrator 19.0.0, SVG Export Plug-In . SVG Version: 6.00 Build 0)  -->
<svg version="1.1" id="Capa_1" xmlns="http://www.w3.org/2000/svg" xmlns:xlink="http://www.w3.org/1999/xlink" x="0px" y="0px"
	 viewBox="0 0 512.001 512.001" style="enable-background:new 0 0 512.001 512.001;" xml:space="preserve">
<g>
	<g>
		<path d="M429.024,36.002c-47.99-47.989-126.075-47.989-174.065,0c-1.875,1.875-2.929,4.419-2.929,7.072
			c0,2.652,1.054,5.196,2.929,7.072l57.816,57.816h-89.313c-0.921-18.078-7.441-34.138-19.02-46.662
			c-4.186-4.528-8.951-8.519-14.239-11.968c5.125-5.628,12.879-4.764,13.725-4.65c3.677,0.728,7.338-0.688,9.665-3.633
			c2.339-2.959,2.691-7.007,1.105-10.429c-0.538-1.16-5.549-11.576-15.759-20.001C184.527-1.271,166.654-3.247,148.61,5.05
			c-5.307,2.44-9.766,5.588-13.323,9.373c-3.559-3.785-8.017-6.932-13.324-9.373c-18.045-8.297-35.919-6.32-50.329,5.57
			c-10.212,8.424-15.222,18.84-15.76,20c-1.568,3.382-1.125,7.356,1.15,10.309c2.274,2.953,6.005,4.399,9.673,3.744
			c0.085-0.014,8.315-1.261,13.697,4.689c-21.221,13.911-33.409,36.383-33.409,63.067c0,17.502,10.802,46.089,26.878,71.138
			c11.352,17.687,34.42,47.363,61.402,47.409c0.014,0,0.03,0,0.044,0c5.523,0,10.001-4.477,10.001-10.001
			c0-5.46-4.375-9.897-9.811-9.999c-0.072-0.002-0.146-0.003-0.218-0.003c-12.387-0.021-29.471-14.662-44.584-38.211
			c-15.399-23.994-23.709-48.994-23.709-60.335c0-30.67,19.096-44.903,33.443-51.27c0.029-0.012,0.057-0.026,0.086-0.038
			c1.751-0.774,3.435-1.438,4.999-1.993c0.04-0.015,0.08-0.029,0.12-0.043c7.232-2.671,18.258-4.263,29.522-4.263
			c0.042-0.002,0.087,0,0.129,0c0.008,0,0.014,0,0.021,0c0.041,0.003,0.08,0,0.12,0c11.252,0,22.276,1.592,29.51,4.263
			c0.037,0.014,0.074,0.027,0.111,0.04c0.002,0.001,0.004,0.002,0.007,0.003c0.015,0.005,0.031,0.012,0.046,0.017
			c1.004,0.357,1.979,0.743,2.949,1.135c0.482,0.197,0.965,0.398,1.45,0.608c8.039,3.459,14.846,8.145,20.254,13.993
			c8.251,8.923,12.831,20.04,13.675,33.084h-40.877c-3.102,0-6.029,1.439-7.923,3.897c-1.893,2.457-2.538,5.654-1.747,8.654
			c12.216,46.318,7.278,95.47-13.905,138.4c-11.956,24.229-15.777,52.193-10.762,78.741c9.436,49.941,47.67,88.959,97.408,99.405
			c0.618,0.13,1.238,0.256,1.861,0.377v23.002l-56.525,23.651c-6.46,2.702-10.009,9.384-8.631,16.25
			c1.378,6.865,7.231,11.659,14.232,11.659h154.591c7.005,0,12.857-4.796,14.233-11.664c1.376-6.868-2.176-13.549-8.639-16.247
			l-56.48-23.596v-23.062c0.61-0.12,1.22-0.243,1.826-0.371c49.738-10.446,87.973-49.465,97.408-99.405
			c5.016-26.548,1.194-54.513-10.762-78.741c-7.952-16.115-13.614-33.108-16.94-50.498c-0.006-0.033-0.011-0.066-0.018-0.099
			c-3.958-20.755-4.577-42.074-1.796-63.144l41.503,41.503c0.001,0.001,0.002,0.003,0.004,0.004
			c0.002,0.001,0.003,0.003,0.004,0.004l23.382,23.382c1.876,1.875,4.419,2.929,7.072,2.929s5.195-1.054,7.072-2.929
			C477.013,162.077,477.013,83.992,429.024,36.002z M98.949,40.233c-0.881-0.987-1.79-2.04-2.747-3.195
			c-3.923-4.735-8.6-7.807-13.295-9.72c0.598-0.551,1.225-1.092,1.88-1.615c8.419-6.716,17.845-7.526,28.819-2.48
			c5.939,2.73,9.501,6.595,11.009,11.995C114.921,35.954,105.925,37.692,98.949,40.233z M174.369,37.04
			c-0.952,1.149-1.863,2.212-2.74,3.195c-0.002-0.001-0.003-0.001-0.005-0.001c-6.979-2.541-15.976-4.279-25.666-5.016
			c1.508-5.401,5.072-9.265,11.009-11.995c10.975-5.046,20.402-4.234,28.819,2.48c0.656,0.523,1.283,1.065,1.881,1.616
			C182.971,29.232,178.293,32.304,174.369,37.04z M300.065,66.965c9.384-7.048,20.306-11.572,31.925-13.224V98.89L300.065,66.965z
			 M350.805,267.764c10.047,20.364,13.258,43.866,9.043,66.178c-7.93,41.971-40.064,74.764-81.867,83.544
			c-2.96,0.622-5.99,1.136-9.004,1.528c-4.982,0.647-8.712,4.892-8.712,9.918v38.223c0,4.034,2.424,7.673,6.147,9.228l37.383,15.616
			h-99.909l37.464-15.675c3.719-1.556,6.141-5.193,6.141-9.226v-38.162c0-5.026-3.729-9.272-8.715-9.918
			c-3.029-0.393-6.069-0.908-9.036-1.532c-41.803-8.779-73.938-41.572-81.867-83.544c-4.216-22.312-1.004-45.814,9.045-66.177
			c21.415-43.4,27.75-92.572,18.227-139.801h157.435c-4.833,23.967-5.573,48.435-2.34,72.394H235.53
			c-5.523,0-10.001,4.477-10.001,10.001c0,5.524,4.478,10.001,10.001,10.001h98.362C337.66,236.648,343.303,252.561,350.805,267.764
			z M398.061,164.96l-31.925-31.925h45.149C409.633,144.655,405.109,155.577,398.061,164.96z M351.992,98.889V53.74
			c11.62,1.652,22.541,6.177,31.925,13.224L351.992,98.889z M366.137,113.034l31.925-31.925
			c7.048,9.384,11.572,20.306,13.224,31.925C411.286,113.034,366.137,113.034,366.137,113.034z M421.612,188.511l-9.303-9.303
			C425.06,163.309,432,143.709,432,123.034c0-24.042-9.362-46.645-26.362-63.645c-17-17.001-39.604-26.363-63.646-26.363
			c-20.674,0-40.275,6.941-56.174,19.692l-9.303-9.303c40.452-33.32,100.559-31.075,138.366,6.731
			C452.687,87.952,454.932,148.058,421.612,188.511z"/>
	</g>
</g>
<g>
	<g>
		<path d="M142.359,167.229c-1.861-1.86-4.441-2.93-7.071-2.93c-2.63,0-5.21,1.07-7.07,2.93c-1.86,1.86-2.931,4.44-2.931,7.071
			c0,2.64,1.07,5.21,2.931,7.071c1.859,1.87,4.439,2.93,7.07,2.93s5.211-1.06,7.071-2.93c1.86-1.86,2.93-4.43,2.93-7.071
			C145.289,171.669,144.22,169.089,142.359,167.229z"/>
	</g>
</g>
<g>
	<g>
		<path d="M119.296,128.394c-1.86-1.86-4.44-2.93-7.071-2.93s-5.201,1.07-7.071,2.93c-1.859,1.86-2.93,4.44-2.93,7.071
			s1.07,5.21,2.93,7.071c1.86,1.86,4.44,2.93,7.071,2.93c2.64,0,5.211-1.07,7.071-2.93c1.869-1.86,2.93-4.44,2.93-7.071
			S121.166,130.254,119.296,128.394z"/>
	</g>
</g>
<g>
	<g>
		<path d="M104.965,85.53c-1.86-1.86-4.44-2.93-7.071-2.93s-5.21,1.07-7.071,2.93c-1.859,1.86-2.93,4.44-2.93,7.071
			c0,2.64,1.07,5.21,2.93,7.081c1.86,1.86,4.44,2.92,7.071,2.92s5.211-1.06,7.071-2.92c1.859-1.87,2.93-4.44,2.93-7.081
			C107.895,89.971,106.825,87.39,104.965,85.53z"/>
	</g>
</g>
<g>
	<g>
		<path d="M182.972,85.53c-1.86-1.86-4.431-2.93-7.071-2.93c-2.63,0-5.211,1.07-7.071,2.93c-1.859,1.86-2.93,4.44-2.93,7.071
			c0,2.64,1.07,5.21,2.93,7.071c1.86,1.87,4.44,2.93,7.071,2.93s5.211-1.059,7.071-2.93c1.859-1.86,2.93-4.43,2.93-7.071
			C185.903,89.971,184.833,87.39,182.972,85.53z"/>
	</g>
</g>
<g>
	<g>
		<path d="M143.969,85.53c-1.86-1.86-4.431-2.93-7.071-2.93c-2.63,0-5.211,1.07-7.071,2.93c-1.859,1.86-2.93,4.44-2.93,7.071
			c0,2.64,1.07,5.21,2.93,7.081c1.86,1.86,4.44,2.92,7.071,2.92s5.211-1.06,7.071-2.92c1.859-1.87,2.93-4.44,2.93-7.081
			C146.899,89.971,145.829,87.39,143.969,85.53z"/>
	</g>
</g>
<g>
	<g>
		<path d="M213.445,263.907c-1.86-1.86-4.44-2.93-7.071-2.93s-5.21,1.07-7.07,2.93c-1.86,1.86-2.931,4.44-2.931,7.071
			s1.07,5.21,2.931,7.071c1.859,1.86,4.439,2.93,7.07,2.93s5.211-1.07,7.071-2.93c1.87-1.86,2.93-4.44,2.93-7.071
			S215.315,265.767,213.445,263.907z"/>
	</g>
</g>
<g>
	<g>
		<path d="M204.923,336.914c-1.859-1.86-4.439-2.93-7.07-2.93c-2.641,0-5.211,1.07-7.071,2.93c-1.87,1.86-2.93,4.44-2.93,7.071
			s1.06,5.211,2.93,7.071c1.86,1.86,4.43,2.93,7.071,2.93c2.63,0,5.211-1.07,7.07-2.93c1.86-1.86,2.931-4.44,2.931-7.071
			S206.785,338.774,204.923,336.914z"/>
	</g>
</g>
<g>
	<g>
		<path d="M309.074,279.908c-1.87-1.86-4.44-2.93-7.071-2.93c-2.64,0-5.211,1.07-7.081,2.93c-1.859,1.86-2.92,4.44-2.92,7.071
			s1.061,5.21,2.92,7.071c1.87,1.86,4.44,2.93,7.081,2.93c2.63,0,5.2-1.07,7.071-2.93c1.859-1.86,2.92-4.44,2.92-7.071
			S310.933,281.768,309.074,279.908z"/>
	</g>
</g>
<g>
	<g>
		<path d="M268.66,312.711c-1.86-1.86-4.441-2.93-7.071-2.93c-2.63,0-5.21,1.07-7.07,2.93c-1.86,1.86-2.931,4.44-2.931,7.071
			c0,2.63,1.07,5.211,2.931,7.071c1.859,1.86,4.439,2.93,7.07,2.93s5.211-1.07,7.071-2.93c1.86-1.86,2.93-4.44,2.93-7.071
			C271.591,317.152,270.522,314.572,268.66,312.711z"/>
	</g>
</g>
<g>
	<g>
		<path d="M314.075,358.726c-1.87-1.86-4.44-2.93-7.071-2.93c-2.64,0-5.21,1.07-7.071,2.93c-1.869,1.86-2.939,4.44-2.939,7.071
			s1.07,5.21,2.939,7.071c1.86,1.87,4.431,2.93,7.071,2.93c2.63,0,5.211-1.06,7.071-2.93c1.859-1.86,2.93-4.44,2.93-7.071
			S315.935,360.586,314.075,358.726z"/>
	</g>
</g>
<g>
	<g>
		<path d="M207.445,203.281c-1.86-1.85-4.43-2.92-7.071-2.92c-2.63,0-5.211,1.07-7.07,2.92c-1.86,1.87-2.931,4.45-2.931,7.081
			s1.07,5.21,2.931,7.071c1.868,1.86,4.439,2.93,7.07,2.93s5.211-1.07,7.071-2.93s2.93-4.44,2.93-7.071
			S209.306,205.151,207.445,203.281z"/>
	</g>
</g>
<g>
</g>
<g>
</g>
<g>
</g>
<g>
</g>
<g>
</g>
<g>
</g>
<g>
</g>
<g>
</g>
<g>
</g>
<g>
</g>
<g>
</g>
<g>
</g>
<g>
</g>
<g>
</g>
<g>
</g>
</svg>
