<?xml version="1.0" encoding="iso-8859-1"?>
<!-- Generator: Adobe Illustrator 19.0.0, SVG Export Plug-In . SVG Version: 6.00 Build 0)  -->
<svg version="1.1" id="Capa_1" xmlns="http://www.w3.org/2000/svg" xmlns:xlink="http://www.w3.org/1999/xlink" x="0px" y="0px"
	 viewBox="0 0 512.001 512.001" style="enable-background:new 0 0 512.001 512.001;" xml:space="preserve">
<g>
	<g>
		<path d="M509.604,125.746c-1.899-2.224-4.678-3.504-7.603-3.504H186.062v-72c0-5.519-4.472-9.995-9.991-10
			c-0.062,0-0.122,0-0.185,0c-27.757,0-55.255,5.835-80.674,16.963c-0.051-9.557-3.71-19.098-10.986-26.374
			C72.02,18.626,53.444,16.597,39.107,24.723L17.314,2.93c-3.906-3.905-10.236-3.905-14.143,0c-3.905,3.905-3.905,10.237,0,14.142
			l21.794,21.793c-8.127,14.336-6.097,32.914,6.109,45.119c3.194,3.193,6.824,5.69,10.701,7.491
			c-16.005,14.266-29.702,31.015-40.438,49.65c-2.755,4.782-1.114,10.893,3.665,13.652l84.994,49.071l36.386,230.411
			c0.015,0.129,0.021,0.257,0.041,0.387c0.046,0.29,0.103,0.575,0.156,0.862l7.77,49.201C136.846,500.522,150.28,512,166.288,512
			h258.234c16.01,0,29.442-11.478,31.939-27.292l7.837-49.627c0.025-0.146,0.056-0.289,0.079-0.435
			c0.01-0.065,0.012-0.13,0.021-0.195l47.479-300.649C512.336,130.913,511.504,127.97,509.604,125.746z M45.216,44.974
			c3.428-3.428,7.931-5.142,12.434-5.142c4.503,0,9.006,1.714,12.434,5.142c6.856,6.856,6.856,18.012,0,24.868
			c-6.854,6.855-18.011,6.856-24.867,0C38.359,62.986,38.359,51.83,45.216,44.974z M88.812,122.241c-2.925,0-5.703,1.28-7.603,3.504
			c-1.9,2.223-2.731,5.167-2.275,8.056l7.049,44.636l-62.088-35.845c15.512-23.76,36.541-43.679,61.305-57.977
			c24.764-14.297,52.529-22.55,80.862-24.104v61.73H88.812z M436.707,481.589c-0.952,6.034-6.076,10.412-12.183,10.412H166.289
			c-6.107,0-11.232-4.379-12.185-10.412l-3.24-20.518c2.41,0.566,4.92,0.867,7.499,0.867h274.075c2.583,0,5.096-0.303,7.509-0.87
			L436.707,481.589z M226.356,437.105l-43.023-43.023c-6.434-6.433-6.434-16.901,0-23.334l43.022-43.023
			c3.218-3.217,7.442-4.825,11.668-4.825c4.226,0,8.451,1.608,11.667,4.825l43.023,43.023c3.117,3.117,4.834,7.26,4.834,11.667
			s-1.717,8.551-4.833,11.667c-0.001,0-0.001,0-0.001,0l-43.023,43.024c-3.116,3.116-7.26,4.833-11.667,4.833
			C233.617,441.939,229.473,440.222,226.356,437.105z M483.332,186.353h-133.83c-5.522,0-10,4.477-10,10c0,5.523,4.478,10,10,10
			h130.672L444.58,431.742c-1.04,5.92-6.107,10.196-12.141,10.196H273.143l33.714-33.714h-0.001
			c6.895-6.894,10.692-16.06,10.692-25.81s-3.798-18.916-10.691-25.81l-43.023-43.023c-14.231-14.231-37.388-14.23-51.619,0
			l-43.023,43.024c-14.23,14.231-14.23,37.388,0,51.619l33.714,33.714h-44.541c-5.959,0-10.971-4.174-12.096-9.98L110.64,206.353
			h47.898c-0.023,0.494-0.036,0.99-0.036,1.488c0,8.348,3.251,16.196,9.153,22.099l26.216,26.217
			c6.094,6.093,14.095,9.139,22.1,9.139c8.002,0,16.007-3.047,22.099-9.139l26.217-26.216c5.902-5.903,9.153-13.751,9.153-22.099
			c0-8.348-3.251-16.196-9.153-22.099l-26.217-26.216c-12.187-12.185-32.014-12.184-44.198,0l-26.216,26.216
			c-0.2,0.2-0.389,0.407-0.582,0.611h-59.591l-6.966-44.111h389.783L483.332,186.353z M178.502,207.841
			c0-3.005,1.17-5.832,3.296-7.957l26.216-26.216c2.193-2.194,5.075-3.291,7.956-3.291c2.882,0,5.764,1.097,7.957,3.291
			l26.217,26.216c2.126,2.125,3.296,4.951,3.296,7.957s-1.17,5.832-3.296,7.957l-26.217,26.216c-4.386,4.387-11.525,4.388-15.913,0
			l-26.216-26.217C179.671,213.672,178.502,210.847,178.502,207.841z"/>
	</g>
</g>
<g>
	<g>
		<path d="M427.183,270.931l-26.217-26.216c-5.902-5.903-13.751-9.154-22.099-9.154c-8.349,0-16.196,3.251-22.1,9.154
			l-26.216,26.216c-12.186,12.186-12.186,32.013,0,44.198l26.216,26.216c5.903,5.903,13.751,9.154,22.1,9.154
			c8.348,0,16.196-3.251,22.099-9.154l26.217-26.216C439.369,302.943,439.369,283.116,427.183,270.931z M413.04,300.986
			l-26.217,26.217c-2.125,2.125-4.95,3.296-7.956,3.296s-5.832-1.171-7.957-3.296l-26.216-26.217
			c-4.388-4.387-4.388-11.526,0-15.913l26.216-26.216c2.125-2.125,4.951-3.296,7.957-3.296c3.006,0,5.831,1.17,7.956,3.296
			l26.217,26.216C417.428,289.46,417.428,296.599,413.04,300.986z"/>
	</g>
</g>
<g>
	<g>
		<path d="M318.071,189.281c-1.859-1.86-4.439-2.93-7.069-2.93s-5.21,1.07-7.07,2.93c-1.86,1.86-2.93,4.44-2.93,7.07
			s1.069,5.21,2.93,7.07c1.86,1.87,4.44,2.93,7.07,2.93s5.21-1.06,7.069-2.93c1.86-1.86,2.931-4.44,2.931-7.07
			S319.932,191.141,318.071,189.281z"/>
	</g>
</g>
<g>
	<g>
		<path d="M415.571,367.931c-1.859-1.86-4.44-2.93-7.069-2.93c-2.63,0-5.21,1.07-7.07,2.93c-1.86,1.86-2.93,4.44-2.93,7.07
			s1.069,5.21,2.93,7.07c1.861,1.86,4.44,2.93,7.07,2.93s5.21-1.07,7.069-2.93c1.86-1.86,2.931-4.44,2.931-7.07
			S417.432,369.791,415.571,367.931z"/>
	</g>
</g>
<g>
	<g>
		<path d="M366.571,397.931c-1.859-1.86-4.44-2.93-7.069-2.93c-2.63,0-5.21,1.07-7.07,2.93c-1.86,1.86-2.93,4.44-2.93,7.07
			s1.069,5.21,2.93,7.07c1.861,1.86,4.44,2.93,7.07,2.93s5.21-1.07,7.069-2.93c1.86-1.86,2.931-4.44,2.931-7.07
			S368.432,399.791,366.571,397.931z"/>
	</g>
</g>
<g>
	<g>
		<path d="M175.57,285.961c-1.859-1.86-4.44-2.93-7.069-2.93c-2.63,0-5.21,1.07-7.07,2.93s-2.93,4.44-2.93,7.07
			s1.069,5.21,2.93,7.07c1.86,1.86,4.44,2.93,7.07,2.93s5.2-1.07,7.069-2.93c1.86-1.86,2.931-4.44,2.931-7.07
			S177.432,287.821,175.57,285.961z"/>
	</g>
</g>
<g>
	<g>
		<path d="M285.751,270.921c-1.86-1.86-4.44-2.93-7.07-2.93s-5.21,1.07-7.07,2.93c-1.859,1.86-2.93,4.43-2.93,7.07
			c0,2.63,1.07,5.21,2.93,7.07s4.44,2.93,7.07,2.93s5.21-1.07,7.07-2.93c1.859-1.86,2.93-4.44,2.93-7.07
			S287.611,272.781,285.751,270.921z"/>
	</g>
</g>
<g>
</g>
<g>
</g>
<g>
</g>
<g>
</g>
<g>
</g>
<g>
</g>
<g>
</g>
<g>
</g>
<g>
</g>
<g>
</g>
<g>
</g>
<g>
</g>
<g>
</g>
<g>
</g>
<g>
</g>
</svg>
