<?xml version="1.0" encoding="iso-8859-1"?>
<!-- Generator: Adobe Illustrator 19.0.0, SVG Export Plug-In . SVG Version: 6.00 Build 0)  -->
<svg version="1.1" id="Capa_1" xmlns="http://www.w3.org/2000/svg" xmlns:xlink="http://www.w3.org/1999/xlink" x="0px" y="0px"
	 viewBox="0 0 512.001 512.001" style="enable-background:new 0 0 512.001 512.001;" xml:space="preserve">
<g>
	<g>
		<path d="M340.715,0.004c-55.076,0-100.468,42.224-105.524,95.999h-13.561v-86c0-5.523-4.477-10-10-10s-10,4.477-10,10v86h-26.401
			l-10.712-70.686c-0.547-3.613-3.022-6.64-6.455-7.894l-46-16.813c-5.188-1.897-10.93,0.772-12.825,5.959
			c-1.896,5.187,0.772,10.929,5.959,12.825l40.434,14.778l9.369,61.83H118.47c-4.391,0-8.269,2.865-9.559,7.063L89.27,166.982
			c-0.011,0.034-0.021,0.068-0.031,0.102l-9.9,32.215c-15.357,43.567-18.189,90.426-8.187,135.525
			c9.451,42.613,29.943,81.807,59.435,113.814l-19.099,33.445c-3.575,6.262-3.548,13.723,0.072,19.959
			c3.62,6.236,10.086,9.959,17.296,9.959h199.98c7.219,0,13.689-3.73,17.307-9.978c3.618-6.248,3.632-13.716,0.039-19.978
			l-18.667-32.527c29.791-32.018,50.517-71.31,60.119-114.103c9.799-43.675,7.551-89.005-6.463-131.438
			c17.509-7.27,33.073-19.294,44.48-34.548c13.78-18.426,21.063-40.359,21.063-63.427C446.714,47.555,399.163,0.004,340.715,0.004z
			 M328.836,492.001h-199.98l19.906-34.859H308.83L328.836,492.001z M311.693,437.142H147.216
			c-32.36-34.292-52.637-77.647-59.309-123.14h283.128C364.369,359.491,344.077,402.823,311.693,437.142z M373.076,294.002H85.864
			c-1.719-29.559,2.274-59.585,12.401-88.238c0.046-0.131,0.09-0.262,0.13-0.395l7.796-25.367h163.438c5.523,0,10-4.477,10-10
			s-4.477-10-10-10H112.338l13.522-44h207.198l27.463,89.366c0.041,0.133,0.084,0.264,0.131,0.395
			C370.788,234.44,374.788,264.459,373.076,294.002z M291.721,96.003c3.987-19.563,19.431-35.007,38.994-38.994v38.994H291.721z
			 M360.525,105.839l27.468-16.075c1.756,5.096,2.722,10.555,2.722,16.239c0,5.355-0.853,10.561-2.449,15.467L360.525,105.839z
			 M378.399,138.866c-3.902,4.48-8.609,8.284-13.96,11.166l-7.074-23.018L378.399,138.866z M350.715,88.407V57.01
			c10.657,2.172,20.089,7.745,27.115,15.53L350.715,88.407z M375.136,184.841l-4.743-15.433
			c24.39-11.409,40.323-36.023,40.323-63.405c0-38.598-31.402-70-70-70c-35.202,0-64.406,26.123-69.274,60h-16.125
			c4.973-42.724,41.364-76,85.399-76c47.42,0,86,38.58,86,86C426.714,140.707,406.333,171.304,375.136,184.841z"/>
	</g>
</g>
<g>
	<g>
		<path d="M318.701,162.933c-1.86-1.86-4.44-2.93-7.07-2.93c-2.63,0-5.21,1.07-7.07,2.93c-1.87,1.86-2.93,4.44-2.93,7.07
			s1.06,5.21,2.93,7.07c1.86,1.86,4.44,2.93,7.07,2.93c2.63,0,5.21-1.07,7.07-2.93s2.93-4.44,2.93-7.07
			S320.561,164.793,318.701,162.933z"/>
	</g>
</g>
<g>
</g>
<g>
</g>
<g>
</g>
<g>
</g>
<g>
</g>
<g>
</g>
<g>
</g>
<g>
</g>
<g>
</g>
<g>
</g>
<g>
</g>
<g>
</g>
<g>
</g>
<g>
</g>
<g>
</g>
</svg>
