<?xml version="1.0" encoding="iso-8859-1"?>
<!-- Generator: Adobe Illustrator 19.0.0, SVG Export Plug-In . SVG Version: 6.00 Build 0)  -->
<svg version="1.1" id="Capa_1" xmlns="http://www.w3.org/2000/svg" xmlns:xlink="http://www.w3.org/1999/xlink" x="0px" y="0px"
	 viewBox="0 0 512 512" style="enable-background:new 0 0 512 512;" xml:space="preserve">
<g>
	<g>
		<path d="M462.831,107.553c-1.9-2.253-4.697-3.553-7.644-3.553h-34.47c-2.431-13.333-9.554-25.048-19.609-33.344
			c2.161-10.372,11.371-18.188,22.375-18.188c5.523,0,10-4.477,10-10c0-5.523-4.477-10-10-10c-18.503,0-34.302,11.788-40.289,28.247
			c-2.553-0.857-5.187-1.535-7.888-2.021V10c0-5.523-4.477-10-10-10s-10,4.477-10,10v48.693
			c-12.221,2.199-23.084,8.345-31.216,17.077c-3.88-12.328-10.471-23.36-19.587-32.476c-17.911-17.91-43.204-26.098-71.228-23.055
			c-4.668,0.507-8.355,4.193-8.862,8.862c-3.043,28.021,5.145,53.317,23.055,71.228c1.28,1.28,2.611,2.491,3.964,3.671H56.813
			c-2.947,0-5.744,1.3-7.644,3.553s-2.71,5.229-2.213,8.134L110.4,486.438C112.935,501.25,125.681,512,140.708,512h230.584
			c15.027,0,27.773-10.75,30.308-25.563l63.444-370.751C465.541,112.782,464.731,109.806,462.831,107.553z M365.306,77.787
			c20.038,0,36.34,16.302,36.34,36.34c0,20.038-16.302,36.34-36.34,36.34c-20.039,0-36.341-16.302-36.341-36.34
			C328.965,94.089,345.267,77.787,365.306,77.787z M243.8,39.625c18.483-0.141,34.772,6.022,46.562,17.811
			c11.789,11.79,17.975,28.101,17.811,46.562c-18.489,0.147-34.771-6.022-46.561-17.812C249.822,74.397,243.636,58.086,243.8,39.625
			z M157.819,492h-17.11c-5.254,0-9.709-3.758-10.595-8.936l-24.352-142.308c32.515,23.262,52.057,60.644,52.057,101.589V492z
			 M291.647,492h-71.294v-74.187c0-31.643,12.895-61.448,35.647-83.009c22.752,21.561,35.647,51.366,35.647,83.009V492z
			 M381.886,483.064C381,488.242,376.545,492,371.292,492h-16.837v-49.654c0-40.815,19.417-78.089,51.746-101.367L381.886,483.064z
			 M410.712,314.612c-22.376,12.062-41.189,29.765-54.583,51.437c-14.18,22.943-21.674,49.326-21.674,76.297V492h-22.808v-74.187
			c0-40.494-17.975-78.424-49.314-104.066c-3.684-3.014-8.981-3.014-12.665,0c-31.34,25.642-49.314,63.572-49.314,104.066V492
			h-22.535v-49.654c0-26.971-7.495-53.354-21.674-76.297c-13.454-21.768-32.376-39.529-54.883-51.593L79.279,186h179.708
			c5.523,0,10-4.477,10-10s-4.477-10-10-10H75.857l-7.187-42h238.387c0.104,0,0.207,0.007,0.311,0.007
			c0.164,0,0.33-0.006,0.494-0.007h1.988c4.106,23.122,22.353,41.403,45.457,45.561v11.226c0,5.523,4.477,10,10,10s10-4.477,10-10
			v-11.226c23.104-4.158,41.35-22.439,45.456-45.561h22.568L410.712,314.612z"/>
	</g>
</g>
<g>
	<g>
		<path d="M308.72,168.93c-1.86-1.86-4.44-2.93-7.07-2.93c-2.64,0-5.21,1.07-7.07,2.93c-1.87,1.86-2.93,4.44-2.93,7.07
			s1.06,5.21,2.93,7.07c1.86,1.86,4.43,2.93,7.07,2.93c2.63,0,5.21-1.07,7.07-2.93c1.86-1.86,2.93-4.44,2.93-7.07
			S310.58,170.79,308.72,168.93z"/>
	</g>
</g>
<g>
	<g>
		<path d="M225.312,235.593L201.318,211.6c-13.55-13.549-35.596-13.55-49.147,0l-23.993,23.993
			c-13.549,13.55-13.549,35.597,0,49.147l23.994,23.993c6.775,6.774,15.674,10.162,24.573,10.162s17.798-3.388,24.573-10.162
			l23.993-23.993c6.564-6.564,10.179-15.291,10.179-24.573C235.49,250.884,231.875,242.157,225.312,235.593z M211.169,270.598
			l-23.994,23.993c-5.751,5.752-15.111,5.751-20.862,0l-23.993-23.993c-5.752-5.751-5.752-15.11,0-20.862l23.993-23.993
			c2.876-2.876,6.653-4.314,10.432-4.314c3.777,0,7.556,1.438,10.431,4.314l23.994,23.993c2.786,2.786,4.321,6.491,4.321,10.431
			C215.49,264.107,213.956,267.812,211.169,270.598z"/>
	</g>
</g>
<g>
	<g>
		<path d="M385.504,231.962c-0.506-4.669-4.192-8.356-8.861-8.862c-23.701-2.578-45.122,4.372-60.312,19.562
			c-15.189,15.189-22.137,36.608-19.563,60.312c0.507,4.668,4.193,8.355,8.862,8.862c3.235,0.352,6.425,0.525,9.564,0.525
			c19.867,0,37.631-6.971,50.748-20.087C381.131,277.085,388.079,255.666,385.504,231.962z M351.801,278.131
			c-9.046,9.046-21.454,13.96-35.541,14.213c0.253-14.087,5.167-26.495,14.214-35.541c9.047-9.047,21.452-13.961,35.541-14.214
			C365.761,256.678,360.847,269.085,351.801,278.131z"/>
	</g>
</g>
<g>
	<g>
		<path d="M278.57,260.99c-1.86-1.87-4.44-2.93-7.07-2.93s-5.21,1.06-7.07,2.93c-1.86,1.86-2.93,4.43-2.93,7.07
			c0,2.63,1.07,5.21,2.93,7.07c1.86,1.86,4.44,2.93,7.07,2.93s5.21-1.07,7.07-2.93c1.86-1.86,2.93-4.44,2.93-7.07
			C281.5,265.42,280.43,262.85,278.57,260.99z"/>
	</g>
</g>
<g>
	<g>
		<path d="M330.89,334.93c-1.86-1.86-4.43-2.93-7.07-2.93c-2.63,0-5.21,1.07-7.07,2.93c-1.86,1.86-2.93,4.44-2.93,7.07
			s1.07,5.21,2.93,7.07c1.86,1.86,4.44,2.93,7.07,2.93c2.64,0,5.21-1.07,7.07-2.93c1.87-1.86,2.93-4.44,2.93-7.07
			S332.76,336.79,330.89,334.93z"/>
	</g>
</g>
<g>
	<g>
		<path d="M266.06,426.56c-1.86-1.86-4.44-2.92-7.07-2.92c-2.64,0-5.21,1.06-7.07,2.92c-1.87,1.87-2.93,4.44-2.93,7.07
			c0,2.64,1.06,5.22,2.93,7.08c1.86,1.86,4.44,2.92,7.07,2.92s5.21-1.06,7.07-2.92c1.86-1.87,2.93-4.44,2.93-7.08
			C268.99,431,267.92,428.43,266.06,426.56z"/>
	</g>
</g>
<g>
	<g>
		<path d="M190.74,343.26c-1.86-1.86-4.44-2.93-7.07-2.93s-5.21,1.07-7.07,2.93c-1.87,1.86-2.93,4.44-2.93,7.07
			c0,2.64,1.06,5.21,2.93,7.08c1.86,1.86,4.44,2.92,7.07,2.92s5.2-1.06,7.07-2.92c1.86-1.87,2.93-4.44,2.93-7.08
			C193.67,347.7,192.6,345.12,190.74,343.26z"/>
	</g>
</g>
<g>
</g>
<g>
</g>
<g>
</g>
<g>
</g>
<g>
</g>
<g>
</g>
<g>
</g>
<g>
</g>
<g>
</g>
<g>
</g>
<g>
</g>
<g>
</g>
<g>
</g>
<g>
</g>
<g>
</g>
</svg>
