<?xml version="1.0" encoding="iso-8859-1"?>
<!-- Generator: Adobe Illustrator 19.0.0, SVG Export Plug-In . SVG Version: 6.00 Build 0)  -->
<svg version="1.1" id="Capa_1" xmlns="http://www.w3.org/2000/svg" xmlns:xlink="http://www.w3.org/1999/xlink" x="0px" y="0px"
	 viewBox="0 0 512 512" style="enable-background:new 0 0 512 512;" xml:space="preserve">
<g>
	<g>
		<path d="M288.74,56.93c-1.87-1.86-4.44-2.93-7.07-2.93c-2.64,0-5.21,1.07-7.07,2.93c-1.87,1.86-2.93,4.44-2.93,7.07
			s1.06,5.21,2.93,7.07c1.86,1.86,4.43,2.93,7.07,2.93c2.63,0,5.2-1.07,7.07-2.93c1.86-1.86,2.93-4.44,2.93-7.07
			S290.6,58.79,288.74,56.93z"/>
	</g>
</g>
<g>
	<g>
		<path d="M442.289,354.964c-0.053-0.478-0.103-0.955-0.165-1.433l-0.125-0.95c0-0.002-0.001-0.003-0.001-0.004
			c0-0.003-0.001-0.006-0.001-0.009L402.656,62.655C401.983,57.698,397.75,54,392.747,54h-65.08c-5.523,0-10,4.477-10,10
			s4.477,10,10,10h56.345l2.035,14.999c-1.094-1.192-2.211-2.368-3.363-3.519c-3.905-3.905-10.237-3.905-14.142,0L227.121,226.901
			c-1.875,1.875-2.929,4.419-2.929,7.071s1.054,5.196,2.929,7.071c21.445,21.444,49.614,32.167,77.782,32.167
			s56.337-10.722,77.781-32.167c8.268-8.268,15.052-17.623,20.231-27.739l19.261,141.936c0,0,0,0.001,0,0.002l0.004,0.027
			c0.056,0.416,0.1,0.831,0.152,1.247c2.161,17.733-3.362,35.591-15.206,49.057c-12.023,13.671-29.358,21.512-47.56,21.512h-28.278
			l40.29-40.29c6.894-6.894,10.69-16.06,10.69-25.81s-3.797-18.916-10.69-25.81l-43.023-43.023
			c-6.894-6.894-16.06-10.691-25.81-10.691s-18.916,3.796-25.81,10.69l-43.023,43.023c-14.231,14.231-14.231,37.387,0,51.619
			l40.29,40.29H152.433c-18.201,0-35.536-7.841-47.56-21.512c-11.844-13.467-17.367-31.326-15.207-49.051
			c0.052-0.418,0.096-0.835,0.153-1.253l0.004-0.027c0-0.001,0-0.001,0-0.001l2.466-18.173
			c18.321,35.335,55.246,59.536,97.721,59.536c5.523,0,10-4.477,10-10v-200c0-5.523-4.477-10-10-10
			c-31.885,0-60.639,13.641-80.748,35.388L127.988,74h25.678v44c0,5.523,4.477,10,10,10s10-4.477,10-10V74h66
			c5.523,0,10-4.477,10-10s-4.477-10-10-10h-66V10c0-5.523-4.477-10-10-10s-10,4.477-10,10v44h-34.413
			c-5.003,0-9.236,3.698-9.909,8.655L70.003,352.567c0,0.003-0.001,0.006-0.001,0.009c0,0.002-0.001,0.003-0.001,0.004l-0.126,0.958
			c-0.061,0.475-0.111,0.95-0.164,1.425c-4.661,39.417,7.546,79.001,33.708,108.952C130.11,494.474,168.688,512,209.262,512h93.476
			c40.574,0,79.152-17.526,105.844-48.084C434.743,433.965,446.951,394.381,442.289,354.964z M349.5,132.807
			c6.108,8.903,9.403,19.423,9.403,30.455c0,1.689-0.084,3.364-0.236,5.025l-35.212-9.435L349.5,132.807z M353.162,187.517
			c-2.561,5.083-5.933,9.786-10.075,13.928c-4.19,4.189-8.907,7.531-13.934,10.053l-8.78-32.767L353.162,187.517z M300.493,181.813
			L309.921,217c-12.286,1.137-24.883-1.92-35.464-9.152L300.493,181.813z M368.543,226.901
			c-32.7,32.701-84.513,34.927-119.818,6.681l11.415-11.414c13.177,10.028,28.964,15.059,44.764,15.059
			c6.612,0,13.22-0.899,19.641-2.656c0.139-0.031,0.278-0.046,0.416-0.083c0.188-0.05,0.366-0.117,0.549-0.177
			c11.622-3.349,22.581-9.584,31.72-18.723c13.977-13.977,21.674-32.56,21.674-52.326c0-16.392-5.308-31.96-15.086-44.772
			l11.411-11.411c12.75,15.897,19.675,35.509,19.675,56.183C394.903,187.301,385.542,209.902,368.543,226.901z M180.011,339.661
			c-12.596-2.369-23.665-9.114-31.548-18.605l31.548-18.215V339.661z M138.755,303.566c-1.771-5.338-2.744-11.037-2.744-16.962
			s0.973-11.624,2.744-16.962l29.378,16.962L138.755,303.566z M180.011,270.368l-31.548-18.214
			c7.883-9.491,18.952-16.237,31.548-18.606V270.368z M180.011,197.156v16.143c-23.239,3.155-43.073,17.13-54.259,36.678
			c-0.096,0.148-0.199,0.291-0.288,0.445c-0.094,0.163-0.17,0.33-0.254,0.496c-5.855,10.59-9.199,22.753-9.199,35.686
			c0,12.931,3.343,25.093,9.197,35.682c0.084,0.167,0.161,0.336,0.256,0.501c0.068,0.118,0.152,0.22,0.224,0.334
			c11.174,19.606,31.04,33.628,54.323,36.789v16.143c-44.937-4.991-80-43.202-80-89.448
			C100.011,240.359,135.074,202.147,180.011,197.156z M248.056,372.654c-6.434-6.433-6.435-16.901-0.001-23.334l43.023-43.023
			c3.116-3.117,7.26-4.833,11.667-4.833s8.551,1.716,11.667,4.833l43.024,43.023c3.116,3.116,4.833,7.26,4.833,11.667
			s-1.716,8.551-4.833,11.667l-43.023,43.023c-6.433,6.433-16.901,6.434-23.334,0L248.056,372.654z M393.519,450.759
			C370.626,476.968,337.538,492,302.738,492h-93.476c-34.8,0-67.888-15.032-90.781-41.241c-4.995-5.719-9.397-11.847-13.179-18.291
			c13.749,9.428,30.151,14.619,47.13,14.619h207.134c16.979,0,33.382-5.191,47.13-14.619
			C402.915,438.912,398.513,445.04,393.519,450.759z"/>
	</g>
</g>
<g>
	<g>
		<path d="M379.34,284.39c-1.86-1.86-4.44-2.93-7.07-2.93s-5.21,1.07-7.07,2.93s-2.93,4.44-2.93,7.07c0,2.64,1.07,5.21,2.93,7.07
			c1.86,1.87,4.44,2.93,7.07,2.93s5.21-1.06,7.07-2.93c1.86-1.86,2.93-4.43,2.93-7.07C382.27,288.83,381.2,286.25,379.34,284.39z"/>
	</g>
</g>
<g>
	<g>
		<path d="M295.4,105.93c-1.86-1.86-4.43-2.93-7.07-2.93c-2.63,0-5.21,1.07-7.07,2.93s-2.93,4.44-2.93,7.07s1.07,5.21,2.93,7.07
			s4.44,2.93,7.07,2.93c2.64,0,5.21-1.07,7.07-2.93c1.87-1.86,2.93-4.44,2.93-7.07S297.27,107.79,295.4,105.93z"/>
	</g>
</g>
<g>
	<g>
		<path d="M240.29,150.01c-1.86-1.86-4.44-2.93-7.07-2.93s-5.21,1.07-7.07,2.93c-1.86,1.86-2.93,4.44-2.93,7.07
			c0,2.64,1.07,5.21,2.93,7.07c1.86,1.87,4.44,2.93,7.07,2.93s5.21-1.06,7.07-2.93c1.86-1.86,2.93-4.43,2.93-7.07
			C243.22,154.45,242.15,151.87,240.29,150.01z"/>
	</g>
</g>
<g>
	<g>
		<path d="M226.07,96.6c-1.86-1.87-4.44-2.93-7.07-2.93s-5.21,1.06-7.07,2.93c-1.86,1.86-2.93,4.43-2.93,7.07
			c0,2.63,1.07,5.21,2.93,7.07s4.44,2.93,7.07,2.93s5.21-1.07,7.07-2.93c1.86-1.87,2.93-4.44,2.93-7.07
			C229,101.03,227.93,98.46,226.07,96.6z"/>
	</g>
</g>
<g>
	<g>
		<path d="M220.59,396.3c-1.86-1.87-4.43-2.93-7.07-2.93c-2.63,0-5.21,1.06-7.07,2.93c-1.86,1.86-2.93,4.43-2.93,7.07
			c0,2.63,1.07,5.21,2.93,7.07c1.87,1.86,4.44,2.93,7.07,2.93s5.21-1.07,7.07-2.93c1.87-1.87,2.93-4.44,2.93-7.07
			C223.52,400.73,222.46,398.16,220.59,396.3z"/>
	</g>
</g>
<g>
	<g>
		<path d="M170.74,149.1c-1.86-1.87-4.44-2.93-7.07-2.93c-2.64,0-5.21,1.06-7.08,2.93c-1.86,1.86-2.92,4.43-2.92,7.07
			c0,2.63,1.06,5.21,2.92,7.07c1.87,1.86,4.44,2.93,7.08,2.93c2.63,0,5.21-1.07,7.07-2.93c1.86-1.86,2.93-4.44,2.93-7.07
			S172.6,150.96,170.74,149.1z"/>
	</g>
</g>
<g>
</g>
<g>
</g>
<g>
</g>
<g>
</g>
<g>
</g>
<g>
</g>
<g>
</g>
<g>
</g>
<g>
</g>
<g>
</g>
<g>
</g>
<g>
</g>
<g>
</g>
<g>
</g>
<g>
</g>
</svg>
