<?xml version="1.0" encoding="iso-8859-1"?>
<!-- Generator: Adobe Illustrator 19.0.0, SVG Export Plug-In . SVG Version: 6.00 Build 0)  -->
<svg version="1.1" id="Capa_1" xmlns="http://www.w3.org/2000/svg" xmlns:xlink="http://www.w3.org/1999/xlink" x="0px" y="0px"
	 viewBox="0 0 512.001 512.001" style="enable-background:new 0 0 512.001 512.001;" xml:space="preserve">
<g>
	<g>
		<path d="M296.048,155.937c-1.86-1.86-4.43-2.93-7.07-2.93c-2.63,0-5.21,1.07-7.07,2.93c-1.86,1.86-2.93,4.44-2.93,7.07
			s1.07,5.21,2.93,7.07c1.86,1.859,4.44,2.93,7.07,2.93c2.64,0,5.21-1.07,7.07-2.93c1.87-1.86,2.93-4.44,2.93-7.07
			S297.918,157.797,296.048,155.937z"/>
	</g>
</g>
<g>
	<g>
		<path d="M503.376,67.249c-2.149-5.088-8.014-7.469-13.102-5.321c-5.088,2.148-7.469,8.014-5.321,13.102
			c4.677,11.074,7.049,22.843,7.049,34.98c0,49.623-40.371,89.994-89.994,89.994c-17.218,0-33.685-4.779-48.036-13.877
			l55.814-69.876c2.398-3.002,2.864-7.114,1.198-10.576c-1.666-3.462-5.168-5.665-9.01-5.665h-53.017
			c4.705-25.01,26.696-43.997,53.053-43.997c29.774,0,53.996,24.222,53.996,53.996c0,29.774-24.222,53.996-53.996,53.996
			c-5.523,0-9.999,4.477-9.999,9.999c0,5.523,4.477,9.999,9.999,9.999c40.801,0,73.995-33.194,73.995-73.995
			s-33.194-73.995-73.995-73.995c-37.409,0-68.401,27.909-73.301,63.996h-16.135c4.991-44.934,43.193-79.995,89.435-79.995
			c13.675,0,26.803,2.985,39.018,8.873c4.978,2.398,10.952,0.309,13.349-4.667c2.398-4.975,0.309-10.951-4.667-13.349
			C434.763,3.67,418.714,0.018,402.008,0.018c-57.279,0-104.464,44.012-109.534,99.993H149.359c-0.179,0-0.354,0.017-0.531,0.027
			L93.4,24.119c-1.883-2.579-4.884-4.104-8.076-4.104H9.999C4.477,20.016,0,24.492,0,30.015v39.997c0,5.523,4.477,9.999,9.999,9.999
			h49.923l14.601,19.999H17.999c-3.844,0-7.348,2.204-9.012,5.668c-1.665,3.464-1.197,7.576,1.205,10.578l120.125,150.141
			c0.002,0.002,0.003,0.005,0.005,0.007c0.006,0.008,0.013,0.015,0.019,0.023l49.648,62.055V458.09l-51.85,21.695
			c-7.452,3.118-11.545,10.827-9.955,18.747c1.59,7.919,8.342,13.451,16.42,13.451h150.716c8.079,0,14.832-5.533,16.42-13.455
			s-2.509-15.631-9.965-18.746l-51.788-21.635V328.833l49.902-62.474c0.005-0.006,0.01-0.013,0.016-0.019
			c0.001-0.002,0.003-0.004,0.004-0.005l51.535-64.52c17.979,11.906,38.779,18.187,60.568,18.187
			c60.65,0,109.992-49.343,109.992-109.992C512,95.185,509.098,80.8,503.376,67.249z M65.254,153.068L38.804,120.01h49.69
			c0.205,0,0.406-0.018,0.608-0.031l24.114,33.029H66.332C65.967,153.008,65.609,153.03,65.254,153.068z M269.1,491.984H150.795
			l43.052-18.014c3.719-1.556,6.14-5.193,6.14-9.224V325.192c0.001-0.073,0.002-0.145,0.002-0.214c0-2.271-0.773-4.474-2.191-6.247
			l-13.899-17.372c8.435,2.222,17.222,3.381,26.186,3.381c0.013,0,0.028,0,0.042,0c8.978-0.004,17.778-1.17,26.225-3.402
			l-14.18,17.753c-1.416,1.772-2.187,3.973-2.187,6.241v139.476c0,4.034,2.423,7.672,6.146,9.226L269.1,491.984z M274.268,253.868
			c-15.668,19.611-39.049,30.863-64.15,30.873c-0.012,0-0.021,0-0.034,0c-25.09,0-48.472-11.236-64.148-30.83
			c-0.001-0.001-0.001-0.001-0.002-0.002l-64.729-80.904h46.612l61.324,83.992c1.958,2.682,5,4.104,8.084,4.104
			c2.045,0,4.11-0.625,5.888-1.924c4.46-3.257,5.437-9.512,2.18-13.972L73.078,64.117c-1.882-2.579-4.883-4.103-8.075-4.103H19.999
			V40.015h60.245l146.818,201.09c3.258,4.461,9.513,5.437,13.972,2.18c4.461-3.257,5.437-9.512,2.18-13.972l-41.11-56.307h47.38
			c5.523,0,9.999-4.477,9.999-9.999c0-5.523-4.477-9.999-9.999-9.999H188.99c-0.479,0-0.947,0.045-1.408,0.11L163.41,120.01h217.778
			L274.268,253.868z"/>
	</g>
</g>
<g>
	<g>
		<circle cx="474.918" cy="41.579" r="9.999"/>
	</g>
</g>
<g>
</g>
<g>
</g>
<g>
</g>
<g>
</g>
<g>
</g>
<g>
</g>
<g>
</g>
<g>
</g>
<g>
</g>
<g>
</g>
<g>
</g>
<g>
</g>
<g>
</g>
<g>
</g>
<g>
</g>
</svg>
