<?xml version="1.0" encoding="iso-8859-1"?>
<!-- Generator: Adobe Illustrator 19.0.0, SVG Export Plug-In . SVG Version: 6.00 Build 0)  -->
<svg version="1.1" id="Capa_1" xmlns="http://www.w3.org/2000/svg" xmlns:xlink="http://www.w3.org/1999/xlink" x="0px" y="0px"
	 viewBox="0 0 511.999 511.999" style="enable-background:new 0 0 511.999 511.999;" xml:space="preserve">
<g>
	<g>
		<path d="M456.26,83.443h-25.033c-5.53,0-10.013,4.483-10.013,10.013c0,5.53,4.483,10.013,10.013,10.013h15.02v286.393
			c0,16.564-13.476,30.039-30.039,30.039H330.79c2.528-4.965,3.964-10.578,3.964-16.521v-61.046
			c0-20.152-16.395-36.547-36.547-36.547H282.87l4.705-8.424c7.072,2.783,14.538,4.203,22.078,4.202
			c5.288,0,10.614-0.696,15.86-2.102c15.71-4.209,28.841-14.286,36.974-28.371c8.133-14.086,10.292-30.496,6.083-46.206
			c-1.137-4.247-2.719-8.297-4.677-12.119c4.291-0.214,8.591-0.879,12.839-2.018c15.71-4.211,28.841-14.286,36.974-28.371
			c8.133-14.086,10.293-30.496,6.083-46.206c-3.691-13.773-11.891-25.563-23.348-33.741l48.412-87.572
			c2.675-4.839,0.921-10.932-3.918-13.608s-10.931-0.921-13.608,3.918l-48.883,88.423c-10.719-3.232-22.149-3.447-33.232-0.478
			c-15.71,4.209-28.841,14.286-36.974,28.371c-8.133,14.086-10.293,30.496-6.083,46.206c1.138,4.25,2.721,8.303,4.681,12.127
			c-4.293,0.214-8.593,0.871-12.843,2.01c-15.71,4.209-28.842,14.286-36.975,28.371c-8.133,14.086-10.292,30.496-6.083,46.206
			c3.254,12.147,10.028,22.74,19.439,30.685l-10.443,18.695h-13.446c5.152-13.126,2.439-28.65-8.152-39.241l-43.08-43.08
			c-14.25-14.249-37.436-14.249-51.686,0l-43.079,43.079c-6.903,6.903-10.704,16.081-10.704,25.844
			c0,9.763,3.802,18.941,10.704,25.844l43.079,43.079c6.903,6.903,16.081,10.705,25.844,10.705c9.763,0,18.941-3.801,25.844-10.704
			l5.359-5.359v47.429c0,5.944,1.436,11.556,3.964,16.521H95.792c-16.564,0-30.039-13.475-30.039-30.039V174.143H209.94
			c5.53,0,10.013-4.483,10.013-10.013c0-5.53-4.483-10.013-10.013-10.013H65.753v-50.649h219.953c5.53,0,10.013-4.483,10.013-10.013
			c0-5.53-4.483-10.013-10.013-10.013H55.74c-5.53,0-10.013,4.483-10.013,10.013v368.479c0,27.606,22.459,50.065,50.065,50.065
			h320.416c27.606,0,50.065-22.459,50.065-50.065V93.456C466.273,87.925,461.79,83.443,456.26,83.443z M325.579,131.499
			c5.458-9.453,14.271-16.215,24.814-19.041c3.521-0.943,7.093-1.41,10.644-1.41c7.08,0,14.069,1.856,20.365,5.492
			c9.453,5.458,16.215,14.271,19.041,24.814c2.826,10.544,1.376,21.556-4.082,31.01c-5.458,9.453-14.271,16.215-24.814,19.041
			c-10.543,2.825-21.557,1.376-31.009-4.083c-9.453-5.458-16.215-14.271-19.041-24.814
			C318.672,151.965,320.122,140.952,325.579,131.499z M270.277,251.223c-2.825-10.545-1.375-21.557,4.083-31.01
			c5.458-9.453,14.271-16.215,24.814-19.041c3.521-0.943,7.093-1.41,10.644-1.41c7.08,0,14.069,1.856,20.365,5.492
			c9.453,5.458,16.215,14.271,19.041,24.814c2.825,10.544,1.376,21.556-4.082,31.01c-5.458,9.453-14.271,16.215-24.814,19.041
			c-10.543,2.826-21.556,1.376-31.01-4.082C279.865,270.58,273.103,261.767,270.277,251.223z M265.765,325.811
			c0.01,0,0.021,0.002,0.031,0.002c0.01,0,0.02-0.002,0.03-0.002h32.379c9.11,0,16.521,7.412,16.521,16.521v61.046
			c0,9.11-7.412,16.521-16.521,16.521h-61.046c-9.11,0-16.521-7.412-16.521-16.521v-61.046c0-3.42,1.045-6.601,2.832-9.24l4.45-4.45
			c2.639-1.787,5.82-2.832,9.24-2.832H265.765z M181.092,347.149c-3.12,3.121-7.269,4.839-11.682,4.839s-8.562-1.718-11.682-4.839
			l-43.08-43.08c-3.12-3.12-4.839-7.269-4.839-11.682s1.718-8.562,4.839-11.682l43.079-43.079c3.22-3.221,7.451-4.831,11.682-4.831
			c4.231,0,8.462,1.61,11.682,4.831l43.079,43.079c6.441,6.442,6.442,16.923,0,23.364l-9.431,9.431
			c-2.393,1.865-4.548,4.02-6.413,6.413L181.092,347.149z M446.247,461.934c0,16.564-13.476,30.039-30.039,30.039H95.792
			c-16.564,0-30.039-13.476-30.039-30.039v-32.048c8.374,6.3,18.777,10.04,30.039,10.04H237.16h61.046h118.001
			c11.262,0,21.665-3.74,30.039-10.04V461.934z"/>
	</g>
</g>
<g>
	<g>
		<path d="M258.402,157.048c-1.862-1.862-4.436-2.934-7.079-2.934c-2.633,0-5.217,1.071-7.079,2.934s-2.934,4.446-2.934,7.079
			c0,2.643,1.071,5.217,2.934,7.079c1.872,1.872,4.446,2.934,7.079,2.934s5.217-1.061,7.079-2.934
			c1.872-1.862,2.934-4.436,2.934-7.079C261.336,161.494,260.274,158.911,258.402,157.048z"/>
	</g>
</g>
<g>
	<g>
		<path d="M406.836,344.782c-1.862-1.862-4.436-2.934-7.079-2.934c-2.633,0-5.217,1.071-7.079,2.934
			c-1.862,1.862-2.934,4.446-2.934,7.079c0,2.643,1.071,5.217,2.934,7.079c1.862,1.872,4.446,2.934,7.079,2.934
			c2.643,0,5.217-1.061,7.079-2.934c1.872-1.862,2.934-4.436,2.934-7.079C409.769,349.228,408.708,346.644,406.836,344.782z"/>
	</g>
</g>
<g>
	<g>
		<path d="M116.889,376.753c-1.862-1.862-4.446-2.934-7.079-2.934s-5.217,1.071-7.079,2.934c-1.862,1.862-2.934,4.446-2.934,7.079
			s1.071,5.217,2.934,7.079s4.446,2.934,7.079,2.934s5.217-1.071,7.079-2.934c1.862-1.862,2.934-4.446,2.934-7.079
			S118.751,378.616,116.889,376.753z"/>
	</g>
</g>
<g>
</g>
<g>
</g>
<g>
</g>
<g>
</g>
<g>
</g>
<g>
</g>
<g>
</g>
<g>
</g>
<g>
</g>
<g>
</g>
<g>
</g>
<g>
</g>
<g>
</g>
<g>
</g>
<g>
</g>
</svg>
