<svg id="Layer_1" enable-background="new 0 0 511.4 511.4" height="512" viewBox="0 0 511.4 511.4" width="512" xmlns="http://www.w3.org/2000/svg"><path d="m356.728 281.986v-4.471l140.321-168.487v-30.429h-295.521c-21.073-112.985-184-100.807-187.173 15.001-.66 74.45 85.22 120.233 146.534 78.286l87.97 105.629c-1.747 25.878 14.829 49.496 38.934 56.283v147.602h-75.851v30h181.702v-30h-75.851v-147.602c22.465-6.513 38.935-27.276 38.935-51.812zm69.004-134.205h-245.876l-32.632-39.182h311.14zm-317.194 10.001c-35.391 0-64.183-28.792-64.183-64.183 1.814-76.139 107.54-87.871 126.596-15h-62.412v30.429l32.995 39.619c-9.888 5.95-21.235 9.135-32.996 9.135zm170.322 124.204v-15.328l-74.019-88.877h195.907l-74.02 88.877v15.328c-1.203 31.711-46.672 31.697-47.868 0z"/></svg>