<svg id="Layer_1" enable-background="new 0 0 512.206 512.206" height="512" viewBox="0 0 512.206 512.206" width="512" xmlns="http://www.w3.org/2000/svg"><g><path d="m216.898 225.311h-86.726v86.726h86.726zm-30 56.727h-26.726v-26.726h26.726z"/><path d="m260.819 375.237h86.726v-86.726h-86.726zm30-56.726h26.726v26.726h-26.726z"/><path d="m137.545 339.745h30v30.001h-30z"/><path d="m190.211 362.409h30v30.002h-30z"/><path d="m300.598 218.736h30v30.002h-30z"/><path d="m403.31.208c-16.964 0-32.245 7.342-42.833 19.014-22.444-24.812-49.578-18.158-79.491-19.014v40.817c0 10.083 2.594 19.571 7.149 27.833h-99.6v-68.651h-30v68.651h-86.296v443.347h333.24v-418.269c20.295-8.989 34.488-29.323 34.488-52.91v-40.818zm-92.324 40.817v-10.817h6.657c15.347 0 27.833 12.486 27.833 27.833v10.817h-6.657c-15.346 0-27.833-12.486-27.833-27.833zm64.492 57.833v62.871h-186.943v-62.871zm-216.943 0v62.871h-56.296v-62.871zm-56.296 383.347v-40.896c10.945 7.447 24.153 11.803 38.359 11.803h196.521c14.207 0 27.415-4.356 38.359-11.803v40.896zm234.88-59.092h-196.521c-21.151 0-38.359-17.208-38.359-38.359v-193.025h273.24v193.024c-.001 21.152-17.209 38.36-38.36 38.36zm72.848-382.088c0 15.347-12.486 27.833-27.833 27.833h-6.657v-10.817c0-15.347 12.486-27.833 27.833-27.833h6.657z"/></g></svg>