<svg id="Layer_1" enable-background="new 0 0 511.989 511.989" height="512" viewBox="0 0 511.989 511.989" width="512" xmlns="http://www.w3.org/2000/svg"><g><path d="m381.128 103.946-4.024-19.91 14.006-84.036h-349.024v30h30.491l9.006 54.036-59.431 294.035 72.356 133.918h269.67l72.356-133.918-16.156-79.934c39.579-8.039 69.46-43.107 69.46-85.023v-109.168zm-135.076 41.934v28.363h-152.096l15.148-74.946h240.477l15.148 74.946h-31.951v-28.363zm56.727 30v26.726h-26.726v-26.726zm52.917-145.88-6.55 39.297h-239.606l-6.55-39.297zm-9.408 451.989h-233.89l-58.689-108.622 34.183-169.123h158.16v28.363h86.726v-28.363h38.015l34.184 169.123zm113.55-268.875c0 27.409-19.529 50.342-45.404 55.615l-27.242-134.782h72.646z"/><path d="m260.753 315.737-100.442 100.442s10.606 10.606 10.606 10.606c26.438 27.551 74.006 27.554 100.443 0 27.552-26.435 27.554-74.007-.001-100.443.001.001-10.606-10.605-10.606-10.605zm-10.607 89.836c-11.543 11.868-30.384 15.337-45.417 8.615l54.033-54.033c6.721 15.036 3.253 33.872-8.616 45.418z"/><path d="m203.446 233.686h-86.726v86.726h86.726zm-30 56.726h-26.726v-26.726h26.726z"/><path d="m96.719 354.767h30v30.002h-30z"/><path d="m320.779 384.769h30v30.002h-30z"/></g></svg>