<svg id="Layer_1" enable-background="new 0 0 512.002 512.002" height="512" viewBox="0 0 512.002 512.002" width="512" xmlns="http://www.w3.org/2000/svg"><path d="m271.001 137.31v-26.903h15.002c24.814 0 45.002-20.188 45.002-45.002-2.262-59.618-87.75-59.605-90.004.001 0-.001 0 15.001 0 15.001h-12.402c-8.272 0-15.002-6.73-15.002-15.002v-65.405h-30v65.405c0 24.814 20.188 45.002 45.002 45.002h12.402v26.903h-111.127v108.501l24.213 131.43v134.761h203.828v-134.76l24.213-131.43v-108.502zm0-71.905c.754-19.874 29.253-19.87 30.004 0 0 8.272-6.73 15.002-15.002 15.002h-15.002zm81.127 101.905v34.129h-81.127v-34.129zm-111.127 0v34.129h-81.127v-34.129zm-56.914 314.692v-30.007c5.987 2.576 12.579 4.004 19.499 4.004h104.83c6.92 0 13.512-1.428 19.499-4.004v30.007zm124.329-56.003h-104.83c-10.752 0-19.499-8.748-19.499-19.5v-31.998l-24.213-131.43v-11.632h192.254v11.632l-24.213 131.43v31.999c0 10.752-8.747 19.499-19.499 19.499z"/></svg>