<svg id="Layer_1" enable-background="new 0 0 511.546 511.546" height="512" viewBox="0 0 511.546 511.546" width="512" xmlns="http://www.w3.org/2000/svg"><g><path d="m462.858 74.522c-2.314-90.421-128.591-102.29-148.412-15h-265.578c-1.11 27.965 2.706 54.232 17.524 78.45 55.64 90.426 87.053 193.634 105.688 297.669l-25.303 75.907h143.211l-25.303-75.907c18.646-104.07 50.039-207.215 105.691-297.668 8.881-14.856 14.519-31.374 16.607-48.45h75.875zm-274.458 407.024 10.001-30.003h39.963l10.001 30.003zm58.941-109.743-10.363 49.74h-37.191c-16.651-90.666-42.858-180.972-86.845-262.017h210.88c-35.336 66.8-61.011 138.023-76.481 212.277zm97.285-249.228c-1.382 2.311-2.751 4.628-4.109 6.951h-244.269c-7.762-12.262-14.051-25.599-16.17-40.004h276.61c-1.89 11.636-5.967 22.861-12.062 33.053zm.886-63.053c14.174-39.707 70.615-39.684 84.773 0z"/><path d="m166.381 185.608h30v30.002h-30z"/><path d="m203.383 236.94h30v30.002h-30z"/></g></svg>