<svg id="Layer_1" enable-background="new 0 0 511.998 511.998" height="512" viewBox="0 0 511.998 511.998" width="512" xmlns="http://www.w3.org/2000/svg"><g><path d="m335.38.01c-36.199 0-66.489 25.792-73.456 59.964h-63.484v-59.974h-30v59.974h-66.295v452.024h233.234v-362.06c99.324-3.769 99.274-146.181.001-149.928zm-30.001 89.964v59.965h-106.939v-59.965zm-136.939 0v59.965h-36.295v-59.965zm-36.295 392.024v-37.896c10.945 7.447 24.153 11.803 38.359 11.803h96.515c14.207 0 27.415-4.357 38.359-11.803v37.896zm134.874-56.093h-96.515c-21.151 0-38.359-17.208-38.359-38.359v-207.607h173.234v207.606c0 21.152-17.208 38.36-38.36 38.36zm68.361-305.967-.001-59.964h-42.39c17.388-46.93 86.398-35.67 87.354 15.001 0 24.792-20.17 44.963-44.963 44.963z"/><path d="m244.959 205.103h-82.81v82.81h82.81zm-30 52.81h-22.81v-22.81h22.81z"/><path d="m192.565 400.727h82.81v-82.81h-82.81zm30-52.81h22.81v22.81h-22.81z"/></g></svg>