<svg id="Layer_1" enable-background="new 0 0 511.987 511.987" height="512" viewBox="0 0 511.987 511.987" width="512" xmlns="http://www.w3.org/2000/svg"><g><path d="m345.654 391.743c55.194-43.811 76.359-117.768 54.84-184.58-18.891-66.867-23.378-137.885-21.839-207.163h-245.037c1.779 72.597-3.713 146.665-24.358 216.482-26.293 90.175 35.977 196.414 131.887 205.858v59.647h-74.631v30h179.262v-30h-74.631v-59.649c27.105-2.88 53.118-13.491 74.507-30.595zm-182.036-361.743h185.037c-.277 29.682.932 59.575 4.442 89.007h-54.891c-4.149-11.6-12.966-21-24.178-25.921 3.107-4.67 8.417-7.754 14.434-7.754v-30c-22.246 0-40.959 15.433-45.993 36.151-13.206 4.254-23.747 14.502-28.403 27.523h-54.891c3.51-29.427 4.72-59.328 4.443-89.006zm107.18 104.007c0 8.084-6.577 14.662-14.662 14.662-19.425-.737-19.419-28.59 0-29.324 8.085 0 14.662 6.578 14.662 14.662zm-132.574 90.296c6.895-24.761 12.681-49.955 16.761-75.295h59.081c14.131 39.314 70.025 39.29 84.14 0h59.081c3.62 22.201 8.372 44.224 14.245 65.977 28.13 79.35-27.141 178.172-115.397 178.151-83.419.569-140.638-91.971-117.911-168.833z"/><path d="m181.129 220.095h30v30.001h-30z"/><path d="m201.131 285.099h30v30.002h-30z"/><path d="m308.129 240.998h30v30.002h-30z"/></g></svg>