<svg id="Layer_1" enable-background="new 0 0 512.052 512.052" height="512" viewBox="0 0 512.052 512.052" width="512" xmlns="http://www.w3.org/2000/svg"><g><path d="m512.051 75.246-75.244-75.246-46.313 46.314-31.859-31.86-117.192 55.917-18.229-18.229-21.213 21.213 16.352 16.352-218.353 280.104 142.241 142.241 280.103-218.353 16.353 16.353 21.213-21.213-18.229-18.229 55.917-117.191-31.86-31.86zm-75.244-32.819 32.818 32.819-25.1 25.1-32.819-32.819zm-292.099 429.664-104.747-104.746 199.767-256.262 161.241 161.241zm274.47-223.985-155.232-155.232 88.47-42.212 108.976 108.976z"/><path d="m406.632 445.621c-17.864 17.864-41.604 28.194-66.849 29.086l1.061 29.981c66.212-1.127 123.726-58.641 124.855-124.852l-29.98-1.062c-.894 25.245-11.223 48.984-29.087 66.847z"/><path d="m407.289 376.668-29.98-1.062c-.368 21.577-19.114 40.323-40.691 40.689l1.061 29.981c36.914-.627 68.98-32.693 69.61-69.608z"/><path d="m66.431 105.42c17.863-17.863 41.603-28.193 66.846-29.086l-1.062-29.981c-66.212 1.128-123.724 58.645-124.852 124.855l29.981 1.061c.893-25.245 11.223-48.985 29.087-66.849z"/><path d="m65.774 174.375 29.981 1.062c.367-21.579 19.111-40.323 40.689-40.691l-1.062-29.981c-36.914.628-68.978 32.694-69.608 69.61z"/></g></svg>