<svg id="Layer_1" enable-background="new 0 0 511.99 511.99" height="512" viewBox="0 0 511.99 511.99" width="512" xmlns="http://www.w3.org/2000/svg"><path d="m52.741 79.537v30.558l188.254 219.097v152.798h-75.851v30h181.701v-30h-75.851v-152.798l188.254-219.097v-30.558h-130.491l37.261-64.537-25.98-15-45.921 79.537zm163.819 116.984c16.528 31.428 62.187 31.511 78.874 0h50.003l-89.442 104.096-89.442-104.096zm69.617-86.984c10.819.182 17.782 12.707 12.173 21.99-6.443 11.227-23.556 9.013-26.86-3.537-2.613-8.801 4.541-18.371 13.698-18.453zm-42.884 58.704c3.826-6.881 13.258-9.464 20.029-5.367 12.894 7.558 7.566 27.286-7.36 27.365-10.959.242-18.414-12.604-12.669-21.998zm127.921-1.72h-71.347c22.996-7.244 36.418-34.212 27.977-56.984h92.333zm-127.762-56.984c-2.649 7.574-3.195 15.702-1.545 23.666-14.684 4.685-26.71 18.056-29.655 33.318h-71.476l-48.962-56.984z"/></svg>