<svg id="Layer_1" enable-background="new 0 0 512.01 512.01" height="512" viewBox="0 0 512.01 512.01" width="512" xmlns="http://www.w3.org/2000/svg"><g><path d="m428.844 124.342-38.534-124.342h-268.612l-38.534 124.337c-26.468 79.406 23.103 171.555 103.95 193.226-.002.001 23.683 6.893 23.683 6.893 17.793 5.178 30.22 21.735 30.22 40.265v117.289h-76.407v30h182.813v-30h-76.406v-117.288c-.001-18.53 12.425-35.088 30.217-40.267 0 0 23.667-6.888 23.667-6.888 80.84-21.67 130.414-113.828 103.943-193.225zm-285.036-94.342h224.392l22.784 73.523h-34.345c-13.665-35.316-64.054-35.295-77.705 0h-157.911zm185.625 88.523c0 6.422-5.225 11.646-11.646 11.646-15.43-.585-15.425-22.709 0-23.292 6.421-.001 11.646 5.224 11.646 11.646zm61.528 110.012c-15.86 29.483-42.298 50.873-74.443 60.228-24.311 6.945-44.418 10.841-60.502 32.14-16.11-21.324-36.207-25.191-60.522-32.143-64.959-17.412-104.873-91.391-83.767-155.236h167.207c13.665 35.316 64.054 35.294 77.705 0h43.641c9.798 31.889 6.492 65.619-9.319 95.011z"/><path d="m196.269 165.616c-25.198 24.181-25.201 67.684.001 91.863 24.176 25.198 67.685 25.2 91.862-.001 0 .001 10.606-10.606 10.606-10.606l-91.862-91.863zm12.983 34.196 44.683 44.683c-27.601 9.861-54.543-17.095-44.683-44.683z"/></g></svg>