<svg id="Layer_1" enable-background="new 0 0 512.28 512.28" height="512" viewBox="0 0 512.28 512.28" width="512" xmlns="http://www.w3.org/2000/svg"><g><path d="m499.862 231.537-40.072-101.423h-38.852l17.766-38.1c5.939-12.737 18.858-20.968 32.911-20.968h16.848v-30h-16.848c-25.662 0-49.253 15.029-60.101 38.289l-23.678 50.778h-335.344s-40.074 101.423-40.074 101.423c-36.229 86.459 9.961 193.61 97.696 226.629-.002.001 32.665 13.068 32.665 13.068h226.724l32.667-13.067c87.732-33.019 133.922-140.174 97.692-226.629zm-60.477-71.423 15.148 38.338c-15.369-3.893-31.546-2.833-46.474 3.181-7.03 2.831-14.52 3.835-21.877 3.013l20.766-44.532zm-65.538 0-17.156 36.792c-12.957-1.849-26.232-.273-38.645 4.727-10.897 4.39-22.9 4.389-33.798.001-18.125-7.303-38.091-7.304-56.215-.001-10.898 4.39-22.901 4.389-33.798.001-18.125-7.301-38.09-7.302-56.215-.001-30.965 11.93-40.402-13.249-80.272-3.181l15.148-38.337h300.951zm-.754 72.602c15.28 3.803 31.344 2.717 46.175-3.257 10.899-4.39 22.902-4.389 33.798.001l16.316 6.572c33.998 73.426-2.569 165.325-78.357 194.28.001.001-27.3 10.921-27.3 10.921h-215.169s-27.302-10.921-27.302-10.921c-75.793-28.959-112.352-120.86-78.355-194.28 17.587-7.207 30.978-14.257 50.114-6.571 18.125 7.3 38.089 7.299 56.216-.001 10.896-4.389 22.9-4.39 33.797.001 18.126 7.301 38.09 7.3 56.216-.001 10.896-4.389 22.899-4.39 33.798.001 18.125 7.301 38.09 7.3 56.215-.001 4.446-1.791 9.076-2.85 13.739-3.18l-42.449 91.033-113.092-52.736-9.422 20.205c-24.181 50.294 14.418 110.751 70.133 110.093 29.958.001 57.492-17.537 70.148-44.678zm-85.805 111.516c-31.368 43.634-98.025 12.202-84.758-39.523z"/><path d="m67.473 279.509h30v30.002h-30z"/><path d="m107.475 329.513h30v30.002h-30z"/><path d="m336.806 379.875h30v30.002h-30z"/><path d="m404.806 331.626h30v30.002h-30z"/><path d="m384.805 261.621h30v30.002h-30z"/></g></svg>