<svg id="Layer_1" enable-background="new 0 0 511.996 511.996" height="512" viewBox="0 0 511.996 511.996" width="512" xmlns="http://www.w3.org/2000/svg"><path d="m385.755 0c-61.041 0-110.967 48.508-113.254 109h-259.599v42.703c-.187 93.476 78.143 168.72 171.426 165.568v86.565c0 43.097-35.062 78.159-78.159 78.159v30h186.318v-30c-43.097 0-78.159-35.062-78.159-78.159v-86.565c66.535 2.216 126.337-35.669 154.127-91.92 67.745 10.991 131.232-43.313 130.636-112.016 0-62.492-50.843-113.335-113.336-113.335zm-167.959 481.996h-36.938c7.166-6.851 13.392-14.67 18.469-23.252 5.078 8.582 11.303 16.402 18.469 23.252zm-174.894-342.996h312.853c.117 12.147.118 25.979-2.306 37.677h-308.241c-2.423-11.677-2.425-25.551-2.306-37.677zm320.602-30c5.804-26.579 44.208-23.111 44.917 4.336 0 12.498-10.169 22.666-22.667 22.666v-27.002zm-143.318 178.271h-41.716c-55.194 0-102.79-33.155-123.918-80.595h289.552c-21.128 47.441-68.724 80.595-123.918 80.595zm165.569-90.599c-2.053 0-4.102-.075-6.143-.225 2.758-9.814 4.632-19.994 5.53-30.449 29.25.359 53.3-23.409 53.279-52.662-2.1-67.146-97.705-70.773-105.156-4.336h-30.734c9.267-107.203 162.762-103.473 166.56 4.337 0 45.95-37.385 83.335-83.336 83.335z"/></svg>