<svg id="Layer_1" enable-background="new 0 0 511.99 511.99" height="512" viewBox="0 0 511.99 511.99" width="512" xmlns="http://www.w3.org/2000/svg"><g><path d="m383.324 30h66.405v-30h-66.405c-24.814 0-45.002 20.188-45.002 45.002v12.402h-21.446c-24.814 0-45.002 20.188-45.002 45.002v68.03h-52.803c-9.489-100.153-153.567-95.902-156.81 5 0 43.275 35.208 78.483 78.484 78.483v258.07h292.257v-341.552h-131.128v-68.03c0-8.272 6.73-15.002 15.002-15.002h21.446v15.002c0 24.814 20.188 45.002 45.002 45.002 59.618-2.262 59.605-87.75-.001-90.004h-15.001v-12.403c0-8.273 6.73-15.002 15.002-15.002zm-212.578 202.26v-31.823h101.128v31.823zm-30.001-8.34c-26.734 0-48.484-21.75-48.484-48.484 1.854-61.227 88.75-65.36 96.711-4.999h-48.227zm30.001 258.07v-30.008c5.987 2.576 12.579 4.004 19.5 4.004h193.258c6.92 0 13.512-1.428 19.499-4.004v30.008zm212.757-56.004h-193.258c-10.752 0-19.5-8.747-19.5-19.499v-144.227h232.257v144.228c0 10.751-8.747 19.498-19.499 19.498zm19.499-225.549v31.823h-101.128v-31.823zm-19.678-113.033c19.874.754 19.87 29.253 0 30.004-8.272 0-15.002-6.73-15.002-15.002v-15.002z"/><path d="m271.874 289.665h30v30.002h-30z"/><path d="m206.874 326.213h30v30.001h-30z"/><path d="m336.208 366.215h30v30.002h-30z"/></g></svg>