<svg id="Layer_1" enable-background="new 0 0 511.991 511.991" height="512" viewBox="0 0 511.991 511.991" width="512" xmlns="http://www.w3.org/2000/svg"><path d="m399.698 16.646v-16.646h-30v16.646c-29.834 4.359-52.95 32.34-49.618 63.321h-257.685c-.233 38.595-2.337 75.707 15.748 111.319-.001 0 81.764 170.898 81.764 170.898 9.455 19.762 27.679 33.851 48.64 38.466v81.342h-61.188v30h152.377v-30h-61.188v-81.342c20.96-4.615 39.185-18.704 48.64-38.466l81.764-170.897c4.714-9.853 8.411-20.223 11.035-30.86 22.809 2.156 44.502-11.088 52.94-32.398 0 0 12.543-31.271 12.543-31.271 14.536-34.525-9.352-75.252-45.772-80.112zm-307.303 93.321h262.302c.06 10.446.175 22.309-1.659 32.575h-258.985c-1.832-10.244-1.719-22.152-1.658-32.575zm46.399 138.58h169.504l-22.489 47.005h-124.526zm84.752 123.737c-15.521 0-29.879-9.047-36.578-23.048l-11.332-23.685h95.819l-11.332 23.685c-6.698 14.001-21.056 23.048-36.577 23.048zm99.105-153.737h-198.211c-1.727-3.739-20.914-43.366-21.836-46.005h241.883c-.859 2.502-20.186 42.431-21.836 46.005zm94.973-132.958-12.543 31.271c-3.384 8.452-11.525 13.89-20.627 13.784.465-5.519.163-44.31.244-50.678h-34.225c-.444-2.262-.75-4.198-.773-5.123 0-15.916 12.948-28.864 28.864-28.864h12.272c20.012-.39 34.56 21.214 26.788 39.61z"/></svg>