<svg id="Layer_1" enable-background="new 0 0 512.071 512.071" height="512" viewBox="0 0 512.071 512.071" width="512" xmlns="http://www.w3.org/2000/svg"><g><path d="m310.284 272.919v82.811h82.81v-82.811zm52.809 52.81h-22.81v-22.811h22.81z"/><path d="m175.758 382.062h82.81v-82.811h-82.81zm30-52.81h22.81v22.811h-22.81z"/><path d="m422.352 91.527-4.488-5.219h-29.755l19.109-79.171-29.162-7.039-20.809 86.21h-163.837l-20.74-83.863c-84.057-16.645-154.801 54.131-138.155 138.154l58.476 14.462c-42.166 98.821-13.624 230.802 75.108 293.848v63.161h217.985v-63.16c110.579-78.318 124.605-258.096 36.268-357.383zm-18.41 24.781c21.276 26.537 35.733 58.619 42.339 93.35h-87.945l22.532-93.35zm-76.467 93.35h-95.283v-26.404h-82.81v26.404h-41.479c6.606-34.731 21.063-66.813 42.339-93.35h199.764zm-125.283 3.596v22.81h-22.81v-22.81zm-140.048-96.726c-1.992-46.441 40.019-88.468 86.455-86.454l13.907 56.234h-26.185c-11.259 12.688-21.464 26.378-29.842 41.184zm135.955 365.543v-26.008h157.985v26.008zm168.356-56.008h-178.726c-55.408-38.371-88.301-112.694-83.521-186.405h45.174v26.405h82.81v-26.405h217.784c4.778 73.719-28.108 148.027-83.521 186.405z"/></g></svg>