<svg id="Capa_1" enable-background="new 0 0 511.982 511.982" height="512" viewBox="0 0 511.982 511.982" width="512" xmlns="http://www.w3.org/2000/svg"><path d="m56.799 240.982 67.469 271h263.447l67.469-271h-108.405l-28.384-49.164c-20.176-34.945-59.106-54.93-99.261-51.879l-81.231-139.939-77.943 45 81.243 139.959c-11.343 16.62-17.73 36.113-18.483 56.023zm352.304 30c-22.754 32.495-74.175 90-153.112 90-45.363 0-86.998-18.492-123.748-54.964-12.503-12.408-22.313-24.922-29.377-35.036zm-44.835 211h-216.553l-39.146-157.237c.603.615 1.201 1.229 1.816 1.844 42.126 42.126 92.476 64.393 145.606 64.393s103.48-22.267 145.606-64.393c.615-.615 1.213-1.229 1.816-1.844zm-237.285-441.036 15.06 25.945-25.981 15-15.06-25.945zm4.141 66.891 25.981-15 46.335 79.824 10.333-1.84c31.383-5.589 62.984 8.879 78.642 35.998l19.724 34.164h-159.396c.863-16.423 7.087-32.411 17.913-45.268l6.793-8.069z"/></svg>