<svg id="Capa_1" enable-background="new 0 0 512 512" height="512" viewBox="0 0 512 512" width="512" xmlns="http://www.w3.org/2000/svg"><path d="m149.328 90h-48.535l-25.095 150.572c-6.948 41.685 5.43 82.88 33.109 110.197 19.935 19.674 42.471 27.652 72.369 34.146 21.976 4.774 37.323 22.975 37.323 44.26v52.825h-75v30h180v-30h-75v-52.825c0-21.285 15.348-39.485 37.323-44.26 30.041-6.526 52.691-14.578 72.764-34.525 27.406-27.238 39.64-68.274 32.724-109.77l-5.929-35.574c42.358-13.529 73.119-53.26 73.119-100.046 0-57.897-47.103-105-105-105-52.805 0-96.623 39.183-103.924 90h-69.047l-25.715-90h-101.314v30h78.686zm8.572 30 17.143 60h-58.835l10-60zm179.539 209.111c-14.962 14.869-32.591 20.971-57.985 26.488-19.099 4.149-35.132 14.659-45.954 28.938-10.822-14.279-26.855-24.788-45.954-28.938-25.892-5.624-42.75-11.463-57.666-26.183-20.743-20.471-29.936-51.841-24.59-83.912l5.917-35.504h244.586l5.926 35.552c5.32 31.925-3.756 63.162-24.28 83.559zm16.061-299.111c41.355 0 75 33.645 75 75 0 31.886-20.01 59.171-48.126 70.002l-14.167-85.002h-86.198c6.969-34.192 37.271-60 73.491-60zm-12.707 90 10 60h-144.55l-17.143-60z"/></svg>