<svg id="Capa_1" enable-background="new 0 0 512 512" height="512" viewBox="0 0 512 512" width="512" xmlns="http://www.w3.org/2000/svg"><g><path d="m50.12 267.592c-45.375 81.674-23.335 185.457 51.266 241.408l4 3h220l4-3c40.259-30.195 65.2-74.322 72.509-121.385 48.325-15.435 83.491-81.998 83.491-161.615 0-42.746-10.121-83.155-28.498-113.783-19.817-33.028-46.986-51.217-76.502-51.217-23.857 0-46.321 12.329-64.33 34.049l23.488-95.049-304.158.07v15c0 22.043 14.13 41.307 35.16 47.934 18.084 5.699 32.773 19.803 40.302 38.695 8.222 20.632 6.841 44.269-3.692 63.229zm265.138 214.408h-199.744c-59.541-47.64-76.502-132.64-39.169-199.839l6.2-11.161h265.681l6.201 11.161c37.333 67.199 20.372 152.199-39.169 199.839zm65.128-391c40.654 0 75 61.823 75 135 0 35.259-7.78 68.759-21.908 94.329-8.432 15.261-18.516 26.647-29.388 33.433-.736-29.454-8.361-59.032-23.438-86.17-62.131-112.081-60.456-108.235-63.107-114.312 14.042-38.555 37.823-62.28 62.841-62.28zm-241.669-.407c-10.878-27.298-32.438-47.783-59.153-56.202-2.909-.917-5.491-2.433-7.628-4.391h229.292l-16.775 67.889c-6.484 25.936-2.904 53.089 10.078 76.458l37.028 66.653h-232.347l34.168-61.503c14.863-26.754 16.858-59.989 5.337-88.904z"/><path d="m275.386 331h30v30h-30z"/><path d="m95.386 361h30v30h-30z"/><path d="m177.352 322.967c-29.241 29.242-29.241 76.823 0 106.066 29.242 29.242 76.823 29.243 106.066 0l10.606-10.607-106.065-106.066zm72.43 93.642c-16.726 7.969-37.387 5.039-51.217-8.789-13.827-13.829-16.758-34.491-8.789-51.216z"/></g></svg>