<svg id="Capa_1" enable-background="new 0 0 512 512" height="512" viewBox="0 0 512 512" width="512" xmlns="http://www.w3.org/2000/svg"><g><path d="m166 152c-41.355 0-75 33.645-75 75v285h330v-285c0-41.355-33.645-75-75-75h-45v-62h15v-30h-15v-60h-90v60h-15v30h15v62zm-45 150h91.948c1.918-2.129 12.208-30 43.052-30 31.012 0 41.062 27.791 43.052 30h91.948v90h-91.948c-1.918 2.129-12.208 30-43.052 30-31.012 0-41.062-27.791-43.052-30h-91.948zm0 180v-60h75.311c14.085 18.694 36.235 30 59.689 30s45.604-11.306 59.689-30h75.311v60zm120-452h30v30h-30zm30 60v92h75c24.813 0 45 20.187 45 45v45h-75.311c-14.085-18.694-36.235-30-59.689-30s-45.604 11.306-59.689 30h-75.311v-45c0-24.813 20.187-45 45-45h75v-92z"/><path d="m196 332h120v30h-120z"/></g></svg>