<svg id="Capa_1" enable-background="new 0 0 512 512" height="512" viewBox="0 0 512 512" width="512" xmlns="http://www.w3.org/2000/svg"><g><path d="m422 75c0-24.813 20.187-45 45-45v-30c-41.355 0-75 33.645-75 75v107h-392v75c0 45.532 12.171 90.21 35.196 129.202 20.847 35.302 50.05 65.189 84.804 86.884v38.914h272v-38.915c34.753-21.694 63.957-51.582 84.804-86.884 23.025-38.991 35.196-83.669 35.196-129.201v-75h-90zm-30 137v30h-362v-30zm-22.501 239.609-7.499 4.331v26.06h-212v-26.06l-7.5-4.331c-65.033-37.55-106.98-105.405-111.993-179.609h361.493v30h-120v15c0 41.355 33.645 75 75 75s75-33.645 75-75c0-14.095 0-30.95 0-45h59.493c-5.013 74.204-46.96 142.059-111.994 179.609zm19.931-119.609c-6.19 17.461-22.873 30-42.43 30s-36.239-12.539-42.43-30zm92.57-120v30h-60v-30z"/><path d="m171.967 323.967c-29.309 29.308-29.315 76.752 0 106.066 29.309 29.31 76.753 29.315 106.066 0l10.606-10.606-106.065-106.066zm72.444 93.657c-16.376 7.84-37.118 5.309-51.231-8.805-14.103-14.102-16.65-34.842-8.804-51.23z"/></g></svg>