<svg id="Capa_1" enable-background="new 0 0 512 512" height="512" viewBox="0 0 512 512" width="512" xmlns="http://www.w3.org/2000/svg"><g><path d="m136 208.924v303.076h330v-317c0-19.555-12.541-36.228-30-42.42v-62.58h-99.258l7.5-60h106.758v-30h-133.242l-11.25 90h-51.584c-7.301-50.816-51.12-90-103.924-90-57.897 0-105 47.103-105 105 0 52.804 39.184 96.623 90 103.924zm45-28.924h114.258l-7.5 60h-121.758v-45c0-8.271 6.729-15 15-15zm255 15v45h-118.008l7.5-60h95.508c8.271 0 15 6.729 15 15zm-270 287v-212h270v212zm240-362v30h-76.758l3.75-30zm-106.992 30h-103.008v-30h106.758zm-148.008-120c36.219 0 66.522 25.808 73.491 60h-58.491v62.58c-12.434 4.41-22.367 14.137-27.057 26.437-35.641-5.786-62.943-36.767-62.943-74.017 0-41.355 33.645-75 75-75z"/><path d="m316 452h90v-90h-90zm30-60h30v30h-30z"/><path d="m196 337.427 30.782 84.573 84.572-30.782-30.781-84.572zm48.712 46.122-10.261-28.191 28.191-10.261 10.261 28.191z"/></g></svg>