<svg id="Capa_1" enable-background="new 0 0 512 512" height="512" viewBox="0 0 512 512" width="512" xmlns="http://www.w3.org/2000/svg"><g><path d="m301 361h90v-90h-90zm30-60h30v30h-30z"/><path d="m121 276.427 30.782 84.573 84.572-30.782-30.781-84.572zm48.712 46.122-10.261-28.191 28.191-10.261 10.261 28.191z"/><path d="m241.782 155.646-30.782 84.572 84.573 30.782 30.781-84.573zm35.86 76.903-28.191-10.261 10.261-28.191 28.191 10.261z"/><path d="m61 512h390v-512h-390zm360-30h-330v-92.596c19.073 19.483 45.646 31.596 75 31.596h180c29.354 0 55.927-12.113 75-31.596zm-75-91h-180c-41.355 0-75-33.645-75-75v-195h330v195c0 41.355-33.645 75-75 75zm75-361v61h-330v-61z"/></g></svg>