<svg id="Capa_1" enable-background="new 0 0 512.021 512.021" height="512" viewBox="0 0 512.021 512.021" width="512" xmlns="http://www.w3.org/2000/svg"><path d="m391.01 23.32c-52.805 0-96.623 39.184-103.924 90h-168.048l-75.547-113.32-24.962 16.641 64.453 96.68h-66.972v45c0 57.897 47.103 105 105 105 8.271 0 15 6.729 15 15v30c0 36.219 25.808 66.522 60 73.491v100.209h-60v30h150v-30h-60v-100.21c34.192-6.968 60-37.271 60-73.491v-30c0-8.271 6.729-15 15-15 28.358 0 55.022-11.349 74.645-31.105 5.065.733 10.201 1.105 15.355 1.105 57.897 0 105-47.103 105-105s-47.102-105-105-105zm-15 120v15c0 5.077-.515 10.082-1.522 15h-215.45l-20-30zm-330 0h56.972l20 30h-75.462c-.988-4.848-1.509-9.864-1.509-15v-15zm255 90c-24.813 0-45 20.187-45 45v30c0 24.813-20.187 45-45 45s-45-20.187-45-45v-30c0-24.813-20.187-45-45-45-24.484 0-46.262-11.796-59.959-30h300.057c-14.319 18.88-36.393 30-60.098 30zm94.929-30.179c6.607-14.21 10.071-29.482 10.071-44.82v-45h-88.49c6.968-34.192 37.271-60 73.491-60 41.355 0 75 33.645 75 75-.001 39.697-31.007 72.27-70.072 74.82z"/></svg>