<svg id="Capa_1" enable-background="new 0 0 512 512" height="512" viewBox="0 0 512 512" width="512" xmlns="http://www.w3.org/2000/svg"><g><path d="m301.262 350.419c33.514-12.009 89.738-44.273 89.738-125.419 0-30.236 0-93.154-54.071-216.041l-3.942-8.959h-153.974l-3.941 8.959c-54.072 122.887-54.072 185.805-54.072 216.041 0 81.146 56.224 113.41 89.787 125.437 18.071 6.405 30.213 22.786 30.213 40.762v90.801h-60v30h150v-30h-60v-90.801c0-17.976 12.142-34.357 30.262-40.78zm-102.622-320.419h114.72c15.099 35.231 25.407 64.952 32.452 90h-179.624c7.044-25.048 17.353-54.769 32.452-90zm22.219 292.178c-31.87-11.42-69.859-37.55-69.859-97.178 0-14.987.001-38.586 7.744-75h194.513c7.743 36.414 7.744 60.013 7.744 75 0 59.628-37.989 85.758-69.811 97.161-14.359 5.09-26.464 14.092-35.187 25.455-8.717-11.359-20.81-20.357-35.144-25.438z"/><path d="m211 180h30v30h-30z"/><path d="m271 240h30v30h-30z"/></g></svg>