<svg id="Capa_1" enable-background="new 0 0 512 512" height="512" viewBox="0 0 512 512" width="512" xmlns="http://www.w3.org/2000/svg"><path d="m271 90h15c24.813 0 45-20.187 45-45s-20.187-45-45-45-45 20.187-45 45v15h-120v30h120v30h-150v260.541l30 60v71.459h270v-71.459l30-60v-260.541h-150zm0-45c0-8.271 6.729-15 15-15s15 6.729 15 15-6.729 15-15 15h-15zm-90 226h26.36l48.64 48.64 48.64-48.64h26.36v88.294l-16.353 32.706h-117.294l-16.353-32.706zm53.787-15 21.213-21.213 21.213 21.213-21.213 21.213zm96.213-15h-26.36l-48.64-48.64-48.64 48.64h-26.36v-91h150zm60 132.459-30 60v48.541h-30v-30h-30v30h-30v-30h-30v30h-30v-30h-30v30h-30v-48.541l-30-60v-223.459h30v216.376l27.812 55.624h154.376l27.812-55.624v-216.376h30z"/></svg>