<svg id="Capa_1" enable-background="new 0 0 512 512" height="512" viewBox="0 0 512 512" width="512" xmlns="http://www.w3.org/2000/svg"><g><path d="m406 0h-360v451h60v61h360v-451h-60zm-330 30h300v391h-300zm360 61v391h-300v-31h270v-360z"/><path d="m196 321 60-80h-150l60 80v40h-30v30h90v-30h-30zm0-50-15 20-15-20z"/><path d="m166 181h-30v30h90v-30h-30v-40l60-80h-150l60 80zm30-90-15 20-15-20z"/><path d="m256 121h60v30h-60z"/><path d="m256 181h90v30h-90z"/><path d="m256 301h60v30h-60z"/><path d="m256 361h90v30h-90z"/></g></svg>