<svg id="Layer_1" enable-background="new 0 0 511.998 511.998" height="512" viewBox="0 0 511.998 511.998" width="512" xmlns="http://www.w3.org/2000/svg"><path d="m390.999 314.887c0-29.792-14.474-48.097-26.103-62.805-16.713-21.135-27.13-35.077-5.481-78.376l10.854-21.708h-99.271v-30h112.339l-127.338-121.998-127.339 121.998h112.339v30h-99.271l10.854 21.708c21.89 43.781 10.263 58.654-5.83 79.238-11.475 14.676-25.754 32.941-25.754 61.943 0 65.353 55.71 103.637 120 108.796v58.315h-90v30h210v-30h-90v-58.312c64.264-5.141 120.001-43.372 120.001-108.799zm-135-273.341 52.661 50.452h-105.322zm67.297 140.452c-7.094 20.464-8.801 40.387-.467 60h-51.83v-60zm-82.297 0v60h-51.867c6.248-15.059 8.331-33.967-.523-60zm-90 132.889c0-18.394 8.728-29.826 18.938-42.889h172.46c10.088 12.78 18.602 24.163 18.602 42.889 0 54.566-54.418 79.418-104.978 79.418-50.582 0-105.022-24.852-105.022-79.418z"/></svg>