<svg id="Layer_1" enable-background="new 0 0 512 512" height="512" viewBox="0 0 512 512" width="512" xmlns="http://www.w3.org/2000/svg"><path d="m482.818 30v-30h-118.026l-13.019 92h-168.955v270c-23.781 0-40.643 7.995-50.196 23.721-10.262-9.437-26.961-23.721-54.804-23.721h-15v44.522c-4.68 2.559-8.793 5.63-12.428 9.265l-21.208 21.213 21.21 21.214c3.635 3.634 7.748 6.705 12.427 9.264v44.522h15c27.843 0 44.542-14.284 54.804-23.721 9.553 15.726 26.414 23.721 50.195 23.721h270v-420h-70.747l8.773-62zm-135.291 92-11.547 81.6c-3.897-1.486-7.725-3.152-11.454-5.016-21.697-10.85-45.989-16.584-70.249-16.584h-41.459v-60zm-254.709 357.397v-12.397c0-1.855.322-3.991.696-6.464l1.925-12.756-12.003-3.975c-5.128-1.698-8.888-3.86-11.831-6.803 2.943-2.944 6.702-5.108 11.831-6.807l12.003-3.975-1.925-12.755c-.374-2.473-.696-4.61-.696-6.465v-12.397c8.759 3.268 15.063 9.097 20.85 14.448 3.148 2.911 6.35 5.86 9.863 8.211-.604 6.68-.713 13.383-.713 19.738s.109 13.058.713 19.738c-3.513 2.352-6.715 5.3-9.863 8.211-5.787 5.351-12.091 11.18-20.85 14.448zm60-42.397c0-37.009 5.327-45 30-45 18.4 0 42.408 6.244 61.162 15.907 17.788 9.166 28.838 20.313 28.838 29.093s-11.05 19.927-28.838 29.093c-18.753 9.663-42.761 15.907-61.162 15.907-24.672 0-30-7.991-30-45zm122.447 45c12.309-9.047 20.71-19.231 24.761-30h77.792c16.871 0 32.456-5.603 45-15.041v45.041zm102.553-60h-77.792c-5.753-15.294-20.276-29.41-42.305-40.76-13.743-7.081-29.502-12.544-44.903-15.813v-153.427h41.459c19.627 0 39.279 4.639 56.833 13.416 21.698 10.849 45.99 16.584 70.249 16.584h41.459v135c0 24.813-20.186 45-45 45zm45-300v90h-41.459c-5.386 0-10.773-.362-16.12-1.05l12.587-88.95z"/><path d="m302.818 272h30v30h-30z"/><path d="m362.818 302h30v30h-30z"/><path d="m332.818 362h30v30h-30z"/></svg>