<svg id="Layer_1" enable-background="new 0 0 512 512" height="512" viewBox="0 0 512 512" width="512" xmlns="http://www.w3.org/2000/svg"><path d="m453.295 422 30-210h-150.023l30-212h-214.544l30 212h-150.023l30 210h-58.705v15c0 41.355 33.645 75 75 75h362c41.355 0 75-33.645 75-75v-15zm-124.286 0-17.143-120h128.267l-17.143 120zm-90-180h33.982l25.714 180h-85.41zm209.696 0-4.286 30h-136.838l-4.286-30zm-119.977-212-4.245 30h-136.966l-4.245-30zm-136.965 60h128.475l-17.264 122c-10.892 0-83.058 0-93.946 0zm16.942 152-4.286 30h-136.838l-4.286-30zm-136.839 60h128.267l-17.143 120h-93.981zm365.134 180h-362c-19.556 0-36.239-12.539-42.43-30h446.86c-6.191 17.461-22.874 30-42.43 30z"/></svg>