<svg id="Layer_1" enable-background="new 0 0 512 512" height="512" viewBox="0 0 512 512" width="512" xmlns="http://www.w3.org/2000/svg"><path d="m451.596 105c0-57.897-47.103-105-105-105-52.804 0-96.623 39.183-103.924 90h-182.268l32.296 422h237.792l23.131-302.241c54.632-3.628 97.973-49.223 97.973-104.759zm-32.571 19.444-47.107-23.553 37.22-37.22c7.863 11.859 12.458 26.065 12.458 41.329 0 6.724-.903 13.239-2.571 19.444zm-31.1-81.987-37.22 37.22-23.553-47.107c6.205-1.667 12.72-2.571 19.444-2.571 15.264.001 29.47 4.595 41.329 12.458zm-87.585 3.572 21.986 43.971h-49.22c3.611-17.725 13.506-33.18 27.234-43.971zm30.064 73.971-4.592 60h-114.216v-30h-90v30h-24.216l-4.592-60zm-73.808 292.377c-11.003-12.481-27.092-20.377-45-20.377s-33.997 7.896-45 20.377c-11.003-12.481-27.092-20.377-45-20.377-2.669 0-5.325.18-7.951.53l-13.969-182.53h21.92v30h90v-30h111.92l-13.97 182.547c-2.632-.352-5.287-.547-7.95-.547-17.908 0-33.997 7.896-45 20.377zm-15 69.623h-60v-30c0-16.542 13.458-30 30-30s30 13.458 30 30zm-90-272v-30h30v30zm-35.654 212.545c1.854-.354 3.746-.545 5.654-.545 16.542 0 30 13.458 30 30v30h-31.104zm155.654 59.455v-30c0-16.542 13.458-30 30-30 1.925 0 3.812.18 5.655.53l-4.551 59.47zm84.35-302.604 3.903-50.999 45.718 22.859c-11.922 15.166-29.547 25.631-49.621 28.14z"/><path d="m162.957 317 63.639 63.64 63.639-63.64-63.639-63.64zm63.639 21.213-21.213-21.213 21.213-21.213 21.213 21.213z"/></svg>