<svg id="Layer_1" enable-background="new 0 0 512 512" height="512" viewBox="0 0 512 512" width="512" xmlns="http://www.w3.org/2000/svg"><path d="m224.061 168.56c-10.123-6.394-16.774-17.316-17.814-29.24l-6.787-109.32h26.54v-30h-150v30h26.54l-6.786 109.32c-1.04 11.924-7.691 22.846-17.814 29.24-20 12.631-31.94 34.294-31.94 57.949v285.491h210v-285.491c0-23.655-11.94-45.318-31.939-57.949zm-54.659-138.56 1.986 32h-40.778l1.987-32zm-75.442 163.924c18.075-11.417 29.927-30.952 31.703-52.257l3.084-49.667h44.504l3.086 49.667c1.776 21.305 13.627 40.841 31.703 52.257 11.246 7.103 17.96 19.284 17.96 32.585v45.491h-150v-45.491c0-13.301 6.714-25.482 17.96-32.585zm132.04 108.076v90h-150v-90zm-150 180v-60h150v60z"/><path d="m286 212v101.459c0 24.259 5.734 48.551 16.584 70.249 8.776 17.554 13.416 37.207 13.416 56.833v71.459h120v-71.459c0-19.626 4.64-39.279 13.416-56.833 10.85-21.698 16.584-45.99 16.584-70.249v-101.459zm150 30v30h-120v-30zm-13.416 128.292c-10.85 21.698-16.584 45.99-16.584 70.249v41.459h-60v-41.459c0-24.259-5.734-48.551-16.584-70.249-8.776-17.554-13.416-37.207-13.416-56.833v-11.459h120v11.459c0 19.626-4.64 39.279-13.416 56.833z"/><path d="m106 332h90v30h-90z"/></svg>