<svg id="Layer_1" enable-background="new 0 0 512 512" height="512" viewBox="0 0 512 512" width="512" xmlns="http://www.w3.org/2000/svg"><path d="m436 30v-30h-102.449l-28.125 150h-51.012c19.482-19.072 31.586-45.649 31.586-75v-15h-45c-30.65 0-59.259 13.201-79.062 35.902-3.843-1.85-7.917-3.286-12.158-4.287-6.332-34.988-36.995-61.615-73.78-61.615v30c20.444 0 37.735 13.708 43.195 32.412-24.927 7.287-43.195 30.337-43.195 57.588 0 11.223 3.105 21.732 8.49 30.726-5.63 20.271-8.49 40.179-8.49 59.274 0 31.978 7.661 59.982 22.771 83.234 32.785 50.451 54.804 75.303 61.77 131.016l7.217 57.75h146.484l7.217-57.749c7.002-56.005 29.345-81.119 61.77-131.017 15.11-23.252 22.771-51.256 22.771-83.234 0-25.804-5.127-52.784-15.238-80.192l-3.619-9.808h-51.193l22.5-120zm-136.199 150-11.25 60h-182.551c0-11.647 1.26-23.714 3.748-36.06 7.935 3.877 16.842 6.06 26.252 6.06 22.159 0 41.537-12.084 51.928-30zm-58.801-90h13.493c-5.984 29.354-29.173 52.513-58.532 58.483-.309-12.362-4.371-23.802-11.093-33.23 14.137-15.976 34.419-25.253 56.132-25.253zm-105 30c16.542 0 30 13.458 30 30s-13.458 30-30 30-30-13.458-30-30 13.458-30 30-30zm58.242 362-3.75-30h101.015l-3.75 30zm163.832-175.113c-26.892 41.374-49.772 69.775-61.12 115.113h-111.908c-11.391-45.51-34.392-73.985-61.119-115.113-7.056-10.858-12.031-23.205-14.926-36.887h263.998c-2.894 13.683-7.869 26.029-14.925 36.887zm7.919-126.887c6.565 20.523 10.007 41.081 10.007 60h-56.926l11.25-60z"/></svg>