<svg id="Layer_1" enable-background="new 0 0 511.998 511.998" height="512" viewBox="0 0 511.998 511.998" width="512" xmlns="http://www.w3.org/2000/svg"><path d="m270.999 429.788v-76.956l184.099-200.835h-149.89l26.006-32.507c4.634 1.617 9.606 2.507 14.785 2.507 24.813 0 45-20.187 45-45 0-8.615-2.438-16.67-6.654-23.519l28.568-34.27-23.043-19.208-28.835 34.59c-4.705-1.673-9.764-2.593-15.036-2.593-24.813 0-45 20.187-45 45 0 8.71 2.495 16.845 6.797 23.742l-41.006 51.258h-209.89l184.099 200.835v76.956l-65.262 52.209h-24.738v30h210v-30h-24.738zm75-367.79c8.271 0 15 6.729 15 15s-6.729 15-15 15-15-6.729-15-15 6.729-15 15-15zm-14.099 180-75.901 82.802-75.901-82.802zm55-60-27.5 30h-102.192l24-30zm-144.11 0-24 30h-66.192l-27.5-30zm13.209 274.209 32.238 25.791h-64.476z"/></svg>