<svg id="Layer_1" enable-background="new 0 0 512 512" height="512" viewBox="0 0 512 512" width="512" xmlns="http://www.w3.org/2000/svg"><path d="m376.149 196.279-3.618-14.279h-101.831v-30h90v-15c0-52.805-39.183-96.623-90-103.924v-33.076h-30v33.076c-50.816 7.301-90 51.119-90 103.924v15h90v30h-101.823l-2.863 11.323c-24.378 96.407-23.966 177.807 44.686 249.773v68.904h150v-68.903c85.358-89.725 58.48-195.53 45.449-246.818zm-120.449-134.279c36.219 0 66.523 25.809 73.493 60h-146.986c6.969-34.191 37.274-60 73.493-60zm-42.42 240c4.527 12.764 14.656 22.893 27.42 27.42v30.58h30v-30.58c12.764-4.527 22.893-14.656 27.42-27.42h62.356c-1.774 38.763-14.321 81.081-51.124 120h-107.316c-35.233-37.099-49.373-76.547-50.768-120zm42.42-30c8.271 0 15 6.729 15 15s-6.729 15-15 15-15-6.729-15-15 6.729-15 15-15zm93.476-60c4.179 16.78 8.826 37.343 10.691 60h-61.747c-4.527-12.764-14.656-22.893-27.42-27.42v-32.58zm-108.476 0v32.58c-12.764 4.527-22.893 14.656-27.42 27.42h-61.116c1.659-19.176 5.258-39.134 10.168-60zm60 270h-90v-30h90z"/></svg>