<svg id="Layer_1" enable-background="new 0 0 512 512" height="512" viewBox="0 0 512 512" width="512" xmlns="http://www.w3.org/2000/svg"><path d="m31 0v512h450v-512c-19.599 0-428.461 0-450 0zm30 482v-452h30v452zm390 0h-330v-452h330z"/><path d="m182.934 150.066c4.156 13.673 14.663 24.602 28.066 29.356v32.578h-30v30h90v-30h-30v-32.578c13.404-4.754 23.91-15.683 28.066-29.356 18.461-5.611 31.934-22.795 31.934-43.066v-45h-150v45c0 20.271 13.473 37.455 31.934 43.066zm-1.934-58.066h90v15c0 8.271-6.729 15-15 15h-15v15c0 8.271-6.729 15-15 15s-15-6.729-15-15v-15h-15c-8.271 0-15-6.729-15-15z"/><path d="m182.934 360.066c4.156 13.673 14.663 24.602 28.066 29.356v32.578h-30v30h90v-30h-30v-32.578c13.404-4.754 23.91-15.683 28.066-29.356 18.461-5.611 31.934-22.795 31.934-43.066v-45h-150v45c0 20.271 13.473 37.455 31.934 43.066zm-1.934-58.066h90v15c0 8.271-6.729 15-15 15h-15v15c0 8.271-6.729 15-15 15s-15-6.729-15-15v-15h-15c-8.271 0-15-6.729-15-15z"/><path d="m331 62h90v30h-90z"/><path d="m331 122h90v30h-90z"/><path d="m331 182h60v30h-60z"/><path d="m331 272h90v30h-90z"/><path d="m331 332h90v30h-90z"/><path d="m331 392h60v30h-60z"/></svg>