<svg id="Layer_1" enable-background="new 0 0 512 512" height="512" viewBox="0 0 512 512" width="512" xmlns="http://www.w3.org/2000/svg"><path d="m436 30v-30h-116.524l-9.975 37.406c-12.018-4.796-25.034-7.406-38.501-7.406-37.329 0-70.295 19.679-88.84 49.702-17.235-12.393-38.359-19.702-61.16-19.702h-45v15c0 41.802 24.557 77.973 60 94.855v122.292c0 55.351 20.822 107.798 56.874 147.563l-36.145 72.29h228.541l-36.145-72.29c36.011-39.719 56.875-92.148 56.875-147.563v-142.147c0-24.72-15.282-47.096-38.763-56.034-6.915-16.27-17.639-30.183-30.878-40.848l6.165-23.118zm-165 30c10.824 0 21.243 2.368 30.694 6.682l-22.218 83.318h-54.552c-2.604-18.126-9.854-34.77-20.502-48.685 12.628-25.013 38.426-41.315 66.578-41.315zm-163.493 30h13.493c36.219 0 66.524 25.809 73.493 60h-13.493c-36.219 0-66.524-25.809-73.493-60zm97.764 392 15-30h101.459l15 30zm119.38-60h-107.302c-33.162-35.314-51.349-81.184-51.349-129.853v-112.147h210v112.147c0 48.669-18.187 94.539-51.349 129.853zm16.997-311.007 2.708 7.959 8.203 1.844c13.583 3.053 23.441 15.335 23.441 29.204h-65.476l17.015-63.807c6.101 7.141 10.946 15.502 14.109 24.8z"/></svg>