<svg id="Layer_1" enable-background="new 0 0 512 512" height="512" viewBox="0 0 512 512" width="512" xmlns="http://www.w3.org/2000/svg"><path d="m196 242h30v30h-30z"/><path d="m256 272h30v30h-30z"/><path d="m226 332h30v30h-30z"/><path d="m451 422c-22.789 0-43.222 10.23-56.988 26.323-8.967-17.066-22.491-31.377-38.948-41.302l22.496-227.021h-9.632c5.123-8.833 8.072-19.075 8.072-30 0-26.136-16.804-48.41-40.171-56.618 6.419-9.55 10.171-21.035 10.171-33.382 0-33.084-26.916-60-60-60l-30 .005v15c0 8.268-6.729 14.995-15 14.995h-60c-24.813 0-45 20.187-45 45 0 7.38 1.797 14.344 4.959 20.496-6.707 3.094-12.749 7.384-17.849 12.605l-40.084-48.101h-67.026v30h52.975l38.614 46.337c-1.028 4.392-1.589 8.962-1.589 13.663 0 10.925 2.949 21.167 8.072 30h-9.636l32.98 332h283.584c41.355 0 75-33.645 75-75v-15zm-270-362h60c19.556 0 36.239-12.539 42.43-30h2.57c16.542 0 30 13.458 30 30s-13.458 30-30 30h-105c-8.271 0-15-6.729-15-15s6.729-15 15-15zm-45 90c0-16.542 13.458-30 30-30h150c16.542 0 30 13.458 30 30s-13.458 30-30 30h-150c-16.542 0-30-13.458-30-30zm208.44 60-18.336 185.041c-8.047-1.982-16.454-3.041-25.104-3.041h-45v15c0 5.093.372 10.099 1.076 15h-98.452l-21.06-212zm-179.856 272-2.98-30h104.541c5.355 11.242 12.651 21.385 21.451 30zm196.416 0c-36.219 0-66.524-25.809-73.493-60h13.493c36.219 0 66.524 25.809 73.493 60zm60 0h-12.43c6.191-17.461 22.874-30 42.43-30h12.43c-6.191 17.461-22.874 30-42.43 30z"/></svg>