<svg id="Layer_1" enable-background="new 0 0 512 512" height="512" viewBox="0 0 512 512" width="512" xmlns="http://www.w3.org/2000/svg"><path d="m0 0v512h512c0-24.648 0-503.381 0-512zm30 30h452v32h-452zm391 137v15h-30v-15c0-8.271 6.729-15 15-15s15 6.729 15 15zm-150 0v15h-30v-15c0-8.271 6.729-15 15-15s15 6.729 15 15zm-150 0v15h-30v-15c0-8.271 6.729-15 15-15s15 6.729 15 15zm180 135v30h-90v-30h-150v30h-31v-60h452v60h-31v-30zm60 150v30h-210v-30h30v-30h-30v-30h60v-30h90v30h60v30h-30v30zm-270-90v-30h90v30zm240 0v-30h90v30zm-301 0h31v30h60v30h-30v30h30v30h-91zm361 120v-30h30v-30h-30v-30h60v-30h31v120zm91-240h-452v-150h61v32.58c-17.459 6.192-30 22.865-30 42.42v45h90v-45c0-19.555-12.541-36.228-30-42.42v-32.58h120v32.58c-17.459 6.192-30 22.865-30 42.42v45h90v-45c0-19.555-12.541-36.228-30-42.42v-32.58h120v32.58c-17.459 6.192-30 22.865-30 42.42v45h90v-45c0-19.555-12.541-36.228-30-42.42v-32.58h61z"/></svg>