<svg id="Layer_1" enable-background="new 0 0 512 512" height="512" viewBox="0 0 512 512" width="512" xmlns="http://www.w3.org/2000/svg"><path d="m451 0c-40.34 0-75.434 22.871-93.012 56.323-13.766-16.093-34.199-26.323-56.988-26.323h-45v15c0 16.871 5.603 32.456 15.041 45h-89.744l-18-90h-147.297v30h122.703l12 60h-104.703v244.574c0 29.229 10.606 56.828 30 78.4v99.026h330v-99.026c19.394-21.572 30-49.17 30-78.4v-224.719c35.443-16.882 60-53.053 60-94.855v-15zm-162.43 60h12.43c19.557 0 36.239 12.539 42.43 30h-12.43c-19.557 0-36.239-12.539-42.43-30zm-131.867 60 7.042 35.209c-8.717 2.734-16.707 7.54-23.351 14.184-10.72 10.718-28.066 10.719-38.787 0-7.214-7.213-16.013-12.256-25.607-14.835v-34.558zm-50.703 317c0-8.271 6.729-15 15-15s15 6.729 15 15v45h-30zm150 45h-30v-45c0-8.271 6.729-15 15-15s15 6.729 15 15zm120 0h-30v-45c0-8.271 6.729-15 15-15s15 6.729 15 15zm4.394-85.607c-5.875-2.817-12.455-4.393-19.394-4.393-24.813 0-45 20.187-45 45v45h-30v-45c0-24.813-20.187-45-45-45s-45 20.187-45 45v45h-30v-45c0-24.813-20.187-45-45-45-6.939 0-13.514 1.581-19.389 4.397-16.513-16.512-25.611-38.47-25.611-61.823v-147.54c1.565 1.027 3.039 2.218 4.394 3.572 10.846 10.846 25.268 16.82 40.606 16.82s29.761-5.974 40.606-16.82c10.72-10.719 28.066-10.719 38.787 0 10.846 10.846 25.268 16.82 40.606 16.82s29.761-5.974 40.606-16.82c10.72-10.719 28.066-10.719 38.787 0 10.846 10.846 25.268 16.82 40.606 16.82s29.761-5.974 40.606-16.82c1.354-1.354 2.828-2.546 4.394-3.573v147.54c.002 23.354-9.092 45.308-25.604 61.82zm25.606-276.393v34.558c-9.594 2.579-18.394 7.622-25.606 14.836-10.72 10.719-28.066 10.719-38.787 0-10.846-10.846-25.268-16.82-40.606-16.82s-29.761 5.974-40.606 16.82c-10.72 10.719-28.066 10.719-38.787 0-7.683-7.684-17.165-12.907-27.492-15.309l-6.819-34.085zm-15-30h-13.493c6.97-34.191 37.274-60 73.493-60h13.493c-6.97 34.191-37.274 60-73.493 60z"/><path d="m151 242c-24.813 0-45 20.187-45 45s20.187 45 45 45 45-20.187 45-45-20.187-45-45-45zm0 60c-8.271 0-15-6.729-15-15s6.729-15 15-15 15 6.729 15 15-6.729 15-15 15z"/><path d="m331 272c-24.813 0-45 20.187-45 45s20.187 45 45 45 45-20.187 45-45-20.187-45-45-45zm0 60c-8.271 0-15-6.729-15-15s6.729-15 15-15 15 6.729 15 15-6.729 15-15 15z"/><path d="m286 210h30v30h-30z"/><path d="m226 332h30v30h-30z"/></svg>