<svg id="Layer_1" enable-background="new 0 0 511.993 511.993" height="512" viewBox="0 0 511.993 511.993" width="512" xmlns="http://www.w3.org/2000/svg"><path d="m450.996 241.993c-10.102 0-81.447 0-92.963 0l-34.892-60.434c-15.683-27.163-41.005-46.594-71.302-54.712-22.557-6.044-41.41-20.51-53.086-40.734l-50.808-86.113-77.742 45.35 50.645 85.826c11.646 20.209 14.735 43.744 8.698 66.277-3.924 14.645-4.953 29.719-3.146 44.54-9.321 0-56.087 0-65.404 0v30h31.758l30 240h266.483l30-240h31.758v-30zm-240.432-101.017-10.174 37.969-37.969-10.174c-.926-18.329-6.187-36.306-15.628-52.659l-4.169-7.065 25.912-15.115 4.276 7.248c9.438 16.322 22.363 29.843 37.752 39.796zm-73.287-100.022 16.014 27.141-25.913 15.115-16.015-27.14zm22.696 158.22 61.63 16.514 16.514-61.63c9.588 3.108 39.663 8.931 59.045 42.501l26.232 45.434h-166.692c-3.423-20.774 1.531-34.66 3.271-42.819zm-10.735 282.819-18.75-150h251.017l-18.75 150zm236.017-180h-258.517l-3.75-30h266.017z"/></svg>