<svg id="Layer_1" enable-background="new 0 0 512 512" height="512" viewBox="0 0 512 512" width="512" xmlns="http://www.w3.org/2000/svg"><path d="m451 92v-30h-115.973l-38.125 120h-26.978c-5.399-37.579-30.767-68.792-64.975-82.506 3.84-6.623 6.051-14.303 6.051-22.494 0-19.555-12.541-36.228-30-42.42v-34.58h-30v34.58c-17.459 6.192-30 22.865-30 42.42 0 8.191 2.211 15.871 6.051 22.494-38.669 15.502-66.051 53.364-66.051 97.506v15h60v15c0 75.387 50.82 139.126 120 158.762v45.493c-16.867 7.465-31.531 19.282-43.702 35.241-7.404 9.708-19.104 15.504-31.298 15.504h-15v30h270v-30h-15c-12.194 0-23.894-5.797-31.297-15.506-12.172-15.963-26.836-27.781-43.703-35.245v-45.487c69.18-19.636 120-83.375 120-158.762v-45h-122.621l28.594-90zm-235.29 48.899c11.93 10.584 20.48 24.898 23.783 41.101h-47.513zm-49.71 26.101-23.747-41.131c7.468-2.5 15.449-3.869 23.747-3.869s16.279 1.369 23.747 3.869zm-15-90c0-8.271 6.729-15 15-15s15 6.729 15 15-6.729 15-15 15-15-6.729-15-15zm-58.493 105c3.303-16.203 11.853-30.517 23.783-41.101l23.729 41.101c-14.932 0-32.281 0-47.512 0zm194.863 30-9.531 30h-126.001c-.547-4.927-.838-9.93-.838-15v-15zm61.355 270h-125.447c20.151-24.628 41.561-26.731 47.722-29.5v-61.188c4.942.448 9.943.689 15 .689s10.058-.241 15-.689v61.186c6.143 2.759 27.592 4.889 47.725 29.502zm-62.725-120c-58.667 0-108.704-37.62-127.278-90h254.557c-18.575 52.38-68.612 90-127.279 90zm135-150v15c0 5.07-.291 10.073-.838 15h-110.845l9.531-30z"/></svg>