<svg id="Layer_1" enable-background="new 0 0 512 512" height="512" viewBox="0 0 512 512" width="512" xmlns="http://www.w3.org/2000/svg"><path d="m346 0c-49.626 0-90 40.374-90 90h-50.508l-11.25-90h-118.242v30h91.758l7.5 60h-99.258v105c0 40.556 23.774 77.329 60.137 94.556 2.058 34.181 27.117 62.253 59.863 68.928v65.021c-24.311 4.907-44.854 21.574-54.484 45.223-3.284 8.063-11.03 13.272-19.734 13.272-4.475 0-8.099 0-15.782 0v30h210v-30c-7.67 0-11.315 0-15.782 0-8.704 0-16.45-5.209-19.732-13.271-9.63-23.65-30.173-40.317-54.485-45.224v-65.021c32.747-6.675 57.806-34.747 59.863-68.928 36.362-17.227 60.136-54 60.136-94.556v-15c49.626 0 90-40.374 90-90s-40.374-90-90-90zm-30 120v60h-41.459c-19.626 0-39.278-4.639-56.833-13.417-.931-.465-1.873-.908-2.813-1.355l-5.653-45.228zm-136.992 0 4.271 34.165c-11.734-2.749-23.781-4.165-35.82-4.165h-41.459v-30zm73.692 360.042c.269.661.553 1.313.847 1.958h-85.094c.294-.645.578-1.296.847-1.958 6.937-17.035 23.305-28.042 41.7-28.042 18.396 0 34.764 11.007 41.7 28.042zm13.276-214.687-9.976 3.546v16.099c0 24.813-20.187 45-45 45s-45-20.187-45-45v-16.099l-9.976-3.546c-29.92-10.637-50.024-38.91-50.024-70.355v-15h41.459c19.626 0 39.278 4.639 56.833 13.417 21.698 10.849 45.989 16.583 70.249 16.583h39.905c-5.241 25.158-23.407 46.445-48.47 55.355zm80.024-115.355v-60h-60c0-33.084 26.916-60 60-60s60 26.916 60 60-26.916 60-60 60z"/></svg>