<svg id="Layer_1" enable-background="new 0 0 512 512" height="512" viewBox="0 0 512 512" width="512" xmlns="http://www.w3.org/2000/svg"><path d="m436 105c0-57.897-47.103-105-105-105-52.804 0-96.623 39.184-103.924 90h-151.076v422h270v-303.076c50.816-7.301 90-51.12 90-103.924zm-32.571 19.444-47.107-23.553 37.22-37.22c7.864 11.859 12.458 26.065 12.458 41.329 0 6.724-.903 13.239-2.571 19.444zm-31.099-81.986-37.22 37.22-23.553-47.107c6.204-1.668 12.719-2.571 19.443-2.571 15.264 0 29.47 4.594 41.33 12.458zm-87.586 3.571 21.986 43.971h-49.221c3.613-17.725 13.507-33.18 27.235-43.971zm31.256 73.971v122h-41.459c-19.626 0-39.278-4.639-56.833-13.417-21.699-10.849-45.99-16.583-70.249-16.583h-41.459v-92zm-210 362v-45.041c12.544 9.438 28.129 15.041 45 15.041h120c16.871 0 32.456-5.603 45-15.041v45.041zm165-60h-120c-24.813 0-45-20.187-45-45v-135h41.459c19.626 0 39.278 4.639 56.833 13.417 21.699 10.849 45.99 16.583 70.249 16.583h41.459v105c0 24.813-20.187 45-45 45zm75-243.509v-49.22l43.971 21.986c-10.791 13.727-26.247 23.621-43.971 27.234z"/><path d="m136 272h30v30h-30z"/><path d="m166 362h30v30h-30z"/><path d="m226 302h30v30h-30z"/></svg>