<svg id="Layer_1" enable-background="new 0 0 512 512" height="512" viewBox="0 0 512 512" width="512" xmlns="http://www.w3.org/2000/svg"><path d="m509.439 246.935c-11.27-55.01-61.929-94.935-120.456-94.935h-56.977v-92h-66.133c-22.251-37.114-62.421-60-105.943-60h-103.289l43.867 141.238c4.869 15.678.08 34.828-11.918 47.652-36.397 38.906-56.478 89.574-56.578 142.71-19.724 19.101-32.006 45.841-32.006 75.4 0 57.897 47.103 105 105 105h185.311c2.202-2.033 67.524-35.122 92.713-120h8.977c75.462 0 132.989-69.134 117.432-145.065zm-329.433 160.065c0 19.483-7.472 37.251-19.696 50.6l-31.034-42.714 50.242-16.325c.313 2.772.488 5.585.488 8.439zm-60-20.646v-52.845c21.509 4.384 39.683 18.011 50.219 36.528zm-30 0-50.219-16.317c10.536-18.517 28.71-32.145 50.219-36.528zm-60 20.646c0-2.854.176-5.667.488-8.439l50.242 16.325-31.034 42.714c-12.223-13.349-19.696-31.117-19.696-50.6zm43.957 68.247 31.043-42.727 31.043 42.727c-9.467 4.324-19.974 6.753-31.043 6.753s-21.576-2.43-31.043-6.753zm318.043-113.247h-32.36l-2.733 11.544c-10.607 44.802-37.3 83.158-75.368 108.456h-103.135c19.483-19.073 31.596-45.646 31.596-75 0-57.897-47.103-105-105-105-14.823 0-28.935 3.094-41.734 8.66 1.579-13.251 4.632-26.205 9.057-38.66h91.136c19.625 0 39.278 4.639 56.833 13.417 21.699 10.849 45.991 16.583 70.249 16.583h68.728c.909 5.345 1.58 10.733 1.995 16.146l1.063 13.854h29.674c33.084 0 60-26.916 60-60s-26.916-60-60-60h-73.55l14.88 23.118c7.446 11.569 13.499 23.972 18.092 36.882h-60.881c-19.625 0-39.278-4.639-56.833-13.417-21.699-10.849-45.991-16.583-70.25-16.583h-77.227c6.768-11.636 14.875-22.584 24.259-32.614 19.424-20.763 26.749-51.005 18.661-77.046l-31.786-102.34h62.558c35.658 0 67.714 19.813 83.66 51.708l4.145 8.292h54.271v92h86.977c44.345 0 82.644 29.841 91.066 70.957 11.8 57.583-31.846 109.043-88.043 109.043zm-20.567-120h20.567c16.542 0 30 13.458 30 30s-13.458 30-30 30h-2.359c-3.013-20.771-9.174-41.042-18.208-60z"/><path d="m241.006 422h30v30h-30z"/><path d="m241.006 332h30v30h-30z"/><path d="m301.006 362h30v30h-30z"/></svg>