<svg id="Layer_1" enable-background="new 0 0 512 512" height="512" viewBox="0 0 512 512" width="512" xmlns="http://www.w3.org/2000/svg"><path d="m420.4 0c-40.34 0-75.434 22.871-93.012 56.323-13.766-16.093-34.199-26.323-56.988-26.323h-45v15c0 16.871 5.603 32.456 15.041 45h-73.886l-36-90h-83.955v30h63.646l24 60h-28.846v74c0 4.362 1.759 8.317 4.599 11.206-2.94 5.978-4.599 12.695-4.599 19.794v15h-14c-8.822 0-16 7.178-16 16v286h330v-286c0-8.822-7.178-16-16-16h-14v-15c0-7.099-1.658-13.816-4.599-19.794 2.84-2.889 4.599-6.845 4.599-11.206v-45.076c50.817-7.301 90-51.119 90-103.924v-15zm-75 150h-210v-30h210zm-87.429-90h12.43c19.557 0 36.239 12.539 42.43 30h-12.431c-19.556 0-36.239-12.539-42.429-30zm-76.731 180 9.407 31.357c-8.972-.896-17.731-1.357-26.302-1.357h-58.945v-30zm194.16 0v60h-27.566c-28.199 0-56.139-4.282-83.043-12.727-14.359-4.507-28.085-8.105-41.299-10.835l-10.931-36.438zm-270 242v-182h58.945c27.468 0 57.386 5.2 91.461 15.896 29.815 9.359 60.778 14.104 92.028 14.104h27.566v152zm30-272v-15c0-8.271 6.729-15 15-15h180c8.271 0 15 6.729 15 15v15zm225-120h-13.493c6.97-34.191 37.274-60 73.493-60h13.493c-6.969 34.191-37.274 60-73.493 60z"/></svg>