<svg id="Layer_1" enable-background="new 0 0 512 512" height="512" viewBox="0 0 512 512" width="512" xmlns="http://www.w3.org/2000/svg"><path d="m492.606 321.394c-6.839-6.84-10.606-15.934-10.606-25.607v-113.787h-90v113.787c0 9.673-3.767 18.767-10.606 25.607-12.507 12.505-19.394 29.133-19.394 46.819v6.828c-.655-.493-1.328-.963-2-1.435v-208.606c0-90.981-74.019-165-165-165s-165 74.019-165 165v210.041c-18.204 13.697-30 35.475-30 59.959v77h512v-143.787c0-17.686-6.887-34.314-19.394-46.819zm-100.606 70.606h90v30h-90zm60-180v30h-30v-30zm-30 83.787v-23.787h30v23.787c0 17.687 6.887 34.314 19.394 46.82 5.351 5.351 8.811 12.085 10.068 19.394h-88.923c1.257-7.309 4.717-14.042 10.068-19.394 12.506-12.506 19.393-29.134 19.393-46.82zm-362-70.787v-60c0-74.439 60.561-135 135-135s135 60.561 135 135v196.151c-4.226-.742-8.565-1.151-13-1.151h-17v-30h-31.586c16.63-16.281 27.886-38.03 30.823-62.308 17.857-5.97 30.763-22.853 30.763-42.692 0-20.271-13.472-37.455-31.934-43.066-5.611-18.462-22.795-31.934-43.066-31.934-24.813 0-45-20.187-45-45v-15h-30v15c0 24.813-20.187 45-45 45-20.271 0-37.455 13.472-43.066 31.934-18.462 5.611-31.934 22.795-31.934 43.066 0 19.839 12.906 36.722 30.763 42.692 2.937 24.278 14.193 46.027 30.823 62.308h-31.586v30h-15c-5.136 0-10.152.521-15 1.509zm45 15c-8.271 0-15-6.729-15-15s6.729-15 15-15h15v-15c0-8.271 6.729-15 15-15 24.507 0 46.305-11.814 60-30.047 13.695 18.233 35.493 30.047 60 30.047 8.271 0 15 6.729 15 15v15h15c8.271 0 15 6.729 15 15s-6.729 15-15 15h-15v15c0 41.355-33.645 75-75 75s-75-33.645-75-75v-15zm105 120v30h-30v-30zm-60 33.288-30 7.5v-40.788h30zm16.847 26.712h56.306l14.351 3.588-22.758 58.412h-39.492l-22.758-58.412zm73.153-26.712v-33.288h30v40.789zm-210 41.712c0-24.813 20.187-45 45-45h15v49.211l33.157-8.289 19.9 51.078h-113.057zm216.942 47 19.9-51.078 33.158 8.289v-49.211h17c24.813 0 45 20.187 45 45v47zm145.058 0v-30h90v30z"/></svg>