<svg id="Layer_1" enable-background="new 0 0 512 512" height="512" viewBox="0 0 512 512" width="512" xmlns="http://www.w3.org/2000/svg"><path d="m239.496 187.246-17.009-95.246h18.513v-92h-150v92h18.513l-17.008 95.246c-37.488 21.762-61.505 62.138-61.505 106.835v217.919h270v-217.919c0-43.638-23.109-84.546-61.504-106.835zm-118.496-157.246h90v32c-10.252 0-79.556 0-90 0zm71.012 62 5.357 30h-62.739l5.357-30zm78.988 390h-210v-187.919c0-35.658 19.813-67.717 51.708-83.664l6.734-3.367 9.83-55.049h73.454l9.83 55.049 6.735 3.367c31.896 15.947 51.709 48.005 51.709 83.664z"/><path d="m331 302v210h150v-210zm120 30v30h-90v-30zm-90 150v-90h90v90z"/><path d="m166 242c-41.355 0-75 33.645-75 75v135h150v-135c0-41.355-33.645-75-75-75zm45 180h-90v-105c0-24.813 20.187-45 45-45s45 20.187 45 45z"/></svg>