<svg id="Layer_1" enable-background="new 0 0 512 512" height="512" viewBox="0 0 512 512" width="512" xmlns="http://www.w3.org/2000/svg"><path d="m451 152v-15c0-52.804-39.183-96.623-90-103.924v-33.076h-30v33.076c-50.817 7.301-90 51.12-90 103.924v15h90v30h-123.289l-30-120h-116.711v30h93.288l22.5 90h-31.248l-3.579 9.9c-13.713 37.929-20.961 81.187-20.961 125.1 0 71.852 19.515 140.618 53.54 188.668l4.483 6.332h213.953l4.483-6.332c34.026-48.05 53.541-116.816 53.541-188.668 0-43.913-7.248-87.171-20.961-125.1l-3.579-9.9h-65.46v-30zm-240 98.787-38.788-38.787h77.575zm75-32.574 53.787 53.787-53.787 53.787-53.787-53.787zm-96.213 53.787-38.729 38.729c.403-23.802 3.104-47.263 7.941-69.517zm-32.574 75 53.787-53.787 53.787 53.787-53.787 53.787zm32.574 75-16.938 16.938c-5.911-15.09-10.707-31.251-14.278-48.155zm96.213-53.787 53.787 53.787-53.787 53.787-53.787-53.787zm21.213-21.213 53.787-53.787 53.787 53.787-53.787 53.787zm106.216 43.784c-3.571 16.904-8.367 33.065-14.278 48.155l-16.938-16.939zm-31.216-118.784 30.788-30.788c4.836 22.253 7.538 45.714 7.941 69.517zm-21.213-21.213-38.787-38.787h77.575zm-174.686 217.111 24.686-24.685 38.787 38.787h-55.064c-2.941-4.515-5.74-9.228-8.409-14.102zm135.899 14.102 38.787-38.787 24.686 24.686c-2.669 4.874-5.468 9.587-8.408 14.102h-55.065zm23.787-420c36.219 0 66.523 25.809 73.493 60h-146.986c6.97-34.191 37.274-60 73.493-60z"/><path d="m271 407h30v30h-30z"/><path d="m346 332h30v30h-30z"/><path d="m196 332h30v30h-30z"/><path d="m271 257h30v30h-30z"/></svg>