<svg id="Layer_1" enable-background="new 0 0 512 512" height="512" viewBox="0 0 512 512" width="512" xmlns="http://www.w3.org/2000/svg"><path d="m213.066 184.574c0-20.963 0-170.907 0-184.574h-90v184.574c0 23.353-9.094 45.307-25.606 61.819-22.179 22.179-34.394 51.667-34.394 83.033v182.574h210v-182.574c0-31.366-12.215-60.854-34.394-83.033-16.513-16.512-25.606-38.467-25.606-61.819zm-30-154.574v30h-30v-30zm-30 60h30v30h-30zm30 60v34.574c0 18.883 4.433 37.082 12.795 53.418l-27.795 27.795-27.795-27.795c8.362-16.336 12.795-34.535 12.795-53.418v-34.574zm-90 212h90v60h-90zm150 120h-150v-30h120v-120h-120v-2.574c0-23.353 9.094-45.307 25.606-61.819 1.471-1.471 2.895-2.976 4.277-4.51l45.116 45.116 45.116-45.116c1.383 1.534 2.806 3.039 4.277 4.51 16.513 16.512 25.606 38.467 25.606 61.819v152.574z"/><path d="m448.753 376.083-11.721-164.083h-117.933l-11.721 164.084c-2.487 34.818 20.855 66.701 55.688 74.287v31.629h-30v30h90v-30h-30v-31.629c34.797-7.578 58.176-39.432 55.687-74.288zm-39.654-134.083 2.143 30h-66.353l2.143-30zm-31.033 180c-23.6 0-42.465-19.96-40.764-43.779l5.444-76.221h70.638l5.445 76.221c1.682 23.541-16.883 43.779-40.763 43.779z"/></svg>