<svg id="Layer_1" enable-background="new 0 0 512 512" height="512" viewBox="0 0 512 512" width="512" xmlns="http://www.w3.org/2000/svg"><path d="m492.606 319.394c-6.839-6.84-10.606-15.934-10.606-25.607v-113.787h-90v113.787c0 9.673-3.767 18.767-10.606 25.607-12.507 12.505-19.394 29.133-19.394 46.819v8.828c-12.544-9.438-28.129-15.041-45-15.041h-17v-30h-31.586c16.63-16.281 27.886-38.03 30.823-62.308 17.857-5.97 30.763-22.853 30.763-42.692v-90c0-41.355-33.645-75-75-75h-47.58c-6.192-17.458-22.865-30-42.42-30h-30c-8.271 0-15-6.729-15-15v-15h-15c-41.355 0-75 33.645-75 75 0 36.219 25.808 66.522 60 73.491v34.08c-17.461 6.191-30 22.874-30 42.43 0 19.839 12.906 36.722 30.763 42.692 2.937 24.277 14.193 46.026 30.823 62.307h-31.586v30h-15c-41.355 0-75 33.645-75 75v77h512v-145.787c0-17.686-6.887-34.314-19.394-46.819zm-10.606 70.606v30h-90v-30zm-30-180v30h-30v-30zm-30 83.787v-23.787h30v23.787c0 17.687 6.887 34.314 19.394 46.82 5.351 5.351 8.811 12.085 10.068 19.394h-88.923c1.257-7.309 4.717-14.042 10.068-19.394 12.506-12.506 19.393-29.134 19.393-46.82zm-212 66.213v30h-30v-30zm-43.153 60h56.306l14.351 3.588-22.758 58.412h-39.492l-22.758-58.412zm73.153-26.712v-33.288h30v40.789zm60-258.288v47.57c-4.693-1.664-9.743-2.57-15-2.57-8.271 0-15-6.729-15-15 0-24.813-20.187-45-45-45h-15v-30h45c24.813 0 45 20.187 45 45zm-240-60c0-20.718 14.075-38.211 33.164-43.421 6.615 16.632 22.875 28.421 41.836 28.421h30c8.271 0 15 6.729 15 15v45h-75c-24.813 0-45-20.187-45-45zm60 180v-15h-15c-8.271 0-15-6.729-15-15s6.729-15 15-15h15v-60h105c8.271 0 15 6.729 15 15 0 24.813 20.187 45 45 45 8.271 0 15 6.729 15 15s-6.729 15-15 15h-15v15c0 41.355-33.645 75-75 75s-75-33.645-75-75zm0 105h30v33.288l-30 7.5zm-90 75c0-24.813 20.187-45 45-45h15v49.211l33.157-8.289 19.9 51.078h-113.057zm216.942 47 19.9-51.078 33.158 8.289v-49.211h17c24.813 0 45 20.187 45 45v47zm145.058 0v-32h90v32z"/></svg>