<svg id="Layer_1" enable-background="new 0 0 512 512" height="512" viewBox="0 0 512 512" width="512" xmlns="http://www.w3.org/2000/svg"><path d="m430.729 60.5c.588-5.299.432-10.432-.461-15.495l-5.212-29.541-29.543 5.207c-5.062.892-9.936 2.5-14.716 4.866l-36.471-25.537-8.604 12.288c-15.957 22.789-13.851 44.645-12.007 58.466-18.369-1.199-34.577 8.063-48.218 27.544-15.964 22.799-26.743 55.607-28.28 83.701h-57.967l-27.5-120h-116.951v30h93.049l20.625 90h-83.674v45c0 75.387 50.82 139.126 120 158.762v45.493c-16.867 7.465-31.531 19.282-43.702 35.241-7.404 9.709-19.104 15.505-31.298 15.505h-15v30h270v-30h-15c-12.194 0-23.894-5.797-31.298-15.506-12.171-15.963-26.835-27.781-43.702-35.245v-45.487c69.18-19.636 120-83.375 120-158.762v-45h-4.846c12.288-18.617 14.916-36.224 7.809-52.396 13.619-2.995 34.876-8.491 50.834-31.28l8.604-12.288zm-55.93 151.5v15c0 5.07-.291 10.073-.838 15h-170.961l-6.875-30zm-270 0h60.549l6.875 30h-66.586c-.547-4.927-.838-9.93-.838-15zm160.404 243.845c14.36 4.622 26.9 13.414 37.321 26.154h-125.447c10.42-12.735 22.96-21.526 37.32-26.151l10.402-3.35v-61.188c4.942.447 9.943.689 15 .689s10.058-.242 15-.689v61.186zm-25.404-93.845c-58.667 0-108.704-37.62-127.278-90h254.557c-18.575 52.379-68.612 90-127.279 90zm37.46-180c1.564-22.081 10.463-48.856 22.813-66.494 14.153-20.21 23.754-19.991 54.069 1.236 30.316 21.228 33.807 30.175 19.655 50.386-3.389 4.84-7.737 9.904-12.744 14.872zm122.231-81.296c-4.19.909-8.442 1.84-12.383 3.369-5.126-4.326-10.554-8.261-15.76-11.905-5.205-3.645-10.759-7.399-16.576-10.737.089-4.227-.491-8.541-1.07-12.79-1.063-7.81-2.223-16.316.124-25.366l10.157 7.112c1.895 1.327 2.906 2.384 14.235 13.172l10.144-7.554c4.334-3.227 8.261-5.067 12.359-5.789.723 4.101.341 8.421-1.21 13.595l-3.63 12.116c13.272 6.589 15.301 7.51 17.249 8.874l10.155 7.111c-7.7 5.299-16.09 7.12-23.794 8.792z"/></svg>