<svg id="Layer_1" enable-background="new 0 0 512 512" height="512" viewBox="0 0 512 512" width="512" xmlns="http://www.w3.org/2000/svg"><path d="m451 105c0-13.914-7.993-26.399-21.598-34.715 3.687-15.446.552-29.822-9.156-39.534-9.71-9.706-24.084-12.841-39.53-9.153-8.317-13.605-20.801-21.598-34.716-21.598s-26.399 7.993-34.715 21.598c-15.448-3.687-29.822-.551-39.534 9.157-9.706 9.708-12.84 24.084-9.153 39.53-8.469 5.176-14.759 11.969-18.305 19.715h-51.875l-13.5-90h-117.918v30h92.082l9 60h-71.082v422h270v-305.293c7.746-3.545 14.539-9.836 19.715-18.305 15.448 3.687 29.823.551 39.534-9.157 9.706-9.708 12.84-24.084 9.153-39.53 13.606-8.316 21.598-20.8 21.598-34.715zm-206.707 15c3.545 7.746 9.836 14.539 18.305 19.715-.835 3.499-1.302 6.938-1.439 10.285h-59.74l-4.5-30zm-77.711 0 4.5 30h-50.082v-30zm-45.582 362v-45.041c12.544 9.438 28.129 15.041 45 15.041h120c16.871 0 32.456-5.603 45-15.041v45.041zm165-60h-120c-24.813 0-45-20.187-45-45v-197h151.562c9.69 9.099 23.692 11.99 38.722 8.402 5.177 8.469 11.969 14.76 19.716 18.305v170.293c0 24.813-20.187 45-45 45zm119.965-304.377-16.628 5.402 7.867 15.613c4.668 9.266 4.453 16.771 1.831 19.394-2.624 2.624-10.131 2.839-19.397-1.829l-15.614-7.866-5.401 16.628c-3.207 9.871-8.777 15.035-12.623 15.035s-9.416-5.164-12.622-15.034l-5.401-16.628-15.614 7.866c-9.265 4.668-16.771 4.454-19.395 1.832-2.625-2.625-2.84-10.131 1.828-19.397l7.867-15.613-16.628-5.402c-9.871-3.207-15.035-8.778-15.035-12.624s5.164-9.417 15.035-12.623l16.627-5.402-7.866-15.613c-4.668-9.266-4.453-16.771-1.831-19.394 2.624-2.624 10.131-2.84 19.397 1.829l15.614 7.866 5.401-16.628c3.207-9.871 8.777-15.035 12.623-15.035s9.416 5.164 12.622 15.034l5.401 16.628 15.614-7.866c9.265-4.668 16.771-4.454 19.395-1.832 2.625 2.625 2.84 10.131-1.828 19.397l-7.866 15.613 16.627 5.402c9.871 3.207 15.035 8.778 15.035 12.624s-5.164 9.417-15.035 12.623z"/><path d="m331 90h30v30h-30z"/><path d="m151 210h30v30h-30z"/><path d="m181 300h30v30h-30z"/><path d="m211 240h30v30h-30z"/></svg>