<svg id="Layer_1" enable-background="new 0 0 512 512" height="512" viewBox="0 0 512 512" width="512" xmlns="http://www.w3.org/2000/svg"><path d="m451 150v-15c0-52.805-39.183-96.623-90-103.924v-31.076h-30v31.076c-50.817 7.301-90 51.119-90 103.924v15h90v30h-114.188l-40-120h-115.812v30h94.188l30 90h-64.188v75c0 41.355 33.645 75 75 75h16.507c5.981 29.341 29.153 52.492 58.493 58.475v35.03c-24.311 4.907-44.854 21.573-54.484 45.223-3.284 8.063-11.03 13.272-19.734 13.272h-15.782v30h210v-30h-15c-9.102 0-17.244-5.429-20.746-13.832-9.721-23.328-30.167-39.778-54.254-44.657v-35.037c29.341-5.982 52.512-29.134 58.493-58.475h16.507c41.355 0 75-33.645 75-75v-75h-90v-30h90zm-255.812 60 10 30h-54.188v-30zm132.375 269.707c.324.777.67 1.539 1.027 2.293h-85.136c.294-.645.578-1.296.847-1.958 6.936-17.035 23.304-28.042 41.699-28.042 18.234 0 34.549 10.875 41.563 27.707zm48.437-179.707h-45v15c0 24.813-20.187 45-45 45s-45-20.187-45-45v-15h-45c-19.555 0-36.228-12.542-42.42-30h264.84c-6.192 17.458-22.865 30-42.42 30zm45-60h-184.188l-10-30h194.188zm-75-180c36.219 0 66.523 25.809 73.493 60h-146.986c6.97-34.191 37.274-60 73.493-60z"/></svg>