<svg id="Layer_1" enable-background="new 0 0 512.008 512.008" height="512" viewBox="0 0 512.008 512.008" width="512" xmlns="http://www.w3.org/2000/svg"><path d="m512.008 227.004v-15h-147.728l30-212h-214.544l30 212h-147.728v15c0 31.559 19.603 58.608 47.264 69.662l-109.272 109.272 106.066 106.066 56.139-56.139 185.043-15.337 144.712-144.712-9.335-9.334c18.057-13.933 29.383-35.783 29.383-59.478zm-152.272-197-4.245 30h-136.966l-4.245-30zm-136.966 60h128.475l-17.264 122h-93.946zm-128.192 151.99h384.833c-4.123 11.571-12.891 21.184-24.316 26.216-20.066-7.638-42.766-6.382-61.953 3.794h-256.134c-19.556 0-36.239-12.549-42.43-30.01zm263.914 60.01-23.574 23.574c-2.514-8.478-6.534-16.44-11.91-23.574zm-24.681 109.535-185.043 15.337-42.702 42.702-63.639-63.64 103.905-103.935h116.705c19.892 0 36.369 12.845 42.421 30.002h-117.45v29.99c.112 0 152.738.005 152.886.005l55.606-55.577c13.829-13.83 34.493-16.759 51.216-8.789z"/></svg>