<svg id="Layer_1" enable-background="new 0 0 511.998 511.998" height="512" viewBox="0 0 511.998 511.998" width="512" xmlns="http://www.w3.org/2000/svg"><path d="m359.268 3.679-13.665-3.679-50.566 151.998h-132.868v-30h112.339l-127.339-121.997-127.34 121.997h112.339v30h-71.14l-3.619 9.808c-10.113 27.41-15.241 54.391-15.241 80.192 0 31.979 7.661 59.982 22.771 83.234 32.829 50.517 54.815 73.397 61.769 129.016l7.218 57.75h146.484l7.218-57.749c6.957-55.652 29.018-78.62 61.769-129.017 15.11-23.251 22.771-51.255 22.771-83.234 0-11.134-.96-22.488-2.857-34h121.347l.88-14.063c.332-5.305.63-10.515.63-15.937.001-81.569-54.65-153.252-132.9-174.319zm-212.099 37.868 52.661 50.451h-105.322zm184.992 140.451c3.217 10.058 5.68 20.123 7.359 30h-264.702c1.68-9.877 4.143-19.942 7.36-30zm-171.751 300-3.749-30h101.015l-3.749 30zm163.833-173.113c-26.978 41.512-49.705 68.25-61.079 113.113h-111.99c-11.363-44.816-33.947-71.362-61.079-113.113-11.895-18.304-17.926-40.819-17.926-66.897h270c0 26.079-6.032 48.593-17.926 66.897zm32.687-147.079-3.619-9.808h-26.658l19.129-57.499c33.773 13.507 56.387 46.141 56.387 83.499h-39.837c-1.608-5.377-3.404-10.776-5.402-16.192zm75.239 16.192c0-49.214-30.244-93.889-76.917-111.966l9.67-29.067c57.907 21.678 97.247 77.784 97.247 141.033z"/><path d="m132.169 271.998h30v30h-30z"/><path d="m162.169 361.998h30v30h-30z"/><path d="m192.169 301.998h30v30h-30z"/></svg>