<svg id="Layer_1" enable-background="new 0 0 512 512" height="512" viewBox="0 0 512 512" width="512" xmlns="http://www.w3.org/2000/svg"><path d="m181 271c0 20.271 13.472 37.455 31.934 43.066 4.156 13.673 14.662 24.602 28.066 29.356v32.578h-30v30h90v-30h-30v-32.578c13.404-4.754 23.91-15.683 28.066-29.356 18.461-5.611 31.934-22.795 31.934-43.066v-45h-150zm30-15h90v15c0 8.271-6.729 15-15 15h-15v15c0 8.271-6.729 15-15 15s-15-6.729-15-15v-15h-15c-8.271 0-15-6.729-15-15z"/><path d="m480.066 167.934c-5.612-18.462-22.795-31.934-43.066-31.934h-15v-30h60v-90h-452v90h60v30h-15c-20.271 0-37.455 13.472-43.066 31.934-18.462 5.611-31.934 22.795-31.934 43.066v210c0 20.271 13.472 37.455 31.934 43.066 5.611 18.462 22.795 31.934 43.066 31.934h362c20.271 0 37.454-13.472 43.066-31.934 18.461-5.611 31.934-22.795 31.934-43.066v-210c0-20.271-13.473-37.455-31.934-43.066zm-420.066-121.934h392v30h-392zm60 60h272v30h-272zm362 315c0 8.271-6.729 15-15 15h-15v15c0 8.271-6.729 15-15 15h-362c-8.271 0-15-6.729-15-15v-15h-15c-8.271 0-15-6.729-15-15v-210c0-8.271 6.729-15 15-15h15v-15c0-8.271 6.729-15 15-15h362c8.271 0 15 6.729 15 15v15h15c8.271 0 15 6.729 15 15z"/><path d="m392 406h30v30h-30z"/><path d="m392 301h30v30h-30z"/><path d="m90 301h30v30h-30z"/><path d="m392 196h30v30h-30z"/><path d="m90 196h30v30h-30z"/><path d="m90 406h30v30h-30z"/></svg>