<svg id="Layer_1" enable-background="new 0 0 512 512" height="512" viewBox="0 0 512 512" width="512" xmlns="http://www.w3.org/2000/svg"><path d="m481 30v-30h-117.297l-18 90h-89.744c9.438-12.544 15.041-28.129 15.041-45v-15h-45c-22.789 0-43.222 10.23-56.988 26.323-17.578-33.452-52.672-56.323-93.012-56.323h-45v15c0 29.354 12.113 55.927 31.596 75h-1.596v45c0 45.056 28.338 82.505 67.392 97.587 10.281 26.854 30.87 48.25 57.451 59.381 15.047 6.302 25.157 23.018 25.157 41.596v97.69c-16.867 7.464-31.532 19.282-43.703 35.241-7.403 9.709-19.104 15.505-31.297 15.505h-15v30h270v-30h-15c-12.194 0-23.894-5.797-31.298-15.506-12.171-15.963-26.835-27.781-43.702-35.245v-97.685c0-18.579 10.11-35.295 25.157-41.596 26.581-11.13 47.17-32.527 57.451-59.381 39.043-15.078 67.392-52.519 67.392-97.587v-45h-74.703l12-60zm-255 30h12.43c-6.19 17.461-22.873 30-42.43 30h-12.43c6.191-17.461 22.873-30 42.43-30zm-163.493-30h13.493c36.219 0 66.523 25.809 73.493 60h-13.493c-36.219 0-66.523-25.809-73.493-60zm277.196 90-6 30h-241.194c-.99-4.859-1.509-9.876-1.509-15v-15zm-20.978 362h-125.448c10.421-12.735 22.961-21.526 37.321-26.151l10.402-3.349v-92.5h30v92.497l10.404 3.349c14.36 4.621 26.901 13.414 37.321 26.154zm48.748-275.57-7.72 2.322-2.323 7.72c-6.536 21.724-22.158 39.155-42.86 47.824-25.448 10.657-42.229 36.204-43.486 65.704h-30.169c-1.257-29.5-18.037-55.047-43.485-65.704-20.702-8.669-36.324-26.1-42.86-47.824l-2.323-7.72-7.72-2.322c-15.797-4.753-29.029-14.155-38.389-26.43h299.723c-9.36 12.275-22.591 21.677-38.388 26.43zm53.527-86.43v15c0 5.124-.518 10.141-1.509 15h-55.194l6-30z"/></svg>