<svg id="Layer_1" enable-background="new 0 0 512 512" height="512" viewBox="0 0 512 512" width="512" xmlns="http://www.w3.org/2000/svg"><path d="m391 0c-40.34 0-75.434 22.871-93.012 56.323-13.766-16.093-34.199-26.323-56.988-26.323h-45v15c0 16.871 5.603 32.456 15.041 45h-52.013l-55.547-83.32-24.962 16.64 44.453 66.68h-46.972v105c0 40.647 23.882 77.495 60.383 94.672 3.307 33.92 27.684 62.421 59.617 68.844v64.989c-24.311 4.907-44.853 21.574-54.484 45.224-3.283 8.062-11.029 13.271-19.733 13.271h-15.783v30h210v-30h-15c-9.101 0-17.245-5.43-20.746-13.832-9.721-23.328-30.167-39.778-54.254-44.657v-65.067c33.531-6.828 57.827-35.262 59.862-68.888 36.362-17.227 60.138-54 60.138-94.556v-76.076c50.816-7.301 90-51.119 90-103.924v-15zm-162.43 60h12.43c19.556 0 36.239 12.539 42.43 30h-12.43c-19.556 0-36.239-12.539-42.43-30zm87.43 60v60h-62.58c-6.192-17.458-22.865-30-42.42-30-3.813 0-7.515.48-11.053 1.378l-20.919-31.378zm-105 60c8.271 0 15 6.729 15 15s-6.729 15-15 15-15-6.729-15-15 6.729-15 15-15zm-68.028-60 32.024 48.036c-2.708 3.607-4.881 7.636-6.416 11.964h-62.58v-60zm109.59 359.708c.324.776.67 1.538 1.027 2.292h-85.136c.294-.645.578-1.296.847-1.958 6.938-17.035 23.306-28.042 41.7-28.042 18.234 0 34.548 10.875 41.562 27.708zm13.414-214.353-9.976 3.547v16.098c0 26.942-23.915 49.049-52.668 44.374-21.283-3.463-37.332-23.92-37.332-47.585v-12.887l-9.976-3.546c-25.064-8.91-43.23-30.198-48.47-55.355h61.026c6.192 17.458 22.865 30 42.42 30s36.228-12.551 42.42-30.01h61.026c-5.241 25.157-23.407 46.454-48.47 55.364zm65.024-175.355h-13.493c6.969-34.191 37.274-60 73.493-60h13.493c-6.969 34.191-37.274 60-73.493 60z"/></svg>