<svg id="Layer_1" enable-background="new 0 0 512 512" height="512" viewBox="0 0 512 512" width="512" xmlns="http://www.w3.org/2000/svg"><path d="m391 0c-52.804 0-96.623 39.184-103.924 90h-271.076v45c0 45.064 28.345 82.508 67.392 97.587 10.28 26.853 30.87 48.25 57.451 59.381 15.047 6.302 25.157 23.018 25.157 41.597v97.689c-16.867 7.465-31.531 19.282-43.702 35.241-7.404 9.709-19.104 15.505-31.298 15.505h-15v30h270v-30h-15c-12.194 0-23.894-5.797-31.297-15.506-12.172-15.963-26.836-27.781-43.703-35.245v-97.684c0-18.579 10.11-35.295 25.157-41.597 26.581-11.131 47.17-32.528 57.451-59.381 13.691-5.287 26.249-13.448 36.653-23.767 5.195.782 10.46 1.18 15.739 1.18 57.897 0 105-47.103 105-105s-47.103-105-105-105zm72.429 124.444-47.107-23.553 37.22-37.22c7.864 11.859 12.458 26.065 12.458 41.329 0 6.724-.903 13.239-2.571 19.444zm-31.099-81.986-37.22 37.22-23.553-47.107c6.204-1.668 12.719-2.571 19.443-2.571 15.264 0 29.47 4.594 41.33 12.458zm-87.586 3.571 21.986 43.971h-49.221c3.613-17.725 13.507-33.18 27.235-43.971zm-298.744 73.971h330v15c0 5.124-.518 10.141-1.509 15h-326.982c-.991-4.859-1.509-9.876-1.509-15zm227.725 362h-125.447c10.42-12.735 22.96-21.526 37.32-26.151l10.402-3.349v-92.5h30v92.497l10.404 3.349c14.361 4.622 26.901 13.415 37.321 26.154zm48.747-275.57-7.72 2.322-2.322 7.72c-6.536 21.724-22.158 39.155-42.861 47.825-25.446 10.657-42.227 36.203-43.484 65.703h-30.169c-1.257-29.5-18.038-55.046-43.485-65.703-20.703-8.669-36.325-26.101-42.861-47.825l-2.322-7.72-7.72-2.322c-15.797-4.753-29.029-14.155-38.389-26.43h299.723c-9.361 12.275-22.593 21.677-38.39 26.43zm73.425-26.607c6.648-13.875 10.103-29.067 10.103-44.823v-5.729l43.971 21.985c-12.796 16.279-32.162 27.146-54.074 28.567z"/></svg>