<svg id="Layer_1" enable-background="new 0 0 512 512" height="512" viewBox="0 0 512 512" width="512" xmlns="http://www.w3.org/2000/svg"><path d="m421 182v-30h-34.188l-12.905-38.717c-9.132-27.395-32.918-46.748-60.932-50.575l-15.171-62.708h-83.607l-15.171 62.708c-28.013 3.828-51.8 23.181-60.932 50.576l-12.906 38.716h-34.188v30h31.574l21.109 189.985c5.112 46.005 18.2 90.324 38.9 131.724l4.146 8.292h138.541l4.146-8.292c20.7-41.4 33.788-85.718 38.9-131.724l21.11-189.985zm-146.804-152 7.742 32h-51.877l7.742-32zm-107.641 92.77c6.135-18.405 23.291-30.77 42.69-30.77h93.51c19.399 0 36.556 12.365 42.69 30.77l9.743 29.23h-198.376zm161.917 299.23h-144.944c-4.655-17.437-8.018-35.239-10.028-53.328l-14.074-126.672h193.149l-14.075 126.672c-2.01 18.089-5.372 35.891-10.028 53.328zm-123.072 60c-4.611-9.835-8.747-19.845-12.436-30h126.072c-3.69 10.155-7.826 20.165-12.437 30zm150.508-270h-199.816l-3.333-30h206.482z"/><path d="m472.419 191.581-21.213 21.214c19.857 19.856 30.794 46.21 30.794 74.205s-10.937 54.349-30.794 74.206l21.213 21.214c25.524-25.524 39.581-59.412 39.581-95.42s-14.057-69.896-39.581-95.419z"/><path d="m430.033 233.967-21.213 21.213c8.499 8.5 13.18 19.8 13.18 31.82s-4.681 23.32-13.18 31.82l21.213 21.213c14.166-14.166 21.967-33 21.967-53.033s-7.801-38.867-21.967-53.033z"/><path d="m60.794 212.794-21.213-21.214c-25.524 25.524-39.581 59.412-39.581 95.42s14.057 69.896 39.581 95.419l21.213-21.214c-19.857-19.856-30.794-46.21-30.794-74.205s10.937-54.349 30.794-74.206z"/><path d="m81.967 233.967c-14.166 14.166-21.967 33-21.967 53.033s7.801 38.867 21.967 53.033l21.213-21.213c-8.499-8.5-13.18-19.8-13.18-31.82s4.681-23.32 13.18-31.82z"/></svg>