<svg id="Capa_1" enable-background="new 0 0 512 512" height="512" viewBox="0 0 512 512" width="512" xmlns="http://www.w3.org/2000/svg"><path d="m162.688 120h-55.73l30.021 81.156c8.844 23.909 8.332 50.948-1.442 76.135-6.99 18.012-8.804 37.818-5.246 57.276 7.725 42.244 43.222 78.145 88.209 84.369v63.064h-75v30h180v-30h-75v-63.136c19.22-2.77 37.42-10.757 52.527-23.456 23.815-20.017 37.473-49.325 37.473-80.408 0-14.501-2.931-28.554-8.712-41.769-4.953-11.324-7.148-24.083-6.645-37.522 10.159 2.882 20.4 4.323 30.509 4.323 19.717-.001 38.93-5.464 56.034-16.315 30.566-19.394 48.814-52.559 48.814-88.717 0-57.897-47.103-105-105-105-52.804 0-96.623 39.183-103.924 90h-55.264l-40-120h-100.812v30h79.188zm10 30 10 30h-21.549l-11.097-30zm47.167 238.804c-29.892-5.218-54.587-29.74-60.053-59.633-2.56-14-1.279-28.187 3.703-41.027 9.893-25.494 12.263-52.612 7.077-78.145h125.748c-5.843 26.639-3.859 52.776 5.974 75.254 4.112 9.401 6.197 19.409 6.197 29.746-.001 45.34-40.541 82.205-88.646 73.805zm133.645-328.804c41.355 0 75 33.645 75 75 0 25.83-13.042 49.525-34.886 63.385-19.257 12.217-42.475 14.794-65.176 7.57 2.026-6.446.692-2.178 31.604-85.954h-80.033c6.969-34.193 37.272-60.001 73.491-60.001zm-36.542 90-11.097 30h-91.549l-10-30z"/></svg>