<svg id="Capa_1" enable-background="new 0 0 512 512" height="512" viewBox="0 0 512 512" width="512" xmlns="http://www.w3.org/2000/svg"><g><path d="m330.988 302h-150v90h150zm-30 60h-90v-30h90z"/><path d="m158.33 512h195.387l73.206-102.733c16.407-23.025 18.52-52.923 5.513-78.028l-64.737-124.941c-7.764-14.987-23.075-24.298-39.955-24.298h-26.756c0-5.874 0-158.007 0-182h-90v182h-26.659c-16.97 0-32.317 9.383-40.052 24.486l-64.869 126.654c-12.932 25.248-10.628 55.206 6.01 78.181zm82.658-482h30v30h-30zm-134.879 316.816 64.869-126.654c2.579-5.035 7.694-8.162 13.351-8.162h56.659v-122h30v122h56.756c5.627 0 10.73 3.103 13.318 8.099l64.737 124.941c7.804 15.063 6.536 33.002-3.308 46.817l-64.233 90.143h-164.613l-63.929-88.275c-9.984-13.786-11.366-31.76-3.607-46.909z"/></g></svg>