<svg id="Capa_1" enable-background="new 0 0 512 512" height="512" viewBox="0 0 512 512" width="512" xmlns="http://www.w3.org/2000/svg"><path d="m150.992 268.491v78.356l15 60v105.153h180v-105.153l15-60c0-16.132 0-145.617 0-166.847h-39.119c-.657-2.313-1.494-4.591-2.53-6.813-5.08-10.894-14.098-19.157-25.394-23.268-7.789-2.835-11.801-11.434-8.964-19.226 2.829-7.772 11.452-11.795 19.226-8.965l56.382 20.521c23.316 8.486 49.189-3.578 57.677-26.895 4.11-11.295 3.577-23.515-1.502-34.409-5.08-10.894-14.098-19.157-25.394-23.269-3.765-1.37-6.771-4.125-8.465-7.756-1.692-3.631-1.871-7.704-.5-11.469l10.261-28.191-28.19-10.26-10.261 28.191c-4.111 11.295-3.577 23.515 1.503 34.409s14.099 19.157 25.394 23.268c7.789 2.835 11.801 11.434 8.964 19.226-2.829 7.772-11.449 11.795-19.226 8.965l-56.382-20.521c-23.314-8.486-49.188 3.579-57.677 26.895-4.111 11.295-3.577 23.515 1.502 34.409 5.08 10.894 14.098 19.157 25.394 23.269 1.292.47 2.486 1.114 3.577 1.89h-47.784c-6.968-34.192-37.271-60-73.491-60-41.355 0-75 33.645-75 75-.001 36.219 25.807 66.522 59.999 73.49zm30 1.509v-60h107.053l-21.838 60zm150 73.153-15 60v78.847h-120v-78.847l-15-60v-43.153h150zm0-73.153h-32.859l21.838-60h11.021zm-165-120c19.555 0 36.228 12.541 42.42 30h-57.42v57.42c-17.459-6.192-30-22.865-30-42.42 0-24.813 20.187-45 45-45z"/></svg>