<svg id="Capa_1" enable-background="new 0 0 512 512" height="512" viewBox="0 0 512 512" width="512" xmlns="http://www.w3.org/2000/svg"><g><path d="m151 467c0 24.813 20.187 45 45 45h120c24.813 0 45-20.187 45-45 0-14.798-2.044-29.216-4.208-44.48-2.497-17.61-5.079-35.819-5.079-57.531 0-20.493 1.983-38.566 4.083-57.7 2.439-22.235 5.204-47.435 5.204-80.289 0-36.219-25.81-66.524-60-73.493 0-22.074 0-130.397 0-153.507h-90v153.507c-34.19 6.969-60 37.275-60 73.493 0 32.854 2.765 58.054 5.204 80.288 2.1 19.134 4.083 37.207 4.083 57.7 0 21.712-2.582 39.921-5.079 57.531-2.164 15.265-4.208 29.683-4.208 44.481zm175.421-45h-140.842c2.331-16.604 4.708-35.27 4.708-57.011 0-22.134-2.07-41-4.262-60.973-2.058-18.755-4.168-38.059-4.818-62.016h149.585c-.65 23.957-2.76 43.261-4.818 62.016-2.191 19.973-4.262 38.838-4.262 60.973.001 21.741 2.378 40.407 4.709 57.011zm-10.421 60h-120c-8.271 0-15-6.729-15-15 0-4.945.281-9.91.742-15h148.516c.461 5.09.742 10.055.742 15 0 8.271-6.729 15-15 15zm-75-452h30v30h-30zm-15 152h15v-92h30v92h15c19.555 0 36.228 12.541 42.42 30h-144.84c6.192-17.459 22.865-30 42.42-30z"/><path d="m256 272c-25.233 0-45 26.355-45 60s19.767 60 45 60 45-26.355 45-60-19.767-60-45-60zm0 90c-6.116 0-15-11.687-15-30s8.884-30 15-30 15 11.687 15 30-8.884 30-15 30z"/></g></svg>