<svg id="Capa_1" enable-background="new 0 0 512 512" height="512" viewBox="0 0 512 512" width="512" xmlns="http://www.w3.org/2000/svg"><g><path d="m211 0v130.787l-60.633 60.633 24.411 244.116-8.778 29.263v47.201h180v-47.201l-8.778-29.263 24.411-244.116-60.633-60.633v-130.787zm60 30v30h-30v-30zm59.367 172.58-23.588 235.884 9.221 30.738v12.798h-120v-12.798l9.221-30.738-23.588-235.884 59.367-59.367v-53.213h30v53.213z"/><path d="m220.86 243.396c-6.359 15.896-9.86 36.708-9.86 58.604s3.501 42.708 9.86 58.604c10.927 27.317 26.706 31.396 35.14 31.396s24.213-4.079 35.14-31.396c6.359-15.896 9.86-36.708 9.86-58.604s-3.501-42.708-9.86-58.604c-10.927-27.317-26.706-31.396-35.14-31.396s-24.213 4.079-35.14 31.396zm50.14 58.604c0 35.208-10.091 55.76-15 59.625-4.909-3.865-15-24.417-15-59.625s10.091-55.76 15-59.625c4.909 3.865 15 24.417 15 59.625z"/></g></svg>