<svg id="Capa_1" enable-background="new 0 0 512.142 512.142" height="512" viewBox="0 0 512.142 512.142" width="512" xmlns="http://www.w3.org/2000/svg"><path d="m301.071 141.142v-31.368c14.318-.921 28.864-2.355 43.442-4.285l76.558 26.796v-132.285l-76.528 26.785c-27.245-3.695-57.741-5.643-88.472-5.643s-61.227 1.948-88.472 5.643l-76.528-26.785v132.285l76.558-26.796c14.577 1.93 29.124 3.364 43.442 4.285v31.368c0 19.555 12.542 36.228 30 42.42l.001 59.172c0 6.876-4.617 12.838-11.227 14.496-23.598 5.922-48.774 13.912-48.774 33.882 0 9.72 5.401 22.265 31.132 26.825 12.313 2.182 28.113 2.683 43.393 3.167 11.168.354 22.716.72 32.034 1.737 1.921.21 3.618.434 5.114.663-1.835.569-4.031 1.162-6.657 1.759-9.973 2.265-22.522 3.78-34.659 5.244-15.407 1.859-29.959 3.615-41.743 6.947-15.374 4.346-28.614 12.749-28.614 28.658 0 9.72 5.401 22.265 31.132 26.825 12.313 2.182 28.113 2.683 43.393 3.167 10.745.341 21.841.692 30.963 1.624-3.201.968-7.017 2.026-11.563 3.167-19.975 5.013-33.925 22.939-33.925 43.594v67.652h30v-67.651c0-6.876 4.617-12.838 11.228-14.497 23.597-5.921 48.772-13.911 48.772-33.881 0-9.72-5.401-22.265-31.133-26.825-12.313-2.182-28.112-2.683-43.392-3.167-10.729-.34-21.808-.691-30.922-1.62 8.546-1.692 18.693-2.916 29.399-4.208 15.942-1.924 32.428-3.914 45.49-7.792 25.257-7.5 30.559-21.208 30.559-31.388 0-9.72-5.401-22.265-31.133-26.825-12.313-2.182-28.112-2.683-43.392-3.167-10.745-.341-21.841-.692-30.964-1.624 3.201-.968 7.019-2.026 11.565-3.167 19.975-5.012 33.925-22.939 33.925-43.594l-.001-59.172c17.458-6.193 29.999-22.866 29.999-42.421zm-30-60.005v60.005c0 8.271-6.729 15-15 15s-15-6.729-15-15v-60.005l-14.393-.583c-19.111-.774-38.813-2.547-58.557-5.271l-3.587-.495-43.463 15.212v-47.715l43.499 15.225 3.623-.518c26.775-3.827 57.163-5.85 87.878-5.85s61.103 2.023 87.878 5.85l3.623.518 43.499-15.225v47.715l-43.463-15.212-3.587.495c-19.744 2.724-39.445 4.498-58.557 5.271z"/></svg>