<svg id="Capa_1" enable-background="new 0 0 512 512" height="512" viewBox="0 0 512 512" width="512" xmlns="http://www.w3.org/2000/svg"><path d="m162.835 121h-64.335v15c0 111.202 25.222 189.192 46.381 235.036 15.828 34.293 31.789 56.343 40.748 67.313l-36.222 73.651h168.186l-36.222-73.652c8.959-10.969 24.921-33.019 40.748-67.313 13.738-29.765 29.181-73.097 38.329-130.256 24.233-1.55 46.885-11.31 64.879-28.19 21.082-19.778 33.173-47.693 33.173-76.589 0-57.897-47.103-105-105-105-52.805 0-96.623 39.183-103.924 90h-55.135l-40.111-121h-100.83v30h79.17zm9.945 30 9.945 30h-52.748c-.643-9.693-1.099-19.679-1.318-30zm24.813 331 15.246-31h41.322l15.246 31zm98.043-125.182c-15.783 34.63-31.717 55.664-38.857 64.182h-46.574c-14.181-16.875-62.909-83.06-77.525-210h201.604c-7.598 65.598-24.154 114.014-38.648 145.818zm57.864-295.818c41.355 0 75 33.645 75 75 0 20.943-8.416 40.373-23.698 54.71-11.326 10.625-25.245 17.292-40.253 19.484 2.492-22.842 3.952-47.554 3.952-74.194v-15h-88.491c6.968-34.192 37.27-60 73.49-60zm-15.161 90c-.223 10.332-.685 20.318-1.333 30h-122.675l-9.945-30z"/></svg>