<svg id="Capa_1" enable-background="new 0 0 512.004 512.004" height="512" viewBox="0 0 512.004 512.004" width="512" xmlns="http://www.w3.org/2000/svg"><path d="m353.502 31c-52.804 0-96.623 39.183-103.924 90h-55.135l-40.111-121h-100.83v30h79.169l30.166 91h-50.302l24.422 390.948 193.604.056 16.567-271.217c2.079.12 4.156.184 6.226.184 23.93-.001 47.101-7.982 65.918-23.119 24.93-20.054 39.229-49.888 39.229-81.852.001-57.897-47.102-105-104.999-105zm-30.944 120-1.833 30h-106.392l-9.945-30zm-149.776 0 9.945 30h-36.384l-1.874-30zm-7.64 330.956-16.926-270.956h170.676l-16.553 270.996zm235.328-287.479c-14.551 11.705-32.81 17.404-51.511 16.361l5.487-89.838h-74.435c6.968-34.192 37.271-60 73.491-60 41.355 0 75 33.645 75 75 0 22.832-10.217 44.146-28.032 58.477z"/></svg>