<svg id="Capa_1" enable-background="new 0 0 512 512" height="512" viewBox="0 0 512 512" width="512" xmlns="http://www.w3.org/2000/svg"><g><path d="m467 76h-135v30h-62v-30h-270v75c0 74.439 60.561 135 135 135s135-60.561 135-135v-15h62v30h135c24.813 0 45-20.187 45-45s-20.187-45-45-45zm-227 30v30h-210v-30zm-105 150c-52.804 0-96.623-39.183-103.924-90h207.848c-7.301 50.817-51.12 90-103.924 90zm332-120h-105v-30h105c8.271 0 15 6.729 15 15s-6.729 15-15 15z"/><path d="m135 304.607c-10.842 15.709-18.387 26.125-27.975 42.653-15.26 26.306-17.025 37.562-17.025 43.74 0 24.813 20.187 45 45 45s45-20.187 45-45c0-6.178-1.765-17.434-17.025-43.74-9.588-16.527-17.133-26.944-27.975-42.653zm0 101.393c-8.267 0-14.994-6.723-15-14.988.128-4.591 6.366-17.659 15.003-32.211 8.637 14.548 14.874 27.615 14.997 32.2 0 8.27-6.729 14.999-15 14.999z"/></g></svg>