<svg id="Capa_1" enable-background="new 0 0 512 512" height="512" viewBox="0 0 512 512" width="512" xmlns="http://www.w3.org/2000/svg"><g><path d="m331 272h-150l60 80v40h-30v30h90v-30h-30v-40zm-60 30-15 20-15-20z"/><path d="m482 30h-452v-30h-30v90h30v-30h60v64.58c-17.459 6.192-30 22.865-30 42.42v30c0 24.813-20.187 45-45 45h-15v210h15c24.813 0 45 20.187 45 45v15h392v-15c0-24.813 20.187-45 45-45h15v-210h-15c-24.813 0-45-20.187-45-45 0-10.492 0-19.508 0-30 0-19.555-12.541-36.228-30-42.42v-64.58h60v30h30v-90h-30zm-392 137c0-8.271 6.729-15 15-15s15 6.729 15 15v15h-30zm392 103.493v153.014c-29.342 5.981-52.513 29.151-58.493 58.493h-335.014c-5.981-29.342-29.151-52.512-58.493-58.493v-153.014c29.342-5.981 52.512-29.151 58.493-58.493h335.014c5.98 29.342 29.151 52.512 58.493 58.493zm-90-88.493v-15c0-8.271 6.729-15 15-15s15 6.729 15 15v15zm0-57.42c-17.459 6.192-30 22.865-30 42.42v15h-212v-15c0-19.555-12.541-36.228-30-42.42v-64.58h272z"/></g></svg>