<svg id="Capa_1" enable-background="new 0 0 512 512" height="512" viewBox="0 0 512 512" width="512" xmlns="http://www.w3.org/2000/svg"><path d="m362 151h60v30h-151v-30h60v-30h-150v30h60v30h-151v-30h60v-30h-150v30h60v30h-60v30h60v31.509c-34.192 6.969-60 37.272-60 73.491v75h150v-75c0-36.219-25.808-66.522-60-73.491v-31.509h151v31.509c-34.192 6.968-60 37.271-60 73.491v75h150v-75c0-36.219-25.808-66.522-60-73.491v-31.509h151v31.509c-34.192 6.968-60 37.271-60 73.491v75h150v-75c0-36.219-25.808-66.522-60-73.491v-31.509h60v-30h-60v-30h60v-30h-150zm-242 165v45h-90v-45c0-24.813 20.187-45 45-45s45 20.187 45 45zm181 0v45h-90v-45c0-24.813 20.187-45 45-45s45 20.187 45 45zm181 0v45h-90v-45c0-24.813 20.187-45 45-45s45 20.187 45 45z"/></svg>