<svg id="Capa_1" enable-background="new 0 0 512 512" height="512" viewBox="0 0 512 512" width="512" xmlns="http://www.w3.org/2000/svg"><g><path d="m211 0v162.452c-36.283 17.442-60 54.207-60 94.548v255h210v-255c0-40.341-23.717-77.106-60-94.548v-162.452zm60 30v30h-30v-30zm60 272v90h-150v-90h60v-15c0-8.271 6.729-15 15-15s15 6.729 15 15v15zm-150 180v-60h150v60zm150-225v15h-32.57c-6.191-17.461-22.874-30-42.43-30s-36.239 12.539-42.43 30h-32.57v-15c0-31.315 20.136-59.645 50.106-70.496l9.894-3.582v-92.922h30v92.922l9.894 3.582c29.97 10.851 50.106 39.181 50.106 70.496z"/><path d="m211 332h90v30h-90z"/></g></svg>