<svg id="Capa_1" enable-background="new 0 0 512 512" height="512" viewBox="0 0 512 512" width="512" xmlns="http://www.w3.org/2000/svg"><g><path d="m166 180c-24.813 0-45 20.187-45 45v287h270v-287c0-24.813-20.187-45-45-45h-30.225c-.906-30.251-4.559-60.402-10.883-90h11.108v-90h-120v90h11.107c-6.323 29.596-9.977 59.748-10.883 90zm-15 121h210v90h-210zm0 181v-61h210v61zm75-452h60v30h-60zm48.17 60c7.844 34.419 11.83 69.691 11.83 105v15h60c8.271 0 15 6.729 15 15v46h-210v-46c0-8.271 6.729-15 15-15h60v-15c0-35.31 3.986-70.583 11.83-105z"/><path d="m196 331h120v30h-120z"/></g></svg>