<svg id="Capa_1" enable-background="new 0 0 512 512" height="512" viewBox="0 0 512 512" width="512" xmlns="http://www.w3.org/2000/svg"><path d="m256 0h-15c-32.178 0-59.68 20.373-70.305 48.894-13.243-11.743-30.645-18.894-49.695-18.894h-45v15c0 41.355 33.645 75 75 75h15v392h270v-422h-87.293l10-60h77.293v-30h-102.707l-15 90h-77.334c9.438-12.544 15.041-28.129 15.041-45zm-105 90c-19.557 0-36.239-12.539-42.43-30h12.43c19.557 0 36.239 12.539 42.43 30zm45-15c0-19.556 12.539-36.239 30-42.43v12.43c0 19.556-12.539 36.239-30 42.43zm0 407v-45.041c12.544 9.438 28.129 15.041 45 15.041h120c16.871 0 32.456-5.603 45-15.041v45.041zm165-60h-120c-24.813 0-45-20.187-45-45v-197h210v197c0 24.813-20.187 45-45 45zm45-302v30h-67.293l5-30zm-97.707 30h-112.293v-30h117.293z"/></svg>