<svg id="Capa_1" enable-background="new 0 0 511.977 511.977" height="512" viewBox="0 0 511.977 511.977" width="512" xmlns="http://www.w3.org/2000/svg"><g><path d="m240.988 240h-30v30h90v-30h-30v-40l60-80h-150l60 80zm30-90-15 20-15-20z"/><path d="m167.792 362.697c37.319 69.061 75.156 128.75 75.534 129.345l12.662 19.934 12.662-19.934c.378-.595 38.215-60.285 75.534-129.345 50.963-94.309 76.804-160.823 76.804-197.697 0-90.981-74.019-165-165-165s-165 74.019-165 165c0 36.874 25.841 103.389 76.804 197.697zm88.196-332.697c74.439 0 135 60.561 135 135 0 58.521-88.135 214.258-135.001 290.647-46.865-76.38-134.999-232.104-134.999-290.647 0-74.439 60.561-135 135-135z"/></g></svg>