<svg id="Capa_1" enable-background="new 0 0 512 512" height="512" viewBox="0 0 512 512" width="512" xmlns="http://www.w3.org/2000/svg"><path d="m166 208.924v303.076h270v-422h-87.293l10-60h77.293v-30h-102.707l-15 90h-33.369c-7.301-50.816-51.119-90-103.924-90-57.897 0-105 47.103-105 105 0 52.804 39.183 96.623 90 103.924zm30 273.076v-45.041c12.544 9.438 28.129 15.041 45 15.041h120c16.871 0 32.456-5.603 45-15.041v45.041zm165-60h-120c-24.813 0-45-20.187-45-45v-197h210v197c0 24.813-20.187 45-45 45zm45-302v30h-67.293l5-30zm-97.707 30h-112.293v-30h117.293zm-127.293-120c36.22 0 66.522 25.808 73.491 60h-88.491v88.491c-34.192-6.968-60-37.271-60-73.491 0-41.355 33.645-75 75-75z"/></svg>