<svg id="Capa_1" enable-background="new 0 0 511.974 511.974" height="512" viewBox="0 0 511.974 511.974" width="512" xmlns="http://www.w3.org/2000/svg"><path d="m460.859 152.465-148.494-148.492-10.606 10.607c-29.105 29.106-37.953 71.993-24.7 109.394h-80.389l-41.325-123.974-104.23 34.743 9.487 28.461 75.77-25.257 28.675 86.026h-55.73l30.021 81.157c8.844 23.909 8.332 50.947-1.442 76.135-6.989 18.013-8.803 37.818-5.245 57.276 7.68 41.999 42.389 76.455 84.405 83.789 1.268.221 2.536.404 3.804.58v59.063h-75v30h180v-30h-75v-59.135c19.22-2.77 37.42-10.758 52.527-23.456 23.814-20.017 37.473-49.325 37.473-80.408 0-14.501-2.931-28.555-8.712-41.769-9.233-21.109-8.975-47.181.729-73.413l6.161-16.654c11.94 4.495 24.439 6.704 36.884 6.704 27.18 0 54.098-10.534 74.333-30.77zm-141.542 1.509-11.097 30h-91.55l-10-30zm-144.27 0 10 30h-21.549l-11.097-30zm109.036 222.443c-17.254 14.503-39.227 20.312-61.869 16.361-29.892-5.218-54.587-29.74-60.053-59.633-2.56-14-1.279-28.187 3.703-41.027 9.893-25.493 12.263-52.612 7.077-78.145h125.748c-5.843 26.638-3.859 52.776 5.974 75.254 4.112 9.4 6.197 19.408 6.197 29.746-.001 22.204-9.761 43.141-26.777 57.444zm65.365-217.427 12.953-35.017h-52.667c-12.916-24.306-11.299-53.792 3.703-76.503l103.929 103.928c-20.041 13.258-45.387 16.133-67.918 7.592z"/></svg>