<svg id="Capa_1" enable-background="new 0 0 511.021 511.021" height="512" viewBox="0 0 511.021 511.021" width="512" xmlns="http://www.w3.org/2000/svg"><path d="m400.815 72.214c-10.625-28.521-38.127-48.894-70.305-48.894h-15v45c0 16.871 5.603 32.456 15.041 45h-212.013l-75.547-113.32-24.961 16.641 64.453 96.68h-66.973v45c0 57.897 47.103 105 105 105 8.271 0 15 6.729 15 15v30c0 36.219 25.808 66.522 60 73.491v99.209h-60v30h150v-30h-60v-99.209c34.192-6.968 60-37.271 60-73.491v-30c0-8.271 6.729-15 15-15 57.897 0 105-47.103 105-105v-15h15c41.355 0 75-33.645 75-75v-15l-45-.001c-19.049 0-36.452 7.151-49.695 18.894zm-55.305-16.323c17.461 6.191 30 22.874 30 42.43v12.43c-17.461-6.191-30-22.873-30-42.429zm30 87.429v15c0 5.136-.521 10.152-1.509 15h-215.463l-20-30zm-330 0h56.973l20 30h-75.463c-.988-4.848-1.509-9.864-1.509-15v-15zm255 90c-24.813 0-45 20.187-45 45v30c0 24.813-20.187 45-45 45s-45-20.187-45-45v-30c0-24.813-20.187-45-45-45-24.484 0-46.262-11.796-59.959-30h299.918c-13.697 18.204-35.475 30-59.959 30zm120-120h-12.43c6.19-17.461 22.873-30 42.43-30h12.43c-6.19 17.461-22.873 30-42.43 30z"/></svg>