<svg id="Capa_1" enable-background="new 0 0 511.993 511.993" height="512" viewBox="0 0 511.993 511.993" width="512" xmlns="http://www.w3.org/2000/svg"><path d="m347.404 0-58.96 126.343h-209.511l162.063 259.302v96.348h-60v30h150v-30h-60v-96.348l162.064-259.302h-111.511l53.04-113.657zm-72.96 156.343-14.1 30.214c-1.431-.138-2.88-.214-4.347-.214-19.555 0-36.228 12.542-42.42 30h-43.017l-37.5-60zm48.239 90-66.686 106.698-66.687-106.698h24.266c6.192 17.458 22.865 30 42.42 30s36.228-12.542 42.42-30zm-66.686-30c8.271 0 15 6.729 15 15s-6.729 15-15 15-15-6.729-15-15 6.729-15 15-15zm122.936-60-37.5 60h-43.016c-2.308-6.507-6.07-12.33-10.898-17.075l20.032-42.925z"/></svg>