<svg id="Capa_1" enable-background="new 0 0 512 512" height="512" viewBox="0 0 512 512" width="512" xmlns="http://www.w3.org/2000/svg"><g><path d="m181 120h30v30h-30z"/><path d="m241 180h30v30h-30z"/><path d="m31 75c0 69.369 52.595 126.686 120 134.172v15.828c0 29.089 11.716 56.072 32.989 75.978 15.922 14.898 36.108 24.66 57.011 27.865v153.157h-75v30h180v-30h-75v-153.134c21.52-3.25 42.108-13.369 58.098-28.854 20.572-19.922 31.902-46.562 31.902-75.012v-15.828c67.405-7.486 120-64.803 120-134.172v-75h-450zm315 105h-15v45c0 40.654-34.346 75-75 75-36.22 0-75-30.137-75-75v-45h-15c-52.804 0-96.623-39.184-103.924-90h387.848c-7.301 50.816-51.12 90-103.924 90zm105-150v30h-390v-30z"/></g></svg>