<svg id="Capa_1" enable-background="new 0 0 512 512" height="512" viewBox="0 0 512 512" width="512" xmlns="http://www.w3.org/2000/svg"><g><path d="m241 0h-15c-32.178 0-59.68 20.373-70.305 48.894-13.243-11.743-30.646-18.894-49.695-18.894h-45v15c0 41.355 33.645 75 75 75h15v32.58c-17.459 6.192-30 22.865-30 42.42v317h330v-317c0-19.555-12.541-36.228-30-42.42v-62.58h-99.258l7.5-60h106.758v-30h-133.242l-11.25 90h-65.549c9.438-12.544 15.041-28.129 15.041-45zm-105 90c-19.556 0-36.239-12.539-42.43-30h12.43c19.556 0 36.239 12.539 42.43 30zm45-15c0-19.556 12.539-36.239 30-42.43v12.43c0 19.556-12.539 36.239-30 42.43zm-15 105h114.258l-7.5 60h-121.758v-45c0-8.271 6.729-15 15-15zm255 15v45h-118.008l7.5-60h95.508c8.271 0 15 6.729 15 15zm-270 287v-212h270v212zm240-362v30h-76.758l3.75-30zm-106.992 30h-103.008v-30h106.758z"/><path d="m301 451h90v-90h-90zm30-60h30v30h-30z"/><path d="m181 336.427 30.782 84.573 84.572-30.782-30.781-84.572zm48.712 46.122-10.261-28.191 28.191-10.261 10.261 28.191z"/></g></svg>