<svg id="Capa_1" enable-background="new 0 0 512 512" height="512" viewBox="0 0 512 512" width="512" xmlns="http://www.w3.org/2000/svg"><path d="m143.926 240c21.406 0 41.9-5.531 60.072-16.093l89.928 125.9v132.193h-60v30h150v-30h-60v-132.193l164.148-229.807h-224.148c0-66.168-53.832-120-120-120s-120 53.832-120 120 53.832 120 120 120zm108.434 0h113.133l-56.567 79.193zm177.419-90-42.857 60h-155.99l-42.857-60zm-285.853-120c49.626 0 90 40.374 90 90h-104.147l56.678 79.349c-12.987 6.998-27.456 10.651-42.531 10.651-49.626 0-90-40.374-90-90s40.374-90 90-90z"/></svg>