<svg id="Capa_1" enable-background="new 0 0 512 512" height="512" viewBox="0 0 512 512" width="512" xmlns="http://www.w3.org/2000/svg"><g><path d="m211 240h30v30h-30z"/><path d="m271 270h30v30h-30z"/><path d="m362.119 316.119c28.297-28.297 43.881-65.984 43.881-106.119 0-29.663-8.755-58.474-25.319-83.32l-4.453-6.68h-92.521l15-90h77.293v-30h-102.707l-20 120h-117.521l-4.453 6.68c-16.564 24.846-25.319 53.657-25.319 83.32 0 40.135 15.584 77.822 43.881 106.119 24.742 24.741 56.661 39.763 91.119 43.147v122.734h-60v30h150v-30h-60v-122.733c34.458-3.385 66.378-18.407 91.119-43.148zm-2.249-166.119c5.471 9.47 9.586 19.553 12.296 30h-98.459l5-30zm-111.577 0-5 30h-103.459c2.71-10.447 6.825-20.53 12.296-30zm-112.293 60h240c0 66.168-53.832 120-120 120s-120-53.832-120-120z"/></g></svg>