<svg id="Capa_1" enable-background="new 0 0 512 512" height="512" viewBox="0 0 512 512" width="512" xmlns="http://www.w3.org/2000/svg"><g><path d="m286 210h30v30h-30z"/><path d="m346 240h30v30h-30z"/><path d="m373.297 30h77.703v-30h-102.297l-18 90h-134.703v15c0 143.359 54.893 194.706 91.216 228.684 18.914 17.692 28.784 27.565 28.784 41.316v107h-60v30h150v-30h-60v-107c0-13.751 9.87-23.624 28.784-41.316 36.323-33.978 91.216-85.325 91.216-228.684v-15h-104.703zm-48.594 90-6 30h-90.599c-.932-9.423-1.578-19.4-1.889-30zm29.587 191.774c-8.419 7.875-16.639 15.564-23.29 23.928-6.651-8.364-14.871-16.053-23.29-23.928-26.813-25.081-61.327-57.375-75.356-131.774h197.293c-14.03 74.399-48.544 106.693-75.357 131.774zm81.494-191.774c-.311 10.6-.957 20.577-1.889 30h-84.599l6-30z"/><path d="m91 452c0 33.084 26.916 60 60 60s60-26.916 60-60c0-.631-.02-1.26-.04-1.888 25.87-6.664 45.04-30.191 45.04-58.112 0-32.312-25.678-58.726-57.698-59.941 12.507-30.865-1.27-74.397-3.072-79.802l-28.461 9.486c4.858 14.573 11.588 49.244 1.387 63.397-.554.769-1.247 1.603-2.156 2.417v-10.557c0-41.355-33.645-75-75-75h-15v45c0 17.6 6.109 33.79 16.297 46.598-26.5 6.217-46.297 30.033-46.297 58.402 0 27.921 19.17 51.448 45.04 58.112-.02.628-.04 1.257-.04 1.888zm60 30c-16.542 0-30-13.458-30-30 0-.645.041-1.283.081-1.922 11.758-3.055 22.116-9.603 29.919-18.456 7.804 8.853 18.161 15.401 29.919 18.456.04.639.081 1.277.081 1.922 0 16.542-13.458 30-30 30zm75-90c0 16.542-13.458 30-30 30s-30-13.458-30-30 13.458-30 30-30 30 13.458 30 30zm-120-117.43c17.461 6.191 30 22.874 30 42.43v12.43c-17.461-6.191-30-22.874-30-42.43zm-30 117.43c0-16.542 13.458-30 30-30s30 13.458 30 30-13.458 30-30 30-30-13.458-30-30z"/></g></svg>