<svg id="Capa_1" enable-background="new 0 0 512.001 512.001" height="512" viewBox="0 0 512.001 512.001" width="512" xmlns="http://www.w3.org/2000/svg"><path d="m366.437 152.001h-161.323l-7.754-30.609 145.092-29.24-185.534-92.152-135.565 156.454 146.554-29.163 8.904 35.148c-47.835 36.602-76.162 93.742-76.162 154.562 0 107.523 87.477 195 195 195s195-87.477 195-195c0-63.683-31.04-123.349-83.034-159.611l-7.732-5.389h-2.522l15-60h78.288v-30h-101.712zm-265.092-42.053 63.034-72.746 86.268 42.848zm194.303 372.053c-90.981 0-165-74.019-165-165 0-12.035 1.318-23.897 3.841-35.408l44.067 27.118c25.992 15.996 58.736 14.732 83.42-3.219l33.672-24.489 33.672 24.489c13.157 9.569 28.602 14.396 44.095 14.396 13.574 0 27.188-3.707 39.325-11.176l44.067-27.118c2.523 11.512 3.841 23.374 3.841 35.408 0 90.98-74.018 164.999-165 164.999zm151.74-229.837-50.371 30.997c-15.597 9.597-35.241 8.839-50.052-1.931l-51.317-37.322-51.317 37.322c-14.809 10.77-34.455 11.529-50.052 1.931l-50.371-30.998c11.91-27.919 31.431-52.379 56.928-70.161l189.621-.002c25.499 17.783 45.021 42.244 56.931 70.164z"/></svg>