<svg id="Capa_1" enable-background="new 0 0 512.001 512.001" height="512" viewBox="0 0 512.001 512.001" width="512" xmlns="http://www.w3.org/2000/svg"><g><path d="m467.516 22.911-28.734-8.62-41.793 139.31h-201.53l-6.378-32.052 145.871-29.397-185.534-92.152-135.565 156.454 145.812-29.015 5.206 26.162h-26.721v223.8c.129 62.678 30.297 123.734 31.584 126.308l4.146 8.292h288.541l4.146-8.292c1.287-2.574 31.455-63.63 31.584-126.308v-223.8h-69.84zm-373.671 87.037 63.034-72.746 86.268 42.848zm229.047 164.423c-1.932-.644-47.763-15.77-87.243-15.77-29.343 0-52.244 4.461-67.5 8.76v-83.76h219.84l-29.98 99.935c-19.602-4.056-34.866-9.082-35.117-9.165zm120.615 207.63h-250.716c-7.735-17.882-24.643-61.902-24.643-105v-78.219c11.601-3.98 34.9-10.181 67.5-10.181 34.547 0 77.334 14.09 77.757 14.23 1.932.644 47.763 15.77 87.243 15.77 29.343 0 52.244-4.461 67.5-8.76v67.16c0 43.104-16.911 87.128-24.641 105zm24.641-298.4v94.819c-11.601 3.98-34.9 10.181-67.5 10.181-4.135 0-8.388-.204-12.672-.559l31.332-104.441z"/><path d="m348.849 452.001h90v-90h-90zm30-60h30v30h-30z"/><path d="m198.148 367.428 30.782 84.573 84.572-30.782-30.782-84.572zm48.712 46.122-10.26-28.191 28.191-10.261 10.261 28.191z"/></g></svg>