<svg id="Capa_1" enable-background="new 0 0 512 512" height="512" viewBox="0 0 512 512" width="512" xmlns="http://www.w3.org/2000/svg"><g><path d="m465.415 8.3-28.829-8.3-43.472 151h-137.114c0-66.168-53.832-120-120-120s-120 53.832-120 120 53.832 120 120 120v106.396c.126 62.682 30.297 123.739 31.584 126.313l4.146 8.292h288.541l4.146-8.292c1.287-2.574 31.458-63.63 31.584-126.313v-226.396h-71.667zm-80.938 172.7-28.762 99.905c-19.532-4.05-34.721-9.052-34.972-9.136-1.931-.643-47.763-15.769-87.243-15.769-29.343 0-52.244 4.461-67.5 8.76v-83.76zm-338.477-30c0-49.626 40.374-90 90-90s90 40.374 90 90h-90v90c-49.626 0-90-40.374-90-90zm395.358 331h-250.715c-7.736-17.882-24.643-61.902-24.643-105v-80.819c11.601-3.98 34.9-10.181 67.5-10.181 34.547 0 77.334 14.09 77.757 14.23 1.931.644 47.763 15.77 87.243 15.77 29.343 0 52.244-4.461 67.5-8.76v69.76c0 43.104-16.911 87.128-24.642 105zm24.642-301v94.819c-11.601 3.98-34.9 10.181-67.5 10.181-4.198 0-8.517-.209-12.867-.575l30.063-104.425z"/><path d="m346 452h90v-90h-90zm30-60h30v30h-30z"/><path d="m196 367.427 30.782 84.573 84.572-30.782-30.782-84.572zm48.712 46.122-10.261-28.191 28.191-10.261 10.261 28.191z"/></g></svg>