<svg id="Capa_1" enable-background="new 0 0 512 512" height="512" viewBox="0 0 512 512" width="512" xmlns="http://www.w3.org/2000/svg"><g><path d="m111.729 512h288.541l4.146-8.292c1.288-2.576 31.517-63.757 31.583-126.503v-227.205h-69.84l39.207-130.69-28.734-8.62-41.792 139.31h-110.124c.836-5.216 1.284-10.265 1.284-15 0-20.16-8.01-38.474-20.997-51.965 12.605-7.983 20.997-22.043 20.997-38.035v-45h-15c-24.508 0-46.305 11.818-60 30.052-13.695-18.234-35.492-30.052-60-30.052h-15v45c0 15.992 8.392 30.052 20.997 38.035-12.987 13.491-20.997 31.805-20.997 51.965 0 4.735.448 9.784 1.284 15h-1.284v227.205c.066 62.746 30.295 123.927 31.583 126.503zm294.271-332v94.819c-11.601 3.98-34.9 10.181-67.5 10.181-4.135 0-8.388-.204-12.672-.559l31.332-104.441zm-80.16 0-29.98 99.935c-19.601-4.055-34.865-9.081-35.116-9.165-1.932-.644-47.764-15.77-87.244-15.77-29.343 0-52.244 4.461-67.5 8.76v-48.802c13.333 16.268 28.918 25.042 45 25.042 20.453 0 40.105-14.184 55.337-39.938 3.761-6.358 7.078-13.143 9.867-20.063h109.636zm-207.011 0h64.341c-.856 1.63-1.736 3.236-2.655 4.79-9.336 15.786-20.369 25.21-29.515 25.21s-20.179-9.424-29.516-25.21c-.919-1.554-1.799-3.16-2.655-4.79zm77.171-147.43v12.43c0 8.271-6.729 15-15 15h-12.43c4.527-12.768 14.662-22.903 27.43-27.43zm-90 0c12.768 4.527 22.903 14.662 27.43 27.43h-12.43c-8.271 0-15-6.729-15-15zm0 102.43c0-24.813 20.187-45 45-45s45 20.187 45 45c0 4.51-.64 9.623-1.806 15h-86.388c-1.166-5.377-1.806-10.49-1.806-15zm0 160.181c11.601-3.98 34.9-10.181 67.5-10.181 34.547 0 77.334 14.09 77.757 14.23 1.931.644 47.763 15.77 87.243 15.77 29.343 0 52.244-4.461 67.5-8.76v70.76c0 43.104-16.911 87.128-24.642 105h-250.716c-7.735-17.882-24.642-61.902-24.642-105z"/><path d="m376 362h-90v90h90zm-30 60h-30v-30h30z"/><path d="m251.354 421.218-30.781-84.572-84.573 30.781 30.782 84.573zm-48.712-46.121 10.261 28.191-28.191 10.261-10.261-28.191z"/></g></svg>