<svg id="Capa_1" enable-background="new 0 0 512.011 512.011" height="512" viewBox="0 0 512.011 512.011" width="512" xmlns="http://www.w3.org/2000/svg"><path d="m387.772 174.51c5.529-17.693 5.832-37.377.852-55.428-5.714-20.711-17.915-38.018-35.282-50.048l-19.572-13.558-3.779 23.507c-1.426 8.866-5.365 17.312-11.441 24.783-17.643-38.52-48.646-83.625-50.199-85.875l-12.346-17.891-12.345 17.891c-1.553 2.251-32.556 47.355-50.199 85.875-6.076-7.472-10.016-15.917-11.44-24.783l-3.779-23.508-19.573 13.558c-17.366 12.03-29.565 29.336-35.28 50.049-4.98 18.052-4.678 37.738.852 55.432 1.923 6.152 4.388 11.803 7.308 16.896h-57.569l167.025 200.431v90.169h-60v30h150v-30h-60v-90.169l167.025-200.431h-57.569c2.922-5.094 5.388-10.746 7.311-16.9zm-234.897-8.945c-5.262-16.836-4.108-39.302 7.951-56.908 6.766 12.712 16.994 24.015 30.091 33.013l16.607 11.41 6.167-19.182c7.715-23.997 28.705-58.918 42.316-80.224 13.607 21.296 34.589 56.202 42.312 80.224l6.167 19.182 16.607-11.41c13.096-8.998 23.325-20.301 30.091-33.013 12.06 17.605 13.214 40.07 7.953 56.904-3.905 12.497-12.786 25.85-25.996 25.85h-154.272c-13.21 0-22.089-13.351-25.994-25.846zm35.156 115.846h135.949l-67.975 81.569zm160.949-30h-185.949l-25-30h235.949z"/></svg>