<svg id="Capa_1" enable-background="new 0 0 512 512" height="512" viewBox="0 0 512 512" width="512" xmlns="http://www.w3.org/2000/svg"><path d="m68.5 22.5c0 160.065 150.978 157.5 50.936 157.5l32.98 332h207.168l32.979-332h-34.939c51.636-33.432 85.876-91.54 85.876-157.5v-22.5h-375zm230.634 187.5-6.076 61h-74.117l-6.076-61zm-9.064 91-11.952 120h-44.236l-11.952-120zm42.346 181h-152.832l-27.02-272h30.154l24.004 241h98.557l24.004-241h30.155zm-233.733-452h30.044c3.896 66.826 59.488 120 127.273 120s123.377-53.174 127.273-120h30.044c-3.96 84.053-73.671 150-157.317 150-82.576 0-153.28-64.707-157.317-150zm142.317 88.846c-17.546-2.721-33.559-10.138-46.713-20.92l46.713-46.713zm30-67.633 46.713 46.713c-13.154 10.783-29.167 18.199-46.713 20.92zm66.764 24.338-45.551-45.551h61.001c-1.276 16.706-6.787 32.245-15.45 45.551zm-163.528 0c-8.663-13.307-14.173-28.845-15.45-45.551h61.001z"/></svg>