<svg id="Capa_1" enable-background="new 0 0 512 512" height="512" viewBox="0 0 512 512" width="512" xmlns="http://www.w3.org/2000/svg"><g><path d="m196 0v73.852c-22.729 10.513-36.533 26.363-44.832 40.59-8.632 14.799-12.348 29.607-13.951 39.726-18.09 5.835-31.217 22.826-31.217 42.832 0 19.574 12.566 36.26 30.052 42.438 1.312 172.08 29.49 258.625 30.717 262.306l3.419 10.256h172.523l2.84-11.362c1.208-4.835 28.842-117.017 30.378-261.195 17.496-6.172 30.071-22.862 30.071-42.443 0-20.006-13.127-36.997-31.217-42.833-1.603-10.118-5.318-24.926-13.951-39.726-8.299-14.227-22.103-30.077-44.832-40.59v-73.851zm30 30h60v34.57c-9.045-1.642-19.003-2.57-30-2.57s-20.955.929-30 2.57zm93.04 452h-126.728c-7.141-27.096-24.966-107.632-26.237-240h179.821c-1.532 113.552-19.947 208.262-26.856 240zm41.96-270h-210c-8.271 0-15-6.729-15-15s6.729-15 15-15h210c8.271 0 15 6.729 15 15s-6.729 15-15 15zm-26.65-83.4c4.961 8.219 7.811 16.584 9.447 23.4h-175.592c1.637-6.821 4.486-15.184 9.446-23.4 14.658-24.286 41.019-36.6 78.349-36.6s63.691 12.314 78.35 36.6z"/><path d="m61 212c0-49.771 30.875-82.084 34.396-85.604l-21.213-21.213c-4.42 4.42-43.183 44.967-43.183 106.817s38.763 102.397 43.183 106.817l21.213-21.213c-3.521-3.52-34.396-35.833-34.396-85.604z"/><path d="m416.604 126.396c3.521 3.52 34.396 35.833 34.396 85.604s-30.875 82.084-34.396 85.604l21.213 21.213c4.42-4.42 43.183-44.967 43.183-106.817s-38.763-102.397-43.183-106.817z"/></g></svg>