<svg id="Capa_1" enable-background="new 0 0 512 512" height="512" viewBox="0 0 512 512" width="512" xmlns="http://www.w3.org/2000/svg"><g><path d="m121 131.459v309.082l35.729 71.459h198.541l35.73-71.459v-309.082l-35.729-71.459h-56.851c1.665-4.695 2.58-9.742 2.58-15 0-24.813-20.187-45-45-45s-45 20.187-45 45c0 5.258.915 10.305 2.58 15h-56.851zm30 290.541v-272h210v272zm24.271 60-15-30h191.459l-15 30zm65.729-437c0-8.271 6.729-15 15-15s15 6.729 15 15-6.729 15-15 15-15-6.729-15-15zm95.729 45 15 30h-191.458l15-30z"/><path d="m256 211c-41.355 0-75 33.645-75 75s33.645 75 75 75 75-33.645 75-75-33.645-75-75-75zm0 120c-24.813 0-45-20.187-45-45s20.187-45 45-45 45 20.187 45 45-20.187 45-45 45z"/></g></svg>