<svg id="Capa_1" enable-background="new 0 0 512 512" height="512" viewBox="0 0 512 512" width="512" xmlns="http://www.w3.org/2000/svg"><path d="m467 226h-167v30h-90v-12.111l55.156-137.889h34.844v-30h-300v30h34.844l55.156 137.889v53.57l-54.271 108.541h-35.729v30h300v-30h-35.729l-54.271-108.541v-11.459h90v30h167c24.813 0 45-20.187 45-45s-20.187-45-45-45zm-234.156-120-48 120h-69.689l-48-120zm-52.844 150v30h-60v-30zm-110.729 150 45-90h71.459l45 90zm397.729-120h-137v-30h137c8.271 0 15 6.729 15 15s-6.729 15-15 15z"/></svg>