<svg id="Capa_1" enable-background="new 0 0 512 512" height="512" viewBox="0 0 512 512" width="512" xmlns="http://www.w3.org/2000/svg"><path d="m332.987 0h-153.974l-3.942 8.959c-54.071 122.887-54.071 185.805-54.071 216.041 0 81.146 56.225 113.41 89.788 125.437 18.071 6.405 30.212 22.786 30.212 40.762v90.801h-60v30h150v-30h-60v-90.801c0-17.976 12.142-34.357 30.262-40.78 33.514-12.009 89.738-44.273 89.738-125.419 0-30.236 0-93.154-54.071-216.041zm-134.348 30h114.721c29.614 69.102 40.817 117.026 45.057 150h-59.997c-4.527-12.764-14.656-22.893-27.42-27.42v-2.58c0-16.542 13.458-30 30-30v-30c-33.084 0-60 26.916-60 60v2.58c-12.764 4.527-22.893 14.656-27.42 27.42h-59.997c4.24-32.974 15.442-80.898 45.056-150zm72.361 165c0 8.271-6.729 15-15 15s-15-6.729-15-15 6.729-15 15-15 15 6.729 15 15zm20.19 127.161c-14.36 5.09-26.465 14.092-35.188 25.455-8.716-11.359-20.809-20.357-35.143-25.438-31.869-11.42-69.859-37.55-69.859-97.178 0-4.269 0-9.237.179-15h62.401c6.192 17.458 22.865 30 42.42 30s36.228-12.542 42.42-30h62.401c.179 5.763.179 10.731.179 15 0 59.628-37.989 85.758-69.81 97.161z"/></svg>