<svg id="Capa_1" enable-background="new 0 0 512.026 512.026" height="512" viewBox="0 0 512.026 512.026" width="512" xmlns="http://www.w3.org/2000/svg"><path d="m387.777 164.125c5.529-17.693 5.832-37.377.852-55.428-5.714-20.711-17.914-38.018-35.282-50.048l-19.572-13.558-3.778 23.508c-1.438 8.941-5.432 17.455-11.596 24.973-17.838-37.058-49.06-76.723-50.626-78.703l-11.765-14.869-11.764 14.87c-1.566 1.979-32.788 41.645-50.626 78.703-6.164-7.519-10.158-16.032-11.596-24.973l-3.778-23.508-19.573 13.558c-17.365 12.029-29.565 29.336-35.279 50.049-4.98 18.052-4.678 37.738.852 55.432 1.923 6.153 4.389 11.804 7.309 16.898h-45.699l5.786 19.306c.221.737 22.181 74.569 29.442 147.185 7.256 72.56.071 147.29-.002 148.034l-1.625 16.473 273.101-.002-1.62-16.468c-.073-.747-7.258-75.477-.002-148.037 7.262-72.616 29.222-146.447 29.441-147.183l5.793-19.31h-45.704c2.921-5.095 5.388-10.748 7.311-16.902zm-85.598 166.901h-92.338c-2.277-20.41-5.479-40.73-9.086-60h110.511c-3.608 19.27-6.81 39.59-9.087 60zm-2.655 30c-1.278 19.021-1.905 39.076-1.848 60h-83.332c.057-20.924-.57-40.979-1.848-60zm17.824-120h-122.675c-2.315-10.626-4.671-20.695-6.961-30h136.596c-2.289 9.305-4.646 19.374-6.96 30zm-164.468-85.845c-5.262-16.836-4.108-39.302 7.951-56.908 6.766 12.712 16.994 24.015 30.091 33.013l16.607 11.41 6.167-19.182c7.697-23.942 28.861-55.589 42.316-74.282 13.451 18.679 34.601 50.299 42.311 74.282l6.167 19.182 16.607-11.41c13.097-8.998 23.325-20.301 30.092-33.013 12.06 17.605 13.214 40.07 7.953 56.904-3.906 12.497-12.786 25.85-25.996 25.85l-154.273.001c-13.209 0-22.088-13.353-25.993-25.847zm208.204 189.353c-5.55 55.497-3.122 110.762-1.314 137.493h-207.52c1.808-26.73 4.235-81.996-1.314-137.493-5.341-53.405-17.929-106.096-25.183-133.507h31.04c8.848 34.985 19.246 82.967 23.999 130.514 2.861 28.645 4.005 60.345 3.399 94.218l-.272 15.268h144.184l-.272-15.268c-.605-33.874.538-65.573 3.399-94.217 4.753-47.548 15.151-95.53 23.999-130.515h31.04c-7.256 27.411-19.844 80.102-25.185 133.507z"/></svg>