<?xml version="1.0" encoding="iso-8859-1"?>
<!-- Generator: Adobe Illustrator 19.0.0, SVG Export Plug-In . SVG Version: 6.00 Build 0)  -->
<svg xmlns="http://www.w3.org/2000/svg" xmlns:xlink="http://www.w3.org/1999/xlink" version="1.1" id="Capa_1" x="0px" y="0px" viewBox="0 0 512 512" style="enable-background:new 0 0 512 512;" xml:space="preserve">
<g>
	<g>
		<path d="M366.709,75.931c-3.973-7.847-11.706-12.722-20.183-12.722h-24.515c-2.87-15.553-16.523-27.374-32.893-27.374    c-6.02,0-11.67,1.607-16.555,4.401c-5.021-2.878-10.659-4.401-16.563-4.401c-6.016,0-11.661,1.605-16.545,4.396    c-5.02-2.859-10.738-4.396-16.574-4.396c-16.371,0-30.023,11.822-32.893,27.374h-24.515c-8.476,0-16.21,4.875-20.182,12.721    c-3.845,7.592-3.51,16.821,0.874,24.086l56.518,93.632c3.744,6.392,23.914,38.278,53.319,38.278    c29.498,0,49.563-31.827,53.378-38.379l56.455-93.532C370.218,92.753,370.554,83.524,366.709,75.931z M289.119,51.044    c7.927,0,14.672,5.091,17.185,12.166h-34.37C274.448,56.133,281.191,51.044,289.119,51.044z M260.704,51.657    c-2.167,3.479-3.709,7.381-4.478,11.552h-17.411C245.101,48.256,259.187,51.256,260.704,51.657z M227.583,51.661    c-2.166,3.478-3.707,7.379-4.476,11.549h-17.411C211.643,48.002,226.058,51.255,227.583,51.661z M296.327,185.741    c-0.023,0.036-0.045,0.073-0.066,0.112c-0.732,1.259-18.184,30.866-40.26,30.866c-17.507,0-33.504-19.333-40.248-30.844    l-35.487-58.792h151.469L296.327,185.741z M352.814,92.158l-11.902,19.718H171.086l-11.901-19.717    c-1.674-2.773-1.802-6.446-0.327-9.358c1.369-2.704,3.903-4.383,6.614-4.383h181.054c2.711,0,5.246,1.679,6.614,4.384    C354.615,85.714,354.487,89.386,352.814,92.158z"/>
	</g>
</g>
<g>
	<g>
		<path d="M363.976,30.416H330.63c-4.199,0-7.604,3.404-7.604,7.604c0,4.2,3.405,7.604,7.604,7.604h33.346    c4.199,0,7.604-3.404,7.604-7.604C371.58,33.819,368.175,30.416,363.976,30.416z"/>
	</g>
</g>
<g>
	<g>
		<path d="M398.634,30.416h-11.339c-4.199,0-7.604,3.404-7.604,7.604c0,4.2,3.405,7.604,7.604,7.604h11.339    c4.199,0,7.604-3.404,7.604-7.604C406.238,33.819,402.833,30.416,398.634,30.416z"/>
	</g>
</g>
<g>
	<g>
		<path d="M292.972,247.672c22.268-13.208,36.651-34.593,40.325-40.475L440.135,42.324c5.468-8.437,5.881-19.167,1.079-28.002    C436.413,5.488,427.183,0,417.129,0H94.872C84.817,0,75.588,5.488,70.786,14.322c-4.802,8.834-4.389,19.563,1.079,28.002    L178.7,207.196c3.669,5.874,18.029,27.229,40.265,40.441c3.001,2.563,17.544,18.145,17.544,78.801v28.933c0,0,0,7.265,7.604,7.604    c4.195,0.187,7.604-3.404,7.604-7.604v-28.933c0-33.871-4.326-55.596-9.646-69.515c4.456,0.96,9.101,1.498,13.928,1.498    c4.838,0,9.495-0.54,13.96-1.506c-5.261,13.761-9.596,35.214-9.676,68.599v118.701c0,0.064,0.001,0.128,0.002,0.191    c0.401,15.949,8.548,34.576,30.188,34.576h23.648c4.91,0,8.906,3.995,8.906,8.905c0,4.91-3.995,8.906-8.905,8.906H197.878    c-4.91,0-8.906-3.995-8.906-8.905c0-4.91,3.995-8.905,8.906-8.905h23.644c21.764,0,29.866-18.736,30.193-34.783    c0.001-0.052,0.001-0.103,0.001-0.154v-66.708c0-4.2-3.405-7.604-7.604-7.604s-7.604,3.404-7.604,7.604v28.046    c0,0.001,0,38.58,0,38.58c-0.163,7.434-2.339,19.809-14.987,19.809h-23.644c-13.296,0-24.114,10.817-24.114,24.113    S184.582,512,197.878,512H314.12c13.296,0,24.114-10.817,24.114-24.113c0-13.296-10.817-24.113-24.114-24.113h-23.648    c-12.555,0-14.782-12.272-14.983-19.659V325.534C275.49,262.434,292.924,247.719,292.972,247.672z M256,243.213    c-35.884,0-61.613-39.602-64.428-44.118c-0.023-0.036-0.047-0.074-0.071-0.111L84.628,34.055    c-2.435-3.757-2.619-8.536-0.481-12.469c2.137-3.934,6.247-6.377,10.725-6.377h322.257c4.477,0,8.586,2.443,10.725,6.377    c2.138,3.934,1.954,8.712-0.481,12.469L320.5,198.984c-0.024,0.036-0.048,0.073-0.071,0.111    C317.612,203.611,291.879,243.213,256,243.213z"/>
	</g>
</g>
<g>
</g>
<g>
</g>
<g>
</g>
<g>
</g>
<g>
</g>
<g>
</g>
<g>
</g>
<g>
</g>
<g>
</g>
<g>
</g>
<g>
</g>
<g>
</g>
<g>
</g>
<g>
</g>
<g>
</g>
</svg>
