<?xml version="1.0" encoding="iso-8859-1"?>
<!-- Generator: Adobe Illustrator 19.0.0, SVG Export Plug-In . SVG Version: 6.00 Build 0)  -->
<svg xmlns="http://www.w3.org/2000/svg" xmlns:xlink="http://www.w3.org/1999/xlink" version="1.1" id="Capa_1" x="0px" y="0px" viewBox="0 0 512 512" style="enable-background:new 0 0 512 512;" xml:space="preserve">
<g>
	<g>
		<path d="M346.359,306.984c-3.695-1.997-8.308-0.623-10.307,3.069c-1.621,2.997-3.432,5.935-5.382,8.735    c-2.401,3.445-1.35,7.916,1.892,10.584c4.292,3.531,9.108,0.229,10.587-1.891c2.275-3.266,4.388-6.695,6.28-10.191    C351.427,313.597,350.052,308.984,346.359,306.984z"/>
	</g>
</g>
<g>
	<g>
		<path d="M326.076,336.566c-2.744-3.177-7.546-3.531-10.724-0.786c-12.25,10.574-27.079,17.699-42.88,20.6    c-4.13,0.758-6.887,4.725-6.105,8.852c1.462,7.718,8.389,6.19,8.852,6.106c18.461-3.39,35.775-11.706,50.071-24.048    C328.467,344.547,328.82,339.746,326.076,336.566z"/>
	</g>
</g>
<g>
	<g>
		<path d="M346.343,407.3c46.074-29.757,76.637-81.559,76.637-140.369V102.49c0-15.656-12.737-28.393-28.392-28.393h-11.381    c1.265-13.074,1.518-24.204,0.74-33.169c-1.367-15.752-6.007-25.019-14.188-28.331c-9.232-3.739-20.648,1.2-34.894,15.097    c-9.114,8.89-18.251,20.282-25.804,30.53c-4.032-9.278-8.654-18.959-13.653-27.736C282.605,8.011,271.367-1.607,260.053,0.218    c-8.837,1.424-15.259,9.722-20.361,25.132c-5.658,17.09-8.092,47.13-8.225,48.749H117.411c-15.656,0-28.392,12.737-28.392,28.393    v164.44c0,58.279,30.019,109.672,75.398,139.553c0.327,0.461,16.763,9.301,16.763,30.697v9.72h-22.885    c-6.357,0-12.525,1.85-17.84,5.352c-3.507,2.31-4.313,6.922-2.166,10.533c3.654,6.142,9.244,3.016,10.533,2.167    c2.824-1.86,6.099-2.844,9.472-2.844h30.489c4.199,0,7.604-3.403,7.604-7.604v-17.323c0-5.531-1.017-10.647-2.686-15.333    c19.26,7.773,40.286,12.064,62.297,12.064c22.015,0,43.044-4.292,62.307-12.068c-1.672,4.677-2.696,9.801-2.696,15.337v17.323    c0,4.2,3.404,7.604,7.604,7.604h30.489c9.563,0,17.342,7.78,17.342,17.342c0,9.562-7.779,17.342-17.342,17.342H158.295    c-9.563,0-17.342-7.78-17.342-17.342c0-4.2-3.404-7.604-7.604-7.604c-4.199,0-7.604,3.403-7.604,7.604    c0,17.948,14.601,32.549,32.549,32.549h195.409c17.948,0,32.549-14.601,32.549-32.549c0-17.948-14.601-32.549-32.549-32.549    h-22.885v-9.72C330.818,417.053,346.34,407.303,346.343,407.3z M247.031,70.685c4.146-43.904,12.753-55.022,15.442-55.455    c0.063,0.006,6.351-0.225,19.719,22.785c11.996,20.646,24.246,55.039,24.246,55.039c1.412,3.956,5.764,6.013,9.718,4.605    c3.955-1.412,6.017-5.763,4.605-9.718c0,0-4.408-11.887-4.895-13.139c27.87-39.676,44.459-49.61,48.188-48.107    c2.463,0.997,8.284,13.383,2.915,55.774c-3.716,29.338-11.039,59.762-16.585,75.789h-14.775c0.318-3.613,0.409-7.902,0.029-13.041    c-0.781-10.599-3.483-22.933-8.03-36.659c-1.32-3.986-5.622-6.15-9.61-4.827c-3.986,1.321-6.147,5.623-4.827,9.609    c4.156,12.541,6.611,23.642,7.3,32.994c0.359,4.872,0.205,8.762-0.154,11.925h-71.76c-0.568-2.149-1.046-4.336-1.403-6.551    C244.744,136.762,244.039,102.37,247.031,70.685z M369.365,173.466c4.407,0,7.993,3.586,7.993,7.993v52.108H134.642v-52.108    c0-4.407,3.586-7.993,7.993-7.993H369.365z M377.357,248.776v18.156c0,66.917-54.441,121.357-121.357,121.357    c-66.916,0-121.357-54.44-121.357-121.357v-18.156H377.357z M187.47,158.259H165.1c1.396-12.383,11.928-22.039,24.677-22.039    c0.134,0,0.268,0.011,0.401,0.013C186.045,145.091,187.14,156.18,187.47,158.259z M232.924,158.259h-29.936    c-0.538-2.049-2.244-31.67,27.077-30.961C230.146,144.837,232.632,156.89,232.924,158.259z M255.999,418.704    c-83.687,0-151.772-68.084-151.772-151.772V102.49c0-7.27,5.914-13.185,13.184-13.185h113.063    c-0.378,7.743-0.57,15.403-0.598,22.687c-0.95-0.067-15.698-1.044-29.829,10.363c-3.338-0.883-6.789-1.343-10.27-1.343    c-21.14,0-38.494,16.468-39.938,37.246h-7.204c-12.793,0-23.201,10.408-23.201,23.201v85.473    c0,75.302,61.263,136.565,136.565,136.565s136.565-61.263,136.565-136.565v-85.473c0-24.456-26.18-23.201-26.18-23.201    c5.23-16.656,11.398-42.985,15.012-68.953h13.191c7.27,0,13.184,5.915,13.184,13.185v164.44    C407.772,350.62,339.688,418.704,255.999,418.704z"/>
	</g>
</g>
<g>
</g>
<g>
</g>
<g>
</g>
<g>
</g>
<g>
</g>
<g>
</g>
<g>
</g>
<g>
</g>
<g>
</g>
<g>
</g>
<g>
</g>
<g>
</g>
<g>
</g>
<g>
</g>
<g>
</g>
</svg>
