<?xml version="1.0" encoding="iso-8859-1"?>
<!-- Generator: Adobe Illustrator 19.0.0, SVG Export Plug-In . SVG Version: 6.00 Build 0)  -->
<svg xmlns="http://www.w3.org/2000/svg" xmlns:xlink="http://www.w3.org/1999/xlink" version="1.1" id="Capa_1" x="0px" y="0px" viewBox="0 0 512 512" style="enable-background:new 0 0 512 512;" xml:space="preserve">
<g>
	<g>
		<path d="M292.669,301.8c-1.419-1.409-3.376-2.22-5.384-2.22c-1.997,0-3.954,0.811-5.373,2.22    c-1.419,1.419-2.231,3.376-2.231,5.384c0,1.997,0.811,3.954,2.231,5.373s3.376,2.231,5.373,2.231c2.007,0,3.964-0.811,5.384-2.231    c1.409-1.419,2.22-3.376,2.22-5.373C294.89,305.176,294.079,303.22,292.669,301.8z"/>
	</g>
</g>
<g>
	<g>
		<path d="M307.877,255.419c-1.419-1.409-3.376-2.22-5.384-2.22c-1.997,0-3.954,0.811-5.373,2.22    c-1.419,1.419-2.231,3.376-2.231,5.384c0,1.997,0.811,3.954,2.231,5.373c1.419,1.419,3.376,2.23,5.373,2.23    c2.007,0,3.964-0.812,5.384-2.23c1.409-1.419,2.22-3.376,2.22-5.373C310.098,258.795,309.286,256.838,307.877,255.419z"/>
	</g>
</g>
<g>
	<g>
		<path d="M267.758,263.023c-1.419-1.409-3.376-2.22-5.384-2.22c-1.997,0-3.954,0.811-5.373,2.22    c-1.419,1.419-2.23,3.376-2.23,5.384c0,1.997,0.811,3.954,2.23,5.373c1.419,1.419,3.376,2.231,5.373,2.231    c2.007,0,3.964-0.812,5.384-2.231c1.409-1.419,2.22-3.376,2.22-5.373C269.978,266.399,269.167,264.442,267.758,263.023z"/>
	</g>
</g>
<g>
	<g>
		<path d="M157.583,260.15c-1.419-1.409-3.376-2.22-5.384-2.22c-1.997,0-3.954,0.811-5.373,2.22    c-1.419,1.419-2.231,3.376-2.231,5.384c0,1.997,0.811,3.954,2.231,5.373c1.419,1.419,3.376,2.231,5.373,2.231    c2.008,0,3.965-0.811,5.384-2.231c1.409-1.419,2.22-3.376,2.22-5.373C159.804,263.526,158.993,261.569,157.583,260.15z"/>
	</g>
</g>
<g>
	<g>
		<path d="M113.021,273.172c-1.419-1.409-3.376-2.22-5.384-2.22c-1.997,0-3.954,0.811-5.373,2.22    c-1.419,1.419-2.231,3.376-2.231,5.384c0,1.997,0.811,3.954,2.231,5.373c1.419,1.419,3.376,2.231,5.373,2.231    c2.008,0,3.964-0.811,5.384-2.231c1.409-1.419,2.22-3.376,2.22-5.373C115.242,276.548,114.43,274.591,113.021,273.172z"/>
	</g>
</g>
<g>
	<g>
		<path d="M120.625,317.008c-1.419-1.409-3.376-2.22-5.384-2.22c-1.997,0-3.954,0.811-5.373,2.22    c-1.419,1.419-2.23,3.376-2.23,5.384c0,1.997,0.811,3.954,2.23,5.373s3.376,2.23,5.373,2.23c2.008,0,3.964-0.811,5.384-2.23    c1.409-1.419,2.22-3.376,2.22-5.373C122.845,320.384,122.034,318.427,120.625,317.008z"/>
	</g>
</g>
<g>
	<g>
		<path d="M224.157,318.154c-3.291-2.606-8.073-2.05-10.681,1.242c-2.607,3.292-2.051,8.074,1.242,10.681    c4.69,3.714,7.38,9.257,7.38,15.207v14.988c0,4.2,3.404,7.604,7.604,7.604c4.2,0,7.604-3.405,7.604-7.604v-14.988    C237.305,334.657,232.513,324.769,224.157,318.154z"/>
	</g>
</g>
<g>
	<g>
		<path d="M229.701,375.985c-4.2,0-7.604,3.404-7.604,7.604v9.769c0,4.2,3.404,7.604,7.604,7.604c4.2,0,7.604-3.404,7.604-7.604    v-9.769C237.305,379.389,233.902,375.985,229.701,375.985z"/>
	</g>
</g>
<g>
	<g>
		<path d="M481.453,153.046c-0.864-6.294-4.125-11.874-9.187-15.713c-9.038-6.857-19.377-12.002-30.268-15.11    c3.562-9.829,5.463-20.306,5.463-31.002c0-37.645-16.433-55.291-29.398-67.025c-3.114-2.82-7.922-2.577-10.741,0.534    c-2.818,3.114-2.604,7.951,0.534,10.741c21.512,19.119,24.397,43.379,24.397,55.75c0,24.5-11.918,47.639-31.88,61.898    c-1.462,1.043-3.18,1.596-4.968,1.596c-2.771,0-5.386-1.342-6.992-3.592c-1.331-1.863-1.855-4.133-1.479-6.392    c0.377-2.26,1.611-4.237,3.476-5.567c15.464-11.046,24.697-28.968,24.697-47.943c0-32.46-26.407-58.868-58.867-58.868    c-17.387,0-33.032,7.583-43.817,19.608h-21.251c13.331-22.011,37.509-36.754,65.068-36.754c11.933,0,23.361,2.699,33.968,8.021    c3.752,1.884,8.324,0.368,10.206-3.385c1.884-3.754,0.368-8.324-3.385-10.207C384.287,3.242,370.563,0,356.24,0    c-36.253,0-67.632,21.259-82.333,51.963H66.131c-19.746,0-35.81,16.065-35.81,35.811v340.149c0,17.312,12.35,31.792,28.701,35.099    v17.621c0,17.29,14.067,31.357,31.358,31.357h224.665c17.29,0,31.357-14.066,31.357-31.357v-17.621    c16.353-3.306,28.702-17.786,28.702-35.099V158.539c0.296,0.483,5.178,11.387,20.303,11.387c2.749,0,5.431-0.484,7.971-1.391    c13.664-4.517,28.641-2.033,40.143,6.693c4.17,3.163,9.137,4.836,14.361,4.836c7.511,0,14.421-3.43,18.957-9.409    C480.678,165.593,482.317,159.339,481.453,153.046z M284.148,67.171h18.383c-3.304,7.349-5.159,15.486-5.159,24.052    c0,4.728-3.846,8.574-8.573,8.574c-4.728,0-8.574-3.847-8.574-8.574C280.225,82.817,281.617,74.736,284.148,67.171z     M66.131,448.525v0.001c-11.36,0-20.602-9.241-20.602-20.602V296.064c6.16,0.948,11.944,3.041,17.147,6.035v105.454    c0,24.595,25.047,23.826,25.047,23.826v17.147H66.131z M188.029,168.804c2.971,2.969,7.784,2.969,10.754,0l23.651-23.652    c2.188-2.187,5.116-3.392,8.246-3.392s6.058,1.204,8.244,3.392l37.206,37.206c4.546,4.545,4.546,11.942,0,16.488l-37.206,37.207    c-2.187,2.187-5.115,3.391-8.244,3.391c-3.13,0-6.058-1.204-8.245-3.392l-37.206-37.205c-3.963-3.963-4.508-10.407-1.267-14.986    c2.425-3.429,1.612-8.175-1.816-10.6c-3.432-2.427-8.175-1.611-10.6,1.816c-7.584,10.721-6.353,25.24,2.929,34.524l17.483,17.483    l-8.97,8.97c-2.187,2.187-5.115,3.391-8.244,3.391c-3.13,0-6.058-1.204-8.245-3.392l-37.206-37.206    c-4.546-4.545-4.545-11.942,0-16.488l37.205-37.206c4.548-4.546,11.944-4.546,16.49,0l8.97,8.97l-3.929,3.929    C185.059,161.019,185.059,165.833,188.029,168.804z M155.745,246.806c5.06,5.059,11.807,7.845,18.999,7.845    s13.939-2.786,18.997-7.845l8.97-8.97l8.97,8.97c5.06,5.059,11.807,7.845,18.999,7.845c7.191,0,13.939-2.786,18.998-7.845    l37.206-37.206c3.286-3.287,5.541-7.22,6.765-11.394h25.273c4.752,0,8.618,3.866,8.618,8.618v87.24    c-15.229,11.908-25.047,30.433-25.047,51.219v70.887h-34.772v-70.887c0-35.845-29.163-65.008-65.008-65.008    c-35.844,0-65.007,29.163-65.007,65.008v70.887H102.93v-70.887c0-20.786-9.818-39.311-25.047-51.219v-87.24    c0-4.752,3.866-8.618,8.618-8.618h25.273c1.224,4.174,3.479,8.108,6.765,11.394L155.745,246.806z M327.539,315.6v91.953    c0,8.819-9.839,8.618-9.839,8.618v-70.887C317.699,334.169,321.362,323.895,327.539,315.6z M302.492,431.378v17.147h-34.772    v-17.147H302.492z M152.913,416.17v-70.887c0-27.459,22.339-49.8,49.799-49.8c27.459,0,49.8,22.34,49.8,49.8v70.887H152.913z     M252.511,431.378v17.147h-99.599v-17.147H252.511z M137.705,431.378v17.147h-34.772v-17.147H137.705z M87.724,345.284v70.887    c0,0-9.84,0.201-9.84-8.618V315.6C84.062,323.895,87.724,334.169,87.724,345.284z M315.044,496.792H90.38    c-8.905,0-16.15-7.245-16.15-16.149v-16.91h256.962v16.91h0.001C331.193,489.547,323.948,496.792,315.044,496.792z     M359.895,427.924c0,11.36-9.242,20.602-20.603,20.602h-21.592v-17.147c0,0,25.047,0.77,25.047-23.826V302.098    c5.203-2.994,10.987-5.087,17.147-6.035V427.924z M342.748,285.184v-78.359c0-13.138-10.688-23.826-23.826-23.826H293.65    c-1.225-4.174-3.479-8.108-6.765-11.395L249.68,134.4c-10.473-10.475-27.518-10.476-37.997-0.001l-8.97,8.97l-8.969-8.969    c-10.473-10.475-27.518-10.476-37.997-0.001l-37.206,37.207c-3.286,3.287-5.54,7.22-6.764,11.394H86.503    c-13.138,0-23.826,10.688-23.826,23.826v78.359c-5.392-2.228-11.146-3.746-17.147-4.449V87.774    c0-11.36,9.241-20.603,20.602-20.603h202.11c-2.098,7.666-3.224,15.729-3.224,24.052c0,13.114,10.668,23.782,23.782,23.782    c13.113,0,23.781-10.668,23.781-23.782c0-8.882,2.673-17.149,7.246-24.052h19.464c11.36,0,20.603,9.242,20.603,20.603v192.961    h0.002C353.894,281.438,348.14,282.956,342.748,285.184z M375.103,133.729V87.774c0-35.856-37.946-35.811-37.946-35.811    c5.769-2.815,12.244-4.4,19.084-4.4c24.073,0,43.659,19.585,43.659,43.66c0,14.074-6.852,27.37-18.329,35.566    C378.927,128.677,376.749,131.039,375.103,133.729z M464.724,161.461c-4.179,5.669-10.509,2.79-12.013,1.65    c-8.346-6.333-18.054-10.223-28.112-11.518c4.181-4.744,7.844-9.894,10.945-15.359c9.92,2.495,19.362,7.018,27.531,13.216    C466.842,152.306,467.529,157.655,464.724,161.461z"/>
	</g>
</g>
<g>
</g>
<g>
</g>
<g>
</g>
<g>
</g>
<g>
</g>
<g>
</g>
<g>
</g>
<g>
</g>
<g>
</g>
<g>
</g>
<g>
</g>
<g>
</g>
<g>
</g>
<g>
</g>
<g>
</g>
</svg>
