<?xml version="1.0" encoding="iso-8859-1"?>
<!-- Generator: Adobe Illustrator 19.0.0, SVG Export Plug-In . SVG Version: 6.00 Build 0)  -->
<svg xmlns="http://www.w3.org/2000/svg" xmlns:xlink="http://www.w3.org/1999/xlink" version="1.1" id="Capa_1" x="0px" y="0px" viewBox="0 0 512 512" style="enable-background:new 0 0 512 512;" xml:space="preserve">
<g>
	<g>
		<path d="M358.365,57.959c-1.419-1.409-3.376-2.22-5.384-2.22c-1.997,0-3.954,0.811-5.373,2.22    c-1.419,1.419-2.231,3.376-2.231,5.384c0,1.997,0.811,3.954,2.231,5.373c1.419,1.419,3.376,2.23,5.373,2.23    c2.008,0,3.964-0.811,5.384-2.23c1.409-1.419,2.22-3.376,2.22-5.373C360.585,61.336,359.774,59.379,358.365,57.959z"/>
	</g>
</g>
<g>
	<g>
		<path d="M167.483,61.979c-1.419-1.409-3.376-2.22-5.384-2.22c-1.997,0-3.954,0.811-5.373,2.22c-1.419,1.419-2.23,3.376-2.23,5.384    c0,1.997,0.811,3.954,2.23,5.373c1.419,1.419,3.376,2.23,5.373,2.23c2.007,0,3.964-0.811,5.384-2.23    c1.409-1.419,2.22-3.376,2.22-5.373C169.703,65.356,168.892,63.399,167.483,61.979z"/>
	</g>
</g>
<g>
	<g>
		<path d="M155.557,98.888c-1.419-1.409-3.376-2.22-5.384-2.22c-1.997,0-3.954,0.811-5.373,2.22c-1.419,1.419-2.23,3.376-2.23,5.384    c0,1.997,0.811,3.954,2.23,5.373c1.419,1.419,3.376,2.23,5.373,2.23c2.007,0,3.964-0.812,5.384-2.23    c1.409-1.419,2.22-3.376,2.22-5.373C157.777,102.264,156.966,100.307,155.557,98.888z"/>
	</g>
</g>
<g>
	<g>
		<path d="M190.295,124.01c-1.419-1.409-3.376-2.22-5.384-2.22c-1.997,0-3.954,0.811-5.373,2.22c-1.419,1.419-2.23,3.376-2.23,5.384    c0,1.997,0.811,3.954,2.23,5.373c1.419,1.419,3.376,2.231,5.373,2.231c2.007,0,3.964-0.811,5.384-2.231    c1.409-1.419,2.22-3.376,2.22-5.373C192.515,127.387,191.704,125.43,190.295,124.01z"/>
	</g>
</g>
<g>
	<g>
		<path d="M197.899,82.073c-1.419-1.409-3.376-2.22-5.384-2.22c-1.997,0-3.954,0.811-5.373,2.22    c-1.419,1.419-2.231,3.376-2.231,5.384c0,1.997,0.811,3.954,2.231,5.373c1.419,1.419,3.376,2.23,5.373,2.23    c2.008,0,3.964-0.812,5.384-2.23c1.409-1.419,2.22-3.376,2.22-5.373C200.119,85.449,199.308,83.492,197.899,82.073z"/>
	</g>
</g>
<g>
	<g>
		<path d="M394.357,54.375c-1.419-1.409-3.376-2.22-5.384-2.22c-1.997,0-3.954,0.811-5.373,2.22    c-1.419,1.419-2.231,3.376-2.231,5.384c0,1.997,0.811,3.954,2.231,5.373c1.419,1.419,3.376,2.23,5.373,2.23    c2.007,0,3.964-0.811,5.384-2.23c1.409-1.419,2.22-3.376,2.22-5.373C396.577,57.752,395.766,55.795,394.357,54.375z"/>
	</g>
</g>
<g>
	<g>
		<path d="M369.495,83.143c-3.573-2.208-8.259-1.096-10.463,2.479c-2.234,3.621-4.559,7.164-6.911,10.528    c-2.407,3.442-1.486,8.071,1.875,10.589c5.166,3.87,9.112,0.241,10.588-1.875c2.518-3.602,5.005-7.391,7.391-11.258    C374.179,90.032,373.069,85.347,369.495,83.143z"/>
	</g>
</g>
<g>
	<g>
		<path d="M347.765,114.62c-3.097-2.836-7.907-2.622-10.743,0.478c-7.45,8.142-15.364,15.118-23.521,20.732    c-3.459,2.382-4.016,6.917-1.953,10.575c3.255,5.772,9.259,2.86,10.575,1.953c9.105-6.267,17.893-14.003,26.119-22.994    C351.077,122.265,350.864,117.455,347.765,114.62z"/>
	</g>
</g>
<g>
	<g>
		<path d="M459.075,11.423C453.649,4.27,445.051,0,436.073,0H75.928C66.95,0,58.351,4.27,52.926,11.422    c-5.426,7.153-7.221,16.584-4.803,25.226c0.278,0.993,6.965,24.662,21.697,54.695c1.848,3.771,6.405,5.33,10.175,3.479    c3.771-1.849,5.328-6.405,3.479-10.175C69.351,55.855,63.032,33.492,62.769,32.551c-1.145-4.09-0.295-8.553,2.273-11.938    c2.568-3.384,6.637-5.405,10.886-5.405h183.63c-13.345,1.533-19.453,15.395-19.453,15.395H108.534    c-6.733,0-13.1,3.149-17.032,8.422c-4.062,5.441-5.075,12.458-2.713,18.772c4.902,13.098,15.797,38.893,33.699,64.496    c17.717,25.342,38.197,44.822,60.873,57.896c22.439,12.938,46.877,19.497,72.639,19.497s50.2-6.56,72.639-19.497    c22.676-13.075,43.156-32.553,60.872-57.896c17.899-25.599,28.797-51.397,33.7-64.497c2.362-6.311,1.348-13.328-2.711-18.77    c-3.934-5.274-10.301-8.424-17.034-8.424H290.621c-2.43-5.201-7.831-14.875-19.239-15.396h164.691    c4.248,0,8.318,2.021,10.885,5.406c2.568,3.385,3.418,7.847,2.273,11.939c-0.516,1.843-12.961,45.659-42.353,90.043    C366.89,182.977,314.718,214.892,256,214.892c-102.519,0-160.594-107.64-162.649-111.503c-0.105-0.197-0.172-0.319-0.198-0.366    c-2.065-3.656-6.704-4.945-10.361-2.883c-3.631,2.049-4.928,6.637-2.927,10.282l0.06,0.112    c1.745,3.279,29.571,73.832,126.655,112.33c1.717,0.785,21.257,11.442,21.257,72.681v132.716    c-0.051,1.788-1.198,26.518-25.008,26.518h-39.253c-15.777,0-28.611,12.834-28.611,28.611c0,15.777,12.834,28.612,28.611,28.612    h184.847c15.777,0,28.611-12.834,28.611-28.611c0-15.777-12.834-28.611-28.611-28.611h-39.253    c-23.395,0-24.912-23.596-25.008-26.532V295.544c0-62.701,20.044-72.146,21.59-72.776c43.632-13.25,82.369-44.31,113.803-91.774    c30.7-46.358,43.779-92.407,44.32-94.343C466.295,28.006,464.501,18.574,459.075,11.423z M289.874,55.755    c1.732-3.18,2.769-6.552,3.18-9.945h110.412c1.955,0,3.764,0.863,4.843,2.309c0.966,1.296,1.206,2.879,0.657,4.345    c-4.651,12.426-14.982,36.888-31.919,61.114c-16.431,23.502-35.273,41.48-56.005,53.435    c-20.099,11.588-41.982,17.464-65.042,17.464c-23.06,0-44.943-5.875-65.042-17.464c-20.731-11.953-39.574-29.931-56.006-53.436    c-16.941-24.228-27.269-48.689-31.918-61.112c-0.549-1.466-0.309-3.05,0.659-4.347c1.078-1.445,2.887-2.307,4.841-2.307h123.289    c0,0-27.401,50.339-27.474,50.498c-3.201,6.167-4.127,13.527-2.012,20.703c3.469,11.766,14.476,19.985,26.769,19.985    c0,0,0,0,0.001,0c2.649,0,5.288-0.381,7.841-1.134l8.356-2.464l-4.151,7.621c-2.133,3.918-3.301,8.343-3.376,12.8    c-0.071,4.199,3.275,7.661,7.474,7.732c0.044,0.001,0.087,0.001,0.132,0.001c4.139,0,7.53-3.32,7.6-7.475    c0.034-2.042,0.548-3.989,1.527-5.785l11.423-20.975l34.349-10.125l-23.535,43.213c-3.34,6.13-11.043,8.404-17.174,5.063    c-3.689-2.01-8.307-0.649-10.315,3.04c-2.008,3.688-0.649,8.306,3.04,10.315c4.223,2.302,8.783,3.391,13.284,3.391    c9.882,0,19.47-5.262,24.522-14.535c0,0,36.594-67.225,36.698-67.475c3.229-6.371,3.908-13.594,1.891-20.442    c-3.469-11.767-14.477-19.985-26.769-19.985c-2.65,0-5.289,0.381-7.843,1.133l-8.355,2.463L289.874,55.755z M298.381,75.5    c1.157-0.342,11.477-3.614,15.724,8.563c2.981,8.549-5.342,14.775-8.564,15.725l-72.893,21.488    c-1.157,0.342-12.386,2.512-15.723-8.563c-2.015-6.685,1.867-13.751,8.564-15.724L298.381,75.5z M271.455,31.308    c6.089,3.413,8.402,11.043,5.062,17.174l-11.423,20.976l-34.349,10.126l23.535-43.213    C255.889,33.421,261.746,25.866,271.455,31.308z M309.172,469.987h39.253c7.39,0,13.403,6.013,13.403,13.403    c0,7.39-6.014,13.402-13.404,13.402H163.577c-7.39,0-13.403-6.013-13.403-13.403c0-7.39,6.013-13.403,13.403-13.403h39.253    c15.917,0,28.382-7.555,35.099-21.275c4.765-9.734,5.093-19.158,5.115-20.2c0.001-0.053,0.002-0.105,0.002-0.158V295.544    c0-33.699-5.618-54.48-12.245-67.284c8.26,1.211,16.662,1.841,25.201,1.841c8.54,0,16.941-0.629,25.199-1.837    c-6.627,12.804-12.243,33.585-12.243,67.28v132.809c0,0.053,0.001,0.105,0.002,0.158c0.021,1.042,0.35,10.466,5.115,20.2    C280.789,462.43,293.254,469.987,309.172,469.987z"/>
	</g>
</g>
<g>
</g>
<g>
</g>
<g>
</g>
<g>
</g>
<g>
</g>
<g>
</g>
<g>
</g>
<g>
</g>
<g>
</g>
<g>
</g>
<g>
</g>
<g>
</g>
<g>
</g>
<g>
</g>
<g>
</g>
</svg>
