<?xml version="1.0" encoding="iso-8859-1"?>
<!-- Generator: Adobe Illustrator 19.0.0, SVG Export Plug-In . SVG Version: 6.00 Build 0)  -->
<svg xmlns="http://www.w3.org/2000/svg" xmlns:xlink="http://www.w3.org/1999/xlink" version="1.1" id="Capa_1" x="0px" y="0px" viewBox="0 0 512 512" style="enable-background:new 0 0 512 512;" xml:space="preserve">
<g>
	<g>
		<path d="M397.629,43.506c-8.877,0-17.229,3.045-23.877,8.547c-6.648-5.502-14.999-8.547-23.877-8.547    c-8.878,0-17.23,3.045-23.877,8.547c-6.648-5.502-14.999-8.547-23.877-8.547c-8.881,0-17.236,3.046-23.886,8.554    c-6.39-5.272-14.381-8.302-22.871-8.527c-0.134-0.004-0.268-0.004-0.401,0c-8.49,0.224-16.48,3.254-22.871,8.527    c-6.649-5.508-15.003-8.554-23.886-8.554c-8.877,0-17.23,3.045-23.877,8.547c-6.648-5.502-14.999-8.547-23.877-8.547    c-8.878,0-17.23,3.045-23.878,8.547c-6.648-5.502-14.999-8.547-23.877-8.547c-4.199,0-7.604,3.404-7.604,7.604    c0,4.2,3.405,7.604,7.604,7.604c7.051,0,13.546,3.23,17.821,8.861c1.438,1.894,3.678,3.007,6.057,3.007    c2.379,0,4.619-1.113,6.057-3.007c4.274-5.632,10.769-8.861,17.821-8.861c7.051,0,13.546,3.23,17.821,8.861    c1.438,1.894,3.678,3.007,6.057,3.007c2.378,0,4.619-1.113,6.057-3.007c4.274-5.632,10.769-8.861,17.821-8.861    c7.051,0,13.546,3.23,17.821,8.861c1.438,1.894,3.678,3.007,6.057,3.007c2.378,0,4.619-1.113,6.057-3.007    c4.087-5.386,10.282-8.597,17.022-8.834c6.739,0.236,12.935,3.448,17.022,8.834c1.438,1.894,3.678,3.007,6.057,3.007    c2.378,0,4.619-1.113,6.057-3.007c4.274-5.632,10.77-8.861,17.821-8.861s13.546,3.23,17.821,8.861    c1.438,1.894,3.678,3.007,6.057,3.007s4.619-1.113,6.057-3.007c4.274-5.632,10.769-8.861,17.821-8.861s13.546,3.23,17.821,8.861    c1.438,1.894,3.678,3.007,6.057,3.007s4.619-1.113,6.057-3.007c4.274-5.632,10.769-8.861,17.821-8.861    c12.744,0,22.354,9.564,22.354,22.244c0,8.632-5.195,48.723-30.606,87.172c-30.286,45.824-75.451,69.17-134.185,69.387    c-58.79-0.217-103.954-23.562-134.24-69.387c-25.412-38.45-30.607-78.541-30.607-87.172c0-6.355,2.422-12.127,6.819-16.253    c3.062-2.874,3.214-7.686,0.34-10.749c-2.874-3.063-7.686-3.215-10.748-0.341c-7.492,7.033-11.619,16.744-11.619,27.343    c0,11.787,6.086,54.643,33.127,95.557c22.871,34.603,66.915,75.913,146.928,76.209c79.956-0.296,124.001-41.606,146.871-76.209    c27.044-40.914,33.13-83.77,33.13-95.557C435.19,59.957,418.692,43.506,397.629,43.506z"/>
	</g>
</g>
<g>
	<g>
		<path d="M364.874,163.634c-3.2-2.72-7.999-2.332-10.719,0.87c-2.691,3.166-5.534,6.195-8.451,9.003    c-3.026,2.912-3.129,7.737-0.206,10.751c4.284,4.417,9.277,1.625,10.753,0.206c3.281-3.158,6.474-6.56,9.493-10.112    C368.464,171.152,368.074,166.353,364.874,163.634z"/>
	</g>
</g>
<g>
	<g>
		<path d="M337.42,190.594c-2.225-3.56-6.918-4.64-10.478-2.416c-12.099,7.566-25.861,12.929-40.901,15.939    c-4.117,0.824-6.684,4.811-5.964,8.948c1.27,7.294,8.444,6.065,8.947,5.965c16.849-3.372,32.319-9.414,45.981-17.956    C338.565,198.847,339.646,194.154,337.42,190.594z"/>
	</g>
</g>
<g>
	<g>
		<path d="M167.771,75.573c-1.419-1.409-3.376-2.22-5.384-2.22c-1.997,0-3.954,0.811-5.373,2.22c-1.419,1.419-2.23,3.376-2.23,5.384    c0,1.997,0.811,3.954,2.23,5.373c1.419,1.419,3.376,2.23,5.373,2.23c2.007,0,3.964-0.811,5.384-2.23    c1.409-1.419,2.22-3.376,2.22-5.373C169.992,78.949,169.181,76.993,167.771,75.573z"/>
	</g>
</g>
<g>
	<g>
		<path d="M217.112,83.177c-1.419-1.409-3.376-2.22-5.384-2.22c-1.997,0-3.954,0.811-5.373,2.22c-1.419,1.419-2.23,3.376-2.23,5.384    c0,1.997,0.811,3.954,2.23,5.373s3.376,2.23,5.373,2.23c2.008,0,3.964-0.811,5.384-2.23c1.409-1.419,2.22-3.376,2.22-5.373    C219.332,86.553,218.521,84.597,217.112,83.177z"/>
	</g>
</g>
<g>
	<g>
		<path d="M261.384,75.573c-1.419-1.409-3.376-2.22-5.384-2.22c-1.997,0-3.954,0.811-5.373,2.22c-1.419,1.419-2.23,3.376-2.23,5.384    c0,1.997,0.811,3.954,2.23,5.373c1.419,1.419,3.376,2.23,5.373,2.23c2.007,0,3.964-0.811,5.384-2.23    c1.409-1.419,2.22-3.376,2.22-5.373C263.604,78.949,262.793,76.993,261.384,75.573z"/>
	</g>
</g>
<g>
	<g>
		<path d="M309.373,83.177c-1.419-1.409-3.376-2.22-5.384-2.22c-1.997,0-3.954,0.811-5.373,2.22    c-1.419,1.419-2.231,3.376-2.231,5.384c0,1.997,0.811,3.954,2.231,5.373c1.419,1.419,3.376,2.23,5.373,2.23    c2.008,0,3.964-0.811,5.384-2.23c1.409-1.419,2.22-3.376,2.22-5.373C311.594,86.553,310.783,84.597,309.373,83.177z"/>
	</g>
</g>
<g>
	<g>
		<path d="M356.011,75.573c-1.419-1.409-3.376-2.22-5.384-2.22c-1.997,0-3.954,0.811-5.373,2.22    c-1.419,1.419-2.231,3.376-2.231,5.384c0,1.997,0.811,3.954,2.231,5.373c1.419,1.419,3.376,2.23,5.373,2.23    c2.008,0,3.964-0.811,5.384-2.23c1.409-1.419,2.22-3.376,2.22-5.373C358.231,78.949,357.42,76.993,356.011,75.573z"/>
	</g>
</g>
<g>
	<g>
		<path d="M385.896,451.079h-74.488c-19.845,0-22-10.689-22.227-13.332v-69.431c0-73.099,50.584-102.213,50.991-102.65    c74.876-32.605,127.363-107.307,127.363-194.049c0-16.025-1.807-32.014-5.369-47.524C458.908,9.906,446.468,0,431.914,0H80.087    C65.533,0,53.093,9.906,49.834,24.092c-3.563,15.51-5.369,31.499-5.369,47.524c0,86.832,52.596,161.6,127.597,194.151    c0.43,0.482,50.757,28.771,50.757,102.922v5.776c0,4.2,3.405,7.604,7.604,7.604s7.604-3.404,7.604-7.604v-5.776    c0-42.993-14.354-72.068-30.185-91.071c15.476,3.616,31.596,5.535,48.158,5.535c16.559,0,32.679-1.917,48.152-5.534    c-15.801,18.964-30.088,47.915-30.18,90.68v69.72c0,0.155,0.005,0.312,0.014,0.467c0.636,10.326,9.232,27.801,37.421,27.801    h74.487c8.41,0,15.253,6.843,15.253,15.253c0,8.41-6.842,15.252-15.252,15.252H126.105c-8.41,0-15.253-6.843-15.253-15.253    s6.843-15.253,15.253-15.253h74.478c29.108,0,37.219-18.493,37.442-28.273c0.001-0.058,0.002-0.115,0.002-0.172v-41.579    c0-4.2-3.405-7.604-7.604-7.604s-7.604,3.404-7.604,7.604v41.464c-0.047,1.078-1.053,13.352-22.236,13.352h-74.478    c-16.796,0-30.46,13.665-30.46,30.46c0,16.796,13.665,30.461,30.46,30.461h259.792c16.796,0,30.46-13.665,30.46-30.46    S402.692,451.079,385.896,451.079z M256.001,267.944c-108.255,0-196.328-88.072-196.328-196.329    c0-14.881,1.677-29.724,4.983-44.119c1.663-7.235,8.008-12.288,15.432-12.288h351.826c7.423,0,13.769,5.053,15.432,12.289    c3.306,14.394,4.983,29.238,4.983,44.119C452.329,179.872,364.256,267.944,256.001,267.944z"/>
	</g>
</g>
<g>
</g>
<g>
</g>
<g>
</g>
<g>
</g>
<g>
</g>
<g>
</g>
<g>
</g>
<g>
</g>
<g>
</g>
<g>
</g>
<g>
</g>
<g>
</g>
<g>
</g>
<g>
</g>
<g>
</g>
</svg>
