<?xml version="1.0" encoding="iso-8859-1"?>
<!-- Generator: Adobe Illustrator 19.0.0, SVG Export Plug-In . SVG Version: 6.00 Build 0)  -->
<svg xmlns="http://www.w3.org/2000/svg" xmlns:xlink="http://www.w3.org/1999/xlink" version="1.1" id="Capa_1" x="0px" y="0px" viewBox="0 0 512.001 512.001" style="enable-background:new 0 0 512.001 512.001;" xml:space="preserve">
<g>
	<g>
		<path d="M410.678,105.846c-0.104-4.311-0.965-8.508-2.584-12.487c-1.583-3.893-6.017-5.768-9.914-4.182    c-3.893,1.583-5.765,6.022-4.182,9.914c0.984,2.421,1.483,4.989,1.483,7.634c0,11.188-9.102,20.29-20.29,20.29    c-11.188,0-20.29-9.102-20.29-20.29s9.102-20.29,20.29-20.29c2.622,0,5.172,0.49,7.576,1.459c3.898,1.57,8.331-0.318,9.899-4.216    c1.569-3.899-0.318-8.33-4.216-9.899c-7.621-3.068-13.995-2.543-14.362-2.532c-1.353-6.2-4.326-11.802-8.459-16.33    c0.623-2.658,0.939-5.384,0.939-8.136c0-19.579-15.929-35.507-35.507-35.507c-14.2,0-26.474,8.383-32.149,20.455    c-1.371-0.159-37.962-0.498-39.654,35.263c-0.192,4.049,0.702,8.062,2.039,11.844h-72.309l-6.429-57.636    c-1.459-13.065-13.27-22.506-26.336-21.051c-6.312,0.704-11.981,3.837-15.965,8.82c-3.984,4.984-5.79,11.205-5.087,17.516    l5.84,52.35h-36.96c-8.194,0-15.79,4.629-19.821,12.082c-3.909,7.22-3.918,16.198-0.042,23.402    c0.079,0.148,15.529,25.208,15.529,71.735c0,7.927,7.734,7.415,7.799,7.414c4.201-0.107,7.519-3.598,7.414-7.799    c-0.241-9.512-0.285-41.068-17.328-78.532c-1.303-2.864-1.487-6.21,0.01-8.976c1.371-2.534,3.837-4.108,6.438-4.108h38.658    l2.879,25.809h-6.637c-5.945,0-11.551,2.934-14.993,7.846c-3.395,4.842-4.31,11.097-2.449,16.727    c6.162,18.672,14.762,57.055,3.115,104.345c-0.024,0.1-0.048,0.201-0.068,0.302c-0.156,0.769-3.834,18.948-3.834,28.722    c0,55.102,40.816,99.933,90.987,99.933c50.171,0,90.986-44.83,90.986-99.933c0-9.775-3.679-27.957-3.835-28.725    c-0.021-0.101-0.044-0.201-0.068-0.301c-11.558-46.945-2.949-85.555,3.212-104.394c1.839-5.628,0.911-11.87-2.48-16.695    c-3.443-4.901-9.043-7.828-14.98-7.828h-90.981l-2.879-25.809h128.757c2.6,0,5.067,1.573,6.439,4.109    c1.496,2.766,1.5,6.204-0.019,9.027c-0.304,0.574-30.122,58.374-10.576,135.899c0.017,0.064,0.033,0.13,0.052,0.194    c3.043,10.849,4.586,22.128,4.586,33.526c0,64.044-48.528,116.148-108.178,116.148s-108.178-52.102-108.178-116.147    c0-11.397,1.543-22.677,4.587-33.526c0.018-0.064,0.034-0.13,0.052-0.194c2.819-11.185,4.78-22.587,5.825-33.884    c0.388-4.185-2.69-7.89-6.874-8.277c-4.192-0.396-7.891,2.691-8.277,6.874c-0.971,10.489-2.789,21.076-5.405,31.473    c-3.4,12.156-5.123,24.783-5.123,37.534c0,61.847,40.357,113.839,94.505,127.721v35.274c0,1.712-0.481,16.721-17.122,16.721    h-20.705c-15.296,0-27.739,12.444-27.739,27.738c0,15.296,12.444,27.739,27.739,27.739h133.432    c15.296,0,27.739-12.444,27.739-27.739c0-15.294-12.444-27.738-27.739-27.738h-20.705c-16.054,0-17.079-13.975-17.122-16.721    v-35.274c54.149-13.881,94.505-65.874,94.505-127.721c0-12.751-1.724-25.38-5.123-37.535c-2.38-9.458-3.962-18.597-4.925-27.342    c6.512,7.402,16.043,12.086,26.654,12.086c19.579,0,35.507-15.929,35.507-35.507c0-3.409-0.486-6.743-1.427-9.964    c1.512-1.75,2.855-3.647,4.006-5.669c1.771,0.269,3.564,0.417,5.369,0.417c19.579,0,35.507-15.929,35.507-35.507    C430.708,124.122,422.786,111.725,410.678,105.846z M178.253,119.862h-17.352l-2.879-25.809h17.352L178.253,119.862z     M157.909,15.273c4.697-0.776,9,2.887,9.526,7.613l6.241,55.948h-17.353l-6.028-54.036    C150.042,22.527,150.877,16.435,157.909,15.273z M211.708,362.52c-34.146,0-63.077-25.39-72.513-60.167h145.026    C274.785,337.13,245.853,362.52,211.708,362.52z M287.006,287.136H136.409c-0.302-3.066-0.471-6.176-0.471-9.331    c0-6.773,2.497-20.581,3.498-25.539c0.853-3.475,1.596-6.902,2.254-10.285h140.038c0.655,3.383,1.395,6.808,2.247,10.28    c1.002,4.96,3.5,18.771,3.5,25.544C287.476,280.959,287.308,284.07,287.006,287.136z M145.404,192.789h132.69    c-0.463,10.45-0.174,21.848,1.265,33.976H144.08C145.541,214.614,145.848,203.222,145.404,192.789z M284.542,135.079    c0.986,0,1.931,0.507,2.529,1.36c0.649,0.923,0.824,2.126,0.467,3.217c-2.913,8.905-6.331,21.892-8.219,37.915h-135.12    c-1.877-16.067-5.312-29.038-8.24-37.907c-0.36-1.092-0.189-2.297,0.461-3.222c0.599-0.854,1.544-1.364,2.532-1.364H284.542z     M303.896,78.826c0,0.003,0,0.005,0,0.008h-25.588c-2.502-3.459-3.978-7.528-3.833-11.844    c0.677-20.212,20.815-20.268,21.078-20.257c0,0.015-0.001,0.03-0.001,0.047c0,8.896,3.346,17.432,9.287,23.943    C304.23,73.327,303.896,76.037,303.896,78.826z M257.758,471.741h20.705c6.905,0,12.522,5.616,12.522,12.521    s-5.617,12.522-12.522,12.522H145.03c-6.905,0-12.522-5.617-12.522-12.522s5.617-12.521,12.522-12.521h20.705    c23.727,0,32.339-19.1,32.339-31.938v-32.44c4.491,0.53,9.05,0.811,13.672,0.811s9.181-0.281,13.672-0.811v32.44    C225.419,452.641,234.031,471.741,257.758,471.741z M312.721,55.439c-1.266-2.681-1.95-5.633-1.95-8.66    c0-11.188,9.102-20.29,20.29-20.29c10.712,0,19.488,8.349,20.219,18.88c-3.716-1.323-7.712-2.049-11.876-2.049    C328.778,43.319,319.234,48.018,312.721,55.439z M319.443,78.834h-0.329c0-0.003,0-0.005,0-0.008    c0-11.188,9.102-20.29,20.29-20.29c9.871,0,18.109,7.089,19.913,16.442c-8.521,4.278-15.097,11.881-18,21.102    c-0.486-1.783-1.163-3.52-2.051-5.163C335.233,83.464,327.638,78.834,319.443,78.834z M324.456,174.784    c0.214-2.826,0.482-5.577,0.795-8.242c0.766,2.313,1.777,4.54,3.006,6.653C327.046,173.852,325.775,174.388,324.456,174.784z     M340.165,112.519c1.257,7.624,4.949,14.434,10.25,19.607c-7.291,8.924-18.618,7.421-19.982,7.137    C334.587,123.648,339.897,113.137,340.165,112.519z M351.747,208.798c-11.188,0-20.29-9.102-20.29-20.29    c0-0.013,0.001-0.027,0.001-0.041c2.579-1.001,5.039-2.308,7.333-3.895c5.882,4.057,12.911,6.303,20.168,6.303    c4.615,0,9.022-0.895,13.071-2.504c0,0.046,0.007,0.09,0.007,0.136C372.037,199.696,362.936,208.798,351.747,208.798z     M358.96,175.659c-5.743,0-11.243-2.45-15.088-6.723c-3.355-3.727-5.202-8.545-5.202-13.567c0-0.235,0.012-0.471,0.02-0.706    c9.919-1.139,18.87-6.375,24.703-14.454c3.456,1.221,7.155,1.918,11.004,2.004c3.137,3.667,4.853,8.271,4.853,13.156    C379.25,166.557,370.148,175.659,358.96,175.659z M394.356,158.044c0.066-0.885,0.846-11.077-3.972-19.233    c7.496-3.564,13.548-9.679,17.039-17.215c4.977,3.774,8.278,9.738,8.068,16.188C414.815,158.464,394.638,158.055,394.356,158.044z    "/>
	</g>
</g>
<g>
</g>
<g>
</g>
<g>
</g>
<g>
</g>
<g>
</g>
<g>
</g>
<g>
</g>
<g>
</g>
<g>
</g>
<g>
</g>
<g>
</g>
<g>
</g>
<g>
</g>
<g>
</g>
<g>
</g>
</svg>
