<?xml version="1.0" encoding="iso-8859-1"?>
<!-- Generator: Adobe Illustrator 19.0.0, SVG Export Plug-In . SVG Version: 6.00 Build 0)  -->
<svg xmlns="http://www.w3.org/2000/svg" xmlns:xlink="http://www.w3.org/1999/xlink" version="1.1" id="Capa_1" x="0px" y="0px" viewBox="0 0 511.999 511.999" style="enable-background:new 0 0 511.999 511.999;" xml:space="preserve">
<g>
	<g>
		<path d="M288.054,55.237h-64.108c-9.552,0-17.323,7.771-17.323,17.323v176.047c0,27.226,22.15,49.377,49.378,49.377    c27.225,0,49.376-22.149,49.376-49.377V72.56C305.377,63.008,297.606,55.237,288.054,55.237z M290.174,248.607    c0,18.843-15.329,34.173-34.172,34.173c-18.844,0-34.174-15.33-34.174-34.173V72.56c0-1.169,0.951-2.119,2.119-2.119h64.108    c1.169,0,2.119,0.951,2.119,2.119V248.607z"/>
	</g>
</g>
<g>
	<g>
		<path d="M264.964,215.449c1.409-2.722,3.785-5.188,7.748-6.58c3.961-1.392,6.044-5.731,4.652-9.693    c-1.392-3.96-5.729-6.045-9.693-4.652c-11.219,3.942-16.513,12.183-18.625,20.368c-13.026,3.138-22.736,14.882-22.736,28.857    c0,16.37,13.318,29.688,29.688,29.688c4.197,0.001,7.601-3.401,7.601-7.601s-3.403-7.602-7.602-7.602    c-7.987,0-14.485-6.498-14.485-14.485s6.498-14.484,14.485-14.484c7.987,0,14.484,6.497,14.484,14.484    c0,2.908-0.856,5.71-2.476,8.104c-2.352,3.478-1.441,8.204,2.036,10.556c3.478,2.351,8.205,1.441,10.556-2.036    c3.329-4.92,5.088-10.668,5.088-16.624C285.686,230.504,276.965,219.26,264.964,215.449z"/>
	</g>
</g>
<g>
	<g>
		<path d="M268.868,156.279c-1.419-1.409-3.375-2.22-5.382-2.22c-1.997,0-3.953,0.811-5.372,2.22    c-1.419,1.419-2.23,3.375-2.23,5.382c0,1.997,0.811,3.953,2.23,5.372c1.419,1.419,3.375,2.23,5.372,2.23    c2.007,0,3.963-0.811,5.382-2.23c1.409-1.419,2.22-3.375,2.22-5.372C271.087,159.654,270.277,157.698,268.868,156.279z"/>
	</g>
</g>
<g>
	<g>
		<path d="M280.64,117.426c-1.419-1.409-3.375-2.22-5.382-2.22c-1.997,0-3.953,0.811-5.372,2.22c-1.419,1.419-2.23,3.375-2.23,5.382    c0,1.997,0.811,3.953,2.23,5.372c1.419,1.419,3.375,2.23,5.372,2.23c2.007,0,3.963-0.812,5.382-2.23    c1.409-1.419,2.22-3.375,2.22-5.372C282.86,120.801,282.049,118.845,280.64,117.426z"/>
	</g>
</g>
<g>
	<g>
		<path d="M268.868,83.64c-1.419-1.409-3.375-2.22-5.382-2.22c-1.997,0-3.953,0.811-5.372,2.22c-1.419,1.419-2.23,3.375-2.23,5.382    c0,1.997,0.811,3.953,2.23,5.372c1.419,1.419,3.375,2.23,5.372,2.23c2.007,0,3.963-0.811,5.382-2.23    c1.409-1.419,2.22-3.375,2.22-5.372C271.087,87.015,270.277,85.059,268.868,83.64z"/>
	</g>
</g>
<g>
	<g>
		<path d="M322.216,465.73H304.31c-10.12,0-17.048-3.772-21.177-11.531c-3.444-6.476-3.788-13.483-3.821-14.987v-44.938    c0-4.199-3.403-7.602-7.602-7.602c-4.199,0-7.602,3.402-7.602,7.602v45.014c0,0.047,0,0.093,0.001,0.14    c0.282,15.415,9.066,41.505,40.2,41.505h17.906c4.372,0,7.931,3.559,7.931,7.931c0,4.374-3.559,7.932-7.931,7.932H189.786    c-4.372,0-7.931-3.559-7.931-7.932c0-4.372,3.559-7.931,7.931-7.931h17.902c31.623,0,40.151-26.333,40.205-41.92v-94.404    c0-8.946-1.546-16.286-3.81-22.249c3.884,0.625,7.862,0.962,11.92,0.962c4.06,0,8.043-0.338,11.929-0.964    c-2.264,5.959-3.821,13.297-3.821,22.251v27.704c0,4.199,3.403,7.602,7.602,7.602c4.199,0,7.602-3.403,7.602-7.602v-27.704    c0-22.636,11.927-29.989,12.166-30.262c23.346-12.65,39.238-37.373,39.238-65.74V20.714C330.716,9.292,321.424,0,310.002,0    H201.998c-11.422,0-20.714,9.292-20.714,20.714v227.892c0,28.306,15.823,52.985,39.087,65.66    c0.213,0.228,12.317,7.031,12.317,30.343v94.378c-0.001,0.313-0.066,7.742-3.527,14.641c-4.086,8.143-11.11,12.101-21.474,12.101    h-17.902c-12.757,0-23.135,10.378-23.135,23.135c0,12.757,10.378,23.136,23.135,23.136h132.43    c12.757,0,23.135-10.379,23.135-23.136C345.349,476.107,334.972,465.73,322.216,465.73z M196.488,248.607V20.714    c0-3.039,2.471-5.511,5.511-5.511h108.004c3.039,0,5.511,2.471,5.511,5.511v227.892c0,32.815-26.697,59.512-59.511,59.512    C223.185,308.119,196.488,281.422,196.488,248.607z"/>
	</g>
</g>
<g>
</g>
<g>
</g>
<g>
</g>
<g>
</g>
<g>
</g>
<g>
</g>
<g>
</g>
<g>
</g>
<g>
</g>
<g>
</g>
<g>
</g>
<g>
</g>
<g>
</g>
<g>
</g>
<g>
</g>
</svg>
