<?xml version="1.0" encoding="iso-8859-1"?>
<!-- Generator: Adobe Illustrator 19.0.0, SVG Export Plug-In . SVG Version: 6.00 Build 0)  -->
<svg xmlns="http://www.w3.org/2000/svg" xmlns:xlink="http://www.w3.org/1999/xlink" version="1.1" id="Capa_1" x="0px" y="0px" viewBox="0 0 511.997 511.997" style="enable-background:new 0 0 511.997 511.997;" xml:space="preserve">
<g>
	<g>
		<path d="M414.686,136.871c-4.92-5.416-11.937-8.521-19.254-8.521H377.92l16.089-100.357c1.019-6.356-0.508-12.74-4.3-17.98    c-3.792-5.239-9.379-8.685-15.735-9.704c-6.354-1.019-12.739,0.506-17.978,4.299c-5.24,3.791-8.686,9.379-9.705,15.734    l-11.688,72.902c-0.702-10.323-3.257-21.081-7.669-32.22c-3.08-7.775-11.652-11.633-19.509-8.777    c-1.097,0.397-9.743,3.648-20.094,10.646c-4.316-5.814-9.459-11.428-15.438-16.823c-6.21-5.604-15.6-5.26-21.376,0.783    c-0.9,0.94-18.224,19.332-23.97,46.055c-14.443-13.513-33.838-21.797-55.178-21.797c-44.634,0-80.816,36.182-80.816,80.816    c0,37.058,24.954,68.263,58.969,77.794l24.895,258.755c1.29,13.409,12.421,23.52,25.892,23.52h163.214    c13.471,0,24.602-10.112,25.892-23.521l31.906-331.625C422.024,149.569,419.605,142.287,414.686,136.871z M361.308,22.748    c0.376-2.345,1.656-4.412,3.604-5.822c1.949-1.409,4.312-1.978,6.656-1.604c2.344,0.376,4.411,1.656,5.822,3.604    c1.41,1.949,1.98,4.313,1.604,6.656l-16.475,102.765h-18.141L361.308,22.748z M341.939,143.556h18.141l-3.217,20.067h-18.141    L341.939,143.556z M335.605,203.731c5.06-5.06,7.846-11.807,7.846-18.998c0-2.011-0.226-3.986-0.651-5.902h26.207    c1.576,0,6.186,0.976,5.576,6.138l-19.842,206.232c-0.278,2.887-2.676,5.064-5.576,5.064H214.67c-2.901,0-5.298-2.177-5.576-5.064    l-19.842-206.231c0-6.974,7.966-6.139,7.966-6.139c-1.942,8.685,0.453,18.153,7.198,24.899l21.25,21.25    c5.238,5.238,12.118,7.855,18.998,7.855c6.88,0,13.76-2.619,18.998-7.855l6.349-6.349l6.348,6.349    c8.795,8.053,19.967,7.839,20.45,7.813c-4.109,1.271-7.87,3.522-10.987,6.641l-21.25,21.25    c-5.059,5.059-7.846,11.806-7.846,18.998c0,5.7,1.756,11.116,5,15.638l-9.298,9.299c-5.059,5.059-7.845,11.806-7.845,18.998    s2.787,13.938,7.846,18.998l21.25,21.25c5.238,5.237,12.118,7.855,18.998,7.855c6.88,0,13.76-2.619,18.999-7.855l21.25-21.251    c9.418-9.419,10.363-24.145,2.845-34.634l9.299-9.299c5.059-5.059,7.845-11.806,7.845-18.998c0-7.191-2.787-13.938-7.846-18.998    l-21.249-21.249c-9.119-8.428-20.002-7.829-20.501-7.803c4.041-1.246,7.845-3.46,11.038-6.652L335.605,203.731z M294.874,325.884    c3.234,1.281,6.61,1.904,9.955,1.904c13.08,0,19.833-8.701,19.833-8.701c1.782,4.241,0.956,9.326-2.492,12.775l-21.249,21.25    c-4.546,4.545-11.943,4.547-16.489,0l-21.25-21.25c-2.187-2.186-3.391-5.114-3.391-8.244s1.204-6.058,3.391-8.245l9.041-9.041    l4.19,4.19c2.97,2.969,7.784,2.969,10.753,0c2.97-2.971,2.97-7.784,0-10.754l-11.84-11.84c-2.188-2.188-3.392-5.116-3.392-8.246    s1.204-6.058,3.391-8.244l21.25-21.251c2.187-2.187,5.115-3.391,8.244-3.391c3.13,0,6.058,1.204,8.245,3.392l21.25,21.25    c2.187,2.186,3.391,5.114,3.391,8.244s-1.204,6.058-3.391,8.245l-21.248,21.249c-3.288,3.288-8.229,4.296-12.587,2.568    c-3.907-1.548-8.324,0.364-9.871,4.268S290.971,324.337,294.874,325.884z M326.538,143.557l-1.812,11.299    c0,0-11.017-10.999-11.348-11.299H326.538z M312.796,66.624c14.388,32.583,0.206,60.532-0.426,61.726h-10.329    c1.46-6.722,2.095-13.439,1.851-20.065c-0.416-11.327-3.268-22.175-8.511-32.476C304.593,69.494,312.765,66.553,312.796,66.624z     M261.707,57.359c17.224,15.542,26.305,32.864,26.988,51.482c0.235,6.399-0.546,12.94-2.29,19.508h-43.61    c-1.669-5.281-2.627-10.727-2.829-16.244C238.839,81.416,261.65,57.307,261.707,57.359z M277.335,143.557    c-0.332,0.299-7.325,7.276-7.325,7.276s-6.994-6.976-7.325-7.276H277.335z M252.909,155.239l21.249,21.25    c2.969,2.969,7.783,2.969,10.753,0c2.97-2.971,2.97-7.784,0-10.754l-4.148-4.148l6.348-6.348c4.546-4.545,11.943-4.547,16.489,0    l21.249,21.25c4.546,4.545,4.546,11.942,0,16.488l-21.249,21.25c-4.546,4.545-11.943,4.545-16.489,0.001l-6.349-6.349l4.148-4.148    c2.092-2.092,3.808-4.493,5.105-7.138c1.848-3.772,0.289-8.327-3.482-10.174c-3.772-1.848-8.326-0.289-10.175,3.482    c-0.558,1.138-1.299,2.174-2.202,3.076l-21.249,21.25c-4.546,4.545-11.943,4.546-16.489,0l-21.249-21.249    c-4.546-4.546-4.546-11.943,0-16.489l21.25-21.25C240.965,150.694,248.363,150.691,252.909,155.239z M202.437,94.166    c8.895,4.808,16.567,11.609,22.406,19.816c0.262,4.852,0.972,9.657,2.146,14.366h-36.15L202.437,94.166z M170.325,86.328    c6.212-0.098,12.234,0.687,17.958,2.217l-13.505,39.803h-5.333l-16.987-39.23C158.129,87.409,164.116,86.427,170.325,86.328z     M108.555,170.841c-1.709-5.668-2.685-11.658-2.784-17.867c-0.099-6.201,0.689-12.209,2.213-17.925l34.741,15.21    c-0.31,1.938-0.398,3.917-0.262,5.9L108.555,170.841z M114.618,184.789l29.359-12.713l3.954,41.102    C133.879,207.782,122.118,197.685,114.618,184.789z M149.418,136.589l-35.829-15.685c5.768-10.695,14.415-19.624,24.919-25.73    l16.088,37.154C152.707,133.51,150.966,134.938,149.418,136.589z M406.185,155.396l-31.906,331.625    c-0.536,5.57-5.16,9.771-10.754,9.771H200.31c-5.595,0-10.219-4.2-10.754-9.769L157.65,155.395    c-0.291-3.024,0.714-6.05,2.757-8.299c2.044-2.25,4.959-3.539,7.997-3.539h58.239c-0.332,0.3-20.115,20.067-20.115,20.067h-11.699    c-5.853,0-11.468,2.485-15.404,6.819c-3.935,4.332-5.87,10.159-5.31,15.984l19.842,206.23    c1.032,10.728,9.937,18.817,20.714,18.817h134.495c10.777,0,19.682-8.09,20.714-18.816l19.842-206.232    c0.561-5.825-1.375-11.65-5.311-15.984c-3.208-3.53-7.529-5.833-12.187-6.565l3.258-20.32h19.95c3.039,0,5.954,1.29,7.997,3.539    C405.472,149.345,406.476,152.37,406.185,155.396z"/>
	</g>
</g>
<g>
	<g>
		<path d="M341.82,359.712c-1.419-1.409-3.376-2.22-5.384-2.22c-1.997,0-3.954,0.811-5.373,2.22c-1.419,1.419-2.23,3.376-2.23,5.384    c0,1.997,0.811,3.954,2.23,5.373c1.419,1.419,3.376,2.23,5.373,2.23c2.007,0,3.964-0.811,5.384-2.23    c1.409-1.419,2.22-3.376,2.22-5.373C344.04,363.088,343.229,361.131,341.82,359.712z"/>
	</g>
</g>
<g>
	<g>
		<path d="M266.562,240.459c-1.419-1.409-3.376-2.22-5.384-2.22c-1.997,0-3.954,0.811-5.373,2.22    c-1.419,1.419-2.231,3.376-2.231,5.384c0,1.997,0.811,3.954,2.231,5.373c1.419,1.419,3.376,2.23,5.373,2.23    c2.007,0,3.964-0.811,5.384-2.23c1.409-1.419,2.22-3.376,2.22-5.373C268.783,243.835,267.972,241.879,266.562,240.459z"/>
	</g>
</g>
<g>
	<g>
		<path d="M358.017,217.099c-1.419-1.409-3.376-2.22-5.384-2.22c-1.997,0-3.954,0.811-5.373,2.22    c-1.419,1.419-2.231,3.376-2.231,5.384c0,1.997,0.811,3.954,2.231,5.373c1.419,1.419,3.376,2.231,5.373,2.231    c2.007,0,3.964-0.811,5.384-2.231c1.409-1.419,2.22-3.376,2.22-5.373C360.237,220.475,359.426,218.518,358.017,217.099z"/>
	</g>
</g>
<g>
	<g>
		<path d="M357.367,433.352c-3.848-4.236-9.336-6.664-15.057-6.664h-38.764c-4.199,0-7.604,3.404-7.604,7.604    c0,4.2,3.405,7.604,7.604,7.604h38.764c1.444,0,2.83,0.612,3.8,1.681c0.971,1.071,1.45,2.508,1.311,3.945l-1.368,14.211    c-0.254,2.646-2.451,4.642-5.111,4.642H222.506c-2.659,0-4.856-1.996-5.112-4.642l-1.367-14.211    c-0.138-1.437,0.34-2.874,1.31-3.944c0.971-1.07,2.356-1.682,3.801-1.682h60.586c4.199,0,7.604-3.404,7.604-7.604    c0-4.2-3.405-7.604-7.604-7.604h-60.586c-5.721,0-11.209,2.429-15.058,6.665c-3.847,4.236-5.739,9.931-5.191,15.625l1.367,14.211    c1.009,10.486,9.715,18.394,20.249,18.394h118.437c10.535,0,19.24-7.908,20.249-18.394l1.368-14.211    C363.107,443.283,361.214,437.588,357.367,433.352z"/>
	</g>
</g>
<g>
</g>
<g>
</g>
<g>
</g>
<g>
</g>
<g>
</g>
<g>
</g>
<g>
</g>
<g>
</g>
<g>
</g>
<g>
</g>
<g>
</g>
<g>
</g>
<g>
</g>
<g>
</g>
<g>
</g>
</svg>
