<?xml version="1.0" encoding="iso-8859-1"?>
<!-- Generator: Adobe Illustrator 19.0.0, SVG Export Plug-In . SVG Version: 6.00 Build 0)  -->
<svg xmlns="http://www.w3.org/2000/svg" xmlns:xlink="http://www.w3.org/1999/xlink" version="1.1" id="Capa_1" x="0px" y="0px" viewBox="0 0 511.999 511.999" style="enable-background:new 0 0 511.999 511.999;" xml:space="preserve">
<g>
	<g>
		<path d="M300.309,440.122c-3.408-3.672-8.234-5.78-13.242-5.78h-91.974c-5.008,0-9.836,2.107-13.24,5.781    c-3.405,3.672-5.141,8.643-4.762,13.639l0.845,11.133c0.709,9.358,8.617,16.689,18.002,16.689h90.286    c9.385,0,17.294-7.33,18.003-16.688l0.845-11.135C305.451,448.766,303.714,443.795,300.309,440.122z M289.061,463.746    c-0.112,1.475-1.359,2.631-2.839,2.631h-90.286c-1.479,0-2.726-1.156-2.838-2.63l-0.845-11.134    c-0.06-0.788,0.214-1.571,0.751-2.15c0.537-0.579,1.298-0.911,2.088-0.911h91.974c0.79,0,1.55,0.333,2.089,0.911    c0.536,0.579,0.81,1.363,0.75,2.149L289.061,463.746z"/>
	</g>
</g>
<g>
	<g>
		<path d="M241.135,316.326c-1.419-1.409-3.376-2.22-5.384-2.22c-1.997,0-3.954,0.811-5.374,2.22    c-1.419,1.419-2.23,3.376-2.23,5.384c0,1.997,0.811,3.954,2.23,5.373c1.419,1.419,3.376,2.231,5.374,2.231    c2.008,0,3.964-0.811,5.384-2.231c1.409-1.419,2.22-3.376,2.22-5.373C243.355,319.702,242.544,317.745,241.135,316.326z"/>
	</g>
</g>
<g>
	<g>
		<path d="M255.611,288.4c-1.419-1.409-3.376-2.22-5.384-2.22c-1.997,0-3.954,0.811-5.374,2.22c-1.419,1.419-2.23,3.376-2.23,5.384    c0,1.997,0.811,3.954,2.23,5.373s3.376,2.231,5.374,2.231c2.008,0,3.964-0.811,5.384-2.231c1.409-1.419,2.22-3.376,2.22-5.373    C257.831,291.776,257.02,289.819,255.611,288.4z"/>
	</g>
</g>
<g>
	<g>
		<path d="M233.531,268.674c-1.419-1.409-3.376-2.22-5.384-2.22c-1.997,0-3.954,0.811-5.374,2.22    c-1.419,1.419-2.23,3.376-2.23,5.384c0,1.997,0.811,3.954,2.23,5.373c1.419,1.419,3.376,2.231,5.374,2.231    c2.008,0,3.964-0.811,5.384-2.231c1.409-1.419,2.22-3.376,2.22-5.373C235.751,272.05,234.94,270.093,233.531,268.674z"/>
	</g>
</g>
<g>
	<g>
		<path d="M255.611,242.99c-1.419-1.409-3.376-2.22-5.384-2.22c-1.997,0-3.954,0.811-5.374,2.22c-1.419,1.419-2.23,3.376-2.23,5.384    c0,1.997,0.811,3.954,2.23,5.373s3.376,2.231,5.374,2.231c2.008,0,3.964-0.811,5.384-2.231c1.409-1.419,2.22-3.376,2.22-5.373    C257.831,246.366,257.02,244.409,255.611,242.99z"/>
	</g>
</g>
<g>
	<g>
		<path d="M280.46,301.917c-4.187-0.311-7.839,2.82-8.157,7.007l-0.691,9.123c-0.317,4.188,2.808,8.158,7.008,8.158    c5.067,0.001,7.854-3.015,8.157-7.007l0.691-9.123C287.785,305.886,284.647,302.234,280.46,301.917z"/>
	</g>
</g>
<g>
	<g>
		<path d="M278.07,333.446c-4.181-0.312-7.839,2.82-8.157,7.007l-3.04,40.086c-0.317,4.188,2.815,7.932,7.008,8.158    c5.657,0.304,7.854-3.015,8.157-7.007l3.04-40.086C285.395,337.415,282.257,333.763,278.07,333.446z"/>
	</g>
</g>
<g>
	<g>
		<path d="M384.408,90.429l-63.89-67.189c-2.568-2.7-5.941-4.501-9.566-5.192c-0.361-0.083-6.884-1.115-11.72,1.806l-80.998,43.725    c-5.175,2.544-8.794,7.44-9.701,13.14c-0.744,4.681,0.378,9.371,3.16,13.207c2.761,3.805,6.828,6.317,11.463,7.084    c0.044,0.008,65.348,10.399,65.348,10.399l-1.4,8.8h-73.148l-10.441-60.196c-0.739-4.263-2.774-8.107-5.887-11.115l-22.953-22.188    c-3.02-2.92-7.834-2.838-10.752,0.182c-2.919,3.019-2.838,7.833,0.182,10.751l22.954,22.19c0.779,0.751,1.288,1.712,1.472,2.779    l9.991,57.598h-10.29l-8.984-51.792c-0.275-1.588-1.048-3.048-2.207-4.168l-37.582-36.329c-0.973-0.942-1.522-2.205-1.545-3.559    c-0.022-1.354,0.483-2.636,1.424-3.61c0.941-0.973,2.204-1.522,3.558-1.544c1.334-0.045,2.635,0.483,3.609,1.423l2.529,2.443    c3.019,2.918,7.833,2.836,10.752-0.182c2.919-3.02,2.838-7.834-0.181-10.752c0,0-6.088-8.138-16.966-8.138    c-5.417,0-10.471,2.287-14.236,6.182c-3.764,3.895-5.787,9.021-5.695,14.437c0.091,5.415,2.287,10.47,6.182,14.235l35.799,34.605    l8.109,46.749h-23.258c-7.267,0-14.271,3.057-19.214,8.387c-4.942,5.332-7.46,12.547-6.911,19.793l26.033,343.392    c1.029,13.582,12.504,24.219,26.124,24.219h131.406c13.62,0,25.095-10.637,26.124-24.218l26.033-343.393    c0.549-7.246-1.969-14.462-6.911-19.794c-4.942-5.33-11.944-8.386-19.212-8.386h-30.505l1.02-6.411c0,0,67.097,10.6,68.029,10.6    c6.608,0,12.625-3.635,15.7-9.485C390.796,104.178,389.652,95.945,384.408,90.429z M225.773,82.029    c-0.039-0.007-2.114-0.241-2.219-2.109c-0.088-1.562,1.054-2.533,1.418-2.706c0.116-0.055,59.814-32.278,59.814-32.278    l-31.671,41.443L225.773,82.029z M284.686,131.418l-2.692,16.916l-6.595-6.594c-5.059-5.06-11.809-7.665-18.998-7.846    c-12.742-0.321-20.242,9.09-20.242,9.09s-7.328-9.413-19.132-9.064l-0.434-2.502H284.686z M201.158,131.418l1.075,6.195    c-1.915,1.135-8.944,7.756-8.944,7.756l-2.42-13.951H201.158z M186.421,173.743l21.251-21.252    c2.187-2.187,5.115-3.356,8.244-3.391c6.071-0.068,9.49,4.636,9.49,4.636l-2.466,2.466c-2.97,2.97-2.97,7.784,0,10.753    c2.97,2.969,7.784,2.97,10.753-0.001l14.463-14.463c2.188-2.188,5.115-3.392,8.245-3.392c3.13,0,6.058,1.204,8.245,3.392    l21.251,21.251c2.187,2.186,3.391,5.114,3.391,8.244c0,3.13-1.204,6.058-3.391,8.245l-21.251,21.251    c-2.187,2.187-5.115,3.391-8.244,3.391c-3.13,0-6.058-1.204-8.245-3.392l-21.25-21.249c-2.68-2.681-3.88-6.537-3.21-10.319    c0.732-4.135-2.027-8.082-6.161-8.813c-4.133-0.738-8.081,2.026-8.814,6.161c-1.535,8.667,1.243,17.535,7.432,23.724l9.252,9.252    c0,0-2.657,4.636-9.489,4.636c-3.129,0-6.058-1.204-8.245-3.392l-21.25-21.249c-2.188-2.188-3.392-5.116-3.392-8.246    C183.029,178.856,184.234,175.929,186.421,173.743z M303.729,175.567h5.609c2.882,0,3.377,2.65,3.308,3.568l-16.81,221.726    c-0.13,1.72-1.584,3.066-3.308,3.066h-102.51c-1.725,0-3.177-1.346-3.308-3.066l-15.616-205.978    c1.212,2.215,2.741,4.271,4.574,6.104l21.25,21.249c5.06,5.06,11.807,7.846,18.999,7.846c11.647,0,20.243-9.09,20.243-9.09    s8.386,9.09,20.242,9.09c7.191,0,13.939-2.786,18.998-7.845l21.251-21.251c5.059-5.059,7.845-11.807,7.845-18.998    C304.496,179.794,304.233,177.643,303.729,175.567z M333.011,131.417L333.011,131.417c3.049,0,5.987,1.283,8.059,3.518    c2.073,2.237,3.131,5.263,2.9,8.304l-26.033,343.394c-0.432,5.697-5.246,10.16-10.96,10.16H175.57    c-5.714,0-10.528-4.462-10.96-10.16L138.577,143.24c-0.231-3.041,0.826-6.067,2.899-8.303c2.073-2.237,5.012-3.519,8.061-3.519    h25.896l4.701,27.104l-1.837,1.837h-5.089c-5.138,0-10.089,2.162-13.587,5.932c-3.493,3.769-5.273,8.868-4.886,13.994    l16.81,221.726c0.728,9.602,8.842,17.124,18.473,17.124H292.53c9.631,0,17.744-7.522,18.473-17.124l16.81-221.727    c0.388-5.124-1.393-10.224-4.888-13.995c-3.495-3.769-8.447-5.93-13.585-5.93h-13.86l4.605-28.942H333.011z M270.179,89.095    l36.549-47.825l19.901,56.806L270.179,89.095z M373.792,103.835c-0.501,0.953-1.563,1.496-2.641,1.323l-27.476-4.372    c-0.033-0.112-0.06-0.224-0.098-0.335l-17.136-48.915l46.946,49.371C374.136,101.697,374.299,102.872,373.792,103.835z"/>
	</g>
</g>
<g>
</g>
<g>
</g>
<g>
</g>
<g>
</g>
<g>
</g>
<g>
</g>
<g>
</g>
<g>
</g>
<g>
</g>
<g>
</g>
<g>
</g>
<g>
</g>
<g>
</g>
<g>
</g>
<g>
</g>
</svg>
