<?xml version="1.0" encoding="iso-8859-1"?>
<!-- Generator: Adobe Illustrator 19.0.0, SVG Export Plug-In . SVG Version: 6.00 Build 0)  -->
<svg xmlns="http://www.w3.org/2000/svg" xmlns:xlink="http://www.w3.org/1999/xlink" version="1.1" id="Capa_1" x="0px" y="0px" viewBox="0 0 511.999 511.999" style="enable-background:new 0 0 511.999 511.999;" xml:space="preserve">
<g>
	<g>
		<path d="M276.982,245.261c-0.606-4.156-4.464-7.034-8.622-6.426c-4.156,0.606-7.033,4.466-6.426,8.622    c0.415,2.847,0.626,5.766,0.626,8.675c0,4.199,3.404,7.604,7.604,7.604c4.199,0,7.604-3.405,7.604-7.604    C277.768,252.49,277.504,248.833,276.982,245.261z"/>
	</g>
</g>
<g>
	<g>
		<path d="M268.622,272.456c-3.928-1.485-8.318,0.493-9.803,4.421c-3.507,9.268-9.245,17.145-16.596,22.779    c-3.334,2.555-4.079,7.418-1.409,10.661c5.085,6.177,9.281,2.467,10.661,1.408c9.6-7.359,17.058-17.549,21.568-29.468    C274.529,278.33,272.55,273.942,268.622,272.456z"/>
	</g>
</g>
<g>
	<g>
		<path d="M345.257,135.521c-3.447,0-6.883,0.217-10.287,0.644c4.503-20.7,11.215-33.343,11.57-33.998    c4.044-7.086,4.022-15.865-0.065-22.928c-4.099-7.087-11.731-11.489-19.918-11.489h-42.491c3.75-18-2.875-39.248-9.747-54.95    c-2.256-5.121-6.064-12.014-13.068-12.739c-7.117-0.736-11.498,5.367-13.845,8.648c-0.121,0.168-10.695,16.193-33.187,16.193    h-26.728c-39.835,0-38.238,41.358-38.061,42.848h-41.64c-8.187,0-15.819,4.402-19.918,11.489    c-4.099,7.087-4.11,15.897-0.045,22.966c0.055,0.097,15.453,26.731,15.453,61.3c0,4.17,3.443,7.516,7.601,7.516    c0.029,0,7.234,1.511,7.605-7.692c0.399-9.892-1.724-35.407-17.46-68.677c-1.187-2.51-1.381-5.396,0.009-7.799    c1.39-2.404,3.977-3.896,6.753-3.896l35.169-0.143c-7.299,11.157-4.24,21.379-3.985,23.166c-3.987,1.534-7.478,4.348-9.925,8.154    c-3.653,5.684-4.512,12.932-2.297,19.389c5.776,16.838,13.865,51.518,3.147,94.529c0,0-3.807,18.595-3.807,28.08    c0,53.972,40.843,97.881,91.047,97.881c50.203,0,91.046-43.909,91.046-97.881c0-9.488-3.773-27.945-3.798-28.047    c-10.643-42.726-2.544-77.624,3.231-94.623c2.193-6.451,1.32-13.687-2.336-19.356c-2.447-3.794-5.936-6.6-9.918-8.129    c0.255-1.784,2.005-14.216-3.907-23.02h35.102c2.776,0,5.364,1.492,6.754,3.896c1.39,2.403,1.394,5.39-0.024,7.855    c-0.309,0.549-30.723,55.775-10.798,129.708c0.018,0.068,5.295,18.41,4.681,31.832c-2.771,60.589-49.344,109.997-109.996,109.997    c-60.653,0-109.997-49.344-109.997-109.997c0-10.751,1.555-21.391,4.625-31.628c0.02-0.068,5.499-24.951,6.414-37.345    c0.31-4.188-2.835-7.834-7.023-8.143c-4.199-0.317-7.835,2.835-8.143,7.023c-0.843,11.405-2.809,22.912-5.847,34.204    c-3.473,11.622-5.234,23.696-5.234,35.889c0,49.568,28.955,92.499,70.838,112.772c-0.784,2.806-1.191,5.707-1.191,8.682    c0,5.813,1.543,11.269,4.23,15.995c-2.752,4.851-4.23,10.363-4.23,15.975c0,16.805,12.833,30.668,29.214,32.305    c-1.954,8.232-7.811,20.082-25.365,20.082c-13.768,0-24.969,11.201-24.969,24.97s11.201,24.969,24.969,24.969h103.408    c13.768,0,24.969-11.201,24.969-24.969c0-2.171-0.282-4.326-0.837-6.408c-1.083-4.057-5.256-6.469-9.308-5.386    c-4.057,1.083-6.468,5.251-5.386,9.308c0.214,0.803,0.322,1.638,0.322,2.485c0,5.383-4.379,9.761-9.761,9.761H165.465    c-5.383,0-9.761-4.379-9.761-9.761c0-5.384,4.379-9.762,9.761-9.762c21.478,0,31.729-11.887,36.547-21.86    c2.32-4.803,3.558-9.52,4.225-13.267h21.812c2.674,15.507,13.293,35.127,40.82,35.127h0.004c4.2,0,7.602-3.405,7.602-7.604    c0-4.199-3.406-7.604-7.606-7.604c-17.54,0-23.411-11.732-25.37-20.081c16.389-1.63,29.232-15.497,29.232-32.307    c0-5.636-1.458-11.11-4.229-15.977c2.686-4.725,4.229-10.18,4.229-15.992c0-2.972-0.405-5.874-1.189-8.682    c29.278-14.173,52.234-39.419,63.4-70.262c3.414,0.429,92.268,3.378,92.268-81.282    C427.211,172.286,390.447,135.521,345.257,135.521z M176.924,77.428h9.833c4.2,0,7.604-3.404,7.604-7.604    s-3.404-7.604-7.604-7.604h-9.833c-4.38,0-8.585,0.748-12.508,2.107c-0.017-0.363,0.644-24.217,23.074-24.217h26.728    c26.954,0,41.841-16.625,45.561-22.523c0.192,0.393,13.255,28.212,9.495,46.52c-3.737-1.219-7.72-1.887-11.859-1.887    c-4.2,0-7.604,3.405-7.604,7.604s3.404,7.604,7.604,7.604c26.266,0,22.988,25.887,22.744,27.233H154.173    C153.93,103.314,152.893,77.428,176.924,77.428z M292.5,122.348c1.144,1.773,1.418,4.156,0.717,6.219    c-6.305,18.559-15.15,56.609-3.628,103.034c0.972,4.764,3.386,18.007,3.386,24.529c0,45.586-34.021,82.673-75.838,82.673    c-41.818,0-75.839-37.087-75.839-82.673c0-8.136,3.34-24.341,3.34-24.341c11.68-46.868,2.818-84.777-3.503-103.202    c-0.709-2.065-0.438-4.453,0.706-6.231c1.001-1.558,2.563-2.488,4.18-2.488h142.304    C289.938,119.868,291.499,120.796,292.5,122.348z M177.084,374.871c12.591,4.266,26.075,6.582,40.09,6.582    s27.499-2.315,40.09-6.582c0.155,0.93,0.26,1.871,0.26,2.831c0,9.517-7.743,17.261-17.261,17.261h-46.178    c-9.518,0-17.261-7.744-17.261-17.261C176.824,376.741,176.929,375.801,177.084,374.871z M240.262,426.933h-46.178    c-9.518,0-17.261-7.744-17.261-17.261c0-1.408,0.185-2.803,0.526-4.157c4.891,2.953,10.617,4.657,16.736,4.657h46.178    c6.12,0,11.849-1.703,16.74-4.659c0.339,1.352,0.521,2.745,0.521,4.16C257.523,419.189,249.781,426.933,240.262,426.933z     M337.146,220.358c-3.446-12.816-5.244-25.017-5.902-36.38c4.417-1.85,9.196-2.833,14.013-2.833    c20.033,0,36.33,16.298,36.33,36.329c0,33.769-38.284,36.278-39.256,36.2C342.101,242.355,340.373,231.159,337.146,220.358z     M339.286,283.94c1.115-4.918,1.944-9.944,2.458-15.062c1.169,0.079,55.051-0.454,55.051-51.404    c0-28.418-23.12-51.537-51.538-51.537c-4.818,0-9.608,0.706-14.217,2.029c0.182-5.608,0.619-10.945,1.241-15.973    c4.254-0.837,8.603-1.264,12.976-1.264c36.804,0,66.746,29.942,66.746,66.745C412.003,282.365,341.268,284.116,339.286,283.94z"/>
	</g>
</g>
<g>
</g>
<g>
</g>
<g>
</g>
<g>
</g>
<g>
</g>
<g>
</g>
<g>
</g>
<g>
</g>
<g>
</g>
<g>
</g>
<g>
</g>
<g>
</g>
<g>
</g>
<g>
</g>
<g>
</g>
</svg>
