<?xml version="1.0" encoding="iso-8859-1"?>
<!-- Generator: Adobe Illustrator 19.0.0, SVG Export Plug-In . SVG Version: 6.00 Build 0)  -->
<svg xmlns="http://www.w3.org/2000/svg" xmlns:xlink="http://www.w3.org/1999/xlink" version="1.1" id="Capa_1" x="0px" y="0px" viewBox="0 0 512 512" style="enable-background:new 0 0 512 512;" xml:space="preserve">
<g>
	<g>
		<path d="M301.406,140.996c-1.419-1.409-3.376-2.22-5.384-2.22c-1.997,0-3.954,0.811-5.373,2.22    c-1.419,1.419-2.231,3.376-2.231,5.384c0,1.997,0.811,3.954,2.231,5.373c1.419,1.419,3.376,2.231,5.373,2.231    c2.007,0,3.964-0.811,5.384-2.231c1.409-1.419,2.22-3.376,2.22-5.373C303.627,144.372,302.816,142.415,301.406,140.996z"/>
	</g>
</g>
<g>
	<g>
		<path d="M329.983,146.234c-1.419-1.409-3.376-2.22-5.384-2.22c-1.997,0-3.954,0.811-5.373,2.22    c-1.419,1.419-2.231,3.376-2.231,5.384c0,1.997,0.811,3.954,2.231,5.373c1.419,1.419,3.376,2.23,5.373,2.23    c2.007,0,3.964-0.811,5.384-2.23c1.409-1.419,2.22-3.376,2.22-5.373C332.203,149.61,331.392,147.654,329.983,146.234z"/>
	</g>
</g>
<g>
	<g>
		<path d="M301.744,169.891c-1.419-1.409-3.376-2.22-5.384-2.22c-1.997,0-3.954,0.811-5.373,2.22    c-1.419,1.419-2.231,3.376-2.231,5.384c0,1.997,0.811,3.954,2.231,5.373c1.419,1.419,3.376,2.23,5.373,2.23    c2.007,0,3.964-0.811,5.384-2.23c1.409-1.419,2.22-3.376,2.22-5.373C303.964,173.267,303.153,171.31,301.744,169.891z"/>
	</g>
</g>
<g>
	<g>
		<path d="M349.28,463.338c-0.077-0.002-0.154-0.003-0.232-0.003c-57.882,0-67.033-20.819-68.208-30.201V268.169    c0-16.729,17.567-24.371,17.567-24.371c59.457-18.188,102.823-73.576,102.823-138.908c0-30.184-9.201-63.283-25.909-93.201    C371.296,4.479,363.662,0,355.405,0H156.595c-8.259,0-15.891,4.479-19.917,11.69c-16.707,29.917-25.908,63.017-25.908,93.201    c0,65.118,43.08,120.363,102.236,138.733c0,0,18.154,8.156,18.154,24.546v55.086c0,4.199,3.404,7.604,7.604,7.604    s7.604-3.405,7.604-7.604v-55.086c0-6.813-1.65-13.126-4.791-18.765c4.745,0.47,9.556,0.715,14.422,0.715    c4.871,0,9.684-0.245,14.432-0.716c-3.15,5.645-4.801,11.965-4.801,18.765v165.4c0,0.27-0.169,44.972,83.281,44.972    c1.762,0.072,9.265,0.869,9.265,9.125c0,5.031-4.093,9.125-9.125,9.125H162.948c-5.032,0-9.125-4.093-9.125-9.125    s4.093-9.125,9.125-9.125c84.723,0.002,83.421-44.738,83.421-45.004v-88.99c0-4.199-3.404-7.604-7.604-7.604    s-7.604,3.405-7.604,7.604v88.559c-1.161,9.387-10.287,30.229-68.213,30.229c-13.416,0-24.333,10.916-24.333,24.333    S149.532,512,162.948,512h186.103c13.416,0,24.333-10.916,24.333-24.333C373.384,470.357,358.968,463.634,349.28,463.338z     M274.305,15.208c-0.107,0.103-8.023,8.006-8.023,8.006s-7.914-7.903-8.021-8.006H274.305z M239.584,22.876    c3.13,0,6.058,1.204,8.245,3.391l7.719,7.719c-1.077,1.16-2.055,2.408-2.904,3.732c-2.268,3.534-1.243,8.238,2.291,10.507    c3.536,2.269,8.239,1.244,10.507-2.291c0.442-0.688,19.294-19.665,19.294-19.665c4.547-4.546,11.945-4.544,16.489,0l17.743,17.743    c2.188,2.188,3.392,5.115,3.392,8.245c0,3.129-1.204,6.058-3.391,8.245l-17.745,17.743c-2.186,2.187-5.114,3.391-8.244,3.391    c-3.13,0-6.058-1.204-8.244-3.391c0,0-18.892-19.025-19.346-19.745c-2.244-3.551-6.942-4.61-10.489-2.367    c-3.552,2.243-4.611,6.939-2.368,10.489c0.877,1.388,1.893,2.694,3.015,3.903l-7.721,7.721c-2.186,2.187-5.114,3.391-8.244,3.391    c-2.355,0-4.595-0.683-6.492-1.953c1.273-8.526-2.762-17.334-10.76-21.692c-3.704-2.018-7.75-2.791-11.672-2.493    c-1.147-3.998-0.113-8.439,2.935-11.487l17.746-17.744C233.527,24.08,236.454,22.876,239.584,22.876z M335.612,42.139    c0,0,3.398-1.2,4.312,0.922c9.126,21.189,15.682,42.045,15.682,61.831c0,54.923-44.683,99.606-99.606,99.606    c-6.923,0-13.681-0.712-20.209-2.062c0.318,0.014,12.267,0.848,19.54-10.987c0,0,24.507-45.04,24.615-45.305    c2.256-4.589,2.887-9.991,1.331-15.27c-2.63-8.918-10.971-15.146-20.284-15.146c-1.925,0-3.841,0.273-5.701,0.797    c2.47-4.696,3.2-10.313,1.585-15.793c-0.815-2.766-2.182-5.271-3.955-7.413c2.045-1.17,3.95-2.613,5.657-4.32l7.24-7.239    c-4.728,10.049-2.855,22.285,5.289,30.428l17.744,17.744c5.238,5.238,12.117,7.856,18.998,7.856c6.879,0,13.76-2.619,18.997-7.856    l17.745-17.743c5.059-5.059,7.845-11.807,7.845-18.999c0-7.191-2.786-13.939-7.846-18.999c-2.969-2.97-7.783-2.969-10.753,0    c-2.97,2.97-2.97,7.784,0.001,10.753c2.187,2.187,3.391,5.115,3.391,8.245c0,3.13-1.204,6.058-3.392,8.245l-17.743,17.743    c-4.547,4.546-11.945,4.545-16.489,0l-17.744-17.744c-2.404-2.404-3.545-5.631-3.389-8.822c4.283,2.752,9.276,4.233,14.507,4.233    c7.192,0,13.939-2.787,18.998-7.845l17.743-17.743c5.06-5.06,7.846-11.807,7.846-18.999    C337.568,48.726,336.893,45.306,335.612,42.139z M217.422,79.368l-7.119,13.072l-16.044,4.73l12.777-23.459    c1.56-2.864,5.16-3.927,8.023-2.365C217.922,72.906,218.982,76.504,217.422,79.368z M234.946,101.03    c0.538-0.159,5.508-1.5,7.344,4.001c1.032,3.093-0.872,6.423-4.001,7.345l-48.624,14.334c-0.538,0.159-6.326,1.378-7.344-4.001    c-0.607-3.204,0.872-6.423,4-7.345L234.946,101.03z M196.867,62.078c-1.215,1.289-2.301,2.732-3.188,4.359    c0,0-24.506,45.038-24.614,45.303c-2.256,4.589-2.888,9.991-1.332,15.27c2.629,8.919,10.97,15.148,20.285,15.148h0.001    c1.927,0,3.845-0.274,5.707-0.799c-2.58,4.9-3.155,10.494-1.593,15.794c2.629,8.919,10.97,15.148,20.285,15.148    c1.921,0,3.831-0.272,5.687-0.794c-2.572,4.881-3.137,10.478-1.567,15.805c1.599,5.422,3.218,8.112,11.095,13.062    c-41.146-12.246-71.237-50.414-71.237-95.483c0-19.785,5.423-41.166,15.682-61.832c0.281-0.568,0.851-0.92,1.484-0.92h23.434    C194.44,48.465,194.346,55.625,196.867,62.078z M214.064,156.854c-0.538,0.159-5.094,2.384-7.344-4.002    c-1.582-4.487,2.5-6.901,4.001-7.344l48.625-14.334c0.538-0.159,5.61-1.004,7.344,4c1.068,3.081-0.872,6.423-4.001,7.345    L214.064,156.854z M231.588,178.517l7.119-13.072l16.045-4.73l-12.777,23.46c-1.56,2.862-5.272,4.119-8.024,2.365    C229.471,183.681,230.839,179.89,231.588,178.517z M256.001,234.913c-71.694,0-130.022-58.327-130.022-130.022    c0-27.632,8.515-58.098,23.977-85.787c1.342-2.404,3.886-3.896,6.64-3.896h64.312c-0.106,0.102-0.216,0.201-0.32,0.305    l-11.419,11.418H173.56c-6.451,0-12.24,3.59-15.107,9.367c-11.296,22.756-17.267,46.475-17.267,68.594    c0,63.309,51.505,114.814,114.814,114.814S370.814,168.2,370.814,104.891c0-22.119-5.972-45.839-17.267-68.592    c-2.867-5.779-8.656-9.368-15.108-9.368h-15.043L311.98,15.514c-0.105-0.105-0.215-0.203-0.321-0.305h43.747    c2.754,0,5.297,1.493,6.64,3.896c15.462,27.69,23.978,58.156,23.978,85.787C386.022,176.585,327.695,234.913,256.001,234.913z"/>
	</g>
</g>
<g>
</g>
<g>
</g>
<g>
</g>
<g>
</g>
<g>
</g>
<g>
</g>
<g>
</g>
<g>
</g>
<g>
</g>
<g>
</g>
<g>
</g>
<g>
</g>
<g>
</g>
<g>
</g>
<g>
</g>
</svg>
