<?xml version="1.0" encoding="iso-8859-1"?>
<!-- Generator: Adobe Illustrator 19.0.0, SVG Export Plug-In . SVG Version: 6.00 Build 0)  -->
<svg xmlns="http://www.w3.org/2000/svg" xmlns:xlink="http://www.w3.org/1999/xlink" version="1.1" id="Capa_1" x="0px" y="0px" viewBox="0 0 512.001 512.001" style="enable-background:new 0 0 512.001 512.001;" xml:space="preserve">
<g>
	<g>
		<path d="M273.989,443.203c-3.583-3.642-8.569-5.732-13.679-5.732h-72.145c-5.109,0-10.094,2.089-13.677,5.73    c-3.584,3.642-5.591,8.66-5.508,13.768c0.059,3.602,0.098,7.174,0.12,10.613c0.063,10.517,8.67,19.072,19.187,19.072h71.902    c10.517,0,19.123-8.555,19.188-19.073c0.021-3.514,0.061-7.083,0.119-10.609C279.579,451.863,277.572,446.845,273.989,443.203z     M264.169,467.491c-0.013,2.181-1.799,3.955-3.98,3.955h-71.902c-2.181,0-3.966-1.774-3.979-3.956    c-0.021-3.491-0.062-7.114-0.122-10.768c-0.017-1.058,0.399-2.099,1.143-2.854c0.743-0.755,1.777-1.188,2.837-1.188h72.145    c1.06,0,2.093,0.433,2.837,1.188c0.743,0.756,1.16,1.798,1.143,2.856C264.231,460.301,264.189,463.924,264.169,467.491z"/>
	</g>
</g>
<g>
	<g>
		<path d="M326.419,47.391c-44.861,0-82.049,32.728-89.064,75.605h-32.943l-3.926-15.742c-1.016-4.075-5.145-6.554-9.218-5.539    c-4.075,1.016-6.555,5.143-5.539,9.218l3.008,12.063h-10.449l-16.527-66.277c-0.486-1.95-1.725-3.628-3.443-4.668l-45.359-27.429    c-1.159-0.701-1.975-1.811-2.298-3.125c-0.323-1.315-0.117-2.678,0.585-3.836c0.701-1.159,1.811-1.975,3.126-2.298    c1.317-0.324,2.678-0.117,3.835,0.584l49.833,30.134c1.154,0.698,1.969,1.803,2.295,3.111l10.39,40.664    c0.863,3.457,4.982,6.975,9.218,5.539c3.977-1.349,6.555-5.143,5.539-9.218L185.092,45.51c-1.306-5.234-4.566-9.654-9.182-12.445    L126.077,2.934c-4.634-2.803-10.084-3.633-15.342-2.337c-5.26,1.295-9.7,4.561-12.503,9.196    c-2.802,4.635-3.633,10.084-2.337,15.343c1.295,5.26,4.561,9.699,9.196,12.502l42.674,25.805l14.85,59.555h-31.539    c-7.663,0-14.773,3.458-19.506,9.486c-4.734,6.027-6.407,13.754-4.588,21.205c0.371,1.52,37.13,154.023,37.13,333.511    c0,13.676,11.127,24.803,24.803,24.803h110.644c13.677,0,24.804-11.127,24.804-24.803c0-103.048,12.165-197.393,22.568-259.244    c49.626-0.277,89.77-40.587,89.77-90.278C416.703,87.812,376.281,47.391,326.419,47.391z M222.839,138.204    c-0.383,0.288-0.747,0.612-1.081,0.981c-2.821,3.112-2.583,7.921,0.528,10.741c4.39,3.978,7.609,8.698,9.987,13.581h-17.761    l-6.309-25.304H222.839z M192.53,138.204l6.309,25.304H188.39l-6.309-25.304H192.53z M237.281,178.715L237.281,178.715    c0.116,0.577,0.22,1.143,0.318,1.705c-14.33,3.85-24.912,16.946-24.912,32.475c0,18.542,15.084,33.626,33.626,33.626    s33.626-15.084,33.626-33.626c0-16.263-11.607-29.864-26.969-32.961c-0.061-0.401-0.126-0.808-0.194-1.219h36.925    c1.24,0,2.432,0.642,3.272,1.758c0.969,1.29,1.343,3.054,1.002,4.717c-5.082,24.802-22.039,114.107-26.823,221.959    c-0.124,2.789-2.053,4.975-4.392,4.975h-77.043c-2.339,0-4.268-2.186-4.392-4.976c-4.776-108.048-21.739-197.204-26.824-221.955    c-0.342-1.665,0.031-3.428,1.001-4.718c0.841-1.119,2.033-1.76,3.273-1.76H237.281z M246.313,194.476    c10.157,0,18.419,8.262,18.419,18.419s-8.262,18.419-18.419,18.419c-10.156,0-18.418-8.263-18.418-18.419    C227.896,202.739,236.159,194.476,246.313,194.476z M326.719,150.082c-0.376,1.541-37.563,156.182-37.563,337.115    c0,5.29-4.305,9.595-9.596,9.595H168.915c-5.291,0-9.595-4.305-9.595-9.595c0-181.433-37.19-335.588-37.564-337.12    c-0.703-2.881-0.056-5.871,1.775-8.203c1.832-2.333,4.582-3.671,7.545-3.671h35.331l6.309,25.304h-13.943    c-6.069,0-11.695,2.857-15.434,7.837c-3.597,4.791-4.959,10.955-3.736,16.909c5.028,24.474,21.802,112.638,26.528,219.567    c0.485,10.941,9.087,19.512,19.585,19.512h77.043c10.497,0,19.099-8.569,19.584-19.508    c4.736-106.737,21.504-195.055,26.53-219.579c1.22-5.952-0.144-12.112-3.74-16.904c-3.74-4.978-9.365-7.833-15.432-7.833h-40.892    c-3.181-8.656-8.252-17.545-16.313-24.85c-0.178-0.162-0.364-0.311-0.554-0.453h85.453c2.965,0,5.717,1.338,7.548,3.67    C326.777,144.207,327.423,147.196,326.719,150.082z M281.198,111.607c4.343-7.442,10.466-13.72,17.737-18.261l12.839,29.65    L281.198,111.607z M326.102,117.808l-13.235-30.566c4.086-1.117,8.347-1.756,12.718-1.826c4.365-0.064,8.652,0.401,12.791,1.37    L326.102,117.808z M339.985,188.164c-1.985,0.531-4.012,0.932-6.064,1.227c0.729-3.738,1.423-7.213,2.073-10.407L339.985,188.164z     M329.578,212.673c0.471-2.642,0.934-5.192,1.391-7.679c16.678-1.11,32.154-8.274,43.895-20.394    c12.552-12.959,19.307-30.006,19.02-48.001c-0.286-17.995-7.582-34.818-20.54-47.369c-12.959-12.551-30.041-19.315-48-19.019    c-8.794,0.14-51.428,4.655-64.776,52.784h-7.754c6.828-34.43,37.169-60.397,73.604-60.397c41.463,0,75.078,33.613,75.078,75.078    C401.496,178.08,369.574,211.015,329.578,212.673z M363.956,144.368l-17.712-6.992l30.659-13.276    c1.101,4.11,1.703,8.382,1.772,12.742c0.223,13.933-5.011,27.137-14.737,37.177c-3.034,3.133-6.391,5.838-9.996,8.084    c0,0-12.188-29.625-12.103-30.117l16.534,6.526c0.917,0.362,7.128,1.186,9.865-4.281    C370.117,150.477,367.863,145.909,363.956,144.368z M340.242,123.403l12.27-31.013c3.674,2.13,7.115,4.727,10.25,7.763    c3.133,3.034,5.839,6.391,8.085,9.997L340.242,123.403z"/>
	</g>
</g>
<g>
</g>
<g>
</g>
<g>
</g>
<g>
</g>
<g>
</g>
<g>
</g>
<g>
</g>
<g>
</g>
<g>
</g>
<g>
</g>
<g>
</g>
<g>
</g>
<g>
</g>
<g>
</g>
<g>
</g>
</svg>
