<?xml version="1.0" encoding="iso-8859-1"?>
<!-- Generator: Adobe Illustrator 19.0.0, SVG Export Plug-In . SVG Version: 6.00 Build 0)  -->
<svg xmlns="http://www.w3.org/2000/svg" xmlns:xlink="http://www.w3.org/1999/xlink" version="1.1" id="Capa_1" x="0px" y="0px" viewBox="0 0 511.998 511.998" style="enable-background:new 0 0 511.998 511.998;" xml:space="preserve">
<g>
	<g>
		<path d="M317.818,427.018c-3.984-4.474-9.706-7.04-15.698-7.04H126.355c-5.991,0-11.713,2.566-15.697,7.039    c-3.985,4.473-5.874,10.453-5.184,16.405l2.27,19.563c1.231,10.603,10.207,18.597,20.88,18.597h171.224    c10.673,0,19.65-7.995,20.882-18.597l2.27-19.563C323.691,437.47,321.801,431.49,317.818,427.018z M307.894,441.67l-2.27,19.562    c-0.34,2.932-2.823,5.143-5.774,5.143H128.625c-2.951,0-5.433-2.211-5.774-5.142l-2.27-19.563    c-0.192-1.648,0.331-3.301,1.434-4.538c1.101-1.237,2.684-1.947,4.34-1.947H302.12c1.657,0,3.238,0.71,4.341,1.948    C307.562,438.37,308.086,440.024,307.894,441.67z"/>
	</g>
</g>
<g>
	<g>
		<path d="M466.797,168.405c-0.409-25.707-10.753-49.812-29.126-67.876c-18.352-18.043-42.589-27.979-68.249-27.979    c0,0-77.519-2.65-94.573,78.325h-93.151l5.09-126.691c0.248-6.189-1.939-12.116-6.159-16.688    c-4.22-4.574-9.952-7.229-16.141-7.477c-12.815-0.503-23.651,9.489-24.165,22.299l-4.329,107.764L109.108,26.583    c-3.224-12.409-15.941-19.88-28.35-16.658c-5.995,1.557-11.032,5.369-14.185,10.735c-3.152,5.365-4.031,11.621-2.474,17.616    l29.25,112.599H75.82c-8.73,0-17.067,3.739-22.874,10.258c-5.807,6.52-8.56,15.233-7.553,23.904l12.333,106.28    c0.485,4.171,4.25,7.154,8.43,6.676c4.171-0.485,7.161-4.258,6.676-8.429L60.499,183.282c-0.507-4.366,0.879-8.753,3.803-12.036    c2.923-3.282,7.121-5.165,11.517-5.165H97.3l9.434,36.315H98.13c-6.162,0-12.047,2.639-16.144,7.24    c-4.098,4.601-6.041,10.75-5.331,16.871L95.12,385.642c1.265,10.904,10.497,19.128,21.475,19.128h195.282    c10.977,0,20.209-8.222,21.475-19.128l18.466-159.135c0.71-6.121-1.233-12.27-5.33-16.871c-4.098-4.602-9.983-7.241-16.145-7.241    h-34.209l-27.866-27.865c-5.059-5.059-11.806-7.846-18.998-7.846c-7.191,0-13.939,2.787-18.998,7.846l-16.668,16.668    L198.2,175.793c-4.778-4.778-10.924-7.37-17.19-7.79l0.077-1.923h171.568c4.395,0,8.594,1.883,11.516,5.165    c2.923,3.283,4.309,7.67,3.803,12.036l-34.797,299.862c-0.902,7.779-7.488,13.645-15.319,13.645H110.615    c-7.832,0-14.418-5.866-15.32-13.645l-19.762-170.3c-0.484-4.172-4.261-7.158-8.429-6.677c-4.172,0.485-7.161,4.258-6.677,8.429    l19.761,170.304c1.792,15.449,14.872,27.1,30.427,27.1h207.243c15.553,0,28.634-11.65,30.427-27.1l25.253-217.622    C426.031,265.065,467.639,221.244,466.797,168.405z M155.518,22.926c0.177-4.432,3.941-7.881,8.359-7.714    c6.634,0.25,7.8,6.23,7.714,8.359l-5.114,127.303h-16.099L155.518,22.926z M149.198,180.25l0.569-14.168h16.1l-0.221,5.513    c-1.945,1.135-3.777,2.534-5.441,4.198l-9.791,9.791l-1.259-4.845C149.171,180.577,149.191,180.416,149.198,180.25z     M137.94,198.059l-4.337,4.337h-11.156l-9.434-36.315h16.619L137.94,198.059z M78.82,34.452c-0.536-2.063-0.063-8.091,5.762-9.806    c4.255-1.254,8.692,1.469,9.807,5.762l31.295,120.466h-16.619L78.82,34.452z M310.423,217.604h19.921    c1.827,0,3.572,0.783,4.787,2.146c1.216,1.365,1.792,3.189,1.581,5.003l-18.466,159.135c-0.375,3.233-3.113,5.673-6.368,5.673    H116.595c-3.255,0-5.993-2.438-6.368-5.673L91.762,224.754c-0.211-1.815,0.365-3.638,1.582-5.003    c1.215-1.364,2.958-2.146,4.786-2.146h20.773c-3.255,4.527-5.016,9.951-5.016,15.659c0,7.191,2.786,13.939,7.846,18.998    l38.471,38.471c5.238,5.238,12.118,7.857,18.998,7.857c6.88,0,13.76-2.619,18.998-7.857l16.668-16.668l15.405,15.406    c0.076,0.076,0.155,0.146,0.231,0.22l-18.663,36.596l-34.705-25.78c-1.363-1.012-2.952-1.5-4.528-1.5    c-2.323,0-4.694,1.004-6.108,3.067c-20.647,30.137-22.284,56.508-19.868,76.784c0.241,2.026,1.287,3.869,2.901,5.117    c1.339,1.035,2.977,1.588,4.65,1.588c0.344,0,0.688-0.023,1.033-0.07l96.631-13.247c3.019-0.415,5.496-2.59,6.3-5.522    c0.011-0.041,0.021-0.081,0.032-0.121c0.768-2.993-0.351-6.153-2.831-7.995l-17.48-12.985l66.712-22.409    c3.979-1.336,6.123-5.645,4.788-9.625c-4.129-12.319-9.675-23.873-24.881-40.335l22.253-22.253    C315.794,241.946,317.017,227.99,310.423,217.604z M203.962,351.898c3.049,3.801,7.466,2.605,8.261,2.338l8.085-2.715    l11.021,8.186l-70.193,9.623c-0.531-14.315,3.116-37.287,13.294-51.89l30.407,22.587l-1.809,3.545    C201.642,346.288,202.014,349.564,203.962,351.898z M225.037,333.887l18.916-37.091c1.732,0.344,3.511,0.521,5.319,0.521    c7.191,0,13.939-2.787,18.998-7.846l5.459-5.459c6.026,4.265,15.116,19.496,18.499,27.306L225.037,333.887z M187.447,186.548    l27.399,27.399c2.97,2.97,6.861,3.142,9.693,0.748c7.059-5.965-0.179-12.741-0.179-12.741l16.669-16.668    c2.187-2.187,5.115-3.392,8.244-3.392s6.057,1.204,8.244,3.391l38.471,38.471c4.546,4.546,4.546,11.943,0,16.49l-38.471,38.471    c-2.187,2.187-5.115,3.392-8.245,3.392c-3.13,0-6.058-1.204-8.245-3.391l-15.405-15.406l11.05-11.05    c7.716-7.718,9.982-19.655,5.636-29.704c-1.667-3.855-6.143-5.628-9.997-3.962c-3.855,1.667-5.629,6.143-3.962,9.997    c1.893,4.379,0.916,9.569-2.43,12.917l-38.471,38.471c-4.546,4.545-11.942,4.545-16.49,0l-38.471-38.472    c-2.187-2.187-3.391-5.115-3.391-8.244s1.204-6.058,3.391-8.245l38.471-38.47C175.504,182.002,182.901,182.002,187.447,186.548z     M289.478,150.874c0.317-1.328,0.66-2.646,1.041-3.95l9.982,3.95H289.478z M352.655,150.874h-10.816l-45.707-18.084    c7.497-14.728,19.302-26.93,33.777-34.899l22.946,52.989C352.789,150.879,352.722,150.874,352.655,150.874z M369.086,150.09    l-25.225-58.252c7.643-2.505,15.776-3.936,24.23-4.071c8.455-0.135,16.634,1.021,24.354,3.281L369.086,150.09z M375.319,251.937    l4.501-38.785l15.13,34.941C388.705,250.138,382.127,251.45,375.319,251.937z M408.892,242.018l-25.348-58.537l59.142,23.647    C435.184,221.857,423.373,234.05,408.892,242.018z M448.311,193l-58.807-23.513l43.68-19.131c3.847-1.685,5.6-6.169,3.914-10.016    c-1.684-3.847-6.169-5.6-10.016-3.915l-43.831,19.197l23.323-58.946c26.276,13.385,44.515,40.491,45.017,71.972    C451.726,177.101,450.571,185.28,448.311,193z"/>
	</g>
</g>
<g>
</g>
<g>
</g>
<g>
</g>
<g>
</g>
<g>
</g>
<g>
</g>
<g>
</g>
<g>
</g>
<g>
</g>
<g>
</g>
<g>
</g>
<g>
</g>
<g>
</g>
<g>
</g>
<g>
</g>
</svg>
