<?xml version="1.0" encoding="iso-8859-1"?>
<!-- Generator: Adobe Illustrator 19.0.0, SVG Export Plug-In . SVG Version: 6.00 Build 0)  -->
<svg xmlns="http://www.w3.org/2000/svg" xmlns:xlink="http://www.w3.org/1999/xlink" version="1.1" id="Capa_1" x="0px" y="0px" viewBox="0 0 511.999 511.999" style="enable-background:new 0 0 511.999 511.999;" xml:space="preserve">
<g>
	<g>
		<path d="M280.829,449.194c-3.055-3.18-7.338-5.003-11.749-5.003h-97.682c-4.411,0-8.694,1.823-11.75,5.001    c-3.058,3.179-4.713,7.53-4.541,11.937l0.384,9.853c0.343,8.786,7.499,15.667,16.289,15.667h96.913    c8.792,0,15.948-6.881,16.289-15.667l0.384-9.852C285.54,456.722,283.885,452.371,280.829,449.194z M269.454,471.134    c-0.197,0.189-98.232,0.189-98.429,0c-0.197-0.189-0.62-11.185-0.413-11.4c0.204-0.212,99.05-0.212,99.255,0.002    C270.072,459.949,269.649,470.946,269.454,471.134z"/>
	</g>
</g>
<g>
	<g>
		<path d="M260.369,162.301c-4.189-0.156-7.732,3.105-7.896,7.303l-0.178,4.564c-0.163,4.197,3.103,7.896,7.303,7.896    c5.935,0,7.736-3.206,7.896-7.303l0.178-4.564C267.835,166,264.566,162.465,260.369,162.301z"/>
	</g>
</g>
<g>
	<g>
		<path d="M259.314,189.293c-4.202-0.156-7.732,3.105-7.896,7.302l-0.776,19.864c-0.163,4.197,3.103,7.896,7.303,7.896    c5.898,0,7.736-3.206,7.895-7.302l0.776-19.864C266.781,192.992,263.511,189.457,259.314,189.293z"/>
	</g>
</g>
<g>
	<g>
		<path d="M389.319,94.916c-4.167-0.531-7.992,2.416-8.504,6.585c-2.653,21.618-17.701,42.196-22.117,46.612    c-1.835,1.835-4.822,1.835-6.658,0l-2.884-2.884c13.595-13.093,21.511-31.375,21.511-50.417c0-38.537-31.352-69.89-69.89-69.89    c-19.042,0-37.324,7.917-50.417,21.511l-1.87-1.87c-1.835-1.835-1.835-4.823,0-6.658c30.385-30.385,79.824-30.385,110.208,0    c11.567,11.567,19.185,26.581,21.777,42.686c0.003-0.001,0.007-0.002,0.011-0.003c0.086,0.542,0.506,9.069,8.828,8.12    c4.174-0.476,7.066-4.416,6.49-8.577c-0.561-4.046-3.446-30.36-26.352-52.981c-36.541-36.087-95.403-36.316-131.718,0    c-7.766,7.767-7.766,20.402,0,28.169l20.117,20.117h-48.955c-3.169-6.912-7.731-13.753-14.266-19.769    c-3.091-2.844-7.901-2.645-10.747,0.445c-2.844,3.091-2.645,7.901,0.445,10.747c2.88,2.651,5.254,5.552,7.217,8.577h-50.529    c-6.768,0-13.34,2.798-18.031,7.675c-4.692,4.878-7.231,11.554-6.967,18.317l15.09,386.53    c0.526,13.481,11.506,24.041,24.997,24.041h128.263c13.491,0,24.471-10.56,24.997-24.041l13.564-347.442l18.352,18.352    c3.883,3.884,8.983,5.825,14.084,5.825s10.202-1.942,14.085-5.825c7.807-7.807,21.553-25.947,26.451-55.45    C396.592,99.276,393.486,95.446,389.319,94.916z M302.884,40.187l-9.309,35.249h-14.213l-18.261-18.261    C280.068,38.786,302.184,40.161,302.884,40.187z M231.901,141.88c0,13.42-10.917,24.337-24.337,24.337    c-13.42,0-24.337-10.917-24.337-24.337c0-13.42,10.917-24.337,24.337-24.337C220.984,117.543,231.901,128.46,231.901,141.88z     M213.092,343.683c4.963,4.008,10.934,5.985,16.885,5.985c6.9,0,13.771-2.659,19.001-7.888l4.143-4.143    c-0.163,2.769-1.301,5.479-3.383,7.562l-21.254,21.254c-4.547,4.546-11.944,4.546-16.492,0l-21.253-21.253    c-4.547-4.547-4.547-11.945,0-16.492l3.582-3.582l1.531,1.531c1.485,1.485,3.432,2.228,5.377,2.228s3.893-0.742,5.377-2.228    c2.97-2.97,2.97-7.786,0-10.755l-6.13-6.13c-4.177-4.178-4.505-10.757-1.006-15.325l1.766,1.766    c5.109,5.109,12.05,7.826,19.075,7.826c3.642,0,7.309-0.732,10.753-2.239c3.847-1.685,5.601-6.17,3.915-10.018    c-1.686-3.847-6.17-5.599-10.018-3.915c-4.392,1.926-9.604,0.955-12.97-2.409l-21.253-21.254    c-2.187-2.187-3.393-5.116-3.393-8.245c0-3.13,1.205-6.059,3.392-8.246l21.254-21.254c4.547-4.546,11.945-4.547,16.492,0    l21.253,21.254c4.547,4.546,4.547,11.944,0,16.491l-10.29,10.29c-2.97,2.97-3.046,7.863,0,10.755    c5.466,5.189,11.378-0.622,11.378-0.622l8.652,8.652c4.547,4.547,4.547,11.945,0,16.492l-21.253,21.253    c-4.159,4.159-10.999,4.521-15.574,0.826c-3.268-2.64-8.055-2.13-10.695,1.138C209.316,336.255,209.825,341.043,213.092,343.683z     M261.548,273.838c9.408-10.539,9.058-26.772-1.054-36.884L239.241,215.7c-10.477-10.478-27.526-10.478-38.003,0l-21.254,21.254    c-5.06,5.06-7.848,11.808-7.848,19.001c0,7.194,2.788,13.941,7.848,19.001l8.684,8.684c-7.403,8.294-8.758,20.108-4.073,29.697    l-4.611,4.611c-5.06,5.06-7.848,11.808-7.848,19.001s2.788,13.941,7.848,19.001l21.253,21.253    c5.239,5.24,12.12,7.859,19.001,7.859s13.763-2.619,19.001-7.859l21.254-21.254c8.223-8.223,10.059-20.688,5.118-30.807l4.62-4.62    c3.881-3.881,6.32-8.662,7.325-13.677l-4.188,107.263c-0.103,2.652-2.263,4.728-4.917,4.728h-96.43    c-2.654,0-4.814-2.077-4.917-4.728l-10.223-261.911c-0.052-1.33,0.447-2.644,1.371-3.603c0.924-0.959,2.216-1.51,3.547-1.51h6.57    c2.557,19.354,19.152,34.343,39.195,34.343c20.042,0,36.637-14.988,39.195-34.343h31.921c1.331,0,2.623,0.551,3.547,1.511    c0.923,0.959,1.422,2.272,1.37,3.602l-5.704,146.113c-0.69-5.774-3.238-11.366-7.659-15.788L261.548,273.838z M294.169,487.366    c-0.207,5.284-4.51,9.423-9.799,9.423H156.107c-5.288,0-9.592-4.139-9.799-9.423l-15.09-386.53    c-0.103-2.651,0.892-5.267,2.731-7.179s4.415-3.009,7.068-3.009h57.163c1.175,4.388,1.796,8.625,2.09,12.37    c-15.053,2.819-27.131,14.184-30.97,28.857h-7.502c-5.446,0-10.735,2.251-14.51,6.177s-5.819,9.297-5.607,14.74l10.226,261.913    c0.423,10.848,9.259,19.346,20.115,19.346h96.43c10.856,0,19.692-8.498,20.115-19.346l10.226-261.914    c0.212-5.442-1.831-10.815-5.606-14.739c-3.775-3.926-9.063-6.178-14.51-6.178h-32.853c-3.779-14.439-15.532-25.685-30.252-28.725    c-0.236-3.788-0.74-8.03-1.692-12.502h85.58c2.653,0,5.229,1.097,7.069,3.01c1.838,1.911,2.834,4.529,2.731,7.179L294.169,487.366    z M320.363,86.732c-0.841-1.286-1.797-2.502-2.872-3.619c-2.455-2.552-5.426-4.529-8.669-5.839l9.079-34.378    c16.548,5.473,29.619,18.639,34.949,35.252L320.363,86.732z M338.414,134.489l-14.673-14.674l0.718-18.386    c0.001-0.015,0-0.031,0.001-0.047l30.957-8.18C355.431,93.739,358.655,113.318,338.414,134.489z"/>
	</g>
</g>
<g>
</g>
<g>
</g>
<g>
</g>
<g>
</g>
<g>
</g>
<g>
</g>
<g>
</g>
<g>
</g>
<g>
</g>
<g>
</g>
<g>
</g>
<g>
</g>
<g>
</g>
<g>
</g>
<g>
</g>
</svg>
