<?xml version="1.0" encoding="iso-8859-1"?>
<!-- Generator: Adobe Illustrator 19.0.0, SVG Export Plug-In . SVG Version: 6.00 Build 0)  -->
<svg xmlns="http://www.w3.org/2000/svg" xmlns:xlink="http://www.w3.org/1999/xlink" version="1.1" id="Capa_1" x="0px" y="0px" viewBox="0 0 511.998 511.998" style="enable-background:new 0 0 511.998 511.998;" xml:space="preserve">
<g>
	<g>
		<path d="M418.222,175.298c-5.28-5.837-12.822-9.184-20.692-9.184h-33.001l43.33-132.899c2.092-6.419,1.551-13.283-1.522-19.331    c-3.074-6.047-8.301-10.531-14.699-12.616c-1.086-0.358-10.876-3.356-20.072,1.357c-3.919,2.007-9.171,6.231-11.902,14.877    l-24.037,73.724c-1.301,3.992,0.88,8.284,4.872,9.586c3.993,1.303,8.285-0.879,9.587-4.872l24.057-73.791    c2.689-8.51,9.898-7.445,12.761-6.43c8.621,3.056,7.329,10.225,6.496,12.781l-44.867,137.612c0,0-7.362-4.016-9.846-5.782    c7.164-40.833-11.58-76.657-28.797-99.7c-5.627-8.296-16.554-21.538-27.265-18.45c-10.022,2.892-10.455,16.348-10.595,20.769    c-0.871,27.108-19.706,34.648-31.027,36.724l-25.958,2.997c-18.233,2.106-34.596,11.235-46.071,25.708    c-8.735,11.015-13.799,24.082-14.798,37.734h-39.706c-7.87,0-15.412,3.348-20.692,9.184c-5.282,5.838-7.86,13.678-7.074,21.506    L115.8,486.878c1.437,14.32,13.373,25.121,27.767,25.121h224.864c14.392,0,26.33-10.799,27.767-25.121l29.098-290.074    C426.082,188.974,423.504,181.136,418.222,175.298z M201.581,173.542l59.732-6.897c4.171-0.482,7.163-4.254,6.681-8.426    c-0.482-4.172-4.252-7.162-8.426-6.681l-59.732,6.897c-11.137,1.286-21.568,5.205-30.622,11.349    c0.296-11.552,4.319-22.68,11.673-31.955c8.952-11.289,21.702-18.41,35.901-20.048l26.199-3.025    c0.155-0.018,0.311-0.042,0.465-0.068c6.88-1.23,17.17-3.961,25.828-11.518c21.188-18.493,18.218-43.74,18.432-44.913    c2.744,2.224,6.744,6.714,9.677,11.042c0.069,0.102,0.141,0.203,0.215,0.301c14.681,19.612,30.708,49.433,26.87,82.922    c-4.17-1.698-8.499-2.991-12.912-3.834c-4.129-0.787-8.109,1.915-8.896,6.04c-0.789,4.124,1.915,8.108,6.039,8.896    c22.908,4.381,40.769,23.564,43.435,46.652c0.522,4.522,0.469,9.028-0.149,13.471c-5.034-2.1-10.832-3.682-17.534-4.518    c-4.174-0.515-7.967,2.437-8.486,6.605c-0.52,4.167,2.437,7.966,6.605,8.486c16.749,2.087,28.097,10.205,33.727,24.129    c4.466,11.046,3.688,22.488,3.696,22.772c-0.154,5.167-5.778,65.881-9.545,105.687c-0.305,3.044-2.843,5.34-5.901,5.34H157.444    c-3.06,0-5.597-2.295-5.901-5.341l-7.69-76.663c-0.015-0.141-1.393-14.318,3.867-29.226c6.763-19.167,21.243-30.129,43.06-32.584    l68.172-7.871c4.171-0.482,7.163-4.254,6.681-8.426c-0.482-4.172-4.255-7.159-8.426-6.681l-68.15,7.869    c-13.525,1.523-23.994,5.666-32.113,11.167c-1.272-3.667-2.152-7.468-2.605-11.377c-1.638-14.198,2.389-28.235,11.342-39.524    C174.633,182.301,187.383,175.181,201.581,173.542z M410.164,195.287l-29.098,290.075c-0.654,6.517-6.085,11.431-12.634,11.431    H143.568c-6.549,0-11.98-4.914-12.634-11.431l-29.098-290.076c-0.359-3.562,0.815-7.128,3.219-9.785    c2.403-2.656,5.835-4.179,9.415-4.179h40.282c0.069,0.462-18.671,25.267-15.519,53.537c0.797,7.145,2.748,14.01,5.697,20.491    c-5.57,6.659-9.198,13.941-11.552,20.608c-6.383,18.091-4.727,35.124-4.656,35.822l7.688,76.643    c1.087,10.85,10.129,19.031,21.034,19.031h197.11c10.905,0,19.947-8.182,21.038-19.073c7.991-84.439,9.387-102.458,9.568-106.784    l0.02,0.001c0.046-0.564,1.059-13.975-4.539-28.253c-2.712-6.917-7.243-14.701-14.784-21.149c1.84-7.745,2.312-15.688,1.39-23.666    c-1.125-9.745-4.261-18.949-9.188-27.209h39.469c3.581,0,7.013,1.523,9.415,4.179    C409.349,188.157,410.522,191.724,410.164,195.287z"/>
	</g>
</g>
<g>
	<g>
		<path d="M347.654,284.959c-4.192-0.385-7.881,2.698-8.264,6.88c-0.078,0.852-0.155,1.63-0.223,2.32    c-0.114,1.158-0.204,2.091-0.244,2.738c-0.268,4.191,2.575,8.088,7.595,8.088c3.979,0,7.325-3.094,7.581-7.121    c0.034-0.523,0.111-1.277,0.203-2.214c0.071-0.721,0.151-1.536,0.232-2.426C354.916,289.041,351.836,285.341,347.654,284.959z"/>
	</g>
</g>
<g>
	<g>
		<path d="M344.988,312.573c-4.189-0.419-7.906,2.629-8.326,6.807l-2.162,21.555c-0.419,4.179,2.642,7.788,6.807,8.325    c5.435,0.701,7.931-2.886,8.326-6.807l2.163-21.555C352.214,316.719,349.166,312.992,344.988,312.573z"/>
	</g>
</g>
<g>
	<g>
		<path d="M258.232,190.879c-1.419-1.409-3.376-2.22-5.383-2.22c-1.997,0-3.954,0.811-5.373,2.22    c-1.419,1.419-2.23,3.376-2.23,5.383c0,1.997,0.811,3.954,2.23,5.373s3.376,2.23,5.373,2.23c2.007,0,3.964-0.811,5.383-2.23    c1.409-1.419,2.22-3.376,2.22-5.373C260.452,194.255,259.641,192.299,258.232,190.879z"/>
	</g>
</g>
<g>
	<g>
		<path d="M297.537,175.892c-1.419-1.409-3.376-2.22-5.383-2.22c-1.997,0-3.954,0.811-5.373,2.22    c-1.419,1.419-2.23,3.376-2.23,5.383c0,1.997,0.811,3.954,2.23,5.373c1.419,1.419,3.376,2.23,5.373,2.23    c2.008,0,3.965-0.811,5.383-2.23c1.409-1.419,2.22-3.376,2.22-5.373C299.757,179.268,298.946,177.311,297.537,175.892z"/>
	</g>
</g>
<g>
	<g>
		<path d="M305.141,105.58c-1.419-1.409-3.376-2.22-5.383-2.22c-1.997,0-3.954,0.811-5.373,2.22c-1.419,1.419-2.23,3.376-2.23,5.383    c0,1.997,0.811,3.954,2.23,5.373c1.419,1.419,3.376,2.23,5.373,2.23c2.008,0,3.965-0.811,5.383-2.23    c1.409-1.419,2.22-3.376,2.22-5.373C307.361,108.956,306.55,106.999,305.141,105.58z"/>
	</g>
</g>
<g>
	<g>
		<path d="M280.876,125.012c-1.419-1.409-3.376-2.22-5.383-2.22c-1.997,0-3.954,0.811-5.373,2.22    c-1.419,1.419-2.23,3.376-2.23,5.383c0,1.997,0.811,3.954,2.23,5.373c1.419,1.419,3.376,2.23,5.373,2.23    c2.008,0,3.965-0.811,5.383-2.23c1.409-1.419,2.22-3.376,2.22-5.373C283.096,128.388,282.285,126.432,280.876,125.012z"/>
	</g>
</g>
<g>
	<g>
		<path d="M286.179,202.928c-1.419-1.409-3.376-2.22-5.383-2.22c-1.997,0-3.954,0.811-5.373,2.22    c-1.419,1.419-2.23,3.376-2.23,5.383c0,1.997,0.811,3.954,2.23,5.373c1.419,1.419,3.376,2.23,5.373,2.23    c2.008,0,3.965-0.812,5.383-2.23c1.409-1.419,2.22-3.376,2.22-5.373C288.399,206.304,287.588,204.347,286.179,202.928z"/>
	</g>
</g>
<g>
	<g>
		<path d="M364.159,429.568c-3.972-4.39-9.645-6.907-15.563-6.907H228.964c-4.2,0-7.604,3.404-7.604,7.604    c0,4.199,3.403,7.604,7.604,7.604h119.632c1.629,0,3.192,0.693,4.286,1.902c1.093,1.208,1.627,2.833,1.464,4.455l-1.7,16.949    c-0.297,2.966-2.769,5.203-5.75,5.203h-181.79c-2.981,0-5.453-2.237-5.75-5.203l-1.701-16.95    c-0.163-1.621,0.371-3.244,1.464-4.453c1.094-1.209,2.656-1.903,4.286-1.903h41.567c4.2,0,7.604-3.404,7.604-7.604    c0-4.199-3.403-7.604-7.604-7.604h-41.567c-5.919,0-11.591,2.517-15.564,6.907c-3.971,4.392-5.91,10.287-5.319,16.176    l1.701,16.949c1.081,10.771,10.058,18.892,20.883,18.892h181.791c10.825,0,19.801-8.122,20.883-18.893l1.7-16.95    C370.068,439.852,368.13,433.958,364.159,429.568z"/>
	</g>
</g>
<g>
</g>
<g>
</g>
<g>
</g>
<g>
</g>
<g>
</g>
<g>
</g>
<g>
</g>
<g>
</g>
<g>
</g>
<g>
</g>
<g>
</g>
<g>
</g>
<g>
</g>
<g>
</g>
<g>
</g>
</svg>
