<?xml version="1.0" encoding="iso-8859-1"?>
<!-- Generator: Adobe Illustrator 19.0.0, SVG Export Plug-In . SVG Version: 6.00 Build 0)  -->
<svg xmlns="http://www.w3.org/2000/svg" xmlns:xlink="http://www.w3.org/1999/xlink" version="1.1" id="Capa_1" x="0px" y="0px" viewBox="0 0 512.001 512.001" style="enable-background:new 0 0 512.001 512.001;" xml:space="preserve">
<g>
	<g>
		<path d="M289.258,258.449c-0.076-0.151-0.189-0.35-0.275-0.496c-1.185-1.991-28.882-49.28-15.498-94.692    c1.458-4.947,0.574-10.122-2.421-14.196c-3.016-4.108-7.858-6.56-12.955-6.56h-98.885c-5.097,0-9.94,2.452-12.954,6.557    c-2.997,4.079-3.88,9.255-2.422,14.199c13.376,45.386-14.313,92.7-15.498,94.691c-0.088,0.148-0.203,0.353-0.281,0.506    c-8.365,16.513-12.607,30.697-12.607,42.159c0,51.392,41.81,93.204,93.203,93.204c51.391,0,93.203-41.81,93.203-93.204    C301.868,289.156,297.626,274.972,289.258,258.449z M258.897,158.963c-2.095,7.108-3.335,14.207-3.911,21.175h-92.64    c-0.576-6.969-1.815-14.068-3.91-21.175H258.897z M208.667,378.613c-43.007,0-77.995-34.988-77.995-77.996    c0-8.999,3.646-20.786,10.853-35.065c2.845-4.819,19.448-34.382,21.079-70.207h92.121c1.624,35.771,18.18,65.289,21.084,70.207    c7.201,14.263,10.852,26.06,10.852,35.065C286.662,343.623,251.673,378.613,208.667,378.613z"/>
	</g>
</g>
<g>
	<g>
		<path d="M264.589,302.68c-4.133-0.723-8.076,2.042-8.802,6.177c-0.462,2.638-1.153,5.251-2.054,7.765    c-1.418,3.953,0.613,8.375,4.591,9.724c5.599,1.899,8.611-1.486,9.724-4.592c1.193-3.327,2.108-6.784,2.72-10.272    C271.492,307.346,268.725,303.405,264.589,302.68z"/>
	</g>
</g>
<g>
	<g>
		<path d="M253.473,334.016c-2.986-2.953-7.8-2.93-10.753,0.056c-9.019,9.112-21.021,14.129-33.8,14.129    c-4.199,0-7.604,3.405-7.604,7.604s3.405,7.604,7.604,7.604c16.87,0,32.712-6.62,44.608-18.64    C256.482,341.785,256.457,336.971,253.473,334.016z"/>
	</g>
</g>
<g>
	<g>
		<path d="M417.612,29.434c-2.692-3.224-7.486-3.655-10.709-0.964l-38.526,32.165c-7.131-5.891-16.269-9.434-26.218-9.434    c-16.496,0-31.192,9.911-37.693,24.516c-4.675-2.291-9.59-4.159-14.689-5.585c7.247-49.114,0.872-58.693-7.176-61.566    c-6.654-2.374-15.338-0.514-32.737,24.632c-7.48-23.791-14.73-33.605-24.034-33.184c-8.572,0.376-17.556,7.657-25.183,57.951    c-3.493,23.032-5.455,47.203-5.726,59.195h-0.561l-7.503-66.811c-0.649-5.772-3.746-10.996-8.5-14.333l-46.06-32.331    c-9.15-6.423-21.822-4.202-28.246,4.947c-3.112,4.434-4.311,9.813-3.377,15.147c0.934,5.335,3.89,9.987,8.323,13.099    l38.578,27.079l4.28,38.12c0.468,4.173,4.227,7.177,8.405,6.708c4.173-0.468,7.177-4.232,6.708-8.405l-4.664-41.526    c-0.243-2.166-1.404-4.123-3.188-5.375l-41.384-29.049c-2.288-1.606-2.843-4.773-1.237-7.061c1.607-2.287,4.774-2.842,7.062-1.237    l46.058,32.331c1.188,0.834,1.964,2.14,2.125,3.583l7.312,65.114h-48c-5.957,0-11.491,3.215-14.441,8.391    c-2.764,4.849-2.67,10.862-0.103,16.261c26.337,55.384,2.601,90.306-1.523,97.153c-2.167,3.597-1.03,8.31,2.59,10.437    c5.489,3.225,9.01-0.221,10.437-2.59c6.551-10.876,29.136-55.088,2.064-111.868c-0.358-0.75-0.474-1.473-0.252-1.861    c0.25-0.44,0.721-0.714,1.228-0.714h155.223c0.507,0,0.978,0.274,1.229,0.714c0.222,0.388,0.122,1.119-0.253,1.861    c-12.8,25.284-16.48,51.229-10.939,77.114c4.442,20.745,13.843,36.038,17.858,42.568c0.655,1.066,1.332,2.168,1.542,2.581    c9.146,17.984,13.784,33.434,13.784,45.922c0,55.6-45.233,100.834-100.833,100.834c-55.6,0-100.833-45.234-100.833-100.834    c0-10.339,3.211-22.801,9.542-37.038c1.707-3.837-0.02-8.331-3.858-10.037c-3.839-1.708-8.331,0.02-10.037,3.858    c-7.203,16.195-10.855,30.735-10.855,43.218c0,50.618,32.581,93.764,77.87,109.584c0.291,0.229,15.116,8.046,15.116,25.945    c-7.142,6.474-11.302,15.715-11.302,25.463c0,1.905,0.159,3.781,0.461,5.623H163.57c-11.651,0-21.13,9.479-21.13,21.13    s9.479,21.13,21.13,21.13h90.184c11.65,0,21.13-9.479,21.13-21.13s-9.48-21.13-21.13-21.13h-11.197    c0.302-1.842,0.461-3.718,0.461-5.623c0-9.729-4.146-18.956-11.263-25.427c0-17.68,14.773-25.627,15.16-26.009    c45.246-15.845,77.788-58.968,77.788-109.555c0-14.907-5.193-32.676-15.436-52.816c-0.489-0.961-1.183-2.091-2.143-3.652    c-6.446-10.484-23.425-38.111-16.499-75.311h44.769c9.783,0,17.743-7.96,17.743-17.742c0-7.175-0.892-14.142-2.543-20.814    c18.699-3.906,32.789-20.516,32.789-40.359c0-7.305-1.917-14.166-5.263-20.122l38.525-32.165    C419.872,37.454,420.304,32.658,417.612,29.434z M197.698,448.428c2.03-1.423,3.239-3.747,3.239-6.227    c0-9.831-2.023-17.608-4.975-23.732c4.174,0.456,8.412,0.699,12.706,0.699c4.38,0,8.702-0.252,12.958-0.728    c-3.063,6.149-5.198,13.956-5.198,23.783c0,2.476,1.204,4.797,3.231,6.221c5.108,3.591,8.158,9.45,8.158,15.673    c0,1.938-0.284,3.818-0.839,5.623h-36.62c-0.555-1.806-0.839-3.686-0.839-5.623C189.518,457.883,192.576,452.018,197.698,448.428z     M253.759,484.948c3.266,0,5.922,2.656,5.922,5.922c0,3.266-2.656,5.922-5.922,5.922h-90.184c-3.266,0-5.922-2.656-5.922-5.922    c0-3.266,2.656-5.922,5.922-5.922H253.759z M214.977,65.062c4.541-32.141,9.236-44.011,11.588-48.199    c2.27,3.333,6.665,11.93,12.377,33.343c-0.502,0.83-22.817,41.128-28.041,52.698C211.696,92.202,213.067,78.576,214.977,65.062z     M248.714,84.663v32.496h-27.088c0.164-0.644,13.929-31.028,26.391-52.44c16.334-28.067,25.16-37.285,28.915-40.272    c0.941,4.352,1.862,15.631-2.115,42.884c-2.753-0.265-5.539-0.411-8.359-0.411C256.674,66.92,248.714,74.879,248.714,84.663z     M335.399,156.139h-40.702c1.629-4.662,3.652-9.442,6.126-14.33c2.7-5.333,2.661-11.411-0.104-16.262    c-2.95-5.175-8.483-8.389-14.439-8.389h-22.357V84.663c0-1.397,1.137-2.535,2.535-2.535c39.413,0,71.477,32.064,71.477,71.477    C337.933,155.002,336.797,156.139,335.399,156.139z M345.562,118.225c-6.188-13.78-15.861-25.663-27.906-34.512    c3.636-10.204,13.414-17.304,24.503-17.304c14.348,0,26.022,11.674,26.022,26.023C368.18,105.627,358.307,116.551,345.562,118.225    z"/>
	</g>
</g>
<g>
</g>
<g>
</g>
<g>
</g>
<g>
</g>
<g>
</g>
<g>
</g>
<g>
</g>
<g>
</g>
<g>
</g>
<g>
</g>
<g>
</g>
<g>
</g>
<g>
</g>
<g>
</g>
<g>
</g>
</svg>
