<?xml version="1.0" encoding="iso-8859-1"?>
<!-- Generator: Adobe Illustrator 19.0.0, SVG Export Plug-In . SVG Version: 6.00 Build 0)  -->
<svg xmlns="http://www.w3.org/2000/svg" xmlns:xlink="http://www.w3.org/1999/xlink" version="1.1" id="Capa_1" x="0px" y="0px" viewBox="0 0 511.999 511.999" style="enable-background:new 0 0 511.999 511.999;" xml:space="preserve">
<g>
	<g>
		<path d="M400.519,277.242c-1.526-10.786-11.044-18.92-22.137-18.92h-9.393c-1.326-3.532-3.394-6.769-6.133-9.51l-50.972-50.972    c-5.064-5.064-11.816-7.852-19.012-7.852s-13.949,2.788-19.012,7.852l-22.132,22.132l-22.132-22.132    c-5.064-5.064-11.816-7.852-19.012-7.852s-13.948,2.788-19.011,7.852l-50.972,50.972c-2.787,2.787-4.825,6.041-6.13,9.51h-9.395    c-11.093,0-20.61,8.134-22.137,18.919c-1.457,10.289-2.196,19.775-2.196,28.195c0,81.049,67.732,146.987,150.987,146.987    s150.987-65.938,150.987-146.987C402.715,297.02,401.976,287.534,400.519,277.242z M151.358,259.574l50.973-50.972    c2.188-2.188,5.119-3.394,8.25-3.394s6.062,1.205,8.251,3.394l39.17,39.17c2.972,2.972,7.79,2.972,10.761,0    c2.972-2.972,2.972-7.79,0-10.761l-6.276-6.276l22.132-22.132c2.188-2.188,5.119-3.394,8.251-3.394    c3.132,0,6.062,1.205,8.251,3.394l50.974,50.97c2.188,2.188,3.394,5.119,3.394,8.251s-1.205,6.062-3.394,8.251l-50.973,50.972    c-2.188,2.188-5.119,3.394-8.25,3.394s-6.061-1.205-8.251-3.394l-22.133-22.132l18.079-18.079    c8.192-8.192,10.208-20.676,5.016-31.065c-1.878-3.759-6.45-5.284-10.208-3.406c-3.76,1.878-5.284,6.449-3.406,10.208    c2.259,4.523,1.39,9.949-2.164,13.503l-50.972,50.972c-2.188,2.188-5.119,3.394-8.251,3.394s-6.062-1.205-8.251-3.394    l-50.972-50.972c-2.188-2.188-3.394-5.119-3.394-8.251S149.169,261.763,151.358,259.574z M251.727,437.204    c-74.863,0-135.769-59.111-135.769-131.768c0-7.709,0.688-16.478,2.045-26.063c0.471-3.326,3.509-5.834,7.07-5.834h8.281    c1.053,4.875,3.463,9.514,7.245,13.295l50.972,50.972c5.063,5.064,11.816,7.852,19.011,7.852c7.196,0,13.948-2.788,19.011-7.852    l22.133-22.132l22.133,22.132c5.063,5.064,11.815,7.852,19.011,7.852s13.948-2.788,19.011-7.852l50.972-50.972    c3.693-3.693,6.17-8.287,7.243-13.295h8.283c3.558,0.001,6.598,2.509,7.069,5.835c1.357,9.589,2.045,18.357,2.045,26.062    C387.495,378.092,326.59,437.204,251.727,437.204z"/>
	</g>
</g>
<g>
	<g>
		<path d="M346.599,364.955c-3.311-2.592-8.091-2.008-10.681,1.302c-2.352,3.005-4.908,5.918-7.594,8.657    c-2.941,3-2.847,7.771,0.106,10.761c4.768,4.829,9.271,1.414,10.76-0.104c3.081-3.142,6.012-6.485,8.712-9.934    C350.491,372.327,349.909,367.545,346.599,364.955z"/>
	</g>
</g>
<g>
	<g>
		<path d="M323.419,389.878c-2.381-3.462-7.119-4.339-10.582-1.957c-12.889,8.864-27.295,14.691-42.82,17.317    c-4.145,0.701-6.835,4.613-6.235,8.772c1.185,8.2,8.342,6.307,8.772,6.235c17.726-2.998,34.18-9.654,48.908-19.784    C324.925,398.078,325.801,393.34,323.419,389.878z"/>
	</g>
</g>
<g>
	<g>
		<path d="M439.435,73.285c-0.715-1.275-1.46-2.53-2.228-3.77c-8.453-16.47-4.117-34.428-3.7-36.043    c2.896-8.604,2.867-15.974-0.086-21.91c-1.687-3.391-5.19-7.919-12.308-10.317c-0.204-0.085-22.183-7.864-30.959,16.533    c-0.047,0.131-0.085,0.264-0.123,0.397c-0.928,3.319-1.686,6.693-2.278,10.093c-0.73-0.287-58.154-25.079-105.792,18.989    c-3.085,2.854-3.756,7.487-1.058,10.709c3.548,4.238,9.278,2.2,10.709,1.058c57.264-45.69,115.62-12.027,134.55,21.708    c2.092,3.728,0.761,8.463-2.967,10.554c-3.728,2.092-8.461,0.76-10.554-2.968c-19.296-34.387-62.97-46.664-97.358-27.368    c-19.03,10.678-31.273,28.828-35.156,48.734h-15.806c1.951-12.195,6.515-24.07,13.684-34.808c2.333-3.495,1.392-8.22-2.104-10.554    c-3.494-2.331-8.22-1.392-10.554,2.104c-8.884,13.306-14.365,28.101-16.423,43.258H140.462c-12.703,0-24.245,7.499-29.409,19.104    c-25.173,56.585-41.437,122.015-41.437,166.693c0,64.911,34.144,121.988,85.407,154.243v28.794    c0,18.461,15.02,33.481,33.481,33.481h126.443c18.461,0,33.481-15.02,33.481-33.481v-28.794    c51.264-32.255,85.407-89.333,85.407-154.243c0-44.678-16.265-110.108-41.436-166.692c-5.163-11.605-16.706-19.104-29.408-19.104    h-67.286c3.63-14.52,12.976-27.578,27.027-35.463c27.069-15.188,61.448-5.524,76.638,21.544    c6.198,11.046,20.229,14.99,31.272,8.792c5.351-3.002,9.212-7.909,10.872-13.816C443.176,84.835,442.437,78.636,439.435,73.285z     M419.026,28.787c-0.041,0.118-2.115,7.522-2.236,16.919c-4.568-3.909-9.479-7.416-14.681-10.474    c0.528-4.301,1.365-8.575,2.521-12.752c3.188-9.18,8.094-7.959,10.925-7.066C421.927,18.746,420.593,24.204,419.026,28.787z     M278.808,124.904c0.233,11.36,3.171,22.823,9.109,33.405c1.014,1.805,1.262,3.897,0.702,5.891    c-0.56,1.993-1.863,3.649-3.669,4.662c-1.806,1.013-3.898,1.263-5.891,0.702c-1.993-0.56-3.649-1.863-4.662-3.669    c-7.2-12.832-10.893-26.903-11.148-40.991H278.808z M333.21,478.518c0,10.07-8.193,18.262-18.262,18.262H188.504    c-10.07,0-18.262-8.193-18.262-18.262v-20.207c24.533,12.326,52.209,19.28,81.484,19.28c29.275,0,56.952-6.954,81.484-19.28    V478.518z M362.991,124.904c6.696,0,12.782,3.953,15.503,10.071c24.373,54.789,40.123,117.793,40.123,160.506    c0,92.024-74.867,166.891-166.891,166.891s-166.89-74.867-166.89-166.891c0-42.715,15.749-105.717,40.124-160.506    c2.722-6.118,8.808-10.071,15.504-10.071H248.02c0.257,16.645,4.751,33.19,13.105,48.439c6.924,12.639,22.988,13.315,31.272,8.791    c5.384-2.94,9.211-7.909,10.872-13.816c1.661-5.907,0.921-12.107-2.081-17.457c-4.615-8.225-6.922-17.126-7.158-25.958H362.991z"/>
	</g>
</g>
<g>
</g>
<g>
</g>
<g>
</g>
<g>
</g>
<g>
</g>
<g>
</g>
<g>
</g>
<g>
</g>
<g>
</g>
<g>
</g>
<g>
</g>
<g>
</g>
<g>
</g>
<g>
</g>
<g>
</g>
</svg>
