<?xml version="1.0" encoding="iso-8859-1"?>
<!-- Generator: Adobe Illustrator 19.0.0, SVG Export Plug-In . SVG Version: 6.00 Build 0)  -->
<svg xmlns="http://www.w3.org/2000/svg" xmlns:xlink="http://www.w3.org/1999/xlink" version="1.1" id="Capa_1" x="0px" y="0px" viewBox="0 0 511.999 511.999" style="enable-background:new 0 0 511.999 511.999;" xml:space="preserve">
<g>
	<g>
		<path d="M384.542,357.435c0-26.583-10.693-50.673-20.129-71.928c-6.009-13.537-11.684-26.322-14.257-38.526    c-8.812-41.803-5.924-83.002,8.585-122.449c3.09-8.399,1.811-17.77-3.423-25.069c-3.442-4.8-8.33-8.305-13.853-10.127    l21.803-56.266c4.09-10.557-1.17-22.472-11.726-26.562c-5.102-1.978-10.677-1.843-15.703,0.375    c-5.027,2.219-8.884,6.251-10.859,11.35L308.417,60.98c-0.031-0.664,0.498-9.654-9.896-15.135L217.523,2.119    c-7.031-3.794-15.783-2.401-21.342,3.445l-47.097,50.595c-2.861,3.074-2.689,7.886,0.384,10.747    c3.075,2.861,7.887,2.689,10.747-0.384L190.1,34.416l-17.04,48.639l-27.458,4.369c-1.073,0.171-2.134-0.36-2.641-1.325    c-0.506-0.961-0.343-2.137,0.407-2.925c2.894-3.044,2.772-7.857-0.272-10.751c-3.043-2.894-7.856-2.772-10.751,0.272    c-5.246,5.517-6.388,13.75-2.846,20.484c3.102,5.899,9.183,9.487,15.694,9.486c0.927,0,1.863-0.073,2.799-0.222l34.425-5.477    c-0.721,0.789-1.4,1.621-2.03,2.499c-5.234,7.298-6.513,16.669-3.423,25.068c14.509,39.447,17.396,80.645,8.585,122.449    c-2.572,12.203-8.248,24.988-14.257,38.526c-9.435,21.254-20.129,45.345-20.129,71.928c0,3.12,0.131,6.276,0.388,9.381    c0.348,4.185,4.019,7.304,8.207,6.949c4.185-0.347,7.297-4.021,6.949-8.206c-0.224-2.689-0.337-5.422-0.337-8.124    c0-23.36,9.568-44.913,18.821-65.757c6.343-14.29,12.334-27.788,15.238-41.558c9.41-44.644,6.318-88.664-9.192-130.836    c-1.347-3.663-0.784-7.759,1.508-10.956c2.338-3.26,6.182-5.205,10.282-5.205h11.961l7.624,47.924c0,0-10.693,7.785-9.148,25.979    c-0.51,1.989-0.668,4.061-0.438,6.118c2.624,23.481,1.384,47.579-3.685,71.625c-2.784,13.21-8.695,26.525-14.413,39.409    c-8.799,19.82-17.108,38.542-17.108,59.341c0,48.51,40.388,87.977,90.033,87.977s90.033-39.466,90.033-87.977    c0-20.8-8.311-39.521-17.112-59.35c-5.715-12.876-11.625-26.191-14.409-39.402c-5.069-24.041-6.308-48.138-3.684-71.623    c0.284-2.539-0.016-5.121-0.86-7.526c1.017-7.225-0.899-14.786-5.751-20.738l19.886-51.321c2.808,0.739,5.306,2.401,7.004,4.769    c2.292,3.197,2.855,7.292,1.508,10.956c-15.51,42.171-18.603,86.191-9.192,130.836c2.904,13.771,8.895,27.268,15.238,41.558    c9.253,20.844,18.821,42.399,18.821,65.757c0,54.736-45.523,99.265-101.481,99.265c-74.376,0-97.11-70.387-97.322-71.094    c-0.007-0.024-2.993-7.693-9.497-5.11c-3.889,1.545-6.273,5.444-5.078,9.453c0.453,1.522,12.511,59.019,81.293,77.931    c-0.349,1.169-0.637,2.356-0.849,3.562h-19.749c-11.181,0-20.278,9.097-20.278,20.278c0,11.181,9.097,20.278,20.278,20.278h104.43    c11.181,0,20.278-9.097,20.278-20.278c0-11.181-9.097-20.278-20.278-20.278h-21.78c-0.212-1.196-0.499-2.375-0.845-3.538    C348.001,454.683,384.542,410.17,384.542,357.435z M293.562,79.282c3.734-0.61,7.089-2.368,9.704-5.008l-5.285,13.639h-58.667    l54.156-8.616C293.499,79.292,293.53,79.288,293.562,79.282z M281.023,185.917c-3.02-2.916-7.784-2.969-10.753,0l-8.188,8.19    c-4.545,4.545-11.944,4.545-16.49,0l-14.022-14.022c-2.187-2.187-3.391-5.115-3.391-8.244s1.205-6.058,3.392-8.245l14.021-14.021    c2.186-2.187,5.114-3.391,8.244-3.391c3.13,0,6.058,1.205,8.245,3.391l14.021,14.021c2.36,2.36,3.587,5.649,3.366,9.025    c-0.275,4.19,2.898,7.811,7.089,8.086c4.171,0.277,7.811-2.899,8.087-7.09c0.508-7.745-2.331-15.318-7.788-20.774l-6.613-6.613    c0.32-0.025,0.642-0.047,0.967-0.047c3.13,0,6.058,1.205,8.245,3.391l14.021,14.021c4.546,4.546,4.546,11.944,0,16.49    l-14.02,14.021c-2.524,2.523-5.925,3.64-9.23,3.362C280.225,197.471,287.096,191.782,281.023,185.917z M281.21,130.976    c-4.9,0-9.593,1.297-13.687,3.721c-4.094-2.425-8.786-3.721-13.687-3.721c-6.697,0-13.005,2.418-17.926,6.835l-5.519-34.689    h61.699C292.088,103.122,281.238,130.976,281.21,130.976z M291.443,59.307c0.112,0.061,1.52,0.887,1.759,2.068    c0.505,2.489-2.161,2.91-2.188,2.914l-27.374,4.356l-31.672-41.443L291.443,59.307z M190.126,80.34l19.9-56.806l36.549,47.825    L190.126,80.34z M326.876,300.342c8.126,18.307,15.801,35.597,15.801,53.173c0,40.124-33.566,72.768-74.825,72.768    s-74.825-32.644-74.825-72.768c0-17.575,7.674-34.865,15.803-53.176c6.035-13.597,12.276-27.658,15.392-42.436    c4.118-19.537,5.856-39.122,5.212-58.443l5.402,5.402c5.238,5.238,12.117,7.857,18.997,7.857c4.742,0,9.484-1.245,13.687-3.733    c4.205,2.488,8.945,3.733,13.687,3.733c6.88,0,13.76-2.619,18.999-7.857l6.089-6.089c-0.71,19.547,1.017,39.365,5.184,59.131    C314.598,272.682,320.838,286.741,326.876,300.342z M304.37,142.984c0,0-6.923-6.646-8.454-7.649l12.482-32.213h11.417    L304.37,142.984z M325.708,87.913h-11.417l24.871-64.183c0.509-1.312,1.51-2.353,2.82-2.932c1.31-0.579,2.755-0.616,4.067-0.107    c2.736,1.06,4.101,4.15,3.041,6.886L325.708,87.913z M321.082,486.654L321.082,486.654c2.748-0.001,5.069,2.321,5.069,5.068    s-2.322,5.069-5.069,5.069h-104.43c-2.748,0-5.069-2.322-5.069-5.069s2.322-5.069,5.069-5.069h26.959    c2.126,0,4.155-0.89,5.595-2.454c1.44-1.563,2.16-3.659,1.984-5.778c-0.044-0.529,0.334-5.601,1.098-7.539    c5.12,0.678,10.317,1.028,15.565,1.028c5.275,0,10.467-0.352,15.56-1.02c0.763,1.941,1.148,7.003,1.104,7.532    c-0.175,2.118,0.544,4.214,1.984,5.778c1.44,1.564,3.468,2.454,5.595,2.454H321.082z"/>
	</g>
</g>
<g>
</g>
<g>
</g>
<g>
</g>
<g>
</g>
<g>
</g>
<g>
</g>
<g>
</g>
<g>
</g>
<g>
</g>
<g>
</g>
<g>
</g>
<g>
</g>
<g>
</g>
<g>
</g>
<g>
</g>
</svg>
