<?xml version="1.0" encoding="iso-8859-1"?>
<!-- Generator: Adobe Illustrator 19.0.0, SVG Export Plug-In . SVG Version: 6.00 Build 0)  -->
<svg xmlns="http://www.w3.org/2000/svg" xmlns:xlink="http://www.w3.org/1999/xlink" version="1.1" id="Capa_1" x="0px" y="0px" viewBox="0 0 512 512" style="enable-background:new 0 0 512 512;" xml:space="preserve">
<g>
	<g>
		<path d="M397.445,102.834c-3.817-4.088-9.214-6.433-14.808-6.433h-186.11c-5.595,0-10.991,2.345-14.807,6.432    c-3.817,4.087-5.787,9.632-5.406,15.212c2.118,30.897,14.588,59.701,35.113,81.108c21.194,22.103,48.949,34.277,78.153,34.277    c29.204,0,56.959-12.172,78.152-34.277c20.526-21.407,32.996-50.211,35.115-81.108    C403.231,112.464,401.261,106.919,397.445,102.834z M356.757,188.628c-18.298,19.084-42.155,29.594-67.175,29.594    c-25.021,0-48.878-10.51-67.175-29.594c-18.063-18.84-29.044-44.276-30.919-71.622c-0.095-1.392,0.395-2.775,1.348-3.795    c0.951-1.019,2.295-1.603,3.69-1.603h186.11c1.395,0,2.74,0.585,3.693,1.605c0.951,1.019,1.443,2.401,1.347,3.792    C385.801,144.353,374.82,169.79,356.757,188.628z"/>
	</g>
</g>
<g>
	<g>
		<path d="M328.24,126.817h-41.569c-4.201,0-7.604,3.405-7.604,7.604c0,4.199,3.404,7.604,7.604,7.604h41.569    c4.2,0,7.604-3.405,7.604-7.604C335.844,130.221,332.441,126.817,328.24,126.817z"/>
	</g>
</g>
<g>
	<g>
		<path d="M361.731,126.817h-9.665c-4.2,0-7.604,3.405-7.604,7.604c0,4.199,3.404,7.604,7.604,7.604h9.665    c4.2,0,7.604-3.405,7.604-7.604C369.335,130.221,365.932,126.817,361.731,126.817z"/>
	</g>
</g>
<g>
	<g>
		<path d="M237.921,483.873c13.153,0,30.818-5.866,40.288-33.81c5.181-15.289,5.426-30.359,5.434-31.088V255.708    c1.974,0.088,3.953,0.147,5.938,0.147c80.014,0,145.111-71.171,145.111-158.652c0-12.809-10.421-23.23-23.23-23.23H181.73    l-13.442-32.461c-0.093-0.225-0.199-0.443-0.31-0.654c6.739-3.258,13.891-5.787,21.362-7.472v25.925    c0,4.199,3.405,7.604,7.604,7.604c4.199,0,7.604-3.405,7.604-7.604V19.586c0-10.8-8.786-19.586-19.587-19.586    C125.601,0,77.308,48.294,77.308,107.654c0,10.8,8.786,19.586,19.586,19.586h50.185c1.82,10.35,4.585,20.478,8.293,30.307    c1.482,3.929,5.869,5.913,9.799,4.43c3.929-1.482,5.913-5.87,4.43-9.799c-6.583-17.446-9.922-35.942-9.922-54.974    c0-4.424,3.598-8.022,8.022-8.022h243.761c4.422,0,8.022,3.598,8.022,8.022c0,79.096-58.275,143.444-129.903,143.444    c-74.812,0-107.201-62.205-109.414-66.081c-2.081-3.648-6.726-4.917-10.373-2.836c-3.648,2.081-4.917,6.725-2.836,10.373    c2.506,4.393,22.125,55.31,101.476,72.047V418.88c-0.006,0.498-0.962,49.785-30.515,49.785c-11.947,0-21.667,9.72-21.667,21.667    c0,11.947,9.72,21.667,21.667,21.667h103.322c11.947,0,21.667-9.72,21.667-21.667c0-11.947-9.72-21.667-21.67-21.667    c-28.716,0-30.432-46.647-30.511-49.614V271.21c0-4.199-3.404-7.604-7.604-7.604s-7.604,3.405-7.604,7.604v147.937    c0,0.059,0.001,0.118,0.002,0.176c0.556,23.975,10.81,64.55,45.72,64.55c3.562,0,6.459,2.898,6.459,6.459    s-2.898,6.459-6.459,6.459H237.921c-3.562,0-6.459-2.898-6.459-6.459C231.462,486.771,234.36,483.873,237.921,483.873z     M113.139,112.032c1.599-8.311,4.226-16.257,7.749-23.704l23.645,13.35c0.087,3.469,0.278,6.922,0.569,10.355H113.139z     M147.443,85.856l-19.015-10.735c7.035-10.414,15.966-19.445,26.312-26.575l10.58,25.548    C157.639,74.881,151.059,79.427,147.443,85.856z M97.693,112.032c0,0-5.177,0.676-5.177-4.378    c0-50.975,41.471-92.446,92.445-92.446c1.823,0,3.386,1.12,4.044,2.708C141.982,27.18,105.528,64.761,97.693,112.032z"/>
	</g>
</g>
<g>
</g>
<g>
</g>
<g>
</g>
<g>
</g>
<g>
</g>
<g>
</g>
<g>
</g>
<g>
</g>
<g>
</g>
<g>
</g>
<g>
</g>
<g>
</g>
<g>
</g>
<g>
</g>
<g>
</g>
</svg>
