<?xml version="1.0" encoding="iso-8859-1"?>
<!-- Generator: Adobe Illustrator 19.0.0, SVG Export Plug-In . SVG Version: 6.00 Build 0)  -->
<svg xmlns="http://www.w3.org/2000/svg" xmlns:xlink="http://www.w3.org/1999/xlink" version="1.1" id="Capa_1" x="0px" y="0px" viewBox="0 0 512 512" style="enable-background:new 0 0 512 512;" xml:space="preserve">
<g>
	<g>
		<path d="M380.644,126.157c-4.606-5.012-11.153-7.886-17.96-7.886H226.162l-8.288-55.051c-0.714-4.738-3.092-9.084-6.697-12.238    L158.667,5.021c-4.076-3.568-9.295-5.33-14.701-4.976c-5.405,0.359-10.346,2.802-13.912,6.878    c-7.364,8.413-6.51,21.249,1.903,28.613l46.921,41.069l6.273,41.667h-5.475c-6.807,0-13.353,2.874-17.96,7.887    c-4.606,5.012-6.92,11.776-6.348,18.558l29.103,344.94C185.528,502.185,196.205,512,208.779,512h124.804    c12.154,0,23.203-9.252,24.127-20.202l29.102-344.94C387.538,138.236,385.521,131.465,380.644,126.157z M262.375,253.625    c-2.032-0.508-3.887-1.558-5.366-3.039l-25.882-25.882c-2.187-2.187-3.392-5.115-3.392-8.244c0-3.13,1.205-6.058,3.392-8.245    l25.882-25.882c2.187-2.187,5.115-3.391,8.244-3.391c2.605,0,5.063,0.845,7.078,2.386l-16.134,16.134    c-10.476,10.476-10.476,27.521-0.001,37.998l25.882,25.881c5.239,5.238,12.119,7.856,18.998,7.856    c6.88,0,13.76-2.619,18.998-7.856l21.373-21.373l-14.683,174.03c-0.07,0.836-0.783,1.491-1.623,1.491H217.217    c-0.839,0-1.552-0.655-1.623-1.491c0,0-16.791-189.678-16.335-189.678l14.351-0.253c1.246,4.267,3.541,8.174,6.762,11.394    l25.881,25.881c3.428,3.428,7.727,5.862,12.433,7.038c0.618,0.155,7.741,1.056,9.221-5.533    C268.828,258.749,266.45,254.644,262.375,253.625z M213.072,133.48l9.328,61.955c0,0-5.288,3.79-8.411,12.233l-11.17-74.189    H213.072z M141.972,24.091c-1.019-0.891-1.629-2.127-1.719-3.478c-0.09-1.352,0.352-2.656,1.244-3.676    c0.891-1.019,2.126-1.629,3.478-1.719c1.361-0.091,2.656,0.352,3.675,1.244l52.511,45.962c0.901,0.788,1.495,1.875,1.674,3.06    l7.948,52.786H200.53l-7.029-46.686c-0.268-1.778-1.158-3.405-2.511-4.59L141.972,24.091z M371.656,145.579l-29.102,344.94    c-0.187,2.211-3.735,6.273-8.973,6.273H208.778c-4.735,0-8.756-3.696-9.153-8.413l-29.103-344.941    c-0.216-2.554,0.656-5.101,2.391-6.989c1.735-1.887,4.199-2.97,6.762-2.97h7.764l11.381,75.591    c-3.763,0.575-7.27,2.397-9.874,5.229c-3.179,3.459-4.775,8.128-4.381,12.808l15.875,188.167    c0.73,8.647,8.099,15.421,16.777,15.421h107.924c8.679,0,16.049-6.775,16.777-15.421l15.876-188.167    c0.379-4.505-1.102-8.987-4.046-12.402c-0.408-6.284-3.001-12.451-7.793-17.244l-5.427-5.427c-2.97-2.97-7.784-2.97-10.753,0    c-2.97,2.97-2.97,7.784,0,10.753l5.427,5.427c4.546,4.546,4.546,11.943,0,16.49l-25.883,25.882c-4.545,4.545-11.942,4.545-16.49,0    l-25.881-25.881c-4.546-4.546-4.546-11.943,0-16.49l25.882-25.882c2.187-2.187,5.115-3.392,8.244-3.392s6.058,1.204,8.245,3.392    l4.486,4.486c2.97,2.97,7.784,2.97,10.753,0c2.97-2.97,2.97-7.784,0-10.753l-4.486-4.486c-5.06-5.06-11.807-7.846-18.999-7.846    c-6.69,0-12.992,2.414-17.912,6.822c-4.92-4.408-11.222-6.822-17.912-6.822c-7.191,0-13.939,2.786-18.998,7.846l-10.487,10.487    l-7.315-48.589h134.232c2.563,0,5.028,1.082,6.761,2.969C370.717,137.831,372.117,140.119,371.656,145.579z"/>
	</g>
</g>
<g>
	<g>
		<path d="M330.882,446.093c-3.072-3.342-7.437-5.259-11.977-5.259h-95.452c-4.54,0-8.906,1.917-11.977,5.259    c-3.072,3.342-4.615,7.853-4.234,12.377l1.12,13.281c0.705,8.356,7.825,14.901,16.211,14.901h93.21    c8.387,0,15.507-6.546,16.211-14.9l1.12-13.282C335.496,453.948,333.954,449.436,330.882,446.093z M318.5,471.164    c-0.19,0.174-94.331,0.218-94.498,0.111c-0.268-0.173-1.529-14.672-1.328-14.89c0.2-0.218,96.811-0.218,97.012,0    S318.69,470.99,318.5,471.164z"/>
	</g>
</g>
<g>
	<g>
		<path d="M312,317.703c-4.181-0.356-7.864,2.753-8.216,6.938l-1.515,17.956c-0.353,4.185,2.226,8.244,7.586,8.244    c3.91,0,7.235-2.998,7.569-6.965l1.515-17.956C319.29,321.736,316.184,318.057,312,317.703z"/>
	</g>
</g>
<g>
	<g>
		<path d="M315.657,364.489c0-4.199-3.405-7.604-7.604-7.604c-4.199,0-7.604,3.405-7.604,7.604c0,0-0.684,8.023,7.604,8.023    C316.156,372.512,315.657,364.489,315.657,364.489z"/>
	</g>
</g>
<g>
</g>
<g>
</g>
<g>
</g>
<g>
</g>
<g>
</g>
<g>
</g>
<g>
</g>
<g>
</g>
<g>
</g>
<g>
</g>
<g>
</g>
<g>
</g>
<g>
</g>
<g>
</g>
<g>
</g>
</svg>
