<?xml version="1.0" encoding="iso-8859-1"?>
<!-- Generator: Adobe Illustrator 19.0.0, SVG Export Plug-In . SVG Version: 6.00 Build 0)  -->
<svg xmlns="http://www.w3.org/2000/svg" xmlns:xlink="http://www.w3.org/1999/xlink" version="1.1" id="Capa_1" x="0px" y="0px" viewBox="0 0 512 512" style="enable-background:new 0 0 512 512;" xml:space="preserve">
<g>
	<g>
		<path d="M204.372,231.108c-6.997-10.955-18.188-18.077-33.263-21.169c-0.773-0.158-10.555-2.437-13.699,8.751    c-0.611,2.174-4.737,21.979,6.321,39.294c6.997,10.954,18.189,18.077,33.265,21.169c0.772,0.158,4.573,1.149,8.763-1.688    c2.475-1.675,4.247-4.152,4.933-7.063C211.211,268.203,215.431,248.422,204.372,231.108z M196.417,263.368    c-9.029-2.511-15.701-7.068-19.858-13.578c-5.526-8.652-5.417-18.814-4.87-24.067c9.029,2.511,15.7,7.068,19.858,13.578    C197.073,247.953,196.964,258.116,196.417,263.368z"/>
	</g>
</g>
<g>
	<g>
		<path d="M342.489,224.885c-0.45-6.238-5.88-11.075-12.135-10.814c-2.257,0.097-22.438,1.395-36.11,16.739    c-1.359,1.525-2.583,3.131-3.702,4.803c1.057-5.688-2.192-11.314-7.814-13.169c-0.761-0.252-7.702-2.457-16.863-2.457    c-8.384,0-16.067,1.791-22.835,5.323c-11.522,6.015-19.596,16.543-23.992,31.291c-0.89,2.986-0.564,6.14,0.915,8.875    c1.421,2.63,3.766,4.594,6.604,5.531c0.761,0.252,7.701,2.456,16.862,2.457c0.001,0,0,0,0.001,0    c8.384,0,16.067-1.792,22.835-5.324c7.312-3.817,13.23-9.458,17.706-16.836c-1.152,5.311-1.521,11.067-1.072,17.262    c0.224,3.108,1.363,6.323,3.999,7.978c4.625,2.903,7.967,2.842,8.136,2.835c2.257-0.097,22.439-1.394,36.11-16.739    C339.78,252.936,343.6,240.232,342.489,224.885z M259.213,254.649c-4.573,2.386-9.886,3.596-15.793,3.596c0,0,0,0-0.001,0    c-3.437,0-6.449-0.42-8.609-0.841c3.289-8.779,8.412-15.027,15.261-18.601c4.573-2.386,9.886-3.596,15.793-3.596    c3.437,0,6.45,0.42,8.61,0.841C271.185,244.825,266.062,251.074,259.213,254.649z M319.77,252.517    c-6.83,7.666-16.641,10.317-21.845,11.214c-0.031-9.372,2.547-17.029,7.684-22.796c6.829-7.666,16.64-10.317,21.845-11.214    C327.485,239.093,324.907,246.749,319.77,252.517z"/>
	</g>
</g>
<g>
	<g>
		<path d="M368.954,428.209c-4.012-4.527-9.783-7.123-15.832-7.123H158.879c-6.049,0-11.82,2.596-15.833,7.124    c-4.011,4.526-5.897,10.567-5.172,16.573l2.196,18.16c1.285,10.614,10.314,18.618,21.004,18.618h189.853    c10.69,0,19.72-8.003,21.004-18.619l2.196-18.16C374.852,438.776,372.966,432.736,368.954,428.209z M359.017,442.956    l-2.194,18.158c-0.36,2.98-2.896,5.226-5.896,5.226H161.074c-3,0-5.535-2.246-5.895-5.225l-2.195-18.159    c-0.204-1.686,0.325-3.382,1.451-4.652c1.126-1.27,2.746-1.999,4.444-1.999h194.243c1.698,0,3.318,0.729,4.443,1.999    C358.691,439.574,359.221,441.27,359.017,442.956z"/>
	</g>
</g>
<g>
	<g>
		<path d="M338.693,360.247h-11.16c-4.204,0-7.61,3.407-7.61,7.61c0,4.203,3.406,7.61,7.61,7.61h11.16c4.204,0,7.61-3.407,7.61-7.61    C346.302,363.654,342.896,360.247,338.693,360.247z"/>
	</g>
</g>
<g>
	<g>
		<path d="M304.195,360.247h-41.093c-4.204,0-7.61,3.407-7.61,7.61c0,4.203,3.406,7.61,7.61,7.61h41.093    c4.204,0,7.61-3.407,7.61-7.61C311.805,363.654,308.399,360.247,304.195,360.247z"/>
	</g>
</g>
<g>
	<g>
		<path d="M427.955,153.804c-6.552-7.391-15.972-11.63-25.849-11.63h-48.661c7.412-9.274,12.784-19.327,16.016-30.033    c1.871-6.197,2.986-12.499,3.364-18.89c20.069-4.949,39.019-0.969,38.951-0.567c-2.093,12.415-5.813,23.34-11.056,32.472    c-2.093,3.645-0.811,8.254,2.81,10.389c4.161,2.453,8.983-0.359,10.389-2.81c6.145-10.699,10.473-23.324,12.867-37.52    c1.449-8.584-4.105-16.636-12.644-18.33c-2.191-0.434-20.289-3.736-41.834,0.871c-1.622-13.022-6.201-26.362-13.731-39.922    c-4.227-7.612-13.592-10.437-21.315-6.433c-1.205,0.623-23.857,12.591-39.018,36.302c-12.138-11.48-28.117-19.686-47.665-24.438    c-8.456-2.057-16.888,2.909-19.183,11.297c-0.456,1.658-10.929,41.002,9.271,75.3c2.588,4.393,5.585,8.492,8.926,12.315h-46.997    L157.66,13.924c-3.792-10.823-15.685-16.546-26.507-12.753c-5.229,1.832-9.439,5.604-11.853,10.619    c-2.413,5.015-2.732,10.659-0.901,15.888l8.596,24.536c1.389,3.966,5.729,6.055,9.698,4.665c3.966-1.39,6.055-5.731,4.666-9.698    l-8.596-24.536c-1.018-2.904,0.517-6.094,3.421-7.112c2.903-1.015,6.095,0.517,7.113,3.422l43.17,123.218H174.64l-24.182-69.023    c-1.39-3.967-5.732-6.058-9.698-4.666c-3.966,1.39-6.055,5.731-4.666,9.698l22.418,63.991h-48.619    c-9.875,0-19.297,4.239-25.849,11.63c-6.55,7.391-9.628,17.252-8.443,27.058l36.357,300.74    C114.052,498.932,128.796,512,146.252,512h219.496c17.456,0,32.198-13.068,34.293-30.396l36.357-300.741    C437.583,171.057,434.506,161.195,427.955,153.804z M345.268,45.221c12.249,22.058,15.486,43.094,9.623,62.524    c-3.787,12.545-11.226,24.125-22.103,34.431h-26.997C285.171,79.404,345.071,44.866,345.268,45.221z M246.07,58.586    c0,0,24.389,2.301,44.787,23.292c-0.975,2.386-1.866,4.851-2.637,7.409c-5.103,16.902-4.607,34.65,1.409,52.889h-17.697    c-7.451-5.526-13.566-12.249-18.153-20.039C236.81,93.323,245.682,59.997,246.07,58.586z M191.799,157.393L191.799,157.393    l5.279,15.07c-3.716,0.817-7.207,2.371-10.284,4.561c-0.064-0.281-0.14-0.56-0.237-0.839l-6.584-18.792H191.799z M179.668,192.798    c1.413,2.108,3.784,3.374,6.321,3.374c2.538,0,4.909-1.265,6.321-3.374c2.432-3.629,6.486-5.797,10.841-5.797    c4.357,0,8.409,2.167,10.842,5.797c1.413,2.108,3.784,3.374,6.321,3.374c2.538,0,4.909-1.265,6.321-3.373    c2.432-3.63,6.487-5.798,10.842-5.798s8.408,2.167,10.841,5.797c1.413,2.108,3.784,3.374,6.321,3.374    c2.538,0,4.909-1.265,6.321-3.373c2.432-3.63,6.487-5.798,10.842-5.798c4.356,0,8.408,2.167,10.841,5.797    c1.413,2.108,3.784,3.374,6.321,3.374s4.909-1.265,6.321-3.373c2.432-3.63,6.487-5.798,10.842-5.798s8.409,2.167,10.842,5.798    c1.414,2.108,3.784,3.373,6.322,3.373c2.538,0,4.908-1.265,6.32-3.374c2.432-3.629,6.486-5.797,10.841-5.797    c4.357,0,8.409,2.167,10.842,5.797c1.413,2.108,3.784,3.374,6.321,3.374s4.909-1.265,6.321-3.374    c2.432-3.629,6.486-5.797,10.841-5.797c7.054,0,12.818,5.63,13.034,12.633l-9.884,81.784c-1.046-0.119-12.607-2.028-20.313,5.622    c-4.862-3.721-10.865-5.808-17.164-5.808c-6.298,0-12.301,2.087-17.163,5.808c-4.862-3.721-10.866-5.808-17.164-5.808    s-12.301,2.087-17.164,5.808c-4.861-3.721-10.865-5.808-17.163-5.808c-6.299,0-12.301,2.086-17.164,5.808    c-4.861-3.721-10.865-5.808-17.163-5.808c-6.298,0-12.301,2.087-17.164,5.808c-4.861-3.721-10.865-5.808-17.164-5.808    c-6.298,0-12.301,2.086-17.163,5.808c-4.862-3.721-10.865-5.808-17.164-5.808c-6.298,0-12.301,2.087-17.163,5.808    c-9.049-7.651-19.303-5.739-20.366-5.617l-9.832-81.787c0.214-7.004,5.979-12.635,13.034-12.635c4.356,0,8.409,2.167,10.842,5.798    c1.413,2.108,3.784,3.373,6.321,3.373c2.539,0,4.909-1.265,6.321-3.374c2.432-3.629,6.486-5.797,10.841-5.797    C173.182,187.003,177.235,189.169,179.668,192.798z M376.107,296.533l-10.724,88.74c-0.373,3.086-2.998,5.412-6.107,5.412H149.888    c-3.108,0-5.733-2.327-6.106-5.408l-10.668-88.741c0.458-0.048,7.471-2.03,12.226,5.714c1.328,2.162,3.784,3.373,6.321,3.373    c2.539,0,4.909-1.265,6.321-3.374c2.432-3.63,6.486-5.797,10.841-5.797c4.357,0,8.409,2.167,10.842,5.797    c1.413,2.108,3.784,3.374,6.321,3.374s4.909-1.265,6.321-3.374c2.432-3.63,6.486-5.797,10.841-5.797    c4.357,0,8.409,2.167,10.842,5.797c1.413,2.108,3.784,3.374,6.321,3.374s4.909-1.265,6.321-3.373    c2.432-3.63,6.487-5.798,10.842-5.798c4.356,0,8.408,2.167,10.841,5.797c1.413,2.108,3.784,3.374,6.321,3.374    c2.538,0,4.909-1.265,6.321-3.374c2.432-3.63,6.486-5.797,10.842-5.797c4.356,0,8.408,2.167,10.841,5.797    c1.413,2.108,3.784,3.374,6.321,3.374s4.909-1.265,6.321-3.373c2.432-3.63,6.487-5.798,10.842-5.798s8.409,2.167,10.842,5.798    c1.413,2.108,3.784,3.373,6.321,3.373c2.539,0,4.909-1.265,6.321-3.374c2.432-3.63,6.486-5.797,10.841-5.797    c4.357,0,8.409,2.167,10.842,5.797c1.413,2.108,3.784,3.374,6.321,3.374s4.808-1.336,6.321-3.374    C369.132,295.267,375.67,296.489,376.107,296.533z M421.289,179.035L384.93,479.777c-1.17,9.693-9.417,17.002-19.182,17.002    H146.253c-9.765,0-18.012-7.309-19.183-17.003l-36.358-300.74c-0.663-5.485,1.058-11.002,4.722-15.135    c3.665-4.135,8.936-6.506,14.46-6.506h53.952l5.042,14.392c-0.02,0-0.042-0.002-0.062-0.002c-6.298,0-12.301,2.086-17.163,5.808    c-4.862-3.721-10.866-5.808-17.164-5.808c-15.582,0-28.26,12.677-28.26,28.26c0,0.303,0.018,0.607,0.055,0.908l22.379,186.149    c1.295,10.721,10.416,18.806,21.215,18.806h209.388c10.8,0,19.92-8.085,21.216-18.806l22.495-186.144    c0.036-0.303,0.055-0.608,0.055-0.913c0-15.582-12.677-28.26-28.26-28.26c-6.298,0-12.301,2.086-17.163,5.807    c-4.862-3.721-10.865-5.807-17.164-5.807c-6.298,0-12.301,2.086-17.163,5.808c-4.862-3.721-10.866-5.808-17.164-5.808    s-12.301,2.087-17.164,5.808c-4.861-3.721-10.865-5.808-17.163-5.808c-6.298,0-12.301,2.087-17.164,5.808    c-4.861-3.721-10.865-5.808-17.163-5.808c-6.298,0-12.301,2.087-17.164,5.808c-2.028-1.553-4.265-2.801-6.629-3.752l-5.761-16.444    h194.181c5.524,0,10.795,2.371,14.46,6.506C420.231,168.034,421.951,173.551,421.289,179.035z"/>
	</g>
</g>
<g>
</g>
<g>
</g>
<g>
</g>
<g>
</g>
<g>
</g>
<g>
</g>
<g>
</g>
<g>
</g>
<g>
</g>
<g>
</g>
<g>
</g>
<g>
</g>
<g>
</g>
<g>
</g>
<g>
</g>
</svg>
