<?xml version="1.0" encoding="iso-8859-1"?>
<!-- Generator: Adobe Illustrator 19.0.0, SVG Export Plug-In . SVG Version: 6.00 Build 0)  -->
<svg xmlns="http://www.w3.org/2000/svg" xmlns:xlink="http://www.w3.org/1999/xlink" version="1.1" id="Capa_1" x="0px" y="0px" viewBox="0 0 512 512" style="enable-background:new 0 0 512 512;" xml:space="preserve">
<g>
	<g>
		<path d="M296.541,365.989c-4.267,0-7.725,3.459-7.725,7.725c0,3.044-0.344,6.074-1.023,9.009    c-0.962,4.157,1.584,8.516,5.784,9.268c5.251,0.941,8.44-2.213,9.267-5.785c0.943-4.075,1.421-8.278,1.421-12.491    C304.266,369.448,300.808,365.989,296.541,365.989z"/>
	</g>
</g>
<g>
	<g>
		<path d="M290.189,398.683c-3.251-2.765-8.124-2.373-10.89,0.876c-5.396,6.34-12.473,10.781-20.466,12.839    c-4.131,1.063-6.485,5.243-5.554,9.407c1.604,7.175,8.761,5.72,9.408,5.555c11.094-2.858,20.906-9.009,28.378-17.788    C293.83,406.323,293.438,401.449,290.189,398.683z"/>
	</g>
</g>
<g>
	<g>
		<path d="M263.295,205.136c-13.725,0-24.891,11.166-24.891,24.891s11.166,24.891,24.891,24.891    c13.725,0,24.891-11.166,24.891-24.891S277.02,205.136,263.295,205.136z M263.295,239.469c-5.206,0-9.442-4.236-9.442-9.442    c0-5.206,4.235-9.442,9.442-9.442c5.205,0,9.442,4.235,9.442,9.442S268.502,239.469,263.295,239.469z"/>
	</g>
</g>
<g>
	<g>
		<path d="M370.453,120.106c0-34.276-27.885-62.162-62.162-62.162c-26.796,0-49.672,17.05-58.386,40.865V81.286    c7.234-4.898,20.24-15.68,25.391-32.553c1.128-3.694,1.809-7.46,2.058-11.287c3.036-1.156,5.607-1.883,7.268-2.292    c0.586,3.35,0.73,6.627,1.041,9.727c0.804,8.037,7.893,7.463,7.981,7.46c4.264-0.144,7.604-3.717,7.46-7.981    c-0.156-4.618-0.742-9.46-1.74-14.388c-1.44-7.118-8.183-11.728-15.322-10.491c-0.503,0.086-3.615,0.654-8.094,2.091    c-1.436-6.109-3.884-12.34-7.373-18.671c-1.019-1.849-2.933-2.9-4.913-2.9c-0.863,0-1.738,0.2-2.555,0.62    c-0.947,0.486-23.257,12.173-30.414,35.612c-3.847,12.599-2.577,26.013,3.762,39.949v28.459h-15.456l-9.36-88.772    c-0.448-4.242-4.258-7.322-8.492-6.872c-4.242,0.447-7.319,4.249-6.873,8.492l9.189,87.152h-3.897    c-10.025,0-18.597,6.491-22.009,15.918c-3.183,8.792-5.949,19.859-6.965,23.729c-1.083,4.126,1.384,8.35,5.511,9.432    c4.126,1.086,8.259-1.41,9.431-5.511c2.138-7.48,6.048-20.85,6.695-22.813c1.046-3.174,3.994-5.306,7.336-5.306h5.526l0.886,8.4    c-6.268,1.212-11.425,5.746-13.34,12.055c-23.429,77.203-31.082,199.66-31.082,233.173c0,47.579,38.709,86.288,86.288,86.288    c47.579,0,86.288-38.709,86.288-86.288c0-33.512-7.653-155.965-31.082-233.174c-2.251-7.409-8.965-12.387-16.708-12.387h-36.44    v-8.067h46.219c3.342,0,6.29,2.132,7.336,5.305c26.559,80.558,35.234,216.334,35.234,254.06c0,50.094-40.754,90.848-90.848,90.848    s-90.848-40.754-90.848-90.848c0-111.148,22.745-205.825,23.7-210.023l0.065-0.289c0.889-4.158-1.751-8.24-5.904-9.149    c-4.146-0.912-8.262,1.718-9.192,5.867l-0.032,0.142c-0.72,3.163-24.086,89.999-24.086,213.453    c0,30.308,12.752,57.693,33.171,77.075v19.423c0,19.877,16.171,36.048,36.048,36.048h74.157c19.877,0,36.048-16.171,36.048-36.048    v-19.423c20.419-19.382,33.171-46.766,33.171-77.075c0-30.451-5.587-123.802-21.466-202.189    C354.864,167.766,370.453,145.729,370.453,120.106z M234.456,120.088v8.067h-12.975l-0.851-8.067H234.456z M286.346,143.604    c0.892,0,1.665,0.574,1.924,1.426c22.928,75.552,30.416,195.761,30.416,228.685c0,39.06-31.778,70.838-70.838,70.838    s-70.838-31.778-70.838-70.838c0-32.925,7.489-153.136,30.416-228.685c0.259-0.853,1.032-1.427,1.924-1.427H286.346z     M246.421,64.55c-2.929-8.494-3.235-16.326-0.952-23.807c2.761-9.044,8.911-15.881,14.114-20.326    c2.921,8.466,3.22,16.322,0.935,23.804C257.761,53.258,251.674,60.071,246.421,64.55z M305.524,475.952    c0,11.358-9.241,20.599-20.599,20.599h-74.157c-11.358,0-20.599-9.241-20.599-20.599v-7.251    c16.623,10.781,36.432,17.05,57.677,17.05s41.054-6.269,57.677-17.05V475.952z M355.002,120.107    c0,5.744-1.047,11.245-2.953,16.332l-28.304-16.334l28.302-16.335C353.954,108.858,355.002,114.361,355.002,120.107z     M338.004,84.091c2.297,1.898,4.409,4.011,6.306,6.307l-14.92,8.611L338.004,84.091z M272.295,90.386    c1.893-2.29,3.994-4.4,6.284-6.293l8.598,14.892L272.295,90.386z M291.948,76.352c5.089-1.907,10.595-2.957,16.342-2.957    c5.747,0,11.253,1.05,16.342,2.957l-16.342,28.306L291.948,76.352z M323.31,137.692l20.999,12.118    c-4.09,4.95-9.176,9.045-14.951,11.975C327.47,153.479,325.456,145.415,323.31,137.692z"/>
	</g>
</g>
<g>
</g>
<g>
</g>
<g>
</g>
<g>
</g>
<g>
</g>
<g>
</g>
<g>
</g>
<g>
</g>
<g>
</g>
<g>
</g>
<g>
</g>
<g>
</g>
<g>
</g>
<g>
</g>
<g>
</g>
</svg>
