<?xml version="1.0" encoding="iso-8859-1"?>
<!-- Generator: Adobe Illustrator 19.0.0, SVG Export Plug-In . SVG Version: 6.00 Build 0)  -->
<svg xmlns="http://www.w3.org/2000/svg" xmlns:xlink="http://www.w3.org/1999/xlink" version="1.1" id="Capa_1" x="0px" y="0px" viewBox="0 0 512.001 512.001" style="enable-background:new 0 0 512.001 512.001;" xml:space="preserve">
<g>
	<g>
		<path d="M74.779,157.141c-0.591-1.345-1.164-2.697-1.72-4.058c-1.614-3.945-6.117-5.838-10.066-4.224    c-3.946,1.614-5.836,6.119-4.224,10.066c0.607,1.483,1.232,2.959,1.877,4.425c1.271,2.893,6.167,5.689,10.171,3.961    C74.732,165.624,76.494,161.044,74.779,157.141z"/>
	</g>
</g>
<g>
	<g>
		<path d="M386.284,135.232c-3.858-1.812-8.455-0.157-10.27,3.7c-1.023,2.177-2.138,4.351-3.313,6.464    c-2.072,3.725-0.72,8.406,2.994,10.497c5.529,3.113,9.086-0.457,10.496-2.994c1.345-2.416,2.62-4.906,3.792-7.397    C391.798,141.644,390.142,137.046,386.284,135.232z"/>
	</g>
</g>
<g>
	<g>
		<path d="M369.428,164.683c-3.192-2.827-8.069-2.53-10.896,0.663c-11.833,13.365-27.144,24.414-44.278,31.953    c-3.901,1.717-5.587,6.234-3.956,10.173c2.304,5.565,9.161,4.402,10.174,3.956c19.159-8.429,36.317-20.826,49.618-35.849    C372.917,172.386,372.619,167.509,369.428,164.683z"/>
	</g>
</g>
<g>
	<g>
		<path d="M272.796,432.242h0.002c0,4.263,3.456,7.719,7.719,7.719s7.719-3.456,7.719-7.719v-34.543    c0-97.071,33.751-122.45,34.191-122.802c83.711-25.693,144.239-98.56,144.239-184.216c0-18.501-2.83-36.825-8.41-54.463    c-4.079-12.897-15.909-21.561-29.436-21.561H308.601c0.426-0.385,0.836-0.777,1.268-1.16c3.191-2.826,3.488-7.704,0.662-10.895    c-2.827-3.192-7.704-3.488-10.896-0.662c-4.742,4.2-9.044,8.45-12.965,12.717H83.182c-13.527,0-25.356,8.664-29.435,21.561    c-5.581,17.639-8.41,35.963-8.41,54.463c0,15.113,1.902,30.173,5.652,44.762c1.061,4.129,5.27,6.613,9.397,5.553    c4.129-1.061,6.615-5.268,5.553-9.397c-3.428-13.335-5.166-27.101-5.166-40.918c0-16.918,2.587-33.675,7.692-49.806    c2.04-6.449,7.954-10.781,14.718-10.781h190.962c-3.328,4.673-6.246,9.318-8.793,13.889H105.093    c-9.244,0-17.296,6.256-19.579,15.216c-3.027,11.877-4.561,24.123-4.561,36.395c0,88.154,78.526,159.871,175.047,159.871    s175.047-71.719,175.047-159.871c0-12.273-1.534-24.519-4.561-36.396c-2.285-8.959-10.336-15.215-19.579-15.215H283.359    c3.089-4.769,6.522-9.4,10.297-13.889h135.163c6.763,0,12.678,4.333,14.718,10.781c5.103,16.131,7.692,32.888,7.692,49.806    c0,98.521-87.579,178.674-195.227,178.674c-138.247,0-182.779-115.863-182.894-116.154c-1.546-3.968-6.016-5.938-9.987-4.392    c-3.974,1.544-5.943,6.016-4.4,9.99c0.221,0.569,32.961,85.111,131.036,116.056c0,0,34.01,24.247,34.01,123.644v51.756h-44.335    c-17.023,0-30.873,13.85-30.873,30.873s13.85,30.873,30.873,30.873H332.57c17.023,0,30.873-13.85,30.873-30.873    s-13.85-30.873-30.873-30.873h-93.366v-51.756c0-63.584-11.045-98.286-22.781-117.212c12.924,2.295,26.164,3.505,39.578,3.505    c13.516,0,26.733-1.193,39.548-3.446c-11.663,18.848-22.654,53.324-22.751,116.34V432.242z M406.907,59.422L406.907,59.422    c2.182-0.001,4.082,1.476,4.621,3.59c2.709,10.632,4.083,21.594,4.083,32.584c0,79.642-71.601,144.434-159.61,144.434    S96.39,175.237,96.39,95.595c0-10.988,1.374-21.952,4.083-32.583c0.539-2.115,2.44-3.592,4.621-3.592h152.832    c-4.566,11.188-7.103,21.546-8.469,30.326c-6.674,0.856-13.137,3.012-18.977,6.367c-3.697,2.123-4.972,6.841-2.849,10.537    c2.123,3.697,6.842,4.972,10.537,2.849c5.397-3.1,11.562-4.738,17.832-4.738c19.776,0,35.865,16.09,35.865,35.865    c0,19.776-16.09,35.865-35.865,35.865c-19.776,0-35.865-16.09-35.865-35.865c0-4.845,0.947-9.541,2.816-13.958    c1.66-3.926-0.176-8.454-4.102-10.115c-3.925-1.66-8.454,0.176-10.115,4.102c-2.678,6.329-4.034,13.049-4.034,19.971    c0,28.288,23.015,51.303,51.303,51.303s51.302-23.015,51.302-51.303c0-25.216-18.292-46.226-42.3-50.496    c0.453-2.573,1.019-5.288,1.729-8.127c1.948-7.789,4.642-15.318,8.044-22.582H406.907z M332.57,465.691    c8.511,0,15.436,6.925,15.436,15.436c0,8.511-6.925,15.436-15.436,15.436H179.431c-8.511,0-15.436-6.925-15.436-15.436    c0-8.511,6.925-15.436,15.436-15.436H332.57z"/>
	</g>
</g>
<g>
</g>
<g>
</g>
<g>
</g>
<g>
</g>
<g>
</g>
<g>
</g>
<g>
</g>
<g>
</g>
<g>
</g>
<g>
</g>
<g>
</g>
<g>
</g>
<g>
</g>
<g>
</g>
<g>
</g>
</svg>
