<?xml version="1.0" encoding="iso-8859-1"?>
<!-- Generator: Adobe Illustrator 19.0.0, SVG Export Plug-In . SVG Version: 6.00 Build 0)  -->
<svg xmlns="http://www.w3.org/2000/svg" xmlns:xlink="http://www.w3.org/1999/xlink" version="1.1" id="Capa_1" x="0px" y="0px" viewBox="0 0 511.999 511.999" style="enable-background:new 0 0 511.999 511.999;" xml:space="preserve">
<g>
	<g>
		<path d="M409.983,112.978c-3.278-4.546-8.579-7.259-14.181-7.259h-218.65c-5.604,0-10.906,2.715-14.182,7.262    c-3.278,4.55-4.174,10.44-2.398,15.752c2.701,8.092,6.881,16.875,12.425,26.102c18.54,30.865,52.939,67.504,102.241,108.903    c3.145,2.638,7.136,4.093,11.24,4.093c4.103,0,8.094-1.453,11.241-4.093c49.301-41.398,83.7-78.038,102.239-108.902    c5.547-9.233,9.728-18.016,12.425-26.101C414.157,123.419,413.261,117.531,409.983,112.978z M287.798,251.918    c-1.025,0.869-2.166,0.398-2.638,0.001c-37.995-31.902-66.761-60.693-85.864-85.892h85.035c1.677,5.447,5.087,10.137,9.576,13.442    c-0.531-0.037-1.066-0.063-1.606-0.063c-12.571,0-22.798,10.227-22.798,22.798s10.227,22.798,22.798,22.798    c12.571,0,22.798-10.227,22.798-22.798c0-7.2-3.359-13.627-8.589-17.809c0.965,0.108,1.939,0.183,2.932,0.183    c7.011,0,13.583-2.773,18.421-7.542c3.079,1.229,6.388,1.877,9.74,1.877c9.462,0,17.965-4.999,22.609-12.887h13.45    C354.558,191.225,325.635,219.831,287.798,251.918z M299.667,202.204c0,4.063-3.305,7.368-7.368,7.368    c-4.063,0-7.368-3.306-7.368-7.368s3.305-7.368,7.368-7.368C296.362,194.836,299.667,198.141,299.667,202.204z M397.747,123.848    c-2.341,7.019-12.525,25.504-13.314,26.749h-29.169c-3.353,0-6.322,2.166-7.346,5.359c-1.443,4.502-5.59,7.526-10.316,7.526    c-2.538,0-4.913-0.851-6.871-2.458c-1.788-1.469-4.141-2.056-6.413-1.604c-2.27,0.455-4.215,1.905-5.3,3.95    c-1.89,3.562-5.559,5.776-9.578,5.776c-5.976,0-10.837-4.861-10.837-10.837c0-4.261-3.453-7.715-7.715-7.715H188.523    c-0.79-1.246-10.969-19.723-13.315-26.752c-0.208-0.621-0.103-1.312,0.281-1.844c0.385-0.534,1.007-0.853,1.663-0.853h218.65    c0.657,0,1.28,0.319,1.662,0.85C397.85,122.533,397.955,123.223,397.747,123.848z"/>
	</g>
</g>
<g>
	<g>
		<path d="M334.605,84.914h-5.143c-4.262,0-7.715,3.454-7.715,7.715s3.453,7.715,7.715,7.715h5.143c4.262,0,7.715-3.454,7.715-7.715    S338.867,84.914,334.605,84.914z"/>
	</g>
</g>
<g>
	<g>
		<path d="M400.281,84.914h-40.475c-4.262,0-7.715,3.454-7.715,7.715s3.453,7.715,7.715,7.715h40.475    c4.262,0,7.715-3.454,7.715-7.715S404.543,84.914,400.281,84.914z"/>
	</g>
</g>
<g>
	<g>
		<path d="M331.396,189.027c-1.44-1.43-3.425-2.253-5.462-2.253c-2.026,0-4.012,0.823-5.452,2.253    c-1.44,1.44-2.263,3.425-2.263,5.462c0,2.026,0.823,4.012,2.263,5.452c1.44,1.44,3.425,2.263,5.452,2.263    c2.038,0,4.023-0.824,5.462-2.263c1.43-1.44,2.253-3.425,2.253-5.452C333.648,192.452,332.826,190.467,331.396,189.027z"/>
	</g>
</g>
<g>
	<g>
		<path d="M300.809,343.821c4.262,0,7.715-3.454,7.715-7.715v-53.992c52.927-44.515,90.04-84.19,110.35-118.001    c22.469-37.405,25.332-68.958,8.508-93.778c-4.306-6.353-11.458-10.145-19.132-10.145H229.823C221.324,25.638,190.159,0,152.983,0    c-43.717,0-79.156,35.44-79.156,79.156c0,42.943,34.204,77.875,76.851,79.098c1.075,1.938,2.192,3.889,3.376,5.86    c20.311,33.811,57.422,73.486,110.35,118.001v147.273c-0.036,6.018-1.75,36.033-32.04,36.033    c-12.841,0-23.289,10.448-23.289,23.289c0,12.841,10.447,23.289,23.289,23.289h108.2c12.841,0,23.289-10.448,23.289-23.289    c0-12.841-10.447-23.289-23.295-23.289c-28.975,0-31.851-27.18-32.034-35.645v-71.553c0-4.261-3.453-7.715-7.715-7.715    s-7.715,3.454-7.715,7.715v71.635c0,0.051,0.001,0.103,0.002,0.154c0.069,3.472,0.761,15.697,6.749,27.22    c5.597,10.775,17.205,23.619,40.72,23.619c4.334,0,7.86,3.526,7.86,7.86c0,4.334-3.526,7.86-7.86,7.86H232.365    c-4.334,0-7.86-3.526-7.86-7.86c0-4.334,3.526-7.86,7.86-7.86c37.229,0,47.355-32.291,47.469-51.416V292.541    c2.141,0.642,4.37,0.996,6.629,0.996c2.26,0,4.49-0.353,6.631-0.996v43.567C293.094,340.367,296.548,343.821,300.809,343.821z     M211.604,54.229c0.828,1.94,1.559,3.93,2.194,5.963h-12.525L211.604,54.229z M203.87,40.877l-29.814,17.209l17.215-29.817    C196.033,31.865,200.278,36.11,203.87,40.877z M152.982,15.43c8.849,0,17.281,1.817,24.945,5.092l-24.643,42.681    c-0.505,0.286-1,0.59-1.483,0.914l-23.772-43.594C135.698,17.247,144.131,15.43,152.982,15.43z M94.358,104.095    c-3.274-7.665-5.102-16.09-5.102-24.939c0-8.857,1.821-17.295,5.1-24.967l5.183,2.994c1.216,0.703,2.543,1.037,3.852,1.037    c2.665,0,5.257-1.384,6.687-3.856c2.131-3.689,0.869-8.408-2.821-10.539l-5.161-2.982c3.588-4.753,7.825-8.99,12.579-12.578    l15.801,28.977l-4.492-2.596c-3.691-2.132-8.409-0.869-10.54,2.82c-2.131,3.689-0.869,8.408,2.819,10.539l19.294,11.15    L94.358,104.095z M102.096,117.443l29.81-17.21l-17.209,29.807C109.933,126.448,105.691,122.206,102.096,117.443z     M128.045,137.779l8.632-14.951c1.338,6.188,3.381,12.599,6.127,19.226C137.652,141.224,132.708,139.77,128.045,137.779z     M291.359,276.344c-1.374,1.137-3.113,1.762-4.896,1.762c-1.782,0-3.521-0.625-4.895-1.763    c-55.5-45.889-93.951-86.322-114.287-120.174c-19.103-31.801-22.119-57.767-8.964-77.175c1.432-2.112,3.809-3.373,6.36-3.373    H408.25c2.55,0,4.928,1.261,6.36,3.373c13.155,19.409,10.14,45.374-8.963,77.175C385.312,190.021,346.86,230.453,291.359,276.344z    "/>
	</g>
</g>
<g>
</g>
<g>
</g>
<g>
</g>
<g>
</g>
<g>
</g>
<g>
</g>
<g>
</g>
<g>
</g>
<g>
</g>
<g>
</g>
<g>
</g>
<g>
</g>
<g>
</g>
<g>
</g>
<g>
</g>
</svg>
