<?xml version="1.0" encoding="iso-8859-1"?>
<!-- Generator: Adobe Illustrator 19.0.0, SVG Export Plug-In . SVG Version: 6.00 Build 0)  -->
<svg xmlns="http://www.w3.org/2000/svg" xmlns:xlink="http://www.w3.org/1999/xlink" version="1.1" id="Capa_1" x="0px" y="0px" viewBox="0 0 511.999 511.999" style="enable-background:new 0 0 511.999 511.999;" xml:space="preserve">
<g>
	<g>
		<path d="M343.264,404.22c-4.195-0.225-7.777,2.99-8.003,7.183l-0.317,5.889c-0.538,8.014,7.461,8.014,7.6,8.014    c4.011,0,7.368-3.141,7.586-7.194l0.317-5.89C350.672,408.029,347.457,404.446,343.264,404.22z"/>
	</g>
</g>
<g>
	<g>
		<path d="M338.676,125.595c-2.979-3.146-7.174-4.951-11.508-4.951H184.832c-4.333,0-8.529,1.805-11.508,4.95    c-2.981,3.147-4.557,7.434-4.323,11.76l17.581,325.307c0.455,8.41,7.409,14.997,15.83,14.997h107.172    c8.422,0,15.376-6.588,15.83-14.997l17.583-325.309C343.232,133.026,341.657,128.741,338.676,125.595z M248.903,187.938    c-10.813,13.394-27.787,17.28-33.609,18.25c-1.404-14.838,1.725-27.114,9.314-36.515c10.819-13.403,27.789-17.283,33.609-18.251    C259.62,166.259,256.492,178.536,248.903,187.938z M198.01,392.285L184.188,136.53c-0.005-0.087,35.822-0.131,71.689-0.131    c-7.8,1.288-29.02,6.275-43.104,23.722c-10.625,13.164-14.781,29.991-12.349,50.014c0.422,3.48,2.175,6.586,4.931,8.747    c2.299,1.801,5.171,2.792,8.087,2.793c0.4,0,0.803-0.018,1.208-0.056c2.624-0.241,23.813-2.647,40.324-17.976    c-0.782,9.649-0.243,25.268,8.199,39.926c-2.403-2.525-5.788-4.082-9.497-4.082c-0.401,0-0.804,0.018-1.204,0.056    c-1.173,0.107-28.932,2.875-46.09,24.13c-10.625,13.164-14.781,29.991-12.349,50.014c0.422,3.48,2.175,6.586,4.932,8.747    c2.299,1.801,5.171,2.792,8.087,2.793c0.401,0,0.802-0.018,1.208-0.056c2.625-0.241,23.82-2.65,40.33-17.983    c-0.686,8.537-0.336,21.758,5.594,34.847C254.185,342.035,198.726,391.303,198.01,392.285z M280.506,339.054    c2.805,2.753,5.025,6.004,5.025,6.004c3.828,6.253,5.683,13.277,5.562,20.687l-29.668-9.808L280.506,339.054z M264.352,303.553    c9.086,2.116,16.655,5.599,22.643,10.404c-1.45,0.671-2.83,1.552-4.086,2.663l-16.597,14.685    C262.442,319.598,263.63,308.089,264.352,303.553z M292.682,329.221c-0.157-0.177-0.326-0.338-0.484-0.513l0.787-0.697    c0.683-0.603,1.727-0.538,2.332,0.143c10.016,11.319,15.023,25.886,14.1,41.019c-0.924,15.132-7.667,28.98-18.986,38.995    c-6.103,5.4-13.169,9.334-20.757,11.678c0.936-1.374,1.821-2.777,2.629-4.222c5.599-2.253,10.916-5.477,15.695-9.705    C310.474,386.034,312.57,351.695,292.682,329.221z M279.669,377.985l8.191,2.708c0.028,0.009,0.057,0.012,0.085,0.021    c-1.987,4.621-4.87,8.838-8.544,12.436C279.971,388.336,280.065,383.281,279.669,377.985z M255.068,414.066    c-10.821,13.404-27.788,17.284-33.61,18.252c-1.403-14.838,1.726-27.115,9.314-36.516c10.812-13.393,27.789-17.28,33.61-18.25    C265.786,392.39,262.657,404.665,255.068,414.066z M242.512,291.489c-10.813,13.394-27.79,17.28-33.61,18.25    c-1.404-14.838,1.725-27.114,9.314-36.515c10.821-13.404,27.789-17.284,33.61-18.252    C253.229,269.811,250.1,282.088,242.512,291.489z M310.23,461.839H201.769l-2.613-48.339c2.16,2.428,4.487,4.715,6.948,6.826    c-0.34,5.062-0.192,10.372,0.484,15.939c0.422,3.48,2.175,6.586,4.932,8.747c2.299,1.801,5.17,2.792,8.084,2.792    c0,0,14.596,1.335,31.121-10.282c0.745,0.022,30.927,0.971,49.782-17.965c4.716-4.735,9.285-9.456,12.813-14.927L310.23,461.839z     M317.164,333.545c-0.538-1.074-1.104-2.135-1.697-3.184c-0.062-0.338-0.138-0.674-0.247-1.01    c-1.587-4.848-3.736-9.409-6.385-13.557c-9.107-14.257-23.744-23.541-43.502-27.594c-1.032-0.212-2.057-0.285-3.065-0.255    c4.621-10.664,6.115-23.02,4.427-36.921c-0.139-1.139-0.43-2.224-0.836-3.248c9.172,13.167,23.349,21.807,42.202,25.675    c0.868,0.178,1.757,0.269,2.641,0.269c2.571,0,5.066-0.749,7.219-2.169c1.027-0.677,1.94-1.488,2.725-2.4L317.164,333.545z     M270.742,200.003c14.514,3.381,25.162,10.247,31.666,20.429c9.271,14.514,7.561,31.837,6.631,37.667    c-14.515-3.381-25.162-10.248-31.666-20.429C268.102,223.155,269.812,205.831,270.742,200.003z M322.777,229.704    c-1.498-5.742-3.877-11.704-7.553-17.459c-9.106-14.257-23.744-23.541-43.502-27.594c-0.869-0.178-1.758-0.269-2.642-0.269    c-0.143,0-0.282,0.013-0.423,0.018c4.623-10.665,5.941-23.001,4.429-36.924c-0.785-7.225-4.549-10.037-8.008-11.075    c32.641,0.007,62.742,0.051,62.738,0.131L322.777,229.704z"/>
	</g>
</g>
<g>
	<g>
		<path d="M360.886,101.573c-3.819-4.03-9.193-6.341-14.744-6.341H193.439l-3.455-74.686c-0.13-2.809,2.051-5.201,4.877-5.333    c1.359-0.063,4.785,0.585,5.316,4.861l2.444,52.83c0.194,4.195,3.756,7.435,7.948,7.245c4.195-0.195,7.439-3.752,7.245-7.948    l-2.444-52.83c-0.251-5.428-2.605-10.432-6.627-14.09c-4.014-3.652-9.206-5.519-14.599-5.259    c-11.187,0.518-19.868,10.04-19.351,21.226l3.423,73.983h-12.359c-5.551,0-10.924,2.312-14.745,6.342    c-3.817,4.03-5.835,9.52-5.536,15.063l20.33,376.147c0.582,10.774,9.49,19.214,20.279,19.214h139.628    c10.789,0,19.697-8.439,20.279-19.214l2.82-52.165c0.227-4.193-2.989-7.776-7.182-8.003c-4.203-0.227-7.778,2.989-8.004,7.182    l-2.82,52.165c-0.147,2.706-2.384,4.827-5.093,4.827H186.186c-2.71,0-4.947-2.12-5.093-4.827l-20.33-376.147    c-0.075-1.393,0.432-2.772,1.39-3.784c0.959-1.013,2.31-1.594,3.704-1.594h180.284c1.394,0,2.745,0.581,3.703,1.593    c0.959,1.013,1.466,2.392,1.391,3.784l-14.784,273.576c-0.227,4.193,2.989,7.776,7.183,8.003c4.178,0.213,7.776-2.989,8.003-7.182    l14.785-273.575C366.721,111.094,364.703,105.604,360.886,101.573z"/>
	</g>
</g>
<g>
</g>
<g>
</g>
<g>
</g>
<g>
</g>
<g>
</g>
<g>
</g>
<g>
</g>
<g>
</g>
<g>
</g>
<g>
</g>
<g>
</g>
<g>
</g>
<g>
</g>
<g>
</g>
<g>
</g>
</svg>
