<?xml version="1.0" encoding="iso-8859-1"?>
<!-- Generator: Adobe Illustrator 19.0.0, SVG Export Plug-In . SVG Version: 6.00 Build 0)  -->
<svg xmlns="http://www.w3.org/2000/svg" xmlns:xlink="http://www.w3.org/1999/xlink" version="1.1" id="Capa_1" x="0px" y="0px" viewBox="0 0 512 512" style="enable-background:new 0 0 512 512;" xml:space="preserve">
<g>
	<g>
		<path d="M362.577,105.6c-0.27-4.253-3.939-7.475-8.193-7.211c-4.254,0.272-7.483,3.941-7.211,8.195    c0.117,1.842,0.177,3.7,0.177,5.519c0,39.277-26.521,73.748-64.495,83.824l-11.645,3.089c-3.216,0.853-5.523,3.672-5.725,6.994    l-0.728,12.027c-1.056,17.461-15.584,31.138-33.075,31.138h-7.964c-17.49,0-32.018-13.677-33.074-31.138l-0.729-12.027    c-0.201-3.322-2.509-6.141-5.725-6.994l-11.645-3.089c-37.973-10.076-64.494-44.546-64.494-83.823c0-1.824,0.06-3.68,0.178-5.518    c0.273-4.254-2.955-7.924-7.209-8.197c-4.251-0.261-7.923,2.955-8.197,7.209c-0.139,2.165-0.209,4.354-0.209,6.506    c0,46.269,31.241,86.874,75.973,98.743l6.256,1.66l0.391,6.461c1.547,25.594,22.844,45.643,48.483,45.643h7.964    c25.64,0,46.936-20.049,48.484-45.643l0.391-6.461l6.257-1.66c44.731-11.87,75.971-52.476,75.971-98.745    C362.786,109.956,362.716,107.768,362.577,105.6z"/>
	</g>
</g>
<g>
	<g>
		<path d="M180.971,113.774c-1.441-1.43-3.427-2.254-5.465-2.254c-2.027,0-4.014,0.823-5.454,2.254    c-1.441,1.441-2.264,3.427-2.264,5.465c0,2.027,0.823,4.014,2.264,5.454s3.427,2.264,5.454,2.264c2.039,0,4.024-0.823,5.465-2.264    c1.43-1.441,2.254-3.427,2.254-5.454C183.225,117.201,182.402,115.215,180.971,113.774z"/>
	</g>
</g>
<g>
	<g>
		<path d="M185.564,158.849c-1.441-1.43-3.427-2.254-5.465-2.254c-2.027,0-4.014,0.823-5.454,2.254    c-1.441,1.441-2.264,3.427-2.264,5.465c0,2.027,0.823,4.014,2.264,5.454s3.427,2.264,5.454,2.264c2.039,0,4.024-0.823,5.465-2.264    c1.43-1.441,2.254-3.427,2.254-5.454C187.818,162.276,186.995,160.289,185.564,158.849z"/>
	</g>
</g>
<g>
	<g>
		<path d="M227.567,180.073c-1.441-1.43-3.427-2.254-5.465-2.254c-2.027,0-4.014,0.823-5.454,2.254    c-1.441,1.441-2.264,3.427-2.264,5.465c0,2.027,0.823,4.014,2.264,5.454c1.441,1.441,3.427,2.264,5.454,2.264    c2.039,0,4.025-0.823,5.465-2.264c1.431-1.441,2.254-3.427,2.254-5.454C229.821,183.5,228.997,181.513,227.567,180.073z"/>
	</g>
</g>
<g>
	<g>
		<path d="M219.848,135.005c-1.441-1.43-3.427-2.254-5.465-2.254c-2.027,0-4.014,0.823-5.454,2.254    c-1.441,1.441-2.264,3.427-2.264,5.465c0,2.027,0.823,4.014,2.264,5.454s3.427,2.264,5.454,2.264c2.039,0,4.025-0.824,5.465-2.264    c1.43-1.441,2.254-3.427,2.254-5.454C222.102,138.432,221.279,136.446,219.848,135.005z"/>
	</g>
</g>
<g>
	<g>
		<path d="M267.671,130.285c-1.441-1.431-3.427-2.254-5.465-2.254c-2.027,0-4.014,0.823-5.455,2.254    c-1.441,1.441-2.264,3.427-2.264,5.465c0,2.027,0.823,4.014,2.264,5.454c1.441,1.441,3.427,2.264,5.455,2.264    c2.038,0,4.024-0.824,5.465-2.264c1.431-1.441,2.254-3.427,2.254-5.454C269.924,133.712,269.101,131.726,267.671,130.285z"/>
	</g>
</g>
<g>
	<g>
		<path d="M308.962,149.395c-3.143-2.882-8.025-2.672-10.906,0.469c-7.226,7.875-16.497,13.484-26.812,16.221    c-4.12,1.094-6.353,5.267-5.48,9.44c1.602,7.662,8.777,5.656,9.44,5.481c13.17-3.495,25.005-10.655,34.227-20.706    C312.314,157.159,312.103,152.277,308.962,149.395z"/>
	</g>
</g>
<g>
	<g>
		<path d="M320.169,122.201c-4.093-1.177-8.372,1.188-9.55,5.285c-0.283,0.986-1.053,3.144-2.008,5.63    c-1.528,3.979,0.473,8.405,4.438,9.972c5.763,2.279,8.794-1.368,9.972-4.437c0.816-2.124,1.9-5.046,2.434-6.899    C326.632,127.655,324.266,123.379,320.169,122.201z"/>
	</g>
</g>
<g>
	<g>
		<path d="M368.927,0c-30.972,0-57.764,17.793-70.779,43.704c-0.155-0.003-0.31-0.014-0.465-0.014    c-4.146,0-8.132,1.036-11.663,2.987c-3.532-1.95-7.519-2.987-11.664-2.987c-4.146,0-8.132,1.036-11.663,2.987    c-3.531-1.95-7.517-2.987-11.663-2.987c-4.146,0-8.132,1.036-11.663,2.987c-3.531-1.95-7.517-2.987-11.663-2.987    s-8.132,1.036-11.663,2.987c-3.531-1.95-7.517-2.987-11.663-2.987c-4.146,0-8.132,1.036-11.663,2.987    c-3.531-1.95-7.517-2.987-11.663-2.987s-8.132,1.036-11.663,2.987c-3.531-1.95-7.517-2.987-11.663-2.987    c-4.146,0-8.132,1.036-11.663,2.987c-3.531-1.95-7.517-2.987-11.663-2.987s-8.132,1.036-11.663,2.987    c-3.531-1.95-7.517-2.987-11.663-2.987c-4.146,0-8.132,1.036-11.663,2.987c-3.531-1.95-7.517-2.987-11.663-2.987    c-3.018,0-5.967,0.552-8.765,1.639c-3.973,1.545-5.94,6.018-4.396,9.991c1.545,3.973,6.017,5.94,9.991,4.396    c1.006-0.391,4.148-2.599,9.365,1.985c1.542,1.354,3.416,2.271,5.468,2.271s4.02-0.817,5.468-2.271    c1.654-1.66,3.854-2.574,6.197-2.574c2.341,0,4.542,0.914,6.195,2.574c1.448,1.454,3.416,2.271,5.468,2.271    s4.02-0.817,5.468-2.271c1.654-1.66,3.854-2.574,6.197-2.574s4.542,0.914,6.196,2.574c1.448,1.454,3.416,2.271,5.468,2.271    s4.02-0.817,5.468-2.271c1.654-1.66,3.854-2.574,6.195-2.574s4.542,0.914,6.196,2.574c1.448,1.454,3.416,2.271,5.468,2.271    c2.052,0,4.02-0.817,5.468-2.271c1.654-1.66,3.854-2.574,6.196-2.574c2.341,0,4.542,0.914,6.195,2.574    c1.448,1.454,3.416,2.271,5.468,2.271s4.02-0.817,5.468-2.271c1.654-1.66,3.854-2.574,6.196-2.574s4.542,0.914,6.197,2.574    c1.448,1.454,3.416,2.271,5.468,2.271s4.02-0.817,5.468-2.271c1.654-1.66,3.854-2.574,6.195-2.574    c2.341,0,4.542,0.914,6.196,2.574c1.448,1.454,3.416,2.271,5.468,2.271s4.02-0.817,5.468-2.271    c1.654-1.66,3.854-2.574,6.197-2.574c2.341,0,4.542,0.914,6.195,2.574c1.448,1.454,3.416,2.271,5.468,2.271    s4.02-0.817,5.468-2.271c1.653-1.66,3.854-2.574,6.195-2.574s4.543,0.915,6.196,2.575c1.448,1.454,3.416,2.27,5.468,2.27    c2.051,0,4.019-0.817,5.468-2.271c1.653-1.66,3.853-2.574,6.195-2.574c2.342,0,4.543,0.915,6.197,2.575    c1.448,1.454,3.416,2.27,5.468,2.27c2.051,0,4.019-0.817,5.468-2.271c1.653-1.66,3.853-2.574,6.195-2.574    c2.341,0,4.542,0.914,6.195,2.574c1.448,1.454,3.416,2.271,5.468,2.271c0.001,0,0.001,0,0.001,0c2.052,0,4.019-0.817,5.468-2.27    c1.654-1.66,3.855-2.575,6.196-2.575c2.341,0,4.543,0.915,6.197,2.575c1.448,1.454,3.416,2.27,5.468,2.27    c2.051,0,4.019-0.817,5.468-2.271c1.653-1.66,3.853-2.574,6.195-2.574c4.824,0,8.748,3.924,8.748,8.748s-3.924,8.748-8.748,8.748    c-2.341,0-4.542-0.914-6.195-2.574c-1.448-1.454-3.416-2.271-5.468-2.271c-0.001,0-0.001,0-0.001,0    c-2.051,0-4.019,0.816-5.468,2.27c-1.654,1.66-3.855,2.575-6.197,2.575c-2.34,0-4.542-0.915-6.196-2.575    c-1.448-1.453-3.416-2.27-5.468-2.27c-2.051,0-4.019,0.817-5.468,2.271c-1.653,1.66-3.853,2.574-6.195,2.574    c-2.341,0-4.542-0.914-6.195-2.574c-1.448-1.454-3.416-2.271-5.468-2.271c-0.001,0-0.001,0-0.001,0    c-2.051,0-4.019,0.816-5.468,2.27c-1.654,1.66-3.855,2.575-6.197,2.575c-2.341,0-4.542-0.914-6.195-2.574    c-1.448-1.454-3.416-2.271-5.468-2.271c-0.001,0-0.001,0-0.001,0c-2.051,0-4.019,0.816-5.468,2.27    c-1.654,1.66-3.855,2.575-6.196,2.575s-4.542-0.914-6.196-2.574c-1.448-1.453-3.416-2.27-5.468-2.27    c-2.052,0-4.019,0.817-5.468,2.27c-1.654,1.66-3.855,2.574-6.196,2.574s-4.543-0.914-6.196-2.574    c-1.448-1.453-3.416-2.27-5.468-2.27c-2.052,0-4.019,0.817-5.468,2.27c-1.654,1.66-3.855,2.574-6.196,2.574    s-4.542-0.914-6.196-2.574c-1.448-1.453-3.416-2.27-5.468-2.27c-2.052,0-4.019,0.817-5.468,2.27    c-1.654,1.66-3.855,2.574-6.196,2.574s-4.543-0.914-6.196-2.574c-1.448-1.453-3.416-2.27-5.468-2.27    c-2.052,0-4.019,0.817-5.468,2.27c-1.654,1.66-3.855,2.574-6.196,2.574s-4.543-0.914-6.196-2.574    c-1.448-1.453-3.416-2.27-5.468-2.27c-2.052,0-4.019,0.817-5.468,2.27c-1.654,1.66-3.855,2.574-6.196,2.574    s-4.542-0.914-6.196-2.574c-1.448-1.453-3.416-2.27-5.468-2.27c-2.052,0-4.019,0.817-5.468,2.27    c-1.654,1.66-3.855,2.574-6.196,2.574s-4.543-0.914-6.196-2.574c-1.448-1.453-3.416-2.27-5.468-2.27    c-2.052,0-4.019,0.817-5.468,2.27c-1.654,1.66-3.855,2.574-6.196,2.574s-4.543-0.914-6.196-2.574    c-1.448-1.453-3.416-2.27-5.468-2.27c-2.052,0-4.019,0.817-5.468,2.27c-1.654,1.66-3.855,2.574-6.196,2.574    c-4.138,0-7.742-2.934-8.57-6.977c-0.854-4.175-4.93-6.872-9.109-6.014c-4.176,0.854-6.87,4.933-6.014,9.109    c1.056,5.159,3.754,9.652,7.463,13.013c-0.101,0.385-2.516,12.62-2.6,24.949c-0.37,54.479,35.607,102.504,87.238,118.615    c3.915,27.54,24.274,49.603,50.552,56.324v52.177c0,4.263,3.456,7.719,7.719,7.719c4.263,0,7.719-3.456,7.719-7.719v-50.081    c0.464,0.009,10.669,0.009,11.133,0v147.613c0,0.051,0,0.104,0.001,0.154c0.065,3.248,0.713,14.681,6.315,25.463    c5.258,10.12,16.156,22.184,38.222,22.184c3.698,0,6.706,3.008,6.706,6.706s-3.008,6.706-6.706,6.706H177.591    c-3.698,0-6.706-3.008-6.706-6.706s3.008-6.706,6.706-6.706c34.927,0,44.429-30.264,44.538-48.194v-74.756    c0-4.263-3.456-7.719-7.719-7.719c-4.263,0-7.719,3.456-7.719,7.719v74.71c-0.033,5.478-1.592,32.803-29.101,32.803    c-12.21,0-22.143,9.933-22.143,22.143S165.382,512,177.591,512h100.211c12.209,0,22.143-9.933,22.143-22.143    s-9.933-22.143-22.149-22.143c-26.309,0-28.927-24.732-29.095-32.446V285.64c26.277-6.72,46.637-28.783,50.552-56.324    c35.901-11.203,64.038-37.844,77.86-71.347c39.89-4.099,71.005-37.803,71.005-78.775C448.122,35.457,412.666,0,368.927,0z     M290.13,215.887c-3.216,0.853-5.523,3.672-5.725,6.994c-1.678,27.728-24.751,49.449-52.528,49.449h-8.352    c-27.778,0-50.85-21.72-52.528-49.448c-0.201-3.322-2.509-6.141-5.725-6.994c-47.649-12.644-80.928-55.898-80.928-105.187    c0-6.259,0.553-12.545,1.635-18.719c0.583,0.043,7.882,0.813,13.421-2.908c3.532,1.95,7.517,2.987,11.663,2.987    s8.132-1.036,11.663-2.987c3.532,1.95,7.517,2.987,11.663,2.987c4.146,0,8.132-1.036,11.663-2.987    c3.531,1.95,7.517,2.987,11.663,2.987s8.132-1.036,11.663-2.987c3.532,1.95,7.517,2.987,11.663,2.987    c4.146,0,8.132-1.036,11.663-2.987c3.532,1.95,7.517,2.987,11.663,2.987s8.132-1.036,11.663-2.987    c3.531,1.95,7.517,2.987,11.663,2.987s8.132-1.036,11.663-2.987c3.532,1.95,7.517,2.987,11.663,2.987s8.132-1.036,11.663-2.987    c3.531,1.95,7.517,2.987,11.663,2.987c4.146,0,8.132-1.036,11.664-2.987c3.531,1.95,7.517,2.987,11.663,2.987    c4.146,0,8.132-1.036,11.664-2.987c3.531,1.95,7.517,2.987,11.663,2.987c4.146,0,8.132-1.036,11.663-2.987    c3.532,1.95,7.518,2.987,11.663,2.987c4.146,0,8.132-1.036,11.664-2.987c3.531,1.95,7.517,2.987,11.663,2.987    c0.592,0,1.176-0.029,1.758-0.071c1.083,6.176,1.635,12.46,1.635,18.712C371.059,159.989,337.779,203.243,290.13,215.887z     M419.856,40.887l-29.847,17.23l17.232-29.846C412.01,31.867,416.261,36.118,419.856,40.887z M332.674,46.676    c-3.531-1.95-7.517-2.987-11.663-2.987c-1.838,0-3.641,0.215-5.391,0.611c4.047-6.164,9.126-11.588,14.999-16.021l9.144,15.839    C337.271,44.594,334.884,45.456,332.674,46.676z M367.665,43.689c-3.234,0-6.365,0.638-9.263,1.84l-14.433-24.998    c7.668-3.278,16.103-5.094,24.957-5.094c8.854,0,17.289,1.817,24.959,5.093l-14.977,25.942    C375.547,44.699,371.722,43.689,367.665,43.689z M382.615,141.442c1.47-5.742,2.528-11.628,3.163-17.622l8.094,14.019    C390.276,139.373,386.513,140.585,382.615,141.442z M407.232,130.103l-17.234-29.849l29.85,17.237    C416.25,122.259,412.002,126.507,407.232,130.103z M387.845,81.184c1.135-1.716,2.055-3.583,2.727-5.566l37.025-21.373    c3.274,7.667,5.089,16.101,5.089,24.951c0,8.849-1.824,17.273-5.096,24.938L387.845,81.184z"/>
	</g>
</g>
<g>
</g>
<g>
</g>
<g>
</g>
<g>
</g>
<g>
</g>
<g>
</g>
<g>
</g>
<g>
</g>
<g>
</g>
<g>
</g>
<g>
</g>
<g>
</g>
<g>
</g>
<g>
</g>
<g>
</g>
</svg>
