<?xml version="1.0" encoding="iso-8859-1"?>
<!-- Generator: Adobe Illustrator 19.0.0, SVG Export Plug-In . SVG Version: 6.00 Build 0)  -->
<svg xmlns="http://www.w3.org/2000/svg" xmlns:xlink="http://www.w3.org/1999/xlink" version="1.1" id="Capa_1" x="0px" y="0px" viewBox="0 0 512 512" style="enable-background:new 0 0 512 512;" xml:space="preserve">
<g>
	<g>
		<path d="M351.813,146.643c-3.747-4.143-9.098-6.517-14.684-6.517H76.942c-5.584,0-10.936,2.375-14.683,6.518    c-3.745,4.142-5.573,9.704-5.013,15.261l29.587,293.909c1.022,10.156,9.49,17.813,19.697,17.813h201.014    c10.206,0,18.674-7.658,19.697-17.813l29.586-293.908C357.387,156.348,355.56,150.785,351.813,146.643z M312.109,454.29    c-0.237,2.354-2.199,4.129-4.565,4.129H106.53c-2.365,0-4.329-1.774-4.565-4.128L77.419,210.468H99.25    c0.004,8.739,3.907,17.63,14.48,23.342c-0.001,0.106-0.002,0.214-0.002,0.32c0,15.746,12.81,28.557,28.556,28.557    c13.408,0,24.687-9.288,27.741-21.768c12.481-3.054,21.768-14.334,21.768-27.741c0-0.906-0.044-1.811-0.13-2.709h29.812    c3.338,12.067,14.415,20.953,27.529,20.953c4.203,0,8.277-0.908,12.019-2.66c4.411,2.663,9.474,4.092,14.701,4.092    c10.771,0,17.203-4.462,20.701-8.206c4.162-4.454,6.115-9.824,7.021-14.178h33.204L312.109,454.29z M338.184,195.261h-41.577    c-2.106,0-4.117,0.873-5.555,2.412c-1.404,1.503-2.138,3.508-2.04,5.558c0.056,1.974,0,8.349-3.816,11.158    c-7.633,5.621-16.038,1.987-18.522-0.315c-2.69-2.492-6.775-2.71-9.715-0.518c-2.33,1.738-5.08,2.656-7.954,2.656    c-7.361,0-13.349-5.988-13.349-13.349c0-4.199-3.404-7.604-7.604-7.604h-46.59c-2.706,0-5.209,1.439-6.571,3.778    c-1.362,2.338-1.378,5.224-0.043,7.579c1.153,2.032,1.737,4.24,1.737,6.562c0,7.361-5.989,13.349-13.349,13.349    c-4.199,0-7.604,3.405-7.604,7.604c0,7.361-5.988,13.349-13.349,13.349s-13.348-5.989-13.348-13.349    c0-1.025,0.132-2.062,0.401-3.171c0.922-3.778-1.156-7.642-4.815-8.957c-3.223-1.159-13.03-4.685-9.221-16.726l0.045-0.143    c0.722-2.309,0.302-4.823-1.13-6.773c-1.433-1.949-3.708-3.1-6.127-3.1h-32.2l-3.511-34.879c-0.13-1.288,0.294-2.577,1.162-3.536    c0.868-0.96,2.109-1.511,3.404-1.511H337.13c1.295,0,2.535,0.551,3.404,1.511c0.868,0.959,1.291,2.249,1.162,3.537    L338.184,195.261z"/>
	</g>
</g>
<g>
	<g>
		<path d="M262.17,329.946c-3.188-2.734-7.989-2.365-10.721,0.823c-2.733,3.188-2.365,7.988,0.823,10.721    c6.409,5.495,10.084,13.482,10.084,21.913c0,30.173-24.548,54.722-54.723,54.722s-54.723-24.548-54.723-54.722    c0-15.908,12.943-28.851,28.851-28.851c7.742,0,15.013,3.03,20.474,8.534c1.428,1.439,3.37,2.248,5.397,2.248    c0.003,0,0.006,0,0.008,0v0.001c3.346,0,5.349-2.208,5.388-2.248c5.461-5.503,12.732-8.534,20.474-8.534    c4.199,0,7.604-3.404,7.604-7.604s-3.404-7.604-7.604-7.604c-6.191,0-12.179,1.275-17.682,3.688    c0.143-12.579-0.367-32.109-3.44-55.803c-0.54-4.164-4.35-7.106-8.518-6.563c-4.164,0.54-7.103,4.353-6.563,8.518    c3.002,23.143,3.441,42.354,3.285,54.365c-5.81-2.752-12.203-4.207-18.824-4.207c-24.294,0-44.059,19.765-44.059,44.059    c0,38.559,31.371,69.93,69.93,69.93s69.931-31.371,69.931-69.93C277.563,350.529,271.953,338.333,262.17,329.946z"/>
	</g>
</g>
<g>
	<g>
		<path d="M300.014,344.759c-4.174-0.418-7.906,2.626-8.327,6.804l-3.536,35.132c-0.421,4.178,2.626,7.902,6.804,8.327    c5.038,0.512,7.933-2.885,8.327-6.804l3.536-35.132C307.239,348.907,304.194,345.18,300.014,344.759z"/>
	</g>
</g>
<g>
	<g>
		<path d="M294.066,403.845c-4.179-0.411-7.906,2.627-8.327,6.805l-0.488,4.852c-0.42,4.178,2.642,7.774,6.805,8.327    c4.515,0.599,7.931-2.885,8.327-6.805l0.488-4.852C301.291,407.994,298.245,404.266,294.066,403.845z"/>
	</g>
</g>
<g>
	<g>
		<path d="M261.051,239.652c-15.747,0-28.557,12.81-28.557,28.557c0,15.747,12.811,28.557,28.557,28.557    c15.747,0,28.557-12.81,28.557-28.557C289.608,252.462,276.798,239.652,261.051,239.652z M261.051,281.559    c-7.362,0-13.349-5.988-13.349-13.349c0-7.362,5.989-13.349,13.349-13.349c7.362,0,13.349,5.988,13.349,13.349    S268.413,281.559,261.051,281.559z"/>
	</g>
</g>
<g>
	<g>
		<path d="M294.992,293.889c-1.419-1.409-3.376-2.22-5.384-2.22c-1.997,0-3.954,0.811-5.373,2.22    c-1.419,1.419-2.23,3.376-2.23,5.384c0,1.997,0.811,3.954,2.23,5.373c1.419,1.419,3.376,2.231,5.373,2.231    c2.008,0,3.964-0.811,5.384-2.231c1.409-1.419,2.22-3.376,2.22-5.373C297.212,297.265,296.401,295.308,294.992,293.889z"/>
	</g>
</g>
<g>
	<g>
		<path d="M140.886,289.986c-1.419-1.409-3.376-2.22-5.384-2.22c-1.997,0-3.954,0.811-5.373,2.22    c-1.419,1.419-2.23,3.376-2.23,5.384c0,1.997,0.811,3.954,2.23,5.373c1.419,1.419,3.376,2.23,5.373,2.23    c2.008,0,3.964-0.811,5.384-2.23c1.409-1.419,2.22-3.376,2.22-5.373C143.106,293.363,142.295,291.406,140.886,289.986z"/>
	</g>
</g>
<g>
	<g>
		<path d="M489.687,105.417c-1.065-4.063-5.334-6.401-9.376-5.267c-4.043,1.135-6.401,5.332-5.267,9.376    c4.387,15.634,13.252,68.831-32.499,117.06c-2.596,2.737-6.347,3.712-9.814,3.155c51.193-51.299,37.978-110.889,37.978-110.889    c-0.015-0.057-3.714-32.687-32.693-61.943c-17.407-17.573-39.126-28.367-61.773-32.638c-0.057-0.017-0.112-0.04-0.169-0.055    c-0.488-0.131-0.976-0.208-1.462-0.24c-36.819-6.417-76.105,4.557-104.481,32.933c-1.909,1.91-3.747,3.898-5.526,5.935    c-1.228-3.899-0.306-8.335,2.778-11.42c23.355-23.355,54.458-36.217,87.582-36.217c33.124,0,64.228,12.862,87.582,36.216    c10.159,10.159,18.384,21.848,24.45,34.742c1.787,3.8,6.317,5.431,10.117,3.644c3.8-1.787,5.431-6.317,3.644-10.117    c-6.815-14.489-16.053-27.617-27.458-39.022C427.074,14.444,392.15,0,354.964,0c-37.185,0-72.108,14.444-98.335,40.671    c-10.343,10.344-10.343,27.174,0,37.517l11.516,11.516c1.484,1.484,5.553,4.588,10.753,0c3.149-2.778,2.97-7.784,0-10.753    l-4.342-4.341c2.006-2.403,4.113-4.733,6.326-6.947c22.835-22.835,53.773-32.744,83.644-29.737l-17.103,63.828H44.761    c-7.483,0-14.655,3.184-19.677,8.735c-5.02,5.551-7.468,13.005-6.719,20.45l35.957,357.189C55.692,501.737,67.039,512,80.718,512    h252.637c13.678,0,25.026-10.263,26.396-23.871l28.061-278.759l27.971,27.971c5.173,5.173,11.964,7.757,18.758,7.757    c6.793,0,13.588-2.586,18.758-7.757C476.735,213.904,504.3,161.207,489.687,105.417z M380.575,129.415l-35.956,357.19    c-0.585,5.807-5.427,10.187-11.264,10.187H80.717c-5.837,0-10.679-4.38-11.264-10.187l-35.956-357.19    c-0.319-3.177,0.725-6.359,2.866-8.726c2.143-2.369,5.204-3.728,8.398-3.728h324.551c3.194,0,6.255,1.359,8.397,3.727    C379.85,123.057,380.896,126.238,380.575,129.415z M369.311,101.753h-6.141l16.395-61.188    c17.489,4.414,34.043,13.443,47.698,27.097c13.655,13.655,22.683,30.209,27.097,47.698l-58.669,15.72l0.014-0.141    c0.75-7.446-1.699-14.9-6.72-20.452C383.967,104.937,376.795,101.753,369.311,101.753z M420.316,220.368l-30.538-30.538    l4.286-42.569l62.938-16.864c3.006,29.871-6.902,60.809-29.737,83.644C425.05,216.255,422.719,218.361,420.316,220.368z"/>
	</g>
</g>
<g>
</g>
<g>
</g>
<g>
</g>
<g>
</g>
<g>
</g>
<g>
</g>
<g>
</g>
<g>
</g>
<g>
</g>
<g>
</g>
<g>
</g>
<g>
</g>
<g>
</g>
<g>
</g>
<g>
</g>
</svg>
