<?xml version="1.0" encoding="iso-8859-1"?>
<!-- Generator: Adobe Illustrator 19.0.0, SVG Export Plug-In . SVG Version: 6.00 Build 0)  -->
<svg xmlns="http://www.w3.org/2000/svg" xmlns:xlink="http://www.w3.org/1999/xlink" version="1.1" id="Capa_1" x="0px" y="0px" viewBox="0 0 511.998 511.998" style="enable-background:new 0 0 511.998 511.998;" xml:space="preserve">
<g>
	<g>
		<path d="M299.233,120.286c-1.419-1.409-3.376-2.22-5.384-2.22c-1.997,0-3.954,0.811-5.373,2.22    c-1.419,1.419-2.231,3.376-2.231,5.384c0,1.997,0.811,3.954,2.231,5.373c1.419,1.419,3.376,2.23,5.373,2.23    c2.008,0,3.965-0.812,5.384-2.23c1.409-1.419,2.22-3.376,2.22-5.373C301.453,123.662,300.642,121.705,299.233,120.286z"/>
	</g>
</g>
<g>
	<g>
		<path d="M269.585,162.262c-1.419-1.409-3.376-2.22-5.384-2.22c-1.997,0-3.954,0.811-5.373,2.22    c-1.419,1.419-2.23,3.376-2.23,5.384c0,1.997,0.811,3.954,2.23,5.373c1.419,1.419,3.376,2.23,5.373,2.23    c2.007,0,3.964-0.811,5.384-2.23c1.409-1.419,2.22-3.376,2.22-5.373C271.805,165.639,270.994,163.682,269.585,162.262z"/>
	</g>
</g>
<g>
	<g>
		<path d="M192.919,483.01h9.932c23.937,0,35.516-12.747,41.012-23.44c5.721-11.128,5.9-22.243,5.905-22.79V306.868    c2.024,0.476,4.112,0.729,6.232,0.729c8.847,0,17.188-4.306,22.312-11.518L422.758,92.768c5.956-8.384,6.726-19.268,2.008-28.406    c-4.718-9.139-14.037-14.816-24.321-14.816h-36.81l3.47-4.891c1.989,0.561,4.054,0.864,6.159,0.864    c7.389,0,14.343-3.6,18.602-9.631c7.24-10.25,4.79-24.479-5.46-31.719C382.545,1.442,378.01,0,373.292,0    c-7.389,0-14.343,3.6-18.602,9.631c-3.507,4.965-4.871,10.999-3.839,16.989c0.583,3.389,1.916,6.52,3.844,9.248l-9.705,13.677    H111.552c-10.285,0-19.603,5.678-24.32,14.816c-4.718,9.138-3.948,20.023,2.008,28.407l44.819,63.082    c2.431,3.423,7.18,4.226,10.603,1.796c3.424-2.432,4.227-7.18,1.794-10.603l-44.818-63.082c-2.647-3.725-2.989-8.562-0.892-12.623    c2.096-4.06,6.237-6.584,10.807-6.584h222.645l-7.909,11.147H145.901c-6.994,0-13.33,3.86-16.536,10.073    c-3.208,6.212-2.685,13.613,1.366,19.315l109.976,154.793c3.484,4.903,9.155,7.831,15.169,7.831c6.015,0,11.687-2.928,15.17-7.831    L381.02,105.291c4.05-5.701,4.573-13.101,1.367-19.314c-3.207-6.214-9.544-10.074-16.537-10.074h-20.916l7.909-11.147h47.601    c4.569,0,8.711,2.523,10.807,6.584c2.097,4.06,1.754,8.898-0.892,12.623l-144.445,203.31c-2.277,3.205-5.984,5.118-9.915,5.118    s-7.637-1.913-9.915-5.118l-86.358-121.551c-2.433-3.423-7.18-4.226-10.603-1.796c-3.424,2.432-4.227,7.18-1.796,10.603    c0,0,87.01,122.425,87.231,122.703v139.467c-0.017,0.561-0.338,8.62-4.437,16.327c-5.288,9.942-14.209,14.775-27.272,14.775    h-9.932c-10.342,0-18.756,8.414-18.756,18.756v6.685c0,10.342,8.414,18.756,18.756,18.756H319.08    c10.342,0,18.756-8.414,18.756-18.756v-6.685c0-10.342-8.414-18.756-18.756-18.756h-9.936c-29.363,0-31.569-25.486-31.704-30.827    V321.901c0-4.199-3.405-7.604-7.604-7.604c-4.199,0-7.604,3.405-7.604,7.604l0.002,115.336c0.383,17,10.696,45.772,46.91,45.772    h9.936c1.923,0,3.549,1.625,3.549,3.549v6.685c0,1.923-1.625,3.549-3.549,3.549H192.919c-1.923,0-3.549-1.625-3.549-3.549v-6.685    C189.37,484.635,190.995,483.01,192.919,483.01z M367.111,18.404c1.413-2.001,3.724-3.196,6.18-3.196    c1.558,0,3.061,0.479,4.342,1.384c3.401,2.402,4.213,7.122,1.812,10.523c-1.413,2.001-3.724,3.196-6.18,3.196    c-1.559,0-3.061-0.479-4.343-1.385C365.522,26.525,364.71,21.804,367.111,18.404z M286.275,145.123    c-9.125-6.445-11.305-19.112-4.859-28.237c3.792-5.368,9.988-8.574,16.573-8.574c4.191,0,8.224,1.285,11.664,3.714    c9.125,6.445,11.305,19.112,4.859,28.237c-3.792,5.368-9.988,8.574-16.573,8.574C293.748,148.837,289.715,147.552,286.275,145.123    z M284.863,182.241c-3.123,4.42-7.778,7.36-13.112,8.278c-5.331,0.919-10.704-0.295-15.125-3.418    c-9.125-6.445-11.305-19.112-4.859-28.237c4.175-5.913,11.044-9.093,18.182-8.511c2.121,2.722,4.656,5.146,7.554,7.193    c2.879,2.034,6.003,3.595,9.277,4.685C289.716,168.763,289.01,176.368,284.863,182.241z M365.852,91.108v0.001    c1.279,0,2.436,0.705,3.022,1.841c0.587,1.135,0.491,2.488-0.25,3.53L258.649,251.272c-0.637,0.896-1.674,1.432-2.773,1.432    c-1.099,0-2.135-0.535-2.773-1.432L143.128,96.48c-0.74-1.042-0.836-2.395-0.249-3.531c0.586-1.136,1.744-1.84,3.021-1.84h169.597    l-3.486,4.913c-4.404-1.908-9.148-2.918-14.025-2.918c-11.517,0-22.357,5.611-28.994,15.008    c-5.466,7.738-7.591,17.141-5.984,26.478c0.05,0.289,0.114,0.573,0.169,0.86c-9.477,1.367-18.105,6.526-23.835,14.639    c-9.785,13.853-8.206,32.366,2.802,44.397l-10.303,14.521c-2.43,3.425-1.624,8.172,1.802,10.602    c1.335,0.948,2.872,1.403,4.393,1.403c2.381,0,4.726-1.115,6.208-3.205l10.331-14.561c4.325,1.827,12.236,3.581,19.753,2.258    c9.331-1.641,17.489-6.753,22.954-14.491c5.684-8.047,7.678-17.953,5.813-27.362c9.535-1.404,18.202-6.637,23.836-14.616    c5.466-7.738,7.591-17.141,5.984-26.478c-1.15-6.682-4.121-12.75-8.55-17.669l9.778-13.78H365.852z"/>
	</g>
</g>
<g>
</g>
<g>
</g>
<g>
</g>
<g>
</g>
<g>
</g>
<g>
</g>
<g>
</g>
<g>
</g>
<g>
</g>
<g>
</g>
<g>
</g>
<g>
</g>
<g>
</g>
<g>
</g>
<g>
</g>
</svg>
