<svg id="Capa_1" enable-background="new 0 0 512 512" height="512" viewBox="0 0 512 512" width="512" xmlns="http://www.w3.org/2000/svg"><g><path d="m205.425 418.517c30.385 26.071 75.941 24.438 104.414-4.037 28.97-28.97 29.64-74.575 4.037-104.415-2.251-2.624-5.528-4.205-8.989-4.337-3.486-.147-6.874 1.2-9.329 3.656l-90.813 90.813c-5.137 5.137-4.834 13.589.68 18.32zm98.776-20.283-30.64-30.64h43.251c-1.328 10.957-5.549 21.597-12.611 30.64zm-10.607 10.607c-9.044 7.062-19.684 11.283-30.64 12.611v-43.251zm10.624-86.904c7.128 9.094 11.316 19.738 12.62 30.658h-43.278zm-56.264 56.264v43.278c-10.919-1.304-21.563-5.492-30.658-12.62z"/><path d="m338.917 287.213c4.837-1.844 8.67-5.676 10.514-10.513 7.477-19.607 2.727-41.858-12.102-56.686-14.828-14.828-37.078-19.579-56.686-12.102-4.837 1.845-8.669 5.676-10.513 10.513-7.477 19.608-2.727 41.858 12.102 56.686 10.166 10.167 23.819 15.595 37.719 15.595 6.373.001 12.801-1.142 18.966-3.493zm-12.195-56.592c8.95 8.95 12.765 21.663 10.578 33.856l-44.434-44.434c12.191-2.188 24.906 1.628 33.856 10.578zm-44.463.028 44.434 44.434c-12.192 2.186-24.906-1.628-33.856-10.578s-12.764-21.663-10.578-33.856z"/><path d="m224.718 261.254h-51.677c-6.893 0-12.5 5.607-12.5 12.5v51.676c0 6.893 5.607 12.5 12.5 12.5h51.677c6.893 0 12.5-5.607 12.5-12.5v-51.676c0-6.892-5.608-12.5-12.5-12.5zm-2.5 61.677h-46.677v-46.676h46.677z"/><path d="m438.545 38.748-7.608-19.325c-1.222-3.109-3.581-5.555-6.644-6.887-3.058-1.331-6.454-1.391-9.564-.169l-61.705 24.288c-12.131 4.764-20.592 15.775-22.08 28.737l-6.734 58.747h-135.264c2.176-5.177 5.335-9.898 9.371-13.928l2.851-2.851c6.143 2.332 12.544 3.467 18.894 3.467 13.899 0 27.554-5.429 37.719-15.595 14.828-14.828 19.578-37.079 12.102-56.686-1.845-4.837-5.676-8.669-10.513-10.513-19.608-7.477-41.858-2.727-56.686 12.102-14.812 14.812-19.567 37.031-12.125 56.622l-2.845 2.845c-2.002 1.999-3.839 4.127-5.514 6.363-2.647-7.162-6.802-13.759-12.243-19.2l-6.926-6.926c.059-.143.132-.278.188-.423 8.214-21.542 2.996-45.988-13.296-62.279-16.291-16.292-40.737-21.51-62.28-13.296-5.163 1.966-9.254 6.056-11.223 11.219-8.214 21.542-2.996 45.989 13.296 62.28 11.17 11.17 26.169 17.133 41.441 17.133 7.003 0 14.066-1.255 20.838-3.837.148-.056.286-.132.432-.192l6.924 6.924c7.049 7.049 11.109 16.795 11.167 26.769h-65.049c-3.56 0-6.96 1.523-9.329 4.18s-3.495 6.208-3.09 9.744l16.621 144.995c.472 4.116 4.197 7.065 8.305 6.597 4.115-.472 7.069-4.19 6.597-8.305l-10.348-90.272h285.018l-29.945 261.231h-225.127l-15.598-136.068c-.472-4.115-4.191-7.071-8.305-6.597-4.115.472-7.069 4.19-6.597 8.305l20.467 178.546c1.014 8.84 8.488 15.507 17.386 15.507h151.319c4.142 0 7.5-3.358 7.5-7.5s-3.358-7.5-7.5-7.5h-151.318c-1.271 0-2.339-.953-2.484-2.215l-3.15-27.477h221.688l-3.15 27.477c-.145 1.263-1.213 2.216-2.484 2.216h-24.1c-4.142 0-7.5 3.358-7.5 7.5s3.358 7.5 7.5 7.5h24.1c8.898 0 16.373-6.667 17.386-15.507l41.088-358.431c.847-7.39-4.928-13.924-12.419-13.924h-37.726l5.361-46.795c.031-.262.207-.493.446-.588l55.398-21.799c6.413-2.521 9.603-9.756 7.066-16.209zm-299.229-11.008c10.574 10.574 14.874 25.769 11.737 40.118l-51.855-51.855c14.348-3.137 29.543 1.162 40.118 11.737zm-38.994 38.994c-10.576-10.577-14.876-25.776-11.734-40.128l51.863 51.862c-14.353 3.143-29.552-1.158-40.129-11.734zm233.033 109.342 4.234-36.938h15.869l-4.232 36.938zm-15.098 0h-132.733v-36.938h136.967zm-71.082-91.452c-8.949 8.949-21.66 12.764-33.851 10.579l44.43-44.43c2.185 12.191-1.63 24.902-10.579 33.851zm-33.885-33.885c7.304-7.304 17.113-11.204 27.101-11.204 2.259 0 4.528.202 6.779.607l-44.457 44.458c-2.189-12.194 1.626-24.909 10.577-33.861zm-105.018 88.399h62.252v36.938h-58.017zm296.925 0-4.234 36.938h-36.639l4.232-36.938zm-34.609-76.341c-5.405 2.128-9.18 7.038-9.853 12.825l-5.558 48.516h-15.868l6.538-57.037c.854-7.437 5.705-13.753 12.666-16.486l59.381-23.374 5.775 14.669z"/></g></svg>