<svg id="Capa_1" enable-background="new 0 0 512 512" height="512" viewBox="0 0 512 512" width="512" xmlns="http://www.w3.org/2000/svg"><path d="m294.535 234.246 159.863-179.732c4.614-5.188 5.713-12.347 2.87-18.682-2.845-6.336-8.928-10.273-15.875-10.273h-127.533c-4.142 0-7.5 3.358-7.5 7.5s3.358 7.5 7.5 7.5h127.534c2.067 0 3.192 2.417 1.796 3.987l-19.917 22.393h-227.453l-17.877-26.379h100.917c4.142 0 7.5-3.358 7.5-7.5s-3.358-7.5-7.5-7.5h-111.082l-15.089-22.267c-2.324-3.429-6.987-4.325-10.416-2.001s-4.325 6.987-2.001 10.416l9.386 13.851h-79.052c-6.947 0-13.029 3.936-15.874 10.272-2.844 6.335-1.745 13.494 2.87 18.683l159.864 179.732c8.987 10.104 13.936 23.102 13.936 36.602v86.414c0 4.142 3.358 7.5 7.5 7.5s7.5-3.358 7.5-7.5v-86.414c0-17.179-6.296-33.718-17.728-46.571l-7.174-8.066c22.424 7.367 46.572 7.369 69.002 0l-7.174 8.066c-11.432 12.853-17.728 29.392-17.728 46.571v178.896c0 6.761 4.053 12.759 10.326 15.281l79.527 31.975h-198.905l79.528-31.975c6.273-2.522 10.326-8.52 10.326-15.281v-57.481c0-4.142-3.358-7.5-7.5-7.5s-7.5 3.358-7.5 7.5v57.481c0 .604-.362 1.139-.922 1.364l-83.672 33.641c-14.383 5.786-10.254 27.251 5.278 27.251h207.83c15.504 0 19.687-21.455 5.276-27.252l-83.67-33.64c-.56-.225-.922-.761-.922-1.364v-178.896c-.001-13.499 4.949-26.498 13.935-36.602zm-223.929-193.687h89.218l17.876 26.379h-88.972l-19.917-22.392c-1.393-1.566-.275-3.987 1.795-3.987zm256.84 134.109c-18.128 20.38-44.169 32.069-71.445 32.069s-53.316-11.688-71.444-32.068c-.023-.025-.048-.047-.071-.072l-82.416-92.659h85.795l22.145 32.679c-14.732 13.391-20.526 34.644-9.792 50.482 10.729 15.831 32.601 18.353 50.523 9.618l8.83 13.031c2.317 3.418 6.976 4.332 10.416 2.001 3.429-2.324 4.325-6.987 2.001-10.416l-8.84-13.046c15.423-14.069 19.99-35.438 9.798-50.477s-31.733-18.715-50.516-9.603l-16.447-24.269h203.946l-82.413 92.656c-.022.026-.047.048-.07.074zm-66.916-50.443c6.754 9.966 1.508 25.357-11.694 34.305-6.641 4.501-14.222 6.657-21.321 6.074-6.498-.537-11.781-3.349-14.879-7.919-3.098-4.571-3.752-10.521-1.844-16.754 2.087-6.816 6.895-13.05 13.539-17.552 14.508-9.833 30.124-7.117 36.199 1.846z"/></svg>