<svg id="Capa_1" enable-background="new 0 0 512 512" height="512" viewBox="0 0 512 512" width="512" xmlns="http://www.w3.org/2000/svg"><path d="m321.764 461.069c-.438-4.119-4.119-7.101-8.251-6.666-4.118.438-7.103 4.132-6.665 8.25 2.524 23.755 3.185 30.114 3.327 31.567-.12 1.552-1.422 2.779-3.004 2.779-1.173 0-2.249-.689-2.741-1.755-2.458-5.32-7.847-8.758-13.729-8.758h-1.175c-5.883 0-11.271 3.438-13.73 8.76-.491 1.065-1.566 1.753-2.739 1.753-1.172 0-2.248-.689-2.74-1.755-2.458-5.32-7.847-8.758-13.729-8.758h-1.174c-5.883 0-11.271 3.438-13.729 8.758-.492 1.066-1.568 1.755-2.74 1.755-1.173 0-2.249-.689-2.74-1.753-2.456-5.322-7.846-8.76-13.73-8.76h-1.174c-5.884 0-11.273 3.438-13.729 8.758-.492 1.066-1.568 1.755-2.741 1.755-1.583 0-2.885-1.229-3.004-2.783.563-5.77 7.713-72.794 12.059-113.463h84.231c1.01 9.448 2.957 27.683 5.001 46.851.411 3.849 3.663 6.705 7.449 6.705.266 0 .534-.014.804-.043 4.119-.439 7.102-4.134 6.663-8.253-2.748-25.774-5.323-49.856-5.676-53.159-.039-46.24-.108-47.075-.142-47.479l-11.349-135.552c-1.229-23.08 2.651-46.871 6.403-69.878l.544-3.338c3.989-24.529 6.67-47.887 6.67-58.123-.002-32.249-26.237-58.484-58.484-58.484-32.248 0-58.483 26.235-58.483 58.483 0 4.133.444 10.589 1.285 18.669.429 4.119 4.1 7.11 8.236 6.684 4.12-.429 7.112-4.116 6.684-8.236-.777-7.466-1.205-13.544-1.205-17.117 0-23.977 19.506-43.483 43.483-43.483s43.482 19.506 43.482 43.483c0 7.659-2.026 28.361-6.475 55.715l-.543 3.332c-3.888 23.832-7.907 48.476-6.572 73.211.004.074.009.147.016.221l11.342 135.474c.045 2.264.081 22.512.099 39.317h-82.705v-36.724c.368-5.088 11.46-138.215 11.464-138.288 1.335-24.74-2.687-49.387-6.575-73.223 0 0-1.025-6.324-1.258-7.806-.64-4.092-4.479-6.887-8.57-6.248-4.093.642-6.89 4.479-6.248 8.571.236 1.508 1.272 7.897 1.272 7.897 3.754 23.012 7.636 46.807 6.406 69.891-11.492 137.734-11.491 138.564-11.491 138.968v44.066c-12.827 119.97-12.827 120.586-12.827 121.125 0 9.935 8.08 18.017 18.013 18.017 7.001 0 13.422-4.108 16.359-10.467.006-.012.043-.046.11-.046h1.174c.067 0 .105.035.112.048 2.937 6.357 9.357 10.465 16.358 10.465s13.421-4.108 16.357-10.465c.008-.017.049-.048.112-.048h1.174c.063 0 .104.032.112.048 2.937 6.357 9.356 10.465 16.357 10.465 7.002 0 13.423-4.108 16.357-10.465.008-.017.049-.048.112-.048h1.175c.066 0 .104.034.111.048 2.937 6.357 9.357 10.465 16.358 10.465 9.933 0 18.013-8.081 18.013-18.013.003-.581.003-.738-3.417-32.917z"/></svg>