<svg id="Capa_1" enable-background="new 0 0 512 512" height="512" viewBox="0 0 512 512" width="512" xmlns="http://www.w3.org/2000/svg"><path d="m387.215 176.176c.395-4.857-1.273-9.698-4.577-13.281-3.227-3.501-7.78-5.529-12.533-5.62 3.418-30.987-12.799-51.56-27.265-69.893-17.444-22.107-31.223-39.568-12.578-71.971 4.684-8.144-3.116-17.749-12.031-14.899-20.074 6.401-39.559 21.756-54.866 43.236-13.003 18.248-21.534 38.969-24.585 59.39-20.9-11.709-25.948-22.994-23.836-47.479.648-7.477-6.676-13.112-13.733-10.549-22.374 8.117-44.764 32.231-54.447 58.641-6.811 18.572-7.109 36.841-.983 53.507h-3.554c-4.873 0-9.562 2.055-12.865 5.637-3.304 3.583-4.972 8.424-4.577 13.282l26.01 319.742c.733 9.017 8.394 16.081 17.442 16.081h175.527c9.048 0 16.708-7.064 17.442-16.08l7.403-91.01c.336-4.129-2.739-7.748-6.867-8.084-4.15-.332-7.748 2.74-8.084 6.867l-.713 8.767c-29.755 14.38-63.171 21.984-96.945 21.984s-67.191-7.604-96.945-21.985l-4.754-58.439h203.398l-1.209 14.858c-.336 4.129 2.739 7.748 6.867 8.084 4.127.334 7.748-2.739 8.084-6.867.671-8.242 15.072-185.288 15.774-193.919zm-226.369-67.261c7.936-21.645 24.337-38.658 38.712-46.59-.614 28.778 10.875 44.311 42.37 59.271 4.818 2.293 10.448-1.062 10.709-6.411 1.863-38.398 27.735-79.207 58.881-95.618-14.093 34.476 3.682 57.001 19.547 77.107 14.07 17.83 27.404 34.745 23.93 60.584h-192.937c-8.823-18.341-5.653-36.235-1.212-48.343zm-18.619 63.342h227.547c1.459 0 2.609 1.245 2.491 2.703l-1.54 18.928h-229.45l-1.54-18.927c-.118-1.458 1.031-2.704 2.492-2.704zm113.773 277.187c33.057 0 65.818-6.829 95.548-19.82l-5.294 65.08c-.104 1.288-1.199 2.297-2.491 2.297h-175.527c-1.292 0-2.387-1.009-2.491-2.298l-5.294-65.079c29.73 12.991 62.492 19.82 95.549 19.82zm-102.919-110.423-4.778-58.737h31.536c4.142 0 7.5-3.357 7.5-7.5 0-4.142-3.357-7.5-7.5-7.5h-32.756l-4.588-56.396h227.009l-4.587 56.396h-150.08c-4.142 0-7.5 3.357-7.5 7.5 0 4.142 3.357 7.5 7.5 7.5h148.86l-4.778 58.737z"/></svg>