<svg id="Capa_1" enable-background="new 0 0 512 512" height="512" viewBox="0 0 512 512" width="512" xmlns="http://www.w3.org/2000/svg"><path d="m492.072 41.47h-187.675c-3.62-23.455-23.943-41.47-48.395-41.47s-44.775 18.015-48.395 41.47h-149.206c-3.142-9.348-11.981-16.103-22.373-16.103-13.014 0-23.601 10.587-23.601 23.601 0 13.013 10.587 23.6 23.601 23.6 10.392 0 19.23-6.753 22.372-16.098h149.215c.701 4.55 2.036 8.954 3.959 13.098h-133.301c-11.508 0-20.069 10.63-17.638 21.889 9.864 45.661 32.671 84.581 65.955 112.552 28.108 23.621 62.587 38.27 100.909 43.09v200.541c0 .917-.498 1.758-1.301 2.196l-70.938 38.688c-5.1 2.779-7.562 8.429-6.129 14.057 1.436 5.634 6.306 9.419 12.118 9.419h189.51c5.81 0 10.678-3.782 12.112-9.412 1.435-5.631-1.03-11.282-6.131-14.062l-70.94-38.691c-.802-.438-1.3-1.278-1.3-2.195v-200.552c49.975-6.337 93.443-29.471 124.404-66.718 2.647-3.185 2.212-7.914-.974-10.562-3.182-2.646-7.912-2.212-10.562.974-16.458 19.798-36.621 35.286-59.93 46.033-25.762 11.877-53.62 17.049-81.438 17.049-46.166 0-87.578-14.295-119.761-41.34-21.949-18.446-38.972-42.12-50.243-69.596h339.981c-2.858 6.949-6.086 13.678-9.685 20.153-2.012 3.62-.708 8.187 2.912 10.198 3.621 2.013 8.187.707 10.199-2.912 10.024-18.04 17.414-37.86 21.962-58.912 2.429-11.248-6.119-21.889-17.638-21.889h-133.297c1.923-4.144 3.258-8.547 3.959-13.098h187.684c4.143 0 7.5-3.357 7.5-7.5s-3.358-7.498-7.501-7.498zm-222.572 206.987v199.183c0 6.411 3.494 12.299 9.119 15.364l62.332 33.996h-169.902l62.331-33.995c5.626-3.066 9.12-8.954 9.12-15.365v-199.166c4.457.257 8.958.39 13.502.39 4.543 0 9.04-.147 13.498-.407zm-233.472-190.89c-4.742 0-8.601-3.857-8.601-8.6s3.858-8.601 8.601-8.601 8.602 3.859 8.602 8.603c0 4.742-3.859 8.598-8.602 8.598zm400.678 30.721c-1.446 6.692-3.205 13.243-5.256 19.641h-350.913c-2.039-6.378-3.789-12.929-5.239-19.641-.414-1.919 1.028-3.721 2.976-3.721h355.457c1.947 0 3.39 1.801 2.975 3.721zm-207.716-18.721c-4.506-5.888-6.958-13.091-6.958-20.598 0-18.731 15.238-33.97 33.97-33.97s33.97 15.238 33.97 33.97c0 7.506-2.452 14.709-6.958 20.598z"/></svg>