<svg id="Capa_1" enable-background="new 0 0 512 512" height="512" viewBox="0 0 512 512" width="512" xmlns="http://www.w3.org/2000/svg"><path d="m455.5 54.538c0-17.942-4.369-37.483-6.246-45.049-1.385-5.587-6.374-9.489-12.133-9.489h-34.015c-4.143 0-7.5 3.357-7.5 7.5s3.357 7.5 7.5 7.5h32.05c1.909 8.028 5.344 24.558 5.344 39.538 0 1.114-.322 2.637-1.018 4.562h-96.308c-2.981-16.325-16.952-28.721-33.697-28.721-10.801 0-20.445 5.159-26.737 13.198-6.313-8.059-15.991-13.197-26.74-13.197-10.801 0-20.446 5.16-26.737 13.2-6.313-8.061-15.991-13.2-26.74-13.2-16.745 0-30.716 12.395-33.697 28.721h-96.286c-.908-2.541-1.04-3.976-1.04-4.562 0-14.979 3.434-31.507 5.344-39.538h291.263c4.143 0 7.5-3.357 7.5-7.5s-3.357-7.5-7.5-7.5h-293.228c-5.759-.001-10.748 3.901-12.132 9.485-1.878 7.569-6.247 27.11-6.247 45.052 0 16.32 22.109 42.478 32.896 54.676 19.169 21.678 44.717 45.785 70.092 66.141 3.248 2.605 7.966 2.056 10.544-1.157 2.592-3.231 2.073-7.952-1.157-10.544-22.814-18.3-45.728-39.673-63.768-59.41h301.788c-11.772 12.88-25.759 26.617-40.673 39.881-21.864 19.445-81.044 67.855-110.222 67.855-17.045 0-45.562-18.088-59.564-27.729-3.412-2.35-8.081-1.487-10.431 1.925-2.349 3.411-1.487 8.081 1.925 10.431 16.548 11.393 31.059 19.609 43.42 24.601v234.522c0 1.379-1.121 2.5-2.5 2.5h-40.19c-20.678 0-37.5 16.822-37.5 37.5v4.77c0 6.341 5.159 11.5 11.5 11.5h186.68c6.341 0 11.5-5.159 11.5-11.5v-4.77c0-20.678-16.822-37.5-37.5-37.5h-40.19c-1.379 0-2.5-1.121-2.5-2.5v-234.53c35.977-14.53 80.399-52.402 95.54-65.868 20.136-17.907 79.31-74.011 79.31-100.794zm-172.35 418.692h40.189c12.406 0 22.5 10.094 22.5 22.5v1.27h-179.679v-1.27c0-12.406 10.094-22.5 22.5-22.5h40.189c9.649 0 17.5-7.851 17.5-17.5v-229.822c3.459.713 6.677 1.071 9.65 1.071 3.04 0 6.273-.382 9.65-1.079v229.83c.001 9.65 7.852 17.5 17.501 17.5zm26.328-427.85c8.465 0 15.657 5.754 18.25 13.721h-36.504c2.592-7.967 9.786-13.721 18.254-13.721zm-53.478 0c8.415 0 15.655 5.723 18.256 13.721h-36.511c2.593-7.967 9.788-13.721 18.255-13.721zm-53.478 0c8.415 0 15.654 5.722 18.254 13.721h-36.504c2.593-7.967 9.786-13.721 18.25-13.721zm228.74 28.721c-2.946 4.382-6.692 9.43-11.354 15.143h-327.824c-4.837-5.915-8.544-10.927-11.378-15.143z"/></svg>