<svg id="Capa_1" enable-background="new 0 0 512 512" height="512" viewBox="0 0 512 512" width="512" xmlns="http://www.w3.org/2000/svg"><g><path d="m330.418 421.231h72.54c6.369 0 11.55-5.177 11.55-11.54v-72.55c0-6.368-5.181-11.55-11.55-11.55h-47.962c-4.052-40.349-38.247-72.227-79.904-72.227-44.318 0-80.312 36.05-80.312 80.311 0 44.074 35.881 80.312 80.312 80.312 16.142 0 31.174-4.804 43.777-13.032v8.736c-.001 6.363 5.181 11.54 11.549 11.54zm-120.638-87.556c0-9.213 1.928-17.981 5.385-25.938l44.926 25.938-44.926 25.938c-3.457-7.956-5.385-16.724-5.385-25.938zm125.237 25.938-44.926-25.938 44.926-25.938c7.183 16.533 7.183 35.344 0 51.876zm-52.426-12.948 44.912 25.931c-10.505 14.109-26.565 23.838-44.912 25.947zm116.917 59.566h-65.64v-17.907c12.182-13.093 19.681-29.824 21.217-47.733h44.423zm-72.004-111.476-44.913 25.93v-51.876c18.347 2.108 34.408 11.836 44.913 25.946zm-59.913-25.947v51.876l-44.913-25.93c10.505-14.109 26.566-23.837 44.913-25.946zm-44.913 103.788 44.913-25.931v51.877c-18.347-2.108-34.408-11.836-44.913-25.946z"/><path d="m460.686 86.255h-52.917c-4.142 0-7.5 3.357-7.5 7.5s3.358 7.5 7.5 7.5h52.917c1.382 0 2.506 1.125 2.506 2.507v18.747h-169.851c-9.767 0-19.127 3.765-25.682 10.328-2.912 2.916-8.07 4.728-13.462 4.728s-10.551-1.812-13.462-4.728c-6.554-6.563-15.915-10.328-25.682-10.328h-63.208v-18.747c0-1.382 1.125-2.507 2.507-2.507h218.394c4.142 0 7.5-3.357 7.5-7.5s-3.358-7.5-7.5-7.5h-166.607v-68.742c0-4.826-2.023-9.485-5.55-12.782-3.537-3.306-8.339-5.021-13.172-4.69-39.797 2.67-77.29 19.719-105.572 48.004-28.282 28.284-45.328 65.778-47.998 105.574-.326 4.835 1.384 9.638 4.691 13.175 3.297 3.526 7.956 5.549 12.782 5.549h85.525v214.971c0 4.143 3.358 7.5 7.5 7.5s7.5-3.357 7.5-7.5v-171.359h153.037c-.059.475-.099.954-.099 1.44 0 3.084 1.201 5.983 3.381 8.163l51.298 51.298c2.25 2.25 5.206 3.375 8.162 3.375s5.913-1.125 8.164-3.375l51.296-51.298c2.181-2.18 3.382-5.079 3.382-8.163 0-.486-.04-.965-.099-1.44h32.826v241.454h-311.349v-35.073c0-4.143-3.358-7.5-7.5-7.5s-7.5 3.357-7.5 7.5v72.157c0 9.653 7.854 17.507 17.507 17.507h306.335c9.653 0 17.506-7.854 17.506-17.507v-390.731c.001-9.653-7.853-17.507-17.506-17.507zm-272.263-71.248c.963-.082 1.62.398 1.922.681.297.277.794.883.794 1.825v68.742h-29.218l-31.791-55.068c18.002-9.238 37.811-14.806 58.293-16.18zm-95.971 43.643c7.56-7.561 15.847-14.23 24.694-19.952l28.726 49.759c-5.377 2.992-9.027 8.728-9.027 15.305v16.738l-64.347-37.148c5.722-8.85 12.392-17.14 19.954-24.702zm-41.132 98.692c-1.483 0-2.604-1.267-2.506-2.718 1.374-20.479 6.941-40.287 16.175-58.288l71.856 41.483v19.522h-85.525zm362.714 60.054-46.411 46.41-46.411-46.41 1.44-1.44h89.94zm-76.38-16.441 29.97-29.97 29.97 29.97zm81.154 0-43.02-43.02c-2.181-2.181-5.08-3.382-8.164-3.382s-5.983 1.201-8.163 3.381l-43.021 43.021h-164.596c0-9.409 0-53.973 0-63.446h63.208c5.814 0 11.306 2.16 15.067 5.928 5.793 5.801 14.569 9.128 24.077 9.128s18.283-3.327 24.076-9.128c3.761-3.768 9.253-5.928 15.067-5.928h169.852v63.446zm41.878 296.045h-306.335c-1.382 0-2.507-1.125-2.507-2.507v-22.084h311.348v22.084c.001 1.382-1.124 2.507-2.506 2.507z"/></g></svg>