<svg id="Capa_1" enable-background="new 0 0 512 512" height="512" viewBox="0 0 512 512" width="512" xmlns="http://www.w3.org/2000/svg"><path d="m414.779 83.809c-3.163-5.24-8.916-8.495-15.012-8.495h-15.511c13.852-20.292 15.757-46.007 5.952-67.737-2.282-5.047-7.515-8.063-13.028-7.513-19.02 1.898-36.343 11.597-47.912 26.459-11.578-14.863-28.902-24.561-47.915-26.458-5.541-.552-10.768 2.477-13.023 7.516-9.759 21.6-7.987 47.322 5.945 67.734h-82.649c-4.143 0-7.5 3.357-7.5 7.5s3.357 7.5 7.5 7.5h208.141c.874 0 1.706.478 2.171 1.248 3.743 6.199 6.711 12.565 8.918 19.065h-309.742c2.208-6.5 5.175-12.867 8.919-19.066.464-.77 1.296-1.247 2.17-1.247h44.423c4.143 0 7.5-3.357 7.5-7.5s-3.357-7.5-7.5-7.5h-44.423c-6.096 0-11.849 3.255-15.011 8.494-28.408 47.038-19.705 107.73 36.154 149.472 26.753 19.994 60.612 32.668 97.238 36.683v179.356c0 .956-.557 1.839-1.425 2.253l-76.646 36.653c-5.298 2.539-8.089 8.312-6.787 14.042 1.302 5.729 6.313 9.731 12.188 9.731h196.14c5.875 0 10.887-4.002 12.188-9.731 1.302-5.729-1.489-11.503-6.793-14.045l-76.646-36.652c-.862-.412-1.419-1.295-1.419-2.251v-179.39c31.694-3.529 61.719-13.601 86.452-29.234 3.502-2.214 4.546-6.846 2.333-10.348-2.215-3.5-6.848-4.544-10.347-2.332-30.68 19.392-68.215 28.328-103.839 28.328-89.483 0-169.891-57.222-158.556-130.717h317.111c4.734 30.698-6.989 59.241-28.853 81.634-2.894 2.964-2.837 7.712.127 10.605 1.459 1.425 3.35 2.134 5.238 2.134 1.95 0 3.898-.756 5.367-2.261 39.202-40.147 43.77-91.856 18.362-133.93zm-37.627-68.646c8.61 20.62 3.758 44.572-12.422 60.151h-34.688c-1.354-11.551 1.02-23.225 6.91-33.419 8.463-14.667 23.408-24.576 40.2-26.732zm-95.764.002c16.28 2.092 30.812 11.489 39.401 25.433-4.926 10.908-6.923 22.836-5.831 34.717h-21.155c-16.008-15.412-21.129-39.286-12.415-60.15zm-15.002 255.939v178.216c0 6.704 3.909 12.901 9.954 15.786l66.694 31.894h-174.097l66.688-31.892c6.051-2.887 9.96-9.084 9.96-15.788v-178.214c3.45.153 6.916.239 10.4.239 3.477 0 6.945-.085 10.401-.241z"/></svg>