<svg id="Capa_1" enable-background="new 0 0 512 512" height="512" viewBox="0 0 512 512" width="512" xmlns="http://www.w3.org/2000/svg"><g><path d="m328.249 290.279h-61.24c-7.28 0-13.2 5.92-13.2 13.2v22.2l-24.51-24.51c-5.26-5.26-13.9-4.93-18.72.69-26.59 30.98-26.47 78.92 4.23 109.621 29.9 29.9 77.73 31.6 109.62 4.24 5.64-4.84 5.95-13.47.7-18.72l-19.08-19.08h22.2c7.28 0 13.2-5.92 13.2-13.2v-61.24c0-7.281-5.92-13.201-13.2-13.201zm-107.831 23.22 33.38 33.39h-47.12c1.33-11.91 5.89-23.53 13.74-33.39zm-13.72 48.391h47.1l-33.36 33.36c-7.78-9.811-12.38-21.42-13.74-33.36zm57.71 57.71c-11.95-1.36-23.56-5.96-33.37-13.74l33.37-33.37zm48.391-13.721c-9.87 7.85-21.49 12.4-33.39 13.74v-47.13zm13.66-42.96h-35.41l-22.24-22.24v-35.401h57.65z"/><path d="m400.839 134.179c2.86-3.53 5.47-7.31 7.81-11.36 13.96-24.17 15.09-52.24 2.86-71.51-2.29-3.58-6.19-5.83-10.45-6.02-18.66-.78-38.1 9.25-52.16 26.26-9.49-16.09-23.72-27.59-39.6-31.14-4.16-.91-8.51.26-11.64 3.13-16.79 15.42-22.97 42.82-15.74 69.8 1.73 6.49 4.23 12.72 7.33 18.5h-34.04c-4.14 0-7.5 3.36-7.5 7.5s3.36 7.5 7.5 7.5h136.911c.91 0 1.51.47 1.79.75.27.29.73.9.7 1.82l-1.41 51.72h-45.48l-31.28-31.29c-2.58-2.57-5.96-3.86-9.34-3.86s-6.76 1.29-9.34 3.86l-31.28 31.29h-51.584l-19.764-54.29h25.078c4.15 0 7.5-3.36 7.5-7.5s-3.35-7.5-7.5-7.5h-30.56l-5.4-14.84c10.94-5.29 22.85-12.18 27.94-19 9.78-13.12 9.42-29.38-.82-37.01-10.23-7.63-25.91-3.32-35.69 9.8-1.73 2.32-3.32 5.51-4.78 9.53l-7.48-20.54c10.94-5.29 22.85-12.18 27.94-19.01 9.78-13.12 9.42-29.37-.82-37-10.23-7.63-25.91-3.33-35.69 9.8-3.23 4.32-5.99 11.68-8.26 21.9-8.31-6.38-15.15-10.23-20.4-11.47-15.93-3.77-30.71 3.01-33.64 15.43-2.94 12.43 7.24 25.11 23.16 28.88 2.1.49 4.54.71 7.2.71 7.84 0 17.63-1.89 26.42-4.11l7.48 20.55c-3.7-2.15-6.98-3.57-9.79-4.24-7.13-1.68-14.4-1.27-20.47 1.16-6.88 2.76-11.68 7.96-13.17 14.28-2.94 12.42 7.23 25.11 23.16 28.87 9.17 2.17 24.48-1.09 33.62-3.4l3.53 9.71h-14.77c-9.865 0-17.759 8.107-17.49 17.98l9.45 345.161c.26 9.54 7.94 17.02 17.49 17.02h214.291c9.55 0 17.23-7.48 17.5-17.02l1.79-65.63c.12-4.14-3.15-7.59-7.29-7.7-4.18-.13-7.59 3.15-7.7 7.29l-.78 28.52h-221.323l-6.61-241.331h93.98c-2.74 5.01-2.01 11.44 2.23 15.69l43.3 43.29c5.16 5.16 13.52 5.17 18.68 0l43.3-43.29c2.49-2.5 3.86-5.81 3.86-9.34 0-2.26-.57-4.43-1.62-6.35h30.81l-4.87 177.811c-.11 4.14 3.15 7.59 7.29 7.7.07 0 .14.01.21.01 4.05 0 7.38-3.23 7.49-7.3l6.7-244.531c.13-4.77-1.63-9.27-4.95-12.69-1.149-1.17-2.439-2.15-3.819-2.95zm-57.25-2.341h-36.75c-4.66-6.52-8.25-14.19-10.43-22.38-5.6-20.89-1.31-42.48 10.65-54.16 16.21 4.15 30.71 20.7 36.3 41.58 3.23 12.04 3.28 24.261.23 34.96zm-224.421-78.13c-7.91-1.87-12.87-7.26-12.03-10.82.65-2.75 4.86-4.92 10.37-4.92 1.65 0 3.41.19 5.23.62 3.88.92 10.99 5.53 19.5 12.6-10.62 2.45-19.21 3.43-23.07 2.52zm47.7-31.18c3.6-4.82 10.95-9.55 14.71-6.74 2.94 2.19 2.6 9.51-2.25 16.02-2.37 3.18-9.58 7.96-19.3 12.9 1.98-10.88 4.46-18.98 6.84-22.18zm-26.88 88.41c-7.9-1.87-12.86-7.26-12.02-10.83.83-3.49 6.51-4.91 10.41-4.91 1.69 0 3.45.21 5.19.62 3.88.92 10.99 5.53 19.5 12.59-10.62 2.461-19.21 3.441-23.08 2.53zm245.781 361.522-.61 22.11c-.03 1.36-1.13 2.43-2.5 2.43h-214.291c-1.36 0-2.46-1.07-2.5-2.43l-.6-22.11zm-198.071-392.702c3.59-4.82 10.95-9.55 14.71-6.74 2.94 2.19 2.6 9.51-2.25 16.02-2.37 3.18-9.58 7.95-19.3 12.89 1.98-10.88 4.46-18.979 6.84-22.17zm-29.86 121.371-1.42-51.72c-.045-1.382 1.059-2.57 2.5-2.57h20.248l19.764 54.29zm149.261-19.41 19.41 19.41h-38.82zm0 81.52-40.76-40.76 6.35-6.35h68.82l6.35 6.35zm88.56-147.921c-3.64 6.3-8.04 11.84-13.11 16.52h-23.51c2.7-12.24 2.33-25.68-1.19-38.84-.54-2.01-1.15-3.99-1.82-5.93 10.87-16.31 27.64-26.82 42.97-26.82h.39c8.53 14.4 7.08 36.36-3.73 55.07z"/></g></svg>