<svg id="Capa_1" enable-background="new 0 0 512 512" height="512" viewBox="0 0 512 512" width="512" xmlns="http://www.w3.org/2000/svg"><path d="m499.453 304.337h-44.319v-42.513c0-21.097 11.074-78.751 14.468-95.918 1.596-8.071-4.583-15.571-12.799-15.571h-97.729c-8.228 0-14.393 7.512-12.8 15.572 3.394 17.164 14.469 74.807 14.469 95.918v42.512h-57.547v-42.513c0-21.102 11.073-78.752 14.467-95.918 1.596-8.071-4.583-15.571-12.799-15.571h-97.729c-8.228 0-14.392 7.512-12.799 15.571 3.393 17.168 14.468 74.821 14.468 95.919v42.512h-57.547v-42.513c0-21.115 11.074-78.755 14.468-95.918 1.596-8.071-4.584-15.571-12.8-15.571h-53.23c-4.143 0-7.5 3.357-7.5 7.5s3.357 7.5 7.5 7.5h50.855c-.786 4.005-1.717 8.825-2.719 14.149h-87.539c-1.001-5.324-1.932-10.143-2.718-14.149h7.122c4.143 0 7.5-3.357 7.5-7.5s-3.357-7.5-7.5-7.5h-9.499c-8.228 0-14.392 7.512-12.799 15.571 3.394 17.169 14.469 74.826 14.469 95.919v42.512h-44.32c-8.545 0-14.6 8.394-11.895 16.505l10.75 32.25c1.709 5.128 6.489 8.574 11.895 8.574h353.223c4.143 0 7.5-3.357 7.5-7.5s-3.357-7.5-7.5-7.5h-351.45l-9.109-27.329h480.078l-9.109 27.329h-75.411c-4.143 0-7.5 3.357-7.5 7.5s3.357 7.5 7.5 7.5h77.184c5.406 0 10.186-3.446 11.895-8.573l10.75-32.25c2.704-8.107-3.345-16.506-11.895-16.506zm-132.533-109.854h82.038c-10.354 58.029-8.631 68.344-8.823 70.317-21.168 5.869-43.221 5.869-64.392 0-.227-2.329 1.649-11.632-8.823-70.317zm87.507-29.149c-.786 4.006-1.717 8.825-2.718 14.149h-87.539c-1.001-5.325-1.932-10.144-2.719-14.149zm-78.684 114.969c20.73 5.083 42.558 5.353 64.392 0v24.034h-64.392zm-160.762-85.82h82.038c-10.425 58.432-8.608 68.126-8.822 70.317-21.17 5.869-43.224 5.869-64.393 0-.227-2.329 1.649-11.622-8.823-70.317zm87.507-29.149c-.786 4.006-1.717 8.825-2.718 14.149h-87.539c-1.001-5.324-1.932-10.143-2.718-14.149zm-78.684 114.969c20.73 5.083 42.559 5.353 64.393 0v24.034h-64.393zm-78.724-85.82c-10.425 58.423-8.608 68.126-8.822 70.317-21.17 5.87-43.223 5.87-64.392 0-.227-2.33 1.649-11.62-8.824-70.318h82.038zm-73.214 85.82c20.732 5.084 42.558 5.353 64.392 0v24.035h-64.392z"/></svg>