<svg id="Capa_1" enable-background="new 0 0 511.996 511.996" height="512" viewBox="0 0 511.996 511.996" width="512" xmlns="http://www.w3.org/2000/svg"><g><path d="m203.637 186.263c0 14.963 10.384 27.539 24.321 30.92v99.604c0 12.827 6.047 20.877 11.963 27.06.178.185.364.362.56.528 2.394 2.036 3.556 4.993 3.188 8.114-.367 3.121-2.185 5.728-4.986 7.151-7.243 3.682-12.136 10.698-13.087 18.768-.95 8.07 2.177 16.031 8.366 21.295l6.52 5.545c2.394 2.036 3.556 4.994 3.188 8.114-.367 3.121-2.186 5.728-4.986 7.151-7.243 3.682-12.136 10.698-13.087 18.768-.95 8.07 2.177 16.03 8.366 21.295l6.52 5.545c2.394 2.036 3.556 4.994 3.188 8.114-.367 3.121-2.186 5.727-4.986 7.151-8.744 4.445-14.177 13.3-14.177 23.109 0 4.142 3.357 7.5 7.5 7.5s7.5-3.358 7.5-7.5c0-4.133 2.289-7.864 5.974-9.737 7.243-3.682 12.136-10.698 13.087-18.768.95-8.07-2.177-16.031-8.366-21.295l-6.52-5.545c-2.394-2.036-3.556-4.994-3.188-8.114.367-3.121 2.186-5.727 4.986-7.151 7.244-3.682 12.136-10.698 13.087-18.768.95-8.069-2.177-16.03-8.366-21.295l-6.52-5.545c-2.394-2.036-3.556-4.994-3.188-8.114.367-3.121 2.186-5.727 4.986-7.151 7.244-3.682 12.136-10.698 13.087-18.768.934-7.927-2.068-15.75-8.042-21.014-4.796-5.058-7.565-9.417-7.565-16.443v-99.604c13.937-3.381 24.321-15.958 24.321-30.92v-33.596c55.218-1.951 106.249-8.968 146.172-20.246 10.597-2.993 17.997-12.784 17.997-23.809v-63.998c0-11.024-7.4-20.815-17.997-23.808-47.5-13.417-110.713-20.806-177.995-20.806s-130.495 7.389-177.993 20.806c-10.597 2.994-17.998 12.784-17.998 23.808v63.998c0 11.025 7.401 20.815 17.998 23.809 39.923 11.278 90.954 18.295 146.172 20.246zm48.642-33.195v33.195c0 9.275-7.546 16.821-16.821 16.821s-16.821-7.546-16.821-16.821v-33.195c10.368.198 22.321.216 33.642 0zm164.169-108.454v63.998c0 4.342-2.909 8.197-7.075 9.373-8.159 2.305-16.813 4.423-25.88 6.355v-30.227c0-4.142-3.357-7.5-7.5-7.5s-7.5 3.358-7.5 7.5v33.157c-6.51 1.177-13.242 2.272-20.135 3.273v-107.86c6.889 1 13.622 2.095 20.135 3.273v33.157c0 4.142 3.357 7.5 7.5 7.5s7.5-3.358 7.5-7.5v-30.226c9.067 1.932 17.72 4.05 25.88 6.355 4.166 1.176 7.075 5.03 7.075 9.372zm-83.089-23.961v111.922c-29.533 3.593-62.606 5.652-97.9 5.652-35.301 0-68.375-2.06-97.9-5.652v-111.922c30.438-3.703 63.601-5.653 97.9-5.653s67.462 1.949 97.9 5.653zm-230.936 5.304c6.513-1.178 13.246-2.273 20.135-3.273v107.861c-6.889-1-13.622-2.095-20.135-3.273zm-47.956 82.655v-63.998c0-4.342 2.91-8.196 7.076-9.373 8.159-2.305 16.813-4.423 25.88-6.355v95.454c-9.067-1.932-17.721-4.05-25.881-6.355-4.166-1.176-7.075-5.03-7.075-9.373z"/><path d="m459.166 242.077c-8.217-4.827-64.704-38.013-72.927-42.844-14.543-8.544-33.26-1.845-39.105 13.947-4.453 12.033-35.29 95.353-39.714 107.307-4.558 12.318.354 26.088 11.678 32.741l38.242 22.466c11.327 6.655 25.747 4.235 34.284-5.74l12.627-14.753c2.693-3.147 2.325-7.882-.821-10.575-3.146-2.692-7.882-2.325-10.575.821l-12.627 14.753c-3.808 4.451-10.237 5.529-15.29 2.56l-38.242-22.466c-5.05-2.967-7.24-9.108-5.207-14.602l1.917-5.178c17.45 6.686 37.553-.023 47.297-16.61 10.871-18.506 4.696-42.281-13.812-53.154-2.099-1.233-4.284-2.243-6.536-3.054l10.848-29.311c2.609-7.053 10.962-10.025 17.439-6.22l46.782 27.484c-4.006 3.03-7.419 6.845-10.044 11.313-10.719 18.247-4.783 41.744 13.183 52.761l-12.948 15.129c-2.693 3.147-2.325 7.882.821 10.575 3.148 2.693 7.883 2.326 10.575-.821 4.045-4.726 34.978-40.868 39.012-45.582 10.966-12.812 7.663-32.417-6.857-40.947zm-109.874 21.608c11.358 6.672 15.149 21.263 8.477 32.622-6.037 10.275-18.511 14.31-29.163 10.155 1.437-3.884 14.64-39.559 16.546-44.707 1.428.505 2.811 1.149 4.14 1.93zm79.021-5.123c2.769-4.712 6.963-8.249 11.991-10.17l11.265 6.618c6.484 3.809 7.942 12.556 3.058 18.262l-16.115 18.829c-12.537-6.039-17.238-21.557-10.199-33.539z"/></g></svg>