<svg id="Capa_1" enable-background="new 0 0 511.998 511.998" height="512" viewBox="0 0 511.998 511.998" width="512" xmlns="http://www.w3.org/2000/svg"><g><path d="m356.636 91.381c4.01 1.046 8.105-1.359 9.149-5.364 1.046-4.008-1.355-8.105-5.364-9.15l-2.974-.776-18.762-48.535h.001c-1.729-4.473-4.71-8.153-8.538-10.704l1.944-7.456c1.046-4.008-1.356-8.104-5.364-9.15-4.012-1.046-8.105 1.357-9.149 5.365l-1.944 7.456c-4.586.357-8.985 2.111-12.678 5.169l-40.08 33.188-2.974-.776c-4.004-1.045-8.104 1.356-9.149 5.364-1.046 4.008 1.355 8.105 5.364 9.15l42.624 11.118-6.109 23.109h-50.758l-5.323-26.735c-3.979-19.976-15.018-37.869-31.085-50.385l-22.35-17.409c-9.812-7.644-24.17-6.002-32.004 3.658-8.141 10.04-6.42 24.731 3.729 32.639h.001l22.349 17.408c7.358 5.732 12.414 13.927 14.236 23.074l3.534 17.75h-14.72c-4.309 0-8.352 1.907-11.091 5.232-2.738 3.324-3.835 7.655-3.011 11.881 6.723 34.472 1.185 70.089-10.904 103.537-28.885 79.894 23.138 155.171 71.184 171.814v71.288h-26.607c-13.47 0-24.428 10.958-24.428 24.429 0 13.47 10.958 24.428 24.428 24.428h102.071c13.47 0 24.429-10.958 24.429-24.428s-10.959-24.429-24.429-24.429h-26.606v-17.207c0-4.142-3.357-7.5-7.5-7.5s-7.5 3.358-7.5 7.5v17.207h-18.857v-67.781c6.278.801 12.365.828 18.857 0v15.574c0 4.142 3.357 7.5 7.5 7.5s7.5-3.358 7.5-7.5v-19.082c47.902-16.593 100.112-91.799 71.184-171.813h.001c-12.02-33.25-17.675-68.838-10.905-103.537.824-4.226-.272-8.557-3.011-11.88-2.74-3.326-6.782-5.233-11.092-5.233h-13.306l5.108-19.323c19.408 5.062 17.161 4.476 43.379 11.315zm-54.752 386.76c5.199 0 9.429 4.229 9.429 9.429 0 5.199-4.229 9.428-9.429 9.428h-102.071c-5.198 0-9.428-4.229-9.428-9.428s4.229-9.429 9.428-9.429zm-13.216-363.753-12.039 45.542h-22.7l-9.068-45.542zm43.687 110.75c10.474 28.969 9.666 60.457-1.848 88.759-23.554 13.631-41.986 19.351-62.943 21.557-4.119.434-7.107 4.125-6.674 8.244s4.113 7.104 8.244 6.674c19.041-2.004 34.116-6.516 48.875-13.212-10.329 15.208-24.113 27.599-35.192 34.544-22.563 14.147-43.781 7.732-47.75 7.116-20.049-5.494-39.877-24.725-51.379-41.661 14.796 6.713 29.871 11.212 48.876 13.212 4.129.435 7.812-2.555 8.244-6.674.434-4.12-2.555-7.811-6.674-8.244-20.959-2.206-39.391-7.927-62.943-21.557-19.451-47.809-3.22-83.104 2.45-101.619 3.909-12.698 6.724-25.161 8.429-37.349h34.086 103.471c2.369 16.932 6.817 33.856 12.728 50.21zm-93.721-65.208h-16.323l-9.068-45.542h16.324zm-32.495-81.221c-2.525-12.678-9.532-24.034-19.729-31.978l-22.349-17.408c-3.534-2.753-4.129-7.866-1.298-11.358 2.726-3.361 7.722-3.933 11.136-1.272l22.349 17.409c13.229 10.304 22.317 25.036 25.593 41.48l4.74 23.806h-16.323zm-8.19 35.679 9.068 45.542h-23.399c1.038-15.703.176-30.912-2.607-45.542zm122.739 0c-2.783 14.629-3.645 29.838-2.607 45.542h-25.937l12.039-45.542zm-8.164-84.6c1.941-1.609 4.454-2.167 6.898-1.53 2.44.637 4.362 2.352 5.271 4.705h.001l14.868 38.462-58.801-15.337z"/></g></svg>