<svg id="Capa_1" enable-background="new 0 0 511.995 511.995" height="512" viewBox="0 0 511.995 511.995" width="512" xmlns="http://www.w3.org/2000/svg"><g><path d="m433.347 140.894-5.622-1.466-10.601-27.424c-1.492-3.863-5.837-5.785-9.699-4.292-3.863 1.494-5.785 5.836-4.291 9.7l6.707 17.351c-18.939-4.94 17.891 4.667-93.283-24.332l62.838-52.034c.071-.058.263-.214.582-.129.324.084.412.311.445.396l10.086 26.092c1.492 3.863 5.832 5.784 9.699 4.292 3.863-1.494 5.785-5.836 4.291-9.7l-10.086-26.092c-.853-2.207-2.201-4.149-3.882-5.732l3.891-14.917c1.046-4.008-1.355-8.104-5.363-9.15-4.01-1.046-8.104 1.356-9.15 5.364l-3.892 14.918c-2.241.561-4.366 1.596-6.188 3.105l-71.157 58.922-5.622-1.466c-4.004-1.045-8.104 1.356-9.149 5.364-1.046 4.008 1.355 8.105 5.364 9.15l9.338 2.436s53.033 13.833 53.035 13.834l-7.839 29.654c-10.743-13.369-28.293-19.241-44.964-14.653-4.452 1.226-9.038.155-12.26-2.864-8.111-7.599-17.917-12.862-28.506-15.438-2.188-14.087-5.078-28.159-8.614-41.904-1.033-4.011-5.122-6.428-9.133-5.395-4.011 1.032-6.427 5.121-5.395 9.132 3.071 11.936 5.64 24.125 7.663 36.354-9.343.054-18.98 2.183-27.872 6.557-.781-.296-2.129-.736-2.826-.936-6.839-16.413-14.708-32.284-23.426-47.208 2.169-24.926 6.579-49.008 13.115-71.617.382-1.322 1.349-1.683 2.092-1.754.751-.068 1.762.104 2.385 1.33 7.09 13.942 13.45 28.878 18.904 44.394 1.373 3.907 5.653 5.961 9.562 4.588 3.907-1.374 5.962-5.655 4.588-9.563-5.673-16.138-12.295-31.688-19.684-46.218-3.27-6.429-10.001-10.142-17.171-9.464-7.162.679-13.084 5.594-15.087 12.521-5.118 17.703-8.976 36.259-11.536 55.384-7.917-11.711-16.417-22.828-25.503-33.28-4.485-5.162-11.543-7.027-17.974-4.755-6.434 2.273-10.751 8.158-10.999 14.992-1.16 31.969 2.295 64.973 10.251 98.179-8 6.852-13.084 17.016-13.084 28.35 0 3.391.454 6.718 1.334 9.918h-1.409c-9.781 0-18.5 6.22-21.698 15.478-39.402 114.13-22.01 204.204-.483 259.669 6.367 16.402 17.401 30.326 31.909 40.264 14.514 9.941 31.483 15.196 49.075 15.196h136.023c17.592 0 34.562-5.255 49.075-15.196 14.508-9.938 25.542-23.861 31.909-40.264 21.512-55.426 38.892-145.41-.403-259.423-.003-.008-.004-.017-.007-.025l-.067-.199c-.002-.007-.005-.015-.008-.023-3.188-9.234-11.961-15.478-21.697-15.478h-16.965l11.24-42.519 63.408 16.539c4.01 1.046 8.105-1.359 9.149-5.364 1.048-4.007-1.354-8.104-5.363-9.149zm-130.532 23.653c13.975-3.845 28.359 3.677 33.533 16.841h-98.77c3.187-11.34.75-24.713-7.94-34.571 16.216-4.552 33.926-.601 46.683 11.351 7.063 6.615 16.966 9 26.494 6.379zm-114.452-11.075c18.43-13.613 43.793 6.718 33.22 27.916h-29.923c2.604-9.624 1.289-19.568-3.297-27.916zm-43.301-17.801c-6.98-30.546-9.977-60.841-8.912-90.186.01-.26.038-1.051 1.006-1.393.959-.339 1.485.255 1.656.452 12.991 14.946 24.762 31.303 35.246 48.924.091.188.17.382.278.563 7.663 12.923 14.64 26.565 20.835 40.658-5.823 1.009-11.59 3.491-16.552 7.34-9.584-7.489-22.139-9.724-33.557-6.358zm-11.735 35.799c0-12.23 9.929-22.332 22.332-22.332 16.717 0 27.281 17.657 20.005 32.25h-40.015c-1.527-3.064-2.322-6.436-2.322-9.918zm252.691 262.933-.129-.075.189-.109c-.021.061-.04.123-.06.184zm-143.994 62.592-44.968-26.114 48.01-27.88 48.009 27.88-44.968 26.114zm-150.454-216.238 12.671 7.358-14.522 8.434c.497-5.185 1.111-10.45 1.851-15.792zm14.492-64.69 61.124 35.496-48.009 27.88-25.072-14.56c2.832-15.662 6.754-31.947 11.957-48.816zm295.999 118.416-31.108 18.065-48.009-27.88 48.01-27.88 30.746 17.855c.312 6.766.423 13.379.361 19.84zm-313.631-19.84 30.746-17.855 48.009 27.88-48.009 27.88-31.108-18.065c-.061-6.461.05-13.074.362-19.84zm93.691 18.698 48.009 27.88-48.009 27.88-48.009-27.88zm62.944 36.554 48.009 27.88-48.009 27.88-48.009-27.88zm14.935-8.674 48.009-27.88 48.009 27.88-48.009 27.88zm48.009-45.226-48.009-27.88 48.01-27.88 48.009 27.88zm-14.935 8.673-48.009 27.88-48.009-27.88 48.009-27.88zm-110.953-8.673-48.009-27.88 48.009-27.88 48.009 27.88zm-93.436 36.193 15.556 9.034-14.076 8.174c-.624-5.591-1.124-11.327-1.48-17.208zm15.368 82.031.188.109-.128.075c-.02-.061-.04-.123-.06-.184zm-5.97-20.813c-2.203-8.778-4.153-18.094-5.734-27.931l26.827-15.579 48.009 27.88-48.009 27.88zm84.037-6.958 48.009 27.88-48.009 27.88-48.009-27.88zm77.88 27.88 48.009-27.88 48.009 27.88-48.009 27.88zm62.944-36.553 48.009-27.88 26.828 15.58c-1.581 9.837-3.531 19.153-5.734 27.93l-21.094 12.25zm62.944-36.553 15.557-9.034c-.356 5.882-.856 11.618-1.479 17.209zm14.523-64.674-14.522-8.433 12.67-7.358c.741 5.342 1.355 10.607 1.852 15.791zm-29.457-17.106-48.009-27.88 61.123-35.496c5.203 16.87 9.125 33.155 11.958 48.816zm-62.944-36.553-24.129-14.012c23.03-1.808 45.181-5.214 65.62-10.083zm-51.624-12.633 36.688 21.306-48.009 27.88-48.009-27.88 36.689-21.306c3.761.085 7.535.132 11.321.132s7.559-.047 11.32-.132zm-74.266 12.633-41.494-24.096c20.44 4.869 42.592 8.276 65.623 10.084zm-72.067 208.218c-.294-.758-.588-1.526-.88-2.297l10.003-5.809 48.009 27.88-27.294 15.85c-13.295-8.01-23.9-20.326-29.838-35.624zm46.903 43.061 25.164-14.613 30.033 17.441h-35.1c-6.943-.001-13.689-.985-20.097-2.828zm121.02 2.827 30.033-17.441 25.165 14.614c-6.408 1.843-13.153 2.827-20.097 2.827zm72.263-10.264-27.294-15.85 48.009-27.88 10.003 5.809c-.292.772-.585 1.539-.88 2.297-5.938 15.298-16.543 27.615-29.838 35.624zm22.894-290.243h.001c-36.315 12.227-81.274 18.9-128.069 18.9s-91.753-6.672-128.069-18.9h.001c.411-.066.829-.1 1.254-.1h253.627c.426 0 .844.034 1.255.1z"/></g></svg>