<svg id="Capa_1" enable-background="new 0 0 511.994 511.994" height="512" viewBox="0 0 511.994 511.994" width="512" xmlns="http://www.w3.org/2000/svg"><g><path d="m181.629 92.505c3.496.73 7.155-.071 10.028-2.197 2.865-2.12 4.695-5.37 5.021-8.916 1.305-14.235 9.472-49.161 57.022-66.001 1.481-.524 3.112-.525 4.592 0 15.271 5.408 27.8 13.174 37.235 23.083 2.857 3 7.605 3.117 10.604.259 3-2.856 3.116-7.604.26-10.603-11.079-11.633-25.577-20.677-43.091-26.879-4.707-1.668-9.894-1.668-14.606 0-52.93 18.745-64.301 57.515-66.651 76.018l-7.83-1.63c-3.532-.737-7.207.087-10.089 2.254-2.893 2.176-4.709 5.496-4.983 9.108-.612 8.054-.561 15.898.126 23.406h-3.734c-7.913 0-14.776 5.633-16.319 13.393l-26.291 132.166c-.035.177-.064.354-.087.533-3.818 30.546 5.222 56.633 26.869 77.538 21.586 20.847 55.105 34.628 81.977 40.16 4.063 9.469 6.127 19.516 6.127 29.922 0 17.715-6.218 34.972-17.508 48.591-4.929 5.946-12.189 9.357-19.921 9.357-16.663 0-30.22 13.557-30.22 30.22 0 10.867 8.841 19.708 19.707 19.708h152.259c10.867 0 19.708-8.841 19.708-19.708 0-16.663-13.557-30.22-30.22-30.22-7.731 0-14.992-3.411-19.921-9.357-11.29-13.619-17.508-30.875-17.508-48.59 0-10.406 2.064-20.453 6.127-29.922 5.71-1.175 11.385-2.639 17.005-4.406 56.848-17.87 99.297-53.649 91.842-113.292-.022-.179-.052-.356-.087-.533l-26.291-132.167c-1.543-7.761-8.406-13.394-16.319-13.394h-3.733c.687-7.506.738-15.35.126-23.405-.274-3.613-2.091-6.934-4.983-9.109-2.882-2.167-6.559-2.99-10.089-2.254l-7.833 1.631c-.546-4.248-1.63-9.95-3.771-16.346-1.315-3.928-5.562-6.046-9.493-4.731-3.928 1.315-6.046 5.565-4.731 9.493 2.189 6.539 3.037 12.152 3.362 15.711.325 3.543 2.154 6.791 5.018 8.91 2.875 2.127 6.53 2.928 10.03 2.199l7.715-1.606c.376 6.741.232 13.276-.417 19.508h-42.403c-1.424-4.533-3.33-8.945-5.736-13.146-5.835-10.19-12.698-18.907-20.398-25.906-7.483-6.803-18.771-6.803-26.256 0-7.991 7.264-15.077 16.374-21.061 27.077-2.144 3.835-3.869 7.851-5.184 11.976h-42.292c-.65-6.234-.795-12.768-.418-19.508zm-26.097 32.902h6.384c3.869 13.235 11.767 24.703 22.205 33.124h-36.524l6.327-31.804c.152-.766.829-1.32 1.608-1.32zm120.974 31.123c-.38.663-.771 1.331-1.176 2h-38.668c-.599-.997-1.187-2.011-1.76-3.037-5.156-9.224-7.189-19.791-6.145-30.087h54.325c1.063 10.657-1.112 21.58-6.576 31.124zm13.638 305.751c7.788 9.396 19.259 14.785 31.47 14.785 8.393 0 15.22 6.828 15.22 15.22 0 2.552-2.156 4.708-4.708 4.708h-152.259c-2.552 0-4.707-2.156-4.707-4.708 0-8.392 6.827-15.22 15.22-15.22 12.211 0 23.682-5.389 31.47-14.784 13.516-16.304 20.959-36.96 20.959-58.164 0-9.383-1.398-18.524-4.169-27.311 11.213 1.153 22.663 1.24 34.715 0-2.771 8.787-4.169 17.928-4.169 27.311-.001 21.204 7.443 41.859 20.958 58.163zm12.675-106.801c-29.482 9.267-62.238 9.873-93.645 0-41.021-12.895-88.42-40.161-81.488-96.858l7.078-35.583h103.732c4.143 0 7.5-3.358 7.5-7.5s-3.357-7.5-7.5-7.5h-100.747l6.865-34.509h222.766l6.865 34.509h-100.748c-4.143 0-7.5 3.358-7.5 7.5s3.357 7.5 7.5 7.5h103.732l7.078 35.583c6.932 56.698-40.467 83.963-81.488 96.858zm55.251-228.753 6.327 31.804h-36.524c10.438-8.42 18.336-19.888 22.206-33.124h6.383c.779 0 1.456.554 1.608 1.32zm-23.812-1.32c-6.783 17.391-22.811 30.1-41.725 32.65 4.606-10.316 6.474-21.57 5.618-32.65zm-99.356-19.657c5.19-9.286 11.266-17.124 18.056-23.296 1.734-1.575 4.347-1.575 6.077 0 6.538 5.943 12.417 13.433 17.471 22.26 1.058 1.848 1.981 3.753 2.794 5.693h-46.664c.68-1.581 1.419-3.142 2.266-4.657zm-15.493 52.301c-18.891-2.566-34.896-15.269-41.672-32.644h35.959c-.867 11.095 1.037 22.374 5.713 32.644z"/></g></svg>