<svg id="Capa_1" enable-background="new 0 0 511.999 511.999" height="512" viewBox="0 0 511.999 511.999" width="512" xmlns="http://www.w3.org/2000/svg"><g><path d="m397.604 84.802h-21.428l15.846-53.92c3.744-12.741-3.575-26.153-16.315-29.896-12.767-3.752-26.142 3.54-29.896 16.316l-10.203 34.718c-1.66-1.494-3.494-2.657-5.495-3.437-3.122-1.217-6.479-1.628-9.975-1.224-.08.01-.808.076-.983-.464-6.455-19.818-17.663-31.185-30.75-31.185-13.088 0-24.296 11.367-30.75 31.184-.176.542-.903.475-.984.465-3.497-.404-6.854.007-9.975 1.224-8.402 3.275-13.814 12.803-15.239 26.828-.31 3.048-.415 6.198-.328 9.392h-34.509c5.854-9.389-3.05 4.891 16.764-26.888 8.15-13.071 1.357-30.254-13.525-34.271-32.803-8.855-69.525 3.929-88.896 35-19.185 30.77-14.927 69.394 7.702 95.228 10.149 11.582 28.573 10.135 36.726-2.94l8.233-13.206v61.24c0 18.846 2.885 37.513 8.575 55.482 3.35 10.578 5.654 21.499 6.866 32.53.173 1.576.324 3.154.452 4.734.752 9.235 15.082 185.312 15.7 192.907 1.249 15.354 14.295 27.382 29.701 27.382h126.975c15.404 0 28.451-12.027 29.701-27.382.745-9.154 15.073-185.213 15.699-192.907 1.028-12.638 3.491-25.175 7.319-37.263 5.69-17.969 8.575-36.636 8.575-55.482v-8.536c0-4.142-3.357-7.5-7.5-7.5s-7.5 3.358-7.5 7.5v8.536c0 17.308-2.649 34.451-7.876 50.954-4.168 13.162-6.85 26.813-7.97 40.575l-13.792 169.472h-62.645c-4.143 0-7.5 3.358-7.5 7.5s3.357 7.5 7.5 7.5h61.424l-.687 8.436c-.62 7.625-7.1 13.599-14.75 13.599h-126.974c-7.651 0-14.13-5.973-14.75-13.599l-.687-8.436h61.424c4.143 0 7.5-3.358 7.5-7.5s-3.357-7.5-7.5-7.5h-62.645l-13.793-169.471c-1.119-13.76-3.801-27.412-7.969-40.575-5.227-16.502-7.876-33.646-7.876-50.954v-59.256h219.564v15.72c0 4.142 3.357 7.5 7.5 7.5s7.5-3.358 7.5-7.5v-55.046c.001-8.595-6.989-15.584-15.581-15.584zm-37.403-63.272c1.416-4.815 6.459-7.572 11.276-6.153 4.806 1.412 7.566 6.471 6.154 11.276l-17.09 58.149h-18.935c4.254-14.471 14.387-48.953 18.595-63.272zm-111.886 78.272h73.25l-7.32 24.907h-53.508c-5.817-7.035-10.2-16.255-12.422-24.907zm81.564 24.907 7.32-24.907h18.935l-7.32 24.907zm-83.5-47.783c.941-9.26 3.962-13.666 5.764-14.368.83-.323 1.748-.421 2.8-.299 7.656.888 14.628-3.521 16.974-10.719 4.059-12.459 10.684-20.83 16.488-20.83s12.43 8.371 16.487 20.83c2.344 7.199 9.329 11.602 16.974 10.72 1.055-.122 1.97-.024 2.801.3 1.667.649 3.784 3.853 5.022 9.601-1.406 4.783-.662 2.254-3.716 12.642h-79.829c-.093-2.703-.022-5.352.235-7.877zm-90.788 44.769c-.375.03-.583-.193-.647-.267-9.022-10.298-10.259-25.611-3.009-37.24 7.251-11.63 21.548-17.257 34.762-13.69.508.136.73.695.471 1.11l-8.227 13.195c-8.214.137-15.29 6.882-15.316 15.532 0 .016-.002.031-.002.046v8.99l-7.474 11.987c-.057.093-.199.308-.558.337zm-25.645 22.292c-19.051-21.747-21.565-52.854-6.257-77.408 15.349-24.619 44.419-35.969 72.259-28.455 5.165 1.394 7.523 7.333 4.706 11.853l-5.172 8.296c-1.459-1.005-3.098-1.775-4.877-2.256-19.854-5.361-40.512 2.772-51.399 20.235-10.889 17.463-9.099 39.59 4.454 55.06 1.214 1.386 2.63 2.513 4.175 3.381l-5.175 8.301c-2.814 4.513-9.181 5.024-12.714.993zm48.676-43.604c0-.321.261-.582.582-.582h53.712c1.776 8.455 4.808 16.658 9.642 24.907h-63.936c0-13.588 0-10.839 0-24.325zm185.826 24.326 7.32-24.907h25.837c.321 0 .582.261.582.581v24.326z"/></g></svg>