<svg id="Capa_1" enable-background="new 0 0 511.996 511.996" height="512" viewBox="0 0 511.996 511.996" width="512" xmlns="http://www.w3.org/2000/svg"><g><path d="m375.868 0h-53.171c-.241 0-.482.012-.723.035-33.689 3.26-55.528 38.232-68.154 68.043h-178.861c-5.428 0-10.349 2.995-12.842 7.815s-2.095 10.567 1.042 14.997c7.443 10.514 113.091 159.755 116.873 165.099 2.653 3.748 5.725 7.047 9.114 9.889v18.488c0 15.613 10.905 28.718 25.495 32.124v143.967h-53.471c-14.209 0-25.769 11.56-25.769 25.769s11.56 25.769 25.769 25.769h43.471c4.143 0 7.5-3.358 7.5-7.5s-3.357-7.5-7.5-7.5h-43.471c-5.938 0-10.769-4.831-10.769-10.769s4.831-10.769 10.769-10.769h121.941c5.938 0 10.769 4.831 10.769 10.769s-4.831 10.769-10.769 10.769h-43.471c-4.143 0-7.5 3.358-7.5 7.5s3.357 7.5 7.5 7.5h43.471c14.209 0 25.769-11.56 25.769-25.769s-11.56-25.769-25.769-25.769h-53.471v-143.967c14.59-3.406 25.494-16.511 25.494-32.124v-18.487c3.419-2.867 6.369-6.011 9.114-9.89l116.877-165.099c1.289-1.822 2.108-3.868 2.461-5.979 1.638 4.458 3.025 8.6 4.159 12.208 4.281 13.624 16.776 22.777 31.093 22.777 22.813 0 38.686-22.925 30.468-44.249-12.87-33.39-37.74-75.647-73.438-75.647zm-52.792 15h19.187c-15.815 13.662-27.349 34.383-35.267 53.078h-36.758c10.365-22.693 28.022-50.437 52.838-53.078zm-59.047 68.078h37.161c-3.197 9.065-5.406 16.817-6.711 21.818h-37.604c1.567-5.566 3.939-13.255 7.154-21.818zm-16.011 0c-3.199 9.07-5.403 16.816-6.709 21.818h-38.917c-4.143 0-7.5 3.358-7.5 7.5s3.357 7.5 7.5 7.5h139.821l-90.205 127.426c-7.085 10.008-18.261 15.45-29.866 15.45-11.691.001-22.817-5.491-29.867-15.45l-90.204-127.426h65.322c4.143 0 7.5-3.358 7.5-7.5s-3.357-7.5-7.5-7.5h-75.94l-15.446-21.818zm-7.882 201.288c0 9.922-8.072 17.995-17.994 17.995-9.923 0-17.995-8.072-17.995-17.995v-9.769c11.459 4.22 24.423 4.26 35.989 0zm112.696-179.47h-42.787c1.567-5.567 3.933-13.252 7.149-21.818h51.083zm16.492-36.818h-45.914c6.461-14.148 15.334-29.361 26.658-39.925 11.949 11.147 21.195 27.524 27.904 42.796-2.45-1.831-5.46-2.871-8.648-2.871zm49.514 36.818c-7.731 0-14.476-4.933-16.782-12.274-7.341-23.351-19.935-53.77-39.6-73.374 1.237-.638 1.249-.634 1.249-.634 5.431-2.586 10.86-3.613 13.326-3.613 29.77 3.17 49.282 42.699 58.279 66.042 4.428 11.491-4.093 23.853-16.472 23.853z"/></g></svg>