<svg id="Capa_1" enable-background="new 0 0 511.993 511.993" height="512" viewBox="0 0 511.993 511.993" width="512" xmlns="http://www.w3.org/2000/svg"><g><path d="m199.134 372.977c-13.106 8.096-14.645 26.507-3.093 36.713 25.475 22.502 64.052 27.336 95.196 8.096 14.935-9.227 26.188-22.727 32.544-39.042 6.144-15.771 7.146-33.425 2.823-49.71-3.955-14.891-21.103-21.768-34.215-13.667-27.722 17.126-13.52 8.352-30.083 18.584-.833-5.492-8.775-24.807-30.007-34.392-13.682-6.178-28.931-6.583-42.933-1.143-7.721 3-11.678 11.765-8.822 19.539 5.18 14.102 15.567 25.27 29.251 31.448 6.308 2.848 12.948 4.463 19.645 4.851-.724.448-14.673 9.066-30.306 18.723zm-4.509-60.193c-.056-.151.024-.327.174-.386 10.127-3.935 21.258-3.715 31.329.832 9.982 4.507 17.562 12.657 21.343 22.949.056.15-.024.327-.174.385-10.223 3.97-21.346 3.675-31.329-.832s-17.563-12.656-21.343-22.948zm71.236 63.923c-19.079 11.787-39.9-2.663-37.146-4.373 52.506-32.436 50.627-31.652 50.979-30.333 3.514 13.233-2.175 27.504-13.833 34.706zm34.412-48.579c4.541-2.803 10.464-.404 11.834 4.755 7.418 27.943-4.137 56.935-28.752 72.141-24.617 15.207-55.714 12.565-77.382-6.577-4.009-3.54-3.488-9.909 1.044-12.709l8.317-5.138c5.536 9.952 32.766 24.71 58.409 8.869 25.11-15.51 25.066-46.164 18.213-56.203z"/><path d="m331.299 268.396c-8.228-13.417-21.77-23.023-38.322-25.744.079-1.811.091-3.625.048-5.438 23.305-9.316 38.246-33.866 34.053-60.187-1.302-8.18-9.038-13.899-17.237-12.747-14.847 2.083-27.932 9.854-36.857 21.883-13.05-14.707-30.736-24.189-50.695-26.521-16.805-1.967-34.146 1.52-48.813 9.812-13.411 7.582-15.739 25.912-4.591 36.556l79.277 75.7c4.323 4.127 10.119 6.569 16.656 6.308 17.528 12.297 41.841 13.95 61.677 1.271 6.978-4.461 9.133-13.833 4.804-20.893zm-19.374-89.262c.159-.019.315.092.341.251 2.848 17.891-6.431 34.55-21.156 42.231-1.779-7.957-4.713-15.501-8.733-22.452 6.074-10.646 16.694-18.227 29.548-20.03zm-114.456 33.019c.048-.385.307-.532.392-.58 11.914-6.737 27.159-4.839 37.073 4.628 9.911 9.463 12.516 24.604 6.334 36.82-.044.087-.178.353-.562.418-.364.064-.557-.123-.63-.192l-42.386-40.473c-.072-.069-.267-.255-.221-.621zm53.983 51.957c1.281-1.224 2.369-2.672 3.201-4.316 9.285-18.352 5.524-40.23-9.359-54.441-21.337-20.377-50.991-12.609-58.979-3.441l-7.07-6.751c-3.853-3.678-3.041-10.017 1.614-12.65 25.252-14.278 56.209-10.297 77.062 9.617 20.874 19.933 26.018 51.135 13.162 76.537-2.372 4.684-8.652 5.93-12.562 2.196zm66.965 12.539c-11.305 7.226-24.997 8.287-37.031 3.416 4.478-5.239 8.096-16.128 9.588-22.552 11.337 1.995 21.314 8.576 27.538 18.724.084.137.04.326-.095.412z"/><path d="m365.197 84.796h-21.428l15.846-53.92c3.744-12.741-3.575-26.153-16.315-29.896-12.74-3.744-26.152 3.574-29.897 16.316l-19.837 67.5h-16.794c3.516-11.366 4.415-23.476 2.484-35.6-1.623-10.197-11.261-17.327-21.487-15.891-14.11 1.979-27.086 7.596-37.93 16.207-9.648-15.886-24.132-28.19-41.641-35.128-10.182-4.035-21.9.902-26.124 11.007-7.991 19.121-8.811 39.947-2.505 59.404h-2.772c-8.592 0-15.582 6.99-15.582 15.581v98.582c0 18.846 2.885 37.513 8.575 55.482 3.828 12.088 6.291 24.625 7.319 37.263.633 7.779 14.96 183.826 15.699 192.907 1.25 15.354 14.297 27.382 29.701 27.382h126.976c15.405 0 28.451-12.028 29.7-27.382.742-9.114 15.07-185.168 15.7-192.908 1.027-12.634 3.489-25.171 7.318-37.263 5.69-17.969 8.575-36.636 8.575-55.482v-9.829c0-4.142-3.357-7.5-7.5-7.5s-7.5 3.358-7.5 7.5v9.829c0 17.308-2.649 34.451-7.876 50.954-4.168 13.164-6.85 26.815-7.969 40.575l-13.793 169.472h-66.509c-4.143 0-7.5 3.358-7.5 7.5s3.357 7.5 7.5 7.5h65.288l-.687 8.436c-.62 7.625-7.099 13.598-14.749 13.598h-126.974c-7.65 0-14.13-5.973-14.75-13.599l-.687-8.436h57.56c4.143 0 7.5-3.358 7.5-7.5s-3.357-7.5-7.5-7.5h-58.78l-13.792-169.47c-1.109-13.618-3.756-27.268-7.97-40.575-5.227-16.502-7.876-33.646-7.876-50.954v-59.256h219.564v14.427c0 4.142 3.357 7.5 7.5 7.5s7.5-3.358 7.5-7.5v-53.753c.001-8.59-6.989-15.58-15.581-15.58zm-37.404-63.271c1.413-4.805 6.472-7.567 11.277-6.154 4.805 1.412 7.565 6.47 6.153 11.276l-17.089 58.149h-18.934zm-30.321 103.178 7.32-24.907h18.935l-7.32 24.907zm-8.314-24.907-7.32 24.907h-33.236c8.628-6.452 16.062-14.755 21.73-24.907zm-78.78 24.867c-2.161.301-4.252-1.261-4.592-3.395-1.109-6.971-1.116-14.134.215-21.472h46.496c-10.24 13.661-25.177 22.49-42.119 24.867zm-20.237-8.464c-6.367-4.514-11.907-10.047-16.448-16.403h17.1c-.786 5.39-.991 11.245-.652 16.403zm69.711-68.039c.188-.026.376-.039.562-.039 1.965 0 3.712 1.443 4.028 3.433l.001.001c1.816 11.406.541 22.796-3.565 33.241h-50.155c8.763-19.101 26.655-33.484 49.129-36.636zm-93.938-16.985c1.095-2.618 4.13-3.889 6.758-2.846 15.515 6.148 28.169 17.388 36.073 31.927-5.961 6.979-10.993 15.536-14.216 24.54h-29.017c-6.946-17.335-6.827-36.323.402-53.621zm-19.7 69.202c0-.32.261-.581.582-.581h9.215c5.263 9.634 12.248 18.04 20.594 24.907h-30.39v-24.326zm185.827 24.326 7.32-24.907h25.836c.321 0 .582.261.582.581v24.326z"/></g></svg>