<svg id="Capa_1" enable-background="new 0 0 511.976 511.976" height="512" viewBox="0 0 511.976 511.976" width="512" xmlns="http://www.w3.org/2000/svg"><g><path d="m357.739 221.252c-1.451-8.086-9.171-13.455-17.258-12.002l-83.388 14.979c-8.531 1.533-13.947 10.048-11.733 18.476v.001c13.389 50.919 61.99 84.506 114.122 79.364 8.643-.853 14.773-8.872 13.236-17.431-1.149-6.402-13.193-73.446-14.979-83.387zm-14.739 2.786 8.611 47.937c-25.348 1.203-48.762-14.88-56.55-39.326zm-83.113 14.929 20.316-3.649c9.327 32.352 40.226 54.042 74.075 51.507l3.651 20.324c-45.246 4.429-86.449-24.233-98.042-68.182z"/><path d="m388.426 5.673c-30.961-9.231-64.233-7.143-93.687 5.881-9.112 4.028-12.861 14.935-8.151 23.649l26.698 49.38h-185.075c-9.63 0-17.976 6.528-20.289 15.883l-58.073 234.886c-22.114 89.437 45.272 176.624 138.273 176.624h108.611c92.909 0 160.41-87.093 138.275-176.624l-40.762-164.869s-10.895-44.067-10.938-44.24c8.384-4.533 66.42-35.912 74.158-40.095 8.729-4.72 11.536-15.907 6.129-24.251-17.512-27.027-44.208-46.994-75.169-56.224zm-91.692 491.303h-108.611c-29.564 0-57.867-10.015-80.662-28.727h269.935c-22.774 18.694-51.067 28.727-80.662 28.727zm123.713-158.024c10.023 40.536-.122 82.652-27.63 114.298h-300.777c-27.619-31.781-37.611-73.925-27.63-114.298l39.354-159.171h47.888c-2.206 10.033 3.482 20.362 13.541 23.656l35.184 11.523c10.695 3.501 22.161-2.328 25.655-12.997h-.001l7.266-22.183h38.303c4.143 0 7.5-3.358 7.5-7.5s-3.357-7.5-7.5-7.5h-33.501c2.199-10.06-3.549-20.383-13.542-23.656l-35.184-11.523c-10.676-3.499-22.157 2.311-25.654 12.996l-7.266 22.183h-48.981l15.012-60.715c.652-2.64 3.007-4.483 5.727-4.483h193.186l17.081 31.593c4.325 8.002 14.558 11.434 23.017 6.862l8.185-4.425 7.707 31.169h-70.787c-4.143 0-7.5 3.358-7.5 7.5s3.357 7.5 7.5 7.5h74.493zm-202.935-159.171-5.736 17.515h-.001c-.917 2.803-3.93 4.329-6.731 3.409l-35.184-11.523c-2.808-.92-4.327-3.934-3.409-6.731l.875-2.669h50.186zm-45.274-15 5.736-17.514c.91-2.78 3.904-4.334 6.731-3.41l35.183 11.523c2.796.916 4.326 3.936 3.41 6.732l-.874 2.669zm166.211-65.198h18.199c2.72 0 5.074 1.843 5.727 4.483l3.586 14.504-11.601 6.272c-.834.45-1.849.237-2.442-.451-.087-.102-.171-.215-.244-.35zm41.142 11.618-2.654-10.735c-2.312-9.352-10.655-15.883-20.289-15.883h-26.309l-15.056-27.846c38.149-15.944 83.164-2.504 106.33 31.743zm70.742-38.249-15.49 8.375c-13.231-20.276-33.01-35.112-56.434-42.104-23.425-6.992-48.111-5.451-70.293 4.258l-8.333-15.413c-.572-1.057-.062-2.317 1.021-2.796 54.607-24.144 117.768-5.27 150.204 44.781.645.994.381 2.329-.675 2.899z"/><path d="m315.555 340.217-35.183-11.521c-10.659-3.492-22.152 2.292-25.655 12.996l-11.524 35.183c-3.489 10.656 2.341 22.165 12.997 25.656l35.184 11.523c10.723 3.511 22.17-2.356 25.655-12.998h-.001l11.524-35.183c3.489-10.655-2.34-22.164-12.997-25.656zm-1.257 20.989-11.523 35.183h-.001c-.92 2.811-3.941 4.328-6.731 3.41l-35.183-11.522c-2.796-.916-4.326-3.937-3.411-6.733l11.524-35.183c.923-2.819 3.947-4.324 6.731-3.409l35.183 11.521c2.795.915 4.326 3.936 3.411 6.733z"/><path d="m217.512 316.222c-4.103-.58-7.897 2.272-8.479 6.373-2.104 14.843-7.886 29.093-16.73 41.225l-15.649-13.46c19.223-27.724 16.386-65.436-6.769-89.973l13.46-15.65c12.374 12.503 20.862 28.228 24.547 45.478.866 4.052 4.856 6.628 8.901 5.769 4.051-.866 6.634-4.851 5.769-8.901-4.292-20.092-14.189-38.405-28.621-52.962-6.065-6.117-16.167-5.912-21.875.728-6.583 7.654-48.672 56.59-55.244 64.232-5.356 6.229-4.653 15.605 1.577 20.962l64.233 55.245c6.592 5.669 16.607 4.467 21.737-2.556 10.315-14.119 17.063-30.728 19.516-48.03.581-4.103-2.273-7.899-6.373-8.48zm-52.307 24.291-36.922-31.756 31.755-36.922c16.975 19.026 19.105 47.328 5.167 68.678z"/></g></svg>