<svg id="Capa_1" enable-background="new 0 0 511.959 511.959" height="512" viewBox="0 0 511.959 511.959" width="512" xmlns="http://www.w3.org/2000/svg"><g><path d="m179.243 396.468 13.971 36.147c4.162 10.767 16.307 16.143 27.075 11.981h.001l36.146-13.971c10.793-4.17 16.154-16.281 11.982-27.076l-13.971-36.146c-4.171-10.795-16.279-16.151-27.076-11.982l-36.147 13.971c-10.767 4.162-16.141 16.308-11.981 27.076zm17.389-13.085 36.147-13.97c3.067-1.184 6.497.343 7.677 3.397l13.971 36.146c1.183 3.059-.336 6.495-3.397 7.677l-36.147 13.971c-3.055 1.183-6.496-.344-7.677-3.396l-13.97-36.147c-1.18-3.054.343-6.498 3.396-7.678z"/><path d="m189.832 511.959h132.284c25.007 0 45.183-20.393 45.183-45.184v-238.154c0-4.143-3.357-7.5-7.5-7.5s-7.5 3.357-7.5 7.5v27.037l-27.91-17.233c-9.866-6.095-22.746-3.014-28.814 6.812l-8.885 14.389c-1.166.046-2.34.166-3.519.416h-.001l-37.917 8.008c-11.324 2.391-18.549 13.487-16.158 24.81l8.007 37.917c2.395 11.342 13.512 18.548 24.811 16.158l37.916-8.007c6.334-1.337 11.816-5.483 14.714-11.826 10.983 6.778 23.504 2.813 29.271-6.53l8.486-13.743v153.099h-41.717c-4.143 0-7.5 3.357-7.5 7.5s3.357 7.5 7.5 7.5h40.578c-3.604 12.717-15.379 22.031-29.044 22.031h-132.285c-13.643 0-25.434-9.294-29.044-22.031h114.794c4.143 0 7.5-3.357 7.5-7.5s-3.357-7.5-7.5-7.5h-115.933v-281.041h36.46l-16.343 29.905c-5.536 10.13-1.799 22.875 8.331 28.411l34.007 18.584c10.24 5.599 22.914 1.729 28.412-8.332l18.585-34.007c5.534-10.131 1.797-22.876-8.333-28.412l-11.255-6.15h102.786v14.734c0 4.143 3.357 7.5 7.5 7.5s7.5-3.357 7.5-7.5v-93.246c0-1.053-.108-2.081-.308-3.075 2.334-27.385-8.274-54.543-28.269-73.063-12.251-11.347-31.941-7.706-39.254 7.31-2.796 5.74-22.038 45.245-25.935 53.248h-58.536l-12.326-64.818c-2.535-13.336-15.375-22.074-28.713-19.538-13.337 2.537-22.073 15.381-19.537 28.713l10.581 55.643h-4.772c-8.592 0-15.581 6.99-15.581 15.581v366.401c0 24.72 20.106 45.183 45.183 45.183zm106.896-187.707-37.916 8.007c-3.205.676-6.355-1.364-7.035-4.582l-8.007-37.917c-.677-3.211 1.371-6.355 4.582-7.034l37.917-8.008h-.001c3.167-.659 6.359 1.377 7.036 4.583.921 4.362 7.322 34.674 8.007 37.917.677 3.21-1.372 6.355-4.583 7.034zm54.683-44.535-20.361 32.973c-1.721 2.788-5.37 3.659-8.169 1.933l-7.806-4.821-7.096-33.601v-.001c-.864-4.082-3.115-8.268-6.738-11.422-.022-.02-.043-.042-.066-.062l7.162-11.598c1.721-2.787 5.372-3.66 8.169-1.931l32.974 20.36c2.797 1.728 3.654 5.383 1.931 8.17zm.888-115.83h-24.707c9.834-6.53 18.181-14.891 24.707-24.726zm-39.344-125.773c2.891-5.938 10.699-7.389 15.574-2.873 14.39 13.327 22.522 31.113 23.698 49.578-.17-.006-.337-.026-.509-.026h-22.109c-1.203-12.091-6.74-23.645-16.2-32.407-1.69-1.565-3.627-2.737-5.705-3.491zm-12.554 25.776c.531-1.08 1.935-1.314 2.814-.499 6.187 5.73 9.999 13.366 11.157 21.402h-24.152zm-28.859 59.251 11.372-23.347h30.495c-4.982 17.795-22.808 28.721-40.525 25.874-1.2-.194-1.863-1.455-1.342-2.527zm57.322-23.347h22.782c-5.717 40.486-43.154 69.934-85.319 63.16-6.561-1.055-10.236-8.089-7.34-14.034l5.262-10.803c1.875 1.171 3.979 1.995 6.255 2.361 27.719 4.453 52.99-13.838 58.36-40.684zm-62.636 0c-2.027 4.162-9.555 19.619-20.727 42.558-3.35 6.876-3.364 14.675-.085 21.536h-15.376l-12.189-64.093h48.377zm-46.66 79.823 34.007 18.583c2.872 1.57 3.933 5.185 2.363 8.057l-18.584 34.006c-1.561 2.856-5.151 3.95-8.057 2.363l-34.007-18.584c-2.872-1.57-3.932-5.184-2.362-8.056l18.585-34.008c1.563-2.861 5.159-3.943 8.055-2.361zm-4.797-15.73h-19.459l-12.188-64.093h19.458zm-38.01-148.714c5.198-.986 10.19 2.419 11.175 7.604l11.793 62.016h-19.458l-11.114-58.446c-.988-5.19 2.414-10.185 7.604-11.174zm-17.112 85.202c0-.32.261-.581.581-.581h7.625l12.188 64.093h-20.394z"/></g></svg>