<svg id="Capa_1" enable-background="new 0 0 511.996 511.996" height="512" viewBox="0 0 511.996 511.996" width="512" xmlns="http://www.w3.org/2000/svg"><g><path d="m108.323 511.996h135.152c13.402 0 24.307-10.904 24.307-24.307 0-8.13 0-263.367 0-269.002 0-21.509-13.574-40.917-33.778-48.293-14.433-5.271-23.923-19.108-23.923-34.204v-68.738c5.231-3.459 8.693-9.386 8.693-16.113v-32.027c0-10.649-8.663-19.312-19.312-19.312h-47.126c-10.648 0-19.312 8.663-19.312 19.312v32.027c0 6.727 3.462 12.655 8.693 16.113v68.738c0 15.099-9.498 28.937-23.923 34.204-20.204 7.377-33.779 26.785-33.779 48.293v269.002c.001 13.403 10.905 24.307 24.308 24.307zm135.152-15h-135.152c-5.132 0-9.307-4.175-9.307-9.307v-71.543h56.062c4.143 0 7.5-3.358 7.5-7.5s-3.357-7.5-7.5-7.5h-56.062v-137.648h153.766v137.648h-62.704c-4.143 0-7.5 3.358-7.5 7.5s3.357 7.5 7.5 7.5h62.704v71.543c0 5.132-4.175 9.307-9.307 9.307zm-43.581-339.086c-6.996 4.915-15.334 7.572-23.995 7.572-8.66 0-16.998-2.658-23.995-7.572 3.134-6.715 4.814-14.308 4.814-21.72v-65.54h38.362v65.54c0 7.316 1.64 14.919 4.814 21.72zm-51.869-138.598c0-2.377 1.935-4.312 4.312-4.312h47.126c2.377 0 4.312 1.934 4.312 4.312v32.027c0 2.009-1.388 3.688-3.251 4.164-.125.032-.247.056-.367.078-.221.036-.445.067-.676.068-.006 0-.011.001-.017.001h-47.126l-.017-.001c-.231-.001-.455-.032-.676-.068-.12-.021-.242-.045-.367-.077-1.864-.476-3.252-2.154-3.252-4.164v-32.028zm-25.085 165.171c8.113-2.962 15.154-7.868 20.679-14.067 9.44 6.533 20.645 10.065 32.28 10.065 11.636 0 22.841-3.533 32.281-10.065 5.525 6.199 12.566 11.105 20.679 14.067 14.309 5.225 23.923 18.97 23.923 34.204v29.811h-153.766v-29.811c0-15.233 9.614-28.979 23.924-34.204z"/><path d="m233.733 332.322c0-15.715-12.785-28.5-28.5-28.5h-58.667c-15.715 0-28.5 12.785-28.5 28.5s12.785 28.5 28.5 28.5h58.667c15.715 0 28.5-12.785 28.5-28.5zm-100.667 0c0-7.444 6.056-13.5 13.5-13.5h58.667c7.444 0 13.5 6.056 13.5 13.5s-6.056 13.5-13.5 13.5h-58.667c-7.445 0-13.5-6.056-13.5-13.5z"/><path d="m343.932 415.916h4.957v81.081h-20.5c-4.143 0-7.5 3.358-7.5 7.5s3.357 7.5 7.5 7.5h56c4.143 0 7.5-3.358 7.5-7.5s-3.357-7.5-7.5-7.5h-20.5v-81.081h4.958c18.15 0 35.03-8.155 46.311-22.375 11.28-14.22 15.381-32.512 11.252-50.187 0-.002-4.846-20.74-4.846-20.74l-15.489-66.292c-1.753-7.501-8.358-12.741-16.062-12.741h-67.247c-7.703 0-14.309 5.239-16.062 12.741l-20.334 87.031c-4.128 17.671-.031 35.963 11.252 50.187 11.28 14.22 28.16 22.376 46.31 22.376zm-22.622-156.179c.159-.68.758-1.155 1.456-1.155h67.247c.698 0 1.297.475 1.455 1.154l13.337 57.085h-30.915c-4.143 0-7.5 3.358-7.5 7.5s3.357 7.5 7.5 7.5h34.42l3.492 14.946c3.082 13.189.021 26.84-8.396 37.451-8.418 10.611-21.014 16.697-34.559 16.697h-24.915c-13.545 0-26.141-6.086-34.559-16.697s-11.479-24.261-8.396-37.451l3.492-14.946h34.421c4.143 0 7.5-3.358 7.5-7.5s-3.357-7.5-7.5-7.5h-30.917z"/></g></svg>