<svg id="Capa_1" enable-background="new 0 0 512.005 512.005" height="512" viewBox="0 0 512.005 512.005" width="512" xmlns="http://www.w3.org/2000/svg"><g><path d="m320.824 8.764c-12.548-13.473-34.49-11.067-43.749 4.843-8.509 14.621-32.693 56.176-41.437 71.2h-75.387c-8.592 0-15.581 6.99-15.581 15.582v366.43c0 24.661 20.049 45.187 45.186 45.187h132.294c25.182 0 45.186-20.572 45.186-45.187v-53.634c0-4.143-3.357-7.5-7.5-7.5s-7.5 3.357-7.5 7.5v46.785h-78.833c-4.143 0-7.5 3.357-7.5 7.5s3.357 7.5 7.5 7.5h77.694c-3.604 12.718-15.38 22.035-29.047 22.035h-132.295c-13.644 0-25.437-9.296-29.046-22.035h77.693c4.143 0 7.5-3.357 7.5-7.5s-3.357-7.5-7.5-7.5h-78.832v-139.056c16.166.561 26.779-6.213 39.311-8.845l-1.181 15.333c-.412 5.347 1.283 10.535 4.774 14.607 3.49 4.073 8.357 6.543 13.706 6.954l36.176 2.785c11.006.856 20.709-7.36 21.563-18.479l1.015-13.181c14.684-5.523 25.212-12.192 41.557-7.098 18.629 5.806 24.355 8.318 35.745 7.923v57.271c0 4.143 3.357 7.5 7.5 7.5s7.5-3.357 7.5-7.5c0-4.49 0-273.291 0-277.796 0-8.592-6.989-15.582-15.581-15.582h-4.051c1.987-29.049-8.669-56.489-26.88-76.042zm-30.784 12.388c4.164-7.156 14.091-8.302 19.808-2.165 17.058 18.315 24.907 42.217 22.9 65.82h-28.156c1.982-16.417-3.212-33.233-15.096-45.992-1.988-2.135-4.386-3.717-7.009-4.685zm-16.537 28.415c1.064-1.823 3.577-2.075 5.016-.529 9.051 9.717 12.815 23.07 10.822 35.77h-36.347zm-38.012 65.315 8.773-15.075h39.682c-9.571 16.122-28.185 24.032-46.438 19.699-2.067-.491-3.072-2.805-2.017-4.624zm65.174-15.075h29.434c-12.177 45.263-57.501 72.647-103.242 61.782-8.124-1.931-12.091-11.094-7.902-18.292l7.552-12.976c2.137 1.803 4.698 3.104 7.536 3.779 27.82 6.609 55.745-7.847 66.622-34.293zm-15.555 113.353-14.757 5.83c-5.479 2.165-11.287 3.037-17.036 2.638.054-.078.092-.165.15-.24l22.092-28.784c1.706-2.222 4.902-2.643 7.124-.938l23.113 17.739c-7.036-.105-14.081 1.146-20.686 3.755zm24.398 11.497-19.194 25.009c-1.706 2.221-4.902 2.643-7.124.938l-18.919-14.52c3.933-.612 7.82-1.651 11.594-3.142l14.757-5.83c6.006-2.374 12.517-3.195 18.886-2.455zm-149.838-124.268c0-.321.261-.582.581-.582h66.658c-.728 1.252-2.128 3.657-20.918 35.945-5.148 8.847-4.949 19.466.384 28.154h-46.705zm0 78.518h108.944c-1.847 1.205-3.536 2.717-4.953 4.563l-22.093 28.784c-1.302 1.697-2.296 3.561-2.992 5.52-31.274-12.355-33.7-10.284-65.402-.407-4.364 1.361-8.947 1.917-13.504 1.698zm99.394 153.212c0 .001 0 .001 0 0-.216 2.798-2.644 4.88-5.455 4.676l-36.179-2.785c-1.353-.104-2.584-.729-3.468-1.76-.883-1.03-1.312-2.343-1.208-3.695l1.285-16.685c13.752 2.496 24.938 13.009 45.693 11.564zm1.837-23.864c-18.23 2.319-27.859-8.681-45.706-11.394l.346-4.486c.215-2.784 2.633-4.883 5.455-4.676l36.179 2.786c2.804.217 4.891 2.662 4.675 5.455zm91.435-2.329c-4.563.219-9.14-.356-13.504-1.716-29.184-9.094-33.776-12.088-62.519-.732l.491-6.384c.854-11.062-7.41-20.713-18.479-21.563l-36.179-2.786c-11.035-.855-20.709 7.391-21.562 18.479l-.42 5.452c-14.314 1.821-26.5 9.928-40.496 9.25v-71.831c6.069.21 12.155-.597 17.966-2.408l17.779-5.539c18.447-5.747 30.148 3.64 44.555 8.127 1.315 2.354 3.099 4.443 5.303 6.134l28.784 22.092c8.798 6.753 21.397 5.102 28.155-3.703l22.092-28.784c.299-.39.566-.797.834-1.203 9.987 3.112 16.443 5.658 27.198 5.284v71.831zm0-86.861c-8.518.409-13.226-1.611-24.262-5.05-.921-4.843-3.531-9.13-7.473-12.156l-28.785-22.093c-.405-.311-.826-.584-1.246-.859h61.766zm-.581-119.258c.32 0 .581.261.581.582v63.518h-52.553c24.144-14.786 40.02-38.596 45.739-64.1z"/></g></svg>