<svg id="Capa_1" enable-background="new 0 0 511.963 511.963" height="512" viewBox="0 0 511.963 511.963" width="512" xmlns="http://www.w3.org/2000/svg"><g><path d="m128.671 316.565c23.835 23.018 60.869 38.067 90.119 44.025 12.97 29.849 7.256 63.637-12.464 87.426-5.56 6.708-13.75 10.555-22.47 10.555-17.905 0-32.473 14.567-32.473 32.473 0 11.535 9.384 20.919 20.918 20.919h66.18c4.143 0 7.5-3.357 7.5-7.5s-3.357-7.5-7.5-7.5h-66.18c-3.264 0-5.918-2.655-5.918-5.919 0-9.635 7.838-17.473 17.473-17.473 13.2 0 25.6-5.825 34.019-15.982 22.133-26.701 28.366-62.641 17.97-94.335 13.479 1.47 26.791 1.469 40.274-.001-10.413 31.745-4.13 67.678 17.969 94.336 8.419 10.157 20.818 15.982 34.019 15.982 9.635 0 17.474 7.838 17.474 17.473 0 3.264-2.655 5.919-5.919 5.919h-66.18c-4.143 0-7.5 3.357-7.5 7.5s3.357 7.5 7.5 7.5h66.18c11.535 0 20.919-9.384 20.919-20.919 0-17.905-14.567-32.473-32.474-32.473-8.72 0-16.91-3.847-22.47-10.555-20.095-24.241-25.196-58.121-12.463-87.427 29.67-6.043 66.421-21.141 90.118-44.025 23.616-22.806 33.478-51.27 29.312-84.601-.051-.402-8.627-43.464-8.706-43.862-.809-4.062-4.753-6.704-8.818-5.893-4.062.808-6.701 4.756-5.893 8.818l5.307 26.678c-10.794 2.683-22.591 2.811-33.52.324l-22.791-5.19c-14.182-3.229-29.604-2.808-43.433 1.183l-18.919 5.461c-12.801 3.695-26.899 3.695-39.698 0l-18.92-5.461c-13.827-3.99-29.252-4.411-43.432-1.183l-22.792 5.19c-10.926 2.488-22.726 2.364-33.52-.318l16.214-81.504c28.73.463 48.284-15.352 79.369-6.378 21.459 6.194 39.264 13.449 66.938 5.461 18.499-5.34 33.165-11.368 54.861-6.43 24.339 5.542 30.554 7.529 43.428 7.344l4.077 20.495c.809 4.062 4.752 6.706 8.818 5.893 4.062-.808 6.701-4.756 5.893-8.818l-5.333-26.812c-.002-.008-.003-.017-.005-.025l-8.111-40.778c-1.628-8.184-8.865-14.123-17.209-14.123h-12.947c2.567-11.451 2.964-23.408 1.058-35.373-1.834-11.518-12.717-19.562-24.271-17.949-19.919 2.794-37.948 11.657-52.097 25.343-7.063-16.278-18.655-30.34-33.517-40.391-9.659-6.536-22.981-4.094-29.692 5.445-13.058 18.556-18.863 40.632-16.704 62.926h-52.686c-8.344 0-15.581 5.939-17.208 14.123-.093.468-28.926 145.332-28.985 145.806-4.166 33.331 5.695 61.795 29.311 84.6zm121.446-193.179c-3.886-.311-7.728-.926-11.413-1.832-10.469-9.474-18.02-21.251-22.197-34.518h36.115c-3.286 12.08-4.007 24.446-2.505 36.35zm116.293-36.35c1.211 0 2.261.861 2.497 2.049l6.385 32.098c-13.669-.334-30.456-6.092-42.743-8.024 6.867-7.865 12.304-16.692 16.186-26.122h17.675zm-34.077-53.467c.302-.043.603-.063.9-.063 3.157 0 5.965 2.319 6.475 5.517 1.785 11.208 1.147 22.403-1.723 33.014h-62.905c12.132-20.695 32.673-35.02 57.253-38.468zm-64.02 53.467h63.899c-4.836 9.513-11.52 18.108-20.258 25.306-18.091 1.382-31.865 8.839-46.728 10.704-1.735-11.87-.855-24.181 3.087-36.01zm-41.103-69.293c2.038-2.899 6.087-3.639 9.021-1.653 14.545 9.836 25.374 24.234 30.786 40.826-3.305 4.582-6.454 9.934-8.884 15.12h-44.794c-2.207-19.212 2.62-38.307 13.871-54.293zm-84.153 71.342c.235-1.188 1.285-2.049 2.496-2.049h55.359c2.554 9.791 6.613 18.956 12.048 27.289-32.66-7.555-52.617 6.28-76.289 6.858zm-28.846 145.005.331-1.665c12.858 3.076 26.829 3.181 39.776.23l22.792-5.19c11.747-2.674 24.513-2.33 35.941.97l18.92 5.461c15.545 4.486 32.598 4.452 48.019 0l18.919-5.461c11.431-3.299 24.195-3.643 35.942-.97l22.791 5.19c12.947 2.949 26.919 2.845 39.777-.23l.331 1.664c7.697 62.844-44.717 93.032-90.081 107.291-32.877 10.336-68.925 10.831-103.378 0-45.363-14.259-97.778-44.446-90.08-107.29z"/></g></svg>