<svg id="Capa_1" enable-background="new 0 0 511.996 511.996" height="512" viewBox="0 0 511.996 511.996" width="512" xmlns="http://www.w3.org/2000/svg"><g><path d="m439.245 68.078h-50.442c-4.143 0-7.5 3.357-7.5 7.5s3.357 7.5 7.5 7.5h49.396l-17.117 24.179-11.003 4.381c-17.017 6.775-29.083.952-47.836-4.892-22.092-6.885-37.163.909-54.433 7.731-9.398 3.713-19.68 3.981-29.211.821 11.954-7.52 21.12-18.988 25.933-32.221h49.271c4.143 0 7.5-3.357 7.5-7.5s-3.357-7.5-7.5-7.5h-45.824c.571-5.504.438-11.12-.457-16.741-1.416-8.897-9.84-15.113-18.749-13.866-19.897 2.792-36.296 14.335-45.989 30.607h-27.323c-5.328-38.405-38.359-68.077-78.209-68.077-43.55 0-78.98 35.431-78.98 78.98s35.431 78.98 78.98 78.98c13.297 0 25.828-3.317 36.833-9.145l75.869 107.173c2.653 3.749 5.725 7.048 9.114 9.89v18.488c0 15.613 10.904 28.717 25.494 32.124v143.968h-53.47c-14.209 0-25.77 11.56-25.77 25.769s11.561 25.77 25.77 25.77h42.492c4.143 0 7.5-3.357 7.5-7.5s-3.357-7.5-7.5-7.5h-42.492c-5.938 0-10.77-4.831-10.77-10.77 0-5.938 4.831-10.769 10.77-10.769h121.94c5.938 0 10.77 4.831 10.77 10.769s-4.831 10.77-10.77 10.77h-44.448c-4.143 0-7.5 3.357-7.5 7.5s3.357 7.5 7.5 7.5h44.448c14.209 0 25.77-11.561 25.77-25.77s-11.561-25.769-25.77-25.769h-53.471v-143.968c14.591-3.406 25.495-16.511 25.495-32.124v-18.488c3.506-2.941 6.5-6.196 9.114-9.89l116.877-165.098c6.772-9.568-.084-22.812-11.802-22.812zm-148.387-15.752c.887-.121 1.713.49 1.852 1.369.771 4.838.814 9.672.168 14.383h-31.569c7.659-8.586 17.993-14.132 29.549-15.752zm-38.747 30.752h36.107c-5.82 11.638-15.935 20.638-28.845 24.718-3.354-1.255-7.243-2.266-10.297-2.799-.694-7.535.358-14.995 3.035-21.919zm-35.984 0h20.178c-1.962 6.858-2.761 14.032-2.317 21.284-4.091.36-8.152 1.153-12.105 2.385l-12.263 3.821c3.723-8.496 6.007-17.759 6.507-27.49zm-78.875 59.883c-35.279 0-63.98-28.701-63.98-63.98s28.701-63.981 63.98-63.981c31.562 0 57.84 22.977 63.032 53.078h-19.033c-4.895-19.747-22.76-34.431-43.999-34.431-24.997 0-45.333 20.336-45.333 45.333s20.336 45.334 45.333 45.334c6.052 0 11.826-1.201 17.108-3.363l10.974 15.501c-8.483 4.163-18.012 6.509-28.082 6.509zm-4.172-52.07 12.261 17.32c-2.577.714-5.288 1.104-8.089 1.104-16.726 0-30.333-13.607-30.333-30.334 0-16.726 13.607-30.333 30.333-30.333 12.883 0 23.909 8.077 28.298 19.431h-20.669c-5.427 0-10.348 2.994-12.841 7.813-2.494 4.821-2.096 10.567 1.04 14.999zm34.221-7.813c-.932 6.866-4.166 13.007-8.901 17.619l-12.473-17.619zm10.648 45.235-10.818-15.282c8.499-7.467 14.188-18.052 15.26-29.953h18.696c-1.155 18.17-9.913 34.306-23.138 45.235zm132.109 156.053c0 9.922-8.072 17.994-17.994 17.994-9.923 0-17.995-8.072-17.995-17.994v-9.769c1.438.53 2.909.979 4.398 1.379 10.875 2.919 21.841 2.212 31.591-1.379zm11.872-37.044c-7.082 10-18.206 15.45-29.867 15.449-11.432 0-22.669-5.283-29.866-15.449l-61.013-86.188h181.758zm71.63-101.187h-202.995l-3.92-5.538c4.284-3.432 8.189-7.289 11.674-11.533 5.648-.831 7.102-1.476 28.027-7.996 17.045-5.308 28.27.967 44.46 7.362 13.709 5.415 28.809 5.414 42.516 0 16.44-6.495 27.511-12.643 44.459-7.362 19.391 6.042 30.56 11.078 48.303 7.377z"/></g></svg>