<svg id="Capa_1" enable-background="new 0 0 511.996 511.996" height="512" viewBox="0 0 511.996 511.996" width="512" xmlns="http://www.w3.org/2000/svg"><g><path d="m427.633 85.056h-12.989c-4.143 0-7.5 3.357-7.5 7.5s3.357 7.5 7.5 7.5h12.989c.915 0 1.503.481 1.772.769.314.335.678.905.626 1.717-.352 5.475-.963 10.876-1.808 16.197h-49.933c-.058-.134-.122-.265-.176-.4v.001c-2.717-6.86-6.682-13.032-11.579-18.283h13.109c4.143 0 7.5-3.357 7.5-7.5s-3.357-7.5-7.5-7.5h-31.315c4.821-6.349 7.688-14.257 7.688-22.825 0-20.856-16.969-37.825-37.825-37.825-15.137 0-28.219 8.942-34.26 21.817-9.458-6.275-20.541-9.651-32.167-9.651-4.957 0-9.821.651-14.5 1.867-14.229-23.863-39.644-38.44-67.777-38.44-43.55 0-78.98 35.431-78.98 78.98 0 2.035.096 4.06.251 6.075h-6.395c-4.798 0-9.432 2.008-12.715 5.508-3.262 3.479-4.958 8.194-4.653 12.938 6.197 96.541 84.501 173.137 181.503 176.944v182.693h-36.307c-13.47 0-24.429 10.959-24.429 24.429s10.959 24.429 24.429 24.429h26.307c4.143 0 7.5-3.357 7.5-7.5s-3.357-7.5-7.5-7.5h-26.307c-5.199 0-9.429-4.229-9.429-9.429s4.229-9.429 9.429-9.429h87.613c5.198 0 9.428 4.229 9.428 9.429s-4.229 9.429-9.428 9.429h-26.307c-4.143 0-7.5 3.357-7.5 7.5s3.357 7.5 7.5 7.5h26.307c13.47 0 24.428-10.959 24.428-24.429s-10.958-24.429-24.428-24.429h-36.307v-182.692c97.131-3.816 175.312-80.523 181.502-176.944.305-4.744-1.392-9.461-4.654-12.938-3.282-3.501-7.916-5.508-12.713-5.508zm-132.154-25.077c0-.003 0-.006 0-.009 1.139-11.529 10.889-20.565 22.712-20.565 12.586 0 22.825 10.239 22.825 22.825 0 12.643-10.3 22.825-22.825 22.825-13.354.001-24.033-11.52-22.712-25.076zm45.67 40.077c8.656 3.785 15.939 10.342 20.588 18.683h-219.948c4.531-8.216 11.825-14.853 20.62-18.683zm-201.383-15c-.403-1.98-.611-4.013-.611-6.075 0-16.726 13.607-30.333 30.333-30.333 13.605 0 25.512 9.125 29.176 22.014-1.541 3.365-1.669 4.704-3.411 6.791-2.465 2.951-6.287 4.578-10.392 4.209-8.538-.745-17.304.377-25.489 3.395h-19.606zm111.999-33.485c10.647 0 20.688 3.8 28.602 10.764.023 8.071 2.634 16.049 7.686 22.721h-79.761c1.171-1.717 2.168-3.587 2.941-5.605 6.333-16.528 22.528-27.88 40.532-27.88zm-82.277-36.571c21.968 0 41.898 10.972 53.633 29.078-5.515 3.108-10.458 7.091-14.67 11.749-8-13.408-22.663-22.179-38.963-22.179-24.997 0-45.333 20.336-45.333 45.333 0 2.048.145 4.075.413 6.075h-18.761c-.192-2.012-.3-4.038-.3-6.075 0-35.28 28.701-63.981 63.981-63.981zm-36.899 90.308c-2.879 3.953-5.304 8.314-7.172 13.03-.054.135-.118.267-.176.4h-5.862c-4.483-5.644-7.951-11.964-10.298-18.683h20.263c.956 1.816 2.04 3.57 3.245 5.253zm-50.625-2.767c-.052-.812.312-1.381.626-1.717.27-.287.858-.769 1.773-.769h9.01c1.811 6.535 4.472 12.81 7.899 18.683h-17.5c-.845-5.321-1.456-10.722-1.808-16.197zm174.035 163.061c-80.584 0-149.863-55.358-169.151-131.863h338.302c-19.167 76.247-88.344 131.863-169.151 131.863z"/></g></svg>