<svg id="Capa_1" enable-background="new 0 0 511.983 511.983" height="512" viewBox="0 0 511.983 511.983" width="512" xmlns="http://www.w3.org/2000/svg"><g><path d="m404.695 105.375h-37.46c-4.143 0-7.5 3.357-7.5 7.5s3.357 7.5 7.5 7.5h37.46c2.124 0 3.466 1.137 4.075 1.814.61.678 1.602 2.131 1.38 4.244l-5.919 56.382h-75.912l-6.327-14.044c-8.83-19.601-31.835-28.319-51.439-19.487l-21.44 9.659c-.302-9.495-3.125-18.886-8.146-26.056-4.71-6.728-10.854-10.955-18.052-12.512h109.319c4.143 0 7.5-3.357 7.5-7.5s-3.357-7.5-7.5-7.5h-119.994c-.45-9.183-3.245-18.15-8.073-25.046-10.58-15.11-27.908-17.303-47.202-6.383l-16.105-23c8.934-10.275 10.311-25.876 1.942-37.829-9.737-13.905-28.973-17.296-42.882-7.56-13.905 9.738-17.297 28.975-7.56 42.881 8.389 11.98 23.503 15.976 36.203 11.101l16.114 23.012c-8.368 7.145-13.527 14.939-15.314 22.825h-12.842c-5.796 0-11.345 2.471-15.223 6.777-3.879 4.307-5.757 10.083-5.151 15.848.685 6.525 35.307 336.326 36.273 345.53 2.301 21.921 20.658 38.452 42.7 38.452h170.975c22.041 0 40.398-16.531 42.699-38.452 1.679-15.997 34.945-332.874 36.273-345.53.605-5.765-1.272-11.541-5.151-15.849-3.877-4.307-9.425-6.777-15.221-6.777zm-127.982 57.585c12.067-5.432 26.189-.046 31.604 11.972l3.552 7.884h-79.23l10.819-4.874.003-.002zm-89.283-32.448s-.007.005-.01.007c0 0-.006.004-.009.006-12.134 8.487-32.46 1.576-40.594-10.04-.026-.037-.046-.073-.071-.109h48.366c-1.627 4.098-4.159 7.666-7.682 10.136zm-10.921 77.59 22.833-10.286h119.284l34.833 77.32c5.424 12.044.072 26.177-11.973 31.603l-100.203 45.143c-12.013 5.41-26.19.041-31.604-11.973l-45.142-100.205c-5.411-12.013-.04-26.19 11.972-31.602zm52.171-66.611c4.448 6.353 6.358 15.774 5.107 24.356l-37.667 16.969h-.815c-4.884-2.502-8.997-5.933-11.687-9.773-8.364-11.945 2.117-23.028 12.39-30.226.005-.004.011-.007.016-.011.003-.002.007-.005.01-.008 7.203-5.042 13.989-7.838 19.623-8.088 5.474-.227 9.615 1.912 13.023 6.781zm-124.032-101.657c-4.993-7.132-3.254-16.996 3.877-21.99 7.15-5.004 16.985-3.272 21.99 3.878 5.006 7.148 3.271 16.984-3.877 21.989-7.133 4.995-16.997 3.255-21.99-3.877zm54.575 50.414c10.279-7.198 24.287-13.268 32.656-1.315 3.122 4.459 4.973 10.371 5.389 16.442h-52.121c2.562-5.9 8.351-11.117 14.076-15.127zm-46.778 31.943c.61-.679 1.951-1.815 4.076-1.815h13.572c.978 2.952 2.446 5.867 4.438 8.713 7.437 10.621 21.13 18.391 35.129 19.896-6.057 10.8-5.658 22.193 1.672 32.662.278.397.592.78.888 1.17h-55.235l-5.919-56.382c-.223-2.114.769-3.567 1.379-4.244zm261.432 349.773c-1.497 14.263-13.44 25.019-27.781 25.019h-170.975c-14.341 0-26.285-10.756-27.782-25.019l-2.685-25.574h98.248c4.143 0 7.5-3.357 7.5-7.5s-3.357-7.5-7.5-7.5h-99.822c-1.097-10.451-23.47-223.56-24.521-233.574h45.777c-15.236 10.436-21.319 30.635-13.473 48.049l45.142 100.204c8.811 19.56 31.891 28.296 51.44 19.488l100.203-45.143c19.602-8.829 28.318-31.836 19.487-51.438l-32.057-71.16h67.579l-24.52 233.574h-100.235c-4.143 0-7.5 3.357-7.5 7.5s3.357 7.5 7.5 7.5h98.659z"/></g></svg>