<svg id="Capa_1" enable-background="new 0 0 511.995 511.995" height="512" viewBox="0 0 511.995 511.995" width="512" xmlns="http://www.w3.org/2000/svg"><g><path d="m190.327 212.658h-43c-4.143 0-7.5 3.358-7.5 7.5s3.357 7.5 7.5 7.5h43c4.143 0 7.5-3.358 7.5-7.5s-3.358-7.5-7.5-7.5z"/><path d="m321.668 306.062v172.342c0 18.522 15.069 33.592 33.592 33.592h83.816c18.522 0 33.592-15.069 33.592-33.592 0-6.423 0-161.221 0-172.342 0-8.592-6.991-15.583-15.584-15.583h-119.833c-8.592 0-15.583 6.99-15.583 15.583zm117.409 190.933h-83.817c-10.252 0-18.592-8.34-18.592-18.592v-7.925h121v7.925c0 10.252-8.339 18.592-18.591 18.592zm18.591-190.933v47.917h-43c-4.143 0-7.5 3.358-7.5 7.5s3.357 7.5 7.5 7.5h43v86.5h-121v-86.5h43c4.143 0 7.5-3.358 7.5-7.5s-3.357-7.5-7.5-7.5h-43v-47.917c0-.305.278-.583.583-.583h119.833c.306 0 .584.277.584.583z"/><path d="m76.661 511.995h184.333c20.586 0 37.333-16.748 37.333-37.333 0-6.76 0-50.44 0-57.218 0-4.142-3.357-7.5-7.5-7.5s-7.5 3.358-7.5 7.5v46.38h-229v-121.167h33v43.001c0 27.846 22.654 50.5 50.5 50.5h62c27.846 0 50.5-22.654 50.5-50.5v-43.001h33v39.787c0 4.142 3.357 7.5 7.5 7.5s7.5-3.358 7.5-7.5c0-2.153 0-175.637 0-179.786 0-51.142-29.124-74.837-76.299-90.99-6.596-2.258-11.028-8.468-11.028-15.451v-26.285c7.717-2.448 13.326-9.675 13.326-18.192v-32.657c.001-10.522-8.56-19.083-19.082-19.083h-72.834c-10.522 0-19.083 8.561-19.083 19.083v32.658c0 8.517 5.61 15.745 13.327 18.192v26.284c0 6.983-4.432 13.193-11.027 15.451-47.144 16.142-76.3 39.795-76.3 90.99v272.004c0 20.586 16.748 37.333 37.334 37.333zm-2.107-15.102c-9.958-.937-18.041-8.473-19.833-18.069h228.21c-1.938 10.382-11.144 18.171-21.938 18.171-194.309 0-184.828.05-186.439-.102zm160.773-111.235c0 19.575-15.925 35.5-35.5 35.5h-62c-19.575 0-35.5-15.925-35.5-35.5v-43.001h133zm-181-58.001v-59h229v59c-4.826 0-221.567 0-229 0zm181-74h-133v-42.999c0-19.575 15.925-35.5 35.5-35.5h62c19.575 0 35.5 15.925 35.5 35.5zm-107-234.574c0-2.251 1.832-4.083 4.083-4.083h72.834c2.251 0 4.083 1.832 4.083 4.083v32.658c0 2.251-1.832 4.083-4.083 4.083-6.299 0-64.153 0-72.834 0-2.251 0-4.083-1.832-4.083-4.083zm-7.841 106.776c12.661-4.335 21.168-16.248 21.168-29.643v-25.392h54.346v25.393c0 13.395 8.507 25.307 21.168 29.643 39.711 13.597 66.158 31.86 66.158 76.798v50.999h-33v-42.999c0-27.846-22.654-50.5-50.5-50.5h-62c-27.846 0-50.5 22.654-50.5 50.5v42.999h-33v-50.999c.001-44.939 26.449-63.202 66.16-76.799z"/></g></svg>