<svg id="Capa_1" enable-background="new 0 0 512 512" height="512" viewBox="0 0 512 512" width="512" xmlns="http://www.w3.org/2000/svg"><g><path d="m451.267 240.64v-180.211h-52.507c-24.319-36.403-65.778-60.429-112.748-60.429-74.717 0-135.504 60.787-135.504 135.504 0 15.792 2.725 30.958 7.714 45.063h-82.47v-105.119h71.078l8.015-15.019h-94.112v451.571h390.535v-256.341h-15.019v120.959c0 32.713-26.614 59.326-59.326 59.326h-241.845c-32.713 0-59.326-26.614-59.326-59.326v-181.031h88.829c3.341 6.725 7.223 13.135 11.592 19.173l-85.957 85.957 95.583 95.583 95.582-95.583-35.903-35.904c12.805 4.023 26.421 6.195 40.535 6.195 22.435 0 43.611-5.486 62.266-15.179 14.934 26.143 11.545 58.991-8.674 81.655-6.856-4.229-14.923-6.675-23.553-6.675-24.816 0-45.005 20.189-45.005 45.005s20.189 45.005 45.005 45.005 45.005-20.189 45.005-45.005c0-10.778-3.812-20.681-10.154-28.438 24.509-27.554 28.553-67.476 10.305-99.201 19.635-13.147 35.654-31.287 46.237-52.587h28.805v45.053h15.017zm-316.189 210.324h241.843c24.207 0 45.743-11.634 59.326-29.599v75.616h-360.495v-75.616c13.584 17.965 35.12 29.599 59.326 29.599zm180.973-45.165c-16.534 0-29.985-13.451-29.985-29.985s13.451-29.985 29.985-29.985 29.985 13.451 29.985 29.985-13.451 29.985-29.985 29.985zm-55.911-105.082-74.342 74.342-74.342-74.342 74.227-74.227zm25.872-44.728c-66.098.188-120.673-54.387-120.485-120.485 0-66.436 54.049-120.485 120.485-120.485s120.485 54.049 120.485 120.485-54.049 120.485-120.485 120.485zm127.791-75.421c4.989-14.105 7.714-29.271 7.714-45.063 0-21.555-5.067-41.945-14.06-60.056h28.792v105.119z"/><path d="m286.012 30.326c-57.995 0-105.178 47.183-105.178 105.178s47.183 105.178 105.178 105.178 105.178-47.183 105.178-105.178-47.183-105.178-105.178-105.178zm-81.553 143.592c-5.515-11.66-8.605-24.682-8.605-38.414s3.091-26.753 8.605-38.414l66.534 38.414zm74.043 51.43c-27.513-2.28-51.556-16.965-66.512-38.435l66.512-38.401zm0-102.851-66.512-38.401c14.956-21.47 39-36.155 66.512-38.435zm15.02-76.836c27.513 2.28 51.556 16.965 66.512 38.435l-66.512 38.401zm0 179.687v-76.836l66.512 38.401c-14.956 21.469-39 36.155-66.512 38.435zm82.649-89.844c0 13.732-3.091 26.753-8.605 38.414l-66.534-38.414 66.534-38.414c5.514 11.661 8.605 24.683 8.605 38.414z"/><path d="m177.617 252.658h15.536v15.019h-15.536z" transform="matrix(.707 -.707 .707 .707 -129.668 207.288)"/><path d="m301.031 368.304h15.019v15.019h-15.019z"/><path d="m91.112 465.93h15.019v15.019h-15.019z"/><path d="m120.767 465.93h15.019v15.019h-15.019z"/></g></svg>