<svg id="Capa_1" enable-background="new 0 0 512 512" height="512" viewBox="0 0 512 512" width="512" xmlns="http://www.w3.org/2000/svg"><g><path d="m478.903 33.165c-21.343-21.384-49.723-33.165-79.905-33.165-30.184 0-58.562 11.778-79.906 33.165l-5.305 5.317 37.588 37.665h-351.375l72.006 123.887 12.967-7.568-32.886-56.581h343.954l-83.557 142.966c-19.889 29.602-52.471 47.062-88.515 47.062s-68.626-17.46-88.515-47.062l-42.693-73.001-12.969 7.567 42.891 73.339 26.966 46.288c26.265 45.083 20.678 101.606-13.901 140.649l-33.928 38.307h168.173v-15.038h-134.789l11.767-13.287c21.28-24.027 32.774-53.939 34.006-84.408h85.985c1.233 30.469 12.727 60.381 34.006 84.408l11.767 13.287h-27.734v15.038h61.118l-33.926-38.307c-34.58-39.044-40.167-95.566-13.901-140.649l26.976-46.303 87.256-149.319 61.073 61.199 5.306-5.317c21.342-21.388 33.097-49.823 33.097-80.07 0-30.246-11.755-58.681-33.097-80.069zm-211.714 351.063h-86.439c-1.448-20.741-7.786-41.478-18.958-60.169 18.398 10.922 39.692 16.892 62.176 16.892h.001c22.483 0 43.78-5.971 62.178-16.893-11.171 18.692-17.51 39.428-18.958 60.17zm-223.842-263.381-17.24-29.661h340.274l29.601 29.661zm351.632-22.273-37.612-37.69c15.649-12.429 35.589-16.866 54.299-13.289zm14.453 4.093 16.564-50.603c7.423 3.26 14.378 7.911 20.445 13.99 5.99 6.002 10.591 12.872 13.838 20.203zm4.083 14.481 51.289-16.552c3.677 18.837-.731 38.95-13.202 54.717zm59.88 60.004-11.121-11.144c26.674-32.289 24.942-80.364-5.219-110.587-30.163-30.224-78.137-31.959-110.361-5.231l-11.485-11.509c17.751-15.298 40.13-23.643 63.788-23.643 26.175 0 50.784 10.214 69.292 28.761 36.426 36.499 38.129 94.816 5.106 133.353z"/><path d="m97.408 151.136h15.007v15.038h-15.007z"/><path d="m127.423 151.136h15.007v15.038h-15.007z"/></g></svg>