<svg id="Capa_1" enable-background="new 0 0 512 512" height="512" viewBox="0 0 512 512" width="512" xmlns="http://www.w3.org/2000/svg"><g><path d="m144.894 120.764h15.008v15.008h-15.008z"/><path d="m174.911 120.764h15.008v15.008h-15.008z"/><path d="m414.101 33.046c-44.063-44.061-115.756-44.063-159.818 0l-5.306 5.306 22.028 22.028h-206.205l140.127 260.506v40.01h15.008v-37.542h15.008v154.333l41.777 19.304h-98.562l41.777-19.304v-101.783h-15.008v92.185l-60.033 27.74v16.171h165.09v-16.17l-60.033-27.74v-147.204l44.389-82.522c.004-.007.008-.014.011-.021l20.981-39.004-13.218-7.109-20.987 39.017c-10.647 19.785-31.219 32.075-53.688 32.075-22.474 0-43.048-12.295-53.694-32.087l-67.478-125.446h210.145l20.938 20.938-27.162 50.496 13.218 7.109 25.025-46.523 60.363 60.364 5.307-5.306c21.344-21.345 33.099-49.723 33.099-79.909 0-30.188-11.755-58.567-33.099-79.912zm-186.662 245.283c11.346 0 22.303-2.516 32.207-7.148l-19.99 37.164h-24.432l-19.991-37.165c9.903 4.633 20.86 7.149 32.206 7.149zm-129.245-187.549-8.279-15.392h196.098l15.392 15.392zm231.979 7.544-37.617-37.617c11.809-9.383 26.327-14.491 41.635-14.491 4.304 0 8.543.413 12.68 1.2zm14.454 4.085 16.575-50.534c7.523 3.31 14.449 8.008 20.436 13.995 5.99 5.99 10.592 12.846 13.839 20.163zm4.082 14.452 51.291-16.519c3.677 18.799-.732 38.871-13.203 54.607zm59.884 59.884-11.122-11.122c26.675-32.224 24.943-80.203-5.22-110.366-15.509-15.508-36.127-24.049-58.06-24.049-19.324 0-37.624 6.638-52.312 18.822l-11.477-11.476c38.458-33.023 96.658-31.321 133.085 5.105 36.421 36.426 38.129 94.628 5.106 133.086z"/><path d="m268.795 120.977c-.471 16.671-6.773 32.002-17.82 44.389-6.851-4.226-14.913-6.67-23.536-6.67-24.797 0-44.971 20.174-44.971 44.971s20.174 44.971 44.971 44.971c24.798 0 44.972-20.174 44.972-44.971 0-10.77-3.809-20.665-10.147-28.417 13.347-15.011 20.962-34.088 21.533-54.273zm-41.356 112.653c-16.522 0-29.963-13.441-29.963-29.963s13.441-29.963 29.963-29.963 29.964 13.441 29.964 29.963-13.442 29.963-29.964 29.963z"/><path d="m212.431 196.163h15.008v15.008h-15.008z"/></g></svg>