<svg id="Capa_1" enable-background="new 0 0 512 512" height="512" viewBox="0 0 512 512" width="512" xmlns="http://www.w3.org/2000/svg"><g><path d="m435.999 46.023v15h30.239c-.36 10.199-1.462 20.212-3.236 29.995h-114.223l29.995-29.995h42.226v-15h-27.226l35.416-35.416-10.608-10.607-46.022 46.023h-341.931v7.5c0 60.178 23.445 116.704 66.016 159.166 37.198 37.103 85.14 59.628 136.855 64.702v83.599h15v-82.636h15v202.816h36.67c10.242 0 18.963 6.634 22.094 15.83h-132.527c3.131-9.196 11.852-15.83 22.094-15.83h36.67v-105.18h-15v90.18h-21.67c-21.136 0-38.33 17.195-38.33 38.33v7.5h164.999v-7.5c0-21.135-17.194-38.33-38.33-38.33h-21.67v-188.779c51.715-5.074 99.657-27.6 136.855-64.702 42.571-42.462 66.016-98.989 66.016-159.166v-7.5zm-139.589 76.15 10.606 10.607c14.238 13.63 3.553 38.905-15.91 38.399-5.762 0-11.522-2.192-15.909-6.579l-10.606-10.607c-7.097-6.846-17.45 3.516-10.607 10.607l10.607 10.607c20.36 21.704-10.139 52.171-31.82 31.82l-26.103-26.104 10.606-10.607 26.103 26.104c7.109 6.833 17.446-3.502 10.606-10.607 0 0-10.606-10.606-10.606-10.606-8.772-8.773-8.773-23.047 0-31.82 8.773-8.772 23.047-8.773 31.82 0l10.607 10.607c7.081 6.844 17.458-3.512 10.606-10.607 0 0-10.606-10.606-10.606-10.606-20.36-21.675 10.132-52.183 31.82-31.82l26.298 26.298-10.607 10.607-26.298-26.298c-7.097-6.848-17.451 3.515-10.607 10.605zm-40.41 141.317c-97.845 0-180.295-67.016-203.707-157.473h168.44v-15h-171.736c-1.774-9.782-2.875-19.796-3.236-29.995h311.799l-29.33 29.33c-9.457-9.873-24.091-13.024-36.867-9.504-8.487 2.339-16.608 8.134-21.037 15.742-4.936 7.547-7.173 16.509-5.721 25.587-19.829-3.389-40.203 12.131-42.429 31.828l-4.903-4.903-31.819 31.82 26.103 26.103-22.506 22.506 10.607 10.606 22.506-22.505c25.451 25.446 68.779 3.335 63.624-31.825 19.882 3.278 40.057-11.869 42.439-31.817l5.087 5.087 31.82-31.819-21.241-21.241h115.814c-23.412 90.458-105.862 157.473-203.707 157.473z"/><path d="m235.733 91.017h15v15h-15z"/><path d="m83.501 120.991h15v15h-15z"/><path d="m113.501 120.991h15v15h-15z"/></g></svg>