<svg id="Capa_1" enable-background="new 0 0 512 512" height="512" viewBox="0 0 512 512" width="512" xmlns="http://www.w3.org/2000/svg"><g><path d="m362.437 59.484c-36.643-36.727-87.282-59.484-143.138-59.484h-7.509v22.695c25.183 7.69 48.552 20.319 67.811 36.789h-218.844v151.155h15.018v-29.982h67.994l-52.54 52.54 127.18 127.18 124.298-124.298c-11.991 68.867-62.359 126.252-130.916 146.804v22.695c114.09 4.024 210.036-87.941 209.797-202.288 0-7.651-.442-15.2-1.273-22.633h15.911v195.978c0 32.708-26.61 59.319-59.319 59.319h-241.813c-32.709 0-59.319-26.611-59.319-59.319v-150.979h-15.018v286.344h322.907v-15.018h-307.889v-75.606c13.582 17.963 35.115 29.596 59.319 29.596h241.812c24.204 0 45.737-11.633 59.319-29.596v75.606h-37.544v15.018h52.561v-452.516zm-286.662 106.155v-91.137h219.564c23.249 24.931 39.495 57.031 46.446 91.138h-63.753l-59.622-59.622-59.622 59.622h-83.013zm142.633 173.5-105.942-105.942 105.942-105.942 105.943 105.942zm74.64-158.482h51.169c.896 7.439 1.356 14.994 1.356 22.633 0 9.426-.708 18.719-2.064 27.828zm-56.152 209.084c33.607-14.131 62.59-36.974 84.48-66.739 25.655-34.885 39.216-76.281 39.216-119.712s-13.561-85.828-39.216-120.714c-21.89-29.765-50.873-52.609-84.48-66.739 95.045 8.895 169.675 90.122 169.675 187.453s-74.63 177.557-169.675 186.451zm199.329-224.102h-18.165c-6.377-33.735-21.15-65.537-42.067-91.138h60.232z"/><path d="m91.133 465.936h15.018v15.017h-15.018z"/><path d="m120.784 465.936h15.018v15.017h-15.018z"/><path d="m211.474 154.968h15.017v15.018h-15.017z" transform="matrix(.707 -.707 .707 .707 -50.75 202.434)"/><path d="m232.712 176.205h15.017v15.018h-15.017z" transform="matrix(.707 -.707 .707 .707 -59.547 223.67)"/><path d="m150.894 375.831c0-12.421-10.105-22.526-22.526-22.526s-22.526 10.105-22.526 22.526 10.105 22.526 22.526 22.526c12.42 0 22.526-10.105 22.526-22.526zm-30.035 0c0-4.141 3.368-7.509 7.509-7.509s7.509 3.368 7.509 7.509-3.368 7.509-7.509 7.509-7.509-3.368-7.509-7.509z"/><path d="m398.681 383.34c12.421 0 22.526-10.105 22.526-22.526s-10.105-22.526-22.526-22.526-22.526 10.105-22.526 22.526 10.106 22.526 22.526 22.526zm0-30.035c4.141 0 7.509 3.368 7.509 7.509s-3.368 7.509-7.509 7.509c-4.14 0-7.509-3.368-7.509-7.509s3.369-7.509 7.509-7.509z"/><path d="m188.437 233.165c-12.421 0-22.526 10.105-22.526 22.526s10.105 22.526 22.526 22.526 22.526-10.105 22.526-22.526-10.105-22.526-22.526-22.526zm0 30.035c-4.14 0-7.509-3.368-7.509-7.509s3.368-7.509 7.509-7.509 7.509 3.368 7.509 7.509-3.368 7.509-7.509 7.509z"/></g></svg>