<svg id="Capa_1" enable-background="new 0 0 512 512" height="512" viewBox="0 0 512 512" width="512" xmlns="http://www.w3.org/2000/svg"><g><path d="m106.803 181.168h14.992v14.992h-14.992z"/><path d="m323.392 91.163h14.992v14.992h-14.992z"/><path d="m128.498 466.014h14.992v14.992h-14.992z"/><path d="m158.481 466.014h14.992v14.992h-14.992z"/><path d="m159.553 301.385h14.992v15.507h-14.992z"/><path d="m279.363 247.962h15.508v14.992h-15.508z" transform="matrix(.707 -.707 .707 .707 -96.542 277.842)"/><path d="m429.389 45.187c29.653-.78 29.648-44.2-.001-44.976-16.175-.392-27.551 17.85-20.289 32.177l-31.812 31.812c-8.763-6.568-19.638-10.464-31.407-10.464-32.041-.309-57.331 29.631-51.742 61.144-20.095-13.285-43.565-20.991-67.794-23.703l-8.668 60.06h-29.21v-74.99h96.447l11.001-14.992h-107.449v-61.255h-45.04v61.255h-83.052l14.233 165.531 14.937-1.284-5.097-59.271h58.979v104.356h-14.928v127.964h127.964v-47.301l30.656 30.656 90.484-90.484-58.177-58.177 42.807-6.178c-2.447-21.453-8.671-42.46-19.432-60.836h69.687l-18.776 213.067-.249-.021c-2.798 32.495-29.503 56.999-62.117 56.999h-166.461c-32.616 0-59.32-24.505-62.117-57.001l-11.933-138.78-14.937 1.284 23.235 270.221h297.935l39.721-450.745h-35.352l18.265-18.265c2.936 1.407 6.222 2.197 9.689 2.197zm0-29.983c9.851.176 9.85 14.817 0 14.992-9.851-.177-9.849-14.818 0-14.992zm-285.963 136.035h-60.269l-6.448-74.992h66.717zm239.91 345.769h-270.447l-6.206-72.171c14.557 16.759 36.005 26.484 58.199 26.429h166.461c22.279.058 43.818-9.753 58.371-26.628zm-194.871-330.778h27.047l-12.089 83.757 40.488-5.844-26.443 26.443h-29.003zm-30.048-151.238h15.056v255.595h-15.056zm83.053 368.567h-97.98v-97.98h97.98zm114.929-92.137-69.282 69.282-30.656-30.656v-59.461h-17.792l30.019-30.019 32.208-4.649zm-11.337-77.025-123.937 17.887 17.888-123.937c16.228 3.26 31.427 9.471 45.029 18.022l-30.452 42.064 12.144 8.791 30.544-42.192c9.027 7.169 17.128 15.459 24.084 24.658l-40.634 29.418 8.791 12.144 40.222-29.119c7.678 12.886 13.282 27.129 16.321 42.264zm.818-70.708c-20.667 0-37.48-16.813-37.48-37.48s16.813-37.48 37.48-37.48c10.276 0 19.597 4.159 26.374 10.88l.225.225c6.72 6.778 10.88 16.098 10.88 26.375 0 20.667-16.813 37.48-37.479 37.48zm74.535-67.442-6.609 74.992h-41.026c15.303-9.177 25.57-25.924 25.57-45.029 0-11.134-3.496-21.46-9.433-29.962h31.498z"/></g></svg>