<svg id="Capa_1" enable-background="new 0 0 512 512" height="512" viewBox="0 0 512 512" width="512" xmlns="http://www.w3.org/2000/svg"><path d="m315.394 262.938c20.718-18.755 31.326-47.201 28.173-74.773l-20.839-188.165h-36.725v15.004h23.291l6.776 61.184h-15.372v-15.725h-15.004-37.201c-12.563 0-23.695 6.215-30.506 15.725h-22.066l6.776-61.184h68.303v-15.004h-81.737l-20.838 188.166c-2.918 25.927 6.138 52.571 24.595 71.306 25.132 21.916 40.667 53.255 40.471 86.251v45.224h15.004v-45.224c0-22.293-6.05-44.119-17.162-63.288 7.941 2.319 16.24 3.536 24.664 3.536s16.723-1.217 24.664-3.536c-11.112 19.168-17.162 40.994-17.162 63.287v131.975l41.765 19.299h-98.534l41.765-19.299v-71.747h-15.004v62.152l-60.016 27.733v16.165h165.045v-16.166l-60.016-27.733v-122.379c-.002-31.18 13.445-61.354 36.89-82.784zm-66.901-187.471h37.201v15.004h-37.201c-9.861.194-9.862 14.817 0 15.004h15.004c12.41 0 22.506 10.096 22.506 22.506s-10.096 22.506-22.506 22.506h-15.004c-9.862.177-9.855 14.829 0 15.004h15.004c29.665.761 29.676 44.245 0 45.012h-36.926v-15.004h36.926c9.861-.194 9.862-14.817 0-15.004h-15.004c-12.41 0-22.506-10.096-22.506-22.506s10.096-22.506 22.506-22.506h15.004c9.862-.177 9.855-14.829 0-15.004h-15.004c-29.665-.761-29.676-44.245 0-45.012zm-44.086 174.181c-15.728-15.562-23.539-37.939-21.069-59.83l10.922-98.626h17.35c-2.761 13.966 3.485 28.838 14.402 36.789-9.119 6.849-15.028 17.751-15.028 30.008 0 8.437 2.801 16.233 7.52 22.506h-6.936v45.012h51.93c20.683 0 37.51-16.827 37.51-37.51 0-12.257-5.909-23.159-15.028-30.008 9.119-6.849 15.028-17.751 15.028-30.008 0-8.437-2.801-16.233-7.52-22.506h7.211v-14.283h17.033l10.922 98.626c7.584 68.088-75.735 108.231-124.247 59.83z"/></svg>