<svg id="Capa_1" enable-background="new 0 0 512 512" height="512" viewBox="0 0 512 512" width="512" xmlns="http://www.w3.org/2000/svg"><g><path d="m134.541 465.969h15.007v15.007h-15.007z"/><path d="m164.554 465.969h15.007v15.007h-15.007z"/><path d="m428.151 1.835c-6.091-2.352-13.026-2.352-19.115 0-6.089-2.352-13.026-2.352-19.115 0-6.089-2.352-13.026-2.352-19.115 0-6.089-2.352-13.026-2.352-19.115 0-6.088-2.352-13.026-2.352-19.115 0-6.089-2.352-13.026-2.352-19.115 0-6.089-2.352-13.026-2.352-19.115 0-6.089-2.352-13.026-2.352-19.115 0-6.089-2.352-13.026-2.352-19.115 0-6.089-2.352-13.024-2.352-19.115 0-6.089-2.352-13.026-2.352-19.115 0-6.089-2.352-13.025-2.352-19.114 0-6.089-2.352-13.027-2.352-19.116 0-6.088-2.352-13.025-2.352-19.114 0-6.089-2.352-13.025-2.352-19.116 0-6.089-2.352-13.025-2.352-19.114 0-6.089-2.352-13.026-2.352-19.115 0-6.089-2.352-13.026-2.352-19.115 0-16.924-6.886-36.523 6.529-36.175 24.831-.234 12.348 8.609 22.456 19.583 25.623l13.1 174.135 14.964-1.125-8.996-119.58h232.261l-112.64 112.639h-78.689v179.73h179.73v-97.652c18.64-6.493 36.134-17.172 51.002-32.04 44.006-44.007 51.318-111.016 21.953-162.678h42.213l-23.402 279.283c-5.308 29.569-30.744 51.198-61.4 51.198h-166.624c-32.651 0-59.382-24.531-62.179-57.062l-11.945-138.911-14.952 1.286 23.259 270.488h224.621v-15.007h-210.85l-6.212-72.242c14.572 16.776 36.04 26.511 58.258 26.456h166.625c22.111.054 43.472-9.584 58.049-26.215l-6.033 72.001h-44.83v15.007h58.631l38.48-459.212c36.799-6.388 24.867-63.043-13.733-50.953zm-96.893 112.668c15.613 18.278 23.234 42.506 20.91 66.638l-74.221-13.327zm18.275 81.412c-4.023 15.158-11.964 29.06-23.349 40.445-11.717 11.717-25.889 19.502-40.873 23.402l-13.587-77.818zm-91.953-7.734 12.947 74.152c-23.326 2.072-47.297-4.905-66.193-20.906zm34.634 194.901h-149.717v-149.717h48.676l-29.727 29.727c26.596 29.078 64 45.196 101.041 44.897 9.975 0 19.949-1.099 29.727-3.284zm55.397-125.296c-45.155 45.155-117.553 46.87-164.779 5.142l10.839-10.839c19.103 16.599 43.262 25.662 68.816 25.662 28.07 0 54.46-10.931 74.31-30.78 19.849-19.849 30.779-46.239 30.779-74.309 0-25.554-9.062-49.714-25.661-68.816l10.839-10.839c41.726 47.224 40.012 119.623-5.143 164.779zm76.036-167.073h-53.385c-4.934-6.642-11.342-13.205-17.344-19.092l-19.092 19.092h-248.397l-2.907-39.215c6.089 2.352 14.587 2.352 20.676 0 6.089 2.352 13.026 2.352 19.115 0 6.089 2.352 13.025 2.352 19.114 0 6.091 2.352 13.027 2.352 19.116 0 6.089 2.352 13.025 2.352 19.114 0 6.089 2.352 13.027 2.352 19.116 0 6.088 2.352 13.025 2.352 19.114 0 6.089 2.352 13.026 2.352 19.115 0 6.091 2.352 13.026 2.352 19.115 0 6.089 2.352 13.026 2.352 19.115 0 6.089 2.352 13.026 2.352 19.115 0 6.089 2.352 13.026 2.352 19.115 0 6.089 2.352 13.026 2.352 19.115 0 6.089 2.352 13.026 2.352 19.115 0 6.089 2.352 13.026 2.352 19.115 0 6.088 2.352 13.026 2.352 19.115 0 6.089 2.352 13.026 2.352 19.115 0 5.677 2.193 12.083 2.313 17.862.417zm8.264-54.003-3.76-2.177c-7.599 4.984-11.509 4.994-19.116 0-7.598 4.986-11.509 4.993-19.115 0-7.598 4.986-11.509 4.993-19.115 0-7.598 4.986-11.508 4.993-19.115 0-7.597 4.986-11.508 4.993-19.115 0-7.598 4.986-11.508 4.993-19.115 0-7.598 4.986-11.509 4.993-19.115 0-7.598 4.986-11.508 4.993-19.115 0-7.598 4.986-11.508 4.993-19.115 0-7.598 4.987-11.508 4.992-19.116 0-7.597 4.986-11.508 4.992-19.114 0-7.598 4.986-11.507 4.993-19.114 0-7.597 4.986-11.51 4.993-19.116 0-7.597 4.986-11.507 4.993-19.114 0-7.598 4.987-11.509 4.992-19.117 0-7.597 4.986-11.507 4.992-19.113 0-7.598 4.986-11.509 4.993-19.115 0-7.598 4.986-11.509 4.993-19.115 0 0 0-3.76 2.178-3.76 2.178-7.433 4.557-17.621-1.327-17.409-10.044-.213-8.719 9.976-14.599 17.408-10.044l3.761 2.179c7.598-4.987 11.508-4.994 19.115 0 7.598-4.987 11.508-4.994 19.115 0 7.597-4.987 11.507-4.995 19.113 0 7.6-4.987 11.509-4.995 19.117 0 7.598-4.987 11.507-4.994 19.114 0 7.598-4.987 11.509-4.994 19.116 0 7.598-4.987 11.506-4.994 19.114 0 7.597-4.987 11.508-4.995 19.114 0 7.6-4.987 11.508-4.995 19.116 0 7.598-4.987 11.508-4.995 19.115 0 7.598-4.987 11.508-4.995 19.115 0 7.598-4.987 11.508-4.994 19.115 0 7.598-4.987 11.508-4.995 19.115 0 7.598-4.987 11.508-4.994 19.115 0 7.599-4.987 11.508-4.995 19.115 0 7.598-4.987 11.507-4.994 19.115 0 7.598-4.987 11.508-4.994 19.115 0 7.599-4.988 11.507-4.994 19.116 0 0 0 3.76-2.179 3.76-2.178 7.432-4.557 17.619 1.328 17.407 10.043.214 8.718-9.974 14.598-17.407 10.043z"/><path d="m157.19 308.398h15.007v15.007h-15.007z"/><path d="m112.17 120.814h15.007v15.007h-15.007z"/><path d="m142.184 120.814h15.007v15.007h-15.007z"/></g></svg>