<svg id="Capa_1" enable-background="new 0 0 512 512" height="512" viewBox="0 0 512 512" width="512" xmlns="http://www.w3.org/2000/svg"><g><path d="m441.2 33.047c-44.063-44.063-115.758-44.062-159.822 0l-5.306 5.306 67.458 67.458h-287.691l-2.617-15.061h252.857l-14.017-15.009h-254.309v13.653l8.011 46.112c9.093 52.335 54.247 90.321 107.367 90.321h7.568v33.477.071l35.389 58.594v148.175h-22.428c-21.147 0-38.351 17.205-38.351 38.352v7.504h37.856v-15.009h-21.611c3.132-9.201 11.858-15.839 22.106-15.839h88.39c10.248 0 18.974 6.638 22.106 15.839h-96.318v15.009h112.564v-7.504c0-21.147-17.205-38.352-38.352-38.352h-20.681v-148.265l33.642-58.575v-.019-33.458h7.568c48.438 0 90.238-31.591 104.126-76.84l49.188 49.188 5.306-5.306c44.064-44.064 44.064-115.759.001-159.822zm-121.548 27.661c13.161-10.513 30.154-15.707 47.142-14.252l-10.685 50.708zm-93.291 253.169v152.267h-15.264v-152.357l-14.516-24.035c6.755 2.352 13.935 3.611 21.275 3.611 7.835 0 15.49-1.432 22.638-4.101zm56.218-103.059h-22.576v44.369c-9.097 14.339-25.069 23.167-42.147 23.167s-33.05-8.829-42.147-23.167v-44.369h-22.577c-45.804 0-84.739-32.754-92.58-77.881l-2.105-12.117h300.093l15.879 15.879c-9.298 43.173-47.32 74.119-91.84 74.119zm87.661-107.929 11.288-53.567c10.156 3.199 19.465 8.804 27.209 16.549 5.99 5.99 10.592 12.846 13.839 20.163zm5.567 13.975 51.292-16.519c3.677 18.8-.732 38.872-13.203 54.609zm59.885 59.885-11.123-11.122c26.676-32.225 24.943-80.204-5.22-110.368-15.508-15.509-36.128-24.05-58.061-24.05-19.324 0-37.625 6.638-52.313 18.823l-11.479-11.48c17.753-15.268 40.134-23.597 63.793-23.597 26.177 0 50.788 10.194 69.298 28.705 36.427 36.427 38.13 94.628 5.105 133.089z"/><path d="m210.351 218.322h15.009v15.008h-15.009z"/><path d="m285.394 143.28h15.009v15.008h-15.009z"/><path d="m210.351 143.28h15.009v15.008h-15.009z"/><path d="m135.308 143.28h15.009v15.008h-15.009z"/><path d="m172.989 181.059h15.009v15.009h-15.009z"/><path d="m248.096 181.059h15.009v15.009h-15.009z"/></g></svg>