<svg id="Capa_1" enable-background="new 0 0 512 512" height="512" viewBox="0 0 512 512" width="512" xmlns="http://www.w3.org/2000/svg"><g><path d="m369.907 161.365 30.138-161.365h-189.05v15.001h170.988l-2.987 15.991h-245.992l-2.987-15.991h65.977v-15.001h-84.039l30.137 161.365c14.353 81.623 89.321 69.129 91.406 154.592v44.91h15.002v-44.91c0-22.898-7.054-44.861-19.731-63.23 8.763 2.118 17.886 3.241 27.232 3.241s18.469-1.123 27.232-3.241c-12.677 18.369-19.731 40.332-19.731 63.23v165.21h36.674c10.243 0 18.965 6.634 22.096 15.831h-132.543c3.131-9.197 11.853-15.831 22.096-15.831h36.674v-104.979h-15.002v89.978h-21.672c-21.137 0-38.334 17.197-38.334 38.334v7.5h165.017v-7.501c0-21.137-17.197-38.334-38.334-38.334h-21.672v-150.208c1.619-82.151 68.976-59.957 91.405-154.592zm-229.95-93.145-4.151-22.226h240.388l-4.151 22.226c-14.253.999-22.324 6.311-29.509 11.065-14.483 11.665-37.744 11.629-52.173-.001-18.619-14.909-50.146-14.886-68.728.002-14.479 11.644-37.667 11.661-52.17-.002-7.184-4.753-15.254-10.064-29.506-11.064zm58.559 154.749c-21.252-14.609-36.896-38.118-41.678-64.359l-14.004-74.983c7.916 1.281 12.849 4.527 18.349 8.168 18.511 14.912 50.314 14.847 68.728-.001 14.403-11.645 37.785-11.633 52.171.002 18.497 14.877 50.204 14.896 68.73-.002 5.501-3.639 10.435-6.885 18.353-8.167l-14.004 74.983c-12.3 71.144-98.334 106.133-156.645 64.359z"/><path d="m173.491 120.949h15.001v15.001h-15.001z"/><path d="m203.495 120.949h15.001v15.001h-15.001z"/></g></svg>