<svg id="Capa_1" enable-background="new 0 0 512 512" height="512" viewBox="0 0 512 512" width="512" xmlns="http://www.w3.org/2000/svg"><g><path d="m338.517 60.917v-17.198c8.731-3.096 15.003-11.435 15.003-21.214 0-12.41-10.095-22.505-22.504-22.505s-22.505 10.095-22.505 22.505c0 9.78 6.272 18.118 15.003 21.214v17.198h-262.571v74.994h15.003v-59.991h247.568v120.256c-20.682 0-37.508 16.826-37.508 37.508 0 .177.011.352.013.529l-67.575-67.575-90.029 90.029v-.479h-52.469v-105.274h-15.003v361.086h322.599v-15.003h-307.596v-75.534c13.569 17.946 35.082 29.567 59.262 29.567h241.582c24.181 0 45.693-11.622 59.262-29.567v75.534h-37.508v15.003h52.511v-451.083zm-7.501-45.914c4.137 0 7.502 3.365 7.502 7.501s-3.365 7.502-7.502 7.502-7.502-3.365-7.502-7.502 3.365-7.501 7.502-7.501zm-7.502 196.176h15.003c12.409 0 22.505 10.096 22.505 22.505s-10.095 22.504-22.505 22.504h-15.003c-12.409 0-22.505-10.095-22.505-22.505s10.096-22.504 22.505-22.504zm0 60.013h15.003c12.409 0 22.505 10.096 22.505 22.505s-10.095 22.504-22.505 22.504h-15.003c-12.409 0-22.505-10.095-22.505-22.505s10.096-22.504 22.505-22.504zm-105.07-83.337 78.955 78.955c-7.019 6.82-11.393 16.35-11.393 26.886 0 10.537 4.374 20.066 11.393 26.886l-78.955 78.955-105.841-105.841zm217.61 188.909c0 32.677-26.585 59.262-59.262 59.262h-241.583c-32.677 0-59.262-26.585-59.262-59.262v-105.572h37.944l-22.505 22.505 127.059 127.059 91.931-91.931c4.091 1.535 8.517 2.38 13.138 2.38v45.56h15.003v-45.56c20.682 0 37.508-16.826 37.508-37.508 0-8.437-2.802-16.231-7.522-22.505h67.551zm0-120.576h-67.551c4.72-6.273 7.522-14.067 7.522-22.505 0-20.682-16.826-37.508-37.508-37.508v-120.255h97.536v180.268z"/><path d="m91.29 465.98h15.003v15.003h-15.003z"/><path d="m120.913 465.98h15.003v15.003h-15.003z"/><path d="m211.517 212.539h15.003v15.003h-15.003z" transform="matrix(.707 -.707 .707 .707 -91.443 219.318)"/><path d="m232.734 233.757h15.003v15.003h-15.003z" transform="matrix(.707 -.707 .707 .707 -100.232 240.532)"/></g></svg>