<svg id="Capa_1" enable-background="new 0 0 512 512" height="512" viewBox="0 0 512 512" width="512" xmlns="http://www.w3.org/2000/svg"><g><path d="m308.47 60.692v-16.951c8.735-3.098 15.01-11.44 15.01-21.225 0-12.416-10.1-22.516-22.515-22.516s-22.516 10.1-22.516 22.516c0 9.784 6.275 18.127 15.011 21.225v16.951h-67.872l4.005 15.01h63.867v30.117h-78.431c2.407-20.258-2.441-41.314-14.932-59.081l-12.279 8.633c1.221 1.737 2.353 3.513 3.397 5.32h-132.062l14.25 165.739 14.956-1.286-3.172-36.884h29.621c3.518 21.318 22.07 37.634 44.369 37.634 15.946 0 29.969-8.348 37.958-20.896 17.84 39.004 57.229 66.172 102.847 66.172 51.897 0 95.731-35.161 108.947-82.91h17.275l-17.883 190.85c-2.801 32.535-29.539 57.07-62.194 57.07h-182.334c-32.65 0-59.383-24.525-62.193-57.052l-11.95-138.973-14.956 1.286 23.265 270.559h313.955l40.933-451.308zm89.733 436.297h-286.469l-6.213-72.261c14.576 16.78 36.05 26.518 58.272 26.462h182.334c22.422.061 44.105-9.874 58.672-26.925zm-97.238-481.978c4.139 0 7.505 3.366 7.505 7.505s-3.367 7.505-7.505 7.505-7.505-3.367-7.505-7.505 3.366-7.505 7.505-7.505zm-.903 157.973 24.001 47.43c-7.551 2.949-15.753 4.586-24.335 4.586-8.473 0-16.575-1.594-24.046-4.472zm13.112-7.335h53.202c-2.296 19.84-13.266 37.073-29.023 47.782zm-50.812 47.957c-15.896-10.695-26.973-28.008-29.282-47.957h53.874zm-186.853-137.904h122.171c2.938 9.833 3.651 20.113 2.203 30.117h-121.784zm53.701 105.213c2.219-38.825 59.023-37.292 59.936.001 1.007 39.517-58.903 39.509-59.936-.001zm53.507-38.307c-6.852-4.226-14.915-6.671-23.539-6.671-22.187 0-40.661 16.152-44.312 37.313h-30.969l-4.508-52.42h116.592c-2.994 7.839-7.424 15.233-13.264 21.778zm12.914 8.03c7.515-8.948 12.944-19.106 16.235-29.808h81.593v29.808zm104.352 105.522c-51.792.194-93.968-40.682-97.731-90.511h15.731c3.924 41.654 39.081 74.361 81.745 74.361s77.82-32.707 81.744-74.361h16.243c-3.843 50.555-46.209 90.511-97.732 90.511zm127.583-82.91h-15.568c.664-4.943 1.013-9.985 1.013-15.106v-7.505h-104.541v-29.809h123.851zm-119.096-67.431v-30.117h127.944l-2.732 30.117z"/><path d="m127.363 465.957h15.01v15.01h-15.01z"/><path d="m157.384 465.957h15.011v15.01h-15.011z"/><path d="m143.029 173.25h15.011v15.01h-15.011z"/><path d="m262.531 309.534-74.299-74.299-74.299 74.299 74.299 74.299zm-74.298-53.071 53.071 53.071-53.071 53.071-53.071-53.071z"/><path d="m180.47 280.8h15.527v15.01h-15.527z" transform="matrix(.707 -.707 .707 .707 -148.729 217.536)"/><path d="m383.198 300.979h-105.074v105.074h105.074zm-15.01 90.063h-75.053v-75.053h75.053z"/><path d="m308.146 330.741h15.011v15.527h-15.011z"/></g></svg>