<svg id="Capa_1" enable-background="new 0 0 512 512" height="512" viewBox="0 0 512 512" width="512" xmlns="http://www.w3.org/2000/svg"><g><path d="m419.193 60.962c10.377-9.62 16.888-23.354 16.888-38.587v-22.375h-22.375c-14.734 0-28.065 6.093-37.628 15.882-9.813-10.077-23.318-15.882-37.681-15.882h-22.375v22.375c0 15.233 6.511 28.968 16.889 38.587h-21.477c-5.813-5.813-13.206-10.028-21.218-11.152l4.893-4.894-31.823-31.823-36.714 36.714c-3.273 3.273-5.856 7.052-7.698 11.155h-157.91v74.987h15.001v-29.61h154.635c7.787 5.922 18.002 8.522 27.799 7.112-3.272 19.881 11.877 40.049 31.823 42.431l-5.088 5.088 31.823 31.823 36.909-36.909c13.278-12.763 14.619-35.29 3.076-49.546h79.094v119.694h-118.359c-7.653-12.388-22.637-19.312-37.051-17.131 1.6-11.285-1.931-23.166-10.593-31.828-5.813-5.813-13.206-9.481-21.218-10.605l4.893-4.893-31.823-31.823-36.714 36.714c-17.73 16.924-13.042 48.459 8.761 59.566h-117.967v-75.083h-15.001v361.051h322.566v-15.002h-307.565v-75.527c13.568 17.944 35.078 29.564 59.256 29.564h241.557c24.178 0 45.688-11.62 59.256-29.564v75.527h-37.504v15.002h52.506v-451.038zm-343.228 30.376v-15.374h139.642c-.073 5.364 1.032 10.6 3.111 15.374zm119.814 85.737 26.106-26.106 10.608 10.608-26.106 26.106c-6.847 7.098 3.517 17.452 10.608 10.608l10.607-10.608c8.774-8.774 23.05-8.774 31.823 0 8.774 8.774 8.774 23.05 0 31.823l-10.607 10.608c-6.831 6.989 3.542 17.526 10.607 10.608l10.608-10.608c8.773-8.773 23.05-8.773 31.823 0 8.774 8.774 8.773 23.05 0 31.823l-26.301 26.301-10.608-10.608 26.301-26.301c6.847-7.098-3.516-17.452-10.607-10.608l-10.608 10.608c-8.773 8.773-23.049 8.773-31.823 0-8.774-8.774-8.773-23.05 0-31.823l10.608-10.608c6.847-7.098-3.516-17.451-10.608-10.608l-10.608 10.608c-8.773 8.774-23.049 8.774-31.823 0-8.774-8.773-8.773-23.05 0-31.823zm240.256 199.703c0 32.674-26.582 59.256-59.256 59.256h-241.558c-32.674 0-59.256-26.583-59.256-59.256v-135.743h141.079c1.176 7.89 4.822 15.165 10.558 20.902 5.814 5.813 13.206 9.481 21.218 10.605l-5.088 5.088 31.823 31.823 36.909-36.909c8.268-8.195 12.214-19.97 10.638-31.51h112.933zm-59.96-324.144c0-20.75 16.882-37.632 37.632-37.632h7.373v7.374c0 20.75-16.881 37.631-37.631 37.631h-7.374zm-45.051-30.259v-7.374h7.374c11.143 0 21.564 4.89 28.678 13.267-3.825 7.291-6.001 15.576-6.001 24.365v6.605c-17.13-3.517-30.051-18.709-30.051-36.863zm12.234 122.902-26.301 26.301-10.608-10.608 26.301-26.301c6.847-7.098-3.516-17.452-10.607-10.608l-10.608 10.608c-8.774 8.773-23.049 8.774-31.823 0s-8.773-23.05 0-31.823l10.608-10.608c6.846-7.098-3.516-17.452-10.608-10.608l-10.608 10.608c-8.774 8.774-23.05 8.774-31.823 0-8.774-8.774-8.774-23.05 0-31.823l26.106-26.106 10.608 10.607-26.106 26.107c-6.846 7.098 3.517 17.451 10.608 10.608l10.608-10.608c21.704-20.363 52.178 10.141 31.823 31.823l-10.607 10.608c-6.847 7.098 3.516 17.451 10.607 10.608l10.608-10.608c21.703-20.363 52.176 10.141 31.822 31.823zm92.777-53.939h-113.901c.636-5.122.144-10.508-1.345-15.374h115.246z"/><path d="m91.307 465.984h15.001v15.001h-15.001z"/><path d="m120.927 465.984h15.002v15.001h-15.002z"/><path d="m91.057 255.962h15.001v15.001h-15.001z"/><path d="m121.06 255.962h15.002v15.001h-15.002z"/><path d="m135.987 368.474c-12.408 0-22.502 10.094-22.502 22.502s10.095 22.502 22.502 22.502 22.502-10.094 22.502-22.502-10.094-22.502-22.502-22.502zm0 30.003c-4.136 0-7.501-3.365-7.501-7.501s3.365-7.501 7.501-7.501 7.501 3.365 7.501 7.501-3.365 7.501-7.501 7.501z"/><path d="m195.994 293.466c-12.408 0-22.502 10.094-22.502 22.502s10.095 22.502 22.502 22.502 22.502-10.094 22.502-22.502-10.095-22.502-22.502-22.502zm0 30.003c-4.136 0-7.501-3.365-7.501-7.501s3.365-7.501 7.501-7.501 7.501 3.365 7.501 7.501-3.365 7.501-7.501 7.501z"/><path d="m286.003 338.471c-12.407 0-22.502 10.094-22.502 22.502s10.095 22.502 22.502 22.502 22.502-10.094 22.502-22.502c.001-12.408-10.094-22.502-22.502-22.502zm0 30.003c-4.136 0-7.501-3.365-7.501-7.501s3.365-7.501 7.501-7.501 7.501 3.365 7.501 7.501-3.365 7.501-7.501 7.501z"/><path d="m376.077 308.468c12.408 0 22.502-10.094 22.502-22.502s-10.095-22.502-22.502-22.502-22.502 10.094-22.502 22.502 10.095 22.502 22.502 22.502zm0-30.004c4.136 0 7.501 3.365 7.501 7.501s-3.365 7.501-7.501 7.501-7.501-3.365-7.501-7.501 3.365-7.501 7.501-7.501z"/></g></svg>