<svg id="Capa_1" enable-background="new 0 0 512 512" height="512" viewBox="0 0 512 512" width="512" xmlns="http://www.w3.org/2000/svg"><g><path d="m356.596 94.556 5.309-5.31-27.194-27.194-4.378 1.424c-9.168 2.986-19.095.611-25.901-6.193-6.805-6.806-9.179-16.731-6.194-25.901l1.425-4.378-27.003-27.004-5.309 5.309c-25.994 25.745-24.238 69.192 3.786 92.713h-88.646l2.453-22.154h52.781l-4.007-15.017h-62.22l-20.856 188.326c-3.155 27.595 7.463 56.064 28.197 74.836 23.466 21.448 36.925 51.648 36.925 82.854v14.079h15.017v-14.079c0-22.313-6.055-44.157-17.177-63.341 15.838 4.701 33.532 4.701 49.37 0-11.122 19.185-17.176 41.029-17.176 63.341v70.8l41.801 19.316h-98.619l41.801-19.316v-41.895h-15.017v32.293l-60.067 27.757v16.178h165.185v-16.179l-60.067-27.757v-61.197c0-31.207 13.458-61.407 36.925-82.854 20.736-18.773 31.354-47.247 28.197-74.836l-14.187-136.173c.075 0 .149.005.224.005 16.16 0 32.32-6.151 44.622-18.453zm-83.522-72.905 9.678 9.677c-2.669 13.215 1.371 26.88 11.063 36.573 9.691 9.691 23.357 13.728 36.572 11.063l9.868 9.867c-18.793 13.681-45.341 12.05-62.286-4.895-16.941-16.943-18.575-43.492-4.895-62.285zm23.582 91.387 5.455 52.37c-5.042-1.086-8.405-3.352-12.349-6.026-15.097-12.322-40.654-12.28-55.69.001-5.536 3.751-9.908 6.715-19.419 6.715-18.185-.093-20.364-12.078-38.02-15.183l4.195-37.876h115.828zm14.669 141.566c3.257 40.716-32.09 78.298-73.038 77.443-42.377.942-78.324-39.309-72.72-81.218l9.406-84.936c4.765 1.126 8.026 3.335 11.837 5.919 15.097 12.323 40.651 12.279 55.687-.001 5.536-3.751 9.908-6.715 19.42-6.715 19.702.307 21.165 13.925 41.8 15.732 0 .001 7.535 72.519 7.608 73.776z"/><path d="m185.73 195.631h15.017v15.017h-15.017z"/><path d="m215.763 195.631h15.017v15.017h-15.017z"/></g></svg>