<svg id="Capa_1" enable-background="new 0 0 512 512" height="512" viewBox="0 0 512 512" width="512" xmlns="http://www.w3.org/2000/svg"><g><path d="m493 286c-7.738-10.318-12-23.103-12-36v-95c0-8.284-6.716-15-15-15h-60c-8.284 0-15 6.716-15 15v95c0 12.897-4.262 25.682-12 36-10.321 13.762-16.506 30.451-17.753 47.582-6.857-6.473-14.73-11.955-23.42-16.207 8.45-12.351 13.173-27.117 13.173-42.375v-120c0-85.467-69.533-155-155-155s-155 69.533-155 155v120c0 15.259 4.723 30.024 13.173 42.375-32.25 15.78-53.173 48.628-53.173 85.286v94.339c0 8.284 6.716 15 15 15h360c2.858 0 5.519-.814 7.792-2.201 3.803 1.42 7.915 2.201 12.208 2.201h80c19.299 0 35-15.701 35-35v-137c0-19.346-6.393-38.523-18-54zm-42-116v30h-30v-30zm-48 134c11.607-15.477 18-34.654 18-54v-20h30v20c0 19.346 6.393 38.523 18 54 7.738 10.318 12 23.103 12 36v22h-90v-22c0-12.897 4.262-25.682 12-36zm-12 88h90v30h-90zm-320-237c0-68.925 56.075-125 125-125s125 56.075 125 125v120c0 11.838-4.748 23.18-12.948 31.539l-14.81-4.937c-2.114-12.86-7.276-24.981-15.242-35.603-.338-.451-.706-.871-1.086-1.275 8.927-14.473 14.086-31.506 14.086-49.724v-70c0-8.284-6.716-15-15-15h-13.432c-32.472 0-63-12.646-85.962-35.606-3.605-3.606-8.798-5.136-13.782-4.054-4.984 1.08-9.079 4.618-10.869 9.394l-2.71 7.228c-5.168 13.78-18.528 23.038-33.245 23.038-8.284 0-15 6.716-15 15v70c0 18.218 5.159 35.251 14.086 49.725-.38.404-.748.824-1.086 1.275-7.966 10.621-13.128 22.743-15.242 35.603l-14.81 4.937c-8.2-8.36-12.948-19.702-12.948-31.54zm190 60c0 35.841-29.159 65-65 65s-65-29.159-65-65v-56.762c16.597-3.948 31.17-14.306 40.343-28.73 25.736 19.475 56.871 30.154 89.657 30.484zm-128.186 77.547 14.971 4.277c10.039 5.938 21.257 10.083 33.214 11.987v14.874l-48.186 13.767c-6.773-14.126-6.773-30.778.001-44.905zm63.186 58.053 33.202 9.486-25.399 121.914h-15.606l-25.399-121.914zm63.186-13.147-48.186-13.767v-14.874c11.957-1.905 23.175-6.049 33.214-11.987l14.971-4.277c6.775 14.126 6.775 30.778.001 44.905zm-228.186 65.208c0-28.022 17.861-52.803 44.445-61.664l24.203-8.068c2.497 11.174 7.329 21.707 14.352 31.071 3.73 4.974 10.141 7.129 16.121 5.423l3.755-1.073 23.677 113.65h-66.553v-47c0-8.284-6.716-15-15-15s-15 6.716-15 15v47h-30zm330 79.339h-30v-47c0-8.284-6.716-15-15-15s-15 6.716-15 15v47h-66.553l23.677-113.65c2.305.64 5.494 1.755 7.875 1.651 4.643 0 9.121-2.161 12.001-6.001 7.023-9.364 11.854-19.897 14.352-31.071l24.203 8.067c26.584 8.862 44.445 33.643 44.445 61.665zm115 0h-80c-2.757 0-5-2.243-5-5v-25h90v25c0 2.757-2.243 5-5 5z"/></g></svg>