<svg id="Capa_1" enable-background="new 0 0 512 512" height="512" viewBox="0 0 512 512" width="512" xmlns="http://www.w3.org/2000/svg"><g><path d="m379.032 82h-33.355l12.121-50h58.202c8.284 0 15-6.716 15-15s-6.716-15-15-15h-70c-6.923 0-12.947 4.738-14.578 11.466l-16.615 68.534h-47.526c-3.316-8.803-9.348-16.42-17.243-21.666 3.296-16.344-2.663-33.805-16.632-44.524-13.97-10.718-32.377-11.955-47.312-4.541-12.505-11.027-30.607-14.597-46.874-7.859-16.268 6.738-26.544 22.062-27.59 38.702-15.803 5.316-27.945 19.208-30.243 36.666-2.298 17.457 5.834 34.019 19.722 43.244-3.296 16.345 2.663 33.806 16.633 44.525 4.911 3.768 10.375 6.339 16.039 7.8-8.378 38.157-12.781 76.753-12.781 112.652 0 47.957 8.055 87.932 23.94 118.814 13.379 26.01 32.208 45.654 56.06 58.519v32.668c0 8.284 6.716 15 15 15h120c8.284 0 15-6.716 15-15v-32.667c23.852-12.864 42.681-32.509 56.06-58.519 15.886-30.883 23.94-70.857 23.94-118.814 0-63.405-14.227-136.53-38.057-195.611-2.289-5.673-7.794-9.389-13.911-9.389zm-40.628 30h30.372c7.119 18.952 13.208 39.226 18.12 60h-10.896c-18.524 0-36.961 3.203-54.393 9.289zm-70.594 0h39.725l-20.93 86.334c-3.277 2.106-6.485 4.325-9.606 6.666-23.214 17.411-51.981 27-81 27h-41.602c2.396-20.086 6.03-40.507 10.856-60.742 8.187 7.134 18.731 11.101 29.581 11.101 5.713 0 11.512-1.099 17.094-3.411 16.268-6.737 26.544-22.062 27.59-38.702 13.165-4.429 23.783-14.811 28.292-28.246zm-131.805 30.747c-6.255-4.8-7.644-13.711-3.16-20.285l.001-.001c6.091-8.933 1.018-21.181-9.606-23.189-7.819-1.479-13.138-8.76-12.109-16.578 1.029-7.816 8.038-13.489 15.986-12.877 10.782.81 18.854-9.708 15.281-19.913v-.001c-2.629-7.511 1.017-15.759 8.302-18.775 7.285-3.018 15.696.235 19.146 7.406v.001c4.69 9.742 17.834 11.473 24.886 3.276l.001-.001c5.19-6.034 14.156-6.999 20.411-2.199 6.256 4.8 7.644 13.711 3.16 20.285l-.001.001c-6.091 8.933-1.018 21.181 9.606 23.189 7.819 1.479 13.139 8.76 12.109 16.577s-8.042 13.481-15.987 12.878c-10.782-.81-18.854 9.708-15.281 19.913v.001c2.629 7.512-1.017 15.759-8.302 18.775-7.285 3.02-15.694-.235-19.146-7.406-4.69-9.742-17.834-11.473-24.886-3.277-5.191 6.035-14.157 7-20.411 2.2zm264.994 144.253c0 81.27-23.931 133.19-71.129 154.32-5.397 2.416-8.871 7.777-8.871 13.69v26.99h-90v-26.989c0-5.913-3.474-11.274-8.871-13.69-47.198-21.131-71.129-73.051-71.129-154.321 0-8.191.259-16.543.742-25h44.258c35.468 0 70.627-11.72 99-33 23.214-17.411 51.981-27 81-27h17.101c5.125 28.826 7.899 57.859 7.899 85z"/><path d="m181.314 105.048c7.654-3.17 11.288-11.945 8.118-19.598-3.17-7.654-11.945-11.288-19.598-8.118-7.654 3.17-11.288 11.945-8.118 19.598 3.17 7.654 11.945 11.288 19.598 8.118z"/></g></svg>