<svg id="Capa_1" enable-background="new 0 0 512 512" height="512" viewBox="0 0 512 512" width="512" xmlns="http://www.w3.org/2000/svg"><g><path d="m421 95.001c0-8.284-6.716-15-15-15h-40.323l12.121-50h58.202c8.284 0 15-6.716 15-15s-6.716-15-15-15h-70c-6.923 0-12.947 4.738-14.578 11.466l-16.614 68.534h-69.506c11.015-24.506 9.789-50.178 9.71-51.609-.421-7.634-6.517-13.729-14.151-14.151-1.916-.104-47.221-2.267-75.072 25.585-3.505 3.505-6.532 7.282-9.145 11.205-3.976-7.724-9.106-15.203-15.725-21.821-31.711-31.713-83.49-29.239-85.678-29.121-7.635.422-13.73 6.517-14.151 14.151-.121 2.188-2.593 53.968 29.117 85.677.259.259.531.512.794.768v48.35c-19.39 21.572-30 49.166-30 78.392v239.573c0 24.813 20.187 45 45 45h299.999c24.813 0 45-20.186 45-45v-239.573c0-29.226-10.61-56.82-30-78.392zm-62.595 15h32.595v30h-39.868zm-14.546 60h55.642c12.281 14.059 19.639 31.434 21.19 50h-88.953zm-136.856-108.963c10.41-10.409 25.796-14.431 37.171-15.96-1.424 10.589-5.011 24.635-13.882 34.923h-34.837c2.494-6.793 6.152-13.567 11.548-18.963zm120.533 48.963-7.273 30h-199.262v-30zm-187.829-59.579c8.302 8.302 13.246 19.171 16.191 29.579h-43.125c-.462-.427-.915-.858-1.351-1.295-13.631-13.631-18.209-34.149-19.71-47.993 13.852 1.502 34.366 6.08 47.995 19.709zm-27.207 119.579h200.49l-12.121 50h-209.559c1.552-18.567 8.909-35.942 21.19-50zm308.5 296.999c0 8.271-6.729 15-15 15h-299.999c-8.271 0-15-6.729-15-15v-217h329.999z"/><path d="m172.395 396.607c5.858 5.858 15.355 5.858 21.213 0l45-45c5.858-5.858 5.858-15.355 0-21.213l-45-45c-5.858-5.858-15.355-5.858-21.213 0l-45 45c-5.858 5.858-5.858 15.355 0 21.213zm10.606-79.394 23.787 23.787-23.787 23.787-23.787-23.787z"/><path d="m318.394 446.607c5.858 5.858 15.355 5.858 21.213 0l45-45c5.858-5.858 5.858-15.355 0-21.213l-45-45c-5.858-5.858-15.355-5.858-21.213 0l-45 45c-5.858 5.858-5.858 15.355 0 21.213zm10.606-79.394 23.787 23.787-23.787 23.787-23.786-23.787z"/></g></svg>