<svg id="Capa_1" enable-background="new 0 0 512 512" height="512" viewBox="0 0 512 512" width="512" xmlns="http://www.w3.org/2000/svg"><g><path d="m446 0h-70c-7.085 0-13.203 4.957-14.674 11.887l-14.448 68.113h-107.066c-7.214-45.281-46.532-80-93.812-80-52.383 0-95 42.617-95 95 0 47.356 34.831 86.727 80.218 93.848 2.835 91.21 36.6 178.272 96.03 247.548l-33.853 52.472c-6.439 9.982.726 23.132 12.605 23.132h160c11.879 0 19.044-13.15 12.604-23.132l-33.853-52.472c62.143-72.438 96.249-164.32 96.249-260.057v-81.339c0-8.284-6.716-15-15-15h-48.454l10.606-50h57.848c8.284 0 15-6.716 15-15s-6.716-15-15-15zm-126.714 420h-66.572c-58.386-66.552-90.802-151.396-91.673-240h249.917c-.87 88.604-33.286 173.447-91.672 240zm-158.286-270v-40h179.514l-8.485 40zm14.439-70 19.843-27.311c6.656 7.742 11.519 17.058 13.952 27.311zm-4.403-44.979-25.036 34.459-25.036-34.459c7.71-3.23 16.167-5.021 25.036-5.021s17.326 1.791 25.036 5.021zm-74.318 17.668 25.011 34.425-40.497 13.158c-.14-1.741-.232-3.495-.232-5.272 0-16.15 5.934-30.931 15.718-42.311zm-6.215 76.115 40.497-13.159v42.588c-17.083-4.052-31.583-14.849-40.497-29.429zm143.025 353.196 20.645-32h63.653l20.646 32zm177.472-372v40h-48.302l8.485-40z"/></g></svg>