<svg id="Capa_1" enable-background="new 0 0 512 512" height="512" viewBox="0 0 512 512" width="512" xmlns="http://www.w3.org/2000/svg"><g><path d="m436 92c8.284 0 15-6.716 15-15s-6.716-15-15-15h-70c-6.923 0-12.947 4.738-14.578 11.466l-22.688 93.59c-22.14-3.298-46.979-5.056-72.734-5.056-22.364 0-44.035 1.328-63.853 3.835l-9.104-33.976 72.445-19.412c8.002-2.144 12.751-10.369 10.607-18.372-6.199-23.133-24.481-41.116-47.713-46.931l-62.212-15.575-5.479-20.449c-2.145-8.001-10.366-12.749-18.371-10.606-8.002 2.145-12.75 10.369-10.606 18.372l5.479 20.449-46.088 44.592c-17.223 16.663-24.057 41.353-17.855 64.501 2.144 8.002 10.369 12.751 18.371 10.607l72.444-19.412 8.354 31.177c-4.986 1.061-9.795 2.202-14.35 3.441-33.293 9.055-51.363 22.077-53.834 38.742-15.194 31.873-23.235 67.764-23.235 104.017 0 57.619 17.874 106.659 51.688 141.818 33.461 34.792 79.56 53.182 133.312 53.182s99.851-18.39 133.312-53.182c33.815-35.159 51.688-84.199 51.688-141.818 0-36.253-8.041-72.144-23.235-104.017-2.471-16.665-20.541-29.687-53.834-38.742-1.865-.507-3.772-.999-5.712-1.477l19.579-80.764zm-180 100c23.104 0 45.582 1.516 65.633 4.348l-10.334 42.626c-17.311 1.98-36.09 3.026-55.299 3.026-15.08 0-29.898-.643-43.948-1.877l-12.063-45.019c17.507-2.032 36.541-3.104 56.011-3.104zm-164.488-66.674c1.264-7.434 4.852-14.419 10.453-19.839l46.443-44.935 62.689 15.693c7.56 1.893 14.16 6.148 18.971 11.954zm71.039 76.181c2.474-.59 5.038-1.146 7.645-1.685l9.697 36.19c-6.073-1.047-11.885-2.217-17.342-3.519-25.954-6.19-34.981-12.787-37.757-15.493 2.775-2.706 11.803-9.303 37.757-15.493zm248.449 115.493c0 79.005-37.806 135.965-99.926 156.552.33-.579.659-1.165.987-1.761 12.629-22.97 21.579-55.906 25.882-95.248.901-8.235-5.045-15.642-13.28-16.542-8.231-.902-15.641 5.045-16.542 13.28-7.113 65.029-28.058 108.719-52.121 108.719s-45.008-43.69-52.121-108.719c-.901-8.235-8.312-14.182-16.542-13.28-8.235.9-14.181 8.307-13.28 16.542 4.303 39.342 13.253 72.278 25.882 95.248.331.603.666 1.18 1 1.766-62.127-20.584-99.939-77.547-99.939-156.557 0-24.499 4.158-48.782 12.137-71.378 8.71 5.453 20.364 10.175 34.932 14.137 29.024 7.893 67.355 12.241 107.931 12.241 18.269 0 36.073-.889 52.788-2.579 1.466 15.959 2.212 31.905 2.212 47.579 0 8.284 6.716 15 15 15s15-6.716 15-15c0-17.022-.837-34.338-2.469-51.653 9.045-1.598 17.57-3.459 25.399-5.589 14.568-3.962 26.222-8.684 34.932-14.137 7.98 22.597 12.138 46.88 12.138 71.379zm-23.793-100c-2.776 2.706-11.804 9.303-37.757 15.493-1.965.469-3.988.916-6.038 1.352l7.739-31.924c24.641 6.069 33.342 12.433 36.056 15.079z"/></g></svg>