<svg id="Capa_1" enable-background="new 0 0 512 512" height="512" viewBox="0 0 512 512" width="512" xmlns="http://www.w3.org/2000/svg"><g><path d="m450.278 440.787v-31.268c38.458-7.701 65.737-44.422 59.95-84.936l-10.1-70.704c-1.056-7.39-7.385-12.879-14.849-12.879h-83.427l-41.213-41.213v-31.268c38.458-7.701 65.737-44.422 59.95-84.936l-10.1-70.704c-1.056-7.39-7.385-12.879-14.85-12.879h-100c-7.465 0-13.794 5.489-14.849 12.879l-10.1 70.704c-5.788 40.514 21.491 77.234 59.95 84.936v31.268l-41.214 41.213h-66.851l-41.213-41.213v-31.268c38.458-7.701 65.737-44.422 59.95-84.936l-10.1-70.704c-1.057-7.39-7.386-12.879-14.85-12.879h-100c-7.465 0-13.794 5.489-14.849 12.879l-10.1 70.704c-5.788 40.514 21.491 77.234 59.95 84.936v31.268l-41.215 41.213h-83.427c-7.465 0-13.794 5.489-14.849 12.879l-10.1 70.704c-5.788 40.514 21.491 77.234 59.95 84.936v31.268l-45.606 45.607c-9.45 9.449-2.758 25.606 10.606 25.606h100c13.364 0 20.056-16.157 10.607-25.607l-45.606-45.607v-31.268c38.458-7.701 65.738-44.422 59.95-84.936l-7.656-53.582h44.688l-7.654 53.583c-5.788 40.514 21.491 77.234 59.95 84.936v31.268l-45.606 45.607c-9.451 9.449-2.758 25.606 10.605 25.606h100c13.364 0 20.056-16.157 10.607-25.607l-45.607-45.606v-31.268c38.458-7.701 65.737-44.422 59.95-84.936l-7.655-53.583h44.688l-7.655 53.583c-5.788 40.514 21.491 77.234 59.95 84.936v31.268l-45.606 45.607c-9.449 9.449-2.757 25.607 10.607 25.607h100c13.364 0 20.056-16.157 10.607-25.607zm-387.343 41.213 13.787-13.787 13.787 13.787zm13.787-101c-27.817 0-49.185-24.638-45.251-52.175l8.26-57.825h73.98l8.261 57.825c3.935 27.537-17.433 52.175-45.25 52.175zm44.388-293.175 8.261-57.825h73.98l8.261 57.825c3.935 27.537-17.433 52.175-45.251 52.175s-49.185-24.638-45.251-52.175zm31.464 153.175 13.787-13.787 13.787 13.787zm89.639 241 13.787-13.787 13.787 13.787zm13.787-101c-27.817 0-49.185-24.638-45.251-52.175l8.261-57.825h73.98l8.261 57.825c3.934 27.537-17.434 52.175-45.251 52.175zm44.387-293.175 8.261-57.825h73.98l8.261 57.825c3.935 27.537-17.433 52.175-45.25 52.175s-49.186-24.638-45.252-52.175zm31.465 153.175 13.787-13.787 13.787 13.787zm58.175 87.825 8.261-57.825h73.98l8.261 57.825c3.935 27.537-17.433 52.175-45.251 52.175s-49.185-24.638-45.251-52.175zm31.464 153.175 13.787-13.787 13.787 13.787z"/></g></svg>