<svg id="Capa_1" enable-background="new 0 0 512 512" height="512" viewBox="0 0 512 512" width="512" xmlns="http://www.w3.org/2000/svg"><g><path d="m392.401 90h-13.159l1.642-13.14c.534-4.27-.791-8.562-3.639-11.787s-6.942-5.073-11.245-5.073h-5v-15c0-24.813-20.187-45-45-45h-140c-24.813 0-45 20.187-45 45v15h-55c-6.232 0-11.815 3.854-14.025 9.681-2.21 5.826-.587 12.413 4.077 16.546l52.188 46.243 19.61 158.07c1.837 14.808 10.784 27.216 23.149 33.969v37.573c-11.453 3.584-21.133 11.642-26.708 22.794l-17.485 34.97c-3.799 7.598-5.807 16.103-5.807 24.597v52.557c0 8.284 6.716 15 15 15h240c8.284 0 15-6.716 15-15v-52.558c0-8.492-2.008-16.997-5.807-24.597l-17.485-34.97c-5.576-11.151-15.255-19.21-26.708-22.794v-37.561c12.365-6.745 21.32-19.143 23.169-33.939l2.574-20.581h16.819c26.079 0 48.635-16.782 56.128-41.761l18.84-62.799c1.64-5.466 2.472-11.132 2.472-16.841-.001-32.311-26.289-58.599-58.6-58.599zm-231.401-45c0-8.271 6.729-15 15-15h140c8.271 0 15 6.729 15 15v15h-170zm187.361 388.26c1.727 3.456 2.64 7.322 2.64 11.183v37.557h-210.001v-37.558c0-3.86.913-7.727 2.64-11.181l17.485-34.97c2.557-5.114 7.698-8.292 13.417-8.292h142.918c5.719 0 10.859 3.178 13.417 8.292zm-157.361-73.26v-30h110v30zm133.402-73.14c-.937 7.49-7.336 13.14-14.885 13.14h-127.008c-7.556 0-13.956-5.655-14.886-13.153l-20.308-163.693c-.449-3.623-2.205-6.959-4.938-9.38l-26.83-23.774h233.462zm95.392-130.042-18.84 62.8c-3.657 12.192-14.666 20.382-27.393 20.382h-13.069l15-120h16.909c15.77 0 28.6 12.83 28.6 28.601-.001 2.786-.406 5.55-1.207 8.217z"/><circle cx="246" cy="435" r="15"/><circle cx="186" cy="435" r="15"/><circle cx="306" cy="435" r="15"/><path d="m206 270h30c8.284 0 15-6.716 15-15s-6.716-15-15-15h-30c-8.284 0-15 6.716-15 15s6.716 15 15 15z"/><path d="m206 210h30c8.284 0 15-6.716 15-15s-6.716-15-15-15h-30c-8.284 0-15 6.716-15 15s6.716 15 15 15z"/><path d="m206 150h30c8.284 0 15-6.716 15-15s-6.716-15-15-15h-30c-8.284 0-15 6.716-15 15s6.716 15 15 15z"/></g></svg>