<svg id="Capa_1" enable-background="new 0 0 512 512" height="512" viewBox="0 0 512 512" width="512" xmlns="http://www.w3.org/2000/svg"><g><path d="m501.42 274.555c6.945-13.399 10.58-28.224 10.58-43.555 0-8.284-6.716-15-15-15h-23.241l18.149-163.344c.987-8.885-5.968-16.656-14.908-16.656h-140c-8.94 0-15.896 7.771-14.908 16.656l18.149 163.344h-66.482l18.149-163.344c.987-8.885-5.968-16.656-14.908-16.656h-140c-8.94 0-15.896 7.771-14.908 16.656l18.149 163.344h-23.241c-8.284 0-15 6.716-15 15 0 23.106 8.229 44.82 22.793 61.772-2.137 1.005-4.252 2.08-6.339 3.228h-26.454v-15c0-8.284-6.716-15-15-15h-62c-8.284 0-15 6.716-15 15v180c0 8.284 6.716 15 15 15h62c8.284 0 15-6.716 15-15v-15h27.046c27.408 13.094 57.82 20 88.19 20h128.396c34.265 0 66.485-15.105 88.4-41.444l77.764-93.458c13.166-15.823 13.638-38.302 1.147-54.663-.491-.643-1-1.268-1.523-1.88zm-439.42 171.445h-32v-150h32zm398.241-380-3.333 30h-99.816l-3.333-30zm-6.667 60-10 90h-73.149l-10-90zm-193.333-60-3.333 30h-99.816l-3.333-30zm-6.667 60-10 90h-73.149l-10-90zm226.688 120c-1.128 4.773-2.814 9.39-5.003 13.796-1.149-.191-2.305-.352-3.473-.451-12.312-1.048-24.55 3.186-33.589 11.602l-26.909 25.053h-88.714v.001c-.02 0-.04-.001-.06-.001h-96.003c-21.2-11.652-45.161-15.967-68.41-12.956-12.364-9.225-20.906-22.304-24.37-37.044zm-101.196 80-11.734 10.925c-.343-3.797-1.168-7.456-2.399-10.925zm99.669-14.09-77.764 93.457c-16.198 19.468-40.013 30.633-65.339 30.633h-128.396c-26.939 0-53.916-6.368-78.014-18.417-2.083-1.041-4.379-1.583-6.708-1.583h-30.514v-90h30.451c2.716 0 5.428-.766 7.757-2.161 26.093-15.637 58.506-15.627 84.589.023 2.332 1.398 4.999 2.138 7.718 2.138h100c8.271 0 15 6.729 15 15s-6.729 15-15 15h-90.063c-8.284 0-15 6.716-15 15s6.716 15 15 15h100.622c16.491 0 32.221-6.188 44.292-17.427l81.275-75.669c2.898-2.698 6.665-3.998 10.612-3.666 3.945.334 7.441 2.252 9.845 5.399 3.946 5.171 3.797 12.273-.363 17.273z"/></g></svg>