<svg id="Capa_1" enable-background="new 0 0 512 512" height="512" viewBox="0 0 512 512" width="512" xmlns="http://www.w3.org/2000/svg"><g><path d="m426 0h-70c-6.923 0-12.947 4.738-14.578 11.466l-21.463 88.534h-60.148c-7.213-45.281-46.531-80-93.811-80-52.383 0-95 42.617-95 95 0 47.28 34.719 86.598 80 93.812v106.188c0 33.764 10.621 67.248 30 94.865v87.135c0 8.284 6.716 15 15 15h180c8.284 0 15-6.716 15-15v-87.135c19.379-27.617 30-61.102 30-94.865v-200c0-8.284-6.716-15-15-15h-55.172l16.97-70h58.202c8.284 0 15-6.716 15-15s-6.716-15-15-15zm-113.313 130-16.97 70h-114.717v-70zm-97.405-57.311c6.656 7.742 11.519 17.058 13.952 27.311h-33.794zm-114.282 42.311c0-16.15 5.934-30.931 15.718-42.311l25.011 34.425-40.497 13.158c-.14-1.741-.232-3.495-.232-5.272zm50 63.234c-17.083-4.052-31.583-14.85-40.497-29.43l40.497-13.159zm15-88.754-25.036-34.459c7.71-3.23 16.167-5.021 25.036-5.021s17.326 1.791 25.036 5.021zm225 225.52c0 29.019-9.589 57.785-27 81-1.947 2.597-3 5.754-3 9v77h-150v-77c0-3.246-1.053-6.403-3-9-17.411-23.215-27-51.981-27-81v-85h210zm0-185v70h-64.414l16.97-70z"/></g></svg>