<svg id="Capa_1" enable-background="new 0 0 512 512" height="512" viewBox="0 0 512 512" width="512" xmlns="http://www.w3.org/2000/svg"><g><path d="m493 286c-7.738-10.318-12-23.103-12-36v-95c0-8.284-6.716-15-15-15h-60c-8.284 0-15 6.716-15 15v95c0 12.897-4.262 25.682-12 36-10.321 13.762-16.506 30.451-17.753 47.582-9.84-9.289-21.757-16.563-35.205-21.046l-32.8-10.933c-2.114-12.86-7.276-24.981-15.242-35.603-.338-.451-.706-.871-1.086-1.275 8.927-14.474 14.086-31.507 14.086-49.725v-5h15c24.813 0 45-20.187 45-45 0-19.306-12.222-35.806-29.334-42.182l10.07-17.622c6.06-10.606 9.264-22.669 9.264-34.885 0-38.769-31.542-70.311-70.311-70.311h-99.333c-44.309 0-80.356 36.047-80.356 80.355 0 3.787.271 7.61.808 11.364l4.04 28.281h-9.848c-24.813 0-45 20.187-45 45s20.187 45 45 45h15v5c0 18.218 5.159 35.251 14.086 49.725-.38.404-.748.824-1.086 1.275-7.966 10.621-13.128 22.743-15.242 35.603l-32.8 10.933c-38.854 12.951-64.958 49.17-64.958 90.125v94.339c0 8.284 6.716 15 15 15h360c2.858 0 5.519-.814 7.792-2.201 3.803 1.42 7.915 2.201 12.208 2.201h80c19.299 0 35-15.701 35-35v-137c0-19.346-6.393-38.523-18-54zm-42-116v30h-30v-30zm-48 134c11.607-15.477 18-34.654 18-54v-20h30v20c0 19.346 6.393 38.523 18 54 7.738 10.318 12 23.103 12 36v22h-90v-22c0-12.897 4.262-25.682 12-36zm-12 88h90v30h-90zm-130-177c0 35.841-29.159 65-65 65s-65-29.159-65-65v-66.762c16.597-3.948 31.17-14.306 40.343-28.73 25.736 19.475 56.871 30.154 89.657 30.484zm-113.214 81.824c10.039 5.938 21.257 10.083 33.214 11.987v14.874l-48.186 13.767c-6.775-14.127-6.774-30.778 0-44.905zm48.214 53.776 33.202 9.486-25.399 121.914h-15.606l-25.399-121.914zm63.186-13.147-48.186-13.767v-14.874c11.957-1.905 23.175-6.049 33.214-11.987l14.972-4.277c6.774 14.126 6.774 30.778 0 44.905zm46.814-157.453h-15v-30h15c8.271 0 15 6.729 15 15s-6.729 15-15 15zm-134.645-150h99.333c22.229 0 40.312 18.083 40.312 40.311 0 7.004-1.836 13.92-5.311 20l-16.965 29.689h-26.156c-32.472 0-63-12.646-85.962-35.606-3.605-3.606-8.798-5.135-13.782-4.054-4.984 1.08-9.079 4.618-10.869 9.394l-2.71 7.228c-3.967 10.579-12.77 18.474-23.301 21.58l-4.438-31.063c-.336-2.354-.506-4.75-.506-7.124 0-27.766 22.589-50.355 50.355-50.355zm-85.355 150c-8.271 0-15-6.729-15-15s6.729-15 15-15h15v30zm-55 222.661c0-28.022 17.861-52.803 44.445-61.664l24.203-8.068c2.497 11.174 7.329 21.707 14.352 31.071 3.73 4.974 10.143 7.129 16.121 5.423l3.755-1.073 23.677 113.65h-66.553v-47c0-8.284-6.716-15-15-15s-15 6.716-15 15v47h-30zm330 79.339h-30v-47c0-8.284-6.716-15-15-15s-15 6.716-15 15v47h-66.553l23.677-113.65c2.305.64 5.494 1.755 7.875 1.651 4.643 0 9.121-2.161 12.001-6.001 7.023-9.364 11.854-19.897 14.352-31.071l24.203 8.067c26.584 8.862 44.445 33.643 44.445 61.665zm115 0h-80c-2.757 0-5-2.243-5-5v-25h90v25c0 2.757-2.243 5-5 5z"/></g></svg>