<svg id="Capa_1" enable-background="new 0 0 512 512" height="512" viewBox="0 0 512 512" width="512" xmlns="http://www.w3.org/2000/svg"><g><path d="m446 42h-70c-6.923 0-12.947 4.738-14.578 11.466l-31.159 128.534h-143.784l-13.436-50.142 72.445-19.412c8.002-2.144 12.751-10.369 10.606-18.372-6.199-23.133-24.481-41.116-47.713-46.931l-62.211-15.574-5.479-20.449c-2.144-8-10.368-12.748-18.371-10.606-8.002 2.145-12.75 10.369-10.606 18.372l5.479 20.449-46.089 44.593c-17.222 16.662-24.056 41.352-17.854 64.498v.002c2.144 8.002 10.369 12.751 18.371 10.607l72.444-19.412 11.356 42.377h-27.095c-5.556 0-10.666 3.088-13.266 7.998-.027.051-.053.102-.08.153-51.88 100.778-44.058 221.295 20.416 314.526l.595.859c2.802 4.048 7.411 6.464 12.334 6.464h215.35c4.923 0 9.533-2.416 12.334-6.464l.597-.863c64.472-93.227 72.294-213.744 20.414-314.521-.026-.052-.053-.103-.08-.153l-.009-.017c-2.6-4.91-7.701-7.981-13.257-7.981h-22.543l26.667-110h58.202c8.284 0 15-6.716 15-15s-6.716-15.001-15-15.001zm-190 283.787-56.625-56.625 56.625-56.625 56.625 56.625zm77.838-35.412 56.625 56.625-56.625 56.625-56.625-56.625zm-99.051 56.625-56.625 56.625-56.624-56.625 56.624-56.625zm-153.275-221.674c1.264-7.434 4.852-14.419 10.453-19.839l46.443-44.935 62.689 15.693c7.56 1.893 14.16 6.148 18.971 11.954zm132.599 86.674-35.949 35.949-35.949-35.949zm-87.51 26.813 30.349 30.349-45.577 45.577c1.463-25.657 6.527-51.215 15.228-75.926zm9.547 206.826c-9.112-19.819-15.779-40.485-19.959-61.562l40.76 40.76zm20.141 36.361c-1.872-2.852-3.68-5.734-5.438-8.638l27.312-27.312 35.949 35.95zm43.086-57.162 56.625-56.625 56.625 56.625-56.625 56.625zm156.337 57.162h-57.823l35.949-35.949 27.312 27.312c-1.758 2.903-3.566 5.785-5.438 8.637zm20.14-36.361-20.801-20.802 40.759-40.76c-4.18 21.078-10.847 41.744-19.958 61.562zm9.548-206.826c8.7 24.71 13.764 50.268 15.228 75.926l-45.577-45.577zm-15.613-26.813-35.949 35.949-35.949-35.949z"/></g></svg>