<svg id="Capa_1" enable-background="new 0 0 512 512" height="512" viewBox="0 0 512 512" width="512" xmlns="http://www.w3.org/2000/svg"><g><path d="m486 80h-90.323l12.121-50h58.202c8.284 0 15-6.716 15-15s-6.716-15-15-15h-70c-6.923 0-12.946 4.738-14.578 11.466l-16.614 68.534h-164.996c-7.214-45.281-46.532-80-93.812-80-52.383 0-95 42.617-95 95 0 47.28 34.719 86.598 80 93.812v146.188c0 33.429 14.825 65.47 40 87.173v18.827 56c0 8.284 6.716 15 15 15h300c8.284 0 15-6.716 15-15v-74.827c25.175-21.703 40-53.744 40-87.173v-240c0-8.284-6.716-15-15-15zm-128.464 30-12.148 50.114c-20.841 5.17-41.19 12.28-60.6 21.234-.027.012-.055.025-.082.037-40.561 18.72-85.614 28.615-130.286 28.615h-33.42v-100zm-202.254-57.311c6.656 7.742 11.519 17.058 13.952 27.311h-33.794zm-114.282 42.311c0-16.15 5.934-30.931 15.718-42.311l25.011 34.425-40.497 13.158c-.14-1.741-.232-3.495-.232-5.272zm50 63.234c-17.083-4.052-31.583-14.85-40.497-29.43l40.497-13.159zm-10.036-123.213c7.71-3.23 16.167-5.021 25.036-5.021s17.326 1.791 25.036 5.021l-25.036 34.459zm110.036 446.979h-30v-77c0-8.271 6.729-15 15-15s15 6.729 15 15zm120 0h-30v-77c0-8.271 6.729-15 15-15s15 6.729 15 15zm120 0h-30v-77c0-8.271 6.729-15 15-15s15 6.729 15 15zm40-147c0 17.536-5.521 34.553-15.377 48.69-7.609-14.092-22.515-23.69-39.623-23.69-24.813 0-45 20.187-45 45v77h-30v-77c0-24.813-20.187-45-45-45s-45 20.187-45 45v77h-30v-77c0-24.813-20.187-45-45-45-17.108 0-32.014 9.598-39.623 23.69-9.856-14.137-15.377-31.154-15.377-48.69v-95h33.42c48.959 0 98.335-10.84 142.793-31.347.027-.012.055-.025.082-.037 40.56-18.721 85.613-28.616 130.285-28.616h43.42zm0-185h-43.42c-16.612 0-33.271 1.252-49.77 3.702l10.594-43.702h82.596z"/><path d="m366.607 229.393c-5.858-5.858-15.355-5.858-21.213 0l-45 45c-5.858 5.858-5.858 15.355 0 21.213l45 45c5.858 5.858 15.355 5.858 21.213 0l45-45c5.858-5.858 5.858-15.355 0-21.213zm-10.607 79.394-23.787-23.787 23.787-23.787 23.787 23.787z"/></g></svg>