<svg id="Capa_1" enable-background="new 0 0 512 512" height="512" viewBox="0 0 512 512" width="512" xmlns="http://www.w3.org/2000/svg"><g><path d="m436 142h-25v-45c0-8.284-6.716-15-15-15h-60.552l12.397-52h58.155c8.284 0 15-6.716 15-15s-6.716-15-15-15h-70c-6.944 0-12.98 4.767-14.591 11.521l-16.802 70.479h-94.795c-7.214-45.281-46.532-80-93.812-80-52.383 0-95 42.617-95 95 0 47.28 34.719 86.598 80 93.812v266.188c0 30.327 24.673 55 55 55h200c30.327 0 55-24.673 55-55v-65h25c30.327 0 55-24.673 55-55v-140c0-30.327-24.673-55-55-55zm-138.545-30-11.92 50h-154.535v-50zm-132.173-57.311c6.656 7.742 11.519 17.058 13.952 27.311h-33.794zm-114.282 42.311c0-16.15 5.934-30.931 15.718-42.311l25.011 34.425-40.497 13.158c-.14-1.741-.232-3.495-.232-5.272zm50 63.234c-17.083-4.052-31.583-14.85-40.497-29.43l40.497-13.159zm15-88.754-25.036-34.459c7.71-3.23 16.167-5.021 25.036-5.021s17.326 1.791 25.036 5.021zm265 385.52c0 13.785-11.215 25-25 25h-200c-13.785 0-25-11.215-25-25v-265h250zm0-295h-64.625l11.92-50h52.705zm80 175c0 13.785-11.215 25-25 25h-25v-190h25c13.785 0 25 11.215 25 25z"/><path d="m235.394 381.393c-5.858 5.858-5.858 15.355 0 21.213l45 45c5.858 5.858 15.355 5.858 21.213 0l45-45c5.858-5.858 5.858-15.355 0-21.213l-45-45c-5.858-5.858-15.355-5.858-21.213 0zm79.393 10.607-23.787 23.787-23.787-23.787 23.787-23.787z"/><path d="m210.393 337.607c5.858 5.858 15.355 5.858 21.213 0l45-45c5.858-5.858 5.858-15.355 0-21.213l-45-45c-5.858-5.858-15.355-5.858-21.213 0l-45 45c-5.858 5.858-5.858 15.355 0 21.213zm10.607-79.394 23.787 23.787-23.787 23.787-23.787-23.787z"/></g></svg>