<svg id="Capa_1" enable-background="new 0 0 512 512" height="512" viewBox="0 0 512 512" width="512" xmlns="http://www.w3.org/2000/svg"><g><path d="m449.649 128.483-1.22-1.823c-2.784-4.162-7.461-6.66-12.468-6.66h-69.981l21.818-90h58.202c8.284 0 15-6.716 15-15s-6.716-15-15-15h-70c-6.923 0-12.946 4.738-14.578 11.466l-26.311 108.534h-173.512c11.516-4.811 21.346-11.235 29.319-19.208 31.712-31.711 29.24-83.49 29.119-85.679-.421-7.634-6.517-13.73-14.151-14.151-2.186-.122-53.967-2.592-85.678 29.12-3.684 3.683-7.024 7.759-10.033 12.195-10.031-13.507-26.097-22.277-44.175-22.277-8.284 0-15 6.716-15 15s6.716 15 15 15c12.819 0 23.41 9.7 24.832 22.144-22.971 6.603-39.832 27.79-39.832 52.856 0 6.281 1.073 12.313 3.02 17.94-8.551 17.374-13.039 36.57-13.022 55.974.03 33.728 13.178 65.44 37.022 89.295 35.784 35.799 62.387 80.348 76.932 128.831l6.048 20.161v59.799c0 8.284 6.716 15 15 15h160c8.284 0 15-6.716 15-15v-59.798l6.048-20.162c14.545-48.482 41.147-93.031 76.932-128.831 23.845-23.854 36.992-55.565 37.022-89.295.022-25.161-7.361-49.516-21.353-70.431zm-308.228-77.189c13.621-13.62 34.117-18.201 47.959-19.706-1.527 13.873-6.123 34.438-19.675 47.99-5.155 5.155-11.703 9.4-19.536 12.69-5.833-7.85-13.703-14.101-22.824-17.956 3.431-9.371 8.141-17.082 14.076-23.018zm-35.421 48.706c13.785 0 25 11.215 25 25s-11.215 25-25 25-25-11.215-25-25 11.215-25 25-25zm-34.356 110c-.421-3.663-.642-7.371-.646-11.113-.008-9.618 1.441-19.167 4.245-28.313 8.785 5.948 19.372 9.426 30.757 9.426 21.327 0 39.845-12.21 48.965-30h172.873l-14.545 60zm249.356 272h-130v-32h130zm91.763-215c-39.281 39.297-68.483 88.199-84.449 141.419l-3.474 11.581h-137.68l-3.474-11.581c-15.966-53.219-45.167-102.121-84.448-141.419-7.97-7.974-14.373-17.099-19.055-27h225.837l-24.598 101.466c-1.952 8.051 2.993 16.16 11.044 18.112s16.16-2.993 18.112-11.044l26.311-108.534h94.928c-4.681 9.901-11.084 19.026-19.054 27zm27.593-57h-96.194l14.545-60h69.041c8.703 14.819 13.27 31.604 13.254 48.887-.003 3.742-.225 7.45-.646 11.113z"/></g></svg>