<svg id="Capa_1" enable-background="new 0 0 512 512" height="512" viewBox="0 0 512 512" width="512" xmlns="http://www.w3.org/2000/svg"><g><path d="m201 112.573v-82.573h5c8.284 0 15-6.716 15-15s-6.716-15-15-15h-120c-8.284 0-15 6.716-15 15s6.716 15 15 15h5v82.573c0 23.353-9.094 45.308-25.607 61.82-22.179 22.18-34.393 51.669-34.393 83.034v209.573c0 24.813 20.187 45 45 45h140c24.813 0 45-20.187 45-45v-209.573c0-31.365-12.214-60.854-34.393-83.033-16.513-16.513-25.607-38.468-25.607-61.821zm-80-82.573h50v30h-50zm110 437c0 8.271-6.729 15-15 15h-140c-8.271 0-15-6.729-15-15v-17h170zm0-47h-170v-150h170zm-168.268-180c3.362-16.708 11.549-32.068 23.875-44.394 22.179-22.179 34.393-51.668 34.393-83.033v-22.573h50v22.573c0 31.365 12.214 60.854 34.393 83.033 12.326 12.326 20.513 27.685 23.875 44.394z"/><path d="m106 390h80c8.284 0 15-6.716 15-15s-6.716-15-15-15h-80c-8.284 0-15 6.716-15 15s6.716 15 15 15z"/><path d="m106 330h80c8.284 0 15-6.716 15-15s-6.716-15-15-15h-80c-8.284 0-15 6.716-15 15s6.716 15 15 15z"/><path d="m466 220h-160c-8.284 0-15 6.716-15 15v98.459c0 24.26 5.734 48.551 16.584 70.249 8.776 17.555 13.416 37.207 13.416 56.833v36.459c0 8.284 6.716 15 15 15h100c8.284 0 15-6.716 15-15v-36.459c0-19.626 4.64-39.278 13.416-56.833 10.85-21.698 16.584-45.989 16.584-70.249v-98.459c0-8.284-6.716-15-15-15zm-15 113.459c0 19.626-4.64 39.278-13.416 56.833-10.85 21.698-16.584 45.989-16.584 70.249v21.459h-70v-21.459c0-24.26-5.734-48.551-16.584-70.249-8.776-17.555-13.416-37.207-13.416-56.833v-23.459h130zm0-53.459h-130v-30h130z"/></g></svg>