<svg id="Capa_1" enable-background="new 0 0 512 512" height="512" viewBox="0 0 512 512" width="512" xmlns="http://www.w3.org/2000/svg"><g><path d="m398.748 92h7.252c8.284 0 15-6.716 15-15s-6.716-15-15-15h-45v-17c0-24.813-20.187-45-45-45s-45 20.187-45 45v17h-165c-8.284 0-15 6.716-15 15s6.716 15 15 15h7.252l-21.039 49.091c-.8 1.867-1.213 3.878-1.213 5.909v280c0 2.031.413 4.042 1.213 5.909l21.039 49.091h-7.252c-8.284 0-15 6.716-15 15s6.716 15 15 15h300c8.284 0 15-6.716 15-15s-6.716-15-15-15h-7.252l21.039-49.091c.8-1.867 1.213-3.878 1.213-5.909v-280c0-2.031-.413-4.042-1.213-5.909zm-97.748-47c0-8.271 6.729-15 15-15s15 6.729 15 15v17h-30zm-155.109 47h220.218l17.143 40h-254.504zm220.218 390h-220.218l-17.143-40h254.504zm24.891-70h-270v-70h36.973l6.641 9.961c8.365 12.548 22.362 20.039 37.442 20.039h107.889c15.08 0 29.077-7.491 37.442-20.039l6.641-9.961h36.972zm0-100h-45c-5.016 0-9.699 2.507-12.48 6.68l-11.094 16.641c-2.789 4.183-7.455 6.68-12.481 6.68h-107.889c-5.026 0-9.692-2.497-12.481-6.68l-11.095-16.641c-2.781-4.173-7.465-6.68-12.48-6.68h-45v-50h45c5.016 0 9.699-2.507 12.48-6.68l11.094-16.641c2.789-4.183 7.455-6.68 12.481-6.68h107.889c5.026 0 9.692 2.497 12.481 6.68l11.094 16.641c2.781 4.173 7.465 6.68 12.48 6.68h45v50zm0-80h-36.973l-6.641-9.961c-8.365-12.548-22.362-20.039-37.442-20.039h-107.888c-15.08 0-29.077 7.491-37.442 20.039l-6.641 9.961h-36.973v-70h270z"/><path d="m306 272h-100c-8.284 0-15 6.716-15 15s6.716 15 15 15h100c8.284 0 15-6.716 15-15s-6.716-15-15-15z"/></g></svg>