<svg id="Capa_1" enable-background="new 0 0 512.048 512.048" height="512" viewBox="0 0 512.048 512.048" width="512" xmlns="http://www.w3.org/2000/svg"><g><path d="m505.228 302.717c-.458-.299-7.945-5.143-18.845-9.414 6.033-20.025 3.52-39.814 3.121-42.595-.946-6.591-6.125-11.77-12.716-12.716-2.779-.398-22.569-2.91-42.595 3.12-4.271-10.899-9.116-18.388-9.415-18.845-3.637-5.567-10.506-8.073-16.875-6.161-1.093.329-11.005 3.401-22.365 10.052-16.324 9.557-27.633 21.973-32.705 35.907-2.012 5.528-3.12 11.422-3.345 17.638-1.858-.197-3.722-.344-5.591-.427-18.597-.824-36.847 4.171-53.875 14.586v-196.862c0-8.284-6.716-15-15-15h-44.98l7.879-52h57.102c8.284 0 15-6.716 15-15s-6.716-15-15-15h-70c-7.417 0-13.72 5.42-14.831 12.753l-10.491 69.247h-184.678c-8.284 0-15 6.716-15 15v300 60c0 30.327 24.673 55 55 55h180c9.209 0 18.266-2.348 26.291-6.711 10.794 4.469 23.079 6.759 36.507 6.759 9.021 0 18.555-1.026 28.485-3.104 32.74-6.851 64.904-24.166 88.245-47.507 23.251-23.251 34.893-50.167 33.668-77.839-.083-1.867-.23-3.728-.426-5.585 6.215-.225 12.108-1.339 17.636-3.351 13.935-5.072 26.352-16.381 35.908-32.705 6.65-11.36 9.723-21.272 10.051-22.365 1.915-6.368-.593-13.238-6.16-16.875zm-286.676 98.472c-1.498 7.159-2.443 14.108-2.857 20.811h-160.672c-13.785 0-25-11.215-25-25v-135h35c35.468 0 70.627-11.72 99-33 4.736-3.552 9.713-6.76 14.866-9.646l-18.697 123.399c-1.241 8.19 4.393 15.837 12.583 17.078.762.115 1.518.171 2.266.171 7.291 0 13.687-5.326 14.812-12.755l21.345-140.875c11.023-2.864 22.402-4.372 33.825-4.372h15v117.331c-20.278 22.642-35.225 52.009-41.471 81.858zm41.471-289.189v60h-15c-9.739 0-19.454.889-29.013 2.612l9.487-62.612zm-64.868 0-10.855 71.643c-13.615 5.38-26.529 12.546-38.277 21.357-23.214 17.411-51.981 27-81 27h-35v-120zm-165.132 345v-11.035c7.507 3.848 16 6.035 25 6.035h162.746c2.486 11.306 6.959 21.408 13.348 30h-176.094c-13.785 0-25-11.215-25-25zm363.316-16.776c-19.04 19.039-46.396 33.752-73.177 39.355-26.331 5.51-48.627 1.474-61.174-11.071-12.546-12.546-16.582-34.843-11.072-61.174 5.604-26.781 20.316-54.137 39.356-73.177 16.58-16.58 34.269-24.97 52.622-24.97.89 0 1.784.02 2.677.059 17.699.784 35.254 9.397 50.768 24.911 15.513 15.514 24.127 33.068 24.91 50.768.855 19.309-7.526 37.914-24.91 55.299zm61.829-93.752c-4.493 1.635-9.832 1.994-15.92 1.105-5.679-12.235-13.964-23.899-24.697-34.632s-22.398-19.018-34.633-24.697c-.89-6.088-.53-11.428 1.105-15.921 3.742-10.282 14.89-18.05 24.218-22.783 1.833 4.276 3.662 9.478 4.694 14.976.925 4.92 4.244 9.056 8.848 11.022 4.604 1.97 9.886 1.509 14.082-1.225 7.832-5.102 18.698-6.777 27.404-7.093-.314 8.715-1.991 19.577-7.091 27.406-2.732 4.194-3.192 9.477-1.225 14.081 1.968 4.604 6.103 7.923 11.023 8.848 5.498 1.033 10.699 2.862 14.974 4.693-4.738 9.339-12.504 20.478-22.782 24.22z"/><circle cx="301.415" cy="426.081" r="15"/><circle cx="372.125" cy="397.797" r="15"/><circle cx="329.699" cy="355.37" r="15"/></g></svg>