<svg id="Capa_1" enable-background="new 0 0 512 512" height="512" viewBox="0 0 512 512" width="512" xmlns="http://www.w3.org/2000/svg"><g><path d="m457 162h-47v-25c0-8.284-6.716-15-15-15h-7.274c1.495-5.509 2.274-11.224 2.274-17 0-31.289-22.22-57.484-51.71-63.634-6.082-23.753-27.668-41.366-53.29-41.366-15.9 0-30.679 6.956-40.896 18.424-8.638-5.424-18.711-8.424-29.104-8.424-20.821 0-39.663 12.039-48.915 30.01-.362-.007-.723-.01-1.085-.01-35.841 0-65 29.159-65 65 0 5.776.779 11.491 2.274 17h-7.274c-8.284 0-15 6.716-15 15v186.188c-45.281 7.214-80 46.532-80 93.812 0 52.383 42.617 95 95 95 7.847 0 15.473-.963 22.772-2.766 5.542 1.837 11.315 2.766 17.228 2.766h220c30.327 0 55-24.673 55-55v-65h47c30.327 0 55-24.673 55-55v-120c0-30.327-24.673-55-55-55zm-292-92c2.389 0 4.912.307 7.71.938 3.89.878 7.966.169 11.332-1.965s5.744-5.521 6.609-9.413c2.52-11.334 12.76-19.56 24.349-19.56 8.074 0 15.454 3.824 20.248 10.492 3.261 4.535 8.77 6.882 14.299 6.094 5.529-.79 10.162-4.585 12.023-9.852 3.537-10.009 12.953-16.734 23.43-16.734 13.785 0 25 11.215 25 25 0 8.284 6.716 15 15 15 19.299 0 35 15.701 35 35 0 5.976-1.546 11.831-4.418 17h-25.582v-5c0-8.284-6.716-15-15-15s-15 6.716-15 15v60c0 8.271-6.729 15-15 15s-15-6.729-15-15v-60c0-8.284-6.716-15-15-15s-15 6.716-15 15v5h-105.582c-2.872-5.169-4.418-11.024-4.418-17 0-19.299 15.701-35 35-35zm-55 82h130v25c0 1.691.102 3.357.284 5h-130.284zm-80 265c0-16.15 5.934-30.931 15.718-42.311l25.011 34.425-40.497 13.158c-.14-1.741-.232-3.495-.232-5.272zm50 63.234c-17.083-4.052-31.583-14.85-40.497-29.43l40.497-13.158zm-10.036-123.213c7.71-3.23 16.167-5.021 25.036-5.021s17.326 1.791 25.036 5.021l-25.036 34.459zm40.036 123.213v-42.588l40.497 13.158c-8.914 14.58-23.414 25.377-40.497 29.43zm49.768-57.962-40.497-13.158 25.011-34.425c9.784 11.38 15.718 26.161 15.718 42.311 0 1.777-.092 3.531-.232 5.272zm220.232 34.728c0 13.785-11.215 25-25 25h-190.786c8.122-8.643 14.65-18.8 19.104-30h196.682zm0-35h-190.131c.086-1.656.131-3.323.131-5 0-21.93-7.472-42.145-20-58.241v-101.759c0-8.284-6.716-15-15-15s-15 6.716-15 15v76.353c-9.198-4.968-19.305-8.461-30-10.165v-111.188h146.76c7.728 6.248 17.552 10 28.24 10s20.513-3.752 28.24-10h66.76zm0-240h-50.284c.182-1.643.284-3.309.284-5v-25h50zm102 155c0 13.785-11.215 25-25 25h-47v-170h47c13.785 0 25 11.215 25 25z"/><path d="m335 392c8.284 0 15-6.716 15-15v-120c0-8.284-6.716-15-15-15s-15 6.716-15 15v120c0 8.284 6.716 15 15 15z"/><path d="m275 242c-8.284 0-15 6.716-15 15v120c0 8.284 6.716 15 15 15s15-6.716 15-15v-120c0-8.284-6.716-15-15-15z"/><path d="m215 242c-8.284 0-15 6.716-15 15v120c0 8.284 6.716 15 15 15s15-6.716 15-15v-120c0-8.284-6.716-15-15-15z"/></g></svg>