<svg id="Capa_1" enable-background="new 0 0 512 512" height="512" viewBox="0 0 512 512" width="512" xmlns="http://www.w3.org/2000/svg"><g><path d="m415.999 82h-70c-6.923 0-12.946 4.738-14.578 11.466l-19.039 78.534h-98.583l-10.757-40.142 72.445-19.412c8.002-2.144 12.75-10.369 10.606-18.37-6.198-23.134-24.481-41.116-47.713-46.932l-62.21-15.574-5.48-20.45c-2.145-8.002-10.367-12.745-18.372-10.606-8.002 2.145-12.75 10.369-10.606 18.372l5.48 20.45-46.088 44.592c-17.212 16.654-24.053 41.369-17.854 64.502 2.144 8.001 10.369 12.75 18.371 10.606l72.444-19.412 8.674 32.376h-36.741c-8.855 0-15.783 7.631-14.93 16.445l27.376 282.89c2.244 23.183 21.5 40.665 44.791 40.665h125.526c23.291 0 42.547-17.482 44.791-40.666l27.375-282.889c.853-8.814-6.075-16.445-14.93-16.445h-42.748l14.545-60h58.202c8.284 0 15-6.716 15-15s-6.713-15-14.997-15zm-304.489 43.326c1.265-7.433 4.853-14.419 10.453-19.839l46.443-44.935 62.688 15.693c7.561 1.893 14.16 6.148 18.972 11.954zm51.01 76.674h142.589l-9.697 40h-129.021zm181.172 266.444c-.747 7.729-7.166 13.556-14.93 13.556h-125.526c-7.764 0-14.183-5.827-14.93-13.556l-1.591-16.444h158.569zm4.494-46.444h-164.375l-14.517-150h193.408zm21.291-220-3.871 40h-39.324l9.697-40z"/></g></svg>