<svg id="Capa_1" enable-background="new 0 0 512 512" height="512" viewBox="0 0 512 512" width="512" xmlns="http://www.w3.org/2000/svg"><g><path d="m497 140h-86v-85c0-13.785 11.215-25 25-25s25 11.215 25 25c0 8.284 6.716 15 15 15s15-6.716 15-15c0-30.327-24.673-55-55-55s-55 24.673-55 55v85h-155.698c11.015-24.506 9.789-50.178 9.71-51.609-.421-7.634-6.517-13.73-14.151-14.151-1.914-.104-47.22-2.267-75.072 25.585-3.506 3.506-6.532 7.285-9.146 11.209-3.977-7.725-9.105-15.205-15.725-21.825-31.711-31.713-83.489-29.239-85.679-29.121-7.634.421-13.729 6.517-14.151 14.151-.098 1.77-1.729 35.969 14.42 65.761h-20.508c-8.284 0-15 6.716-15 15v130c0 42.335 13.946 82.151 40.33 115.144 23.076 28.856 54.587 50.307 89.67 61.253v35.603c0 8.284 6.716 15 15 15h222c8.284 0 15-6.716 15-15v-35.603c35.083-10.946 66.594-32.397 89.67-61.254 26.384-32.992 40.33-72.808 40.33-115.143v-130c0-8.284-6.716-15-15-15zm-329.998-18.963c10.41-10.409 25.796-14.431 37.171-15.96-1.424 10.589-5.011 24.635-13.882 34.923h-34.837c2.494-6.793 6.152-13.567 11.548-18.963zm-67.297-10.616c8.302 8.302 13.247 19.171 16.192 29.579h-43.124c-.462-.427-.915-.858-1.352-1.295-13.631-13.632-18.209-34.149-19.71-47.992 13.852 1.501 34.365 6.079 47.994 19.708zm-69.705 59.579h351v30h-351zm452 115c0 71.71-48.737 133.561-118.521 150.409-6.734 1.626-11.479 7.653-11.479 14.581v32.01h-192v-32.01c0-6.928-4.745-12.955-11.479-14.581-69.784-16.848-118.521-78.699-118.521-150.409v-55h351v50h-115c-8.284 0-15 6.716-15 15v15c0 44.112 35.888 80 80 80s80-35.888 80-80v-80h71zm-101 25c0 27.57-22.43 50-50 50s-50-22.43-50-50zm101-110h-71v-30h71z"/><path d="m141.932 269.896c-5.858-5.858-15.355-5.858-21.213-.001l-3.536 3.536c-15.11 15.109-23.432 35.199-23.431 56.568 0 21.369 8.321 41.459 23.432 56.568 15.598 15.598 36.08 23.394 56.568 23.394 22.076.208 44.351-9.572 60.104-26.929 5.858-5.858 5.858-15.355 0-21.213zm-9.897 32.53 24.039 24.039-26.657 26.657c-8.311-15.958-7.441-35.491 2.618-50.696zm18.595 71.909 26.657-26.657 24.039 24.039c-15.206 10.056-34.739 10.927-50.696 2.618z"/></g></svg>