<svg id="Capa_1" enable-background="new 0 0 512 512" height="512" viewBox="0 0 512 512" width="512" xmlns="http://www.w3.org/2000/svg"><g><path d="m446 170h-75.174l16.969-70h58.202c8.284 0 15-6.716 15-15s-6.716-15-15-15h-70c-6.923 0-12.946 4.738-14.578 11.466l-21.462 88.534h-100.145c-5.121-32.142-26.418-58.959-55.259-71.817 4.089-6.775 6.447-14.708 6.447-23.183 0-19.555-12.541-36.228-30-42.42v-17.58c0-8.284-6.716-15-15-15s-15 6.716-15 15v17.58c-17.459 6.192-30 22.865-30 42.42 0 8.475 2.358 16.408 6.447 23.183-33.226 14.813-56.447 48.152-56.447 86.817 0 50.495 39.602 91.909 89.377 94.829 17.731 50.179 59.074 89.302 110.623 103.933v57.025l-45.606 45.606c-9.45 9.45-2.757 25.607 10.606 25.607h160c13.364 0 20.056-16.157 10.606-25.607l-45.606-45.606v-57.025c69.18-19.635 120-83.375 120-158.762v-40c0-8.284-6.716-15-15-15zm-250.719-27.311c6.656 7.742 11.52 17.058 13.952 27.311h-33.794zm-49.281-82.689c8.271 0 15 6.729 15 15s-6.729 15-15 15-15-6.729-15-15 6.729-15 15-15zm-65 125c0-16.15 5.934-30.931 15.719-42.311l25.011 34.425-40.497 13.158c-.141-1.741-.233-3.495-.233-5.272zm9.504 33.804 40.496-13.158v19.354c0 8.022.587 15.908 1.699 23.627-17.822-3.721-32.986-14.761-42.195-29.823zm30.46-93.783c7.71-3.23 16.167-5.021 25.036-5.021s17.326 1.791 25.036 5.021l-25.036 34.459zm40.036 99.979v-25h171.684l-7.273 30h-164.309c-.061-1.66-.102-3.325-.102-5zm91.213 257 24.394-24.394c2.813-2.813 4.393-6.628 4.393-10.606v-57.689c4.942.448 9.943.689 15 .689s10.058-.242 15-.689v57.689c0 3.978 1.58 7.794 4.393 10.607l24.394 24.393zm43.787-122c-62.338 0-114.933-42.474-130.39-100h260.78c-15.457 57.526-68.052 100-130.39 100zm135-135c0 1.675-.041 3.34-.102 5h-74.617l7.273-30h67.446z"/></g></svg>