<svg id="Capa_1" enable-background="new 0 0 512 512" height="512" viewBox="0 0 512 512" width="512" xmlns="http://www.w3.org/2000/svg"><g><path d="m393.873 92.795 5.543-11.087c4.987-9.973-2.265-21.708-13.416-21.708h-65.474l7.273-30h58.201c8.284 0 15-6.716 15-15s-6.716-15-15-15h-70c-6.923 0-12.947 4.738-14.578 11.466l-11.766 48.534h-163.656c-11.151 0-18.403 11.735-13.416 21.708l5.543 11.087c20.064 40.128 22.778 87.324 7.446 129.487-9.029 24.83-13.903 50.739-14.509 77.099-1.602 69.677 45.461 130.139 110.19 146.355l-45.2 40.034c-10.334 9.155-3.86 26.23 9.946 26.23h140c13.806 0 20.28-17.075 9.946-26.229l-45.152-39.992c63.204-15.625 110.206-72.816 110.206-140.779 0-28.296-4.903-56.126-14.573-82.718-15.332-42.163-12.618-89.359 7.446-129.487zm-80.62-2.795h48.877c-5.497 12.907-9.535 26.331-12.115 40h-46.459zm33.47 70c-.43 13.365.513 26.776 2.833 40h-187.112c2.32-13.224 3.263-26.635 2.833-40zm-64.339-70-9.697 40h-110.702c-2.58-13.669-6.618-27.093-12.115-40zm-128.617 142.534c.306-.842.593-1.689.887-2.534h202.693c.294.845.581 1.692.887 2.534 4.444 12.222 7.727 24.744 9.856 37.466h-224.179c2.128-12.721 5.411-25.244 9.856-37.466zm71.792 249.466 30.441-26.962 30.441 26.962zm30.441-62c-39.307 0-74.065-19.827-94.815-50h189.629c-20.749 30.173-55.507 50-94.814 50zm109.548-80h-219.096c-3.536-11.041-5.452-22.8-5.452-35 0-1.669.023-3.335.062-5h229.876c.039 1.665.062 3.331.062 5 0 12.2-1.916 23.959-5.452 35z"/></g></svg>