<svg id="Capa_1" enable-background="new 0 0 512 512" height="512" viewBox="0 0 512 512" width="512" xmlns="http://www.w3.org/2000/svg"><g><path d="m351.101 371.314c5.467 5.467 14.332 5.467 19.799 0l46.414-46.414c5.467-5.467 5.467-14.332 0-19.799l-46.414-46.415c-5.467-5.467-14.332-5.467-19.799 0l-46.415 46.414c-5.467 5.467-5.467 14.332 0 19.799zm9.899-80.101 23.787 23.787-23.787 23.787-23.786-23.787z"/><path d="m486 80h-70.325l12.121-50h58.202c8.284 0 15-6.716 15-15s-6.716-15-15-15h-70c-6.923 0-12.947 4.738-14.578 11.466l-16.614 68.534h-198.806c-8.75 0-15.642 7.458-14.953 16.181l13.569 171.877c-8.146 1.847-16.09 5.26-23.616 10.127v-9.562c0-25.381-16.178-47.827-40.257-55.853-7.859-2.62-16.354 1.628-18.974 9.487s1.628 16.354 9.487 18.974c11.81 3.936 19.744 14.944 19.744 27.392v9.563c-13.527-8.746-28.404-12.807-43.371-11.498-24.316 2.127-45.558 17.644-59.812 43.691-13.176 24.076-18.906 54.768-16.137 86.424 2.77 31.655 13.743 60.886 30.899 82.308 17.114 21.37 38.52 32.891 60.814 32.89 1.885 0 3.78-.083 5.675-.249 5.201-.455 10.359-1.556 15.332-3.273 13.928-4.812 29.27-4.812 43.2 0 4.972 1.717 10.13 2.818 15.33 3.273 20.706 1.808 40.904-6.335 57.907-23.103 3.953.893 8.004 1.352 12.129 1.352h166.067c28.697 0 52.571-22.063 54.829-50.671l27.091-343.148c.689-8.724-6.203-16.182-14.953-16.182zm-108.466 30-12.121 50h-159.235l-3.947-50zm-127.1 284.187c-4.394 50.22-34.116 90.363-64.89 87.679-2.756-.241-5.498-.828-8.148-1.743-20.246-6.994-42.545-6.993-62.79 0-2.652.916-5.394 1.502-8.15 1.744-30.798 2.696-60.496-37.459-64.889-87.679-4.394-50.219 17.898-94.921 48.677-97.614.943-.083 1.888-.124 2.835-.124 14.256 0 28.937 9.273 40.688 25.837 2.813 3.964 7.373 6.32 12.234 6.32s9.421-2.356 12.234-6.32c12.532-17.665 28.391-27.04 43.523-25.713 30.778 2.692 53.07 47.394 48.676 97.613zm193.522 42.78c-1.02 12.916-11.967 23.033-24.923 23.033h-157.05c9.936-18.4 16.32-40.148 18.337-63.198 2.77-31.656-2.961-62.348-16.137-86.424-12.187-22.27-29.485-36.833-49.442-41.921l-6.194-78.457h254.906zm21.866-276.967h-69.54l12.121-50h61.367z"/></g></svg>