<svg id="Capa_1" enable-background="new 0 0 512 512" height="512" viewBox="0 0 512 512" width="512" xmlns="http://www.w3.org/2000/svg"><g><path d="m497 422h-111.6c7.989-12.678 14.71-26.082 20.083-40h26.836c26.576 0 50.021-17.906 57.013-43.545l19.585-71.812c1.382-5.065 2.082-10.297 2.082-15.549.001-32.584-26.509-59.094-59.094-59.094h-30.905v-27c0-8.284-6.716-15-15-15h-7.58c1.665-4.695 2.58-9.741 2.58-15 0-20.723-14.084-38.209-33.181-43.414 2.045-5.137 3.181-10.73 3.181-16.586 0-24.813-20.187-45-45-45h-53.944c-17.55 0-33.84-8.718-43.575-23.32-2.782-4.173-7.466-6.68-12.481-6.68-41.355 0-75 33.645-75 75 0 5.856 1.137 11.449 3.181 16.586-19.096 5.205-33.181 22.691-33.181 43.414 0 5.259.915 10.305 2.58 15h-7.58c-8.284 0-15 6.716-15 15v133.897c0 43.68 12.49 86.43 35.6 123.103h-111.6c-8.284 0-15 6.716-15 15v20c0 30.327 24.673 55 55 55h402c30.327 0 55-24.673 55-55v-20c0-8.284-6.716-15-15-15zm-76-123.103v-76.897h30.905c16.043 0 29.095 13.052 29.095 29.095 0 2.586-.345 5.161-1.025 7.655l-19.585 71.812c-3.443 12.623-14.985 21.438-28.07 21.438h-17.548c4.101-17.305 6.228-35.124 6.228-53.103zm-212.067-268.342c15.556 18.583 38.554 29.445 63.123 29.445h53.944c8.271 0 15 6.729 15 15s-6.729 15-15 15h-140c-8.271 0-15-6.729-15-15 0-22.409 16.464-41.046 37.933-44.445zm-52.933 89.445h200c8.271 0 15 6.729 15 15s-6.729 15-15 15h-120c-8.284 0-15 6.716-15 15v70c0 8.271-6.729 15-15 15s-15-6.729-15-15v-70c0-8.284-6.716-15-15-15h-20c-8.271 0-15-6.729-15-15s6.729-15 15-15zm-35 178.897v-118.897h40v55c0 24.813 20.187 45 45 45s45-20.187 45-45v-55h140v118.897c0 44.554-14.944 87.992-42.197 123.103h-185.606c-27.253-35.11-42.197-78.548-42.197-123.103zm361 158.103c0 13.785-11.215 25-25 25h-402c-13.785 0-25-11.215-25-25v-5h452z"/></g></svg>