<svg id="Capa_1" enable-background="new 0 0 512 512" height="512" viewBox="0 0 512 512" width="512" xmlns="http://www.w3.org/2000/svg"><g><path d="m456.002 0h-60c-6.253 0-11.85 3.879-14.045 9.733l-14.56 38.827c-12.024-6.052-25.79-7.979-39.298-5.277-8.1 1.623-16.348-.01-23.223-4.591-6.875-4.582-11.553-11.567-13.173-19.669l-.993-4.965c-1.402-7.012-7.558-12.058-14.708-12.058-46.869 0-85 38.131-85 85 0 9.329 2.342 18.118 6.458 25.824-20.741 4.003-36.458 22.284-36.458 44.176 0 5.258.915 10.305 2.58 15h-7.58c-8.855 0-15.783 7.631-14.93 16.445l13.708 141.648c-7.896 8.086-24.165 26.68-33.5 50.997-31.393-13.968-64.38-12.369-66.027-12.282-7.635.42-13.731 6.517-14.153 14.151-.136 2.462-2.918 60.713 32.655 96.285 30.201 30.201 76.747 32.756 91.622 32.756l4.663-.102c3.151-.264 6.741-1.582 9.255-3.833.389-.348 2.631-2.383 5.917-5.843 7.794 6.206 17.597 9.778 28.027 9.778h165.526c23.291 0 42.547-17.482 44.791-40.666l27.375-282.89c.853-8.814-6.075-16.445-14.93-16.445h-7.58c1.665-4.695 2.58-9.742 2.58-15 0-20.145-13.307-37.24-31.592-42.96 1.03-3.491 1.592-7.181 1.592-11.001 0-11.853-3.417-23.213-9.652-32.911l15.048-40.127h49.604c8.284 0 15-6.716 15-15s-6.715-15-14.999-15zm-191.45 33.199c4.342 12.413 12.552 23.034 23.686 30.456 13.544 9.027 29.794 12.237 45.75 9.045h.001c9.127-1.824 18.488.51 25.688 6.41 7.198 5.9 11.326 14.622 11.326 23.929 0 4.941-4.02 8.961-8.961 8.961h-116.04c-13.785 0-25-11.215-25-25 0-26.401 18.7-48.518 43.55-53.801zm-169.584 424.832c-16.888-16.888-21.935-42.631-23.393-58.719 11.608 1.067 28.241 4.01 42.907 11.837-.123 1.897-.193 3.81-.193 5.742 0 23.944 9.776 45.372 20.221 61.437-13.503-3.211-28.436-9.19-39.542-20.297zm74.321 16.944c-10.353-12.41-25-34.191-25-58.084 0-23.875 14.627-45.644 24.972-58.053 10.348 12.46 25.028 34.324 25.028 58.053 0 23.893-14.648 45.674-25 58.084zm224.406-6.53c-.747 7.728-7.166 13.555-14.93 13.555h-165.526c-3.505 0-6.795-1.215-9.403-3.315 5.062-7.741 9.982-16.742 13.729-26.685h177.722zm25.785-266.445-21.29 220h-174.053c.097-1.69.152-3.393.152-5.109 0-39.847-27.071-72.734-39.244-85.508l-12.522-129.383zm-18.478-45c0 8.271-6.729 15-15 15h-180c-8.271 0-15-6.729-15-15s6.729-15 15-15h180c8.271 0 15 6.729 15 15z"/></g></svg>