<svg id="Capa_1" enable-background="new 0 0 512 512" height="512" viewBox="0 0 512 512" width="512" xmlns="http://www.w3.org/2000/svg"><g><path d="m421.001 80h-65.728l29.144-58.289c3.705-7.41.701-16.419-6.708-20.125-7.409-3.704-16.42-.702-20.125 6.708l-35.852 71.706h-41.433c11.015-24.505 9.793-50.176 9.714-51.607-.421-7.634-6.517-13.73-14.151-14.151-1.915-.109-47.222-2.268-75.073 25.583-3.506 3.506-6.531 7.285-9.145 11.21-3.977-7.725-9.105-15.206-15.725-21.826-31.712-31.712-83.49-29.24-85.679-29.119-7.634.421-13.73 6.517-14.151 14.151-.121 2.188-2.593 53.967 29.12 85.679.258.258.529.51.792.766v74.314c0 41.777 30.295 76.611 70.071 83.688 1.749 45.625 35.831 83.098 79.929 90.123v81.29l-64.762 55.51c-10.573 9.063-4.164 26.389 9.762 26.389h140c13.926 0 20.335-17.326 9.762-26.389l-64.762-55.51v-81.29c44.099-7.025 78.18-44.498 79.929-90.123 39.776-7.076 70.071-41.91 70.071-83.688v-80c0-8.284-6.716-15-15-15zm-198.998-18.962c10.41-10.409 25.797-14.43 37.172-15.959-1.424 10.589-5.01 24.635-13.88 34.921h-34.842c2.491-6.791 6.152-13.564 11.55-18.962zm-94.232 18.962c-.461-.427-.914-.857-1.349-1.293-13.631-13.632-18.209-34.15-19.71-47.993 13.852 1.501 34.365 6.08 47.994 19.708 8.305 8.305 13.241 19.171 16.183 29.578zm8.23 30h170.731l-10.178 20.355c-1.821-.225-3.672-.355-5.554-.355-15.569 0-29.313 7.949-37.396 20h-117.603zm170 65c0 8.271-6.729 15-15 15s-15-6.729-15-15 6.729-15 15-15 15 6.729 15 15zm-5.549 307h-58.902l29.451-25.244zm50.549-252c-8.284 0-15 6.716-15 15v10c0 35.841-29.159 65-65 65s-65-29.159-65-65v-10c0-8.284-6.716-15-15-15-28.641 0-52.227-22.009-54.762-50h110.047c2.496 22.468 21.593 40 44.715 40s42.219-17.532 44.716-40h70.047c-2.537 27.991-26.122 50-54.763 50zm55-80h-77.604c-1.488-2.218-3.173-4.291-5.02-6.207l16.896-33.793h65.728z"/></g></svg>