<svg id="Capa_1" enable-background="new 0 0 512 512" height="512" viewBox="0 0 512 512" width="512" xmlns="http://www.w3.org/2000/svg"><g><path d="m186.015 422h-50c-8.284 0-15 6.716-15 15s6.716 15 15 15h50c8.284 0 15-6.716 15-15s-6.716-15-15-15z"/><path d="m136.015 392h30c8.284 0 15-6.716 15-15s-6.716-15-15-15h-30c-8.284 0-15 6.716-15 15s6.716 15 15 15z"/><path d="m186.015 302h-50c-8.284 0-15 6.716-15 15s6.716 15 15 15h50c8.284 0 15-6.716 15-15s-6.716-15-15-15z"/><path d="m136.015 272h30c8.284 0 15-6.716 15-15s-6.716-15-15-15h-30c-8.284 0-15 6.716-15 15s6.716 15 15 15z"/><path d="m186.015 182h-50c-8.284 0-15 6.716-15 15s6.716 15 15 15h50c8.284 0 15-6.716 15-15s-6.716-15-15-15z"/><path d="m416.015 62h-85v-17c0-8.284-6.716-15-15-15h-105c-13.009 0-25.904-4.336-36.268-12.202-15.579-11.825-34.822-17.798-54.381-17.798h-84.351c-13.364 0-20.056 16.157-10.607 25.607l55.607 55.607v54.104l-45.382 199.68c-3.064 13.483-4.618 27.33-4.618 41.158v.135c0 24.512 4.756 48.422 14.136 71.068s22.925 42.917 40.257 60.249c2.813 2.812 6.629 4.392 10.607 4.392h220.001c3.978 0 7.793-1.58 10.606-4.394 17.333-17.332 30.877-37.603 40.257-60.249s14.136-46.556 14.136-71.068v-.135c0-13.828-1.554-27.675-4.618-41.157l-41.59-182.997h66.208v115c0 24.813 20.187 45 45 45s45-20.187 45-45v-130c0-41.355-33.645-75-75-75zm-343.787-32h48.787c13.009 0 25.904 4.336 36.268 12.202 15.579 11.825 34.823 17.798 54.381 17.798h89.351v62h-190v-47c0-3.978-1.58-7.793-4.393-10.606zm274.915 311.646c2.569 11.305 3.872 22.915 3.872 34.509v.135c0 39.553-14.648 76.855-41.378 105.71h-207.244c-26.73-28.855-41.378-66.157-41.378-105.71v-.135c0-11.594 1.303-23.204 3.872-34.509l43.102-189.646h196.053zm113.872-74.646c0 8.271-6.729 15-15 15s-15-6.729-15-15v-130c0-8.284-6.716-15-15-15h-85v-30h85c24.813 0 45 20.187 45 45z"/></g></svg>