<svg id="Capa_1" enable-background="new 0 0 512 512" height="512" viewBox="0 0 512 512" width="512" xmlns="http://www.w3.org/2000/svg"><g><path d="m446 60h-154.731c15.603-18.336 38.824-30 64.731-30 8.284 0 15-6.716 15-15s-6.716-15-15-15c-43.502 0-81.437 24.281-100.971 60h-189.029c-8.284 0-15 6.716-15 15v73.234c0 45.941 32.806 85.25 78.006 93.468l31.994 5.817v7.481c0 47.28 34.719 86.598 80 93.812v81.289l-64.762 55.51c-10.573 9.063-4.164 26.389 9.762 26.389h140c13.926 0 20.335-17.326 9.762-26.389l-64.762-55.51v-81.289c45.281-7.213 80-46.532 80-93.812v-7.481l31.994-5.817c45.2-8.218 78.006-47.527 78.006-93.468v-73.234c0-8.284-6.716-15-15-15zm-190 80c13.785 0 25 11.215 25 25s-11.215 25-25 25-25-11.215-25-25 11.215-25 25-25zm-175-50h162.745c-1.589 7.138-2.519 14.521-2.708 22.086-10.882 3.082-20.408 9.422-27.432 17.914h-132.605zm204.451 392h-58.902l29.451-25.244zm92.177-269.814-44.311 8.056c-7.132 1.297-12.317 7.509-12.317 14.758v20c0 35.841-29.159 65-65 65s-65-29.159-65-65v-20c0-7.249-5.185-13.461-12.317-14.758l-44.311-8.056c-26.983-4.907-47.506-26.008-52.302-52.186h119.167c-.149 1.648-.238 3.314-.238 5 0 30.327 24.673 55 55 55s55-24.673 55-55c0-1.686-.088-3.352-.238-5h119.169c-4.796 26.178-25.319 47.279-52.302 52.186zm53.372-82.186h-132.605c-7-8.464-16.486-14.79-27.321-17.883.257-7.669 1.517-15.088 3.684-22.117h156.242z"/></g></svg>