<svg id="Capa_1" enable-background="new 0 0 512 512" height="512" viewBox="0 0 512 512" width="512" xmlns="http://www.w3.org/2000/svg"><g><path d="m497 282h-160c-8.284 0-15 6.716-15 15v100c0 1.908.364 3.799 1.073 5.571l18.927 47.318v47.111c0 8.284 6.716 15 15 15h120c8.284 0 15-6.716 15-15v-47.111l18.927-47.317c.709-1.772 1.073-3.663 1.073-5.571v-100.001c0-8.284-6.716-15-15-15zm-15 112.111-18.927 47.317c-.709 1.773-1.073 3.664-1.073 5.572v35h-90v-35c0-1.908-.364-3.799-1.073-5.571l-18.927-47.318v-22.111h130zm0-52.111h-130v-30h130z"/><path d="m245.771 250.949-30.668-27.26c-9.598-8.532-15.103-20.791-15.103-33.633v-175.056c0-8.284-6.716-15-15-15h-80c-8.284 0-15 6.716-15 15v175.056c0 12.843-5.505 25.102-15.103 33.634l-30.669 27.26c-28.107 24.985-44.228 60.883-44.228 98.49 0 13.15 1.961 26.188 5.827 38.754l28.32 92.04c5.847 19 23.132 31.766 43.01 31.766h135.686c19.878 0 37.163-12.766 43.011-31.767l28.319-92.038c3.866-12.566 5.827-25.604 5.827-38.755 0-37.607-16.121-73.505-44.229-98.491zm-125.771-220.949h50v30h-50zm0 60h50v90.787l-25 25-25-25zm107.181 381.41c-1.95 6.334-7.712 10.59-14.338 10.59h-135.686c-6.626 0-12.388-4.256-14.337-10.589l-15.203-49.411h194.766zm32.819-121.97c0 10.156-1.515 20.227-4.501 29.932l-3.885 12.628h-213.227l-3.886-12.629c-2.986-9.704-4.501-19.774-4.501-29.931 0-2.492.098-4.973.28-7.44h229.44c.182 2.468.28 4.949.28 7.44zm-222.847-37.44c5.801-14.656 14.98-27.938 27.008-38.629l30.668-27.26c8.806-7.827 15.53-17.543 19.809-28.262l19.756 19.757c5.858 5.858 15.355 5.858 21.213 0l19.757-19.757c4.279 10.718 11.003 20.434 19.81 28.262l30.667 27.26c12.027 10.691 21.207 23.972 27.008 38.629z"/></g></svg>