<svg id="Capa_1" enable-background="new 0 0 512 512" height="512" viewBox="0 0 512 512" width="512" xmlns="http://www.w3.org/2000/svg"><g><path d="m478.326 423.446-56.326-170.855v-55.156l36.29-108.87c19.367-5.022 33.71-22.649 33.71-43.565 0-24.813-20.187-45-45-45h-220c-24.813 0-45 20.187-45 45 0 20.916 14.343 38.543 33.71 43.565l36.29 108.87v12.565h-54.58c-6.192-17.459-22.865-30-42.42-30h-110c-24.813 0-45 20.187-45 45s20.187 45 45 45h110c19.555 0 36.228-12.541 42.42-30h54.58v12.591l-56.326 170.855c-19.348 5.034-33.674 22.651-33.674 43.554 0 24.813 20.187 45 45 45h260c24.813 0 45-20.187 45-45 0-20.903-14.326-38.52-33.674-43.554zm-323.326-183.446h-110c-8.271 0-15-6.729-15-15s6.729-15 15-15h110c8.271 0 15 6.729 15 15s-6.729 15-15 15zm57-195c0-8.271 6.729-15 15-15h220c8.271 0 15 6.729 15 15s-6.729 15-15 15h-220c-8.271 0-15-6.729-15-15zm35.812 45h178.377l-30 90h-118.377zm144.188 120v30h-110v-30zm-114.151 60h118.302l50.11 152h-218.522zm189.151 212h-260c-8.271 0-15-6.729-15-15s6.729-15 15-15h260c8.271 0 15 6.729 15 15s-6.729 15-15 15z"/></g></svg>