<svg id="Capa_1" enable-background="new 0 0 512 512" height="512" viewBox="0 0 512 512" width="512" xmlns="http://www.w3.org/2000/svg"><g><path d="m456 0h-70c-6.923 0-12.947 4.738-14.578 11.466l-10.35 42.693c-27.229-20.787-60.685-32.159-95.072-32.159-37.037 0-72.998 13.185-101.258 37.124-25.906 21.945-43.952 51.762-51.471 84.721-18.632 5.505-32.271 22.762-32.271 43.155 0 20.034 13.163 37.046 31.292 42.858l9.979 93.138c-45.901 6.673-81.271 46.283-81.271 94.004 0 52.383 42.617 95 95 95 11.194 0 21.938-1.952 31.92-5.523 7.449 3.629 15.618 5.523 24.024 5.523h148.113c28.175 0 51.686-21.126 54.687-49.141l24.964-233.002c18.129-5.811 31.292-22.823 31.292-42.857 0-20.393-13.639-37.649-32.271-43.155-5.528-24.231-16.748-46.761-32.599-65.716l11.668-48.129h58.202c8.284 0 15-6.716 15-15s-6.716-15-15-15zm-385 417c0-16.15 5.934-30.931 15.718-42.311l25.012 34.426-40.498 13.159c-.14-1.742-.232-3.497-.232-5.274zm50 63.234c-17.083-4.052-31.583-14.85-40.496-29.43l40.496-13.158zm-10.036-123.213c7.71-3.23 16.167-5.021 25.036-5.021s17.326 1.791 25.036 5.021l-25.036 34.46zm40.036 123.213v-42.588l40.496 13.158c-8.913 14.58-23.413 25.377-40.496 29.43zm49.768-57.961-40.498-13.159 25.012-34.426c9.784 11.381 15.718 26.162 15.718 42.312 0 1.777-.092 3.532-.232 5.273zm164.147 37.391c-1.365 12.733-12.051 22.336-24.858 22.336h-134.843c15.98-17.006 25.786-39.878 25.786-65 0-46.76-33.96-85.735-78.511-93.564l-9.796-91.436h246.614zm56.085-272.664c0 8.271-6.729 15-15 15h-280c-8.271 0-15-6.729-15-15s6.729-15 15-15h280c8.271 0 15 6.729 15 15zm-33.751-45h-242.499c15.902-53.002 64.571-90 121.25-90s105.349 36.998 121.249 90z"/></g></svg>