<svg id="Capa_1" enable-background="new 0 0 512 512" height="512" viewBox="0 0 512 512" width="512" xmlns="http://www.w3.org/2000/svg"><g><path d="m426.002 0h-70c-6.923 0-12.946 4.738-14.578 11.466l-5.417 22.347c-11.04-8.646-24.928-13.813-40.005-13.813-14.46 0-28.458 4.947-39.812 13.847-6.388-2.535-13.212-3.847-20.188-3.847-23.585 0-43.74 14.93-51.54 35.83-.947-1.042-1.919-2.07-2.926-3.077-35.574-35.576-93.825-32.794-96.285-32.655-7.634.422-13.73 6.517-14.151 14.151-.136 2.462-2.918 60.712 32.655 96.285 9.957 9.957 22.439 17.735 37.247 23.259v135.184c0 54.435 24.537 106.031 66.194 140.452l-24.696 51.038c-4.82 9.961 2.437 21.533 13.502 21.533h160c11.066 0 18.322-11.573 13.502-21.533l-24.696-51.038c41.657-34.421 66.194-86.017 66.194-140.452v-143.977c0-6.65-4.332-12.281-10.324-14.247.212-1.913.324-3.834.324-5.753 0-25.153-16.972-46.417-40.065-52.939-.221-4.942-1.013-9.735-2.282-14.333l9.145-37.728h58.202c8.284 0 15-6.716 15-15s-6.716-15-15-15zm-301.034 119.321c-16.898-16.898-21.941-42.664-23.396-58.75 16.096 1.455 41.855 6.499 58.751 23.395 15.953 15.953 21.319 40.1 23.099 56.034h-17.221c-17.554-3.927-31.429-10.874-41.233-20.679zm94.956 362.679 15.483-32h81.189l15.483 32zm161.078-183.023c0 47.46-22.318 92.349-59.933 121.023h-90.135c-37.614-28.675-59.933-73.563-59.933-121.023v-68.977h210v68.977zm0-98.977h-210v-30h210zm-10-65c0 1.68-.191 3.349-.556 5h-156.854c-.977-10.642-3.26-24.597-8.426-38.831 4.281-3.083 6.709-8.26 6.163-13.672-.062-.615-.142-1.226-.225-1.835-.035-.264-.078-.526-.103-.793.071-13.725 11.259-24.869 25-24.869 5.056 0 9.944 1.527 14.136 4.416 6.253 4.308 14.736 3.265 19.759-2.427 6.823-7.731 16.094-11.989 26.106-11.989 19.299 0 35 15.701 35 35 0 2.385-.241 4.77-.717 7.087-.921 4.487.259 9.149 3.203 12.659 2.945 3.51 7.337 5.478 11.91 5.352.496-.014.944-.049 1.32-.088 13.456.381 24.284 11.445 24.284 24.99z"/><circle cx="261.002" cy="105" r="15"/></g></svg>