<svg id="Capa_1" enable-background="new 0 0 512 512" height="512" viewBox="0 0 512 512" width="512" xmlns="http://www.w3.org/2000/svg"><g><path d="m486 80h-80.323l12.121-50h58.202c8.284 0 15-6.716 15-15s-6.716-15-15-15h-70c-6.923 0-12.946 4.738-14.578 11.466l-16.615 68.534h-174.995c-7.214-45.281-46.532-80-93.812-80-52.383 0-95 42.617-95 95 0 49.835 38.572 90.827 87.429 94.698 11.534 25.682 35.44 44.65 64.096 49.235 2.14 9.69 6.485 18.853 12.743 26.655 9.647 12.076 23.513 20.28 38.669 23.208 21.822 4.85 37.063 23.849 37.063 46.204v102.735l-45.943 49.005c-8.981 9.581-2.189 25.26 10.943 25.26h160c13.132 0 19.924-15.679 10.943-25.259l-45.943-49.006v-102.735c0-22.355 15.241-41.354 37.063-46.204 15.155-2.928 29.022-11.132 38.669-23.208 6.258-7.801 10.604-16.964 12.743-26.655 40.488-6.477 71.525-41.649 71.525-83.933v-60c0-8.284-6.716-15-15-15zm-15 30v30h-79.868l7.273-30zm-110.738 30h-239.262v-30h246.535zm-224.823-60 19.843-27.311c6.656 7.742 11.519 17.058 13.952 27.311zm-4.403-44.979-25.036 34.459-25.036-34.459c7.71-3.23 16.167-5.021 25.036-5.021s17.326 1.791 25.036 5.021zm-74.318 17.668 25.011 34.425-40.497 13.158c-.14-1.741-.232-3.495-.232-5.272 0-16.15 5.934-30.931 15.718-42.311zm-6.215 76.115 40.497-13.159v39.355c0 1.09.034 2.171.074 3.251-17.115-4.039-31.644-14.846-40.571-29.447zm290.873 353.196h-90.752l26.32-28.074c2.606-2.78 4.057-6.448 4.057-10.259v-93.667h30v93.667c0 3.811 1.451 7.479 4.057 10.259zm74.624-272c-8.284 0-15 6.716-15 15 .074 17.292-12.479 31.669-29.444 34.511-17.112 3.802-32.577 13.427-43.546 27.101-7.807 9.731-13.117 21.242-15.53 33.388h-32.959c-2.413-12.146-7.724-23.657-15.53-33.388-10.968-13.674-26.433-23.299-43.547-27.102-16.966-2.841-29.518-17.218-29.444-34.51 0-8.284-6.716-15-15-15-25.127 0-46.356-16.943-52.904-40h345.808c-6.548 23.057-27.777 40-52.904 40z"/></g></svg>