<svg id="Capa_1" enable-background="new 0 0 512 512" height="512" viewBox="0 0 512 512" width="512" xmlns="http://www.w3.org/2000/svg"><g><path d="m508.995 107.437c-18.872-32.76-46.041-60.004-78.57-78.786-32.472-18.747-69.567-28.651-107.301-28.651h-.214c-8.279.008-14.985 6.721-14.985 15v145h-174.665l-10.22-38.142 72.445-19.411c8.002-2.144 12.751-10.37 10.606-18.372-6.199-23.133-24.481-41.116-47.713-46.931l-62.211-15.574-2.801-10.45c-2.144-8.003-10.373-12.748-18.371-10.606-8.002 2.145-12.75 10.37-10.605 18.372l2.801 10.45-46.09 44.593c-17.211 16.651-24.052 41.366-17.855 64.498v.002c2.144 8.001 10.369 12.75 18.37 10.606l72.446-19.412 8.14 30.377h-38.391c-5.008 0-9.686 2.499-12.469 6.662l-1.082 1.618c-12.622 18.866-19.283 40.835-19.263 63.533.027 30.426 11.888 59.033 33.396 80.55 31.614 31.628 55.116 70.985 67.966 113.817l5.306 17.687v53.133c0 8.284 6.716 15 15 15h146.664c8.284 0 15-6.716 15-15v-53.132l5.306-17.687c12.85-42.832 36.352-82.189 67.966-113.817 21.509-21.518 33.369-50.125 33.396-80.55.016-17.353-3.886-34.273-11.357-49.711l93.858-54.189c7.169-4.139 9.63-13.304 5.497-20.477zm-477.486 7.889c1.265-7.433 4.852-14.418 10.452-19.838l46.444-44.935 62.688 15.693c7.561 1.893 14.16 6.149 18.972 11.955zm29.892 124.674c-.264-2.713-.401-5.453-.404-8.213-.014-14.745 3.799-29.073 11.075-41.787h38.168l13.398 50zm222.928 242h-116.664v-25.333h116.664zm82.055-190.845c-35.111 35.126-61.214 78.837-75.483 126.406l-2.732 9.105h-124.343l-2.732-9.105c-14.27-47.569-40.372-91.28-75.483-126.406-6.301-6.304-11.458-13.444-15.411-21.155h311.595c-3.953 7.711-9.11 14.851-15.411 21.155zm24.21-51.155h-235.897l-13.398-50h238.624c7.274 12.712 11.088 27.041 11.074 41.787-.002 2.761-.139 5.5-.403 8.213zm-2.671-80h-49.998v-69.148c16.733 1.995 32.926 7.327 47.5 15.741s27.289 19.771 37.383 33.265zm61.023-35.232c-12.837-18.007-29.392-33.111-48.521-44.155-19.129-11.045-40.488-17.799-62.5-19.908v-30.115c27.31 2.183 53.841 10.382 77.5 24.042 23.658 13.659 44.024 32.536 59.57 55.097z"/></g></svg>