<svg id="Capa_1" enable-background="new 0 0 512 512" height="512" viewBox="0 0 512 512" width="512" xmlns="http://www.w3.org/2000/svg"><g><path d="m460.901 103.068v-.001c-.421-7.634-6.517-13.729-14.151-14.15h-.002c-1.644-.088-34.632-1.687-66.027 12.283-12.295-32.027-36.633-54.147-38.004-55.374-5.696-5.1-14.316-5.1-20.012 0-1.838 1.645-44.994 40.867-44.994 91.175 0 16.592 4.728 31.949 10.966 45h-102.2l-13.435-50.142 72.445-19.412c8.002-2.144 12.75-10.369 10.606-18.37-6.202-23.147-24.467-41.113-47.713-46.932l-62.212-15.575-5.479-20.448c-2.145-8.002-10.366-12.752-18.371-10.607-8.002 2.144-12.75 10.369-10.606 18.371l5.479 20.449-46.088 44.592c-17.223 16.663-24.057 41.353-17.855 64.501v.001c2.144 8.002 10.369 12.75 18.37 10.606l72.445-19.412 11.355 42.377h-7.322c-6.883 0-12.883 4.685-14.552 11.362l-37.639 150.557c-7.4 29.601-6.413 60.612 2.854 89.682s26.41 54.931 49.576 74.788c2.718 2.331 6.181 3.611 9.762 3.611h195.803c3.581 0 7.043-1.281 9.762-3.611 23.166-19.857 40.31-45.718 49.576-74.788 9.268-29.07 10.254-60.082 2.854-89.682l-29.907-119.626c16.934-5.58 31.048-13.927 42.061-24.94 35.573-35.572 32.79-93.823 32.655-96.285zm-128.191-24.154c10.353 12.411 25.001 34.192 25.001 58.086 0 17.079-7.579 33.104-15.306 45h-19.389c-7.727-11.896-15.306-27.921-15.306-45 .001-23.898 14.653-45.683 25-58.086zm-251.2 46.412c1.264-7.433 4.852-14.419 10.453-19.838l46.443-44.936 62.688 15.693c7.561 1.893 14.16 6.149 18.972 11.954zm78.298 86.674h192.379l10 40h-212.38zm-17.5 70h227.38l12.5 50h-252.38zm205.879 200h-184.378c-11.004-10.211-20.02-21.956-26.904-34.706 10.364 3.088 21.171 4.706 32.036 4.706h174.113c10.865 0 21.672-1.617 32.036-4.706-6.883 12.75-15.899 24.495-26.903 34.706zm41.026-120c2.575 15.515 2.402 31.067-.337 46.057-13.491 9.012-29.566 13.943-45.821 13.943h-174.113c-16.255 0-32.33-4.93-45.821-13.943-2.738-14.989-2.912-30.542-.337-46.057zm-10.329-166.908-.432-1.73c-.674-2.696-2.062-5.058-3.922-6.928 7.301-13.948 13.181-30.926 13.181-49.434 0-1.934-.071-3.849-.194-5.749 14.721-7.878 31.324-10.811 42.91-11.861-1.455 16.096-6.499 41.854-23.395 58.75-7.221 7.221-16.661 12.891-28.148 16.952z"/></g></svg>