<svg id="Capa_1" enable-background="new 0 0 512 512" height="512" viewBox="0 0 512 512" width="512" xmlns="http://www.w3.org/2000/svg"><path d="m420.906 209.678c.173-4.96-1.631-9.657-5.078-13.226s-8.079-5.535-13.042-5.535h-10.134c6.719-13.4 10.236-28.175 10.236-43.405 0-51.725-40.195-93.01-89.588-96.781-3.834-.29-7.674 1.054-10.508 3.683-2.843 2.637-4.473 6.372-4.473 10.246v126.257h-17.324c.722-2.995 1.114-6.076 1.114-9.197 0-17.295-11.271-31.998-26.851-37.175.935-3.385 1.421-6.899 1.421-10.445 0-17.122-11.05-31.702-26.39-37.011v-84.589c0-6.893-5.607-12.5-12.5-12.5h-21.9c-6.893 0-12.5 5.607-12.5 12.5v86.229c-3.478-1.645-7.194-2.781-11.031-3.351l-13.692-77.642c-.581-3.289-2.407-6.154-5.143-8.067-2.734-1.912-6.051-2.645-9.335-2.064l-21.562 3.8c-3.285.58-6.149 2.403-8.065 5.133-1.92 2.736-2.657 6.056-2.076 9.346l16.952 96.104c-1.245 3.817-1.927 7.886-1.927 12.113 0 3.547.486 7.06 1.421 10.446-15.579 5.177-26.851 19.879-26.851 37.174 0 3.451.469 6.858 1.35 10.148-2.718.911-5.202 2.455-7.258 4.584-3.447 3.569-5.251 8.266-5.078 13.226l.506 14.553c.144 4.139 3.582 7.375 7.756 7.235 4.14-.144 7.379-3.617 7.234-7.756l-.506-14.553c-.061-1.774 1.36-3.24 3.13-3.24h293.572c1.156 0 1.907.599 2.253.956.345.357.917 1.128.877 2.284l-2.412 69.432h-27.294v-12.656c0-10.843-8.821-19.665-19.664-19.665h-30.217l-4.89-13.417c-1.792-4.938-5.4-8.88-10.162-11.102s-10.103-2.454-15.043-.657l-48.74 17.74c-4.938 1.797-8.881 5.41-11.1 10.17s-2.45 10.1-.652 15.032l5.297 14.554h-19.478l-26.562-26.561c-3.714-3.714-8.652-5.759-13.904-5.759-5.253 0-10.191 2.046-13.905 5.76l-26.561 26.561h-32.134l-.69-19.878c-.144-4.14-3.628-7.378-7.756-7.235-4.14.144-7.379 3.616-7.234 7.756 5.58 160.201 5.078 146.349 5.159 148.169 1.241 28.106 13.035 54.306 33.296 73.876 20.512 19.81 47.515 30.722 76.034 30.722h97.393c28.519 0 55.521-10.911 76.034-30.724 20.262-19.571 32.057-45.772 33.296-73.878.006-.119.019-.236.023-.356.002-.04-.002-.079-.001-.119.007-.191 6.857-197.245 6.857-197.245zm-61.072-18.761-35.905-35.905h63.608c-1.156 12.78-5.259 25.015-12.068 35.905zm27.709-50.905h-63.615l44.977-44.975c10.668 12.803 17.134 28.429 18.638 44.975zm-29.242-55.582-44.98 44.979v-63.625c16.633 1.505 32.247 8.03 44.98 18.646zm-44.981 81.187 25.3 25.3h-25.3zm-46.21 16.103c0 3.181-.633 6.298-1.828 9.197h-35.137c.722-2.995 1.114-6.077 1.114-9.197 0-6.497-1.599-12.624-4.411-18.024 15.26-13.732 40.262-3.036 40.262 18.024zm-97.353 9.197c-1.194-2.899-1.828-6.016-1.828-9.197 0-13.328 10.838-24.17 24.16-24.17 13.327 0 24.17 10.843 24.17 24.17 0 3.18-.633 6.298-1.827 9.197zm-25.67-48.251c-1.03-2.721-1.578-5.622-1.578-8.566 0-21.027 24.972-31.747 40.253-18.025-2.813 5.4-4.414 11.527-4.414 18.025 0 3.547.486 7.061 1.421 10.447-4.857 1.615-9.292 4.154-13.099 7.412-6.313-5.38-14.243-8.678-22.583-9.293zm97.593-8.566c0 2.944-.547 5.845-1.578 8.566-8.339.615-16.271 3.914-22.586 9.294-6.174-5.283-14.001-8.678-22.59-9.297-1.03-2.72-1.577-5.621-1.577-8.564 0-5.414 1.791-10.419 4.812-14.452 4.412-5.889 11.448-9.709 19.358-9.709 13.323.002 24.161 10.84 24.161 24.162zm-26.39-119.1v80.008c-6.111.345-11.849 2.1-16.9 4.939v-84.947zm-70.961 7.811 12.924 73.281c-5.88 1.457-11.238 4.245-15.738 8.026l-13.824-78.375zm13.011 140.884c-2.811 5.4-4.41 11.527-4.41 18.025 0 3.12.392 6.202 1.114 9.197h-35.136c-1.194-2.899-1.827-6.016-1.827-9.197-.001-21.029 24.985-31.769 40.259-18.025zm203.87 102.238v12.656h-61.202v-12.656c0-2.572 2.092-4.665 4.664-4.665h51.874c2.572.001 4.664 2.093 4.664 4.665zm-61.202 27.656h61.202v24.218c0 2.572-2.092 4.665-4.664 4.665h-51.874c-2.572 0-4.664-2.092-4.664-4.665zm-50.171-34.687c-.427-1.169-.372-2.435.153-3.562.526-1.129 1.462-1.985 2.635-2.412l48.74-17.74c1.17-.427 2.44-.373 3.569.155 1.127.526 1.981 1.458 2.408 2.635l3.021 8.291h-5.692c-10.843 0-19.664 8.821-19.664 19.665v12.656h-28.006zm-28.764 40.413c1.819 1.818 1.818 4.778 0 6.596l-36.68 36.68c-.882.881-2.053 1.367-3.299 1.367s-2.417-.485-3.298-1.366l-36.681-36.68c-1.819-1.819-1.819-4.778 0-6.597l5.727-5.727h68.504zm-43.276-36.68c.881-.881 2.052-1.366 3.298-1.366s2.417.485 3.298 1.366l15.954 15.954h-38.504zm-50.849 30.954c-3.817 7.401-2.634 16.734 3.561 22.93l36.681 36.68c7.685 7.685 20.123 7.686 27.811 0l36.681-36.681c6.195-6.196 7.378-15.529 3.561-22.929h49.766v24.218c0 10.843 8.821 19.665 19.664 19.665h51.874c10.843 0 19.664-8.821 19.664-19.665v-24.218h26.773l-2.324 66.924c-14.629-3.792-30.069-5.854-46.91-6.271-4.112-.126-7.581 3.17-7.684 7.312s3.171 7.581 7.312 7.684c16.934.42 32.284 2.616 46.746 6.676 0 0-1.128 31.426-1.172 32.179-1.957 26.832-24.313 47.617-51.632 47.617h-182.64c-27.318 0-49.673-20.783-51.632-47.613-.26-4.467.033 1.375-1.013-27.601 19.634 5.791 39.45 7.969 59.287 7.969 29.89 0 59.819-4.915 89.18-9.737 19.342-3.177 39.342-6.461 58.791-8.215 4.125-.372 7.168-4.018 6.796-8.144-.371-4.125-4-7.162-8.144-6.796-19.993 1.803-40.268 5.133-59.874 8.353-51.011 8.378-99.285 16.303-146.588.702l-2.468-71.038h17.933zm177.748 203.411h-97.393c-24.609 0-47.911-9.416-65.613-26.513-2.079-2.008-4.045-4.103-5.914-6.266 8.748 4.157 18.547 6.488 28.903 6.488h182.641c10.357 0 20.156-2.331 28.903-6.488-1.869 2.163-3.835 4.258-5.914 6.266-17.701 17.097-41.002 26.513-65.613 26.513z"/></svg>