<svg id="Capa_1" enable-background="new 0 0 512 512" height="512" viewBox="0 0 512 512" width="512" xmlns="http://www.w3.org/2000/svg"><g><path d="m400.959 273.54-37.98-37.98c-5.21-5.21-13.69-5.21-18.9 0l-37.98 37.98c-5.22 5.22-5.22 13.7 0 18.91l37.98 37.98c2.6 2.61 6.03 3.91 9.45 3.91s6.85-1.3 9.45-3.91l37.98-37.98c2.53-2.53 3.92-5.88 3.92-9.45s-1.39-6.93-3.92-9.46zm-47.43 45.13-35.67-35.67 35.67-35.68 35.67 35.68z"/><path d="m427.779 123.44h-32.23v-110.94c0-6.89-5.6-12.5-12.5-12.5h-24.12c-6.89 0-12.5 5.61-12.5 12.5v110.94h-28.68c-4.14 0-7.5 3.36-7.5 7.5 0 4.15 3.36 7.5 7.5 7.5h28.686v48.1h-52.166l-29.3-29.31c-5.22-5.21-13.7-5.21-18.91 0l-29.31 29.31h-42.83v-44.22c0-2.14 1.74-3.88 3.87-3.88h104.96c4.15 0 7.5-3.35 7.5-7.5 0-4.14-3.35-7.5-7.5-7.5h-58.54l38.73-38.72c3.05-3.06 4.7-7.3 4.54-11.62-.17-4.3-2.13-8.37-5.39-11.16-46.95-40.29-117.56-38.01-161.82 6.26-44.26 44.25-46.55 114.87-6.27 161.82 2.8 3.27 6.88 5.23 11.18 5.4.2 0 .39.01.59.01 4.12 0 8.1-1.65 11.01-4.57l42.14-42.13v211.29c0 4.14 3.36 7.5 7.5 7.5s7.5-3.36 7.5-7.5v-33.97h257.73v92.89h-257.73v-23.92c0-4.14-3.36-7.5-7.5-7.5s-7.5 3.36-7.5 7.5v58.11c0 10.4 8.47 18.87 18.87 18.87h249.99c10.4 0 18.87-8.47 18.87-18.87v-350.81c0-10.41-8.47-18.88-18.87-18.88zm-235.72-74.89c22.19 1.58 43.25 10.18 60.26 24.77.05.04.16.13.17.36 0 .18-.05.32-.16.44l-49.33 49.32h-10.94zm239.59 444.58c0 2.13-1.74 3.87-3.87 3.87h-249.99c-2.13 0-3.87-1.74-3.87-3.87v-19.19h257.73zm-70.22-478.13h19.12v108.44h-19.12zm.006 123.44h19.119v48.1h-19.119zm-105.926 30.55 17.55 17.55h-35.09zm-32.54 32.55h65.09l3.13 3.13-35.68 35.67-35.67-35.67zm-64.05-34.03-52.75 52.76c-.05.04-.17.16-.42.16-.22-.01-.32-.13-.36-.17-14.59-17.01-23.19-38.08-24.77-60.27h78.3zm0-22.52h-78.29c1.6-22.5 10.4-43.7 25.13-60.69l53.68 53.68c-.75 3.18-.45 5.05-.52 7.01zm9.63-19.11-52.19-52.19c17-14.73 38.19-23.52 60.7-25.13v74.92c-3.08.12-5.98.97-8.51 2.4zm46.2 225.17-3.29-23.81 65.25-9.03 4.54 32.84zm216.9 0h-135.26l-4.85-35.14c-.54-3.9-2.57-7.36-5.71-9.74s-7.02-3.39-10.92-2.85l-65.75 9.09c-8.06 1.12-13.71 8.58-12.59 16.64l3.04 22h-25.69v-149.51h30.63c-.25 1.01-.39 2.06-.39 3.13 0 3.57 1.39 6.93 3.92 9.45l37.98 37.98c2.52 2.53 5.88 3.92 9.45 3.92s6.93-1.39 9.46-3.92l37.98-37.98c3.4-3.41 4.57-8.21 3.52-12.58h125.18zm0-164.51h-36.096v-48.1h32.226c2.13 0 3.87 1.74 3.87 3.88z"/></g></svg>