<svg id="Capa_1" enable-background="new 0 0 512 512" height="512" viewBox="0 0 512 512" width="512" xmlns="http://www.w3.org/2000/svg"><g><path d="m375.25 167.241h-24.79v-41.18c12.86-3.34 22.39-15.05 22.39-28.94 0-16.48-13.41-29.89-29.89-29.89s-29.89 13.41-29.89 29.89c0 13.89 9.53 25.6 22.39 28.94v41.18h-106.25l-8.55-48.52c6.01-3.31 14.1-10.45 21.64-25.85 7.29-14.89 10.69-30.83 9.09-42.62-.44-3.23-2.28-6.06-5.06-7.75-2.78-1.68-6.12-2.02-9.18-.92-2.68.96-5.42 2.18-7.96 3.44-1.06-4.98-2.79-11.13-5.59-17.31-5.81-12.81-14.27-21.81-25.15-26.76-4.02-1.82-8.82-.98-11.97 2.11-8.53 8.38-13.4 19.73-14.48 33.74-.52 6.78-.05 13.15.66 18.19-2.81-.31-5.78-.53-8.65-.52-3.25.02-6.28 1.48-8.31 4.01-2.03 2.54-2.8 5.82-2.11 9.01 2.53 11.63 11.18 25.44 23.12 36.94 12.35 11.9 22.4 15.84 29.18 16.89l2.68 15.21c-8.98-6.72-22.46-12.24-23.2-12.46-3.43-1.15-7.48-.45-12.64 2.19-13.81 7.06-45 34.63-53.31 74.78-.57 2.77.04 5.68 1.66 7.98 2.99 4.23 7.57 4.64 13.22 4.64 13.81 0 24.67-6.36 31.81-12.32.57 1.42 1.14 2.75 1.71 3.97 1.19 2.53 3.36 4.47 5.94 5.41l2.34 76.81c.12 4.07 3.46 7.28 7.49 7.28.08 0 .16-.01.24-.01 4.14-.12 7.39-3.58 7.26-7.72l-1.97-64.85h187.53l-5.85 192.16c-.13 4.14 3.12 7.6 7.26 7.72.08.01.16.01.24.01 4.03 0 7.36-3.21 7.49-7.27l6.99-229.539c.3-9.901-7.63-18.071-17.53-18.071zm-197.469 22.29c-1.29-3.2-4.02-5.53-7.42-6.31-3.66-.83-7.38.29-9.98 2.99-4.51 4.69-13.3 11.92-24.94 12.41 4.02-14.43 12.15-28.95 23.24-41.42 8.09-9.09 15.72-14.79 20.21-17.26 4.309 16.08 3.17 36.64-1.11 49.59zm150.289-92.41c0-8.21 6.68-14.89 14.89-14.89s14.89 6.68 14.89 14.89-6.68 14.89-14.89 14.89-14.89-6.68-14.89-14.89zm-91.809 110.11-4.405-24.99h103.604v24.99zm-49.14-113.6c-7.67-7.38-13.94-16.21-17.1-23.84 2.99.3 5.79.75 7.59 1.06 3.19.56 6.42-.5 8.65-2.84 2.22-2.35 3.12-5.63 2.41-8.78-1.55-6.78-5.42-29.07 6.26-43.22 15.82 9.3 19.81 31.57 20.67 38.47.41 3.21 2.37 5.98 5.27 7.42 2.89 1.44 6.29 1.34 9.1-.28 1.58-.91 4.06-2.29 6.77-3.59-.37 8.25-3.24 18.69-7.92 28.25-6.35 12.97-13.57 19.55-17.91 20.31-4.35.77-13.39-2.94-23.79-12.96zm26.759 73.61h-17.37c.27-7.24-.11-14.63-1.18-21.63 7.531 4.6 14.421 10.98 18.55 21.63zm-25.22 39.99-.14-4.7c2.92-5.54 5.09-12.56 6.44-20.29h21.665l4.405 24.99zm188.44 0h-26.64v-24.99h24.79c1.43 0 2.58 1.19 2.54 2.61z"/><path d="m377.46 442.1c-4.15-.14-7.6 3.12-7.72 7.26l-.3 9.81h-173.11l-4.17-137.09c-.13-4.14-3.55-7.39-7.73-7.27-4.14.12-7.39 3.58-7.27 7.72l5.25 172.47c.29 9.53 7.99 17 17.53 17h165.89c9.53 0 17.23-7.47 17.52-17l1.38-45.18c.12-4.14-3.13-7.6-7.27-7.72zm-9.1 52.44c-.04 1.38-1.16 2.46-2.53 2.46h-165.89c-1.38 0-2.49-1.08-2.53-2.46l-.62-20.37h172.19z"/><path d="m217.081 332.75v43.18c0 6.9 5.6 12.5 12.5 12.5h43.19c6.89 0 12.5-5.6 12.5-12.5v-43.18c0-6.9-5.61-12.5-12.5-12.5h-43.19c-6.901 0-12.5 5.6-12.5 12.5zm15 2.5h38.19v38.18h-38.19z"/><path d="m313.39 315.32 30.54-30.54c4.87-4.87 4.87-12.8 0-17.68l-30.54-30.54c-2.36-2.36-5.5-3.66-8.84-3.66s-6.48 1.3-8.84 3.66l-30.54 30.54c-4.87 4.88-4.87 12.81 0 17.68l30.54 30.54c4.88 4.88 12.79 4.89 17.68 0zm-8.84-66.38 27 27-27 27-27-27z"/></g></svg>