<svg id="Capa_1" enable-background="new 0 0 512 512" height="512" viewBox="0 0 512 512" width="512" xmlns="http://www.w3.org/2000/svg"><g><path d="m197.81 51.147c.026-.009.027-.009 0 0z"/><path d="m437.869 39.655-8.586-18.428c-2.962-6.387-10.53-9.16-16.917-6.185l-64.331 29.931c-7.133 3.32-12.008 9.954-13.04 17.738l-13.517 101.275h-69.436l9.266-46.769c1.217-6.152-1.867-12.339-7.502-15.046-26.403-12.677-55.843-15.022-83.678-6.823l-5.834-16.038 63.826-23.23c4.19-1.524 6.826-5.539 6.56-9.99-.268-4.451-3.364-8.121-7.706-9.134-89.222-20.785-83.615-19.596-85.308-19.821l-4.437-12.196c-1.417-3.892-5.717-5.902-9.612-4.484-3.893 1.416-5.899 5.719-4.483 9.612l4.437 12.195c-1.164 1.271 2.27-3.11-52.612 70.022-2.675 3.567-2.687 8.369-.032 11.95 2.67 3.601 7.277 4.955 11.446 3.438l63.828-23.232 5.833 16.036c-26.584 11.602-47.627 32.321-59.715 59.015-2.571 5.686-.955 12.406 3.935 16.345l90.642 72.868 5.882 34.621c.694 4.084 4.571 6.832 8.65 6.138 4.084-.694 6.832-4.566 6.139-8.65l-6.17-36.316h187.68l-23.217 136.659c-.693 4.084 2.055 7.956 6.139 8.65 4.075.693 7.955-2.047 8.649-6.138l34.642-203.911c.667-3.931-.426-7.933-2.998-10.979s-6.335-4.793-10.321-4.793h-38.272l11.043-82.773 52.956-24.642c6.364-2.963 9.133-10.551 6.171-16.915zm-340.817 48.168 41.499-55.344c.288-.385.78-.573 1.264-.461l67.365 15.722c-32.518 11.835-10.168 3.699-9.37 3.409-.647.234-18.678 6.797-100.758 36.674zm13.355 76.931c11.526-24.818 31.988-43.61 57.718-52.974 25.749-9.367 53.508-8.124 78.279 3.481l-4.185 21.124c-20.437-11.223-44.739-13.228-66.999-5.126-22.261 8.103-39.586 25.259-48.027 46.989zm113.365 64.743h-20.924l-8.581-50.511h39.513zm-31.271-65.511c-3.986 0-7.749 1.747-10.321 4.793s-3.665 7.048-2.998 10.979l7.926 46.656-47.515-38.197c6.126-19.864 21.08-35.699 40.758-42.861 19.677-7.162 41.314-4.643 58.776 6.637l-2.376 11.992h-44.25zm120.235 65.511h-73.672l10.007-50.511h70.406zm31.088 0h-15.956l6.742-50.511h15.954zm60.381-50.511-8.581 50.511h-36.666l6.738-50.511zm-32.929-110.844c-3.946 1.851-6.652 5.53-7.24 9.859l-11.471 85.985h-15.953l13.253-99.298c.356-2.684 2.038-4.97 4.5-6.116l62.271-28.972 6.676 14.329z"/><path d="m381.031 465.13-9.306-5.403 6.763-39.807c.693-4.083-2.055-7.956-6.139-8.65-4.081-.694-7.956 2.054-8.65 6.138l-3.757 22.12h-121.413l-20.853-122.745c-.694-4.083-4.567-6.829-8.65-6.138-4.084.694-6.832 4.566-6.139 8.65l23.858 140.432-9.306 5.403c-6.558 3.807-10.631 10.883-10.631 18.465v7.053c0 11.774 9.579 21.352 21.352 21.352h142.15c11.773 0 21.352-9.579 21.352-21.352v-7.053c0-7.583-4.074-14.659-10.631-18.465zm-4.369 25.518c0 3.503-2.85 6.353-6.353 6.353h-142.148c-3.503 0-6.353-2.85-6.353-6.353v-7.053c0-2.256 1.212-4.361 3.162-5.494l9.889-5.742c5.034-2.923 7.762-8.742 6.787-14.481l-.569-3.352h116.317l-.57 3.353c-.975 5.738 1.753 11.558 6.786 14.48l9.889 5.742c1.951 1.132 3.163 3.237 3.163 5.493z"/><path d="m319.885 335.052c6.116 3.532 13.89 1.414 17.396-4.662l19.655-34.044c3.519-6.094 1.435-13.879-4.662-17.397l-34.043-19.655c-6.079-3.512-13.886-1.421-17.397 4.661l-19.656 34.045c-3.51 6.082-1.418 13.887 4.663 17.397zm-7.192-61.635 30.122 17.391-17.392 30.121-30.122-17.391z"/><path d="m249.094 385.563 19.655 34.043c3.511 6.08 11.286 8.191 17.397 4.661l34.042-19.654c6.096-3.518 8.184-11.3 4.663-17.398l-19.655-34.043c-1.7-2.946-4.446-5.053-7.732-5.934s-6.718-.428-9.665 1.272l-34.043 19.655c-6.081 3.512-8.173 11.315-4.662 17.398zm44.244-22.93 17.392 30.121-30.122 17.391-17.392-30.121z"/></g></svg>