<svg id="Capa_1" enable-background="new 0 0 512 512" height="512" viewBox="0 0 512 512" width="512" xmlns="http://www.w3.org/2000/svg"><g><path d="m504.5 413.95c4.142 0 7.5-3.358 7.5-7.5v-143.29c0-32.218-16.222-61.846-43.393-79.254-.782-.501-1.282-1.433-1.337-2.479-1.132-22.143-3.83-43.168-8.007-62.632 3.272-2.391 5.411-6.246 5.411-10.601v-38.231c0-7.243-5.893-13.135-13.136-13.135h-67.288c-7.243 0-13.135 5.893-13.135 13.135v38.231c0 4.355 2.139 8.211 5.413 10.602-4.173 19.448-6.875 40.472-8.018 62.64-.052 1.047-.548 1.97-1.328 2.47-9.191 5.895-17.306 13.383-23.936 22.003-10.474-17.148-25.942-31.217-44.922-39.854-1.539-.7-2.533-2.291-2.533-4.052v-95.332h4.404c6.44 0 11.68-5.24 11.68-11.68v-32.331c0-6.44-5.24-11.68-11.68-11.68h-88.388c-6.44 0-11.68 5.24-11.68 11.68v32.331c0 6.44 5.24 11.68 11.68 11.68h4.404v95.333c0 1.761-.994 3.352-2.532 4.052-35.951 16.36-59.329 52.187-59.931 91.576-8.178-15.43-15.883-31.655-20.84-50.636-.074-.426-.184-.838-.326-1.236-3.271-12.917-5.26-27.117-5.26-43.21v-38.291c5.435-1.252 9.5-6.13 9.5-11.939v-43.16c0-6.76-5.495-12.26-12.25-12.26h-62.4c-6.755 0-12.25 5.5-12.25 12.26v43.16c0 5.813 4.07 10.693 9.51 11.941v38.289c0 25.093-4.857 48.017-15.285 72.145-1.644 3.802.106 8.217 3.909 9.86 3.804 1.646 8.217-.107 9.86-3.909 3.62-8.377 6.611-16.624 9.014-24.862h52.879c6.9 23.706 17.527 43.206 27.369 61.249 2.28 4.179 4.444 8.155 6.542 12.13v196.857h-138.72v-138.39c0-25.543 11.383-46.416 24.562-70.583l2.438-4.477c1.977-3.64.628-8.193-3.011-10.17-3.639-1.975-8.193-.629-10.17 3.011l-2.426 4.455c-13.573 24.887-26.393 48.396-26.393 77.764v138.5c0 8.21 6.68 14.89 14.89 14.89h483.81c7.333 0 13.3-5.966 13.3-13.3v-46.27c0-4.142-3.358-7.5-7.5-7.5s-7.5 3.358-7.5 7.5v44.57h-138.718v-226.832c0-13.265-2.602-26.145-7.39-38.049 6.188-9.839 14.557-18.302 24.385-24.605 4.85-3.109 7.92-8.474 8.213-14.338 1.113-21.598 3.758-42.03 7.84-60.866h53.131c4.085 18.851 6.727 39.283 7.83 60.875.311 5.871 3.384 11.227 8.224 14.329 22.845 14.639 36.485 39.546 36.485 66.626v143.29c0 4.142 3.358 7.5 7.5 7.5zm-433.857-213.167c2.546-12.46 3.787-25.066 3.787-38.233v-40.73c0-5.81-4.07-10.688-9.51-11.939v-37.981h56.9v37.981c-5.435 1.252-9.5 6.13-9.5 11.939v40.73c0 13.918 1.408 26.571 3.781 38.233zm144.483-149.112v-25.691h81.748v25.691h-5.062c-6.078 0-11.022 4.944-11.022 11.022v65h-49.58v-65c0-6.078-4.944-11.022-11.022-11.022zm-46.408 434.349v-226.832c0-34.135 20.086-65.333 51.173-79.48 6.876-3.129 11.319-10.079 11.319-17.705v-19.31h49.58v19.31c0 7.625 4.443 14.575 11.319 17.705 31.086 14.147 51.173 45.345 51.173 79.48v226.832c-49.933 0-119.311 0-174.564 0zm217.396-414.192h63.559v34.502h-63.559z"/><path d="m380.612 248.736c-6.644 2.681-10.937 9.053-10.937 16.233v159.136c0 7.18 4.293 13.552 10.937 16.233 12.021 4.851 24.651 7.276 37.282 7.276s25.261-2.426 37.282-7.276c6.644-2.681 10.937-9.053 10.937-16.233v-159.136c0-7.18-4.293-13.552-10.937-16.233-24.041-9.702-50.522-9.702-74.564 0zm70.5 175.369c0 1.015-.623 1.949-1.55 2.323-20.422 8.241-42.915 8.241-63.337 0-.927-.374-1.55-1.308-1.55-2.323v-159.136c0-1.015.623-1.949 1.55-2.323 10.212-4.121 20.938-6.181 31.668-6.181 10.728 0 21.459 2.061 31.668 6.181.927.374 1.55 1.308 1.55 2.323v159.136z"/><path d="m124.581 320.528c0-17.209-14-31.21-31.209-31.21s-31.21 14.001-31.21 31.21 14.001 31.209 31.21 31.209 31.209-14 31.209-31.209zm-47.42 0c0-8.938 7.272-16.21 16.21-16.21s16.209 7.272 16.209 16.21-7.271 16.209-16.209 16.209-16.21-7.271-16.21-16.209z"/><path d="m48.275 379.283c-2.251 3.477-1.257 8.121 2.22 10.372 14.227 9.21 28.549 13.814 42.876 13.814 14.324 0 28.652-4.606 42.876-13.814 3.477-2.251 4.471-6.895 2.22-10.372-2.251-3.478-6.896-4.472-10.372-2.22-23.367 15.127-46.083 15.127-69.449 0-3.477-2.252-8.12-1.258-10.371 2.22z"/><path d="m214.217 278.344h83.565c6.4 0 11.608-5.207 11.608-11.607v-21.408c0-6.4-5.208-11.608-11.608-11.608h-83.565c-6.4 0-11.608 5.208-11.608 11.608v21.408c0 6.4 5.208 11.607 11.608 11.607zm3.392-29.624h76.781v14.624h-76.781z"/><path d="m256 301.286c-30.809 0-55.874 25.065-55.874 55.874v80.112c0 7.243 5.893 13.136 13.136 13.136h85.477c7.243 0 13.136-5.893 13.136-13.136v-80.112c-.001-30.809-25.066-55.874-55.875-55.874zm40.874 134.121h-81.748v-78.247c0-22.538 18.336-40.874 40.874-40.874s40.874 18.336 40.874 40.874z"/><path d="m245.34 359.104c3.61-3.276 7.196-4.938 10.66-4.938s7.05 1.662 10.66 4.938c1.437 1.304 3.24 1.947 5.039 1.947 2.042 0 4.076-.829 5.556-2.459 2.784-3.067 2.555-7.811-.512-10.594-6.456-5.86-13.435-8.832-20.742-8.832s-14.286 2.971-20.742 8.832c-3.067 2.784-3.296 7.527-.512 10.594 2.782 3.066 7.526 3.298 10.593.512z"/><path d="m271.703 405.609h-31.406c-4.142 0-7.5 3.358-7.5 7.5s3.358 7.5 7.5 7.5h31.406c4.142 0 7.5-3.358 7.5-7.5s-3.358-7.5-7.5-7.5z"/><path d="m432.447 289.319h-29.106c-4.142 0-7.5 3.358-7.5 7.5s3.358 7.5 7.5 7.5h29.106c4.142 0 7.5-3.358 7.5-7.5s-3.358-7.5-7.5-7.5z"/><path d="m432.447 337.037h-29.106c-4.142 0-7.5 3.358-7.5 7.5s3.358 7.5 7.5 7.5h29.106c4.142 0 7.5-3.358 7.5-7.5s-3.358-7.5-7.5-7.5z"/><path d="m432.447 384.755h-29.106c-4.142 0-7.5 3.358-7.5 7.5s3.358 7.5 7.5 7.5h29.106c4.142 0 7.5-3.358 7.5-7.5s-3.358-7.5-7.5-7.5z"/></g></svg>