<svg id="Capa_1" enable-background="new 0 0 512 512" height="512" viewBox="0 0 512 512" width="512" xmlns="http://www.w3.org/2000/svg"><path d="m386.311 132.096h-17.888v-20.7c0-32.12-25.39-58.415-57.152-59.885v-20.761c0-16.956-13.794-30.75-30.749-30.75h-49.043c-16.956 0-30.75 13.794-30.75 30.75v20.764c-9.267.434-18.346 3.007-26.417 7.519-3.615 2.021-4.908 6.591-2.886 10.207 2.021 3.615 6.59 4.908 10.207 2.886 6.651-3.719 14.225-5.685 21.901-5.685h104.934c24.789 0 44.956 20.167 44.956 44.956v20.7h-194.847v-20.7c0-5.96 1.146-11.747 3.404-17.197 1.585-3.827-.231-8.214-4.057-9.8-3.827-1.585-8.214.231-9.8 4.057-3.017 7.281-4.547 14.999-4.547 22.94v20.7h-17.888c-15.688 0-28.451 12.763-28.451 28.451s12.763 28.451 28.451 28.451h2.316v71.012c0 118.774 36.231 204.993 51.808 236.549 4.702 9.524 14.213 15.44 24.822 15.44h102.729c10.609 0 20.12-5.917 24.822-15.44 4.215-8.539 10.681-22.623 17.548-41.229 1.435-3.886-.554-8.199-4.439-9.633-3.886-1.432-8.198.554-9.633 4.439-6.642 17.996-12.871 31.567-16.927 39.783-2.155 4.367-6.513 7.08-11.371 7.08h-102.729c-4.858 0-9.215-2.713-11.372-7.08-15.111-30.612-50.258-114.295-50.258-229.91v-71.012h225.989v71.012c0 53.718-7.569 106.667-22.498 157.376-1.17 3.974 1.103 8.143 5.076 9.313.707.208 1.42.307 2.121.307 3.241 0 6.23-2.117 7.191-5.384 15.334-52.086 23.109-106.46 23.109-161.613v-71.012h2.316c15.688 0 28.451-12.763 28.451-28.451s-12.761-28.45-28.449-28.45zm-154.832-117.096h49.043c8.684 0 15.749 7.065 15.749 15.75v20.69h-80.542v-20.69c0-8.685 7.065-15.75 15.75-15.75zm154.832 158.999h-260.622c-7.417 0-13.451-6.034-13.451-13.451s6.034-13.451 13.451-13.451h260.621c7.417 0 13.451 6.034 13.451 13.451s-6.033 13.451-13.45 13.451z"/></svg>