<svg id="Capa_1" enable-background="new 0 0 512 512" height="512" viewBox="0 0 512 512" width="512" xmlns="http://www.w3.org/2000/svg"><g><path d="m487.575 439.816-29-75.708c8.538-3.98 14.472-12.641 14.472-22.665 0-11.753-8.156-21.632-19.104-24.288l6.958-24.831c1.118-3.989-1.209-8.128-5.198-9.246-3.989-1.121-8.128 1.209-9.245 5.198l-7.894 28.171h-84.568l-37.255-132.953h159.069l-19.912 71.083c-1.117 3.989 1.21 8.127 5.198 9.245.677.189 1.357.28 2.027.28 3.279 0 6.29-2.167 7.218-5.479l21.161-75.543c11.643-2.125 20.498-12.336 20.498-24.582 0-13.783-11.213-24.997-24.996-24.997h-181.457c-13.783 0-24.996 11.213-24.996 24.997 0 12.246 8.855 22.457 20.497 24.583l37.569 134.073c-10.952 2.654-19.112 12.534-19.112 24.29 0 10.024 5.934 18.684 14.472 22.665l-29.001 75.709c-13.519.306-24.424 11.391-24.424 24.981 0 13.783 11.213 24.997 24.996 24.997h181.457c13.783 0 24.996-11.213 24.996-24.997-.001-13.592-10.906-24.677-24.426-24.983zm-44.17-73.377 28.102 73.362h-150.464l28.102-73.362zm-147.854-207.941c0-5.512 4.484-9.997 9.996-9.997h181.457c5.512 0 9.996 4.484 9.996 9.997 0 5.512-4.484 9.996-9.996 9.996h-181.457c-5.512 0-9.996-4.485-9.996-9.996zm48.95 172.949h103.55c5.512 0 9.996 4.484 9.996 9.996s-4.484 9.997-9.996 9.997h-103.55c-5.513 0-9.997-4.484-9.997-9.997 0-5.512 4.484-9.996 9.997-9.996zm142.503 143.347h-181.457c-5.512 0-9.996-4.484-9.996-9.997 0-5.512 4.484-9.996 9.996-9.996h181.457c5.512 0 9.996 4.484 9.996 9.996 0 5.513-4.484 9.997-9.996 9.997z"/><path d="m257.047 47.202c0-13.783-11.213-24.997-24.996-24.997h-140.815c-4.143 0-7.5 3.358-7.5 7.5s3.357 7.5 7.5 7.5h140.814c5.512 0 9.996 4.484 9.996 9.997 0 5.512-4.484 9.996-9.996 9.996h-207.054c-5.512 0-9.996-4.484-9.996-9.996s4.484-9.997 9.996-9.997h31.24c4.143 0 7.5-3.358 7.5-7.5s-3.357-7.5-7.5-7.5h-31.24c-13.783.001-24.996 11.214-24.996 24.997 0 11.96 8.445 21.98 19.685 24.423l44.67 189.712c-11.316 2.385-19.837 12.444-19.837 24.458 0 10.777 6.855 19.982 16.434 23.485l-38.55 130.656c-12.568 1.302-22.402 11.955-22.402 24.862 0 13.783 11.213 24.997 24.996 24.997h207.055c13.783 0 24.996-11.213 24.996-24.997 0-12.906-9.832-23.558-22.4-24.861l-38.55-130.657c9.578-3.504 16.433-12.708 16.433-23.484 0-12.014-8.521-22.072-19.835-24.458l44.671-189.714c11.237-2.444 19.681-12.463 19.681-24.422zm-177.408 213.597-44.408-188.601h186.588l-44.409 188.601zm101.264 49.993 38.065 129.01h-180.886l38.065-129.01zm61.144 154.006c0 5.512-4.484 9.997-9.996 9.997h-207.055c-5.512 0-9.996-4.484-9.996-9.997 0-5.512 4.484-9.996 9.996-9.996h207.055c5.511 0 9.996 4.484 9.996 9.996zm-44.518-179.003c0 5.512-4.484 9.996-9.997 9.996h-118.017c-5.512 0-9.996-4.484-9.996-9.996s4.484-9.997 9.996-9.997h118.018c5.512.001 9.996 4.485 9.996 9.997z"/></g></svg>