<svg id="Capa_1" enable-background="new 0 0 512 512" height="512" viewBox="0 0 512 512" width="512" xmlns="http://www.w3.org/2000/svg"><g><path d="m234.499 459.206c0 11.855 9.645 21.501 21.501 21.501 11.855 0 21.501-9.645 21.501-21.501 0-11.855-9.645-21.501-21.501-21.501-11.855.001-21.501 9.646-21.501 21.501zm28.001 0c0 3.584-2.916 6.5-6.5 6.5s-6.5-2.916-6.5-6.5 2.916-6.5 6.5-6.5 6.5 2.916 6.5 6.5z"/><path d="m464.6 22.568c-12.452-21.563-40.124-28.975-61.687-16.525l-30.94 17.862c-6.116-5.849-12.709-11.271-19.748-16.2-6.574-4.604-15.058-4.757-21.612-.391-10.445 6.96-21.718 12.349-33.511 16.122l.234-.875c1.072-4.001-1.303-8.114-5.304-9.186-3.995-1.069-8.113 1.302-9.186 5.304l-2.397 8.947c-5.356.982-10.79 1.624-16.272 1.953v-13.358c0-4.142-3.358-7.5-7.5-7.5s-7.5 3.358-7.5 7.5v13.432c-5.459-.273-10.87-.872-16.209-1.792l-2.46-9.182c-1.072-4.002-5.186-6.373-9.186-5.304-4.001 1.072-6.376 5.185-5.304 9.186l.363 1.353c-12.333-3.788-24.111-9.348-34.995-16.6-6.554-4.366-15.038-4.213-21.612.391-7.035 4.927-13.623 10.354-19.746 16.201l-30.941-17.863c-21.564-12.452-49.236-5.038-61.687 16.525-12.451 21.562-5.038 49.235 16.525 61.687l29.941 17.292c-2.241 8.309-3.861 16.826-4.8 25.495-.446 4.118 2.531 7.819 6.649 8.265 4.115.449 7.818-2.531 8.264-6.649 3.699-34.145 18.829-65.783 42.522-90.076.013-.013.026-.027.04-.041 6.63-6.793 13.93-13.012 21.838-18.55 1.453-1.018 3.338-1.095 4.691-.195 4.517 3.01 9.175 5.754 13.948 8.237-2.503 2.328-3.168 6.149-1.386 9.234l13.466 23.323c2.081 3.605 6.676 4.808 10.245 2.745 3.588-2.071 4.817-6.658 2.745-10.245l-10.703-18.537c6.347 2.487 12.857 4.524 19.487 6.118l2.117 7.903c1.073 4.003 5.184 6.374 9.186 5.304 4.001-1.072 6.376-5.185 5.304-9.186l-.28-1.044c4.017.504 8.064.855 12.136 1.033.706 3.409 3.725 5.971 7.343 5.971 3.644 0 6.679-2.6 7.357-6.046 4.084-.217 8.144-.595 12.171-1.139l-.328 1.225c-1.072 4.001 1.303 8.114 5.304 9.186 3.998 1.069 8.112-1.298 9.186-5.304l2.212-8.255c6.748-1.694 13.362-3.862 19.807-6.484l-11.117 19.255c-2.071 3.588-.842 8.175 2.745 10.245 3.573 2.063 8.166.856 10.245-2.745l13.466-23.323c1.901-3.293 1.016-7.422-1.916-9.681 4.483-2.368 8.867-4.955 13.122-7.79 1.352-.9 3.237-.823 4.69.195 40.887 28.632 65.297 75.487 65.297 125.337 0 84.312-68.599 152.905-152.919 152.905-37.937 0-74.321-13.988-102.45-39.387-27.927-25.216-45.531-59.604-49.569-96.83-.447-4.118-4.145-7.092-8.265-6.647-4.118.447-7.094 4.147-6.647 8.265 4.436 40.891 23.766 78.659 54.429 106.346 18.247 16.476 39.658 28.576 62.712 35.724v156.505c-.001 27.455 22.335 49.791 49.79 49.791s49.791-22.336 49.791-49.791v-43.581c0-4.142-3.358-7.5-7.5-7.5s-7.5 3.358-7.5 7.5v43.581c0 19.184-15.607 34.791-34.791 34.791s-34.791-15.607-34.791-34.791v-152.603c11.349 2.397 23.002 3.629 34.791 3.629 11.926 0 23.562-1.259 34.791-3.634v74.026c0 4.142 3.358 7.5 7.5 7.5s7.5-3.358 7.5-7.5v-77.927c68.357-21.264 118.128-85.114 118.128-160.37 0-14.947-2.012-29.644-5.832-43.761l29.988-17.314c21.563-12.452 28.976-40.125 16.525-61.687zm-393.174 48.697c-14.4-8.316-19.351-26.797-11.036-41.196 8.315-14.401 26.795-19.352 41.196-11.035l27.77 16.032c-13.33 15.3-23.77 32.875-30.816 51.859zm369.148-.001-27.166 15.686c-7.038-18.95-17.453-36.544-30.784-51.873l27.79-16.043c14.4-8.316 32.88-3.365 41.196 11.035 8.315 14.399 3.364 32.88-11.036 41.195z"/><path d="m209.577 152.825c4.142 0 7.5-3.358 7.5-7.5s-3.358-7.5-7.5-7.5h-1.356c-4.142 0-7.5 3.358-7.5 7.5s3.358 7.5 7.5 7.5z"/><path d="m256.678 152.825c4.142 0 7.5-3.358 7.5-7.5s-3.358-7.5-7.5-7.5h-1.356c-4.142 0-7.5 3.358-7.5 7.5s3.358 7.5 7.5 7.5z"/><path d="m303.778 152.825c4.142 0 7.5-3.358 7.5-7.5s-3.358-7.5-7.5-7.5h-1.355c-4.142 0-7.5 3.358-7.5 7.5s3.358 7.5 7.5 7.5z"/><path d="m231.772 192.493h1.356c4.142 0 7.5-3.358 7.5-7.5s-3.358-7.5-7.5-7.5h-1.356c-4.142 0-7.5 3.358-7.5 7.5s3.358 7.5 7.5 7.5z"/><path d="m278.872 192.493h1.355c4.142 0 7.5-3.358 7.5-7.5s-3.358-7.5-7.5-7.5h-1.355c-4.142 0-7.5 3.358-7.5 7.5s3.358 7.5 7.5 7.5z"/><path d="m231.772 113.157h1.356c4.142 0 7.5-3.358 7.5-7.5s-3.358-7.5-7.5-7.5h-1.356c-4.142 0-7.5 3.358-7.5 7.5s3.358 7.5 7.5 7.5z"/><path d="m278.872 113.157h1.355c4.142 0 7.5-3.358 7.5-7.5s-3.358-7.5-7.5-7.5h-1.355c-4.142 0-7.5 3.358-7.5 7.5s3.358 7.5 7.5 7.5z"/><path d="m358.85 137.825c-4.142 0-7.5 3.358-7.5 7.5s3.358 7.5 7.5 7.5h26.932c4.142 0 7.5-3.358 7.5-7.5s-3.358-7.5-7.5-7.5z"/><path d="m379.442 104.666-26.014 6.97c-4.001 1.072-6.376 5.185-5.304 9.186 1.073 4.003 5.184 6.374 9.186 5.304l26.014-6.97c4.002-1.072 6.376-5.185 5.304-9.186-1.073-4.002-5.186-6.375-9.186-5.304z"/><path d="m364.735 74.278-23.323 13.466c-3.587 2.071-4.817 6.658-2.745 10.245 2.078 3.599 6.669 4.811 10.245 2.745l23.323-13.466c3.587-2.071 4.817-6.658 2.745-10.245-2.071-3.588-6.658-4.817-10.245-2.745z"/><path d="m342.665 48.731-19.044 19.044c-2.929 2.929-2.929 7.678 0 10.607s7.678 2.929 10.607 0l19.044-19.044c2.929-2.929 2.929-7.678 0-10.607s-7.679-2.929-10.607 0z"/><path d="m184.431 80.579c1.919 0 3.839-.732 5.303-2.197 2.929-2.929 2.929-7.677 0-10.607l-19.044-19.044c-2.928-2.929-7.677-2.929-10.607 0-2.929 2.929-2.929 7.677 0 10.607l19.044 19.044c1.465 1.465 3.385 2.197 5.304 2.197z"/><path d="m138.375 77.023c-2.071 3.588-.842 8.175 2.745 10.245l23.323 13.466c1.181.682 2.471 1.006 3.743 1.006 2.592 0 5.113-1.346 6.502-3.752 2.071-3.588.842-8.175-2.745-10.245l-23.323-13.465c-3.587-2.073-8.174-.843-10.245 2.745z"/><path d="m124.728 109.97c-1.072 4.001 1.302 8.114 5.304 9.186l26.014 6.97c.65.174 1.303.257 1.946.257 3.311 0 6.342-2.21 7.24-5.561 1.072-4.001-1.303-8.114-5.304-9.186l-26.014-6.97c-3.997-1.068-8.114 1.302-9.186 5.304z"/><path d="m120.074 145.325c0 4.142 3.358 7.5 7.5 7.5h26.931c4.142 0 7.5-3.358 7.5-7.5s-3.358-7.5-7.5-7.5h-26.931c-4.142 0-7.5 3.358-7.5 7.5z"/></g></svg>