<svg id="Capa_1" enable-background="new 0 0 512 512" height="512" viewBox="0 0 512 512" width="512" xmlns="http://www.w3.org/2000/svg"><g><path d="m405.746 462.234-8.405-47.672c-.719-4.079-4.608-6.801-8.688-6.084-4.079.719-6.803 4.609-6.084 8.688l8.174 46.363-33.959 32.789-30.105-13.694 22.044-21.639c2.94-2.887 4.268-7.033 3.553-11.091-.716-4.058-3.383-7.499-7.133-9.206l-28.107-12.79 22.043-21.637c2.942-2.887 4.27-7.034 3.554-11.094-.717-4.059-3.385-7.501-7.137-9.206l-27.891-12.678 21.331-20.1c3.073-2.895 4.471-7.107 3.738-11.268l-46.878-265.846c-2.555-14.486-15.086-25.001-29.796-25.001-14.711 0-27.242 10.515-29.796 25.002l-46.879 265.846c-.734 4.16.664 8.372 3.737 11.268l21.333 20.101-27.879 12.676c-3.752 1.706-6.42 5.148-7.136 9.207s.612 8.205 3.553 11.092l22.043 21.637-28.119 12.791c-3.751 1.707-6.418 5.148-7.134 9.207s.613 8.205 3.554 11.091l22.043 21.638-30.105 13.694-33.958-32.789 54.1-306.81c.719-4.079-2.004-7.969-6.084-8.688-4.076-.717-7.969 2.004-8.688 6.084l-54.331 308.12c-.723 4.099.634 8.272 3.628 11.162l36.624 35.363c2.201 2.126 5.059 3.241 7.971 3.241 1.613 0 3.243-.342 4.786-1.044l35.584-16.186c3.751-1.706 6.418-5.147 7.134-9.205.716-4.059-.612-8.205-3.553-11.093l-22.043-21.638 28.12-12.791c3.751-1.707 6.418-5.148 7.133-9.207.716-4.058-.612-8.204-3.553-11.092l-22.042-21.636 27.953-12.71c3.799-1.727 6.474-5.216 7.157-9.333.683-4.116-.723-8.282-3.759-11.143l-23.061-21.73 46.645-264.519c1.288-7.305 7.606-12.607 15.024-12.607 7.417 0 13.736 5.302 15.024 12.607l46.645 264.519-23.061 21.729c-3.037 2.862-4.442 7.028-3.759 11.145.684 4.117 3.36 7.605 7.159 9.332l27.964 12.711-22.042 21.636c-2.94 2.886-4.269 7.032-3.554 11.09s3.381 7.5 7.133 9.208l28.107 12.79-22.044 21.638c-2.941 2.887-4.27 7.034-3.554 11.092s3.383 7.5 7.134 9.206l35.584 16.187c4.329 1.97 9.336 1.107 12.757-2.196l36.625-35.364c2.993-2.892 4.348-7.065 3.626-11.163z"/><path d="m172.748 128.333c4.076.716 7.969-2.004 8.688-6.084l9.246-52.436c5.6-31.761 33.073-54.813 65.324-54.813 32.252 0 59.726 23.054 65.325 54.816l55.115 312.624c.642 3.639 3.806 6.199 7.377 6.199.432 0 .871-.038 1.311-.115 4.079-.719 6.803-4.609 6.084-8.688l-55.114-312.625c-6.866-38.945-40.552-67.211-80.098-67.211-39.544 0-73.23 28.265-80.097 67.209l-9.246 52.436c-.719 4.079 2.006 7.969 6.085 8.688z"/></g></svg>