<svg id="Capa_1" enable-background="new 0 0 512 512" height="512" viewBox="0 0 512 512" width="512" xmlns="http://www.w3.org/2000/svg"><path d="m407.226 6.824c-7.604 0-14.886 2.16-21.642 6.42-13.224 8.34-28.447 9.008-39.969 5.511-3.964-1.203-8.151 1.034-9.355 4.997-1.203 3.964 1.034 8.152 4.998 9.355 15.723 4.776 35.216 3.616 52.328-7.176 4.322-2.726 8.911-4.108 13.64-4.108 18.724 0 33.957 21.505 33.957 47.938s-15.233 47.938-33.957 47.938c-4.728 0-9.317-1.382-13.64-4.108-10.134-6.391-21.435-9.769-32.682-9.769h-2.347c-8.642 0-17.121 1.882-25.205 5.595-21.206 9.741-48.677 15.105-77.353 15.105-28.675 0-56.146-5.365-77.353-15.105-8.083-3.713-16.562-5.595-25.205-5.595h-2.346c-11.246 0-22.547 3.378-32.681 9.769-4.323 2.726-8.912 4.108-13.641 4.108-18.724 0-33.957-21.505-33.957-47.938s15.233-47.938 33.957-47.938c4.729 0 9.318 1.382 13.64 4.108 10.134 6.391 21.435 9.769 32.681 9.769h2.347c8.642 0 17.123-1.882 25.205-5.595 21.209-9.74 48.679-15.105 77.354-15.105 18.536 0 36.236 2.161 52.609 6.424 4.012 1.042 8.105-1.361 9.147-5.369 1.044-4.009-1.359-8.104-5.368-9.148-17.606-4.583-36.577-6.907-56.388-6.907-30.79 0-60.484 5.851-83.614 16.475-6.105 2.804-12.479 4.226-18.944 4.226h-2.347c-8.411 0-16.944-2.579-24.679-7.457-6.755-4.26-14.037-6.42-21.642-6.42-26.995 0-48.957 28.234-48.957 62.938 0 34.705 21.962 62.938 48.957 62.938 7.604 0 14.886-2.16 21.642-6.42 7.736-4.878 16.27-7.457 24.68-7.457h2.346c6.466 0 12.839 1.422 18.944 4.226 15.326 7.04 33.544 11.969 53.044 14.503v79.637c0 4.142 3.358 7.5 7.5 7.5s7.5-3.358 7.5-7.5v-78.18c5.142.333 10.338.515 15.57.515s10.428-.182 15.57-.515v129.74c0 23.14-9.871 35.926-15.567 41.377-5.717-5.471-15.573-18.255-15.573-41.377v-16.56c0-4.142-3.358-7.5-7.5-7.5s-7.5 3.358-7.5 7.5v16.56c0 31.928 15.771 48.684 23.07 54.73v11.1c0 2.084-.948 4.018-2.522 5.161-2.569 1.856-10.388 7.506-10.388 18.059 0 12.033 9.557 17.806 16.536 22.021 6.456 3.899 9.285 5.945 9.285 9.17s-2.829 5.271-9.285 9.169c-6.979 4.215-16.536 9.987-16.536 22.021 0 12.028 9.556 17.797 16.534 22.01 6.457 3.898 9.287 5.944 9.287 9.169 0 3.231-2.83 5.279-9.289 9.181-6.977 4.215-16.532 9.988-16.532 22.02 0 9.757 6.409 15.326 11.253 18.682 1.038.713 1.657 1.931 1.657 3.258 0 4.142 3.358 7.5 7.5 7.5 4.143 0 7.5-3.358 7.5-7.5 0-6.27-3.052-12.11-8.139-15.605-4.406-3.053-4.771-4.738-4.771-6.335 0-3.231 2.831-5.279 9.288-9.181 6.978-4.215 16.532-9.988 16.532-22.02 0-12.028-9.556-17.797-16.533-22.01-6.458-3.898-9.287-5.944-9.287-9.169 0-3.232 2.831-5.279 9.291-9.181 6.976-4.213 16.529-9.984 16.529-22.009 0-12.026-9.554-17.796-16.529-22.01-6.46-3.901-9.291-5.949-9.291-9.181 0-1.46.322-3.118 4.187-5.911 5.462-3.966 8.723-10.437 8.723-17.309v-11.099c7.299-6.046 23.07-22.803 23.07-54.731v-131.196c19.5-2.534 37.718-7.463 53.043-14.503 6.106-2.804 12.479-4.226 18.944-4.226h2.347c8.411 0 16.945 2.579 24.681 7.457 6.756 4.26 14.037 6.42 21.641 6.42 26.995 0 48.957-28.234 48.957-62.938 0-34.705-21.962-62.939-48.957-62.939z"/></svg>