<svg id="Capa_1" enable-background="new 0 0 512 512" height="512" viewBox="0 0 512 512" width="512" xmlns="http://www.w3.org/2000/svg"><path d="m487.477 324.76c.03-.129.057-.259.08-.391 1.971-10.087 2.154-20.339.683-30.229-.999-6.718-6.629-11.593-13.387-11.593h-31.854c-4.143 0-7.5 3.358-7.5 7.5s3.357 7.5 7.5 7.5h30.573c.778 5.913.853 11.955.177 18.002h-173.209c-.644-5.761-.639-11.804.178-18.002h107.282c4.143 0 7.5-3.358 7.5-7.5s-3.357-7.5-7.5-7.5h-56.525l8.652-8.652c2.358-2.359 3.639-5.625 3.512-8.962-.127-3.325-1.644-6.471-4.162-8.633-8.463-7.262-18.418-12.309-29.063-14.88l4.662-42.073c.412-3.633-.751-7.283-3.189-10.014-2.44-2.733-5.94-4.301-9.603-4.301h-17.43v-19.85c0-6.893-5.607-12.5-12.5-12.5h-49.193l-36.02-36.02c-2.357-2.369-5.494-3.676-8.832-3.68h-.017c-3.337 0-6.477 1.302-8.842 3.667l-32.944 32.953c-10.335-9.284-20.563-19.246-29.437-32.081-.182-.307-.384-.596-.603-.869-5.773-8.494-10.951-18.245-15.183-29.874l-12.848-35.31c1.253-1.042 2.271-2.355 2.981-3.875 1.268-2.715 1.401-5.759.377-8.573l-11.522-31.645c-2.118-5.808-8.561-8.813-14.361-6.697l-45.743 16.65c-2.822 1.028-5.071 3.096-6.334 5.823-1.259 2.721-1.381 5.766-.355 8.537l11.507 31.633c1.022 2.818 3.081 5.068 5.797 6.335 1.526.712 3.152 1.036 4.788 1.058l12.848 35.303c11.241 30.9 8.773 56.418 5.483 79.015h-25.755c-3.651 0-7.145 1.561-9.583 4.283-2.441 2.725-3.612 6.372-3.212 10.013l23.28 210.008c.425 3.836 3.673 6.674 7.445 6.674.275 0 .555-.015.835-.046 4.117-.457 7.085-4.164 6.628-8.281l-23.018-207.65h279.386l-4.371 39.452c-19.569-.451-37.818 7.116-51.194 20.493-25.749 25.738-27.365 67.523-3.677 95.132 4.559 5.305 12.662 5.584 17.592.655l13.832-13.832c2.68 6.364 6.077 12.395 10.095 18.008l-14.865 134.168c-.182 1.648-1.572 2.892-3.235 2.892h-207.739c-1.66 0-3.051-1.248-3.235-2.896l-5.71-51.53c-.456-4.117-4.163-7.084-8.28-6.628-4.117.457-7.084 4.164-6.628 8.281l5.711 51.537c1.034 9.255 8.833 16.235 18.142 16.235h207.738c9.323 0 17.124-6.985 18.144-16.244l13.372-120.695c16.763 15.376 39.181 25.408 64.046 27.1v63.699l-37.423 21.435c-5.277 3.023-7.772 9.002-6.208 14.879 1.563 5.877 6.7 9.826 12.781 9.826h76.698c6.082 0 11.219-3.949 12.782-9.826 1.564-5.877-.931-11.856-6.208-14.879l-37.423-21.435v-63.699c46.502-3.163 84.45-35.494 92.833-77.401zm-197.624-139.727h-65.22v-17.35h65.22zm-91.564-56.008 23.667 23.667c-6.81.096-12.322 5.658-12.322 12.491v19.85h-17.202c-7.032-9.428-15.576-17.39-24.677-25.465zm-150.259-73.76h-.014l-9.146-25.142 38.604-14.053 9.148 25.127c-1.264 1.05-2.289 2.378-3 3.915-1.259 2.721-1.381 5.765-.355 8.537l13.92 38.26c3.489 9.587 7.58 18.03 12.07 25.593l-29.566 10.761c-1.416-8.693-3.699-17.811-7.178-27.374l-13.929-38.274c-1.666-4.529-5.976-7.35-10.554-7.35zm33.35 88.346 36.446-13.265c11.287 15.146 24.061 26.41 35.907 36.85 6.78 5.975 13.324 11.745 19.076 17.837h-93.756c1.752-12.396 3.216-26.176 2.327-41.422zm188.621 199.196c-16.441-21.646-14.52-52.764 4.946-72.221 19.46-19.463 50.58-21.388 72.225-4.949l-16.911 16.911h-30.826c-6.76 0-12.39 4.876-13.387 11.594-1.452 9.772-1.312 20.016.683 30.228.023.132.05.262.081.391.068.342.139.683.211 1.024zm33.825-12.258h166.637c-10.858 32.876-44.099 56.87-83.318 56.87-39.22 0-72.461-23.994-83.319-56.87zm51.633 166.451 31.686-18.15 31.686 18.15z"/></svg>