<svg id="Capa_1" enable-background="new 0 0 512 512" height="512" viewBox="0 0 512 512" width="512" xmlns="http://www.w3.org/2000/svg"><g><path d="m99.637 169.014c2.716 2.918 6.434 4.496 10.282 4.496 1.346 0 2.708-.193 4.049-.589 5.201-1.538 9.017-5.808 9.958-11.142l1.947-11.034h39.362l1.947 11.031c.939 5.327 4.741 9.587 9.923 11.118 5.202 1.536 10.743.019 14.448-3.968 10.231-11.007 19.152-23.633 25.795-36.513 11.446-22.194 11.316-35.958 7.728-41-6.347-8.917-36.374-18.394-79.521-18.394-43.148 0-73.176 9.477-79.521 18.393-3.59 5.042-3.72 18.804 7.727 40.999 6.658 12.914 15.606 25.571 25.876 36.603zm-20.726-69.359c5.234-3.616 27.54-11.636 66.644-11.636 39.1 0 61.406 8.02 66.643 11.636.102 2.696-.438 10.868-8.181 25.881-5.788 11.223-13.498 22.25-22.354 31.985l-1.775-10.061c-1.198-6.789-7.071-11.716-13.965-11.716h-40.738c-6.896 0-12.768 4.928-13.964 11.716l-1.775 10.061c-8.858-9.736-16.566-20.762-22.354-31.986-7.743-15.014-8.282-23.185-8.181-25.88z"/><path d="m201.713 38.48c-20.861-4.406-42.055-5.331-56.16-5.331s-35.299.925-56.159 5.331c-27.038 5.71-45.825 15.74-55.843 29.813-14.098 19.822-12.401 49.081 4.778 82.388 1.241 2.402 2.437 4.604 3.655 6.734 2.057 3.595 6.641 4.84 10.234 2.784 3.595-2.058 4.841-6.64 2.784-10.235-1.111-1.94-2.205-3.957-3.344-6.162-14.478-28.067-16.566-51.795-5.886-66.813 19.048-26.76 81.188-28.839 99.779-28.839s80.732 2.08 99.779 28.837c10.682 15.019 8.592 38.751-5.885 66.826-9.839 19.081-24.58 38.312-40.441 52.759-6.468 5.883-13.048 10.901-19.549 14.907-6.377 3.917-10.184 10.669-10.184 18.061v21.082h-47.44v-21.082c0-7.401-3.81-14.154-10.175-18.055-6.509-4.011-13.09-9.029-19.556-14.91-6.189-5.638-12.226-12.015-17.94-18.953-2.633-3.197-7.36-3.653-10.557-1.021-3.197 2.633-3.655 7.36-1.021 10.558 6.167 7.489 12.701 14.389 19.422 20.51 7.156 6.508 14.484 12.089 21.799 16.596 1.896 1.162 3.028 3.134 3.028 5.275v21.082h-1.496c-9.363 0-16.98 7.618-16.98 16.981v20.529c0 8.114 2.091 16.15 6.048 23.24 8.062 14.444 8.873 19.067 8.954 19.848.416 4.022-.963 7.032-3.869 12.923-1.431 2.898-3.051 6.183-4.617 10.188-4.323 11.059-6.516 22.696-6.516 34.588v98.169c0 13.737 11.176 24.913 24.913 24.913h64.569c13.737 0 24.913-11.176 24.913-24.913v-98.169c0-11.891-2.192-23.528-6.517-34.588-1.566-4.005-3.187-7.29-4.617-10.188-2.906-5.891-4.285-8.9-3.869-12.922.081-.78.892-5.401 8.954-19.848 3.957-7.089 6.049-15.125 6.049-23.24v-20.529c0-9.363-7.618-16.981-16.981-16.981h-1.497v-21.083c0-2.138 1.135-4.112 3.044-5.285 7.301-4.499 14.629-10.079 21.786-16.59 17.132-15.605 33.051-36.373 43.676-56.978 17.177-33.312 18.873-62.573 4.774-82.396-10.014-14.07-28.801-24.1-55.839-29.811zm-13.961 229.123v20.529c0 5.562-1.434 11.069-4.146 15.93-9.976 17.875-10.578 23.701-10.776 25.615-.88 8.503 2.141 14.624 5.338 21.103 1.36 2.756 2.766 5.606 4.098 9.013 3.642 9.313 5.487 19.112 5.487 29.126v98.169c0 5.466-4.447 9.913-9.913 9.913h-64.57c-5.466 0-9.913-4.447-9.913-9.913v-98.169c0-10.016 1.846-19.815 5.486-29.126 1.332-3.407 2.737-6.257 4.098-9.013 3.197-6.479 6.218-12.6 5.338-21.102-.197-1.915-.8-7.743-10.776-25.616-2.712-4.86-4.146-10.369-4.146-15.93v-20.529c0-1.092.889-1.981 1.98-1.981h80.434c1.093 0 1.981.888 1.981 1.981z"/><path d="m391.029 374.457c-22.419 0-40.657 18.239-40.657 40.658 0 22.418 18.238 40.657 40.657 40.657s40.657-18.239 40.657-40.657c0-22.419-18.238-40.658-40.657-40.658zm0 66.315c-14.147 0-25.657-11.51-25.657-25.657 0-14.148 11.51-25.658 25.657-25.658s25.657 11.51 25.657 25.658c0 14.147-11.51 25.657-25.657 25.657z"/><path d="m438.067 80.319c-2.974-4.475-8.475-6.507-13.685-5.062-22.13 6.148-44.574 6.147-66.708 0-5.216-1.449-10.712.588-13.683 5.062-13.402 20.172-13.938 47.683-1.331 68.458 3.659 6.03 11.404 8.281 17.635 5.123 20.683-10.483 40.788-10.482 61.467 0 1.907.967 3.956 1.427 5.986 1.427 4.603 0 9.109-2.364 11.648-6.549 12.606-20.775 12.072-48.286-1.329-68.459zm-10.831 59.551c-24.034-11.751-48.383-11.749-72.413 0-8.653-15.214-8.377-34.776.657-49.667 23.601 6.231 47.499 6.23 71.098 0 9.033 14.889 9.31 34.452.658 49.667z"/><path d="m480.414 320.433c4.143 0 7.5-3.358 7.5-7.5v-216.047c0-53.423-43.463-96.886-96.885-96.886s-96.886 43.463-96.886 96.886v318.229c0 53.423 43.463 96.885 96.886 96.885s96.886-43.462 96.886-96.885v-67.182c0-4.142-3.357-7.5-7.5-7.5s-7.5 3.358-7.5 7.5v67.182c0 45.152-36.733 81.885-81.886 81.885s-81.886-36.733-81.886-81.885v-318.229c0-45.152 36.733-81.886 81.886-81.886s81.886 36.734 81.886 81.886v216.047c-.001 4.142 3.357 7.5 7.499 7.5z"/></g></svg>