<svg id="Capa_1" enable-background="new 0 0 512 512" height="512" viewBox="0 0 512 512" width="512" xmlns="http://www.w3.org/2000/svg"><g><path d="m421.988 280.94c4.838-1.845 8.67-5.677 10.513-10.514 7.477-19.607 2.727-41.857-12.102-56.685-14.827-14.829-37.078-19.58-56.686-12.103-4.837 1.844-8.669 5.676-10.514 10.514-7.477 19.608-2.727 41.858 12.102 56.687 10.167 10.166 23.818 15.595 37.719 15.594 6.375.001 12.804-1.142 18.968-3.493zm-39.297-67.796c9.988 0 19.799 3.9 27.102 11.204 8.95 8.95 12.765 21.662 10.578 33.855l-44.454-44.453c2.25-.404 4.516-.606 6.774-.606zm-6.782 45.088c-8.95-8.95-12.765-21.663-10.578-33.855l44.434 44.433c-12.193 2.187-24.906-1.628-33.856-10.578z"/><path d="m324.912 284.548-37.262 37.262c-5.023 5.022-5.023 13.15 0 18.172l37.262 37.262c5.008 5.009 13.162 5.01 18.172 0l37.264-37.263c5.008-5.01 5.007-13.161-.001-18.171l-37.263-37.262c-5.02-5.02-13.15-5.022-18.172 0zm9.087 80.569-34.221-34.22 34.221-34.22 34.221 34.22z"/><path d="m220.171 206.457h-137.407c-7.464 0-13.391 6.361-12.821 13.809 3.198 41.854 38.179 75.456 81.524 75.456 9 0 17.818-1.469 26.158-4.281v23.129c0 7.085 5.764 12.85 12.85 12.85h52.701c7.086 0 12.85-5.765 12.85-12.85v-52.701c0-7.085-5.765-12.85-12.85-12.85h-17.827c4.252-8.952 6.872-18.672 7.643-28.753.569-7.443-5.352-13.809-12.821-13.809zm-135.051 15.001h48.24l-34.044 34.044c-7.652-9.554-12.761-21.239-14.196-34.044zm58.847 58.821c-12.711-1.448-24.429-6.519-34.033-14.182l34.033-34.033zm73.848-58.821c-1.435 12.805-6.545 24.49-14.197 34.044l-34.044-34.044zm-58.847 58.821v-48.214l34.032 34.032c-9.603 7.664-21.321 12.734-34.032 14.182zm82.058-16.26v48.401h-48.4v-27.815c8.702-5.08 16.664-11.815 23.472-20.585h24.928z"/><path d="m486.15 121.727c-2.17-4.08-6.4-6.61-11.04-6.61h-48.91c-4.14 0-7.5 3.36-7.5 7.5s3.36 7.5 7.5 7.5h47.41c6.19 11.86 11.14 24.08 14.88 36.61h-261.286c-7.529-12.891-15.486-25.157-23.786-36.61h187.782c4.14 0 7.5-3.36 7.5-7.5s-3.36-7.5-7.5-7.5h-199.22c-13.79-17.2-29.92-34.15-48.2-48.21-40.05-30.8-81.49-41.23-123.19-31-14.22 3.49-23.16 17.92-19.93 32.17 1.65 7.28 6.09 13.39 12.5 17.2 6.41 3.82 13.89 4.81 21.08 2.8 29.77-8.34 59.68.54 90.4 27.04h-59.9c-4.64 0-8.87 2.53-11.04 6.61-23.33 43.93-30.03 91.85-23.55 134.85.56 3.71 3.76 6.38 7.41 6.38.37 0 .75-.03 1.12-.09 4.1-.61 6.92-4.43 6.3-8.53-3.42-22.69-2.83-48.05 2.5-72.61h444.89c3.07 14.19 4.63 28.73 4.63 43.54 0 56.3-22.78 104.12-65.87 138.29-40.93 32.46-98.18 50.33-161.21 50.33-32.66 0-63.93-4.09-91.82-13.89-.21-.07-.43-.15-.65-.21-15.75-4.76-30.36-11.63-43.93-19.44-38.78-22.33-66.58-54.63-80.4-93.4-1.39-3.91-5.68-5.94-9.59-4.55-3.9 1.39-5.93 5.68-4.54 9.58 15.03 42.18 45.13 77.24 87.05 101.37 12.03 6.92 24.89 12.87 38.43 17.81l-22.37 39.31c-3.51 6.16-3.48 13.5.08 19.63s9.92 9.8 17.01 9.8h221.46c7.09 0 13.45-3.66 17.01-9.79 3.57-6.13 3.6-13.47.1-19.64l-22.4-39.35c24.27-8.86 46.27-20.88 65.09-35.81 46.81-37.12 71.55-89 71.55-150.04 0-36.4-8.7-71.24-25.85-103.54zm-276.413 45h-20.942c-9.564-13.843-18.866-25.947-28.138-36.61h24.019c8.721 11.329 17.115 23.59 25.061 36.61zm-179.547-93.09c-6.57 1.83-13.38-2.17-14.9-8.88-1.43-6.32 2.55-12.73 8.88-14.29 37.04-9.08 74.21.45 110.46 28.33 13.94 10.72 26.59 23.27 37.85 36.32h-25.85c-38.9-38.83-77.34-52.43-116.44-41.48zm36.05 56.48h74.144c9.933 10.402 19.845 22.476 30.05 36.61h-119.074c3.74-12.53 8.69-24.75 14.88-36.61zm318.48 327.77c1.2 2.12.38 3.98-.02 4.68-.41.7-1.62 2.32-4.05 2.32h-221.46c-2.42 0-3.63-1.62-4.04-2.33-.41-.69-1.22-2.55-.02-4.67l23.85-41.89c28.13 8.5 58.82 12.9 90.94 12.9 32.1 0 62.82-4.46 90.92-12.96z"/></g></svg>