<svg id="Capa_1" enable-background="new 0 0 512 512" height="512" viewBox="0 0 512 512" width="512" xmlns="http://www.w3.org/2000/svg"><g><path d="m498.408 135.94c0-56.188-45.712-101.9-101.9-101.9-19.363 0-38.204 5.549-54.403 15.801v-14.372c0-19.558-15.911-35.469-35.469-35.469h-46.045c-4.142 0-7.5 3.357-7.5 7.5s3.358 7.5 7.5 7.5h46.045c11.286 0 20.469 9.183 20.469 20.469v62.013c0 6.261.943 12.557 2.447 17.961h-89.476l-12.903-22.348c-4.843-8.389-15.608-11.272-23.996-6.43l-36.792 21.242c-3.086 1.781-5.499 4.396-7.016 7.535h-40.613c1.607-5.773 2.447-11.808 2.447-17.961v-11.795c0-13.366-6.416-26.092-17.163-34.04l-28.585-21.142c-6.565-4.856-3.371-15.504 5.514-15.504h144.623c4.142 0 7.5-3.357 7.5-7.5s-3.358-7.5-7.5-7.5h-144.623c-11.102 0-20.679 7.337-23.292 17.843-2.317 9.323 1.159 19.027 8.858 24.722l28.586 21.142c6.939 5.132 11.082 13.349 11.082 21.979v11.796c0 14.73-6.325 29.188-17.936 39.006-47.458 40.13-74.677 98.753-74.677 160.838 0 33.723 7.917 63.906 23.53 89.71 1.41 2.33 3.886 3.618 6.424 3.618 1.322 0 2.662-.35 3.875-1.084 3.544-2.145 4.678-6.756 2.534-10.3-14.176-23.428-21.364-50.998-21.364-81.944 0-57.662 25.282-112.11 69.362-149.385 5.9-4.989 10.775-10.929 14.527-17.498h46.724c.69 1.498-.481-.703 21.992 38.253 4.826 8.365 15.584 11.286 23.996 6.43l36.793-21.242c8.205-4.739 11.123-15.138 6.714-23.44h87.128c3.752 6.569 8.627 12.509 14.527 17.498 44.081 37.275 69.362 91.724 69.362 149.385 0 50.562-19.562 92.456-56.571 121.152-34.427 26.693-83.788 41.395-138.992 41.395-55.718 0-114.532-15.019-153.544-54.235-2.92-2.937-7.669-2.948-10.607-.028-2.937 2.922-2.949 7.67-.027 10.606 12.852 12.919 28.119 23.853 45.367 32.654l-11.463 38.769c-1.717 5.798-.628 11.9 2.987 16.741 3.616 4.842 9.158 7.619 15.204 7.619h224.17c6.043 0 11.583-2.774 15.2-7.612 3.618-4.839 4.713-10.94 3.001-16.746l-11.462-38.731c10.52-5.389 20.337-11.583 29.359-18.579 40.81-31.643 62.38-77.636 62.38-133.006 0-10.782-.84-21.455-2.445-31.949 7.5-15.074 17.433-27.438 27.06-39.405 18.318-22.767 39.077-48.571 39.077-90.032zm-287.731-36.285c.403-.232.844-.343 1.279-.343.888 0 1.752.46 2.227 1.282l8.572 14.848h-39.422zm24.748 37.732c.708 1.226.286 2.798-.939 3.506l-36.792 21.242c-1.226.707-2.798.286-3.505-.939l-17.755-30.753h54.982zm104.629 354.504c.492 1.668-.183 2.918-.628 3.515-.445.596-1.452 1.595-3.188 1.595h-224.17c-2.661 0-4.567-2.541-3.808-5.104l10.837-36.646c30.462 12.837 66.139 19.622 105.057 19.622 39.073 0 74.624-6.675 105.08-19.546zm19.986-355.404c-7.325-6.194-12.877-14.54-15.747-24.123 9.295-20.567 29.528-33.725 52.214-33.725 31.596 0 57.3 25.705 57.3 57.301 0 25.746-12.257 40.979-29.223 62.067-2.861 3.555-5.932 7.378-9.064 11.438-12.743-27.74-31.53-52.706-55.48-72.958zm67.629 106.8c-1.586-5.98-3.426-11.879-5.526-17.679 4.791-6.589 9.714-12.711 14.131-18.2 17.458-21.698 32.534-40.438 32.534-71.468 0-39.867-32.434-72.301-72.3-72.301-21.331 0-40.942 9.212-54.403 24.64v-20.041c15.403-12.397 34.588-19.198 54.403-19.198 47.917 0 86.9 38.983 86.9 86.9 0 36.177-17.372 57.769-35.764 80.628-6.769 8.416-13.683 17.02-19.975 26.719z"/><path d="m154.679 368.232c22.599 0 41.941-12.51 53.099-30.436.077-.123.169-.233.242-.361.103-.178.191-.359.277-.542 23.413-41.327-6.946-91.848-53.618-91.848-34.078 0-61.593 27.789-61.593 61.593.001 34.609 28.57 61.594 61.593 61.594zm46.594-61.593c0 5.806-1.076 11.363-3.025 16.494l-28.568-16.494 28.568-16.493c1.948 5.13 3.025 10.687 3.025 16.493zm-93.186 0c0-5.806 1.076-11.363 3.025-16.493l28.568 16.493-28.568 16.494c-1.949-5.131-3.025-10.688-3.025-16.494zm10.539 29.476 28.554-16.486v32.991c-11.447-1.86-21.507-7.901-28.554-16.505zm43.553 16.506v-32.992l28.554 16.486c-7.047 8.604-17.107 14.645-28.554 16.506zm28.555-75.458-28.554 16.485v-32.991c11.446 1.862 21.506 7.902 28.554 16.506zm-43.555-16.505v32.991l-28.554-16.485c7.048-8.605 17.108-14.645 28.554-16.506z"/><path d="m314.579 289.427c9.687 0 17.566-7.88 17.566-17.565v-42.484c0-9.687-7.88-17.566-17.566-17.566h-42.484c-9.686 0-17.565 7.88-17.565 17.566v42.484c0 9.686 7.88 17.565 17.565 17.565zm-45.049-17.566v-42.484c0-1.415 1.15-2.566 2.565-2.566h42.484c1.415 0 2.566 1.151 2.566 2.566v42.484c0 1.415-1.151 2.565-2.566 2.565h-42.484c-1.415.001-2.565-1.15-2.565-2.565z"/><path d="m231.953 393.533c1.994 5.229 6.138 9.374 11.369 11.369 22.061 8.412 46.932 2.957 63.431-13.541 16.592-16.593 21.907-41.491 13.54-63.43-1.993-5.23-6.137-9.374-11.369-11.37-21.937-8.368-46.838-3.05-63.43 13.541-16.592 16.593-21.907 41.491-13.541 63.431zm64.193-12.779c-10.907 10.908-26.612 15.302-41.402 11.965l53.365-53.365c3.337 14.789-1.055 30.493-11.963 41.4zm1.356-52.007-53.364 53.365c-3.336-14.79 1.056-30.494 11.964-41.401 10.791-10.793 26.437-15.34 41.4-11.964z"/></g></svg>