<svg id="Capa_1" enable-background="new 0 0 512 512" height="512" viewBox="0 0 512 512" width="512" xmlns="http://www.w3.org/2000/svg"><g><path d="m318.82 462.82h-30.95c-1.379 0-2.5-1.122-2.5-2.5v-41.56c8.607-1.799 16.995-4.538 25.097-8.22 3.771-1.714 5.439-6.16 3.726-9.931-1.714-3.77-6.158-5.439-9.931-3.725-13.79 6.267-28.769 9.43-43.74 9.43-58.362 0-105.843-47.481-105.843-105.844 0-10.686 2.601-21.239 8.433-34.218 1.697-3.778.011-8.217-3.768-9.915-3.78-1.696-8.217-.011-9.915 3.768-6.743 15.007-9.75 27.456-9.75 40.366 0 58.117 41.24 106.778 95.992 118.269v41.581c0 1.378-1.122 2.5-2.5 2.5h-30.94c-13.989 0-25.37 11.381-25.37 25.37v11.87c0 6.583 5.356 11.94 11.94 11.94h143.45c6.584 0 11.94-5.356 11.94-11.94v-11.87c-.001-13.99-11.382-25.371-25.371-25.371zm10.37 34.18h-137.331v-8.81c0-5.718 4.652-10.37 10.37-10.37h30.94c9.649 0 17.5-7.851 17.5-17.5v-39.41c6.436.522 12.949.551 19.7.011v39.399c0 9.649 7.851 17.5 17.5 17.5h30.95c5.718 0 10.37 4.652 10.37 10.37v8.81z"/><path d="m403.298 67.82-4.54-27.74c-.32-1.97-1.41-3.72-3.02-4.88-1.62-1.16-3.63-1.63-5.59-1.31l-76.01 12.45c-8.06 1.32-14.8 7.23-17.15 15.05l-20.76 68.28h-22.66l16.25-22.74c2.68-3.75 2.63-8.73-.11-12.39-3.48-4.66-7.29-8.95-11.4-12.86-1.18-34.94-13.95-64.39-19.51-75.66-1.84-3.71-5.55-6.02-9.69-6.02s-7.85 2.31-9.68 6.02c-2.71 5.48-7.04 15.09-10.92 27.34-8.84-12.61-17.66-22.06-23.48-27.73-2.96-2.9-7.23-3.84-11.14-2.46-3.92 1.38-6.65 4.79-7.14 8.89-1.03 8.62-2.28 25.17-.11 44.78-21.84 5.06-41.45 17.35-55.76 35.41-2.88 3.61-3.04 8.62-.41 12.45l62.69 91.41c-.26 9.59-1.96 19.08-5.9 27.97-.65 1.47-1.33 2.96-2.09 4.55-1.78 3.74-.2 8.22 3.54 10s8.22.2 10-3.54c.82-1.72 1.56-3.34 2.27-4.94 5.09-11.51 7.11-23.58 7.23-35.54.01-.14.01-.28.02-.42h144.61c.07 12.1 2.07 24.32 7.22 35.96 2.86 6.45 6.13 12.75 9.3 18.84 8.75 16.81 17.01 32.68 17.01 51.48 0 29.86-12.72 58.49-34.88 78.53-3.07 2.78-3.31 7.52-.53 10.59 2.77 3.07 7.51 3.32 10.59.54 25.3-22.89 39.82-55.57 39.82-89.66 0-22.47-9.51-40.74-18.7-58.41-3.2-6.15-6.23-11.96-8.89-17.98-5.8-13.11-10.78-33.81 2.36-77.82 1.18-3.95.44-8.11-2.02-11.41-2.45-3.29-6.22-5.18-10.32-5.18h-22.47l12.91-42.42c.1-.34.38-.58.74-.64l62.13-10.18c4.09-.67 6.86-4.53 6.19-8.61zm-126.449 111.37 10.499-34.52h13.73l-10.505 34.52zm-5.181-34.52-10.499 34.52h-42.985l24.663-34.52zm-42.56-123.8c4.69 11 10.76 28.27 13.2 48.39-5.7-3.56-11.74-6.52-18.04-8.84-1.6-3.39-3.28-6.66-5.01-9.81 2.87-12.01 6.67-22.29 9.85-29.74zm-48.29 1.98c6.67 7.28 15.82 18.48 23.91 32.55-8-1.21-15.71-1.43-23.25-.84-1.33-12.42-1.19-23.48-.66-31.71zm-47.58 88.54-8.5-12.39c34.52-40.29 97.38-39.71 130.94 1.92l-8.78 12.28c-13.16-18.25-34.63-29.54-57.49-29.54-22.29 0-42.91 10.39-56.17 27.73zm44.01 18.28c-4.11 0-7.87 1.89-10.33 5.18-2.46 3.3-3.19 7.46-2.01 11.41 1.72 5.76 3.41 11.92 4.81 18.32l-27.41-39.98c10.18-16.1 27.85-25.94 47.1-25.94 20.09 0 38.16 10.48 48.14 27.62l-2.42 3.39zm10.12 49.52c-1.36-12.19-4.22-23.95-7.3-34.52h44.344l-24.663 34.52zm153.6-34.52c-3.07 10.57-5.93 22.33-7.3 34.52h-27.418l10.505-34.52zm-8.4-72.86c-5.99.97-10.98 5.35-12.69 11.11l-14.23 46.75h-13.74l19.43-63.94c.72-2.39 2.77-4.19 5.22-4.59l68.61-11.24 2.12 12.94z"/></g></svg>