<svg id="Capa_1" enable-background="new 0 0 512 512" height="512" viewBox="0 0 512 512" width="512" xmlns="http://www.w3.org/2000/svg"><g><path d="m291.34 375.27-42.74 42.74c-5.12 5.12-5.12 13.45 0 18.57l42.74 42.74c5.12 5.12 13.45 5.12 18.57 0l42.74-42.74c5.12-5.12 5.12-13.45 0-18.57l-42.74-42.74c-5.12-5.12-13.45-5.12-18.57 0zm9.28 92.12-40.09-40.1 40.09-40.09 40.1 40.09z"/><path d="m308.7 267.12h-60.44c-7.25 0-13.14 5.89-13.14 13.13v30.05l-48.28-48.28c-5.14-5.14-13.57-4.81-18.28.68-25.5 29.73-24.75 75.08 4.02 103.86 28.38 28.38 73.7 29.89 103.86 4.01 2.62-2.25 4.19-5.51 4.32-8.97.11-2.79-.75-5.53-2.36-7.77h30.3c7.24 0 13.13-5.89 13.13-13.13v-60.45c0-7.24-5.89-13.13-13.13-13.13zm-130.5 7.47 30.37 30.37h-42.87c1.3-10.81 5.45-21.35 12.5-30.37zm-12.47 45.37h42.84l-30.35 30.35c-6.99-8.96-11.17-19.5-12.49-30.35zm53.44 53.45c-10.85-1.33-21.38-5.51-30.34-12.49l30.34-30.35zm15 .02v-42.86l30.37 30.36c-9.01 7.05-19.55 11.2-30.37 12.5zm72.66-34.6h-43.18l-13.53-13.53v-43.18h56.71z"/><path d="m401.5 232.22c-.72-7.48-2.71-14.87-5.89-21.67l-26.98-57.53h5.98c15 0 27.21-12.21 27.21-27.21 0-15.01-12.21-27.21-27.21-27.21h-34.84l14.18-80.45c1.18-6.61-3.22-12.91-9.86-14.09l-21.92-3.87c-6.62-1.18-12.94 3.26-14.09 9.86l-15.61 88.55h-36.47c-4.14 0-7.5 3.35-7.5 7.5 0 4.14 3.36 7.5 7.5 7.5h33.822l-4.306 24.42h-148.126c-6.73 0-12.21-5.48-12.21-12.21 0-6.74 5.48-12.21 12.21-12.21h83.61c4.14 0 7.5-3.36 7.5-7.5 0-4.15-3.36-7.5-7.5-7.5h-83.61c-15 0-27.21 12.2-27.21 27.21 0 15 12.21 27.21 27.21 27.21h5.98l-26.98 57.53c-4.15 8.86-6.21 18.72-6.21 27.88v147.55c0 4.14 3.36 7.5 7.5 7.5s7.5-3.36 7.5-7.5v-145.43h261.64v249.59c0 3.78-3.08 6.86-6.86 6.86h-247.92c-3.78 0-6.86-3.08-6.86-6.86v-69.16c0-4.14-3.36-7.5-7.5-7.5s-7.5 3.36-7.5 7.5v69.16c0 12.05 9.81 21.86 21.86 21.86h247.92c12.05 0 21.86-9.8 21.86-21.86-.13-266.4.04-254.14-.3-257.78-.01-.05-.02-.1-.02-.14zm-26.89-118.62c6.73 0 12.21 5.47 12.21 12.21 0 6.73-5.48 12.21-12.21 12.21h-41.792l4.306-24.42zm-52.25-98.14 16.33 2.88-14.15 80.26h-16.84zm-17.307 98.14h16.839l-4.306 24.42h-16.84zm-19.74 111.95 12.789-72.53h16.84l-12.789 72.53zm-155.343-8.63 29.97-63.9h122.931l-12.79 72.53h-143.211c.78-2.97 1.81-5.87 3.1-8.63zm187.414 8.63 12.789-72.53h21.887c30.67 66.06 30.95 64.47 33.07 72.53z"/></g></svg>