<svg id="Capa_1" enable-background="new 0 0 512 512" height="512" viewBox="0 0 512 512" width="512" xmlns="http://www.w3.org/2000/svg"><g><path d="m212.667 141.763c4.142 0 7.5-3.357 7.5-7.5v-6.187c0-4.143-3.358-7.5-7.5-7.5s-7.5 3.357-7.5 7.5v6.187c0 4.142 3.358 7.5 7.5 7.5z"/><path d="m299.333 141.763c4.142 0 7.5-3.357 7.5-7.5v-6.187c0-4.143-3.358-7.5-7.5-7.5s-7.5 3.357-7.5 7.5v6.187c0 4.142 3.357 7.5 7.5 7.5z"/><path d="m230.474 182.61c8.469 4.687 16.998 7.03 25.526 7.03s17.057-2.344 25.526-7.03c3.624-2.006 4.936-6.57 2.93-10.194-2.005-3.624-6.569-4.938-10.194-2.931-12.289 6.803-24.236 6.803-36.525 0-3.624-2.005-8.188-.692-10.194 2.931-2.005 3.624-.693 8.188 2.931 10.194z"/><path d="m322.907 335.86c-1.909-3.394-5.104-9.074-5.177-10.947.073-1.898 3.269-7.58 5.178-10.975 5.271-9.372 11.833-21.036 3.95-29.038-5.291-5.359-14.599-5.713-30.182-1.144-7.26 2.127-14.741 5.013-20.47 7.394-4.699-6.006-12.006-9.878-20.205-9.878s-15.506 3.872-20.205 9.878c-5.729-2.382-13.211-5.267-20.47-7.394-15.582-4.568-24.891-4.216-30.188 1.149-7.877 7.996-1.316 19.66 3.955 29.032 1.909 3.395 5.104 9.076 5.178 10.949-.073 1.898-3.269 7.579-5.177 10.973-5.272 9.373-11.833 21.037-3.95 29.039 2.845 2.882 6.852 4.315 12.371 4.315 4.745 0 10.607-1.06 17.811-3.172 7.26-2.128 14.742-5.013 20.471-7.395 4.699 6.006 12.005 9.877 20.204 9.877s15.506-3.871 20.204-9.877c5.729 2.382 13.211 5.267 20.471 7.395 7.203 2.111 13.063 3.172 17.808 3.172 5.521-.001 9.531-1.437 12.379-4.321 7.877-7.995 1.316-19.659-3.956-29.032zm-126.166 18.382c.85-2.893 3.742-8.034 5.425-11.027 3.653-6.495 7.104-12.63 7.104-18.314 0-5.686-3.451-11.82-7.104-18.315-1.684-2.994-4.576-8.135-5.425-11.027 4.31-.263 15.545 2.007 33.678 9.603-.138 2.019-.007 39.373 0 39.478-18.136 7.598-29.375 9.881-33.678 9.602zm59.259-.717c-5.872 0-10.649-4.777-10.649-10.649v-35.954c0-5.871 4.777-10.648 10.649-10.648s10.649 4.777 10.649 10.648v35.954c0 5.872-4.777 10.649-10.649 10.649zm53.834-10.31c1.684 2.993 4.576 8.135 5.425 11.027-4.304.281-15.544-2.004-33.678-9.603.138-2.024.007-39.374 0-39.479 18.135-7.599 29.368-9.882 33.678-9.603-.85 2.893-3.741 8.033-5.425 11.027-3.653 6.495-7.104 12.63-7.104 18.315 0 5.686 3.451 11.821 7.104 18.316z"/><path d="m455.74 382.298v-12.858c0-4.143-3.358-7.5-7.5-7.5s-7.5 3.357-7.5 7.5v12.736h-42.512v-104.283l17.888 7.931c14.958 6.643 24.624 21.506 24.624 37.866v10.75c0 4.143 3.358 7.5 7.5 7.5s7.5-3.357 7.5-7.5v-10.75c0-22.284-13.164-42.529-33.54-51.577l-85.709-38.002c8.957-11.566 14.733-25.702 16.023-41.101h10.015c17.072 0 30.96-13.893 30.96-30.97 0-9.414-4.229-17.854-10.88-23.537v-32.473c.001-58.465-47.568-106.03-106.039-106.03h-41.14c-24.584 0-48.54 8.601-67.455 24.217-3.194 2.637-3.646 7.364-1.009 10.559 2.637 3.193 7.364 3.646 10.559 1.008 16.234-13.403 36.798-20.784 57.905-20.784h41.14c50.2 0 91.04 40.836 91.04 91.03v25.474c-1.654-.274-3.349-.424-5.08-.424h-9.719v-14.585c0-20.061-9.827-38.39-26.281-49.026-7.199-4.676-14.181-4.608-20.035-1.414-33.978 18.543-67.011 18.544-100.99-.001-5.808-3.169-12.779-3.289-20.028 1.41-16.46 10.642-26.288 28.971-26.288 49.031v14.585c-8.625.098-10.706-.255-14.799.424v-25.474c0-15.895 4.165-31.552 12.044-45.276 2.062-3.593.822-8.177-2.771-10.238-3.59-2.062-8.175-.822-10.238 2.77-9.182 15.995-14.036 34.233-14.036 52.745v32.473c-6.652 5.683-10.88 14.123-10.88 23.537 0 17.077 13.889 30.97 30.96 30.97h10.015c1.29 15.399 7.066 29.535 16.023 41.101l-85.713 38.004c-20.373 9.046-33.536 29.291-33.536 51.575v58.607c-8.805.996-15.672 8.481-15.672 17.548v16.746c0 9.068 6.868 16.555 15.672 17.551v65.357c0 6.893 5.607 12.5 12.5 12.5h374.48c6.893 0 12.5-5.607 12.5-12.5v-65.357c8.805-.996 15.672-8.483 15.672-17.551v-16.746c.003-9.068-6.865-16.553-15.67-17.548zm-72.512 114.702h-17.942v-233.713l17.942 7.955zm-254.456-225.758 17.942-7.955v233.713h-17.942zm32.942-14.606 24.774-10.985c13.649 11.708 31.362 18.806 50.712 18.806h37.599c19.35 0 37.064-7.098 50.712-18.806l24.774 10.985v240.364h-188.571zm113.085-7.179h-37.599c-33.337 0-60.693-26.027-62.857-58.825l34.209 28.855c7.657 6.442 18.218 7.647 26.903 3.157 13.823-7.154 27.264-7.154 41.092.001 8.71 4.502 19.269 3.263 26.907-3.164l34.202-28.849c-2.163 32.798-29.52 58.825-62.857 58.825zm87.731-103.377c8.801 0 15.96 7.159 15.96 15.96 0 8.806-7.16 15.97-15.96 15.97h-9.719v-31.93zm-165.896-67.289c4.839 0 51.798 36.038 117.045.431 1.95-1.064 3.393-.007 4.7.84 12.167 7.865 19.431 21.485 19.431 36.434v54.382l-44.021 37.13c-2.98 2.509-7.045 3.023-10.352 1.313-18.207-9.421-36.67-9.422-54.873-.001-3.31 1.708-7.374 1.195-10.348-1.307l-44.028-37.136c0-8.457 0-40.68 0-54.382.001-24.114 18.802-37.704 22.446-37.704zm-63.124 83.249c0-8.801 7.16-15.96 15.96-15.96h9.719v31.93h-9.719c-8.801 0-15.96-7.164-15.96-15.97zm-37.63 123.786 17.892-7.933v104.284h-42.512v-58.487c0-16.36 9.665-31.223 24.62-37.864zm-40.293 114.02c0-1.472 1.197-2.669 2.668-2.669h55.516v22.087c-8.807 0-49.607 0-55.516 0-1.471 0-2.668-1.198-2.668-2.672zm15.673 34.418h42.512v62.736h-42.512zm326.968 62.736v-62.736h42.512v62.736zm58.185-80.408c0 1.474-1.197 2.672-2.668 2.672-5.91 0-46.772 0-55.516 0v-22.087h55.516c1.471 0 2.668 1.197 2.668 2.669z"/><path d="m256 381.42c-4.142 0-7.5 3.357-7.5 7.5v3.225c0 4.143 3.358 7.5 7.5 7.5s7.5-3.357 7.5-7.5v-3.225c0-4.143-3.358-7.5-7.5-7.5z"/><path d="m256 420.605c-4.142 0-7.5 3.357-7.5 7.5v3.225c0 4.143 3.358 7.5 7.5 7.5s7.5-3.357 7.5-7.5v-3.225c0-4.142-3.358-7.5-7.5-7.5z"/><path d="m256 459.79c-4.142 0-7.5 3.357-7.5 7.5v3.225c0 4.143 3.358 7.5 7.5 7.5s7.5-3.357 7.5-7.5v-3.225c0-4.143-3.358-7.5-7.5-7.5z"/></g></svg>