<svg id="Capa_1" enable-background="new 0 0 512 512" height="512" viewBox="0 0 512 512" width="512" xmlns="http://www.w3.org/2000/svg"><g><path d="m457.757 376.507h-22.49v-29.363l37.231-10.399c3.99-1.114 6.32-5.252 5.206-9.241-1.114-3.988-5.25-6.32-9.241-5.206l-39.059 10.91c-5.38 1.503-9.137 6.454-9.137 12.04v31.26h-28.677v-15.048c0-6.893-5.607-12.5-12.5-12.5h-32.24v-33.71c0-4.143-3.358-7.5-7.5-7.5s-7.5 3.357-7.5 7.5v181.75h-289.99v-264.24c0-10.632 2.203-20.833 6.264-30.102h277.462c4.061 9.269 6.264 19.47 6.264 30.102v47.49c0 4.143 3.358 7.5 7.5 7.5s7.5-3.357 7.5-7.5v-47.49c0-18.365-5.521-36.017-15.966-51.046-9.871-14.203-23.452-25.148-39.364-31.741v-31.485h3.447c14.245 0 25.833-11.589 25.833-25.833 0-14.245-11.589-25.834-25.833-25.834h-82.617v-10.073c9.348-6.061 14.68-15.022 14.68-24.768 0-17.634-18.024-31.98-40.18-31.98-22.15 0-40.17 14.347-40.17 31.98 0 9.741 5.328 18.704 14.68 24.772v10.068h-24.887c-4.142 0-7.5 3.357-7.5 7.5s3.358 7.5 7.5 7.5h158.494c5.974 0 10.833 4.86 10.833 10.834s-4.86 10.833-10.833 10.833h-216.224c-5.974 0-10.833-4.859-10.833-10.833s4.86-10.834 10.833-10.834h22.73c4.142 0 7.5-3.357 7.5-7.5s-3.358-7.5-7.5-7.5h-22.73c-14.245 0-25.833 11.589-25.833 25.834 0 14.244 11.589 25.833 25.833 25.833h3.447v31.484c-15.907 6.59-29.491 17.536-39.364 31.742-10.445 15.03-15.966 32.682-15.966 51.047v266.74c0 6.893 5.607 12.5 12.5 12.5h294.99c6.893 0 12.5-5.607 12.5-12.5v-42.19h32.24c6.893 0 12.5-5.607 12.5-12.5v-15.048h40.294v29.932c0 6.893 5.607 12.5 12.5 12.5h28.255c6.893 0 12.5-5.607 12.5-12.5v-55.804c.001-15.099-12.283-27.383-27.382-27.383zm-287.529-331.897c-5.432-3.28-8.547-7.884-8.547-12.63 0-9.204 11.526-16.98 25.17-16.98 13.649 0 25.18 7.776 25.18 16.98 0 4.747-3.117 9.35-8.563 12.634-3.773 2.283-6.117 6.4-6.117 10.746v11.46h-20.99v-11.46c-.001-4.356-2.355-8.478-6.133-10.75zm-80.999 118.697c4.836-1.89 7.961-6.457 7.961-11.637v-33.183h179.33v33.183c0 5.18 3.125 9.747 7.95 11.632 13.167 5.168 24.194 13.686 32.293 24.356h-259.816c8.097-10.669 19.121-19.185 32.282-24.351zm287.361 279.003h-29.74v-78.35h29.74zm93.55 14.883h-23.255v-31.176c0-6.206-5.049-11.256-11.256-11.256h-44.039v-23.255h66.167c6.828 0 12.383 5.555 12.383 12.383z"/><path d="m179.355 413.675c0 30.575 25.237 54.41 54.411 54.41 29.853 0 54.411-24.352 54.411-54.41 0-29.939-24.38-54.411-54.411-54.411-30.111 0-54.411 24.554-54.411 54.411zm93.821 0c0 4.497-.767 8.816-2.161 12.846l-22.25-12.846 22.25-12.846c1.394 4.029 2.161 8.348 2.161 12.846zm-78.821 0c0-4.498.768-8.817 2.161-12.847l22.25 12.847-22.25 12.846c-1.394-4.03-2.161-8.349-2.161-12.846zm9.679 25.825 22.231-12.835v25.695c-8.802-1.703-16.564-6.345-22.231-12.86zm37.232 12.86v-25.695l22.231 12.835c-5.667 6.515-13.429 11.157-22.231 12.86zm22.231-64.511-22.231 12.836v-25.696c8.802 1.703 16.564 6.344 22.231 12.86zm-37.231-12.861v25.696l-22.231-12.836c5.666-6.515 13.428-11.156 22.231-12.86z"/><path d="m158.939 378.518v-44.116c0-6.893-5.607-12.5-12.5-12.5h-44.116c-6.893 0-12.5 5.607-12.5 12.5v44.116c0 6.893 5.607 12.5 12.5 12.5h44.116c6.893 0 12.5-5.608 12.5-12.5zm-15-2.5h-39.116v-39.116h39.116z"/><path d="m233.766 343.947c3.339 0 6.479-1.301 8.839-3.661l31.194-31.194c2.361-2.36 3.662-5.5 3.662-8.839s-1.3-6.478-3.661-8.84l-31.195-31.194c-4.874-4.873-12.804-4.873-17.676 0l-31.196 31.195c-2.36 2.361-3.66 5.5-3.66 8.839s1.3 6.479 3.661 8.839l31.193 31.193c2.36 2.361 5.499 3.662 8.839 3.662zm0-71.353 27.659 27.658-27.659 27.659-27.659-27.658z"/><path d="m171.658 289.741c7.477-19.606 2.727-41.856-12.102-56.686-14.828-14.828-37.079-19.577-56.686-12.101-4.837 1.845-8.669 5.677-10.513 10.514-7.477 19.606-2.727 41.856 12.102 56.684 14.782 14.782 37.018 19.603 56.686 12.103 4.836-1.845 8.668-5.677 10.513-10.514zm-22.708-46.079c8.95 8.95 12.764 21.664 10.578 33.856l-44.433-44.433c12.191-2.187 24.904 1.628 33.855 10.577zm-33.885 33.884c-8.95-8.95-12.765-21.662-10.578-33.854l44.433 44.434c-12.192 2.186-24.904-1.63-33.855-10.58z"/><path d="m91.436 445.506c0 13.254 10.783 24.036 24.036 24.036s24.036-10.782 24.036-24.036-10.783-24.036-24.036-24.036-24.036 10.782-24.036 24.036zm33.072 0c0 4.982-4.054 9.036-9.036 9.036s-9.036-4.054-9.036-9.036 4.054-9.036 9.036-9.036 9.036 4.053 9.036 9.036z"/></g></svg>