<svg id="Capa_1" enable-background="new 0 0 512 512" height="512" viewBox="0 0 512 512" width="512" xmlns="http://www.w3.org/2000/svg"><path d="m477.912 112.017-3.587-21.847c-1.096-6.82-7.508-11.451-14.356-10.34l-82.024 13.438c-8.828 1.44-16.198 7.914-18.769 16.471l-12.547 41.264c-4.707-43.286-12.227-76.918-15.831-91.512-1.093-4.369-5-7.42-9.502-7.42-4.501 0-8.408 3.051-9.506 7.44-3.76 15.218-11.201 48.697-15.86 91.721-18.765-37.615-36.683-65.52-44.448-77.086-2.524-3.729-7.24-5.257-11.471-3.715-4.226 1.542-6.849 5.746-6.377 10.24 1.17 10.907 4.003 33.471 9.818 62.035.826 4.059 4.785 6.678 8.845 5.854 4.059-.826 6.679-4.787 5.853-8.846-2.929-14.39-5.083-27.208-6.641-37.712 11.278 18.37 26.866 45.761 41.837 78.656-.403 6.018-.736 12.164-.987 18.416h-19.508c-2.406-8.19-4.715-16.592-6.872-25.073-1.021-4.016-5.104-6.438-9.118-5.42-4.014 1.021-6.44 5.104-5.419 9.117 1.833 7.206 3.776 14.355 5.79 21.376h-105.407l-16.161-44.412 71.318-25.958c4.955-1.803 8.164-6.554 7.986-11.823s-3.701-9.795-8.768-11.26l-96.392-27.856c-.752-.218-1.509-.37-2.267-.476 11.247-7.677 16.343-22.287 11.477-35.659-2.789-7.662-8.394-13.779-15.783-17.227-5.067-2.363-10.558-3.275-15.978-2.717l-6.097-16.75c-1.417-3.893-5.722-5.897-9.613-4.482-3.892 1.417-5.899 5.721-4.482 9.613l6.102 16.762c-11.277 7.671-16.394 22.298-11.522 35.685 4.79 13.159 17.92 21.307 31.717 19.933-.513.57-.997 1.175-1.435 1.827l-55.935 83.3c-2.939 4.378-2.73 10.108.521 14.26 2.354 3.007 5.895 4.663 9.551 4.663 3.863 0 1.161.083 75.505-26.703l14.294 39.282h-19.904c-6.7 0-12.347 5.013-13.136 11.661-8.551 72.033-11.527 164.344-3.189 237.266.689 6.015 2.127 11.914 4.273 17.534 1.479 3.869 5.814 5.809 9.683 4.329 3.87-1.478 5.808-5.812 4.33-9.683-1.512-3.958-2.553-8.1-3.155-12.324l24.74-33.927 29.673 40.694-25.61 35.123c-2.581-1.446-5.073-3.093-7.449-4.952-3.262-2.555-7.975-1.979-10.529 1.282-2.553 3.262-1.979 7.976 1.283 10.528 12.632 9.889 28.585 15.393 44.655 15.393h169.669c37.377 0 68.541-28.338 72.052-65.424 8.221-72.949 5.203-163.82-3.347-235.838-.787-6.649-6.435-11.663-13.137-11.663h-15.422l18.372-60.358c.234-.78.912-1.372 1.72-1.505l66.138-10.837c6.765-1.087 11.456-7.462 10.339-14.358zm-402.171-54.634c-2.928-8.044 1.236-16.973 9.282-19.902 8.062-2.935 16.965 1.214 19.9 9.281 2.928 8.046-1.234 16.974-9.278 19.901-8.049 2.925-16.976-1.234-19.904-9.28zm28.64 35.252c.278-.414.785-.596 1.263-.459l87.985 25.427-140.305 51.067zm295.901 332.951-17.781-24.384 20.763-28.475c-.467 18.004-1.461 35.604-2.982 52.859zm2.958-102.764-20.742-28.446 18.051-24.756c1.346 18.156 2.242 35.873 2.691 53.202zm-.356 24.97-29.664 40.682-29.668-40.686 29.665-40.683zm-290.708-78.173 18.051 24.756-20.743 28.447c.449-17.329 1.345-35.046 2.692-53.203zm27.333 37.486 29.664 40.683-29.669 40.686-29.664-40.681zm9.283-12.73 29.672-40.693 29.665 40.684-29.673 40.691zm58.552-80.299h20.138l19.598 26.875-29.669 40.686-29.665-40.684zm-28.88 14.147-10.316-14.147h20.632zm88.214-14.147-10.315 14.146-10.316-14.146zm-10.316 120.98-29.67-40.69 29.669-40.686 29.669 40.687zm38.952-27.959 29.672 40.69-29.671 40.692-29.671-40.692zm-77.904-.001 29.67 40.691-29.671 40.693-29.671-40.692zm38.952 53.421 29.671 40.692-29.671 40.692-29.671-40.692zm-9.282 94.115-29.666 40.686-29.671-40.691 29.667-40.686zm9.282 12.73 21.611 29.638h-43.222zm9.282-12.731 29.671-40.692 29.667 40.687-29.671 40.691zm38.954-53.422 29.671-40.692 29.668 40.685-29.673 40.693zm29.67-66.151-29.672-40.691 29.665-40.684 29.672 40.692zm-38.955-53.421-29.669-40.686 19.598-26.875h20.139l19.598 26.877zm28.631-67.561h20.632l-10.316 14.148zm-2.652-128.43c4.972 24.32 11.142 61.425 13.487 104.327l-2.768 9.103h-24.638c1.918-46.753 8.562-87.264 13.919-113.43zm-203.759 128.43h32.052l19.598 26.877-29.672 40.693-25.422-34.865c.996-10.746 2.143-21.643 3.444-32.705zm-5.091 211.51c-1.521-17.254-2.514-34.854-2.982-52.857l20.763 28.474zm36.345-24.383 29.668-40.686 29.671 40.693-29.667 40.687zm9.222 94.201 20.451-28.048 21.616 29.644h-28.548c-4.619 0-9.143-.545-13.519-1.596zm154.639 1.596 21.616-29.645 20.446 28.041c-4.342 1.046-8.868 1.603-13.514 1.603h-28.548zm56.512-7.247-25.614-35.128 29.673-40.693 24.751 33.942c-2.592 18.189-13.597 33.404-28.81 41.879zm29.477-242.973-25.422 34.865-29.671-40.692 19.598-26.878h32.05c1.3 11.063 2.447 21.96 3.445 32.705zm.364-124.369c-6.425 1.061-11.784 5.768-13.645 11.967l-19.693 64.698h-17.973l25.844-84.996c.954-3.174 3.568-5.475 6.83-6.007l79.559-13.035 2.78 16.937z"/></svg>