<svg id="Capa_1" enable-background="new 0 0 512 512" height="512" viewBox="0 0 512 512" width="512" xmlns="http://www.w3.org/2000/svg"><g><path d="m465.476 56.134c2.439-6.692-1.034-14.063-7.668-16.458l-21.299-7.76c-6.652-2.422-14.028 1.018-16.457 7.672l-64.032 175.933h-10.208v-19.47c0-6.893-5.607-12.5-12.5-12.5h-30.92l-14.886-25.79c-3.447-5.968-11.103-8.023-17.074-4.575l-50.001 28.86c-5.97 3.447-8.021 11.107-4.575 17.075l9.467 16.399h-20.761c.405-6.015-.902-12.207-4.136-17.808-4.229-7.324-10.978-12.304-18.525-14.484l-28.726-78.934 76.604-27.882c5.083-1.851 8.375-6.726 8.191-12.132-.184-5.405-3.798-10.045-8.993-11.546l-102.884-29.732c-.897-.259-1.801-.439-2.704-.546l-6.38-17.519c-1.416-3.892-5.721-5.901-9.613-4.48-3.893 1.417-5.898 5.722-4.48 9.613l6.378 17.513c-.625.664-1.204 1.385-1.727 2.162l-59.702 88.91c-3.015 4.489-2.8 10.367.534 14.626 2.415 3.084 6.047 4.784 9.798 4.784 4.037 0 1.408.007 80.883-28.64l26.72 73.421c-1.459.35-2.906.803-4.328 1.372-2.403-14.992-15.43-26.483-31.089-26.483-15.835 0-28.977 11.749-31.165 26.989-14.185-5.413-30.649.12-38.478 13.682-4.205 7.283-5.322 15.767-3.146 23.891 1.785 6.659 5.608 12.423 10.934 16.596-11.778 9.578-15.216 26.601-7.388 40.161 2.282 3.954 5.331 7.29 8.937 9.868-2.793 14.161-4.214 28.676-4.214 43.23 0 14.946 1.49 29.883 4.429 44.397.72 3.558 3.848 6.014 7.343 6.014.493 0 .994-.05 1.496-.151 4.06-.821 6.685-4.779 5.862-8.839-2.74-13.536-4.13-27.472-4.13-41.421 0-12.664 1.165-25.289 3.431-37.644 5.374.72 10.788.063 15.801-1.954 2.406 14.989 15.431 26.478 31.088 26.478 15.833 0 28.973-11.749 31.164-26.985 7.859 3.015 16.345 2.652 23.745-.539 7.813 7.139 19.709 8.361 28.626 2.437 3.502-2.33 8.125-1.79 10.995 1.278l9.188 9.829c9.447 10.107 25.5 9.913 34.722-.322l19.645-21.814c1.631-1.808 3.953-2.844 6.371-2.844h62.68c4.143 0 7.5-3.357 7.5-7.5s-3.357-7.5-7.5-7.5h-62.68c-6.656 0-13.038 2.841-17.513 7.801l-19.646 21.817c-3.364 3.734-9.194 3.784-12.62.119l-9.191-9.832c-7.905-8.448-20.633-9.93-30.256-3.523-2.398 1.593-5.436 1.685-7.997.488 10.856-14.026 7.925-33.64-5.378-44.067 2.613-2.124 4.813-4.616 6.573-7.353h221.18c.91 0 1.744.477 2.176 1.243 5.977 10.605 10.943 21.768 14.902 33.311h-44.551c-4.143 0-7.5 3.357-7.5 7.5s3.357 7.5 7.5 7.5h49.084c4.372 16.868 6.62 34.382 6.62 52.076 0 31.648-7.276 63.081-21.043 90.899-13.307 26.889-32.654 50.48-55.95 68.222-4.852 3.693-10.909 5.728-17.058 5.728h-180.059c-6.146 0-12.21-2.035-17.066-5.727-28.372-21.608-50.306-51.114-63.43-85.33-1.484-3.866-5.819-5.801-9.689-4.316-3.867 1.484-5.8 5.821-4.316 9.689 14.124 36.817 37.758 68.592 68.354 91.894 7.457 5.668 16.743 8.789 26.148 8.789h180.058c9.411 0 18.695-3.122 26.144-8.793 25.127-19.137 45.98-44.553 60.306-73.503 14.785-29.876 22.599-63.609 22.599-97.552 0-37.759-9.65-75.219-27.986-107.752-3.087-5.476-8.928-8.878-15.244-8.878h-13.329c6.011-16.513 55.968-153.772 58.015-159.388zm-345.456-18.028c.413-.615 1.174-.905 1.909-.694l95.398 27.57-152.665 55.566zm45.236 238.754c-3.675-2.142-8.225-2.137-11.874.013-6.305 3.716-5.69 10.572-5.715 10.674 0 9.09-7.394 16.485-16.484 16.485s-16.485-7.395-16.485-16.485v-.07c.038-9.217-9.982-14.785-17.707-10.091l-.343.202c-3.813 2.202-8.256 2.788-12.509 1.646-4.253-1.14-7.808-3.867-10.01-7.681-4.545-7.872-1.838-17.974 6.096-22.554 3.693-2.112 5.964-6.056 5.926-10.291-.038-4.202-2.357-8.07-6.052-10.096l-.336-.189c-3.813-2.202-6.541-5.757-7.681-10.01s-.555-8.695 1.647-12.509c4.545-7.872 14.647-10.579 22.579-5.999 3.676 2.144 8.226 2.138 11.874-.013 3.621-2.133 5.812-6.075 5.719-10.321l-.004-.353c0-9.09 7.395-16.485 16.485-16.485s16.485 7.395 16.485 16.485v.07c-.018 4.254 2.262 8.192 5.949 10.276 3.656 2.069 8.168 1.996 11.758-.186l.342-.202c7.872-4.546 17.975-1.838 22.519 6.034s1.838 17.974-6.096 22.554c-3.693 2.112-5.964 6.056-5.926 10.291.101 11.127 10.944 8.637 14.068 20.295 2.358 8.8-2.856 17.831-11.657 20.189-4.25 1.144-8.693.557-12.568-1.679zm227.071-117.236 12.817 18.409-5.354 14.71-12.817-18.409zm16.674-45.814 12.818 18.411-10.4 28.574-12.817-18.41zm11.629-31.95 12.818 18.411-5.354 14.71-12.818-18.411zm12.778-35.109 17.235 6.278-10.92 30.003-12.819-18.412zm-52.71 144.824 12.817 18.408-2.016 5.538h-19.516zm-49.886 23.946h-52.74v-16.97h52.74zm-100.715-21.734 45.67-26.36 9.308 16.125h-9.502c-6.893 0-12.5 5.607-12.5 12.5v19.47h-20.429z"/><path d="m130.278 213.586c-13.785 0-25 11.215-25 25s11.215 25 25 25c13.784 0 24.999-11.215 24.999-25s-11.215-25-24.999-25zm0 35c-5.514 0-10-4.486-10-10s4.486-10 10-10 9.999 4.486 9.999 10c0 5.513-4.486 10-9.999 10z"/></g></svg>