<svg id="Capa_1" enable-background="new 0 0 512 512" height="512" viewBox="0 0 512 512" width="512" xmlns="http://www.w3.org/2000/svg"><path d="m511.835 77.662-3.517-21.466c-.525-3.275-2.296-6.147-4.987-8.086-2.697-1.943-5.991-2.718-9.27-2.178l-80.618 13.202c-8.719 1.433-15.999 7.826-18.541 16.269l-32.573 107.142h-22.363v-85.61c0-3.417-1.438-6.71-3.944-9.035-2.5-2.317-5.892-3.493-9.277-3.243-26.566 2.027-49.336 17.836-60.743 40.92l-15.365-26.621c-1.717-2.953-4.613-5.078-7.947-5.831-3.32-.752-6.836-.08-9.643 1.841-15.364 10.511-26.114 26.335-30.27 44.558-3.284 14.403-2.2 29.315 2.965 43.022h-71.604l-19.697-54.114 83.102-30.246c5.239-1.907 8.633-6.933 8.444-12.505-.188-5.573-3.915-10.357-9.272-11.905l-110.87-32.042c-1.053-.305-2.116-.495-3.176-.599l-6.155-16.917c-1.416-3.892-5.716-5.901-9.613-4.484-3.893 1.416-5.9 5.72-4.484 9.613l6.156 16.919c-.746.761-1.437 1.59-2.048 2.5l-64.337 95.811c-3.108 4.63-2.887 10.69.551 15.081 2.489 3.179 6.234 4.931 10.099 4.931 1.473 0 2.962-.254 4.407-.78l83.1-30.246 17.83 48.984h-47.692c-7.991 0-15.064 4.822-18.019 12.288-3.54 8.947-6.547 18.177-8.938 27.436-1.036 4.011 1.376 8.102 5.387 9.137 4.014 1.035 8.102-1.377 9.137-5.387 2.236-8.66 5.05-17.296 8.362-25.667.675-1.705 2.274-2.808 4.071-2.808h53.131c-5.022 19.471-8.996 39.19-11.824 58.756-.388 2.685-1.584 5.193-3.459 7.255l-5.625 6.189c-2.983 3.278-4.067 7.96-2.831 12.214l6.446 22.21c.418 1.439.596 2.954.528 4.5-1.68 37.978.838 76.323 7.456 114.275-40.665-37.091-63.022-88.283-63.022-143.891 0-6.55.313-13.192.929-19.74.389-4.124-2.64-7.782-6.764-8.17-4.122-.387-7.782 2.641-8.17 6.764-.66 7.014-.995 14.128-.995 21.146 0 122.314 99.803 213.666 224.002 213.666 60.303 0 116.492-21.536 158.218-60.642 42.421-39.756 65.783-94.102 65.783-153.024 0-28.75-5.445-57.086-16.181-84.22-2.953-7.464-10.026-12.288-18.018-12.288h-39.014l23.922-78.587c.215-.718.833-1.26 1.589-1.382l65.015-10.651c6.752-1.109 11.344-7.508 10.236-14.264zm-432.857-20.535c.597-.888 1.684-1.276 2.701-.982l104.519 30.206c-11.871 4.321-119.404 43.459-167.872 61.1zm311.877 345.613c-1.889 7.525-3.062 15.182-4.196 22.587-.768 5.013-1.571 10.16-2.576 15.178-9.069 6.199-18.638 11.668-28.624 16.372 7.224-27.821 12.107-55.87 14.527-83.591.36-4.127-2.693-7.764-6.82-8.124-4.126-.354-7.764 2.693-8.124 6.82-2.668 30.571-8.428 61.57-17.11 92.203-16.017 5.862-32.896 9.88-50.334 11.933-1.8-11.978-3.403-24.069-4.753-36.074 2.901-6.533 7.796-18.683 7.286-25.264-.32-4.134-2.917-11.266-7.156-22.52-2.017-5.354-4.769-12.66-5.121-14.687-2.84-59.898-.04-120.424 8.288-180.026h51.273c12.855 44.727 19.388 89.863 19.388 134.25 0 1.918-.013 3.836-.036 5.756-.052 4.142 3.264 7.541 7.406 7.593.032.001.063.001.096.001 4.098 0 7.447-3.297 7.497-7.406.025-1.982.038-3.963.038-5.944 0-44.417-6.32-89.53-18.785-134.25h24.966c12.105 46.666 14.449 94.564 16.714 140.942.226 4.618.451 9.236.686 13.852.261 5.117 4.02 9.066 7.999 13.246 1.431 1.503 3.761 3.95 4.434 5.162-.128 3.278-5.38 11.267-8.253 15.635-3.829 5.82-7.445 11.318-8.71 16.356zm-65.889-302.832v82.637h-26.082l-23.291-40.352c6.541-22.781 25.869-39.337 49.373-42.285zm-85.819 9.148 42.417 73.49h-59.504c-12.604-25.756-5.302-56.488 17.087-73.49zm-16.319 204.843c-.947 54.033 2.445 108.544 10.08 162.21-18.817-2.22-36.985-6.725-54.118-13.37-12.248-43.685-18.474-87.719-18.474-130.943 0-44.387 6.533-89.523 19.388-134.25h51.834c-1.866 14.118-3.471 28.422-4.754 42.679-2.146 2.925-4.214 5.355-6.071 7.537-4.091 4.805-7.624 8.954-8.776 14.764-2.545 12.849 7.724 42.648 10.891 51.373zm-100.994-4.569c.14-3.186-.233-6.329-1.107-9.341l-6.109-21.048 4.812-5.293c3.897-4.286 6.389-9.542 7.206-15.202 2.931-20.285 7.138-40.741 12.492-60.9h24.973c-12.465 44.72-18.785 89.834-18.785 134.25 0 40.695 5.34 82.06 15.861 123.184-10.072-5.002-19.695-10.802-28.788-17.351-8.881-42.49-12.442-85.638-10.555-128.299zm126.424 168.072c-7.935-54.438-11.444-109.788-10.406-164.625.018-.936-.141-1.867-.465-2.745-5.292-14.303-12.121-37.593-10.735-44.589.392-1.976 2.526-4.484 5.482-7.955 2.285-2.684 5.129-6.025 8.091-10.272.75-1.074 1.205-2.327 1.319-3.633 1.354-15.378 3.089-30.824 5.131-46.036h24.32c-8.241 59.91-10.98 120.726-8.116 180.914.149 3.14 1.78 7.728 6.059 19.087 2.244 5.959 6 15.931 6.237 18.358.074 2.465-3.115 11.714-6.826 19.795-.566 1.235-.788 2.603-.64 3.953 1.385 12.545 3.041 25.197 4.913 37.732-8.42.439-15.968.444-24.364.016zm205.9-277.049c10.038 25.37 15.128 51.848 15.128 78.701 0 57.528-23.939 110.544-67.725 148.057 1.104-7.206 2.163-14.028 3.843-20.717.646-2.573 3.859-7.458 6.693-11.769 5.635-8.57 11.462-17.43 10.637-25.726-.526-5.294-4.573-9.545-8.488-13.656-1.31-1.376-3.222-3.384-3.922-4.459-.22-4.341-.432-8.684-.644-13.027-2.242-45.918-4.556-93.3-16.214-140.211h56.621c1.798 0 3.396 1.102 4.071 2.807zm-19.986-112.581c-6.375 1.033-11.693 5.696-13.537 11.85l-25.242 82.924h-17.386l31.253-102.798c.909-3.02 3.506-5.3 6.611-5.811l78.059-12.783 2.685 16.389z"/></svg>