<svg id="Capa_1" enable-background="new 0 0 512 512" height="512" viewBox="0 0 512 512" width="512" xmlns="http://www.w3.org/2000/svg"><g><path d="m247.099 403.352c2.876 0 5.732-1.08 7.9-3.246l39.501-39.502c2.159-2.159 3.343-5.166 3.249-8.25-.091-2.956-1.305-5.748-3.417-7.859l-42.001-42c-2.113-2.112-4.904-3.326-7.859-3.416-3.075-.094-6.09 1.09-8.249 3.248l-39.5 39.501c-2.16 2.158-3.344 5.165-3.25 8.25.09 2.955 1.304 5.746 3.417 7.86l42 41.999c2.275 2.274 5.252 3.416 8.209 3.415zm-2.906-87.783 37.064 37.064-34.229 34.229-37.064-37.064z"/><path d="m418.35 160.586h-2.92c.685-1.251 1.35-2.544 2.012-3.919 1.799-3.731.232-8.214-3.499-10.013s-8.214-.232-10.013 3.499c-1.744 3.619-3.651 6.884-6.273 10.433h-25.743c.659-8.399-.156-17.117-2.443-25.647-.451-1.684-.959-3.337-1.51-4.963 9.491-14.014 23.936-23.052 37.185-23.126 2.157 3.77 3.57 8.144 4.202 13.025.533 4.108 4.295 7.01 8.402 6.474 4.108-.532 7.006-4.294 6.474-8.401-.984-7.592-3.383-14.429-7.118-20.303-2.182-3.451-5.918-5.604-9.96-5.757-16.514-.7-33.714 7.974-46.337 22.755-8.552-13.976-21.14-23.952-35.142-27.072-3.96-.881-8.111.229-11.116 2.979-15.158 13.936-20.747 38.634-14.239 62.923.649 2.422 1.407 4.796 2.269 7.114h-53.016l22.526-31.533c2.854-3.977 2.822-9.289-.104-13.249-17.818-23.867-42.833-39.988-70.998-46.355 2.33-4.329 3.628-9.216 3.628-14.248 0-14.026-9.637-25.844-22.64-29.185v-18.517c0-4.143-3.358-7.5-7.5-7.5s-7.5 3.357-7.5 7.5v18.516c-12.997 3.342-22.63 15.16-22.63 29.185 0 4.945 1.198 9.682 3.387 13.896-27.664 5.878-52.544 21.157-70.557 43.883-3.067 3.854-3.248 9.204-.437 13.331l72.085 105.123v102.281c0 4.143 3.358 7.5 7.5 7.5s7.5-3.357 7.5-7.5v-53.005h122.008c-.831 3.721.187 7.775 3.076 10.665l41.999 41.998c2.174 2.175 5.065 3.372 8.14 3.372s5.965-1.197 8.139-3.371l42-41.999c2.89-2.89 3.908-6.944 3.076-10.665h29.988v170.653c0 6.921-5.63 12.552-12.551 12.552h-233.323c-6.921 0-12.551-5.631-12.551-12.552v-82.648c0-4.143-3.358-7.5-7.5-7.5s-7.5 3.357-7.5 7.5v115.733c0 15.191 12.359 27.551 27.551 27.551h233.324c15.191 0 27.551-12.359 27.551-27.551v-304.961c0-10.422-8.48-18.901-18.902-18.901zm3.902 323.863c0 6.921-5.63 12.551-12.551 12.551h-233.324c-6.921 0-12.551-5.63-12.551-12.551v-8.571c3.767 1.937 8.032 3.038 12.551 3.038h233.324c4.519 0 8.784-1.101 12.551-3.038zm-98.531-381.913c13.954 3.8 26.41 18.183 31.261 36.286 1.956 7.294 2.57 14.708 1.862 21.764h-37.981c-1.669-3.472-3.034-7.154-4.063-10.997-4.85-18.102-1.254-36.789 8.921-47.053zm-149.245-62.466c8.348 0 15.14 6.787 15.14 15.13 0 4.58-2.015 8.787-5.475 11.641-3.517-.297-7.067-.451-10.645-.451-2.962 0-5.906.117-8.832.324-3.362-2.858-5.319-7.019-5.319-11.513.001-8.344 6.788-15.131 15.131-15.131zm-70.961 98.764-12.823-18.7c20.583-24.661 50.602-38.745 82.804-38.745 33.276 0 64.114 14.864 84.786 41.187l-13.238 18.532c-15.881-23.477-42.813-38.114-71.552-38.114-28.033 0-53.896 13.48-69.977 35.84zm60.311 62.645v-21.991c0-2.151 1.75-3.901 3.902-3.901h52.684l-18.503 25.893h-38.083zm-15-21.992v25.424l-36.162-52.736c12.91-21.19 35.823-34.181 60.828-34.181 26.074 0 49.485 13.816 62.107 36.335l-4.47 6.257h-63.402c-10.422 0-18.901 8.479-18.901 18.901zm190.222 140.814-37.064-37.064 2.525-2.525h69.079l2.525 2.525zm-19.539-54.59 19.539-19.539 19.539 19.539zm102.743 0h-42.45l-32.613-32.612c-2.174-2.175-5.065-3.372-8.14-3.372s-5.965 1.197-8.139 3.371l-32.614 32.613h-134.47v-49.232h258.426zm0-64.232h-201.907l18.503-25.893h179.503c2.151 0 3.902 1.75 3.902 3.901v21.992z"/></g></svg>