<svg id="Capa_1" enable-background="new 0 0 512 512" height="512" viewBox="0 0 512 512" width="512" xmlns="http://www.w3.org/2000/svg"><path d="m512 137.025c0-17.258-14.041-31.299-31.298-31.299h-27.326c19.957-33.731 18.685-69.405 4.407-91.896-2.595-4.045-7-6.58-11.788-6.783-24.502-1.028-50.164 12.785-68.183 35.957-12.005-21.918-30.751-37.675-51.74-42.356-4.703-1.04-9.623.278-13.157 3.529-8.931 8.205-15.684 19.453-19.635 32.472-18.243-15.303-41.071-23.649-65.141-23.649-11.981 0-23.729 2.074-34.917 6.166-3.89 1.423-5.89 5.73-4.467 9.62s5.73 5.888 9.62 4.468c7.187-2.629 14.648-4.278 22.264-4.931v73.238l-63.404-36.613c3.86-5.525 8.38-10.626 13.501-15.168 3.099-2.748 3.382-7.488.634-10.587-2.749-3.099-7.488-3.382-10.588-.634-19.432 17.237-31.542 41.388-33.794 67.166h-12.687c-17.258 0-31.298 14.041-31.298 31.299 0 17.041 13.691 30.934 30.65 31.281-2.96 9.709-5.566 19.501-7.83 29.354h-18.043c-.562 0-1.109-.146-1.601-.428l-27.517-25.539c-2.859-2.653-6.714-3.858-10.578-3.306-3.862.553-7.224 2.789-9.217 6.127-25.427 42.434-38.867 90.666-38.867 139.488 0 48.808 13.44 97.034 38.861 139.456 2 3.348 5.361 5.584 9.223 6.137.616.089 1.232.132 1.844.132 3.224 0 6.331-1.207 8.733-3.437l27.526-25.539c.491-.278 1.049-.429 1.603-.429h27.865c7.245 22.551 16.352 44.548 27.305 65.717 5 9.661 14.863 15.663 25.741 15.663h257.6c10.877 0 20.741-6.002 25.742-15.664 11.45-22.134 21.028-45.451 28.468-69.303 1.233-3.954-.972-8.16-4.926-9.394-3.953-1.231-8.16.972-9.393 4.927-7.18 23.019-16.423 45.519-27.471 66.876-2.413 4.662-7.171 7.558-12.419 7.558h-257.602c-5.248 0-10.007-2.896-12.419-7.557-50.799-98.18-60.524-214.797-26.928-320.821h336.292c22.576 71.217 25.871 147.36 9.476 220.579-.905 4.042 1.638 8.053 5.68 8.957.552.124 1.103.184 1.646.184 3.434 0 6.53-2.373 7.312-5.863 16.629-74.261 13.688-151.432-8.414-223.873 16.961-.346 30.655-14.24 30.655-31.282zm-66.781-114.997c12.405 19.688 11.65 54.245-9.76 83.698h-44.542c1.456-14.999-.418-31.116-6.008-46.844 15.132-23.346 38.467-37.682 60.31-36.854zm-122.261-6.706c22.378 5.066 42.523 27.581 50.158 56.082 3.078 11.476 3.99 23.218 2.713 34.322h-46.527c-1.797-20.997-9.998-40.675-23.608-56.729 2.586-13.839 8.641-25.7 17.264-33.675zm-8.738 90.404h-55.795l48.149-27.803c4.071 8.709 6.667 18.08 7.646 27.803zm-15.164-40.784-63.416 36.62v-73.224c26.335 2.252 49.048 16.145 63.416 36.604zm-149.312 13.002 48.111 27.782h-55.798c.993-9.671 3.614-19.061 7.687-27.782zm-38.614 337.377h-23.34c-3.82 0-7.489 1.178-10.609 3.406-.26.187-.507.389-.742.605l-26.044 24.164c-23.164-39.549-35.395-84.266-35.395-129.495 0-45.239 12.229-89.958 35.395-129.515l26.033 24.162c.235.218.483.421.744.606 3.121 2.229 6.789 3.406 10.608 3.406h14.872c-13.002 67.349-10.013 137.06 8.478 202.661zm369.572-261.998h-366.4c-8.987 0-16.298-7.312-16.298-16.298 0-8.987 7.312-16.299 16.298-16.299h366.399c8.987 0 16.298 7.312 16.298 16.299.001 8.986-7.311 16.298-16.297 16.298z"/></svg>