<svg id="Capa_1" enable-background="new 0 0 512 512" height="512" viewBox="0 0 512 512" width="512" xmlns="http://www.w3.org/2000/svg"><g><path d="m260.78 248.15 34.28 34.28c4.887 4.885 12.793 4.885 17.679 0l34.282-34.282c4.872-4.874 4.871-12.804-.001-17.677l-32.891-32.891c3.457-7.616 5.506-15.717 6.066-24.183.205-3.129-.911-6.24-3.061-8.535-2.169-2.316-5.236-3.645-8.414-3.645-13.459 0-103.356 0-117.011 0-3.176 0-6.243 1.33-8.414 3.648-2.15 2.296-3.266 5.406-3.06 8.536.796 12.027 4.648 23.188 10.742 32.775h-4.309c-6.893 0-12.5 5.607-12.5 12.5v48.48c0 6.893 5.607 12.5 12.5 12.5h48.48c6.893 0 12.5-5.607 12.5-12.5v-28.373c2.773.102 5.492.106 9.509-.287-.242 3.798 1.164 7.194 3.623 9.654zm-28.672-71.932-25.791 25.79c-5.605-7.36-9.419-16.166-10.73-25.79zm.542 88.44h-43.48v-43.48h14.608c8.178 7.24 18.034 12.597 28.872 15.415zm10.069-41.325c-9.57-1.314-18.395-5.113-25.787-10.727l25.787-25.785zm91.926 15.977-30.745 30.745-30.745-30.745 30.745-30.745zm-29.799-63.092c-.807 5.983-2.588 11.71-5.295 17.108-1.638.605-3.177 1.552-4.49 2.865l-3.38 3.38-23.352-23.353zm-47.127 10.604 23.355 23.356-9.255 9.255c-4.529 1.934-9.246 3.235-14.1 3.893z"/><path d="m367.397 139.664c-.097-.319-.218-.626-.355-.926-7.068-18.053-16.529-34.814-28.304-47.428-2.329-2.495-5.646-3.927-9.098-3.927h-50.702c-4.143 0-7.5 3.357-7.5 7.5s3.357 7.5 7.5 7.5h49.605c7.528 8.301 14.414 19.374 20.232 31.96h-109.282l-11.634-31.96h16.079c4.142 0 7.5-3.357 7.5-7.5s-3.358-7.5-7.5-7.5h-21.538l-28.9-79.392c-2.279-6.288-9.255-9.546-15.555-7.261l-16.858 6.133c-6.31 2.304-9.543 9.268-7.246 15.561l23.962 65.833c-1.712.669-3.276 1.697-4.542 3.054-11.774 12.614-21.236 29.375-28.303 47.427-.137.3-.258.608-.355.927-9.893 25.626-14.98 53.745-14.98 76.267 0 34.789 15.127 70.421 41.503 97.757 17.165 17.79 37.628 30.619 57.983 36.846v106.475c0 .896-.48 1.728-1.257 2.172l-51.451 29.471c-4.987 2.857-7.345 8.509-5.867 14.062 1.479 5.555 6.335 9.286 12.085 9.286h146.76c5.751 0 10.607-3.731 12.086-9.286 1.479-5.553-.88-11.203-5.868-14.062l-51.453-29.473c-.773-.443-1.255-1.274-1.255-2.17v-106.421c15.035-4.576 30.149-12.805 44.212-24.239 3.214-2.613 3.701-7.337 1.088-10.551-2.611-3.212-7.335-3.702-10.551-1.088-19.597 15.934-42.063 25.071-61.639 25.071-50.011 0-111.377-57.029-111.377-123.85 0-21.548 4.698-45.345 12.43-66.589h197.894c7.732 21.244 12.43 45.041 12.43 66.589 0 33.131-14.487 59.042-26.641 74.945-2.516 3.291-1.886 7.998 1.405 10.513 1.359 1.039 2.96 1.541 4.548 1.541 2.257 0 4.488-1.015 5.965-2.946 19.444-25.443 29.723-54.509 29.723-84.053.001-22.522-5.087-50.641-14.979-76.268zm-123.287 317.346v-103.102c4.01.572 7.983.875 11.89.875 3.915 0 7.886-.292 11.89-.854v103.081c0 6.261 3.374 12.081 8.803 15.188l43.3 24.802h-127.986l43.297-24.801c5.432-3.107 8.806-8.928 8.806-15.189zm-20.58-322.666h-12.987l-11.634-31.96h12.987zm-54.616-114.367 11.468-4.172 26.054 71.578h-12.986zm14.181 82.816 11.485 31.551h-31.355c5.724-12.384 12.484-23.297 19.87-31.551z"/></g></svg>