<svg id="Capa_1" enable-background="new 0 0 512 512" height="512" viewBox="0 0 512 512" width="512" xmlns="http://www.w3.org/2000/svg"><path d="m443.11 129.6c.076-9.393-7.642-17.035-17.035-17.035h-41.135c-4.143 0-7.5 3.358-7.5 7.5s3.357 7.5 7.5 7.5h41.135c1.122 0 2.039.913 2.035 2.035-.039 10.692.221 15.185-.421 23.259h-279.048c-.653-8.2-.386-12.546-.426-23.259-.004-1.122.913-2.035 2.035-2.035h199.69c4.143 0 7.5-3.358 7.5-7.5s-3.357-7.5-7.5-7.5h-132.382c5.18-10.592 7.889-22.223 7.889-34.265 0-43.082-35.082-78.3-78.3-78.3-43.101 0-78.3 35.052-78.3 78.3 0 38.159 27.535 70.722 64.954 77.147 2.772 31.082 15.481 61.335 37.738 85.688 2.795 3.058 7.539 3.27 10.596.477 3.058-2.794 3.271-7.538.477-10.596-16.36-17.901-27.29-39.73-31.905-63.156h274.91c-11.911 60.326-65.213 105.963-128.981 105.963h-16.947c-25.917 0-50.761-7.539-71.931-21.404-3.466-2.268-8.114-1.301-10.384 2.166-2.27 3.465-1.3 8.114 2.165 10.383 6.488 4.249 13.272 7.932 20.276 11.073 5.771 15.679 16.942 28.619 31.762 36.68 6.748 3.667 10.94 10.607 10.94 18.11v127.92c0 1.378-1.121 2.5-2.5 2.5h-38.06c-14.441 0-26.19 11.749-26.19 26.19v12.42c0 6.694 5.446 12.14 12.141 12.14h160.51c6.693 0 12.14-5.446 12.14-12.14v-12.42c0-14.441-11.749-26.19-26.189-26.19h-38.061c-1.379 0-2.5-1.122-2.5-2.5v-127.921c0-7.503 4.192-14.443 10.944-18.112 14.831-8.067 26.004-21.017 31.764-36.704 48.795-21.946 80.39-68.701 85.396-114.898 1.726-13.44 1.121-21.973 1.198-31.516zm-354.139-76.227 43.177 24.928-43.182 24.932c-6.793-15.845-6.861-33.898.005-49.86zm116.371 49.866-43.194-24.938 43.177-24.928c6.883 16.003 6.778 34.15.017 49.866zm-13.847 9.326h-36.847v-21.274zm6.314-72.174-43.161 24.919v-49.85c17.605 2.089 33.022 11.416 43.161 24.931zm-58.161-24.931v49.85l-43.162-24.919c10.139-13.515 25.557-22.842 43.162-24.931zm-43.178 100.76 43.177-24.929v24.999c-3.914 3.124-6.433 7.925-6.433 13.31v10.451c-14.287-3.207-27.42-11.393-36.744-23.831zm221.117 183.32c-11.584 6.295-18.779 18.285-18.779 31.29v127.92c0 9.649 7.851 17.5 17.5 17.5h38.061c6.17 0 11.189 5.02 11.189 11.19v9.56h-154.79v-9.56c0-6.17 5.02-11.19 11.19-11.19h38.06c9.649 0 17.5-7.851 17.5-17.5v-127.92c0-13.005-7.195-24.995-18.775-31.289-7.162-3.896-13.336-9.43-18.062-16 12.612 3.476 25.711 5.281 39.009 5.281h16.947c13.505 0 26.585-1.846 39.012-5.284-4.724 6.57-10.898 12.106-18.062 16.002z"/></svg>