<svg id="Capa_1" enable-background="new 0 0 511.996 511.996" height="512" viewBox="0 0 511.996 511.996" width="512" xmlns="http://www.w3.org/2000/svg"><path d="m447.322 35.439c-44.714-44.714-117.329-47.728-165.464-5.555-3.014 2.636-4.822 6.457-4.96 10.482-.14 4.079 1.433 8.077 4.324 10.979l44.056 44.055h-188.695c-4.143 0-7.501 3.358-7.501 7.501s3.358 7.501 7.501 7.501h258.402c1.466 0 2.624 1.258 2.49 2.727l-6.26 68.445h-76.609l-48.263-48.264c-5.72-5.719-15.03-5.72-20.751.001l-38.813 38.814-5.249-14.426c-2.777-7.596-11.216-11.52-18.811-8.754l-71.492 26.022c-3.336 1.21-6.053 3.541-7.769 6.607h-52.94l-6.26-68.444c-.134-1.466 1.02-2.728 2.49-2.728h54.83c4.143 0 7.501-3.358 7.501-7.501s-3.358-7.501-7.501-7.501h-54.83c-4.907 0-9.619 2.078-12.927 5.704-3.308 3.623-4.949 8.505-4.502 13.392l21.248 232.317c1.303 14.251 13.078 24.998 27.389 24.998h110.469v69.845c0 8.823-7.179 16.002-16.002 16.002h-58.067c-25.82 0-46.826 21.01-46.826 46.836 0 4.143 3.358 7.501 7.501 7.501h291.674c4.143 0 7.501-3.358 7.501-7.501 0-25.825-21.01-46.836-46.835-46.836h-58.057c-8.823 0-16.002-7.179-16.002-16.002v-69.845h110.464c14.311 0 26.086-10.747 27.389-24.999l1.663-18.183c.378-4.126-2.661-7.775-6.786-8.152-4.126-.386-7.775 2.661-8.153 6.787l-1.663 18.182c-.593 6.478-5.945 11.364-12.45 11.364-9.017 0-278.387 0-285.821 0-6.505 0-11.857-4.885-12.45-11.364l-13.615-148.87h51.587l25.001 68.69c2.161 5.956 7.803 9.663 13.807 9.662 4.622 0 .567.617 76.508-26.91 3.127-1.134 5.615-3.251 7.289-5.858l19.511 19.511c5.72 5.72 15.03 5.722 20.752 0l53.803-53.803c3.093-3.094 4.499-7.235 4.247-11.292h65.448l-8.752 95.685c-.377 4.125 2.661 7.775 6.786 8.152.232.021.463.032.692.032 3.834 0 7.105-2.926 7.461-6.818l10.682-116.793 24.708 24.708c2.773 2.764 6.564 4.323 10.468 4.323.167 0 .334-.002.5-.008 4.025-.138 7.846-1.946 10.48-4.956 41.748-47.65 39.616-120.3-5.546-165.462zm-178.007 437.222h58.057c14.97 0 27.56 10.388 30.941 24.333h-274.888c3.38-13.945 15.966-24.333 30.932-24.333h58.067c17.095 0 31.004-13.908 31.004-31.004v-69.845h34.884v69.845c-.001 17.096 13.907 31.004 31.003 31.004zm-13.348-328.509 37.422 37.423h-74.843zm-68.417 18.999 6.703 18.423h-57.319zm25.797 70.886-70.881 25.799-23.024-63.26h68.1c-.252 4.057 1.154 8.199 4.247 11.292l18.923 18.923zm95.96-36.545-53.339 53.34-53.34-53.34.916-.916h104.846zm98.605-96.389c-2.686-2.942-6.301-4.842-10.19-5.462l44.085-44.085c15.475 17.823 24.073 39.719 25.656 62.073h-55.017c.191-4.592-1.422-9.116-4.534-12.526zm-38.785-5.703v-80.107c22.354 1.583 44.25 10.181 62.072 25.655l-54.453 54.452zm-77.106-54.473c17.937-15.604 39.837-24.096 62.104-25.641v80.114h-7.63zm149.808 149.808-33.339-33.339 2.631-28.765h56.35c-1.546 22.266-10.038 44.166-25.642 62.104z"/></svg>