<svg id="Capa_1" enable-background="new 0 0 512 512" height="512" viewBox="0 0 512 512" width="512" xmlns="http://www.w3.org/2000/svg"><g><path d="m305.793 462.82h-30.95c-1.38 0-2.5-1.12-2.5-2.5v-41.56c8.61-1.8 17-4.54 25.1-8.22 3.77-1.71 5.44-6.16 3.73-9.93-1.72-3.77-6.16-5.44-9.93-3.73-14.01 6.37-28.81 9.43-43.74 9.43-58.37 0-105.85-47.48-105.85-105.84 0-10.69 2.6-21.24 8.43-34.22 1.7-3.78.02-8.22-3.76-9.91-3.78-1.7-8.22-.01-9.92 3.76-6.74 15.01-9.75 27.46-9.75 40.37 0 58.12 41.24 106.78 95.99 118.271v41.58c0 1.38-1.12 2.5-2.5 2.5h-30.94c-13.99 0-25.37 11.38-25.37 25.37v11.87c0 6.58 5.36 11.94 11.94 11.94h143.45c6.58 0 11.94-5.36 11.94-11.94v-11.87c0-13.991-11.38-25.371-25.37-25.371zm10.37 34.18h-137.33v-8.81c0-5.72 4.65-10.37 10.37-10.37h30.94c9.65 0 17.5-7.85 17.5-17.5v-39.41c6.47.52 12.99.55 19.7.01v39.4c0 9.65 7.85 17.5 17.5 17.5h30.95c5.72 0 10.37 4.65 10.37 10.37z"/><path d="m340.753 224.08c-3.36-7.61-6.44-17.78-5.88-33.56l3.32 4.75c3.96 5.65 11.95 6.95 17.46 2.53 32.61-26.21 39.34-73.62 15.31-107.92-24.01-34.32-70.86-44.21-106.66-22.53-2.82 1.72-4.83 4.56-5.52 7.8-.69 3.27.02 6.72 1.94 9.47l3.81 5.45c-5.52 3.27-10.13 7.92-13.36 13.47-8.48-5.49-13.38-15.58-13.38-23.88 0-4.15-3.36-7.5-7.5-7.5s-7.5 3.35-7.5 7.5c0 13.53 8.21 30.43 23.56 38.42-.44 3.87-.3 7.67.48 11.59h-25.07l-44.2-121.44c-2.35-6.47-9.53-9.83-16.03-7.48l-18.81 6.85c-6.45 2.36-9.8 9.55-7.45 16.01l38.6 106.06h-9.65c-4.11 0-7.87 1.88-10.32 5.18-2.46 3.3-3.2 7.46-2.02 11.41 8.9 29.82 12.84 55.99.26 82.37-1.78 3.74-.19 8.22 3.54 10 3.74 1.78 8.22.2 10-3.54 5.86-12.3 9.4-23.83 9.5-40.9h144.63c.07 12.1 2.08 24.32 7.23 35.96 2.85 6.45 6.13 12.75 9.29 18.84 8.75 16.8 17.01 32.68 17.01 51.479 0 29.86-12.71 58.48-34.88 78.53-3.07 2.78-3.31 7.52-.53 10.59 2.78 3.08 7.52 3.31 10.59.54 25.31-22.89 39.82-55.57 39.82-89.66 0-22.47-9.51-40.74-18.7-58.41-3.2-6.149-6.23-11.969-8.89-17.979zm-57.19-124.22c15.37 0 26.29 15.2 21.23 29.81h-42.45c-5.06-14.65 5.89-29.81 21.22-29.81zm-75.728 79.33-12.562-34.52h15.958l12.562 34.52zm-57.612-158.36 14.1-5.13 41.47 113.97h-15.95zm24.13 158.36c-1.37-12.19-4.23-23.95-7.3-34.52h12.258l12.562 34.52zm146.29 0h-80.888l-12.562-34.52h100.76c-3.08 10.57-5.94 22.33-7.31 34.52zm-.34-49.52c4.97-24.86-15.74-47.39-40.94-44.57l-4.54-6.49c28.67-15.51 64.96-7.13 83.86 19.87 18.9 26.99 14.37 63.97-10.01 85.59l-11.07-15.81c1.3-6.61 3.1-13.91 5.51-22 2.47-8.28-3.7-16.59-12.34-16.59z"/><path d="m272.503 310.83-32.09-11.68v-17.15c0-6.89-5.61-12.5-12.5-12.5h-40c-6.89 0-12.5 5.61-12.5 12.5v40c0 6.89 5.61 12.5 12.5 12.5h20.11l-2.81 7.71c-2.36 6.49.97 13.68 7.47 16.02 38.99 14.06 37.98 14.44 41.85 14.44 5.11 0 9.92-3.16 11.76-8.23l13.68-37.58c2.36-6.48-.99-13.67-7.47-16.03zm-59.02 8.67h-23.07v-35h35v13.05c-.02.01-.04.01-.05.02-3.03 1.41-5.33 3.92-6.47 7.05zm39.57 37.46-32.89-11.97 11.97-32.89 32.89 11.97z"/><path d="m309.353 232.16-28.28-28.29c-4.88-4.87-12.81-4.87-17.68 0l-28.28 28.29c-4.89 4.88-4.89 12.79-.01 17.68l28.29 28.28c4.88 4.89 12.79 4.89 17.68 0l28.28-28.28c4.88-4.88 4.88-12.81 0-17.68zm-37.12 33.59-24.75-24.75 24.75-24.75 24.75 24.75z"/></g></svg>