<svg id="Capa_1" enable-background="new 0 0 512 512" height="512" viewBox="0 0 512 512" width="512" xmlns="http://www.w3.org/2000/svg"><g><path d="m482.708 83.75h-138.271c-3.653-25.595-25.704-45.34-52.289-45.34-26.59 0-48.644 19.745-52.298 45.34h-18.082v-76.25c0-4.143-3.358-7.5-7.5-7.5-47.762 0-87.111 36.908-90.94 83.75h-49.188c-3.25-11.09-13.508-19.215-25.635-19.215-14.73 0-26.713 11.983-26.713 26.714s11.983 26.714 26.713 26.714c12.126 0 22.384-8.124 25.635-19.213h49.186c.494 6.095 1.59 12.081 3.284 17.918h-34.774c-7.481 0-13.567 6.086-13.567 13.567v303.225c0 43.06 35.054 78.54 78.541 78.54h224.035c43.743 0 78.54-35.728 78.54-78.54v-26.209c0-4.143-3.358-7.5-7.5-7.5s-7.5 3.357-7.5 7.5v26.209c0 5.061-.612 9.979-1.736 14.701h-347.645c-1.123-4.722-1.736-9.64-1.736-14.701v-183.024h351.116v121.815c0 4.143 3.358 7.5 7.5 7.5s7.5-3.357 7.5-7.5v-242.016c0-7.481-6.086-13.567-13.567-13.567h-107.318c3.047-5.532 5.057-11.579 5.946-17.918h138.263c4.142 0 7.5-3.357 7.5-7.5s-3.357-7.5-7.5-7.5zm-242.867 15c.889 6.339 2.899 12.386 5.946 17.918h-24.019v-17.918zm-54.605 17.918 21.532-12.429v12.429zm21.533-101.302v62.894l-54.425-31.422c12.477-17.348 32.039-29.276 54.425-31.472zm-158.264 87.597c-6.459 0-11.713-5.255-11.713-11.714s5.254-11.714 11.713-11.714 11.714 5.255 11.714 11.715c0 6.459-5.255 11.713-11.714 11.713zm89.514-11.713c0-11.204 2.434-21.849 6.793-31.44l54.456 31.439-44.034 25.418h-12.857c-2.882-8.138-4.358-16.662-4.358-25.417zm298.973 371.911c-10.68 20.108-31.836 33.839-56.148 33.839h-224.035c-24.312 0-45.468-13.731-56.148-33.839zm7.392-271.258h-46.054c-3.471 0-6.728-1.16-9.171-3.268-8.782-7.577-22.343-10.777-35.114-7.843-1.4.32-2.769.039-3.856-.792-10.386-7.945-25.744-12.503-42.136-12.503-20.648 0-39.325 7.229-48.742 18.864-2.85 3.521-7.005 5.541-11.401 5.541h-93.349c-4.142 0-7.5 3.357-7.5 7.5s3.358 7.5 7.5 7.5h93.349c8.944 0 17.35-4.048 23.061-11.105 6.539-8.079 21.094-13.3 37.082-13.3 12.971 0 25.315 3.521 33.022 9.417 4.631 3.543 10.583 4.818 16.329 3.497 7.448-1.711 16.309-.291 21.957 4.581 5.166 4.456 11.902 6.91 18.969 6.91h46.054v28.532h-351.115v-28.532h26.292c4.142 0 7.5-3.357 7.5-7.5s-3.358-7.5-7.5-7.5h-26.292v-60.235h351.116v60.236zm-180.251-75.235c-6.349-6.962-9.824-15.88-9.824-25.418 0-20.865 16.975-37.84 37.84-37.84 20.859 0 37.83 16.975 37.83 37.84 0 9.538-3.475 18.456-9.824 25.418z"/><path d="m338.499 346.8v-68.75c0-7.047-5.733-12.78-12.78-12.78h-68.74c-7.047 0-12.78 5.733-12.78 12.78v34.833l-.275-.275c-4.982-4.982-13.09-4.982-18.072 0l-48.609 48.609c-4.995 4.993-4.996 13.079 0 18.073l48.609 48.609c4.982 4.982 13.089 4.981 18.073 0l48.609-48.609c4.993-4.994 4.995-13.079 0-18.073l-1.637-1.637h34.823c7.046 0 12.779-5.733 12.779-12.78zm-103.612 68.923-45.469-45.469 45.469-45.47 45.469 45.47zm88.612-71.143h-47.603l-16.697-16.697v-47.613h64.3z"/></g></svg>