<svg id="Capa_1" enable-background="new 0 0 512 512" height="512" viewBox="0 0 512 512" width="512" xmlns="http://www.w3.org/2000/svg"><g><path d="m220.144 173.25v-6.189c0-4.143-3.358-7.5-7.5-7.5s-7.5 3.357-7.5 7.5v6.189c0 4.143 3.358 7.5 7.5 7.5s7.5-3.357 7.5-7.5z"/><path d="m299.356 180.75c4.142 0 7.5-3.357 7.5-7.5v-6.189c0-4.143-3.358-7.5-7.5-7.5s-7.5 3.357-7.5 7.5v6.189c0 4.143 3.358 7.5 7.5 7.5z"/><path d="m230.462 221.621c8.473 4.689 17.006 7.034 25.538 7.034s17.065-2.345 25.538-7.034c3.624-2.006 4.936-6.57 2.93-10.194-2.005-3.625-6.569-4.937-10.194-2.93-12.297 6.805-24.252 6.805-36.549 0-3.625-2.008-8.188-.694-10.194 2.93-2.005 3.624-.693 8.189 2.931 10.194z"/><path d="m194.231 339.8c-.073 1.898-3.268 7.582-5.177 10.976-5.272 9.376-11.832 21.044-3.95 29.045 6.984 7.074 20.571 3.968 30.209 1.143 7.268-2.131 14.744-5.015 20.471-7.396 4.7 6.011 12.012 9.886 20.216 9.886s15.516-3.875 20.216-9.886c5.726 2.381 13.203 5.265 20.471 7.396 9.582 2.81 23.208 5.947 30.215-1.148 7.877-7.996 1.316-19.664-3.956-29.04-1.909-3.394-5.104-9.078-5.177-10.951.072-1.901 3.269-7.591 5.18-10.99 5.27-9.374 11.828-21.042 3.951-29.038-5.291-5.366-14.607-5.721-30.2-1.15-7.284 2.136-14.761 5.021-20.483 7.402-4.7-6.011-12.012-9.887-20.216-9.887s-15.516 3.875-20.217 9.887c-5.722-2.381-13.199-5.267-20.483-7.402-15.594-4.571-24.908-4.217-30.202 1.152-7.876 7.994-1.317 19.662 3.953 29.036 1.91 3.4 5.107 9.089 5.179 10.965zm121.069-29.353c-.847 2.893-3.742 8.041-5.427 11.039-3.653 6.499-7.104 12.638-7.104 18.327 0 5.683 3.45 11.819 7.102 18.315 1.686 2.998 4.58 8.146 5.428 11.04-4.313.277-15.557-1.999-33.708-9.609.138-2.023.007-39.395 0-39.5 18.148-7.622 29.399-9.918 33.709-9.612zm-59.3.716c5.877 0 10.659 4.781 10.659 10.659v35.974c0 5.878-4.782 10.659-10.659 10.659s-10.659-4.781-10.659-10.659v-35.974c0-5.878 4.782-10.659 10.659-10.659zm-25.591 8.896c-.138 2.023-.007 39.395 0 39.5-18.153 7.612-29.399 9.896-33.708 9.609.848-2.894 3.743-8.042 5.428-11.04 3.652-6.496 7.102-12.632 7.102-18.315 0-5.688-3.451-11.828-7.104-18.327-1.685-2.998-4.579-8.146-5.427-11.039 4.311-.307 15.562 1.991 33.709 9.612z"/><path d="m455.847 402.246v-16.253c0-4.143-3.358-7.5-7.5-7.5s-7.5 3.357-7.5 7.5v16.133h-42.544v-104.347l17.905 7.94c14.968 6.635 24.639 21.505 24.639 37.883v7.391c0 4.143 3.358 7.5 7.5 7.5s7.5-3.357 7.5-7.5v-7.391c0-22.307-13.173-42.56-33.559-51.596l-86.826-38.504c9.576-11.818 15.762-26.477 17.101-42.497h10.026c17.076 0 30.969-13.893 30.969-30.97 0-8.625-3.545-16.434-9.25-22.056 5.284-12.15 8.06-25.669 8.06-39.473 0-21.698-6.82-42.433-19.204-58.385-12.604-16.237-29.777-26.083-48.365-27.725-.738-.064-1.428-.481-1.889-1.141-10.981-15.735-32.352-26.376-60.177-29.964-41.023-5.29-86.018 5.988-111.967 28.069-6.023 5.134-11.583 10.671-16.526 16.456-2.691 3.148-2.32 7.883.83 10.574 3.148 2.689 7.883 2.319 10.574-.83 4.433-5.186 9.43-10.161 14.848-14.78 22.92-19.504 63.232-29.4 100.323-24.612 23.237 2.996 41.386 11.624 49.797 23.676 3.016 4.313 7.713 7.046 12.876 7.494 30.213 2.67 53.879 33.93 53.879 71.168 0 11.11-2.097 21.969-6.099 31.798-2.756-.807-5.667-1.248-8.68-1.248h-9.73v-10.23c0-3.691-2.686-6.834-6.333-7.408l-3.353-.528c-17.247-2.731-31.361-15.378-35.955-32.209-1.238-4.556-4.871-8.011-9.483-9.017-4.624-1.009-9.381.623-12.413 4.259-5.791 6.94-14.041 13.21-24.519 18.634-18.926 9.798-44.094 16.3-74.806 19.327-2.45.241-4.626 1.67-5.821 3.822-5.954 10.722-9.101 23.022-9.101 35.572 0 20.595 8.322 39.718 22.612 52.719-5.426 4.883-11.734 8.412-18.556 10.343l-.011.004c-21.088 6.096-37.535-4.645-43.121-18.976-19.504-50.026-20.922-95.725-4.103-132.154 1.736-3.761.095-8.217-3.665-9.953-3.762-1.735-8.217-.096-9.953 3.666-18.569 40.218-17.274 89.974 3.746 143.89 7.389 18.951 25.37 30.173 45.567 30.172 3.361 0 6.785-.323 10.231-.96.858 1.196 1.746 2.364 2.662 3.501l-86.768 38.479c-20.387 9.036-33.56 29.289-33.56 51.596v58.643c-8.809.995-15.68 8.483-15.68 17.554v16.756c0 9.072 6.871 16.562 15.68 17.557v45.379c0 6.897 5.607 12.51 12.5 12.51h374.694c6.892 0 12.5-5.612 12.5-12.51v-45.384c8.809-.995 15.68-8.484 15.68-17.555v-16.756c-.003-9.071-6.874-16.559-15.682-17.553zm-72.544 94.754h-254.606v-205.872l17.347-7.693v39.706c0 26.29 6.75 52.33 19.52 75.306 25.471 45.829 62.495 60.379 73.723 68.824 5.156 3.213 10.935 4.819 16.716 4.818 5.777 0 11.555-1.605 16.705-4.814 10.85-8.161 48.31-23.092 73.729-68.828 12.77-22.976 19.52-49.017 19.52-75.306v-39.706l17.347 7.693c-.001 11.17-.001 193.612-.001 205.872zm-146.113-214.496h37.619c18.695 0 35.871-6.613 49.325-17.615l26.821 11.894v46.358c0 23.746-6.097 47.267-17.631 68.019-23.183 41.713-57.172 54.876-68.546 63.381-5.416 3.376-12.145 3.373-17.567-.004-11.266-8.423-45.342-21.639-68.539-63.377-11.534-20.753-17.631-44.274-17.631-68.019v-46.358l26.735-11.856c13.718 11.25 31.015 17.577 49.414 17.577zm125.398-118.448c8.806 0 15.969 7.168 15.969 15.979 0 8.806-7.164 15.97-15.969 15.97h-9.73v-31.95h9.73zm-152.042 63.952c2.794-3.388 2.09-8.447-1.525-10.943-14.369-9.92-22.948-27.038-22.948-45.788 0-8.699 1.885-17.228 5.478-24.892 30.788-3.387 56.39-10.28 76.146-20.508 10.707-5.542 19.54-11.978 26.321-19.17 6.872 19.518 23.527 34.163 43.84 38.451v59.299c0 34.765-28.284 63.049-63.049 63.049h-37.619c-18.994 0-36.465-8.393-48.237-22.423 8.191-3.942 15.537-9.73 21.593-17.075zm-114.753 77.711 17.904-7.94v104.345h-42.544v-58.522c0-16.378 9.671-31.248 24.64-37.883zm-40.32 114.08c0-1.475 1.2-2.675 2.674-2.675h55.55v22.108h-50.005c-.013 0-.026-.002-.039-.002s-.026.002-.039.002h-5.467c-1.475 0-2.674-1.201-2.674-2.678zm15.68 34.433h42.544v42.768h-42.544zm327.15 42.768v-42.77h42.544v42.77zm58.224-60.445c0 1.476-1.2 2.676-2.674 2.676h-55.549v-22.106h55.549c1.475 0 2.674 1.2 2.674 2.675z"/></g></svg>