<svg id="Capa_1" enable-background="new 0 0 512 512" height="512" viewBox="0 0 512 512" width="512" xmlns="http://www.w3.org/2000/svg"><g><path d="m62.779 66.945h18.348c4.142 0 7.5-3.357 7.5-7.5s-3.358-7.5-7.5-7.5h-18.348c-6.014 0-10.907-4.894-10.907-10.908s4.893-10.907 10.907-10.907h29.281c9.495 0 17.219-7.725 17.219-17.22 0-4.143-3.358-7.5-7.5-7.5s-7.5 3.357-7.5 7.5c0 1.224-.996 2.22-2.219 2.22h-29.281c-14.285 0-25.907 11.622-25.907 25.907 0 14.286 11.622 25.908 25.907 25.908z"/><path d="m116.127 66.945h17.75c4.142 0 7.5-3.357 7.5-7.5s-3.358-7.5-7.5-7.5h-17.75c-4.142 0-7.5 3.357-7.5 7.5s3.358 7.5 7.5 7.5z"/><path d="m496.23 294.09c-12.301 0-90.776 0-100.905 0 2.136-4.964 3.555-10.228 4.177-15.641.847-7.43-4.954-13.939-12.422-13.939h-86.27c-3.568 0-6.974 1.527-9.344 4.191-2.37 2.665-3.491 6.227-3.077 9.754.622 5.412 2.038 10.674 4.17 15.635h-5.919c-8.695 0-15.77 7.074-15.77 15.771v39.17h-11.92c-6.893 0-12.5-5.607-12.5-12.5v-74.55c0-12.406 10.093-22.5 22.5-22.5h84.55c25.05 0 45.43-20.38 45.43-45.431 0-12.134-4.726-23.542-13.303-32.119-8.571-8.583-19.98-13.311-32.127-13.311h-96.23v-5.71c0-3.419-1.425-6.728-3.912-9.079s-5.863-3.581-9.287-3.399l-49.238 2.754c2.322-1.575 4.499-3.356 6.494-5.358 12.573-12.55 16.928-30.255 11.364-46.205-5.637-16.163-20.353-27.103-39.351-29.263-3.959-.463-7.898 1.248-10.275 4.452-2.388 3.219-2.881 7.503-1.289 11.174 3.229 7.471 4.072 13.882 2.2 16.729-1.838 2.797-7.446 3.215-10.626 3.215h-58.49c-7.31 0-14.455 1.253-21.23 3.721-22.181 8.057-37.74 27.831-40.506 51.026-11.784 8.319-19.852 21.015-22.236 35.321-5.123 1.459-9.043 5.782-9.869 11.339-.677 4.543-1.019 9.184-1.019 13.791 0 6.139.606 12.182 1.759 18.093.005.022.009.045.013.067 3.012 15.387 9.85 29.841 20.247 42.5 2.628 3.199 7.354 3.662 10.556 1.035 3.201-2.629 3.665-7.355 1.035-10.557-6.762-8.232-11.746-17.35-14.848-27.02h176.798c-11.315 35.088-46.651 60.756-88.381 60.756-17.305 0-34.169-4.44-48.77-12.843-3.591-2.064-8.176-.831-10.241 2.761-2.066 3.59-.83 8.175 2.76 10.241 14.749 8.486 31.467 13.475 48.751 14.597v88.837l-39.651 22.711c-12.02 6.886-7.136 25.282 6.729 25.282h80.845c13.847 0 18.766-18.387 6.728-25.282l-39.65-22.711v-88.841c49.008-3.173 89.043-37.18 97.862-81.295.03-.13.057-.261.081-.393 2.07-10.591 2.262-21.347.717-31.731-.606-4.081-2.888-7.487-6.083-9.592 0 0 37.274 2.084 37.504 2.084 6.941 0 12.509-5.639 12.509-12.498v-5.71h96.23c8.136 0 15.775 3.164 21.517 8.914 5.748 5.747 8.913 13.389 8.913 21.516 0 16.779-13.65 30.431-30.43 30.431h-84.55c-20.678 0-37.5 16.822-37.5 37.5v74.55c0 15.163 12.336 27.5 27.5 27.5h11.92v10.79c0 8.695 7.074 15.77 15.77 15.77h55.13c12.902 0 24.25 8.133 28.235 20.233 4.761 14.478 6.535 28.708 5.17 40.79h-58.877c-6.893 0-12.5 5.607-12.5 12.5v29.977c0 6.893 5.607 12.5 12.5 12.5h41.711c4.143 0 7.5-3.357 7.5-7.5s-3.357-7.5-7.5-7.5h-39.211v-24.977h169.202v24.977h-94.991c-4.143 0-7.5 3.357-7.5 7.5s3.357 7.5 7.5 7.5h97.491c6.893 0 12.5-5.607 12.5-12.5v-29.977c0-6.893-5.607-12.5-12.5-12.5h-28.544c1.666-18.572-2.633-40.538-12.116-61.023h46.391c8.695 0 15.77-7.074 15.77-15.77v-64.96c-.001-8.695-7.075-15.77-15.771-15.77zm-423.974 130.5 34.923-20.003 34.923 20.003zm6.501-318.842c5.132-1.869 10.549-2.817 16.103-2.817h58.49c11.018 0 18.811-3.356 23.161-9.977 4.805-7.312 3.883-16.555 1.423-24.499 10.111 2.746 17.464 9.133 20.595 18.109 3.649 10.461.661 22.205-7.811 30.661-2.661 2.67-5.776 4.779-9.263 6.271-6.455 2.767-8.06 11.218-3.045 16.11 10.339 10.096 14.451 24.491 11.894 37.854h-163.992c2.129-8.544 7.047-15.986 13.782-21.269 7.008-5.497 15.413-8.341 24.149-8.341 4.136 0 8.206.641 12.097 1.904 3.938 1.279 8.17-.878 9.449-4.817s-.877-8.171-4.817-9.45c-5.389-1.749-11.018-2.637-16.729-2.637-4.797 0-9.481.638-13.977 1.828 4.565-13.233 14.881-23.987 28.491-28.93zm-63.219 106.5c-.765-6.653-.724-13.121.186-19.786h182.909c.86 6.295.992 12.911.191 19.786zm226.732-45.564-36.456-2.044c-.512-5.813-1.908-11.479-4.115-16.814l40.572-2.27v21.128zm61.436 112.826h80.478c-.962 5.187-2.944 10.133-5.803 14.58h-68.881c-2.852-4.438-4.83-9.382-5.794-14.58zm131.157 114.528c9.631 19.529 13.949 40.546 12.03 57.576h-56.634c1.62-17.149-2.166-33.801-6.005-45.479-6.018-18.271-23.091-30.545-42.484-30.545h-55.13c-.425 0-.77-.345-.77-.77v-64.96c0-.425.345-.771.77-.771h168.984v66.5h-9.254c-4.467 0-8.541 2.267-10.899 6.062-2.347 3.78-2.573 8.412-.608 12.387zm62.137-19.217c0 .425-.346.77-.77.77h-25.606v-66.5h25.606c.424 0 .77.346.77.771z"/></g></svg>