<svg id="Capa_1" enable-background="new 0 0 512 512" height="512" viewBox="0 0 512 512" width="512" xmlns="http://www.w3.org/2000/svg"><g><path d="m232.204 135.641h51.611c9.858 0 14.62-12.103 7.403-18.819l-5.758-5.361 5.758-5.36c7.215-6.716 2.456-18.82-7.403-18.82h-51.611c-13.333 0-24.181 10.848-24.181 24.181s10.848 24.179 24.181 24.179zm0-33.361h41.138c-2.35 2.46-3.684 5.764-3.684 9.181s1.334 6.721 3.684 9.181h-41.138c-5.062 0-9.181-4.118-9.181-9.181s4.119-9.181 9.181-9.181z"/><path d="m350.769 108.362c0-23.397-14.47-43.91-36.245-51.809-.028-12.181-.055-25.652-.055-32.56 0-11.903-10.103-22.368-23.004-23.823-7.024-.787-13.858 1.201-19.235 5.497-4.588-3.632-10.335-5.664-16.23-5.664-5.887 0-11.627 2.026-16.228 5.667-5.381-4.3-12.215-6.279-19.242-5.5-12.896 1.455-22.999 11.92-22.999 23.823 0 3.31-.027 18.587-.056 32.562-21.785 7.919-36.244 28.426-36.244 51.808 0 23.358 14.432 43.856 36.199 51.802v35.887c-5.828 2.843-9.863 8.812-9.863 15.722v231.787c0 12.999 3.662 25.65 10.589 36.586 2.216 3.499 6.848 4.539 10.35 2.322 3.499-2.217 4.539-6.851 2.322-10.35-5.404-8.53-8.261-18.406-8.261-28.559v-231.788c0-1.379 1.121-2.5 2.5-2.5h101.883c1.379 0 2.5 1.121 2.5 2.5v8.515c0 4.143 3.357 7.5 7.5 7.5s7.5-3.357 7.5-7.5v-8.515c0-6.908-4.033-12.875-9.859-15.72v-35.9c21.745-7.934 36.178-28.432 36.178-51.79zm-174.538 0c0-17.645 11.312-33.042 28.142-38.31 4.815-1.501 8.069-5.889 8.098-10.945.03-14.637.061-31.603.061-35.115 0-4.681 5.006-8.39 9.676-8.917 3.521-.393 6.933.83 9.353 3.369 4.476 4.686 11.99 4.677 16.405-.002 2.119-2.219 4.973-3.44 8.036-3.44s5.917 1.222 8.006 3.408c4.449 4.716 11.942 4.735 16.443.026 2.413-2.531 5.827-3.758 9.34-3.361 4.675.527 9.681 4.236 9.681 8.917 0 7.395.03 22.302.061 35.09 0 5.033 3.243 9.438 8.092 10.969 16.836 5.262 28.147 20.657 28.147 38.311 0 17.632-11.295 33.025-28.125 38.31-4.818 1.527-8.055 5.935-8.055 10.969v36.631h-87.16v-36.631c0-5.063-3.261-9.474-8.083-10.966-16.82-5.277-28.118-20.674-28.118-38.313z"/><path d="m316.949 247.787c-4.143 0-7.5 3.357-7.5 7.5v188.272c0 29.468-23.974 53.441-53.441 53.441-7.787 0-15.29-1.635-22.299-4.858-3.766-1.729-8.217-.083-9.948 3.681-1.73 3.764-.082 8.217 3.681 9.948 8.989 4.134 18.601 6.229 28.566 6.229 37.738 0 68.441-30.703 68.441-68.441v-188.272c0-4.143-3.357-7.5-7.5-7.5z"/><path d="m254.916 471.981c.371.014.739.021 1.108.021 7.386 0 14.347-2.803 19.701-7.959 5.626-5.417 8.724-12.691 8.724-20.483v-26.787c0-6.893-5.607-12.5-12.5-12.5h-31.883c-6.893 0-12.5 5.607-12.5 12.5v26.272c0 15.644 12.013 28.353 27.35 28.936zm-12.35-52.709h26.883v24.287c0 3.678-1.466 7.114-4.128 9.678-2.658 2.561-6.158 3.87-9.838 3.755-7.122-.271-12.917-6.527-12.917-13.947z"/></g></svg>