<svg id="Capa_1" enable-background="new 0 0 512 512" height="512" viewBox="0 0 512 512" width="512" xmlns="http://www.w3.org/2000/svg"><g><path d="m417.634 32.338c-.04 0-.081 0-.121 0-8.295.052-16.452.901-24.441 2.509-19.81-1.082-41.941-5.642-57.325-29.703-2.007-3.152-5.437-5.074-9.174-5.142-3.758-.084-7.27 1.739-9.399 4.834-16.83 24.429-16.877 51.851 5.43 70.608-5.259 5.95-9.919 12.345-13.95 19.085h-31.144c-4.143 0-7.5 3.358-7.5 7.5s3.357 7.5 7.5 7.5h23.448c-8.963 20.696-12.497 43.639-9.817 66.398h-60.374c-5.358-25.987-27.183-46.027-54.043-48.692-1.291-6.17-3.185-12.087-5.649-17.705h71.435c4.143 0 7.5-3.358 7.5-7.5s-3.357-7.5-7.5-7.5h-79.853c-7.954-11.371-18.684-20.975-31.806-28.264-3.62-2.011-8.187-.707-10.198 2.915-2.011 3.621-.706 8.187 2.915 10.199 7.554 4.196 14.161 9.296 19.72 15.151h-47.504c-11.251 0-20.404 9.153-20.404 20.404v244.344c0 4.142 3.357 7.5 7.5 7.5s7.5-3.358 7.5-7.5v-168.35h18.881c1.358 32.673 28.352 58.838 61.352 58.838s59.994-26.165 61.352-58.838h61.868c8.017 33.133 29.5 63.319 61.632 81.382 8.312 4.671 18.885.007 20.848-9.459l6.091-29.379c1.266-6.103-1.145-12.438-6.139-16.138-9.228-6.839-16.704-15.957-21.682-26.405h57.765v254.427h-321.968v-51.077c0-4.142-3.357-7.5-7.5-7.5s-7.5 3.358-7.5 7.5v97.318c0 11.251 9.153 20.404 20.404 20.404h311.16c11.251 0 20.404-9.153 20.404-20.404v-376.664c0-11.251-9.153-20.404-20.404-20.404h-13.676c7.31-2.8 14.98-4.341 22.919-4.581 9.239-.279 17.005-7.475 18.062-16.737.773-6.759 1.537-13.487 2.251-19.872 1.254-11.2-7.54-21.002-18.866-21.002zm-202.304 143.589h-89.433c5.446-19.581 23.424-33.998 44.717-33.998s39.27 14.417 44.716 33.998zm-124.95-60.993c0-2.98 2.425-5.404 5.404-5.404h58.533c3.132 5.635 5.52 11.69 7.108 18.089-25.438 3.833-45.814 23.321-50.966 48.308h-20.079zm80.233 119.831c-24.728 0-44.999-19.439-46.342-43.838h92.685c-1.344 24.399-21.614 43.838-46.343 43.838zm155.882-216.614c10.734 14.526 23.693 22.392 36.736 26.693-10.783 5.158-20.789 11.705-29.999 19.918-15.64-12.447-16.514-29.538-6.737-46.611zm-8.999 91.378h32.008c-14.052 18.858-19.795 42.885-15.432 66.398h-27.81c-3.072-22.899 1.013-46.092 11.234-66.398zm23.057 86.826c6.024 13.087 15.285 24.509 26.782 33.029.314.233.465.643.382 1.042l-5.859 28.263c-26.591-15.288-44.885-40.141-52.534-67.761h28.973c.694 1.819 1.43 3.632 2.256 5.427zm66.391 300.645h-311.16c-2.979 0-5.404-2.424-5.404-5.404v-31.242h321.968v31.242c0 2.98-2.424 5.404-5.404 5.404zm5.404-382.066v60.994h-62.958c-5.469-24.18 2.181-49.376 20.081-66.398h37.473c2.98-.001 5.404 2.424 5.404 5.404zm9.246-63.262c-.714 6.373-1.476 13.088-2.247 19.836-.219 1.91-1.771 3.392-3.613 3.448-18.321.554-36.673 7.087-51.901 19.574h-37.289c19.8-27.713 53.17-46.955 91.062-47.191h.028c1.567 0 2.547.826 2.992 1.321.434.48 1.136 1.512.968 3.012z"/><path d="m226.257 376.238c8.882 0 16.108-7.227 16.108-16.109v-63.223c0-8.882-7.227-16.108-16.108-16.108h-63.223c-8.883 0-16.109 7.226-16.109 16.108v63.223c0 8.882 7.227 16.109 16.109 16.109zm-64.332-16.108v-63.223c0-.611.498-1.108 1.109-1.108h63.223c.611 0 1.108.497 1.108 1.108v63.223c0 .611-.497 1.109-1.108 1.109h-63.223c-.611 0-1.109-.498-1.109-1.109z"/><path d="m322.057 425.127c4.023 0 8.047-1.532 11.11-4.595l42.644-42.644c6.126-6.126 6.126-16.094 0-22.22l-42.644-42.644c-6.127-6.126-16.094-6.126-22.221 0l-42.644 42.644c-6.126 6.126-6.126 16.094 0 22.22l42.644 42.644c3.064 3.063 7.087 4.595 11.111 4.595zm-43.148-58.853 42.644-42.644c.139-.139.32-.208.503-.208s.364.069.503.208l42.644 42.644c.278.278.278.729 0 1.007l-42.644 42.644c-.277.277-.729.277-1.006 0l-42.644-42.644c-.278-.277-.278-.729 0-1.007z"/></g></svg>