<svg id="Capa_1" enable-background="new 0 0 512 512" height="512" viewBox="0 0 512 512" width="512" xmlns="http://www.w3.org/2000/svg"><path d="m332.031 244.478 126.973-147.4c4.354-5.055 5.332-11.961 2.551-18.026-2.78-6.064-8.651-9.832-15.322-9.832h-80.426c-4.142 0-7.5 3.358-7.5 7.5s3.358 7.5 7.5 7.5h80.426c1.607 0 2.447 1.859 1.406 3.067l-13.413 15.571h-202.3c-.914-6.222-2.049-12.45-3.417-18.638h102.437c4.142 0 7.5-3.358 7.5-7.5s-3.358-7.5-7.5-7.5h-106.191c-7.303-25.898-17.584-46.892-29.207-59.505-4.334-4.717-10.003-7.872-16.362-9.12-.501-.074-2.703-.579-5.944-.592-.045 0-.091-.003-.136-.003h-20.44c-9.746 0-18.915 4.146-25.155 11.375-13.054 15.121-23.101 39.304-29.504 64.708-2.651-8.615-4.906-17.609-6.637-26.564-.706-3.661-3.363-6.614-6.933-7.708-3.579-1.098-7.444-.137-10.083 2.504l-20.351 20.341c-4.518 4.5-6.209 11.1-4.418 17.211 4.881 16.756 15.761 47.157 33.785 62.499 3.586 3.046 8.187 4.724 12.956 4.724 12.345-.001 15.975-.001 16.895-.001h.277c13.173 0 24.215-10.25 25.139-23.335.013-.178.029-.359.042-.538l102.734 119.259c9.513 11.044 14.752 25.155 14.752 39.735v96.08c0 4.142 3.358 7.5 7.5 7.5s7.5-3.358 7.5-7.5v-96.08c0-11.832-2.785-23.409-7.99-33.852 7.554 2.286 15.479 3.484 23.548 3.484 8.068 0 15.992-1.197 23.545-3.483-5.205 10.443-7.991 22.018-7.991 33.848v174.262c0 9.649 7.851 17.5 17.5 17.5h40.629c2.88 0 5.567 1.142 7.568 3.215 1.999 2.071 3.043 4.803 2.941 7.691-.197 5.583-5.105 10.125-10.939 10.125h-146.936c-2.88 0-5.567-1.142-7.568-3.215-1.999-2.071-3.043-4.803-2.941-7.691.199-5.583 5.107-10.125 10.941-10.125h40.198c9.649 0 17.5-7.851 17.5-17.5v-43.183c0-4.142-3.358-7.5-7.5-7.5s-7.5 3.358-7.5 7.5v43.183c0 1.378-1.122 2.5-2.5 2.5h-40.198c-14.05 0-25.441 10.802-25.931 24.593-.249 6.994 2.286 13.614 7.138 18.641 4.853 5.029 11.374 7.798 18.361 7.798h146.937c14.051 0 25.441-10.802 25.931-24.592.249-6.994-2.286-13.614-7.138-18.641-4.854-5.029-11.375-7.798-18.362-7.798h-40.629c-1.378 0-2.5-1.122-2.5-2.5v-174.263c-.001-14.576 5.239-28.686 14.752-39.729zm-241.949-114.376c-9.897-10.25-19.275-29.017-26.099-52.441-.248-.847-.016-1.757.614-2.386l13.943-13.935c3.483 15.186 8.305 30.132 13.887 43.064-1.273 8.889-2.065 17.569-2.345 25.698zm126.683-27.244h-18.574c-1.038-6.188-2.309-12.415-3.82-18.638h18.758c1.449 6.177 2.658 12.406 3.636 18.638zm-37.491-86.631c1.994.829 3.774 2.054 5.237 3.646 9.336 10.131 18.113 27.81 24.619 49.348h-18.855c-5.178-16.986-11.772-32.372-18.975-44.287 2.658-3.538 5.324-6.448 7.974-8.707zm-4.722 52.993h-24.577c3.543-10.867 7.72-21.036 12.3-29.764 4.508 8.602 8.688 18.734 12.277 29.764zm-50.878 55.478c-.372 5.266-4.841 9.391-10.176 9.391h-8.527c.457-38.849 14.296-90.21 33.894-112.911 3.389-3.926 8.419-6.177 13.801-6.177h7.333c-1.337 1.729-2.658 3.572-3.96 5.523 0 0-.04.061-.058.089-18.001 26.99-29.973 70.99-32.307 104.085zm21.934-40.478h33.298c1.603 6.216 2.958 12.444 4.063 18.638h-41.434c1.113-6.236 2.486-12.487 4.073-18.638zm141.116 154.622c-19.296 0-37.586-8.385-50.18-23.005-.007-.008-.015-.015-.022-.023l-84.383-97.955h269.165l-84.398 97.976c-12.595 14.62-30.886 23.007-50.182 23.007z"/></svg>