<svg id="Capa_1" enable-background="new 0 0 512 512" height="512" viewBox="0 0 512 512" width="512" xmlns="http://www.w3.org/2000/svg"><g><path d="m458.061 169.32c-1.85-31.43-17.48-60.27-42.87-79.13-3.33-2.47-8.03-1.78-10.5 1.55-2.47 3.32-1.77 8.02 1.55 10.49 21.26 15.79 34.56 39.71 36.7 65.89h-17.16c-3.78-37.45-35.48-66.78-73.91-66.78-28.74 0-55.13 16.98-67.25 42.75h-18.49c13.06-35.67 47.04-59.84 85.74-59.84 8.83 0 17.58 1.27 26.01 3.77 3.97 1.18 8.15-1.09 9.32-5.06 1.18-3.97-1.08-8.14-5.05-9.32-9.82-2.91-20.01-4.39-30.28-4.39-46.9 0-87.85 30.49-101.57 74.84h-17.64v-130.14c0-7.69-6.25-13.95-13.95-13.95h-22.52c-7.68 0-13.94 6.26-13.94 13.95v130.14h-33.75l-46.36-127.39c-1.27-3.5-3.82-6.3-7.2-7.88s-7.17-1.75-10.68-.47l-21.17 7.71c-3.49 1.27-6.28 3.83-7.86 7.2-1.58 3.38-1.74 7.17-.46 10.66l40.09 110.17h-10.09c-10.32 0-18.41 8.93-17.35 19.23l11.28 109.52c.43 4.12 4.12 7.11 8.23 6.69 4.12-.43 7.12-4.11 6.7-8.23l-7.63-73.97h288.21l-26.53 257.48h-235.15l-15.32-148.7c-.42-4.12-4.11-7.12-8.23-6.69-4.12.42-7.11 4.11-6.69 8.23l18.78 182.22c1.3 12.62 11.84 22.13 24.52 22.13h209.03c12.68 0 23.22-9.51 24.52-22.13l31.61-306.75h54.32c7.5 0 13.44-6.35 12.99-13.8zm-113.84 319.01c-.51 4.94-4.63 8.67-9.6 8.67h-209.03c-4.96 0-9.09-3.73-9.6-8.67l-1.91-18.52h232.05zm-190.257-329.24h28.282v23.24h-19.824zm-7.504 23.24h-21.721l-8.459-23.24h21.721zm50.787-23.24h20.411v23.24h-20.411zm.004-144.09h20.41v129.09h-20.41zm-128.03 14.79 19.18-6.98 44.14 121.28h-21.72zm15.24 152.54c-1.6-19.95-2.95-20.83-1.5-22.44.27-.3.87-.8 1.81-.8h15.547l8.459 23.24zm291.29 0h-143.093v-23.24h142.783c1.45 0 2.58 1.25 2.43 2.69zm16.55-14.21.49-4.8c1.06-10.26-7-19.23-17.35-19.23h-73.75c10.71-16.95 29.7-27.75 50.18-27.75 30.15 0 55.09 22.62 58.79 51.78z"/><path d="m168.821 413.17c32.73 32.73 85.28 34.86 120.46 4.67 2.81-2.41 4.5-5.9 4.64-9.6.14-3.72-1.28-7.35-3.9-9.97l-28.08-28.08c4.01-1.74 6.83-5.74 6.83-10.38v-39.36c0-6.23-5.08-11.3-11.31-11.3h-39.35c-4.65 0-8.65 2.81-10.38 6.83l-24-24c-2.63-2.63-6.27-4.05-9.97-3.91-3.7.15-7.2 1.84-9.6 4.64-29.39 34.24-28.88 86.92 4.66 120.46zm109.32-5.57c-11.22 9.16-24.77 14.74-39.08 16.19v-52.68h2.59zm-56.34-83.45h31.97v31.96h-31.97zm-.32 46.96h2.58v52.66c-14.37-1.46-27.9-7.07-39.06-16.18zm-13.93-7.28-33.15 33.15c-9.27-11.4-14.66-25.05-16.08-39.06h48.48c.07 1.27-.29 3.19.75 5.91zm-33.16-59.98 32.41 32.41v6.66h-48.49c1.4-13.96 6.72-27.6 16.08-39.07z"/><path d="m286.431 302.88c2.96 0 5.92-1.13 8.17-3.38l29.59-29.6c4.51-4.5 4.51-11.83 0-16.33l-29.59-29.6c-4.51-4.5-11.83-4.5-16.34 0l-29.59 29.6c-4.51 4.5-4.51 11.83 0 16.33l29.59 29.6c2.25 2.25 5.21 3.38 8.17 3.38zm0-65.86 24.72 24.72-24.72 24.72-24.72-24.72z"/><path d="m201.301 275.97c6.37 0 11.55-5.18 11.55-11.55v-41.86c0-6.36-5.18-11.55-11.55-11.55h-41.86c-6.37 0-11.55 5.19-11.55 11.55v41.86c0 6.37 5.18 11.55 11.55 11.55zm-38.41-49.96h34.96v34.96h-34.96z"/></g></svg>