<svg id="Capa_1" enable-background="new 0 0 512 512" height="512" viewBox="0 0 512 512" width="512" xmlns="http://www.w3.org/2000/svg"><path d="m432.867 117.706h-25.564l32.764-90.01c2.367-6.502-.97-13.683-7.483-16.054l-21.731-7.907c-6.516-2.383-13.709 1.005-16.051 7.479l-38.762 106.492h-34.93v-105.186c0-6.904-5.621-12.52-12.53-12.52h-23.13c-6.904 0-12.521 5.616-12.521 12.52v105.186h-66.767c-4.142 0-7.5 3.358-7.5 7.5s3.358 7.5 7.5 7.5h66.767v32.864l-24.963 24.963h-32.171l.75-2.276c2.489-7.589-1.656-15.787-9.232-18.271l-68.258-22.463c-7.612-2.494-15.786 1.652-18.27 9.233l-11.115 33.777h-29.598l-4.835-53.564c-.207-2.287 1.593-4.263 3.896-4.263h92.029c4.142 0 7.5-3.358 7.5-7.5s-3.358-7.5-7.5-7.5h-92.029c-11.108 0-19.833 9.552-18.835 20.612l31.644 350.588c1.188 13.166 12.053 23.094 25.272 23.094h277.572c13.219 0 24.083-9.928 25.272-23.094l7.977-88.38c.372-4.125-2.67-7.771-6.796-8.144-4.135-.374-7.771 2.67-8.144 6.795l-3.862 42.786h-306.467l-11.589-128.397c18.168 3.18 30.322 8.718 46.841 16.907 20.771 10.297 42.249 20.944 84.683 20.944 42.432 0 63.911-10.647 84.683-20.943 20.111-9.969 39.107-19.385 78.034-19.385 13.052 0 24.669 1.089 35.332 3.286l-4.5 49.852c-.372 4.125 2.67 7.771 6.796 8.144.229.021.457.031.683.031 3.837 0 7.109-2.93 7.461-6.826l20.513-227.258c.998-11.085-7.75-20.612-18.836-20.612zm-24.987 339.258-2.761 30.593c-.486 5.383-4.929 9.443-10.333 9.443h-277.572c-5.405 0-9.847-4.059-10.333-9.442l-2.761-30.594zm.169-438.287 17.076 6.213-33.785 92.816h-19.337zm-62.558 171.856 21.052-57.827h19.346l-21.052 57.827zm5.088-57.827-19.098 52.46-10.371-10.371v-42.089zm-62.65-117.706h18.181v102.706h-18.181zm18.181 117.706v27.089l-3.466-3.466c-3.975-3.975-9.702-5.138-14.715-3.514v-20.109zm-13.702 34.6 23.227 23.228h-46.455zm-38.228 38.227h76.455l11.842 11.842-50.069 50.07-50.07-50.07zm-119.308-43.595 67.26 22.134-2.129 6.461h-74.541zm67.169 173.465c-25.708-2.686-41.177-10.346-57.36-18.369-5.346-2.65-10.754-5.329-16.563-7.845l35.507-35.508 50.069 50.069zm220.065-36.052c-11.2-2.178-23.278-3.262-36.688-3.262-42.44 0-63.922 10.648-84.696 20.946-20.108 9.968-39.103 19.383-78.021 19.383-.155 0-.303-.003-.458-.003l2.431-2.431c5.642-5.643 5.642-14.823 0-20.466l-50.8-50.801c-5.649-5.669-14.822-5.674-20.486-.009l-40.685 40.686c-6.808-2.147-14.331-3.959-22.916-5.244l-8.359-92.615h151.541l-1.606 1.606c-5.645 5.645-5.645 14.828 0 20.473l50.81 50.81c5.644 5.643 14.827 5.646 20.474 0l50.812-50.811c5.642-5.644 5.641-14.828 0-20.471l-1.606-1.606h78.725zm9.822-108.818h-51.127l21.052-57.827h31.015c2.296 0 4.102 1.971 3.896 4.263z"/></svg>