<svg id="Capa_1" enable-background="new 0 0 512 512" height="512" viewBox="0 0 512 512" width="512" xmlns="http://www.w3.org/2000/svg"><g><path d="m245.591 321.621c0 4.494 1.75 8.719 4.928 11.897l63.56 63.56c6.577 6.575 17.217 6.576 23.795 0l63.56-63.56c3.178-3.178 4.928-7.403 4.928-11.897s-1.75-8.719-4.928-11.896l-63.56-63.56c-3.179-3.178-7.403-4.928-11.897-4.928s-8.719 1.75-11.897 4.928l-63.56 63.56c-3.179 3.177-4.929 7.402-4.929 11.896zm15.535-1.291 63.56-63.56c.355-.355.822-.534 1.29-.534s.935.178 1.29.534l63.56 63.56c.712.711.712 1.869 0 2.581l-63.56 63.56c-.441.442-.945.534-1.29.534s-.849-.092-1.29-.534l-63.56-63.56c-.712-.711-.712-1.869 0-2.581z"/><path d="m267.193 172.664h-58.52c-8.236 0-14.937 6.701-14.937 14.937v58.521c0 8.236 6.7 14.936 14.937 14.936h58.52c8.236 0 14.936-6.7 14.936-14.936v-58.521c0-8.236-6.7-14.937-14.936-14.937zm-58.489 73.426v-58.426h58.457v58.426z"/><path d="m492.43 56.761h-141.159c-4.14 0-7.5 3.36-7.5 7.5s3.36 7.5 7.5 7.5h141.159c2.52 0 4.57 2.05 4.57 4.57v49.92h-65.439l-32.8-32.8c-3.18-3.18-7.41-4.93-11.9-4.93s-8.72 1.75-11.9 4.93l-32.8 32.8h-78.759c.884-18.715-2.894-37.511-11.207-54.49h64.076c4.15 0 7.5-3.36 7.5-7.5s-3.35-7.5-7.5-7.5h-72.88c-22.99-32.83-63.2-52.74-106.569-47.07-61.34 8.01-104.729 64.43-96.729 125.789.04.26.08.51.11.76-12.62 7.42-23.11 18.21-30.25 31.36-9.6 17.65-12.37 38.04-7.81 57.41 8.86 37.61 43.31 64 81.81 62.77 6.8-.22 13.01-3.5 17.03-9.01 4.05-5.56 5.29-12.53 3.4-19.13l-5.01-17.57c-2.07-7.21-8.94-12.08-16.34-11.57-11.29.78-21.74-6.55-24.85-17.44-3.66-12.79 3.78-26.17 16.57-29.82 3.33-.95 6.73-1.18 10.11-.67 5.98.89 11.9-2.6 14.09-8.31l9.11-23.79c1.97-5.14 1.52-10.83-1.23-15.6-2.27-3.93-5.87-6.78-10.11-8.15-2.91-27.41 15.03-52.53 41.3-59.07-1.3 2.62-2.05 5.56-2.05 8.68v256.48c0 4.14 3.35 7.5 7.5 7.5 4.14 0 7.5-3.36 7.5-7.5v-191.559h176.189l-15.76 15.76c-3.18 3.18-4.93 7.4-4.93 11.9 0 4.49 1.75 8.72 4.93 11.89l63.56 63.56c3.18 3.18 7.41 4.93 11.9 4.93s8.72-1.75 11.9-4.93l63.56-63.56c3.17-3.17 4.92-7.4 4.92-11.89 0-4.5-1.75-8.72-4.92-11.9l-15.76-15.76h50.438v293.848h-346.028v-67.29c0-4.14-3.36-7.5-7.5-7.5-4.15 0-7.5 3.36-7.5 7.5v115.889c0 10.79 8.78 19.57 19.57 19.57h336.888c10.79 0 19.57-8.78 19.57-19.57v-407.367c0-10.79-8.78-19.57-19.57-19.57zm-257.262 15c9.904 16.803 14.24 35.865 13.221 54.49h-27.32c1.52-19.726-5.369-39.768-19.99-54.49zm-141.106 73.34-8.6 22.43c-4.98-.54-9.96-.11-14.83 1.28-20.74 5.93-32.8 27.63-26.87 48.37 5.04 17.66 22.01 29.56 40.31 28.29.37-.03.75.29.87.72l5.02 17.57c.61 2.13.21 4.37-1.1 6.16-1.28 1.75-3.24 2.8-5.38 2.86-31.44 1.01-59.51-20.54-66.74-51.21-3.71-15.78-1.45-32.4 6.38-46.81 13.97-25.7 41.93-38.12 68.52-33.91 1.95.31 3.14 2.38 2.42 4.25zm48.23-93.51c-36.59 4.77-62.91 37.18-60.75 73.47-9.13-.01-18.28 1.52-27 4.55-4.64-51.6 32.39-98.279 84.219-105.049 32.66-4.27 64.3 8.16 85.55 32.2h-45.24c-11.199-4.871-23.819-6.871-36.779-5.171zm8.68 24.74c0-2.52 2.05-4.57 4.57-4.57h20.165c20.862 10.353 32.506 32.061 30.299 54.49h-55.034zm234.599 27.73c.71-.72 1.87-.72 2.58 0l22.2 22.19h-46.98zm66.139 63.56c.71.71.71 1.87 0 2.58l-63.56 63.56c-.44.44-.95.53-1.29.53-.35 0-.85-.09-1.29-.53l-63.56-63.56c-.71-.71-.71-1.87 0-2.58l26.36-26.37h76.98zm45.29 316.078c0 2.52-2.05 4.57-4.57 4.57h-336.888c-2.52 0-4.57-2.05-4.57-4.57v-33.6h346.028z"/></g></svg>