<svg id="Capa_1" enable-background="new 0 0 429.367 429.367" height="512" viewBox="0 0 429.367 429.367" width="512" xmlns="http://www.w3.org/2000/svg"><g><g><path d="m88.636 280.946-14.833-2.23 2.23-14.833 14.833 2.23zm4.462-29.667-14.833-2.23 2.23-14.833 14.833 2.23zm4.461-29.666-14.833-2.23 2.23-14.833 14.833 2.23z"/></g><g><path d="m72.295 174.43h111.674v-15h-124.587l-21.578 143.485c-4.288 28.513 14.299 55.895 42.316 62.336l.829.191 137.399.016.825-.188c28.069-6.414 46.688-33.808 42.388-62.366l-21.607-143.474h-41.271v15h28.361l19.685 130.707c3.098 20.575-10.085 40.318-30.109 45.321l-133.931-.016c-19.982-5.025-33.141-24.757-30.052-45.297z"/><path d="m334.99 27.724c-3.835-3.905-8.041-7.492-12.501-10.662l-8.689 12.227c3.742 2.66 7.271 5.669 10.489 8.946z"/><path d="m421.423 152.06c-13.921-20.379-34.978-34.124-59.292-38.702-.96-.181-1.92-.341-2.88-.491 1.503-6.666 2.281-13.472 2.281-20.335 0-18.742-5.598-36.806-16.189-52.239l-12.367 8.487c8.869 12.924 13.557 28.053 13.557 43.751 0 6.493-.812 12.929-2.416 19.202-8.413.059-16.727 1.265-24.75 3.581 4.019-7.406 7.166-15.522 7.166-22.783-.001-31.722-25.81-57.531-57.533-57.531-29.181 0-53.357 21.84-57.044 50.031h-20.127c3.786-39.243 36.952-70.031 77.171-70.031 11.485 0 22.546 2.463 32.875 7.32l6.383-13.574c-12.341-5.803-25.549-8.746-39.258-8.746-48.509 0-88.416 37.522-92.229 85.066h-86.259c.814-.821 1.604-1.678 2.351-2.59 15.5-18.894 8.505-48.895 8.2-50.162l-1.328-5.514-5.667-.225c-1.141-.046-24.88-.815-41.176 11.672-16.263-11.85-39.267-11.11-40.349-11.067l-5.667.225-1.326 5.514c-.305 1.268-7.301 31.269 8.199 50.163 5.255 6.406 12.985 11.279 22.601 14.318l-30.191 200.755c-3.325 22.105 1.831 44.38 14.515 62.722 11.329 16.381 27.667 28.298 46.456 34.01v34.48h165v-34.447c18.817-5.694 35.183-17.608 46.534-34.003 12.709-18.355 17.873-40.65 14.54-62.779l-32.087-213.072h-33.978c3.54-19.902 20.957-35.066 41.861-35.066 23.452 0 42.531 19.08 42.531 42.531 0 9.772-11.716 26.847-19.502 35.856l-5.399 3.688 28.203 41.287 6.193-4.23c9.362-6.395 20.674-8.759 31.855-6.653 11.179 2.105 20.857 8.42 27.253 17.784l4.23 6.193 41.288-28.202zm-333.998-110.275c.905 7.989 1.207 22.201-6.158 31.178-7.265 8.856-20.778 11.39-28.845 12.104h-.512c-.901-7.997-1.188-22.171 6.163-31.131 7.415-9.04 21.354-11.498 29.352-12.151zm-62.079 31.783c-7.415-9.039-7.102-23.19-6.179-31.161 6.274.527 16.214 2.167 23.771 7.167-5.993 10.412-6.858 22.788-6.387 31.934-4.176-1.787-8.238-4.323-11.205-7.94zm253.026 226.804c5.574 37.014-18.355 72.52-54.572 81.257h-89.117v15h82.447v17.738h-135v-17.738h37.678v-15h-44.243c-36.201-8.734-60.135-44.255-54.573-81.243l30.104-200.175c.628-.037 197.11-.144 197.11-.144zm109.521-134.492c-8.396-9.412-19.609-15.766-32.235-18.144-3.601-.678-7.211-1.013-10.795-1.013-8.982 0-17.794 2.105-25.831 6.19 0 0-11.345-16.607-11.345-16.607 12.655-6.977 27.146-10.225 41.567-9.418l.039-.026c3.349.194 6.709.604 10.062 1.236 17.894 3.369 33.679 12.658 45.156 26.431z"/></g></g></svg>