<svg id="Capa_1" enable-background="new 0 0 497.562 497.562" height="512" viewBox="0 0 497.562 497.562" width="512" xmlns="http://www.w3.org/2000/svg"><g><g><path d="m332.925 295.312h15v15h-15z"/><path d="m154.175 430.073v37.438h37.5v-15h-22.5v-22.438z"/><path d="m238.708 220.5-84.727 30.837 30.838 84.726 84.727-30.837zm-65.501 39.802 56.536-20.576 20.577 56.535-56.536 20.576z"/><path d="m317.539 375.337-84.726-30.838-30.838 84.727 84.726 30.838zm-96.338 44.924 20.577-56.535 56.536 20.576-20.577 56.536z"/><path d="m423.681 104.016-3.174-4.712c-17.99-26.701-47.927-42.643-80.082-42.643s-62.092 15.941-80.082 42.643l-3.175 4.712 16.218 19.109h-83.052l-21.431-47.696 80.814-36.073-110.159-28.8-4.711-10.556-13.697 6.113 4.501 10.084-51.77 101.647 81.324-36.301 18.683 41.582h-50.964v374.438h225v-172.219h-15v157.219h-195v-284.438h15.5v-15h-15.5v-45h42.704l20.219 45h-32.673v15h164.75v82.156h15v-87.001zm-285.973-78.44 66.898 17.49-98.111 43.794zm155.645 61.053 11.546 19.999 12.99-7.5-11.549-20.003c8.314-3.828 17.29-6.26 26.585-7.115v23.088h15v-23.088c9.295.855 18.271 3.287 26.585 7.115l-11.549 20.003 12.99 7.5 11.546-19.999c6.464 4.575 12.295 10.109 17.266 16.496l-64.338 75.811-64.338-75.811c4.97-6.386 10.802-11.92 17.266-16.496zm-96.279 51.496h89.043l38.19 45h-107.014z"/></g></g></svg>