<svg id="Capa_1" enable-background="new 0 0 495.27 495.27" height="512" viewBox="0 0 495.27 495.27" width="512" xmlns="http://www.w3.org/2000/svg"><g><g><path d="m262.572 240.197h15v15h-15z"/></g><g><path d="m218.657 74.941-3.094-17.728c4.724-2.161 8.823-5.525 11.913-9.872 4.639-6.523 6.459-14.464 5.126-22.356-1.333-7.894-5.66-14.795-12.185-19.434-6.524-4.638-14.464-6.459-22.357-5.126s-14.795 5.66-19.433 12.185c-4.639 6.524-6.459 14.464-5.125 22.357 1.333 7.894 5.66 14.795 12.184 19.433 4.521 3.215 9.72 5.071 15.113 5.467l2.631 15.074h-52.904v195.032c0 30.282 16.714 56.717 48.334 76.444 16.528 10.312 32.906 16.198 41.274 18.809v63.851l-57.741 30.189c-10.646 5.565-17.259 16.486-17.259 28.503v7.5h165v-7.5c0-12.017-6.616-22.938-17.265-28.503l-57.735-30.169v-63.871c8.338-2.602 24.63-8.455 41.1-18.7l-7.923-12.736c-17.447 10.853-35.095 16.418-40.676 18.018-12.209-3.505-82.109-26.032-82.109-81.834v-127.897h112.046v-15h-49.815l-6.482-37.136h108.468v37.136h-37.171v15h37.171v127.896c0 12.715-3.612 24.621-10.736 35.388l12.51 8.277c8.776-13.265 13.227-27.956 13.227-43.665v-195.032zm-30.365-42.471c-.666-3.942.244-7.909 2.56-11.168 2.317-3.258 5.764-5.419 9.707-6.085.843-.143 1.687-.213 2.525-.213 3.081 0 6.08.951 8.642 2.772 3.259 2.317 5.42 5.765 6.085 9.707.666 3.942-.244 7.908-2.56 11.167-2.317 3.258-5.764 5.419-9.707 6.085s-7.908-.244-11.167-2.56c-3.257-2.316-5.419-5.763-6.085-9.705zm125.126 447.8h-131.568c1.574-3.247 4.164-5.969 7.494-7.71l58.272-30.467 58.307 30.469c3.33 1.74 5.921 4.461 7.495 7.708zm-100.888-353.193h-47.004v-37.136h40.522z"/><path d="m321.114 326.624-10.861-10.346c-3.077 3.23-6.55 6.384-10.325 9.372l9.312 11.76c4.321-3.422 8.316-7.051 11.874-10.786z"/><path d="m197.062 215.851c-6.146 9.631-9.396 20.806-9.396 32.315 0 20.862 15.648 41.545 22.376 49.469 10.467 12.327 25.855 25.5 37.655 25.5 11.686 0 27.062-13.169 37.554-25.492 6.758-7.938 22.477-28.648 22.477-49.477 0-25.434-15.907-47.209-38.288-55.939 5.416-2.409 12.864-4.061 23.132-4.061v-15c-15.81 0-28.382 3.425-37.5 10.168v-17.7h-15v17.62c-15.038-9.932-36.253-10.089-37.492-10.089-.007 0-.013 0-.019 0l.021 15c4.311-.015 14.205.874 22.73 4.254-3.783 1.548-7.805 3.636-11.883 6.451-1.675 1.155-3.312 2.415-4.864 3.744l9.75 11.398c1.162-.993 2.385-1.936 3.635-2.798 6.335-4.372 12.351-6.413 16.901-7.357.82 2.009 1.227 4.22 1.221 6.668v.076.031l15 .035c.017-.75.197-3.398 1.658-6.624 20.516 4.194 35.999 22.383 35.999 44.12 0 10.993-7.064 25.854-18.898 39.752-12.164 14.287-23.023 20.217-26.133 20.217-3.799 0-15.024-7.022-26.22-20.209-11.779-13.872-18.811-28.736-18.811-39.76 0-8.646 2.435-17.029 7.04-24.245z"/><path d="m232.572 240.197h15v15h-15z"/><path d="m247.572 262.864h15v15h-15z"/></g></g></svg>