<svg id="Capa_1" enable-background="new 0 0 496.779 496.779" height="512" viewBox="0 0 496.779 496.779" width="512" xmlns="http://www.w3.org/2000/svg"><g><g><path d="m202.364 219.336h15v15h-15z"/></g><g><path d="m288.364 181.898h15.125v15h-15.125z"/><path d="m187.364 234.363h15v15h-15z"/><path d="m374.035 136.836h-21.814c2.315-9.753 2.588-20.219.742-30.802-5.335-30.587-39.178-65.8-40.616-67.283l-6.479-6.688-27.479 41.361c-10.842-30.894-41.852-63.034-43.438-64.665l-8.525-8.759-3.949 11.566c-2.619 7.671-13.658 16.503-25.347 25.854-5.535 4.429-11.259 9.008-16.949 14.074l9.975 11.203c5.396-4.804 10.962-9.258 16.346-13.564 9.792-7.834 18.652-14.923 24.48-22.505 14.054 16.112 36.11 45.715 36.11 66.063v24.842l40.765-61.357c9.57 11.141 27.042 33.591 30.329 52.437 1.746 10.01 1.246 19.48-1.484 28.224h-176.877c-1.687-8.088-1.717-17.058-.082-26.747 2.195-13.014 8.77-25.246 20.1-37.395l-10.971-10.23c-13.396 14.365-21.221 29.128-23.92 45.131-1.749 10.371-1.866 20.163-.374 29.241h-23.753l-9.168 77.405c-4.253 35.904 20.359 68.645 56.031 74.536l72.172 11.921-.068 129.403-19.177 10.026 6.949 13.293 18.779-9.818 58.307 30.469c3.331 1.74 5.922 4.462 7.496 7.708h-131.567c1.574-3.246 4.164-5.969 7.494-7.71l25.391-13.275-6.949-13.293-25.391 13.275c-10.646 5.565-17.26 16.486-17.26 28.503v7.5h165v-7.5c0-12.017-6.616-22.938-17.266-28.503l-56.806-29.684.069-130.393 72.234-11.931c35.637-5.886 60.252-38.599 56.039-74.473zm-49.386 137.134-77.285 12.765-77.231-12.756c-27.745-4.583-46.888-30.047-43.579-57.974l2.263-19.106h144.548v-15h-142.772l3.56-30.062h14.382 198.416 13.742l3.531 30.062h-46.11v15h47.872l2.249 19.147c3.278 27.902-15.867 53.345-43.586 57.924z"/><path d="m115.649 39.354h15v15h-15z"/><path d="m265.587 1.886h15v15h-15z"/><path d="m370.6 69.663h15v15h-15z"/></g></g></svg>