<svg id="Capa_1" enable-background="new 0 0 494.656 494.656" height="512" viewBox="0 0 494.656 494.656" width="512" xmlns="http://www.w3.org/2000/svg"><g><g><path d="m344.813 217.688h15v14.998h-15z"/><path d="m166.794 367.373-.025 95.283h161l.055-207.719h-34.137l-19.478-53.515-84.727 30.839 8.253 22.676h-30.912l-.026 97.498 15 .004.022-82.502h21.376l17.125 47.051 84.727-30.839-5.901-16.212h13.673l-.047 177.719h-131l.021-80.279zm62.492-69.611-20.577-56.535 56.536-20.577 20.577 56.535z"/><path d="m367.276 135.104-22.344-.031v-41.628l-45.104-29.523v-63.922h-105v63.844l-45.172 29.608.058 41.349-22.313-.031-.021 15 7.447.01-.063 344.875h225l.045-247.218-15-.002-.042 232.22h-195l.06-329.552h195l-.009 52.332 15 .002.009-52.344 7.429.01zm-184.99-45.104 22.885-15h84.192l22.917 15h-35.347v15h53v29.771h-165.219l-.042-29.771h96.927v-15zm27.542-75h75v45h-75z"/><path d="m207.055 329.522-9.265 89.687 89.687 9.264 9.265-89.687zm67.043 82.49-59.846-6.182 6.182-59.847 59.846 6.182z"/></g><g><path d="m246.766 187.438h-15v-15h15zm-30 0h-15v-15h15zm-30 0h-15v-15h15z"/></g></g></svg>