<svg id="Capa_1" enable-background="new 0 0 467.914 467.914" height="512" viewBox="0 0 467.914 467.914" width="512" xmlns="http://www.w3.org/2000/svg"><g><g><path d="m345.805 137.889h15.062v15h-15.062z"/></g><g><path d="m399.928 98.809c-12.962-12.962-33.132-14.433-47.729-4.411-14.598-10.021-34.768-8.55-47.729 4.411-12.962 12.963-14.433 33.133-4.412 47.73-1.418 2.066-2.598 4.247-3.556 6.5h-100.283c2.177-2.913 3.939-6.161 5.218-9.674 3.426-9.413 2.981-19.597-1.252-28.675s-11.749-15.964-21.161-19.39c-6.13-2.231-12.586-2.809-18.852-1.78l-8.129-18.092 80.815-36.074-65.293-17.069-3.794 14.512 23.975 6.269-98.111 43.794 31.212-61.284 27.51 7.192 3.794-14.512-29.453-7.701-4.712-10.555-13.697 6.113 4.501 10.084-51.77 101.647 81.324-36.301 7.784 17.324c-6.987 4.408-12.297 10.956-15.169 18.846-3.426 9.413-2.981 19.597 1.252 28.675 1.108 2.376 2.447 4.598 3.98 6.651h-22.993v257.375c0 31.706 25.794 57.5 57.5 57.5h125c12.299 0 24.032-3.829 33.93-11.074l-8.859-12.104c-7.31 5.35-15.979 8.178-25.07 8.178h-17.66l-34.17-34.17 54.027-54.026 40.304 40.304v5.393c0 9.189-2.884 17.935-8.339 25.29l12.048 8.936c7.387-9.96 11.292-21.795 11.292-34.226v-211.103c6.138 3.932 13.171 5.924 20.213 5.924 9.603 0 19.206-3.655 26.517-10.966 12.962-12.963 14.433-33.133 4.412-47.73 10.017-14.599 8.547-34.769-4.415-47.731zm-254.873 24.035c2.055-5.647 6.187-10.156 11.634-12.696 3.025-1.411 6.253-2.12 9.495-2.12 2.595 0 5.199.455 7.71 1.369 5.647 2.055 10.156 6.187 12.696 11.634 2.54 5.446 2.807 11.557.751 17.204-2.055 5.647-6.187 10.156-11.634 12.696-5.447 2.541-11.557 2.807-17.205.751-5.647-2.055-10.156-6.187-12.696-11.634-2.539-5.446-2.806-11.557-.751-17.204zm193.143 81.696v50l-29.697-29.697 19.717-19.717c1.876.246 6.793-.024 9.98-.586zm-210-9.519 29.947 29.947-29.947 29.772zm0 108.054v-27.185l40.553-40.316 53.903 53.902-54.027 54.027zm29.822 51.035-29.822 29.822v-59.644zm21.369-129.112 54.185-53.868 53.713 53.713-54.027 54.027zm118.506 10.452 40.304 40.303v27.447l-40.304 40.304-54.027-54.027zm14.132-35.346s-14.132 14.132-14.132 14.132l-46.197-46.197h41.766c-.258.013.667 6.018.859 7.249.621 3.981 5.875 15.85 17.704 24.816zm-96.618-32.065-46.626 46.353-40.585-40.585v-5.768zm-87.211 242.375v-5.268l40.429-40.429 54.027 54.026-34.17 34.17h-17.785c-23.435.001-42.501-19.064-42.501-42.499zm128.626 42.5h-47.127l23.563-23.563zm-23.563-44.777-54.027-54.026 54.027-54.027 54.027 54.027zm75.24-54.027 29.697-29.697v59.394zm80.82-202.267c8.773 8.772 8.773 23.047 0 31.819-8.772 8.773-23.047 8.773-31.82 0l-5.303-5.303s-5.302 5.302-5.303 5.303c-14.481 14.479-40.309 2.339-38.286-18.148.508-5.144 2.811-10.016 6.466-13.671l5.303-5.304-5.303-5.304c-8.773-8.772-8.773-23.047 0-31.819 8.772-8.772 23.047-8.774 31.82 0l5.303 5.303 5.303-5.303c8.772-8.774 23.047-8.772 31.82 0s8.773 23.047 0 31.819l-5.303 5.304z"/><path d="m225.698 217.477h15v15h-15z"/><path d="m161.323 281.727h15v15h-15z"/><path d="m290.485 281.727h15v15h-15z"/><path d="m225.698 346.477h15v15h-15z"/></g></g></svg>