<svg id="Capa_1" enable-background="new 0 0 487.364 487.364" height="512" viewBox="0 0 487.364 487.364" width="512" xmlns="http://www.w3.org/2000/svg"><g><g><path d="m354.618 149.234h15.5v15h-15.5z"/></g><g><g><path d="" stroke="rgb(0,0,0)" stroke-miterlimit="10" stroke-width="15"/></g><g><path d="m318.387 96.488c6.656-7.31 17.588-9.562 26.75-4.942l6.754-13.394c-7.483-3.774-15.68-4.798-23.4-3.429l7.43-14.732c6.002-10.157 18.92-13.951 29.48-8.625l6.754-13.394c-7.484-3.774-15.68-4.799-23.4-3.429l14.015-27.788-13.393-6.755-14.015 27.789c-3.488-7.022-9.185-13.004-16.669-16.777l-6.754 13.394c10.56 5.325 15.191 17.973 10.586 28.839l-7.427 14.725c-3.488-7.022-9.185-13.004-16.668-16.778l-6.754 13.393c10.557 5.325 15.187 17.968 10.588 28.833l-1.552 3.077-125.334.04.004 15 117.764-.038-9.119 18.081c-3.488-7.022-9.185-13.003-16.668-16.777l-6.754 13.393c10.557 5.325 15.187 17.968 10.588 28.832l-6.727 13.339 13.393 6.755 6.725-13.334c6.001-10.161 18.921-13.956 29.482-8.63l6.754-13.394c-7.483-3.774-15.68-4.799-23.4-3.429l12.528-24.841 97.519-.031-11.077 360.903h-236.119v15h250.666l11.998-390.909z"/><path d="m145.381 96.542h15.125v15h-15.125z"/><path d="m79.956 111.565 50.552-.016-.004-15-66.075.021 13.526 390.794h67.926v-15h-53.435z"/><path d="m339.118 164.234h15.5v15h-15.5z"/><path d="m178.637 306.785c21.622 22.11 50.359 34.287 80.919 34.287 30.442 0 59.038-12.098 80.52-34.065l5.128-5.244-161.422-165.068-5.362 5.483c-20.208 20.665-31.177 47.26-32.923 74.389h-44.895l7.807 225h11.044l2.248-3.063c6.758-9.21 20.835-17.602 39.637-23.631 22.29-7.147 50.993-10.925 83.007-10.925 81.367 0 113.278 24.651 123.222 35.25l2.24 2.369h10.521l6.905-225h-91.852v15h76.385l-5.728 186.613c-26.423-18.727-69.544-29.232-121.694-29.232-53.955 0-97.578 10.264-121.795 28.052l-6.42-185.433h29.345c1.665 27.389 12.717 54.309 33.163 75.218zm5.504-16.293c-11.781-14.052-19.221-30.615-22.294-47.837l76.464-9.288zm64.486-46.204-7.406 80.054c-17.219-3.279-33.234-11.164-46.634-23.066zm10.929 81.784c-1.145 0-2.286-.027-3.425-.066l7.934-85.76 59.974 61.329c-17.912 15.848-40.545 24.497-64.483 24.497zm-75.57-167.715 58.124 59.437-81.837 9.941c-.815-24.671 7.081-49.566 23.713-69.378z"/></g></g><g><path d="m287.881 449.426h-15v-15h15zm-30 0h-15v-15h15zm-30 0h-15v-15h15z"/></g></g></svg>