<svg id="Capa_1" enable-background="new 0 0 494.875 494.875" height="512" viewBox="0 0 494.875 494.875" width="512" xmlns="http://www.w3.org/2000/svg"><g><g><path d="m344.938 322.437h15v15h-15z"/><path d="m342.874 165.177c-11.003-13.708-26.514-23.35-43.676-27.152l-7.261-1.608v-76.48h15.5v-15h-7.5v-44.937h-105v44.937h-7.375v15h15.375v76.479l-7.261 1.608c-17.162 3.801-32.673 13.444-43.676 27.151-11.003 13.708-17.063 30.937-17.063 48.515v281.184h225v-142.437h-15v127.438h-195v-266.184c0-14.176 4.887-28.07 13.761-39.125s21.383-18.831 35.223-21.896l19.017-4.212v-43.458h59v29.937h-32.5v15h39.179l12.338 2.733c13.84 3.065 26.349 10.842 35.223 21.896s13.761 24.949 13.761 39.125v93.746h15v-93.746c-.001-17.577-6.062-34.807-17.065-48.514zm-132.936-150.177h75v29.937h-75zm8 75v-30.063h59v30.063z"/><path d="m247.5 281.203c-19.407 0-35.851-15.128-37.435-34.44l-14.95 1.227c2.218 27.036 25.229 48.214 52.385 48.214 28.983 0 52.562-23.58 52.562-52.562s-23.58-52.562-52.562-52.562c-24.034 0-44.975 16.243-50.925 39.5l14.532 3.718c4.25-16.614 19.216-28.218 36.393-28.218 20.712 0 37.562 16.851 37.562 37.562s-16.85 37.561-37.562 37.561z"/><path d="m187.562 318.672h119.875v15h-119.875z"/><path d="m202.438 348.672h90v15h-90z"/></g><g><path d="m195.062 464.041h-15v-15h15zm0-30h-15v-15h15zm0-30h-15v-15h15z"/></g></g></svg>