<svg id="Capa_1" enable-background="new 0 0 495.42 495.42" height="512" viewBox="0 0 495.42 495.42" width="512" xmlns="http://www.w3.org/2000/svg"><g><g><path d="m186.377 329.409c-5.039-2.314-9.835-5.216-14.254-8.623l9.158-11.879c3.524 2.716 7.345 5.028 11.357 6.871zm-26.215-20.187c-3.555-4.298-6.618-8.991-9.105-13.951l13.408-6.725c1.98 3.949 4.422 7.689 7.256 11.117zm-14.823-29.64c-1.163-4.894-1.808-9.927-1.917-14.959-.012-.548-.019-1.095-.019-1.641h15c0 .437.005.876.015 1.314.087 3.976.596 7.951 1.515 11.816z"/></g><g><path d="m341.374 47.695-4.712-3.175-78.66 66.756c-4.031-17.349-18.049-31.515-36.668-34.798-5.631-.993-11.205-.897-16.514.119l-6.271-16.469 63.266-23.027-2.565-7.048c-4.996-13.726-17.324-23.622-34.713-27.865-16.299-3.979-35.357-2.499-53.661 4.162-18.304 6.662-33.853 17.779-43.782 31.304-10.594 14.429-13.677 29.934-8.681 43.66l2.565 7.048 63.475-23.103 6.295 16.532c-11.439 6.52-20.009 17.886-22.468 31.835-.385 2.184-.599 4.358-.668 6.513h-55.026l20.828 31.525c9.801 14.833 9.21 34.497-1.47 48.931-13.932 18.829-21.025 41.21-20.514 64.723.592 27.2 11.639 52.814 31.106 72.124 18.027 17.881 41.404 28.495 66.368 30.268v71.524l-74.862 56.186h164.887l-47.146-35.312-8.992 12.006 11.09 8.306h-74.863l37.393-28.063 14.388 10.775 8.992-12.006-15.885-11.897v-71.51c24.963-1.746 48.208-12.204 66.225-29.972 20.168-19.89 31.275-46.441 31.275-74.765 0-22.563-7.052-44.066-20.392-62.186-5.895-8.007-8.816-17.656-8.51-27.241l44.159 37.477 4.712-3.175c26.701-17.988 42.643-47.925 42.643-80.081-.002-32.155-15.943-62.091-42.644-80.081zm-202.191-1.164c8.195-11.161 21.272-20.426 36.822-26.085 9.938-3.617 20.047-5.457 29.562-5.457 5.372 0 10.557.587 15.411 1.771 9.039 2.206 16.059 6.297 20.44 11.801l-110.308 40.15c-.18-7.033 2.567-14.68 8.073-22.18zm43.868 69.702c2.632-14.924 15.657-25.453 30.315-25.453 1.769 0 3.562.153 5.362.471 16.139 2.846 27.135 17.849 25.236 33.924l-.277 1.867c-3.002 16.661-18.975 27.806-35.655 24.869-16.724-2.95-27.93-18.955-24.981-35.678zm95.818 71.312h-32.317v15h37.899c1.319 2.465 2.799 4.86 4.481 7.145 11.431 15.524 17.472 33.953 17.472 53.293 0 24.277-9.521 47.036-26.808 64.084-17.283 17.045-40.2 26.223-64.478 25.907-23.301-.324-45.326-9.622-62.02-26.181s-26.167-38.507-26.674-61.801c-.438-20.159 5.639-39.342 17.576-55.475 1.655-2.236 3.121-4.57 4.416-6.973h83.135v-15h-77.557c3.301-14.951.65-30.955-8.067-44.149l-5.455-8.256h29.182c4.942 15.842 18.334 28.467 35.772 31.542 2.68.473 5.344.7 7.976.7 17.644 0 33.698-10.266 41.25-25.948l24.297 20.62c-1.942 8.409-1.941 17.124-.08 25.492zm58.684 4.569-75.811-64.338 75.811-64.338c6.386 4.97 11.92 10.802 16.496 17.266l-19.999 11.546 7.5 12.99 20.003-11.549c3.828 8.313 6.26 17.29 7.115 26.585h-23.088v15h23.088c-.855 9.295-3.287 18.271-7.114 26.585l-20.003-11.549-7.5 12.99 19.999 11.546c-4.577 6.465-10.111 12.296-16.497 17.266z"/><path d="m201.053 112.214h15.352v15h-15.352z"/></g></g></svg>