<svg id="Capa_1" enable-background="new 0 0 488.829 488.829" height="512" viewBox="0 0 488.829 488.829" width="512" xmlns="http://www.w3.org/2000/svg"><g><g><path d="m115.752 286.981-.62-14.987 14.987-.62.62 14.987zm-1.24-29.975-.621-14.987 14.987-.62.621 14.987zm-1.241-29.974-.62-14.987 14.987-.62.62 14.987z"/></g><g><path d="m384.561 59.886c-36.846-36.846-96.719-36.925-133.468-.177l-5.303 5.303 49.379 49.379h-107.745l-20.667-114.391-14.761 2.667 20.185 111.724h-27.783v15h30.493l8.102 44.844h-88.922l-1.856-44.844h37.058v-15h-52.691l15.496 374.438h224.39l14.147-338.993 48.82 48.82 5.304-5.303c36.747-36.749 36.667-96.622-.178-133.467zm-57.112 47.956 6.287-59c12.468 2.557 24.445 8.106 34.755 16.675zm51.639-31.704c8.482 10.268 13.975 22.178 16.516 34.571l-55.806 5.947zm-60.264-28.92-6.704 62.911-44.867-44.867c14.88-12.308 33.254-18.31 51.571-18.044zm-128.69 82.173h126.32l-1.871 44.844h-116.347zm123.823 59.844-5.631 134.938h-59.052v15h58.426l-5.177 124.054c-16.009-14.158-47.519-34.054-98.187-34.054-16.384 0-32.057 2.131-46.584 6.334l4.169 14.409c13.171-3.811 27.442-5.744 42.415-5.744 28.869 0 54.251 6.958 75.442 20.683 4.742 3.071 8.727 6.155 11.991 8.974h-174.988c6.958-5.987 17.242-13.204 31.236-19.033l-5.768-13.847c-16.269 6.776-28.187 15.298-36.215 22.365l-5.137-124.142h103.439v-15h-104.06l-5.584-134.938h219.265zm65.227-12.043-44.866-44.867 62.911-6.704c.265 18.318-5.737 36.692-18.045 51.571z"/><path d="m219.211 324.172h15v15h-15z"/></g></g></svg>