<svg id="Capa_1" enable-background="new 0 0 493.945 493.945" height="512" viewBox="0 0 493.945 493.945" width="512" xmlns="http://www.w3.org/2000/svg"><g><path d="m242.238 359.221c5.475 3.23 11.367 4.869 17.514 4.869 21.96 0 39.826-21.283 39.826-47.444 0-9.474-2.332-18.62-6.744-26.45l-13.068 7.363c3.148 5.588 4.812 12.188 4.812 19.087 0 17.89-11.137 32.444-24.826 32.444-1.511 0-3-.193-4.464-.555v-63.779c1.464-.362 2.953-.555 4.464-.555 3.875 0 7.598 1.162 11.063 3.453l8.273-12.512c-5.879-3.887-12.565-5.941-19.337-5.941-6.146 0-12.038 1.638-17.514 4.869-11.978 7.067-25.678 10.803-39.619 10.803s-27.642-3.735-39.617-10.803c-5.477-3.23-11.37-4.869-17.516-4.869-21.96 0-39.826 21.283-39.826 47.444s17.866 47.444 39.826 47.444c6.146 0 12.039-1.639 17.515-4.869 11.978-7.067 25.678-10.803 39.618-10.803s27.642 3.736 39.62 10.804zm-77.419-67.382c9.577 4.258 19.826 6.872 30.3 7.719v34.176c-10.544.853-20.86 3.495-30.493 7.805zm45.3 7.719c10.427-.843 20.629-3.437 30.169-7.661v49.498c-9.54-4.224-19.743-6.818-30.169-7.661zm-89.459 17.088c0-17.89 11.137-32.444 24.826-32.444 1.475 0 2.93.184 4.36.53l-.248 63.89c-1.35.307-2.722.469-4.112.469-13.689-.001-24.826-14.556-24.826-32.445z"/><path d="m262.369 196.381h15v15h-15z"/><path d="m127.869 196.381h15v15h-15z"/><path d="m314.078 49.493h15v30h-15z"/><path d="m274.978 72.646h15v30h-15z" transform="matrix(.5 -.866 .866 .5 65.335 288.455)"/><path d="m346.178 79.279h30.001v15h-30.001z" transform="matrix(.866 -.5 .5 .866 5 192.217)"/><path d="m384.618 59.893 11.436-9.707c-3.405-4.011-7.163-7.771-11.168-11.177l-9.717 11.428c3.389 2.88 6.568 6.062 9.449 9.456z"/><path d="m413.461 80.358c-2.05-5.764-4.65-11.332-7.755-16.602l-12.924 7.615c6.574 11.157 10.407 23.863 11.157 36.788.228 3.921.174 7.859-.156 11.773l-54.197-.001c-2.5-13.518-14.447-23.344-28.077-23.191-13.398.151-24.984 9.906-27.438 23.192-17.912 0-35.825-.001-53.737-.001-.898-11.975.663-24.051 4.818-35.33 3.881-10.533 9.923-20.247 17.68-28.362 7.54-7.887 16.664-14.25 26.677-18.585 11.07-4.793 23.175-7.069 35.228-6.68 12.256.396 24.389 3.559 35.262 9.233 1.354.707 2.688 1.452 4 2.234l7.68-12.885c-10.567-6.298-22.333-10.534-34.484-12.444-12.111-1.904-24.575-1.5-36.535 1.198-11.411 2.575-22.303 7.243-32.063 13.687-9.234 6.097-17.403 13.804-24.041 22.654-6.837 9.115-12.048 19.432-15.338 30.341-.407 1.351-.786 2.711-1.134 4.078h-59.112l-33.847-89.07-14.021 5.328 31.822 83.742h-78.057v404.875h255v-377.644c3.68 2.666 5.696 6.895 5.709 11.403.007 2.409 0 4.819 0 7.228h81.207c1.25-7.665 2.373-15.27 2.287-23.068-.118-10.719-2.019-21.406-5.611-31.506zm-105.383 54.573c0-2.479-.028-4.961 0-7.44.056-4.882 2.563-9.403 6.791-11.899v46.675c-8.109-2.503-20.3-5.552-34.425-6.742-3.584-.302-7.108-.459-10.575-.489v-20.105zm-218.209 285.816v-57.345c10.738 15.674 26.723 26.697 45.031 29.799v28.93c-18.416-2.432-35.573-1.97-45.031-1.384zm103.863-230.702c-1.927 4.833-5.879 13.261-12.698 21.857-13.661 17.222-31.968 27.094-54.412 29.342-7.024.702-12.844-1.146-17.825-5.647-13.727-12.404-17.979-42.134-18.778-57.568 6.765-2.332 20.167-6.307 36.013-7.591 27.772-2.255 50.515 4.342 67.7 19.607zm1.137 28.452v15.384h15v-15.468c.562.762 1.137 1.526 1.737 2.293 5.838 7.46 14.172 15.853 25.538 22.662-3.494 1.321-6.894 2.943-10.152 4.866-15.034 8.871-33.714 8.872-48.746-.001-3.343-1.972-6.834-3.626-10.424-4.965 11.281-6.791 19.562-15.139 25.372-22.562.578-.74 1.132-1.475 1.675-2.209zm83.9-48.059c15.846 1.284 29.248 5.259 36.013 7.591-.799 15.435-5.052 45.164-18.778 57.568-4.981 4.503-10.811 6.353-17.825 5.647-2.43-.243-4.803-.594-7.135-1.016-.395-.072-.789-.142-1.186-.206-18.681-3.645-34.158-13.078-46.09-28.12-6.822-8.601-10.774-17.03-12.699-21.857 17.182-15.264 39.93-21.861 67.7-19.607zm-180.05 76.27c2.498 2.26 5.156 4.118 7.962 5.589-6.444 4.796-12.126 10.751-16.812 17.592v-33.996c2.63 4.238 5.579 7.855 8.85 10.815zm46.767 132.382c-30.231 0-54.826-28.013-54.826-62.444s24.595-62.444 54.826-62.444c8.862 0 17.32 2.339 25.137 6.95 19.734 11.646 44.254 11.645 63.992.001 7.816-4.612 16.274-6.951 25.137-6.951 2.619 0 5.192.224 7.715.63.464.089.938.167 1.407.25 25.903 4.964 45.704 30.673 45.704 61.564 0 34.432-24.595 62.444-54.826 62.444-8.864 0-17.321-2.339-25.137-6.95-9.868-5.823-20.933-8.734-31.996-8.734-11.064 0-22.129 2.911-31.996 8.734-7.816 4.611-16.273 6.95-25.137 6.95zm124.852 14.111c18.03-3.054 33.799-13.798 44.531-29.093v57.273c-16.486.257-31.34 1.405-44.531 3.439zm28.031-141.037c2.713-1.45 5.289-3.263 7.712-5.456 3.245-2.936 6.174-6.517 8.788-10.711v33.186c-4.636-6.606-10.205-12.366-16.5-17.019zm-72.582-126.888c.389 3.231.967 6.442 1.483 9.655h27.599v20.857c-20.323 2.28-38.102 9.686-52.469 21.935-14.374-12.257-32.164-19.665-52.5-21.94v-51.713h75.581c-.643 7.041-.54 14.187.306 21.206zm-90.887-21.206v50.964c-3.457.031-6.97.188-10.544.49-14.161 1.193-26.378 4.255-34.487 6.762v-58.216zm-45.031 331.726c12.534-.803 42.812-1.613 67.814 6.65l4.707-14.242c-4.089-1.351-8.278-2.482-12.49-3.429v-30.842c9.907-.697 19.625-3.728 28.346-8.875 15.032-8.87 33.71-8.872 48.746 0 8.72 5.146 18.439 8.177 28.346 8.875v33.75c-24.382 5.633-41.728 14.988-51.804 28.019-.418.541-.823 1.089-1.215 1.643-5.309-9.03-13.374-16.572-24.033-22.361l-7.158 13.182c13.527 7.347 21.151 17.468 23.167 30.781h-36.926v-20.064h-15v20.064h-15v-20.064h-15v20.064h-22.5zm202.625 43.149v-20.127h-15v20.127h-15.333v-20.127h-15v20.127h-37.688c.398-3.661 1.804-8.736 5.927-14.068 9.72-12.57 34.91-27.468 99.469-28.5v42.568z"/></g></svg>