<svg id="Capa_1" enable-background="new 0 0 494.925 494.925" height="512" viewBox="0 0 494.925 494.925" width="512" xmlns="http://www.w3.org/2000/svg"><g><g><path d="m146.811 180.044h15.125v15h-15.125z"/><path d="m408.505 58.917c-1.457-4.004-6.203-10.745-21.611-10.895-8.954-.095-19.855 2.043-30.72 5.997-6.256 2.277-12.131 5.029-17.29 8.063.054-6.188-.537-12.707-1.646-18.997-3.974-22.529-15.171-45.561-30.407-42.871-15.224 2.685-17.882 28.156-13.909 50.686 3.025 17.155 10.249 34.588 20.243 40.749l-11.18 19.364c-.23-1.827-.5-3.649-.818-5.451-2.007-11.386-5.617-21.899-10.165-29.602-7.834-13.271-16.043-14.007-20.241-13.27-15.224 2.685-17.882 28.156-13.909 50.686 1.379 7.823 3.515 15.234 6.192 21.605h-167.772l-9.167 77.405c-4.253 35.904 20.359 68.645 56.031 74.537l72.172 11.92-.069 129.403-19.177 10.026 6.95 13.293 18.78-9.819 58.306 30.469c3.33 1.741 5.922 4.463 7.496 7.708h-131.568c1.574-3.247 4.164-5.969 7.494-7.71l25.391-13.275-6.95-13.293-25.391 13.275c-10.646 5.566-17.259 16.487-17.259 28.503v7.5h165v-7.5c0-12.016-6.616-22.938-17.266-28.502l-56.807-29.686.07-130.392 72.233-11.931c14.935-2.467 28.759-9.984 38.927-21.168l-11.1-10.09c-8.02 8.821-18.486 14.512-30.271 16.458l-77.285 12.766-77.231-12.756c-27.745-4.583-46.888-30.047-43.58-57.973l2.263-19.107h28.548v-15h-26.772l3.561-30.062h163.553c1.696 1.813 3.363 3.144 4.959 4.112l-14.983 25.95h-85.568v15h76.908l-12.908 22.358 12.99 7.5 17.237-29.855h69.644l2.249 19.148c1.26 10.725-.762 21.408-5.848 30.895l13.221 7.087c6.542-12.205 9.145-25.944 7.525-39.732l-7.098-60.434c14.955-8.24 25.971-19.574 21.953-30.616-5.288-14.527-30.833-12.72-52.331-4.897-1.719.626-3.432 1.303-5.129 2.017l11.194-19.388c3.275 1.796 7.963 3.113 14.677 3.178.177.002.352.002.529.002 8.845 0 19.54-2.123 30.19-6 10.864-3.955 20.59-9.335 27.387-15.152 11.709-10.018 11.011-18.232 9.553-22.236zm-100.812-10.621c-3.265-18.52-.342-30.115 1.799-32.994 2.996 1.973 9.708 11.869 12.975 30.389 2.896 16.431.922 27.396-1.054 31.674l-.757 1.31c-3.002-1.99-9.701-11.883-12.963-30.379zm-36.07 62.476c-3.265-18.52-.343-30.115 1.799-32.993 2.996 1.973 9.708 11.869 12.974 30.388 2.897 16.435.922 27.401-1.056 31.677l-.755 1.308c-3.002-1.99-9.701-11.883-12.962-30.38zm67.048 69.272h-59.221l10.633-18.416c4.025 2.171 9.316 3.128 15.251 3.128 9.301 0 20.169-2.336 30.162-5.973.217-.079.433-.163.65-.244zm-13.436-49.452c17.67-6.432 29.598-5.566 32.804-3.958-1.422 3.293-10.003 11.622-27.674 18.054-17.65 6.424-29.567 5.568-32.79 3.964l.758-1.313c2.719-3.853 11.227-11.042 26.902-16.747zm41.2-48.382c-17.649 6.424-29.565 5.57-32.789 3.964l.758-1.313c2.718-3.852 11.228-11.042 26.901-16.746 17.675-6.433 29.6-5.566 32.804-3.958-1.422 3.293-10.003 11.622-27.674 18.053z"/><path d="m161.811 232.509h15v15h-15z"/></g><g><path d="m176.811 217.482h15v15h-15z"/></g></g></svg>