<svg id="Capa_1" enable-background="new 0 0 492.615 492.615" height="512" viewBox="0 0 492.615 492.615" width="512" xmlns="http://www.w3.org/2000/svg"><g><g><path d="m266.201 179.409h15.5v15h-15.5z"/></g><g><path d="m107.982 200.903h14.966v15h-14.966z" transform="matrix(.048 -.999 .999 .048 -98.231 313.749)"/><path d="m374.453 40.899c-.224 1.459-.596 2.911-1.107 4.315-4.243 11.658-17.183 17.689-28.838 13.448-5.648-2.056-10.157-6.188-12.697-11.635-2.54-5.446-2.807-11.557-.751-17.204 2.055-5.647 6.187-10.157 11.634-12.696 5.447-2.541 11.556-2.807 17.205-.751 6.197 2.256 11.077 7.097 13.388 13.283l14.052-5.25c-3.849-10.304-11.981-18.369-22.309-22.129-9.413-3.425-19.596-2.981-28.674 1.252-9.078 4.232-15.964 11.748-19.39 21.16-1.541 4.234-2.268 8.57-2.263 12.835-35.74-19.166-81.245-13.757-111.294 16.292l-5.303 5.304 25.814 25.817h-46.224l-18.97-80.746-14.603 3.43 18.164 77.316h-48.413l-4.82 100.549 14.982.719 1.133-23.627h171.555l6.671 140.32c1.214 25.535-7.833 49.786-25.475 68.287s-41.437 28.689-67.001 28.689c-25.571 0-49.37-10.193-67.013-28.703-17.644-18.509-26.686-42.77-25.461-68.311l3.428-71.52-14.982-.719-3.428 71.52c-1.423 29.681 9.084 57.871 29.586 79.379 18.763 19.684 43.518 31.267 70.357 33.092l-.042 21.807-74.869 56.192h164.887l-75.018-56.185.042-21.812c26.843-1.818 51.603-13.398 70.37-33.078 20.5-21.498 31.014-49.679 29.603-79.352l-6.129-128.917 19.496 19.496 5.303-5.303c30.379-30.38 35.563-76.551 15.641-112.464 15.124-.215 29.277-9.621 34.75-24.656.847-2.329 1.466-4.742 1.839-7.173zm-200.983 436.716 37.393-28.063 37.47 28.063zm124.151-392.675h-16.045l4.474-41.987c12.523 2.568 24.549 8.158 34.889 16.792zm10.919 10.286 22.978-24.828c8.413 10.234 13.868 22.089 16.398 34.423l-38.724 4.126zm-88.974-35.852c14.88-12.309 33.254-18.311 51.572-18.046l-4.648 43.612h-21.358zm-91.393 40.566h37.639l11.192 47.641h-51.115zm64.239 47.641-11.192-47.641h112.527l2.265 47.641zm139.085 23.723-20.305-20.306-1.286-27.042 39.635-4.223c.266 18.318-5.736 36.691-18.044 51.571z"/><path d="m140.353 214.559 30.838 84.727 9.601-3.495-9.279 52.624 88.794 15.656 6.059-34.36-14.772-2.605-3.454 19.589-59.25-10.447 8.178-46.381 24.559-8.939 36.959 6.517-4.349 24.661 14.772 2.605 6.953-39.435-26.145-4.61 6.099-2.22-30.838-84.727zm79.92 50.899-40.118 14.602-20.577-56.535 56.536-20.577 20.577 56.535z"/><path d="m250.701 194.409h15.5v15h-15.5z"/></g></g></svg>