<svg id="Capa_1" enable-background="new 0 0 474.099 474.099" height="512" viewBox="0 0 474.099 474.099" width="512" xmlns="http://www.w3.org/2000/svg"><g><path d="m165.819 271.862v-14.294-.706h-15v.706 14.294.799h15z"/><path d="m360.819 459.099h-195v-171.5h-15v186.5h225v-127.282h-15z"/><path d="m196.103 322.818c-22.745 39.396-9.199 89.952 30.197 112.697 12.96 7.482 27.123 11.036 41.111 11.036 28.532 0 56.323-14.798 71.586-41.233l3.75-6.495-142.895-82.5zm5.919 57.251 50.348-6.573-25.602 44.344c-12.666-9.593-21.153-23.069-24.746-37.771zm37.626 45.463 25.854-44.781 20.837 48.099c-15.068 4.368-31.622 3.536-46.691-3.318zm60.551-2.422-18.215-42.048 39.914 23.044c-5.904 8.028-13.361 14.412-21.699 19.004zm-94.498-86.089 38.766 22.381-44.376 5.793c-.175-9.478 1.627-19.085 5.61-28.174z"/><path d="m188.699 279.338c11.018 19.084 28.809 32.735 50.094 38.439 7.108 1.904 14.321 2.847 21.487 2.847 14.295 0 28.404-3.75 41.116-11.089 39.396-22.745 52.942-73.301 30.197-112.697l-3.75-6.495-142.895 82.5zm53.977 23.95c-.448-.12-.888-.258-1.332-.387l20.85-48.129 25.855 44.784c-14.211 6.481-30.09 7.828-45.373 3.732zm58.251-11.427-25.602-44.344 50.348 6.573c-3.593 14.701-12.079 28.178-24.746 37.771zm26.678-52.646-44.376-5.794 38.766-22.381c3.983 9.09 5.785 18.697 5.61 28.175zm-81.893 15.867-18.234 42.091c-8.499-4.679-15.881-11.137-21.684-19.044z"/><path d="m320.242 99.661 35.846-94.333-14.021-5.328-37.871 99.661h-88.343c3.726-11.925 3.058-24.653-1.341-36.308-3.801-10.071-10.349-19.033-18.753-25.755-4.737-3.789-10.045-6.859-15.697-9.063 5.416-2.409 12.865-4.061 23.132-4.061v-15c-15.81 0-28.382 3.425-37.5 10.168v-17.7h-15v17.62c-9.951-6.572-22.389-9.268-34.159-9.97-1.115-.067-2.234-.119-3.352-.119l.021 15c4.27.001 14.179.884 22.718 4.258-3.779 1.547-7.797 3.634-11.87 6.446-16.384 11.309-26.482 30.93-25.734 50.893.392 10.47 4.414 20.56 9.517 29.582 3.997 7.067 8.786 13.707 14.14 19.808 4.2 4.787 8.755 9.294 13.708 13.303 4.571 3.701 9.583 7.142 15.137 9.182v84.716h15v-68h195v157.219h15v-232.219zm-165.26 43.846c-1.867-.827-3.625-1.902-5.314-3.043-5.072-3.423-9.644-7.603-13.831-12.05-1.281-1.361-2.527-2.756-3.737-4.181-5.146-6.06-9.739-12.662-13.266-19.799-2.782-5.627-5.051-11.763-5.479-18.076-.897-13.221 5.107-26.724 14.923-35.462 5.954-5.3 13.384-9.11 21.196-10.73.879 2.154 1.221 4.459 1.221 6.776 5 0 10-.009 15 .035.017-.75.197-3.398 1.658-6.624 10.428 2.132 19.899 8.048 26.453 16.427 6.577 8.408 10.432 19.632 9.416 30.359-.632 6.665-3.213 13.05-6.302 18.928-3.232 6.149-7.233 11.89-11.682 17.218-4.569 5.472-9.641 10.64-15.313 14.976-2.221 1.698-4.547 3.296-7.031 4.587-1.33.691-2.899 1.523-4.435 1.592-1.191.051-2.414-.461-3.477-.933zm10.837 14.418c7.471-2.776 14.026-7.97 19.828-13.317 5.817-5.361 11.084-11.308 15.771-17.677 2.885-3.92 5.551-8.009 7.907-12.27h89.171l-17.1 45h-115.577zm131.623 1.736 17.1-45h46.277v45z"/><path d="m143.194 76.505h15v15h-15z"/><path d="m173.194 76.505h15v15h-15z"/><path d="m158.194 99.172h15v15h-15z"/><path d="m211.851 196.38h15.5v15h-15.5z"/><path d="m196.351 211.38h15.5v15h-15.5z"/></g></svg>