<svg id="Capa_1" enable-background="new 0 0 487.234 487.234" height="512" viewBox="0 0 487.234 487.234" width="512" xmlns="http://www.w3.org/2000/svg"><g><g><path d="m361.926 247.702c0 2.093-.03 4.219-.09 6.318l14.994.428c.064-2.241.096-4.511.096-6.746v-8.527h-15z"/><path d="m329.385 127.297v-127.297h-45v127.297h-87.735c-1.753-8.51-6.473-16.228-13.181-21.667 5.881-2.637 11.56-6.405 15.989-11.804 15.5-18.894 8.505-48.895 8.2-50.162l-1.328-5.514-5.667-.225c-1.141-.046-24.88-.813-41.175 11.672-16.263-11.851-39.267-11.109-40.35-11.068l-5.667.225-1.328 5.514c-.305 1.268-7.3 31.27 8.199 50.162 3.897 4.75 9.161 8.653 15.539 11.596-4.11 3.427-7.496 7.712-9.823 12.607-4.879 10.263-4.85 22.333.116 32.559 4.995 10.285 14.579 17.807 25.75 20.248v11.634 25.731 25.996c0 4.241-.002 8.483 0 12.725.009 16.21 1.695 32.407 5 48.277 3.501 16.81 8.807 33.25 15.843 48.914 3.501 7.794 7.193 15.446 10.184 23.462 3.01 8.066 5.55 16.306 7.61 24.665 4.103 16.649 6.304 33.775 6.477 50.923.063 6.285.011 12.573.011 18.858v24.609h134.875c0-7.134 0-14.268 0-21.401 0-7.396-.063-14.795.011-22.191.194-19.362 2.974-38.695 8.16-57.348 2.577-9.269 5.75-18.374 9.507-27.231 3.699-8.721 7.985-17.154 11.408-25.998 6.973-18.019 11.71-36.889 14.096-56.062.295-2.372.555-4.748.778-7.127l-14.935-1.404c-1.567 16.666-5.014 33.148-10.286 49.036-2.63 7.925-5.71 15.701-9.215 23.279-3.46 7.481-6.863 14.941-9.724 22.679-.401 1.085-.775 2.18-1.161 3.271h-132.185c-1.417-4.004-2.932-7.974-4.564-11.896-3.04-7.309-6.65-14.357-9.698-21.662-6.113-14.65-10.64-29.958-13.515-45.568-2.447-13.29-3.673-26.788-3.676-40.3-.001-4.198 0-8.396 0-12.593 0-7.972 0-15.944 0-23.916 0-2.835 0-5.669 0-8.504h34.959v-15h-34.959c0-.276 0-10.271 0-14.993 0-.223 0-.447 0-.67 14.771-2.822 26.69-14.623 29.725-29.337h87.734v45h-67.374v15h144.916v21.94h15v-96.94h-47.541zm-9.997 284.664c-1.433 9.856-2.138 19.749-2.368 29.68l-25.145.034.021 15 25.03-.033v15.048.545h-104.875c0-5.2 0-10.399 0-15.599l64.83.039.009-15-64.94-.039c-.126-6.033-.398-12.06-.977-18.084-1.359-14.135-3.998-28.144-7.841-41.814h122.671c-2.785 9.923-4.932 20.025-6.415 30.223zm-125.368-358.826c.905 7.988 1.207 22.201-6.158 31.178-7.421 9.046-21.376 11.501-29.371 12.152-.925-7.974-1.243-22.136 6.177-31.18 7.415-9.038 21.354-11.497 29.352-12.15zm-62.079 31.782c-7.415-9.038-7.102-23.19-6.179-31.161 6.273.526 16.214 2.167 23.772 7.167-5.993 10.412-6.859 22.788-6.388 31.934-4.176-1.787-8.238-4.323-11.205-7.94zm34.466 71.408c-10.584 3.241-22.239-2.03-26.898-12.02-4.156-8.911-1.913-19.802 5.445-26.322 6.831-6.053 16.9-7.39 25.068-3.283 7.471 3.756 12.324 11.626 12.374 19.982.058 9.871-6.576 18.761-15.989 21.643zm132.978-141.325h15v112.297h-15zm15 127.297v44.44h-15v-44.44zm15 45v-45h32.541v45z"/><path d="m288.83 342.019 30.838-84.726-84.727-30.837-30.838 84.726zm-44.924-96.337 56.536 20.576-20.577 56.535-56.536-20.576z"/></g><g><g><path d="m321.89 224.237h15.5v15h-15.5z"/></g></g></g></svg>