<svg id="Capa_1" enable-background="new 0 0 495.612 495.612" height="512" viewBox="0 0 495.612 495.612" width="512" xmlns="http://www.w3.org/2000/svg"><g><path d="m346.306 360.875v-307.5h-15v292.5h-167v-285h77v-15h-92v315h91v78.49l-74.943 56.247h164.887l-74.944-56.13v-78.607zm-135.969 119.737 37.393-28.063 37.47 28.063z"/><path d="m181.306 328.875h133v-193h-40.029c-1.517-4.058-3.631-7.988-6.535-11.527-15.498-18.893-46.291-17.901-47.592-17.846l-5.667.225-1.327 5.514c-.178.739-2.625 11.254-1.566 23.635h-30.285v192.999zm45.469-207.165c8 .651 21.952 3.108 29.37 12.151 7.416 9.039 7.103 23.189 6.181 31.16-8.012-.674-22.01-3.156-29.373-12.133-7.422-9.045-7.102-23.211-6.178-31.178zm-30.469 29.165h18.514c1.517 4.058 3.631 7.988 6.535 11.527 13.754 16.766 39.548 17.869 46.094 17.869.83 0 1.353-.018 1.499-.023l5.667-.225 1.328-5.514c.178-.739 2.624-11.254 1.564-23.635h21.799v163h-103z"/><path d="m280.612 211.727-5.667-.225c-1.302-.053-32.094-1.047-47.593 17.846-15.499 18.894-8.504 48.895-8.199 50.162l1.328 5.514 5.667.225c.146.006.668.023 1.499.023 6.548 0 32.34-1.104 46.094-17.869 15.499-18.894 8.504-48.895 8.199-50.162zm-18.469 46.162c-7.421 9.046-21.376 11.501-29.37 12.152-.925-7.973-1.243-22.136 6.177-31.18 7.421-9.046 21.376-11.501 29.37-12.152.925 7.973 1.243 22.136-6.177 31.18z"/><path d="m279.306 104.928v8.447h15v-8.447c.783-11.774 10.612-20.979 22.438-20.979v-15c-8.381 0-16.161 2.775-22.438 7.474v-2.583c.783-11.774 10.612-20.979 22.438-20.979v-15c-8.381 0-16.161 2.775-22.438 7.474v-2.583c.783-11.774 10.612-20.979 22.438-20.979v-15c-8.381 0-16.161 2.775-22.438 7.474v-14.247h-15v14.245c-6.276-4.699-14.056-7.474-22.438-7.474v15c11.826 0 21.655 9.205 22.438 20.979v2.583c-6.276-4.699-14.056-7.474-22.438-7.474v15c11.826 0 21.655 9.205 22.438 20.979v2.583c-6.276-4.699-14.056-7.474-22.438-7.474v15c11.827.002 21.655 9.208 22.438 20.981z"/><path d="m197.993 75.875h15.5v15h-15.5z"/><path d="m182.493 90.875h15.5v15h-15.5z"/></g></svg>