<svg id="Capa_1" enable-background="new 0 0 494.937 494.937" height="512" viewBox="0 0 494.937 494.937" width="512" xmlns="http://www.w3.org/2000/svg"><g><g><path d="" stroke="rgb(0,0,0)" stroke-miterlimit="10" stroke-width="15"/></g><g><path d="m284.938 457.937h-14.938v-15h14.938zm-29.938 0h-15v-15h15zm-30 0h-15v-15h15z"/></g><g><path d="m320.549 322.406h15v15h-15z"/><path d="m313.081 163.965-27.787-24.886-.344-139.079h-74.856v139.066l-28.01 24.859c-14.423 12.8-22.695 31.201-22.695 50.485v280.528h176.16v-142.5h-15v22.375h-43.209l-1.991 4.419c-7.215 16.018-17.638 25.581-27.88 25.581-10.243 0-20.665-9.562-27.88-25.581l-1.991-4.419h-43.208v-90h43.234l1.993-4.415c7.214-15.981 17.626-25.523 27.854-25.523 10.227 0 20.64 9.541 27.854 25.523l1.993 4.415h43.234v22.563h15v-93.128c-.003-19.168-8.192-37.496-22.471-50.283zm-43.094-148.965.057 23.062h-22.402v15h22.439l.092 36.938h-45.079v-36.938h7.375v-15h-7.375v-23.062zm-61.948 374.812c9.836 19.137 24.022 30 39.43 30s29.594-10.863 39.43-30h33.65v90.125h-146.16v-90.125zm78.826-120c-9.835-19.097-24.009-29.937-39.396-29.937s-29.561 10.841-39.396 29.937h-33.684v-55.402c0-14.999 6.434-29.311 17.652-39.266l33.053-29.334v-40.81h45.116l.074 29.937h-24.815v15h29.466l28.139 25.201c11.105 9.946 17.475 24.2 17.475 39.108v55.565h-33.684z"/><path d="m203.324 187.858c-7.585 6.732-11.936 16.41-11.936 26.551v18.028h15v-18.027c0-5.856 2.512-11.445 6.893-15.333l10.501-9.319-9.957-11.219z"/></g></g></svg>