<svg id="Capa_1" enable-background="new 0 0 494.875 494.875" height="512" viewBox="0 0 494.875 494.875" width="512" xmlns="http://www.w3.org/2000/svg"><g><g><path d="m358.183 246.729-44.072-37.75c-18.543-15.884-29.184-38.997-29.192-63.413l-.052-145.566h-74.872v67.484h15v-52.484h44.878l.01 29.938h-22.451v15h22.456l.021 60.062h-44.914v-37.562h-15v63.257c0 24.478-10.677 47.633-29.292 63.526l-43.919 37.499c-20.262 17.302-30.109 43.378-26.343 69.755l25.486 178.4h223.01l11.625-81.377-14.85-2.121-9.785 68.498h-196.99l-23.646-165.521c-3.037-21.262 4.901-42.28 21.233-56.226l43.919-37.499c21.958-18.749 34.552-46.062 34.552-74.935v-10.694h44.919l.004 10.571c.011 28.8 12.562 56.063 34.435 74.8l44.072 37.75c16.281 13.945 24.19 34.94 21.159 56.162l-7.434 52.031 14.85 2.121 7.434-52.031c3.76-26.328-6.053-52.375-26.251-69.675z"/><path d="m358.697 382.351h15.335v15h-15.335z" transform="matrix(.141 -.99 .99 .141 -71.374 697.409)"/><path d="m293.293 233.281c-15.12-12.951-26.69-29.666-33.461-48.338l-14.102 5.113c7.65 21.1 20.724 39.986 37.805 54.617z"/><path d="m202.433 277.344h-53.081l16.226 180.062h163.704l16.364-180.062h-128.088v15h111.662l-13.637 150.062h-136.296l-13.523-150.062h36.669z"/></g><g><path d="m284.1 344.875h-15v-15h15zm-30 0h-15v-15h15zm-30 0h-15v-15h15z"/></g></g></svg>