<svg id="Capa_1" enable-background="new 0 0 495.845 495.845" height="512" viewBox="0 0 495.845 495.845" width="512" xmlns="http://www.w3.org/2000/svg"><g><g><path d="m213.656 294.806h-15v-15h15zm0-30h-15v-15h15zm0-30h-15v-15h15z"/></g><g><path d="m386.7 234.745.02-112.501h-51.191l36.762-107.708-42.589-14.536-41.722 122.243h-61.206c1.489-4.843 2.413-9.87 2.413-14.906 0-25.435-15.907-47.209-38.289-55.939 5.416-2.409 12.865-4.061 23.133-4.061v-15c-15.81 0-28.382 3.425-37.5 10.168v-17.7h-15v17.62c-15.038-9.931-36.253-10.089-37.511-10.089l.021 15h.043c6.242 0 24.148 1.868 32.684 10.426 3.215 3.224 4.773 7.129 4.763 11.936v.076.031h11.041l3.958.035c.017-.75.197-3.398 1.658-6.624 20.516 4.194 35.999 22.383 35.999 44.12 0 10.282-4.677 20.024-10.261 28.414-5.605 8.421-12.401 16.354-20.118 22.909-6.877 5.842-12.287 8.5-14.474 8.627-.054.002-.116.014-.168.014h-.05c-3.833-.044-15.02-7.06-26.181-20.205-11.778-13.873-18.811-28.736-18.811-39.76 0-14.718 7.22-28.539 19.312-36.97l-8.578-12.305c-16.114 11.234-25.734 29.655-25.734 49.275 0 20.862 15.648 41.544 22.377 49.468 8.373 9.861 19.893 20.256 30.208 24.023l-.054 315.016h225l.043-246.1-15-.003-.017 98.107h-67.525v15h67.522l-.021 117.996h-195l.021-117.996h82.478v-15h-82.476l.026-150.606h85.675 47.549 61.776l-.007 37.499zm-47.646-215.704 14.196 4.845-33.571 98.357h-15.85zm-162.344 163.202v-1.475c8.025-2.999 16.805-10.02 24.25-17.651.007-.007.014-.014.021-.022 7.511-7.702 14.15-16.414 19.33-25.853h62.549l-15.359 45h-90.791zm106.641 0 15.359-45h15.85l-15.359 45zm31.699 0 15.359-45h41.308l-.008 45z"/><path d="m154.031 99.368h15v15h-15z"/><path d="m184.031 99.368h15v15h-15z"/><path d="m169.031 122.035h15v15h-15z"/><path d="m274.073 347.849h15v15h-15z"/><path d="m198.656 384.211h15v75.271h-15z"/></g></g></svg>