<svg id="Capa_1" enable-background="new 0 0 495.733 495.733" height="512" viewBox="0 0 495.733 495.733" width="512" xmlns="http://www.w3.org/2000/svg"><g><g><path d="m412.193 157.604h15.5v15h-15.5z"/></g><g><path d="m128.253 277.8h14.999v15.072h-14.999z" transform="matrix(.999 -.035 .035 .999 -9.784 4.864)"/><path d="m440.445 104.837c.939-.923 1.839-1.902 2.692-2.943 15.499-18.894 8.504-48.895 8.199-50.163l-1.328-5.514-5.667-.225c-1.136-.047-24.879-.813-41.175 11.672-16.261-11.85-39.259-11.112-40.349-11.067l-5.667.225-1.328 5.514c-.305 1.268-7.3 31.269 8.199 50.162.668.814 1.387 1.598 2.134 2.362l-102.365.033c-2.296-14.239-7.006-27.84-14.047-40.514l-13.113 7.284c5.797 10.434 9.8 21.58 11.944 33.235l-14.517.005-67.02.02 49.633-59.148c4.431 4.249 8.533 8.883 12.232 13.884l12.061-8.92c-23.501-31.771-61.093-50.739-100.562-50.739-31.062 0-60.842 11.47-83.854 32.297-22.846 20.677-37.208 48.867-40.443 79.378l-.88 8.293 107.298-.032 4.957 143.189 14.99-.519-4.938-142.672 327.512-.106-11.078 360.904h-303.944l-5.996-173.188-14.99.519 6.496 187.67h332.98l11.998-390.909zm-2.748-43.634c.905 7.989 1.207 22.201-6.156 31.178-7.416 9.038-21.354 11.497-29.352 12.15-.905-7.989-1.207-22.202 6.157-31.178h-.001c7.416-9.039 21.355-11.497 29.352-12.15zm-68.256.604c6.271.511 16.194 2.139 23.773 7.177-5.996 10.414-6.862 22.793-6.391 31.941-4.176-1.787-8.238-4.323-11.205-7.94-7.42-9.045-7.101-23.211-6.177-31.178zm-236.54 42.587-57.297-68.284c16.731-12.213 36.551-19.446 57.297-20.854zm15 0v-89.124c20.754 1.437 40.622 8.794 57.26 20.885zm-83.776-58.629 49.654 59.175-81.557.024c4.146-22.516 15.273-43.19 31.903-59.199z"/><path d="m292.956 152.345-72.592 72.593h-62.187l7.788 225h271.938l6.906-225h-46.853v15h31.386l-5.986 195h-242.9l-6.751-195h31.66l-7.867 7.867 63.779 63.78v87.354h135v-135h-23.995l16.133-16.133zm0 21.213 74.246 74.247-74.246 74.247-74.246-74.247zm88.32 105.38v105h-105v-57.354l16.68 16.68 64.326-64.326z"/><path d="m245.157 220.505h56v15h-56z" transform="matrix(.707 -.707 .707 .707 -81.218 259.934)"/><path d="m396.693 172.604h15.5v15h-15.5z"/></g></g></svg>