<svg id="Capa_1" enable-background="new 0 0 488.519 488.519" height="512" viewBox="0 0 488.519 488.519" width="512" xmlns="http://www.w3.org/2000/svg"><g><path d="m251.685 311.299 152.59-173.066h-70.015v15h36.792l-39.157 44.411h-85.283l-2.089-11.97c3.738-1.361 7.323-3.218 10.669-5.561 9.268-6.489 15.678-15.962 18.27-26.879h45.797v-15h-44.754c-1.92-19.977-16.924-37.086-37.628-40.737-2.641-.466-5.269-.68-7.864-.686l-6.912-39.601c4.724-2.16 8.823-5.525 11.913-9.872 4.639-6.524 6.459-14.464 5.126-22.357-2.751-16.295-18.251-27.311-34.541-24.56-7.894 1.333-14.795 5.66-19.433 12.185-4.639 6.524-6.459 14.464-5.126 22.357s5.66 14.794 12.185 19.433c4.52 3.214 9.721 5.071 15.114 5.467l6.873 39.378c-15.3 5.221-27.388 18.39-30.388 35.404-.211 1.2-.359 2.395-.474 3.588h-99.105l96.808 109.798 11.251-9.92-22.454-25.467h64.156l8.302 47.564 14.776-2.579-7.852-44.985h69.439l-74.411 84.395-42.042-47.684-11.251 9.92 45.719 51.854v112.019l-86.395 65.37h187.976l-86.582-65.375zm-56.854-278.834c-1.375-8.139 4.128-15.878 12.267-17.253.84-.142 1.675-.211 2.5-.211 7.167 0 13.52 5.18 14.752 12.478.666 3.942-.244 7.908-2.56 11.167-2.317 3.258-5.764 5.42-9.707 6.086-3.943.664-7.909-.243-11.167-2.561-3.258-2.317-5.419-5.764-6.085-9.706zm3.765 104.785c2.631-14.923 15.658-25.453 30.315-25.453 1.769 0 3.562.154 5.362.471 16.724 2.949 27.93 18.954 24.981 35.677-1.428 8.101-5.926 15.162-12.665 19.88-6.739 4.719-14.911 6.531-23.013 5.102-16.723-2.948-27.93-18.953-24.98-35.677zm-41.972 60.394-39.156-44.411h66.922c4.132 17.197 18.084 31.204 36.583 34.466 2.687.474 5.377.708 8.05.708.25 0 .5-.01.75-.014l1.615 9.251zm38.35 275.875 49.216-37.239 49.318 37.239z"/><path d="m220.151 127.876h15v15h-15z" transform="matrix(.985 -.174 .174 .985 -20.048 41.583)"/></g></svg>