<svg id="Capa_1" enable-background="new 0 0 494.656 494.656" height="512" viewBox="0 0 494.656 494.656" width="512" xmlns="http://www.w3.org/2000/svg"><g><path d="m172.453 164.062v-15h-50.625v97.438c0 36.117 29.383 65.5 65.5 65.5h30c36.117 0 65.5-29.383 65.5-65.5v-97.438h-95.5v15h80.5v82.438c0 27.846-22.654 50.5-50.5 50.5h-30c-27.846 0-50.5-22.654-50.5-50.5v-82.438z"/><path d="m109.445 273.787-14.156 4.957c1.849 5.282 4.178 10.443 6.922 15.341l13.086-7.331c-2.319-4.141-4.288-8.504-5.852-12.967z"/><path d="m299.828 33.562h15v30h-15z"/><path d="m260.728 56.714h15v30.001h-15z" transform="matrix(.5 -.866 .866 .5 72.01 268.152)"/><path d="m331.928 63.348h30.001v15h-30.001z" transform="matrix(.866 -.5 .5 .866 11.056 182.958)"/><path d="m307.828 0c-18.734 0-36.918 5.353-52.586 15.479l8.143 12.598c13.236-8.556 28.604-13.077 44.443-13.077 45.215 0 82 36.785 82 82 0 2.335-.099 4.674-.296 7.001l-54.196-.001c-3.307-12.229-14.498-21.25-27.758-21.25-13.259 0-24.45 9.023-27.758 21.25h-53.737c-.169-2.252-.255-4.591-.255-7 0-22.875 9.663-44.882 26.513-60.375l-10.153-11.041c-14.18 13.04-24.052 29.981-28.571 48.417h-123.789v172.5c0 5.447.453 10.911 1.348 16.241l14.793-2.481c-.757-4.512-1.141-9.142-1.141-13.759v-157.502h106.338c-.221 2.652-.338 5.321-.338 8 0 5.546.396 10.825 1.178 15.69l1.015 6.31h80.808v-7.5c0-4.708 2.381-8.869 6-11.348v146.348c0 45.491-37.01 82.5-82.5 82.5h-30c-25.188 0-48.675-11.291-64.438-30.978l-11.709 9.375c18.624 23.262 46.379 36.603 76.146 36.603h7.5v84.463l-57.74 30.189c-10.646 5.566-17.26 16.486-17.26 28.5v7.504h165v-7.5c0-12.016-6.616-22.938-17.266-28.502l-57.734-30.17v-84.484h7.5c53.762 0 97.5-43.738 97.5-97.5v-146.662c3.895 2.431 6.5 6.743 6.5 11.662v7.5h81.209l1.024-6.294c.841-5.161 1.267-10.445 1.267-15.707 0-53.485-43.514-96.999-97-96.999zm-39.717 479.656h-131.568c1.573-3.247 4.164-5.97 7.494-7.71l58.271-30.467 58.307 30.469c3.33 1.74 5.922 4.463 7.496 7.708z"/></g></svg>