<svg id="Capa_1" enable-background="new 0 0 495.995 495.995" height="512" viewBox="0 0 495.995 495.995" width="512" xmlns="http://www.w3.org/2000/svg"><g><g><path d="m164.656 318.289c-1.558-4.922-2.949-9.969-4.133-15.002l14.601-3.438c1.099 4.667 2.389 9.349 3.833 13.913zm-7.127-30.271c-.804-5.111-1.422-10.311-1.836-15.455l14.951-1.205c.384 4.769.957 9.589 1.703 14.329zm-2.49-31.024-.001-15.017h15l.001 14.983z"/></g><g><path d="m329.007 81.544 81.325 36.301-51.77-101.646 4.501-10.084-13.697-6.115-4.712 10.556-110.159 28.8 80.815 36.074-27.241 60.628h-120.307c-.587-2.847-1.503-5.647-2.762-8.348-4.233-9.078-11.749-15.964-21.161-19.391-2.024-.737-4.085-1.283-6.162-1.663-.997-11.144-4.758-33.155-18.94-47.397-8.723-8.76-19.851-13.201-33.074-13.201v15c9.198 0 16.529 2.862 22.41 8.75 10.467 10.479 13.611 27.806 14.556 37.195-2.542.588-5.043 1.439-7.464 2.568-9.078 4.233-15.964 11.749-19.39 21.161-7.072 19.431 2.982 40.992 22.413 48.065 1.597.581 3.217 1.05 4.85 1.408v76.127c0 35.241 8.057 70.664 23.3 102.438 14.278 29.761 21.825 62.94 21.825 95.95v41.274h134.875v-41.404c0-32.927 7.511-66.031 21.727-95.745l.083-.176c15.171-31.711 23.19-67.054 23.19-102.208v-120.404h-43.525zm17.498-55.967 31.212 61.284-98.111-43.794zm-74.56 146.365-19.435 7.073 5.13 14.096 15.365-5.592 20.521 56.381-56.381 20.521-20.521-56.382 26.017-9.469-5.13-14.096-31.972 11.637v-.055h-67.5s0-15.661 0-15.662c0 .201 8.884-2.873 9.637-3.25 3.106-1.552 5.989-3.543 8.551-5.885 5.823-5.323 9.941-12.469 11.536-20.203h113.566zm-162.074-36.081c2.055-5.647 6.187-10.156 11.634-12.696 3.025-1.411 6.254-2.12 9.496-2.12 2.595 0 5.198.455 7.708 1.369 14.884 5.419 19.633 25.049 8.647 36.594-6.097 6.407-15.714 8.723-24.038 5.693-11.658-4.244-17.691-17.181-13.447-28.84zm201.44 216.346-.083.176c-14.567 30.448-22.519 64.245-23.13 98.008h-67.56v15h67.5v15.604h-104.875v-15.604h22.375v-15h-22.437c-.631-33.807-8.62-67.636-23.239-98.109-14.278-29.762-21.825-62.941-21.825-95.95v-45.274h63.721l26.421 72.59 84.572-30.782-15.217-41.808h35.503v45.405c.001 32.926-7.51 66.03-21.726 95.744zm21.727-201.15v45h-40.963l-6.499-17.855 12.197-27.145z"/><path d="m185.861 381.89 84.572 30.782 30.782-84.572-84.572-30.782zm96.128-44.826-20.521 56.382-56.381-20.521 20.521-56.381z"/></g></g></svg>