<svg id="Capa_1" enable-background="new 0 0 512 512" height="512" viewBox="0 0 512 512" width="512" xmlns="http://www.w3.org/2000/svg"><g><path d="m391 277.304v-277.304h-270v277.304c0 69.37 52.593 126.687 120 134.171v70.525h-90v30h210v-30h-90v-70.524c67.407-7.485 120-64.802 120-134.172zm-30-247.304v53.748c-7.715 3.522-14.855 6.137-28.843 6.137-15.713 0-22.785-3.3-31.738-7.478-10.338-4.824-22.056-10.292-44.424-10.292-22.367 0-34.084 5.468-44.422 10.292-8.953 4.178-16.024 7.478-31.736 7.478-13.984 0-21.124-2.615-28.837-6.136v-53.749zm-210 247.304v-161.381c7.411 2.3 16.505 3.962 28.837 3.962 22.367 0 34.084-5.468 44.422-10.292 8.953-4.178 16.024-7.478 31.736-7.478s22.784 3.3 31.737 7.478c10.338 4.824 22.056 10.292 44.424 10.292 12.335 0 21.431-1.663 28.843-3.964v161.383c0 57.897-47.103 105-105 105-57.896 0-104.999-47.103-104.999-105z"/><path d="m308.268 326.209 10.606-10.606-102.746-102.746-10.606 10.607c-28.327 28.327-28.327 74.418 0 102.746 14.164 14.164 32.768 21.246 51.373 21.246 18.605-.001 37.209-7.083 51.373-21.247zm-90.215-69.001 56.47 56.47c-15.713 7.11-34.888 4.218-47.788-8.682-12.899-12.898-15.792-32.073-8.682-47.788z"/><path d="m291.253 192.321h30v30h-30z"/><path d="m194.661 152.043h30v30h-30z"/></g></svg>