<svg id="Capa_1" enable-background="new 0 0 512 512" height="512" viewBox="0 0 512 512" width="512" xmlns="http://www.w3.org/2000/svg"><g><path d="m301 172.651v-82.651h30v-30h-30v-60h-90v60h-30v30h30v82.651c-85.807 1.968-155 72.382-155 158.653 0 55.108 28.517 105.979 75 134.855v45.841h250v-45.84c46.483-28.876 75-79.748 75-134.856 0-86.271-69.193-156.684-155-158.653zm-60-142.651h30v30h-30zm30 60v52.609h-30v-52.609zm-56.304 112.609h26.304v-30h30v30h26.305c47.269 0 88.667 25.616 111.042 63.695h-89.661c-16.766-16.159-39.243-25.304-62.686-25.304s-45.92 9.145-62.687 25.304h-89.661c22.377-38.079 63.775-63.695 111.044-63.695zm144.123 241.768-7.819 4.264v33.359h-190v-33.359l-7.818-4.263c-13.489-7.356-25.314-16.908-35.13-28.073h75.263c16.767 16.16 39.243 25.304 62.686 25.304s45.92-9.145 62.686-25.304h75.263c-9.817 11.164-21.642 20.717-35.131 28.072zm54.844-58.073h-108.09l-4.476 5.037c-11.445 12.88-27.883 20.268-45.097 20.268s-33.652-7.387-45.097-20.268l-4.476-5.037h-108.09c-7.993-16.907-12.337-35.631-12.337-55 0-12.127 1.687-23.868 4.837-35h115.591l4.476-5.037c11.444-12.88 27.882-20.267 45.096-20.267s33.652 7.387 45.097 20.268l4.476 5.037h115.591c3.15 11.132 4.837 22.873 4.837 35-.001 19.369-4.345 38.092-12.338 54.999z"/><path d="m226.002 326.652h60v30h-60z"/></g></svg>