<svg id="Capa_1" enable-background="new 0 0 512 512" height="512" viewBox="0 0 512 512" width="512" xmlns="http://www.w3.org/2000/svg"><g><path d="m261.263 294.208c-18.341 2.735-36.479 12.282-51.072 26.88-14.593 14.597-24.136 32.739-26.871 51.083-2.939 19.717 2.486 38.138 14.884 50.539 10.188 10.191 24.439 15.673 40.135 15.673 3.407 0 6.882-.258 10.397-.783 18.341-2.735 36.479-12.282 51.072-26.88 14.593-14.597 24.136-32.739 26.871-51.083 2.939-19.717-2.486-38.138-14.884-50.54-12.399-12.403-30.818-17.829-50.532-14.889zm4.425 29.672c1.687-.251 3.784-.46 6.1-.46 5.924 0 13.272 1.368 18.792 6.888 1.127 1.127 2.104 2.371 2.951 3.706-14.575 12.019-27.128 14.433-41.353 17.158-10.612 2.034-22.031 4.228-34.374 10.212 3.186-6.669 7.756-13.237 13.603-19.086 9.934-9.937 22.429-16.651 34.281-18.418zm-21.376 84.048c-6 .896-17.214 1.25-24.892-6.428-1.127-1.127-2.104-2.371-2.95-3.706 14.576-12.019 27.128-14.433 41.353-17.158 10.612-2.034 22.031-4.228 34.374-10.212-3.186 6.669-7.756 13.237-13.603 19.086-9.935 9.937-22.43 16.65-34.282 18.418z"/><path d="m415.1 286.541c-15.353-26.766-37.394-49.413-63.74-65.494-31.063-18.96-50.36-53.793-50.36-90.907v-40.123h20v-30h-20v-60.017h-90v60.017h-20v30h20v40.123c0 37.114-19.297 71.947-50.36 90.907-26.346 16.081-48.387 38.728-63.74 65.494-15.837 27.61-24.208 59.12-24.208 91.125 0 49.141 19.181 95.296 54.01 129.965l4.389 4.369h249.817l4.389-4.369c34.829-34.669 54.01-80.825 54.01-129.965.001-32.005-8.37-63.515-24.207-91.125zm-174.1-256.541h30v30.017h-30zm30 60.017v40.123c0 21.577 5.086 42.931 14.731 62.094l-29.731 17.595-29.731-17.594c9.645-19.164 14.731-40.518 14.731-62.095v-40.123zm97.357 391.983h-224.714c-26.454-28.45-40.951-65.265-40.951-104.334 0-53.915 27.505-102.891 73.578-131.011 12.757-7.786 24.111-17.712 33.61-29.259l46.12 27.292 46.121-27.293c9.499 11.548 20.853 21.473 33.61 29.26 46.072 28.12 73.578 77.096 73.578 131.011-.001 39.069-14.498 75.884-40.952 104.334z"/></g></svg>