<svg id="Capa_1" enable-background="new 0 0 512 512" height="512" viewBox="0 0 512 512" width="512" xmlns="http://www.w3.org/2000/svg"><g><path d="m417.144 139.021-4.441-4.717h-68.138v-30.739h73.565v-15c0-48.835-39.731-88.565-88.566-88.565s-88.564 39.73-88.564 88.565v15h73.564v30.739h-139.992l-15.31-69.546h-73.863v30h49.749l8.706 39.546h-44.557l-4.441 4.717c-38.793 41.199-60.156 95.066-60.156 151.679 0 59.111 23.02 114.685 64.817 156.482 41.798 41.799 97.372 64.818 156.483 64.818s114.685-23.019 156.482-64.817c41.798-41.798 64.818-97.371 64.818-156.483 0-56.613-21.364-110.481-60.156-151.679zm-87.58-109.021c27.109 0 49.977 18.517 56.619 43.565h-113.237c6.643-25.048 29.51-43.565 56.618-43.565zm70.036 134.304c12.386 14.054 22.522 29.672 30.216 46.366-13.08 2.151-22.242 5.846-30.669 9.245-11.855 4.782-22.095 8.911-43.978 8.911s-32.122-4.129-43.978-8.911c-12.887-5.198-27.493-11.089-55.198-11.089-27.704 0-42.311 5.891-55.197 11.089-2.292.924-4.522 1.824-6.789 2.675l-12.831-58.285h218.424zm-287.201 0h38.059l14.161 64.329c-2.43.126-5.019.193-7.797.193-21.881 0-32.118-4.129-43.973-8.911-8.426-3.399-17.588-7.094-30.666-9.245 7.695-16.694 17.831-32.312 30.216-46.366zm143.601 317.696c-105.483 0-191.3-85.817-191.3-191.3 0-17.502 2.362-34.701 6.93-51.203 12.933 1.357 20.999 4.611 29.996 8.24 12.887 5.198 27.492 11.089 55.195 11.089 5.21 0 9.956-.208 14.315-.581l26.622 120.936 29.299-6.449-26.548-120.6c4.139-1.422 7.892-2.936 11.508-4.395 11.854-4.782 22.093-8.911 43.975-8.911 21.883 0 32.122 4.129 43.978 8.911 12.887 5.198 27.493 11.089 55.198 11.089s42.312-5.891 55.198-11.089c8.999-3.63 17.067-6.883 30.002-8.24 4.568 16.502 6.931 33.701 6.931 51.203.001 105.483-85.816 191.3-191.299 191.3z"/><path d="m366.478 316.13h30v30h-30z"/><path d="m294.304 292.957h30v30h-30z"/><path d="m309.304 390.957h30v30h-30z"/></g></svg>