<svg id="Capa_1" enable-background="new 0 0 512 512" height="512" viewBox="0 0 512 512" width="512" xmlns="http://www.w3.org/2000/svg"><g><path d="m466.33 114.803 45.67-45.67-69.133-69.133-45.67 45.67c-34.605-15.99-74.852-17.638-111.282-3.343l-21.292-21.292-63.659 63.659 18.925 18.925-219.889 268.939 139.442 139.442 268.939-219.889 18.925 18.925 63.659-63.659-21.292-21.292c14.294-36.43 12.646-76.677-3.343-111.282zm-324.866 356.78-101.047-101.047 19.549-23.91 105.408 105.408zm47.259-38.639-109.667-109.667 162.159-198.332 145.84 145.84zm238.583-164.347-183.903-183.904 21.22-21.22 183.903 183.903zm18.585-66.294-136.195-136.195c37.761-9.753 78.673.868 107 29.195 28.328 28.328 38.948 69.239 29.195 107zm-7.975-128.219c-4.508-4.508-9.267-8.662-14.237-12.456l19.189-19.189 26.693 26.693-19.189 19.189c-3.794-4.97-7.948-9.73-12.456-14.237z"/><path d="m144.333 151.165v-30.009c-71.738 0-130.1 58.363-130.1 130.1h30.009c-.001-55.19 44.9-100.09 100.091-100.091z"/><path d="m331.518 438.442c-18.905 18.905-44.04 29.316-70.776 29.316v30.009c34.751 0 67.423-13.532 91.996-38.105 24.572-24.573 38.105-57.244 38.105-91.995h-30.009c0 26.735-10.411 51.871-29.316 70.775z"/></g></svg>