<svg id="Capa_1" enable-background="new 0 0 512 512" height="512" viewBox="0 0 512 512" width="512" xmlns="http://www.w3.org/2000/svg"><g><path d="m468.747 77.623c0-42.802-34.822-77.623-77.623-77.623-37.672 0-69.162 26.974-76.169 62.623h-143.84l-6.441-62.623h-82.341v30h55.27l3.355 32.623h-97.705v133.855c0 94.993 73.382 173.169 166.435 180.82v104.702h-90v30h210v-30h-90v-104.701c93.054-7.651 166.436-85.827 166.436-180.82v-42.686c35.648-7.008 62.623-38.498 62.623-76.17zm-92.623 15v30.823c-14.486 1.558-23.76 5.263-32.175 8.624-9.726 3.885-18.126 7.24-36.046 7.24s-26.319-3.355-36.045-7.24c-11.008-4.397-23.484-9.381-47.175-9.381-23.175 0-35.619 4.769-46.454 9.094l-4.028-39.16zm-232.081 0 4.78 46.477c-2.268.138-4.708.211-7.356.211-17.919 0-26.317-3.355-36.043-7.24-8.414-3.362-17.687-7.066-32.171-8.624v-30.824zm80.645 255.29c-83.501 0-151.435-67.934-151.435-151.435v-42.797c8.597 1.277 14.521 3.644 21.042 6.248 11.007 4.397 23.482 9.381 47.172 9.381 3.743 0 7.206-.125 10.428-.351l10.914 106.107 29.842-3.07-11.239-109.267c2.534-.924 4.913-1.875 7.227-2.799 9.726-3.885 18.125-7.24 36.044-7.24 17.92 0 26.32 3.355 36.046 7.24 11.008 4.397 23.484 9.381 47.174 9.381s36.167-4.983 47.175-9.381c6.521-2.605 12.447-4.972 21.046-6.249v42.797c0 83.501-67.934 151.435-151.436 151.435zm181.436-225.087v-60.203h-60.204c6.299-18.933 24.182-32.623 45.204-32.623 26.26 0 47.623 21.363 47.623 47.623 0 21.021-13.691 38.905-32.623 45.203z"/><path d="m299.688 208.485h30v30h-30z"/><path d="m246.775 264.5h30v30h-30z"/></g></svg>