<svg id="Capa_1" enable-background="new 0 0 512 512" height="512" viewBox="0 0 512 512" width="512" xmlns="http://www.w3.org/2000/svg"><g><path d="m411.264 74.947-14.905-74.947h-280.717l-14.906 74.947c-9.281 46.667 2.708 94.527 32.895 131.308 26.99 32.886 65.505 53.231 107.37 57.171v218.574h-90v30h210v-30h-90v-218.574c41.865-3.94 80.379-24.285 107.369-57.171 30.185-36.78 42.175-84.641 32.894-131.308zm-39.527-44.947 6.218 31.264c-9.724 1.698-16.515 4.621-22.761 7.308-8.202 3.53-14.681 6.318-29.11 6.318-14.43 0-20.908-2.788-29.111-6.318-9.542-4.106-20.359-8.761-40.969-8.761-20.611 0-31.428 4.654-40.971 8.761-8.203 3.53-14.682 6.318-29.113 6.318-14.43 0-20.91-2.788-29.112-6.318-6.246-2.688-13.038-5.61-22.763-7.308l6.218-31.264zm-16.558 157.223c-24.465 29.81-60.614 46.907-99.179 46.907s-74.714-17.097-99.18-46.907c-22.32-27.196-32.364-61.866-28.243-96.458 6.482 1.109 11.066 3.082 16.372 5.365 9.543 4.106 20.36 8.761 40.971 8.761s31.428-4.654 40.971-8.761c8.203-3.53 14.682-6.318 29.113-6.318 14.43 0 20.908 2.788 29.111 6.318 9.542 4.106 20.359 8.761 40.969 8.761s31.426-4.654 40.969-8.762c5.305-2.283 9.889-4.255 16.369-5.364 4.122 34.591-5.923 69.261-28.243 96.458z"/><path d="m197.381 134.907h30v30h-30z"/><path d="m284.62 153.913h30v30h-30z"/></g></svg>