<svg id="Capa_1" enable-background="new 0 0 512 512" height="512" viewBox="0 0 512 512" width="512" xmlns="http://www.w3.org/2000/svg"><g><path d="m418.521 103.565v-15c0-48.835-39.73-88.565-88.565-88.565s-88.564 39.73-88.564 88.565v15h73.564v30.739h-104.935l-6.247-60.739h-79.342v30h52.27l3.162 30.739h-86.385v118.044c0 43.521 31.929 79.724 73.592 86.414 5.939 38.153 35.93 68.455 73.93 74.857v68.381h-90v30h210v-30h-90v-68.38c38-6.402 67.991-36.704 73.93-74.857 41.663-6.69 73.592-42.894 73.592-86.414v-118.044h-73.565v-30.739h73.563zm-235.572 60.74 4.99 48.512c-6.497 1.954-14.177 3.215-24.896 3.215-19.54 0-28.977-4.191-39.563-9.127v-42.601h59.469zm148.051 145.565h-15v15c0 33.084-26.916 60-60 60s-60-26.916-60-60v-15h-15c-31.718 0-57.521-25.804-57.521-57.521v-12.811c9.758 3.619 21.874 6.494 39.563 6.494 11.345 0 20.397-1.183 28.006-2.986l3.196 31.076 29.842-3.07-4.028-39.166c9.395-4.259 18.795-7.634 36.328-7.634 20.009 0 29.427 4.395 40.331 9.483 12.352 5.764 26.353 12.297 53.018 12.297 17.223 0 29.163-2.726 38.787-6.209v12.526c-.001 31.717-25.804 57.521-57.522 57.521zm57.521-102.602c-10.279 4.776-19.728 8.764-38.787 8.764-20.01 0-29.428-4.395-40.332-9.483-12.352-5.764-26.353-12.297-53.017-12.297-17.671 0-29.779 2.869-39.532 6.483l-3.747-36.43h175.415zm-58.565-177.268c27.109 0 49.977 18.517 56.619 43.565h-113.237c6.642-25.048 29.51-43.565 56.618-43.565z"/></g></svg>